<svg xmlns="http://www.w3.org/2000/svg" width="1204.518" height="262.932" viewBox="0 0 1204.518 262.932">
  <g id="Group_41" data-name="Group 41" transform="translate(-3332.006 -211.497)">
    <path id="Path_406" data-name="Path 406" d="M4613.31,502.456c-1.283-.913-2.528-1.886-3.855-2.728-14.438-9.167-28.842-18.39-43.362-27.426-5.682-3.536-11.629-6.648-17.469-9.927-1.068-.6-2-1.149-2.194-2.574a2.71,2.71,0,0,0-1.377-1.679c-5.835-2.915-10.973-6.878-16.284-10.59-3.433-2.4-6.953-4.685-10.506-6.9a29.208,29.208,0,0,0-10.685-3.874,40.631,40.631,0,0,1-9.1-2.557,18,18,0,0,1-10.347-10.52,8.181,8.181,0,0,0-3.5-4.151q-28.96-18.264-58.766-35.111a2.558,2.558,0,0,0-2.83-.041q-8.07,4.31-16.215,8.477c-3.055,1.556-6.2,2.929-9.288,4.429a30.355,30.355,0,0,0-4.452,2.4,39.521,39.521,0,0,1-12.782,5.645c-2.308.638-4.614,1.294-6.9,2.009a4.408,4.408,0,0,1-3.154-.273,45.336,45.336,0,0,1-12.5-7.92,33.456,33.456,0,0,0-6.773-4.529,15.841,15.841,0,0,1-5.8-4.418,2.115,2.115,0,0,0-2.528-.546c-5.041,1.38-10.118,2.633-15.116,4.151-6.936,2.106-13.575,5.023-20.286,7.744-10.646,4.316-21.338,8.53-32.1,12.541-16.479,6.143-33.043,12.058-49.552,18.121-2.242.823-4.386,1.916-6.557,2.923a15.445,15.445,0,0,1-5.406,1.758,18.085,18.085,0,0,1-3.4-.2,4.5,4.5,0,0,1-1.262-.593,2.543,2.543,0,0,1,1.313-1.931,14.715,14.715,0,0,1,2.717-1.465c8.317-3.248,16.61-6.566,24.989-9.646,7.049-2.591,14.2-4.925,21.318-7.312,16.125-5.4,31.88-11.737,47.4-18.668a224.772,224.772,0,0,1,36.527-12.175,7.237,7.237,0,0,1,5.534.728c6.855,3.911,14.04,7.223,20.628,11.631a15.423,15.423,0,0,0,15.741,1.266c6.269-2.9,12.348-6.217,18.508-9.357a6.64,6.64,0,0,0,.635-.438l-.541-1.241a11.3,11.3,0,0,1-7.718-.235,33.414,33.414,0,0,1-3.572-1.608q-10.6-5.648-21.164-11.352c-6.668-3.59-13.412-7.025-20.4-9.948-.853-.356-1.735-.643-2.615-.928a2.8,2.8,0,0,0-3.109.875,12.6,12.6,0,0,0-1.411,1.793,36.165,36.165,0,0,1-7.382,8.244q-4.472,3.821-8.891,7.7a6.76,6.76,0,0,1-5.3,1.653,18.7,18.7,0,0,1-3.517-.7q-13.855-4.126-27.685-8.334a9.7,9.7,0,0,1-2.455-1.21,15.292,15.292,0,0,0-5.4-2.243,60.889,60.889,0,0,1-14.8-5.53c-3.316-1.638-6.676-3.211-10.109-4.582a29.033,29.033,0,0,0-10.689-2.08,16.381,16.381,0,0,0-7.732,1.773q-30.3,15.746-60.558,31.563c-6.41,3.365-12.671,7.016-19.016,10.511-1.906,1.05-3.859,2.017-5.8,3.016a7.581,7.581,0,0,1-1.185.542,1.765,1.765,0,0,1-2.26-.779,1.944,1.944,0,0,1,.157-2.419,6.552,6.552,0,0,1,1.566-1.151c23.585-12.938,46.93-26.329,71.385-37.615,2.175-1,4.3-2.122,6.414-3.245a33.575,33.575,0,0,0,6.172-4.175,7.637,7.637,0,0,0,2.91-5.938c.405-8.045,1.036-16.078,1.525-24.119.148-2.444.121-4.9.173-7.349q.182-8.494.365-16.986c.046-2.059.056-2.09,2.124-2.619a7.6,7.6,0,0,1,3.679-.5,3.376,3.376,0,0,1,2.045,1.211q7.4,9.358,14.844,18.676c1.027,1.279.585,2.581.313,3.872-.069.328-.719.6-1.152.772-2.329.921-4.7,1.74-7,2.718-1.546.657-3,1.538-4.511,2.285a1.629,1.629,0,0,0-.93,1.565c-.2,3.423-.451,6.844-.682,10.265a2.183,2.183,0,0,1-.013.326c-.978,4.568.354,8.829,1.716,13.093a1.819,1.819,0,0,0,1.227,1.379,23.179,23.179,0,0,0,2.328.75,87.692,87.692,0,0,1,12.053,3.544c9.739,3.323,19.5,6.581,29.249,9.876,1.133.383,2.272.775,3.363,1.264,5.969,2.672,12.312,3.978,18.686,5.185a30.038,30.038,0,0,1,3.186.72,4.971,4.971,0,0,0,4.354-.722,40.573,40.573,0,0,0,12.813-12.623,24.6,24.6,0,0,1,2.5-3.418,5.88,5.88,0,0,1,6.209-1.93,21.514,21.514,0,0,1,4.283,1.548c8.814,4.53,17.594,9.129,26.381,13.71.869.453,1.74.907,2.579,1.412a43.551,43.551,0,0,0,12.317,5.12,18.437,18.437,0,0,1,6.6,3.115,12.4,12.4,0,0,0,12.234,1.66,60.749,60.749,0,0,0,7.662-3.637l-2.21-1.529a7.107,7.107,0,0,1,5.611-1.584,16.029,16.029,0,0,0,2.571.138,2.273,2.273,0,0,1,1.966.944,4.112,4.112,0,0,0,1.16,1.067q7.532,4.269,15.09,8.487,17.176,9.622,34.355,19.237,3.349,1.875,6.713,3.729c.428.237.856.482,1.3.676a2.861,2.861,0,0,0,3.909-.914c.563-.663,1-1.434,1.577-2.083a63.7,63.7,0,0,1,4.97-5.389,20.022,20.022,0,0,1,14.072-5.185c.272,0,.544.01.817.011,2.646.007,3.378-.6,4.2-3.173.677-2.121,1.4-4.235,2.282-6.277a12.935,12.935,0,0,1,2.04-3.132,9.2,9.2,0,0,1,8.318-3.252,20.159,20.159,0,0,1,6.438,1.745,30.162,30.162,0,0,0,9.483,2.3c4.062.4,8.154.578,12.076,1.894a2.307,2.307,0,0,0,2.619-.877c.665-.792,1.258-1.647,1.94-2.422,1.477-1.672,2.918-3.386,4.5-4.949a12.828,12.828,0,0,1,11.877-3.567c2.882.529,5.706,1.377,8.554,2.091.518.13,1.025.305,1.649.494.267-.689.476-1.3.738-1.885.885-1.985,1.673-4.027,2.711-5.93a18.64,18.64,0,0,1,10.187-8.513,11.8,11.8,0,0,1,10.392.8c.565.315,1.122.646,1.791,1.033,1.961-3.134,4.135-6.074,5.593-9.425a21.2,21.2,0,0,1,10.621-10.841,42.736,42.736,0,0,1,9.369-3.329c5.167-1.156,9.25.587,11.635,5.269,3.042,5.972,4.448,12.279,2.774,18.966a40.416,40.416,0,0,1-1.532,4.3c-.382,1.018-.817,2.017-1.2,3.034a3.493,3.493,0,0,0,1.283,4.479c2.446,1.717,4.884,3.472,7.47,4.963a34.985,34.985,0,0,0,11.25,3.79,27.955,27.955,0,0,1,7.137,2.281c5.682,2.754,8.363,7.56,9.21,13.573a5,5,0,0,1-1.411,4.206,15.6,15.6,0,0,1-2.316,2.052,42.84,42.84,0,0,1-20.291,7.971c-9.091,1.02-18.149,2.332-27.226,3.488q-14.1,1.8-28.209,3.53a27.042,27.042,0,0,1-3.1.189,2.089,2.089,0,0,1-2.275-1.879c-.216-1.107.24-1.907,1.581-2.271a13.55,13.55,0,0,1,4.009-.661c5.833.251,11.479-1.086,17.19-1.855,5.937-.8,11.867-1.652,17.8-2.5,7.384-1.059,14.777-2.068,22.145-3.235a28.084,28.084,0,0,0,11.173-4.391c.907-.6,1.878-1.1,2.792-1.694a4.532,4.532,0,0,0,2.145-5.181,9.012,9.012,0,0,0-4.787-6.655c-5.536-2.785-11.354-4.468-17.645-3.707-1.453.176-2.872.606-4.315.872a14.587,14.587,0,0,1-3.056.406c-1.885-.061-2.51-1.3-1.455-2.878a12.047,12.047,0,0,1,1.944-1.95c.721-.669,1.474-1.3,1.4-2.454a3.091,3.091,0,0,0-3.2-.621c-1.086.353-2.148.78-3.234,1.14-.924.307-1.937.793-2.794.063-.879-.748-.5-1.8-.278-2.758.619-2.7.619-2.695-2.071-3.713a6.068,6.068,0,0,1-.889-.408c-1.329-.77-1.58-1.726-.678-2.971a12.08,12.08,0,0,1,1.686-1.766,23.8,23.8,0,0,0,6.1-8.782,11.758,11.758,0,0,0,.892-6.225,9.119,9.119,0,0,0-6.949-7.8,16.551,16.551,0,0,0-10.567.844,9.926,9.926,0,0,0-4.5,3.666c-2.127,3.228-4.25,6.461-6.267,9.758a29.926,29.926,0,0,0-4.486,13.511c-.213,2.844-2.015,3.743-4.572,2.423a4.49,4.49,0,0,1-2.164-5.3c.209-.788.534-1.546.728-2.338a2.687,2.687,0,0,0-1.506-3.41,6.032,6.032,0,0,0-4.257-.7,12.939,12.939,0,0,0-7.908,5.136c-3.511,4.651-4.843,9.783-3.18,15.53a33.56,33.56,0,0,1-.531,21.186c-.867,2.412-.609,3,1.245,4.71a18.033,18.033,0,0,1,2.916,3.272,6.889,6.889,0,0,1-.665,8.746,12.927,12.927,0,0,1-5.907,3.95,29.4,29.4,0,0,1-5.711,1.317c-8.173.929-16.349,1.835-24.54,2.563a272.185,272.185,0,0,1-31.831,1.193c-.377-.011-.755,0-1.357,0a9.919,9.919,0,0,0,.566,1.219,12.632,12.632,0,0,0,4,3.549c8.777,5.585,17.593,11.11,26.313,16.782,7.669,4.989,15.257,10.107,22.818,15.259a4.444,4.444,0,0,0,4.291.732c18.105-5.433,36.248-10.743,54.38-16.087,10.921-3.219,21.85-6.414,32.756-9.679a13.61,13.61,0,0,1,6.275-.386q47.818,7.86,95.645,15.657,9.6,1.57,19.191,3.16a9.526,9.526,0,0,1,2.048.526,3.322,3.322,0,0,1,2.138,3.648,3.288,3.288,0,0,1-3.17,2.783,10.214,10.214,0,0,1-2.275-.151q-37.343-6.1-74.679-12.217a6.155,6.155,0,0,0-3.666.213,5.155,5.155,0,0,1-2.566.124q-13.537-1.719-27.068-3.508c-1.783-.232-3.559-.557-5.349-.67a8.833,8.833,0,0,0-3.035.364q-18.549,5.564-37.077,11.2-21.35,6.462-42.7,12.923c-.57.172-1.133.367-1.758.572.137.728.745.943,1.187,1.271,4.945,3.664,9.953,7.248,14.835,11a59.029,59.029,0,0,1,5.354,5.009,1.6,1.6,0,0,1,.125,2.354c-.207.305-.43.6-.646.9Zm-54.589-72.87,0-.228c6.042-.209,12.087-.371,18.126-.649a60.255,60.255,0,0,0,7.137-.757,15.906,15.906,0,0,0,7.417-3.217,3.734,3.734,0,0,0,1.587-3.858c-.337-1.591-1.606-2.075-2.98-2.407a.885.885,0,0,0-.16-.033c-1.187-.056-2.375-.119-3.563-.163-1.6-.06-2.266-.666-2.021-2.238a7.678,7.678,0,0,1,1.124-2.835,33.42,33.42,0,0,0,4.229-10.036,21.252,21.252,0,0,0-1.447-14.8c-2.265-4.658-5.992-6.226-10.962-4.709a16.3,16.3,0,0,0-9,6.686c-2.039,3.036-3.866,6.186-4.306,9.939a3.844,3.844,0,0,1-1.562,2.768,1.4,1.4,0,0,1-1.921-.039,5.341,5.341,0,0,1-1.692-2.734c-.42-1.407-.778-2.834-1.2-4.242-.892-3-2.462-4.21-5.542-4.3-1.659-.048-2.272.5-2.394,2.166-.071.976-.021,1.967-.158,2.932-.306,2.15-1.756,2.749-3.464,1.386a9.186,9.186,0,0,1-1.764-2.114,10.192,10.192,0,0,0-3.647-3.437,16,16,0,0,0-12.335-1.4c-4.1,1.168-6.024,3.783-6.083,8.018-.017,1.252.021,2.508-.061,3.755-.128,1.923-.749,2.386-2.662,1.972-1.382-.3-2.727-.764-4.108-1.068a14.388,14.388,0,0,0-17.083,9.809,2.784,2.784,0,0,1-.225.609c-1.335,2.234-1,4.739-1.153,7.16a3.5,3.5,0,0,0,.2,1.121c.692,2.438,4.715,6.11,7.216,6.6a1.5,1.5,0,0,0,.162.027c1.407.129,2.813.288,4.224.38,2.815.185,5.638.28,8.451.515a14.624,14.624,0,0,0,5.488-.479,26.025,26.025,0,0,1,10.832-.9,45.667,45.667,0,0,0,4.718.4C4545,429.359,4551.861,429.463,4558.721,429.586Z" transform="translate(-260.95 -28.027)" fill="#fff"/>
    <path id="Path_407" data-name="Path 407" d="M4019.84,241.162a3.207,3.207,0,0,0,1.991-2.781,25.839,25.839,0,0,1,12.461-18.108,28.608,28.608,0,0,1,10.381-3.76,10.013,10.013,0,0,1,1.628-.124c3.791.01,5.993,2.07,6.251,5.857a21.081,21.081,0,0,1-1.211,7.7,52.908,52.908,0,0,1-4.309,9.681,11.114,11.114,0,0,0-.614,1.153c-.288.714-.066,1.226.7,1.274a4.412,4.412,0,0,1,3.79,2.731c1.5,3.034,3.888,3.688,6.94,2.9.578-.15,1.174-.228,1.762-.347a15.5,15.5,0,0,1,6.644-.075c2.017.461,4.064.793,6.07,1.291a16.893,16.893,0,0,1,3.207,1.182,6.538,6.538,0,0,1,3.993,6.713,45.393,45.393,0,0,1-1.126,5.91c-.085.415-.234.816-.4,1.4,1.375.284,2.633.565,3.9.8,3.586.668,7.2,1.209,10.752,2.016a23.306,23.306,0,0,1,5.323,2,10.176,10.176,0,0,1,4.837,5.741,6.346,6.346,0,0,1-.047,4.929,16.811,16.811,0,0,1-7.817,8.679,42.243,42.243,0,0,1-12.137,3.718,177.047,177.047,0,0,1-21.36,2.873c-5.493.308-10.995.452-16.488.766-5.926.339-11.845.794-17.767,1.192a18.377,18.377,0,0,1-2.12.078c-2.441-.119-3.418-1.388-3.021-4.124,1.5-.132,3.047-.321,4.6-.4,7.345-.36,14.694-.658,22.039-1.038a147.854,147.854,0,0,0,18.816-2.135c2.773-.5,5.635-.513,8.456-.751a44.744,44.744,0,0,0,13.194-2.873,16.73,16.73,0,0,0,8.281-7.105c1.786-3,1.314-4.594-1.93-5.8a49.323,49.323,0,0,0-13.807-3.157,24.805,24.805,0,0,0-10.891,1.681,14.034,14.034,0,0,1-2.174.691,2.745,2.745,0,0,1-3.2-1.654,2.328,2.328,0,0,1,.889-3.14c1.022-.813,2.1-1.56,3.146-2.341a15.375,15.375,0,0,0,5.248-7.332c.714-1.969.384-2.784-1.59-3.552a24.162,24.162,0,0,0-14.286-1.187c-2.909.654-5.736,1.679-8.6,2.551-.936.285-1.842.683-2.791.905a1.92,1.92,0,0,1-2.625-1.279c-.345-.736-.576-1.525-.852-2.292-.18-.5-.351-1-.6-1.709-.856.481-1.606.882-2.338,1.317-1.511.9-2.542.9-3.6-.005a2.856,2.856,0,0,1-.637-3.83c.33-.685.746-1.328,1.127-1.988,2.044-3.534,4.145-7.037,6.12-10.609a46.567,46.567,0,0,0,4.743-13.123,6.8,6.8,0,0,0-6-.99,10.984,10.984,0,0,0-2.847,1.2,41.018,41.018,0,0,0-7.678,5.793,20.844,20.844,0,0,0-6,11.522c-.76,4.057-1.885,8.049-2.949,12.044-.5,1.9-1.653,2.691-3.268,2.6a2.179,2.179,0,0,1-2.237-1.782c-.191-.785-.155-1.623-.31-2.42a24.733,24.733,0,0,0-1.009-4.419,4.12,4.12,0,0,0-5-2.7,15.833,15.833,0,0,0-4.378,1.681,3.306,3.306,0,0,0-1.554,4.221c.259.885.643,1.733.974,2.6,1.522,3.98,2.369,8.059,1.5,12.311a26.576,26.576,0,0,1-1.389,4.338c-.884,2.25-.554,3.263,1.479,4.453,2.489,1.457,4.962,2.944,7.395,4.493a11.81,11.81,0,0,1,5.142,7.31,15.754,15.754,0,0,1-1.26,11.428,11.531,11.531,0,0,1-3.443,4.089,46.564,46.564,0,0,1-22.28,9.064c-7.675.918-15.3,2.213-22.956,3.326-7.709,1.12-15.428,2.145-23.22,2.509s-15.525,1.221-23.264,2.112a188.433,188.433,0,0,1-27.543,1.634,73.709,73.709,0,0,0-9.938.621,69.326,69.326,0,0,1-15.156.078c-3.834-.436-7.722-.392-11.586-.563a37.783,37.783,0,0,1-11.7-2.035,16.154,16.154,0,0,1-3.329-1.7,5.232,5.232,0,0,1-2.44-5.035,13.741,13.741,0,0,1,.642-3.184,22.059,22.059,0,0,1,12.454-13.522,30.339,30.339,0,0,1,11.032-2.745,25.212,25.212,0,0,0,3.879-.49,7.026,7.026,0,0,0,5.073-4,19.932,19.932,0,0,0,1.32-3.5,16.671,16.671,0,0,1,4.706-7.9,23.6,23.6,0,0,1,16.8-6.874,12.874,12.874,0,0,1,7.9,2.666,21.821,21.821,0,0,0,3.274,1.721,3.8,3.8,0,0,0,.356-.6c1.753-5.957,5.274-10.99,8.712-16,4.891-7.128,13.024-9.577,21.219-6.8.619.209,1.244.411,1.839.679a4.8,4.8,0,0,0,5.911-1.243,21.864,21.864,0,0,1,4.158-3.384,8.4,8.4,0,0,1,8.863-.054c.572.313,1.118.676,1.793,1.088a11.379,11.379,0,0,0,.7-1c1.554-2.811,3.06-5.649,4.646-8.441a17.223,17.223,0,0,1,8.978-7.98c6.612-2.484,12.524-1.029,17.753,3.526a23.467,23.467,0,0,1,4.694,5.833,10.975,10.975,0,0,0,.886,1.368,3.228,3.228,0,0,0,3.951,1.04,14.447,14.447,0,0,0,1.324-.636c4.816-2.45,9.42-2.339,13.751,1.127C4019.369,240.885,4019.608,241.012,4019.84,241.162Zm-105.678,41.471a1.57,1.57,0,0,1-.373.2,4.489,4.489,0,0,1-4.694-2.277c-.865-1.384-1.611-2.849-2.555-4.175a8.5,8.5,0,0,0-8.814-3.747A22.165,22.165,0,0,0,3882,283.253a5.828,5.828,0,0,0-.537,5.46,18.908,18.908,0,0,1,1.027,3.933c.253,1.729-.4,2.443-2.168,2.451-1.19.006-2.38-.253-3.574-.325a48.775,48.775,0,0,0-6.343-.258c-6.2.443-11.654,3.074-16.775,6.372-2.807,1.808-3.843,4.63-3.5,7.937a4.007,4.007,0,0,0,3.135,3.747,21.005,21.005,0,0,0,3.859.634c7.661.546,15.329,1.017,22.99,1.564a55.956,55.956,0,0,0,14.321-.738c4.389-.818,8.761-1.817,13.189-2.315,9.253-1.041,18.534-1.845,27.811-2.67,7.6-.675,15.2-1.253,22.8-1.848,5.158-.4,10.324-.734,15.482-1.147,6.351-.509,12.718-.846,19.011-1.94a64.386,64.386,0,0,0,15.925-4.732,12.312,12.312,0,0,0,7.036-8.13c.874-3.1.819-6.186-1.021-8.962-2.351-3.547-8.746-6.316-13.542-4.279a14.587,14.587,0,0,1-2.625.882,2.544,2.544,0,0,1-3.014-1.4c-.868-1.489-.673-2.587.985-3.977,2.908-2.437,4.724-5.671,6.585-8.855a7.657,7.657,0,0,0,.295-7.222c-1.229-2.848-2.288-5.771-3.56-8.6-1.427-3.172-2.886-6.342-4.553-9.391-2.8-5.125-7.416-7.329-13.1-7.46a10.151,10.151,0,0,0-8.5,3.782,27.454,27.454,0,0,0-3.006,4.644c-1.375,2.657-2.6,5.4-3.818,8.128a19.5,19.5,0,0,0-1.937,9.987,3.456,3.456,0,0,1-.068,1.134,1.707,1.707,0,0,1-1.468,1.348,2.306,2.306,0,0,1-2.787-1.87c-.2-1.01-.18-2.063-.362-3.077a30.144,30.144,0,0,0-1.094-5.077c-.772-2.106-2.486-2.7-4.513-1.727a8.873,8.873,0,0,0-5.441,7.746c-.047.651-.018,1.308-.061,1.959a1.949,1.949,0,0,1-1.339,2.023,2.083,2.083,0,0,1-2.527-.982,25.627,25.627,0,0,1-1.538-2.692,8.469,8.469,0,0,0-3.636-3.637,11.17,11.17,0,0,0-4.993-1.4c-4.394-.181-8.162,1.086-10.76,4.908-1.225,1.8-2.558,3.529-3.758,5.346-1.228,1.861-2.428,3.75-3.506,5.7a22.349,22.349,0,0,0-2.867,13.362A9.713,9.713,0,0,1,3914.162,282.632Z" transform="translate(-162.737 -1.559)" fill="#fff"/>
    <path id="Path_408" data-name="Path 408" d="M3577.781,537.779a4.606,4.606,0,0,1,3.033-3.478c8.87-3.1,17.094-7.622,25.571-11.584q25.605-11.966,51.111-24.144a377.211,377.211,0,0,0,36.924-19.953c2.262-1.41,4.456-2.941,6.6-4.521a22.026,22.026,0,0,1,12-4.22c5.529-.339,10.973.535,16.441,1.131,4.327.472,8.673.81,13.02,1.038a45.173,45.173,0,0,0,6.687-.273,5.5,5.5,0,0,0,2.688-.994,35.835,35.835,0,0,1,9.067-5.142c7.355-2.778,14.229-6.578,21.359-9.829,8.917-4.066,17.988-7.8,26.892-11.892,13.406-6.166,26.729-12.516,40.078-18.807,1.9-.9,3.793-1.677,5.958-1.221,1.066.223,2.139.414,3.205.638a102.664,102.664,0,0,1,24.127,7.99c4.565,2.227,9.461,3.587,14.308,5.062,3.594,1.093,7.172,2.239,10.765,3.34a11.475,11.475,0,0,1,4.61,2.776c3.785-2.747,8.237-3.741,12.524-5.106a13.284,13.284,0,0,1,11.051,1.155c3.77,2.181,7.608,4.28,11.18,6.754,8.877,6.146,18.308,11.4,27.394,17.2,1.825,1.166,3.878,1.971,5.79,3.008a29.248,29.248,0,0,1,4.466,2.663,104.8,104.8,0,0,0,19.426,12.6,70.975,70.975,0,0,1,10.513,6.885c6.891,5.064,13.814,10.081,20.7,15.146,1.621,1.192,3.156,2.5,4.73,3.753q3.513,2.8,7.022,5.6a8.044,8.044,0,0,1,1.214,1.083,1.985,1.985,0,0,1-.39,2.878.978.978,0,0,1-1.337-.048c-.382-.305-.708-.683-1.1-.967a3.72,3.72,0,0,0-1.264-.683,1.158,1.158,0,0,0-.983.339,1.181,1.181,0,0,0-.025,1.029c.309.63.768,1.185,1.129,1.792a1.681,1.681,0,0,1-.066,2.12,1.823,1.823,0,0,1-2.2.608,11.6,11.6,0,0,1-2.12-1.2c-10.41-7.164-20.79-14.372-31.218-21.509-16.954-11.6-33.507-23.75-49.968-36.031a41.535,41.535,0,0,0-6.811-4.172,151.793,151.793,0,0,1-18.739-11.287q-1.49-1.006-2.984-2a6.851,6.851,0,0,0-6.392-.788c-1.594.555-3.18,1.135-4.795,1.624a15.362,15.362,0,0,1-7.426.53c-.474-.091-.939-.234-1.515-.379l.79-1.444a4.443,4.443,0,0,0-.785-.112,24.213,24.213,0,0,1-8.97-1.5q-18.876-6.392-37.757-12.771c-2.73-.928-5.484-1.6-8.316-.729a25.078,25.078,0,0,0-4.631,2c-4.541,2.479-9,5.113-13.548,7.573a90.068,90.068,0,0,1-16.088,6.767,29.428,29.428,0,0,0-5.716,2.384c-8.653,4.888-17.848,8.607-26.909,12.616-6.124,2.709-12.3,5.3-18.415,8.039a55.17,55.17,0,0,0-13.624,8.619c-.494.426-1.012.828-1.545,1.206a6.053,6.053,0,0,1-6.457.736,25.206,25.206,0,0,0-8.729-1.935c-7.169-.541-14.342-1.028-21.509-1.59a49.045,49.045,0,0,1-5.825-.77,12.817,12.817,0,0,0-11.2,2.748c-5.157,4.3-11,7.4-16.952,10.382-10.513,5.273-20.972,10.657-31.451,16-.824.42-1.65.847-2.435,1.335-10.162,6.323-21.038,11.229-32,15.926-10.611,4.545-21.3,8.92-31.982,13.287C3583.433,536.088,3580.748,536.8,3577.781,537.779Z" transform="translate(-78.346 -67.662)" fill="#fff"/>
    <path id="Path_409" data-name="Path 409" d="M3546.337,538.53c-.945.168-1.887.351-2.836.5-.7.109-1.405.156-2.1.256a3.655,3.655,0,0,0-3.016,2.228,2.6,2.6,0,0,1-2.255,1.611,13.414,13.414,0,0,1-5.651-.546c-6.4-1.762-12.793-3.58-19.2-5.344q-13.779-3.8-27.571-7.546a2.789,2.789,0,0,0-.477-.11,11.127,11.127,0,0,1-6.1-2.422,10.23,10.23,0,0,0-6-1.871,42.073,42.073,0,0,0-7.634.657c-6.26.838-12.536,1.566-18.808,2.314a72.711,72.711,0,0,0-14.1,2.7,14.936,14.936,0,0,1-9.74-.311,75.3,75.3,0,0,0-9.289-2.49,57.083,57.083,0,0,0-7.957-.775,20.5,20.5,0,0,1-7.136-1.524,48.791,48.791,0,0,0-11.549-2.84c-4.566-.74-9.134-1.491-13.674-2.37a17.76,17.76,0,0,0-11.648,1.241,57.658,57.658,0,0,1-14.727,4.713,68.153,68.153,0,0,0-11.794,3.253,2.979,2.979,0,0,1-.644.1l-.429-3.239c3.017-.835,5.991-1.682,8.978-2.48a148.994,148.994,0,0,0,15.968-4.719c1.419-.556,2.837-1.125,4.208-1.788a9.727,9.727,0,0,1,6.536-.748c8.354,1.909,16.869,2.763,25.318,4.053,6.4.978,12.77,2.2,19.141,3.382a89.981,89.981,0,0,0,17.077,1.36A163.172,163.172,0,0,0,3456,522.866a130.994,130.994,0,0,1,22.1-2.12,79.931,79.931,0,0,1,29.879,5.422,67.973,67.973,0,0,0,14.7,3.737,55.1,55.1,0,0,1,12.874,3.568c3.417,1.427,6.824,2.876,10.233,4.321a4.022,4.022,0,0,1,.538.331Z" transform="translate(0 -97.297)" fill="#fff"/>
    <path id="Path_410" data-name="Path 410" d="M4543.152,321.186c.876.375,1.523.649,2.168.93a13.1,13.1,0,0,1,4.868,3.5,6.565,6.565,0,0,1-.125,9.3,14.185,14.185,0,0,1-2.335,2.029,52.42,52.42,0,0,1-23.84,9.188c-10.187,1.335-20.424,1.455-30.669,1.488-5.83.019-11.66.022-17.49.087a18.185,18.185,0,0,1-5.477-.756c-1.3-.392-2.61-.775-3.912-1.173a7.53,7.53,0,0,1-5.169-9.127,6.151,6.151,0,0,1,2.993-3.927,29.021,29.021,0,0,1,11.907-4.239,11.989,11.989,0,0,0,2.086-.361,2.782,2.782,0,0,0,2.065-2.11c.054-.211.11-.421.157-.634a6.758,6.758,0,0,1,4.776-5.328c2.169-.7,4.418-1.158,6.636-1.706,1.373-.339,2.77-.6,4.131-.978a10.429,10.429,0,0,0,6.036-4.207,4.581,4.581,0,0,1,4.858-1.938c.7.1,1.378.33,2.074.452q3.755.657,4.8-3.031a9.035,9.035,0,0,0,.314-1.435,7.388,7.388,0,0,1,3.379-5.359c5.319-3.717,11.121-4.881,17.379-2.94a28.4,28.4,0,0,1,5.376,2.337,9.751,9.751,0,0,1,5.348,9.873C4545.231,314.533,4545.086,317.992,4543.152,321.186Zm-8.553,4.252c.494-.586.944-1.114,1.388-1.646a24.518,24.518,0,0,0,5.389-9.783,11.574,11.574,0,0,0,.254-5.651,5.09,5.09,0,0,0-2.612-3.582c-3.6-1.776-7.372-3.111-11.459-2.728-5.667.532-10.186,3.39-11.214,9.953-.252,1.611-.375,3.243-.609,4.858a17.982,17.982,0,0,1-.556,2.027c-1.042-.591-1.821-1.055-2.621-1.481a27.215,27.215,0,0,0-3.622-1.839,3.089,3.089,0,0,0-4.018,1.585,12.618,12.618,0,0,0-.973,2.58c-.214.727-.254,1.5-.447,2.238-.4,1.529-1.081,1.844-2.526,1.2-.5-.221-.946-.552-1.45-.749a23.9,23.9,0,0,0-3.522-1.254c-4.731-1.028-10.139,1.2-11.779,6.378a16.7,16.7,0,0,1-.766,1.8,8.319,8.319,0,0,1-6.089,4.963c-1.539.331-3.12.455-4.673.725a18.193,18.193,0,0,0-3.328.745,3.341,3.341,0,0,0-2.225,3.458c.115,1.372.912,2.209,2.683,2.671a16.293,16.293,0,0,0,7.12.392,55.252,55.252,0,0,1,10.9-.842c2.614.043,5.233.065,7.844-.056,10.556-.489,21.108-1.042,31.662-1.561a28.777,28.777,0,0,0,16.888-6.639,7.672,7.672,0,0,0,1.288-1.244,2.806,2.806,0,0,0-1.438-4.564,8.035,8.035,0,0,0-1.934-.253c-.979-.044-1.965.028-2.941-.039A7.188,7.188,0,0,1,4534.6,325.438Z" transform="translate(-359.868 -27.568)" fill="#fff"/>
    <path id="Path_411" data-name="Path 411" d="M3674.784,490.613c-.507,1.45-1.305,1.937-2.482,1.869-.435-.025-.871-.058-1.306-.044-1.342.044-1.726.612-1.3,1.921.118.36.308.7.448,1.049a5.894,5.894,0,0,1,.373,1.073,1.448,1.448,0,0,1-.719,1.67,1.385,1.385,0,0,1-1.668-.2,12.135,12.135,0,0,1-1.246-1.286,48.508,48.508,0,0,0-21.1-14.041,27.763,27.763,0,0,0-20.708.89,50.017,50.017,0,0,0-23.014,19.831c-.408.641-.682,1.367-1.1,2a5.956,5.956,0,0,1-1.245,1.48,1.956,1.956,0,0,1-2.911-.233,12.01,12.01,0,0,1-3.066-6.038,7.094,7.094,0,0,1,1.325-5.108c7.605-10.932,17.2-19.228,30.591-22.105a47.466,47.466,0,0,1,22.494.168,30.914,30.914,0,0,1,10.219,4.968c2.906,2.108,5.884,4.117,8.8,6.216,1.986,1.429,3.924,2.926,5.866,4.414C3673.645,489.567,3674.192,490.1,3674.784,490.613Z" transform="translate(-83.413 -83.063)" fill="#fff"/>
    <path id="Path_412" data-name="Path 412" d="M3530.053,314.75a9.028,9.028,0,0,1,5.594,3.545,28.264,28.264,0,0,1,2.6,4.514c5.485,11.915,10.781,23.92,16.414,35.764,4.441,9.336,9.267,18.49,13.944,27.713,4.852,9.569,9.215,19.363,13.478,29.2a6.181,6.181,0,0,1,.377,1.077,1.924,1.924,0,0,1-.886,2.256,1.981,1.981,0,0,1-2.556-.183,6.391,6.391,0,0,1-1.163-1.362c-1.077-1.762-2.21-3.5-3.131-5.347-9.584-19.186-19.08-38.415-28.707-57.579-5.819-11.584-11.273-23.326-16.124-35.348-.5-1.243-.918-2.462-.232-3.761A4.079,4.079,0,0,1,3530.053,314.75Z" transform="translate(-62.89 -32.914)" fill="#fff"/>
    <path id="Path_413" data-name="Path 413" d="M3591.981,211.5a2.083,2.083,0,0,1,2.1,1.4,19.83,19.83,0,0,1,.946,2.773,171.781,171.781,0,0,1,3.507,17.766c2.406,14.662,5.3,29.228,8.377,43.764,1.474,6.969,2.643,14.01,3.7,21.056,2.022,13.458,4.469,26.835,7.166,40.17,1.574,7.786,3.05,15.593,4.735,23.355.632,2.91,1.728,5.72,2.616,8.575a12.7,12.7,0,0,1,.583,1.862,2.127,2.127,0,0,1-2.872,2.26,1.438,1.438,0,0,1-1.029-1.331c-.211-2.753-1.363-5.248-2.094-7.861-.95-3.4-1.688-6.862-2.387-10.323-2.377-11.787-4.762-23.573-7.019-35.384-1.9-9.94-3.614-19.915-5.425-29.873q-4.513-24.812-9.047-49.622c-.988-5.406-1.931-10.821-3.047-16.2-.528-2.547-1.449-5.01-2.128-7.529a13.954,13.954,0,0,1-.548-3.191C3590.08,212.043,3590.751,211.53,3591.981,211.5Z" transform="translate(-82.276 0)" fill="#fff"/>
    <path id="Path_414" data-name="Path 414" d="M3694.345,392.278a16.792,16.792,0,0,1,.5-3.039,38.885,38.885,0,0,1,2.372-5.7c12.364-22.523,25.132-44.812,38.484-66.767,10.1-16.6,20.083-33.273,30.18-49.875,4.1-6.743,8.365-13.385,12.556-20.073.973-1.553,2.127-1.987,3.558-1.349,1.16.516,1.428,1.422.525,2.3-3.542,3.437-5.849,7.694-8.094,11.994a86.735,86.735,0,0,1-6.664,10.639,103.994,103.994,0,0,0-7.222,11.258c-5.948,10.968-12.513,21.552-19.247,32.045-4.645,7.237-9.145,14.567-13.7,21.862-4.043,6.473-7.313,13.363-10.864,20.1-5.862,11.122-11.8,22.2-17.7,33.3-.849,1.6-1.9,2.927-3.8,3.3A5.975,5.975,0,0,1,3694.345,392.278Z" transform="translate(-115.503 -10.74)" fill="#fff"/>
    <path id="Path_415" data-name="Path 415" d="M3656.455,407.24a15.3,15.3,0,0,1-1.147-1.418,19.434,19.434,0,0,1-2.944-13.407,70.776,70.776,0,0,0,.481-9.111c.075-13.007.068-26.015.105-39.024q.043-14.614.133-29.229c.025-3.208.167-6.416.305-9.621a28.576,28.576,0,0,0-.256-7.318,3.1,3.1,0,0,1,.176-1.739.914.914,0,0,1,1.744-.035,6.323,6.323,0,0,1,.491,1.713,80.669,80.669,0,0,1,1.373,14.772c-.05,5.822-.208,11.643-.234,17.465-.017,3.536.171,7.074.179,10.612.011,4.9-.086,9.793-.092,14.691-.009,7.782-.022,15.565.05,23.347.045,4.844.213,9.686.387,14.527.093,2.608.345,5.211.466,7.819a26.976,26.976,0,0,1-.077,3.587A2.782,2.782,0,0,1,3656.455,407.24Z" transform="translate(-102.058 -26.847)" fill="#fff"/>
    <path id="Path_416" data-name="Path 416" d="M4332.758,277.837c-.13-2.079.188-2.465,1.987-2.666a64.282,64.282,0,0,1,22.208,1.592c3.069.734,6.16,1.378,9.23,2.108a22.474,22.474,0,0,1,8.316,3.654,4.416,4.416,0,0,0,3.119.632c4.239-.26,8.476-.61,12.718-.76,11.99-.424,23.837.5,35.351,4.15,1.757.557,3.457,1.3,5.172,1.986a8.328,8.328,0,0,1,1.228.85c-2.726-.525-5.063-.995-7.407-1.423a131.043,131.043,0,0,0-27.627-2.226c-2.393.073-4.792-.026-7.186.037a9.523,9.523,0,0,0-6.292,2.371,3.269,3.269,0,0,1-4.192.359c-1.76-.98-3.483-2.033-5.3-2.9a75.97,75.97,0,0,0-23.169-7.078c-3.659-.473-7.387-.422-11.085-.559C4337.5,277.874,4335.167,277.876,4332.758,277.837Z" transform="translate(-319.001 -20.185)" fill="#fff"/>
    <path id="Path_417" data-name="Path 417" d="M4493.308,267.857c3.966-3.155,8.131-5.311,13.255-4.745a79.922,79.922,0,0,0,19.064-.574c5.67-.731,11.33-1.557,17.011-2.193a65.093,65.093,0,0,1,24.3,1.783,10.892,10.892,0,0,1,1.7.574c1.019.465,1.313.88,1.773,2.353-.691-.056-1.322-.09-1.947-.159-6.6-.737-13.183-1.711-19.857-1.544a121.341,121.341,0,0,0-23.889,3.461c-2.544.58-5.1,1.117-7.675,1.558a8.317,8.317,0,0,1-4.816-.56,14.383,14.383,0,0,0-9.123-.674c-1.971.413-3.937.848-5.906,1.27A4.679,4.679,0,0,1,4493.308,267.857Z" transform="translate(-370.188 -15.436)" fill="#fff"/>
    <path id="Path_418" data-name="Path 418" d="M3723.686,472.974a2.406,2.406,0,0,1,1.466-2.011c2.256-1.313,4.467-2.74,6.83-3.828q24.468-11.262,49-22.382c2.623-1.191,5.346-2.162,8.021-3.239.555-.223,1.116-.437,1.652-.7a3.658,3.658,0,0,0,2.374-2.711l7.474,1.581.112.268c-.539.258-1.071.531-1.619.77-7.483,3.26-15.058,6.328-22.431,9.821-9.841,4.661-19.85,8.932-29.809,13.318-5.129,2.26-10.258,4.52-15.423,6.694-1.95.821-4,1.414-6.01,2.081A14.442,14.442,0,0,1,3723.686,472.974Z" transform="translate(-124.856 -72.236)" fill="#fff"/>
    <path id="Path_419" data-name="Path 419" d="M3674,405.827c.3-2.478.508-4.973.932-7.43.748-4.344,1.62-8.667,2.458-12.994a104.364,104.364,0,0,0,1.4-12.644c.464-6.675,1.348-13.32,1.946-19.987q.6-6.665.885-13.356c.286-6.473.359-12.955.693-19.425a52.094,52.094,0,0,1,1.887-11.622c.117.67.275,1.336.344,2.011a137.218,137.218,0,0,1,.575,16.807c-.29,12.856-1.2,25.674-2.611,38.452a266.093,266.093,0,0,1-4.522,29.36c-.681,3.017-1.655,5.97-2.549,8.937a13.708,13.708,0,0,1-.968,2Z" transform="translate(-109.016 -30.88)" fill="#fff"/>
    <path id="Path_420" data-name="Path 420" d="M3487.256,440.6c3.162,1.146,6.328,2.283,9.485,3.441a265.407,265.407,0,0,1,33.852,15.433,124.058,124.058,0,0,0,21.872,9.41c1.4.433,2.836.769,4.25,1.169,1.594.451,2.1,1.108,1.868,2.366a2.227,2.227,0,0,1-2.728,1.937,9.206,9.206,0,0,1-2.344-.655,212.524,212.524,0,0,1-21.754-10.117c-10.94-6.008-22.393-10.948-33.874-15.816-1.7-.723-3.415-1.43-5.1-2.2a13.957,13.957,0,0,1-5.719-4.677Z" transform="translate(-49.429 -73.031)" fill="#fff"/>
    <path id="Path_421" data-name="Path 421" d="M3578.781,460.31c-1.671.561-1.972.49-2.869-.537-2.757-3.157-5.5-6.328-8.265-9.476q-9.974-11.345-19.976-22.667a5.6,5.6,0,0,1-1.62-5.413c.609.52,1.122.888,1.551,1.335,4.071,4.241,8.215,8.414,12.167,12.763a229.427,229.427,0,0,1,16.372,19.926C3577.057,457.509,3577.849,458.866,3578.781,460.31Z" transform="translate(-68.177 -67.172)" fill="#fff"/>
    <path id="Path_422" data-name="Path 422" d="M3604.275,405.236a12.917,12.917,0,0,1,1.644,2c.939,1.77,1.793,3.589,2.6,5.426,4.366,9.98,7.313,20.463,10.849,30.736a6.791,6.791,0,0,1,.385,1.577,1.6,1.6,0,0,1-3,.886,4.375,4.375,0,0,1-.4-.892c-1.037-3.262-2.2-6.491-3.065-9.8a176.779,176.779,0,0,0-6.211-18.2q-1.6-4.19-3.143-8.4C3603.371,407.035,3603.417,406.662,3604.275,405.236Z" transform="translate(-86.564 -61.758)" fill="#fff"/>
    <path id="Path_423" data-name="Path 423" d="M3746.913,422.584c-10.118,10.83-19.707,22.173-30.814,32.179a12.944,12.944,0,0,1,.315-1.316,18.3,18.3,0,0,1,3.975-6.5,53.275,53.275,0,0,1,4.08-3.995,90.418,90.418,0,0,0,9.263-9.417c2.026-2.341,4.2-4.569,6.424-6.72A18.373,18.373,0,0,1,3746.913,422.584Z" transform="translate(-122.437 -67.288)" fill="#fff"/>
    <path id="Path_424" data-name="Path 424" d="M3536.189,504.057c7.333-4.891,24.482-5.062,30.9-.345C3556.761,504.133,3546.606,503.882,3536.189,504.057Z" transform="translate(-65.088 -92.055)" fill="#fff"/>
  </g>
</svg>
