<svg xmlns="http://www.w3.org/2000/svg" width="304.668" height="139.691" viewBox="0 0 304.668 139.691">
  <g id="Group_116" data-name="Group 116" transform="translate(1437.02 295.412)">
    <path id="Path_1019" data-name="Path 1019" d="M-1352.285-233.993a9.434,9.434,0,0,1-3.87-1.687,5.354,5.354,0,0,0-3.178-1.29,4.262,4.262,0,0,1-1.993-1.007c-1.695-1.157-3.094-2.8-5.3-3.2a6.562,6.562,0,0,1-1.255.83c-.157.061-.493-.333-.747-.519a4.846,4.846,0,0,0-.622,0c-.1.012-.2.107-.294.164a1.838,1.838,0,0,1,.331-.1c.2-.023.4-.023.607-.032l-.755,2.531c-1.479.628-2.311-.446-3.181-1.112-3.1-2.376-6.118-4.87-9.208-7.266-2.059-1.6-4.2-3.08-6.279-4.651a31.8,31.8,0,0,1-3-2.5c-.626-.608-.963-1.545-1.638-2.061a6.341,6.341,0,0,0-2.226-.566,20.742,20.742,0,0,1,7.742-4.433l-.062-.074-1.1,2.429a37.839,37.839,0,0,0,4.554-.351,86.276,86.276,0,0,1,19.464-1.369,52.18,52.18,0,0,0,6.982-.638c2.975-.324,5.95-.651,8.917-1.048,3.879-.519,7.74-1.167,11.625-1.643,1.927-.236,3.888-.183,5.83-.312a81.458,81.458,0,0,0,8.354-.589c.086-.419.172-.592.125-.644-8.072-8.871-17.7-16.154-25.651-25.158a4.227,4.227,0,0,0-1.053-.614c-.381.4-.75.757-1.085,1.144a62.78,62.78,0,0,1-11.559,10.458c-3.09,2.159-5.994,4.6-8.862,7.058a83.219,83.219,0,0,1-14.011,9.9l-.258-.3c2.5-1.855,5.034-3.669,7.5-5.576,1.956-1.516,3.886-3.076,5.72-4.736,4.269-3.861,9.075-7.025,13.561-10.6a49.843,49.843,0,0,0,7.323-7.523,4.255,4.255,0,0,0,.67-1.388c.895-2.782.931-2.832,3.627-2.942a7.877,7.877,0,0,1,1.363.219c.654.97,1.381,2.042,2.1,3.118a67.951,67.951,0,0,0,10.343,12.242c3.94,3.628,7.68,7.474,11.514,11.218a13.523,13.523,0,0,0,1.741,1.575c3.374,2.3,6.02,5.379,8.959,8.148,2.465,2.323,5.093,4.47,7.627,6.721a39.453,39.453,0,0,0,4.339,3.911c2.6,1.685,4.449,4.24,7.435,5.57,2.816,1.254,5.2,3.472,8.061,5.463,2.832-.441,5.912-.881,8.977-1.407,6.562-1.127,13.122-2.26,19.669-3.467,3.581-.66,7.127-1.512,10.7-2.208,3.332-.65,6.724-1.04,10.014-1.849,3.922-.966,7.738-2.357,11.649-3.377,4.041-1.055,8.137-1.9,12.213-2.811a91.765,91.765,0,0,0,12.4-3.609c3.646-1.378,7.488-2.244,11.257-3.287a6.779,6.779,0,0,1,1.884.2l-2.251,2.634a20.747,20.747,0,0,0,6.859-2.567c.3.667.762,1.2.735,1.714-.442,8.39.727,16.726.79,25.1a14.869,14.869,0,0,0,.362,3.507c1.257,4.986,1.126,10.1,1.475,15.163.134,1.937.17,3.864,1.329,5.579a1.287,1.287,0,0,1-.937,1.8c-2.3.453-4.612.915-6.94,1.184a52.385,52.385,0,0,1-6.264.308,68.733,68.733,0,0,0-18.924,3.012c-1.879.526-3.705,1.244-5.586,1.761-.36.1-.864-.325-1.3-.507a8.97,8.97,0,0,1,.6-1.284c.124-.188.462-.223.684-.357a6.856,6.856,0,0,0,.586-.438c-.145-.21-.244-.522-.443-.61a23.81,23.81,0,0,1-6.479-4.2,17.475,17.475,0,0,0-2.609-1.723c-3.125-1.946-3.127-1.942-6.384-.682-.412-1.35-.85-2.687-1.211-4.047a1.524,1.524,0,0,1,.152-1.073,3.365,3.365,0,0,0-.533-4.3c-.718-.778-.773-1.12-.094-1.857.245-.267.153-.925.087-1.386a132.587,132.587,0,0,0-3.786-17.574c-.32-1.121-.579-2.26-.9-3.538-14.906,2.649-29.8,4.843-45.037,7.847a15.307,15.307,0,0,0,1.656,1.575c2.5,1.663,5.046,3.243,7.529,4.925,2.581,1.751,5.085,3.614,7.664,5.368a38.278,38.278,0,0,0,3.714,2.18,18.188,18.188,0,0,1,2.183.848c3.669,2.654,7.837,4.542,11.417,7.322-.533,1.174-1.4,1.411-2.282.811-1.059-.718-1.973-1.651-2.968-2.479-.776-.056-1.535-.123-2.294-.19.227-1.129-.593-.988-1.385-.775q.726.349,1.454.694c.669.864,1.469.508,2.26.244-.227.571-.454,1.142-.769,1.938-.96-.454-2.012-.863-2.979-1.422-3.394-1.966-6.714-4.062-10.143-5.962-6.109-3.386-11.33-7.979-16.722-12.31a7.627,7.627,0,0,0-7.556-1.567c-3.133.855-6.419,1.144-9.638,1.688-4.9.828-9.837,1.484-14.686,2.547-4.349.953-8.756,1.445-13.131,2.173-2.188.364-4.415.494-6.617.786a72.586,72.586,0,0,0-7.356,1.122c-2.924.7-5.688.036-8.5-.477-.2-.035-.365-.338-.5-.549-.046-.075.058-.243.114-.445,2.4-.162,4.829-.291,7.253-.5a85.982,85.982,0,0,0,15.046-2.319,57.855,57.855,0,0,1,10.015-1.5c2.076-.184,4.143-.494,6.2-.8q10.24-1.534,20.473-3.119c.885-.137,1.746-.413,2.523-.6.4-1.27-.573-1.491-1.119-1.915-4.54-3.521-9.081-7.04-13.668-10.5A86.351,86.351,0,0,1-1313.285-258a13.635,13.635,0,0,0-2.03-1.834c-.312-.213-.892-.036-1.561-.036l1,2.159c-1.321.955-2.66,1.967-4.044,2.913-2.477,1.693-4.959,3.38-7.481,5-1.972,1.269-4,2.449-6.016,3.646a116.038,116.038,0,0,0-15.1,11.167c-1.078.9-1.985,2.1-3.483,2.261-.763-.332-.461-.871-.405-1.356,2.775-2.317,5.564-4.622,8.328-6.955.118-.1.015-.462.015-.776l-3.24-.822c.138,1.761.138,1.761-2.43,3.531-.56-.248-1.122-.5-1.74-.772.137.771.262,1.467.361,2.029l-2.661,1.325C-1353.184-235.522-1352.735-234.757-1352.285-233.993Zm145.7,27.676c.172-.155.348-.306.513-.469.12-.12.223-.258.334-.388-.22.049-.512.03-.64.166-.143.151-.135.441-.2.674l-1.684-.176-.017.193Zm-163.666-44.789.427-.258.049.317-.522-.125c.02-.183.033-.367.061-.548a1.678,1.678,0,0,0,.082-.325c0-.063-.112-.118-.175-.176.031.184.074.367.088.552S-1370.245-251.29-1370.251-251.106Zm148.584,30.841-1.443.579.161.255c.4-.286.793-.573,1.217-.846h2.1l-.046-.372Zm-126.184-35.961a9.121,9.121,0,0,0,.5.791c.044.06.221.02.337.024,0-.2.062-.549,0-.568a4.847,4.847,0,0,0-.914-.156c.141-1.376-1.161-1.883-1.746-2.819-.147-.235-.744-.19-1.664-.388C-1350.09-257.783-1349.367-256.566-1347.851-256.226Zm128.295,33.176,3.811-.33a5.765,5.765,0,0,0-2.983-.4c-.27.027-.493.524-.755.793a2.526,2.526,0,0,0-2.533.553Zm-114.668-24.922-3.547-.852c-.574.814-1.012,1.436-1.452,2.059l-.333-.516-.225.355.631.079a1.134,1.134,0,0,0,.9,1.579c1.24-.885,2.589-1.847,3.917-2.833,1.092-1.021,2.767-1.387,3.441-3.044-.894-1.086-1.783-.582-2.689-.071Zm112.184,20.09a34.854,34.854,0,0,0,12.3-1.818c-4.516.24-8.148.866-11.793,1.323-.163.021-.283.387-.428.586l-.659.321Zm28.481,13.707a6.116,6.116,0,0,1-1.121.315c-4.151.367-8.316.608-12.452,1.1-3.229.383-6.435,1.012-9.625,1.661-.66.133-1.7.071-1.935,1.4,1.488-.174,2.9-.291,4.293-.513,2.041-.325,4.064-.772,6.109-1.084,4.5-.685,9.015-1.3,13.515-2,.423-.067.772-.6,1.195-.883,1.556.066,3.118.254,4.665.168a12.383,12.383,0,0,1,6.14.865c.13.06.38-.135.878-.332l-2.653-1.594c-1.644.291-2.775.574-3.922.674C-1190.162-214.261-1191.863-214.245-1193.559-214.175Zm-.457,5.521h-1.425l.017.178,1.436-.163a5.71,5.71,0,0,1-1.621.992c-3.153.651-6.331,1.178-9.488,1.809-.439.087-.811.513-1.214.78l-2.029.166c1.2.44,1.748.587,1.942-.264a19.987,19.987,0,0,0,2.709.029c4.765-.582,9.518-1.263,14.285-1.824,2.312-.272,4.649-.337,6.971-.528,1.294-.107,2.6-.206,3.871-.44a1.643,1.643,0,0,0,.926-2.717,6.471,6.471,0,0,0-1.517-1.093c-1.424,1.853-1.417,1.9-3,2.132-3.34.5-6.684.975-10.037,1.377A5.58,5.58,0,0,1-1194.017-208.654Zm-24.708-9.487a11.454,11.454,0,0,0-2.661-.091c-.81.154-1.3.827-.924,1.99a23.031,23.031,0,0,0,3.412-.025c4.123-.614,8.21-1.517,12.35-1.96,4.266-.457,8.485-1.555,12.834-1.167.248.023.524-.279,1.214-.675a8.382,8.382,0,0,0-1.843-.507c-1.814.038-3.628.156-5.441.243-3.484.168-6.918,1.414-10.456.463a1.528,1.528,0,0,0-1.148.079c-1.4,1.062-2.992.556-4.5.61a3.664,3.664,0,0,0-2.858.977Zm40.76,5.007c-.217-3.278-.313-5.751-.56-8.208-.327-3.247-.956-6.47-1.128-9.721-.4-7.561-.6-15.132-.9-22.7-.029-.72.249-1.545-.56-2.174-.325.074-.7.135-1.056.243-4.873,1.466-9.708,3.082-14.63,4.36-3.784.982-7.675,1.557-11.525,2.28-6.794,1.276-13.429,3.395-20.377,3.878a4.9,4.9,0,0,0-1.5.39c-.526.22-1.362.041-1.461,1.216,1.114.687,2.3,1.443,3.513,2.162,3.365,2,6.806,3.88,10.085,6.01a54.2,54.2,0,0,0,6.485,3.6c2.47,1.162,4.821,2.58,7.227,3.88,1.489.8,2.972,1.621,4.477,2.4a100.883,100.883,0,0,1,10.989,5.957C-1185.59-217.322-1182.013-215.494-1177.965-213.135Zm-209.047-42.886a20.121,20.121,0,0,0,7.075,5.387C-1383.728-254.921-1384.7-255.706-1387.012-256.021Zm65.426-2.6c-4.044.937-4.081.969-3.93,3.55C-1324-256.025-1322.462-256.754-1321.586-258.618Zm112.768,32.834c1.533-.152,2.8-.8,3.876.545.276.344,1.219.152,1.855.2-1.443-1.341-2.834-2.555-4.654-2.933-.705-.147-1.228.267-1.084,1.144A8.012,8.012,0,0,1-1208.819-225.783Zm-170.158-32.4c4.915.316,4.915.316,7.6-.983C-1373.969-259.768-1376.242-258.994-1378.977-258.186Zm164.559,26.49c-2.4-.361-3.619-2.76-6.222-2.494,1.231,1.484,3.107,1.687,4.02,3.263C-1216.189-230.184-1215.3-230.437-1214.418-231.7Zm-16.248,1.805c1.3-1.341,1.5-2.545.83-3.828a12.8,12.8,0,0,0-1.8-1.891C-1231.225-233.189-1230.971-231.686-1230.666-229.89Zm5.6-7.385a5.085,5.085,0,0,1,1.294.864c.24.293.192.821.272,1.244l1.738-.358C-1222.5-237.107-1223.765-237.2-1225.068-237.275Zm36.731,20.311c-2.369-1.35-3.262-1.167-4.079.817Zm-173.181-36.423c-1.448-2.871-1.465-2.858-3.682-3.926C-1364.528-255.551-1363.184-254.692-1361.518-253.387Zm133.058,36.775c1.694.508,2.528.8,3.383.993.325.073.815.085.623-.589a7.133,7.133,0,0,1-.1-1.391Zm-92.553-44.668c1.064.1,1.867.2,2.673.22.149,0,.413-.292.433-.471.022-.2-.136-.573-.281-.609A2.327,2.327,0,0,0-1321.013-261.28Zm112.912,39.118v.113h1.9l-.02-.31Zm-7.569.806v.306h2.009v-.306Zm16.152-1.338v-.393l-1.553.073,0,.32Zm-138.138-39.543v.193h1.459v-.193Zm128.244,45.7.022.171,1-.1c-.045-.064-.094-.186-.133-.183C-1208.819-216.631-1209.115-216.582-1209.411-216.541ZM-1376.6-254.951c.094-.087.259-.171.257-.249-.02-.476-.076-.949-.121-1.425-.33.116-.778.134-.969.366-.5.6.141.851.5,1.156A1.281,1.281,0,0,0-1376.6-254.951Zm2.464,2.186c.038.1.049.233.12.3a1.281,1.281,0,0,0,.351.162,1.614,1.614,0,0,0-.114-.475C-1373.8-252.827-1374.009-252.773-1374.134-252.765Zm33.821,9.1c-.109-.3-.141-.623-.257-.655a.73.73,0,0,0-.629.16c-.109.12-.031.41-.036.624Zm125.518,18.555c-.067-.082-.134-.232-.2-.233a4.753,4.753,0,0,0-.684.074c.088.123.178.351.262.347A2.366,2.366,0,0,0-1214.8-225.114Zm.906,9.335-.146.08h.289Zm15.015-.13-.325.105a2.371,2.371,0,0,0,.443.223c.044.014.134-.125.2-.193Zm-16.656,2.685h.347c-.073-.111-.125-.257-.228-.318-.057-.035-.2.073-.3.116Zm12.082,3.72c-.1-.049-.2-.135-.3-.134s-.2.087-.3.135c.1.046.2.129.3.127A.84.84,0,0,0-1203.448-209.5Zm-5.932,1.012.541-.247c-.083-.072-.164-.2-.249-.2a3.891,3.891,0,0,0-.626.078C-1209.6-208.74-1209.491-208.616-1209.38-208.492Zm7.553.636a1,1,0,0,0-.345-.127,1.028,1.028,0,0,0-.342.139.987.987,0,0,0,.342.13A1.028,1.028,0,0,0-1201.827-207.856ZM-1232.3-240.2l-.365-.618c-.138.164-.416.36-.387.486a2.7,2.7,0,0,0,.435.746Zm-110.928-19.3a8.406,8.406,0,0,0-.841-.408c-.073-.028-.2.1-.31.157q.352.391.706.779Zm-18.269,2.007a5.433,5.433,0,0,0,.533.358,1.136,1.136,0,0,0,.2-.26,2.394,2.394,0,0,0-.483-.375C-1361.267-257.782-1361.4-257.6-1361.5-257.491Zm153.383,47.36.279-.105-.278-.109Zm-50.614-8.7-.51-.08c.078.061.149.159.234.173S-1258.823-218.8-1258.73-218.835Zm47.493-3.266-.022.241.316-.1Zm-18.248-4.678c.089.095.2.28.263.265a3.14,3.14,0,0,0,.6-.255,3.467,3.467,0,0,0-.608-.281C-1229.286-227.065-1229.4-226.875-1229.485-226.779ZM-1373-243.346l-.029.21.287-.067Zm166.136-7.7-.5-.122c.028.073.051.2.086.206A1.662,1.662,0,0,0-1206.863-251.043Zm2.842-.722.032-.25-.344.1Z" transform="translate(6.65 0)" fill="#000"/>
    <path id="Path_1020" data-name="Path 1020" d="M-1210.438-193.051l2.083-1.352,7.251.5c.249,1.139.453,2.075.716,3.274l2.651-1.332c2.7,2.746,6.953,1.514,10.025,3.641l.344,2.981c.621-.337,1.163-.465,1.438-.808,2.129-2.642,4.186-5.344,6.308-7.99.808-1.006,1.541-2.135,2.868-2.565,2.157,1.157,2.4,1.91,1.04,3.409-2.892,3.2-5.883,6.306-8.677,9.586a60.281,60.281,0,0,0-4.579,6.35,10.364,10.364,0,0,0-2.032,5.866c-1.846.606-3.031-.4-4.527-1.44,2.687-3.9,6.645-6.766,8.14-11.333-3.432-1.2-7.069-1.576-10.387-3.058-1.318-.588-1.415-.6-2.812-2.233l-1.631,1.489c-2.51-.1-4.613-1.552-6.9-2.428-1.209-.462-1.034-1.685-1.179-2.694Z" transform="translate(35.766 15.582)" fill="#000"/>
    <path id="Path_1021" data-name="Path 1021" d="M-1315.263-234.133a18.2,18.2,0,0,1-.032,3.058,7.162,7.162,0,0,1-.963,2.464c-1.23,1.836-2.542,3.623-3.906,5.363-3.545,4.521-7.157,8.99-10.7,13.514a41.922,41.922,0,0,0-3.622,5.1,14.943,14.943,0,0,1-5.472,5.959c-.669.386-1.184,1.033-1.835,1.461a1.893,1.893,0,0,1-2.685-.4,8.764,8.764,0,0,1,.885-1.894c2.33-2.981,4.721-5.913,7.092-8.861,1.635-2.032,3.243-4.086,4.917-6.086s3.465-3.9,5.109-5.921c3.2-3.938,6.6-7.731,9.179-12.147C-1316.958-233.1-1316.186-233.422-1315.263-234.133Z" transform="translate(14.608 9.673)" fill="#000"/>
    <path id="Path_1022" data-name="Path 1022" d="M-1369.214-239.918h3.082c.122.251.376.548.31.68a112.693,112.693,0,0,1-13.732,21.31c-1.085,1.306-2.09,2.682-3.073,4.066-1.5,2.119-1.481,2.134-2.093,5.2a7.535,7.535,0,0,0-3.164,3.1,5.024,5.024,0,0,1-2.874,2.52.82.82,0,0,1-.673-.211.994.994,0,0,1-.255-.688,1.606,1.606,0,0,1,.309-.691c2.708-4.312,5.377-8.649,8.151-12.919a45.776,45.776,0,0,0,4.387-8.266,36.059,36.059,0,0,1,4.087-7.083C-1373.131-235.247-1371.222-237.4-1369.214-239.918Z" transform="translate(7.156 8.76)" fill="#000"/>
    <path id="Path_1023" data-name="Path 1023" d="M-1435.224-229.852c-1.123-1.759-1.3-4.093-1.8-6.628a6.769,6.769,0,0,1,2.326-.345,62.864,62.864,0,0,1,6.743,2.046,62.643,62.643,0,0,0,10.874,3.234,11.421,11.421,0,0,1,1.721.575,2.239,2.239,0,0,1-.329,2.981,2.733,2.733,0,0,1-2.811.894c-3.7-.81-7.415-1.587-11.146-2.25C-1431.406-229.656-1433.221-229.679-1435.224-229.852Zm17.959.455-1.044-.287c-.045.228-.2.536-.11.666a.822.822,0,0,0,.667.23C-1417.612-228.8-1417.5-229.086-1417.265-229.4Zm-7.126-1c-.029-.073-.053-.206-.087-.208a.99.99,0,0,0-.3.065c.029.074.053.21.086.212A1.025,1.025,0,0,0-1424.39-230.4Z" transform="translate(0 9.242)" fill="#000"/>
    <path id="Path_1024" data-name="Path 1024" d="M-1174.266-193.83c1.818.292,2.1,1.736,3.057,2.867-.607.555-1.109,1.094-1.689,1.533-1.969,1.491-3.974,2.939-5.953,4.42-2.238,1.678-3.63,4.047-5.145,6.318-1.3,1.945-2.618,3.881-4,5.765a1.387,1.387,0,0,1-2.3-.242,2.891,2.891,0,0,1-.079-3.3c2.441-3.508,4.312-7.411,7.7-10.256C-1179.906-189.057-1177.652-192-1174.266-193.83Z" transform="translate(38.857 16.035)" fill="#000"/>
    <path id="Path_1025" data-name="Path 1025" d="M-1284.1-224.755a14.95,14.95,0,0,1-2.133,6.667q-5.058,7.918-10.3,15.72c-2.031,3.035-4.186,5.987-6.3,8.963-.944,1.326-1.218,1.354-2.781.468.017-.243-.048-.535.064-.722,2.133-3.587,4.226-7.2,6.462-10.722,1.112-1.752,2.572-3.278,3.736-5,2.846-4.2,6.309-7.986,8.508-12.631C-1286.327-223.11-1285.963-224.49-1284.1-224.755Z" transform="translate(20.742 11.153)" fill="#000"/>
    <path id="Path_1026" data-name="Path 1026" d="M-1232.3-185.235a8.168,8.168,0,0,1-5.834,1.034,8.325,8.325,0,0,1,.374-1.753,17.2,17.2,0,0,1,1.221-1.985c3.631-5.7,7.276-11.383,10.884-17.095.76-1.2,1.345-2.514,2.076-3.738a3.368,3.368,0,0,1,1.217-1.372,2.034,2.034,0,0,1,1.769.014,2.013,2.013,0,0,1,.248,1.716,6.027,6.027,0,0,1-1.1,2.048c-3.391,4.326-5.546,9.39-8.407,14.032a15.742,15.742,0,0,0-1.3,3.248C-1231.564-187.857-1231.895-186.6-1232.3-185.235Z" transform="translate(31.395 13.429)" fill="#000"/>
    <path id="Path_1027" data-name="Path 1027" d="M-1262.832-191.9c1.971-1.638,3.125-3.8,4.384-5.925,3.531-5.957,7.2-11.834,10.818-17.739a14.167,14.167,0,0,1,.885-1.3c.525-.673.966-.59,2.264.433-2.158,3.814-4.248,7.694-6.519,11.463a72.475,72.475,0,0,0-4.582,9.088c-.562,1.322-1.226,2.6-1.857,3.9a5.632,5.632,0,0,1-.6,1.011c-.748.954-1.631,1.832-2.945,1.545C-1262.155-189.688-1262.429-190.792-1262.832-191.9Z" transform="translate(27.496 12.33)" fill="#000"/>
    <path id="Path_1028" data-name="Path 1028" d="M-1405-226.184a12.38,12.38,0,0,1,.1-6.843c5.459,2.144,11.1,2.95,16.736,3.96a4.3,4.3,0,0,1-1.473,4.118C-1394.493-226.736-1399.6-225.557-1405-226.184Z" transform="translate(4.986 9.848)" fill="#000"/>
    <path id="Path_1029" data-name="Path 1029" d="M-1269.321-205.7v-3.694a9.092,9.092,0,0,1,5.778-.459c2.361.424,4.907-.072,7.246,1.224-.039,1.861-1.025,3.251-1.614,4.721C-1260.747-203.544-1264.25-204.087-1269.321-205.7Z" transform="translate(26.472 13.466)" fill="#000"/>
    <path id="Path_1030" data-name="Path 1030" d="M-1298.486-211.629a24.538,24.538,0,0,0-3.513-1.355,22.315,22.315,0,0,0-3.492-.208c-1.672-.112-2.765-1.342-3.939-2.281a2.176,2.176,0,0,1-.263-2.562,2.06,2.06,0,0,1,2.258-1.171,10.916,10.916,0,0,1,2.284.45c2.973.859,5.936,1.753,8.884,2.628C-1296.656-213.806-1296.656-213.806-1298.486-211.629Z" transform="translate(20.054 12.028)" fill="#000"/>
    <path id="Path_1031" data-name="Path 1031" d="M-1373.657-229.62a99.907,99.907,0,0,1,13.3,4.313c.136,1.729-1.082,2.418-1.879,3.416-1.525-.44-2.964-.918-4.434-1.261-1.511-.353-3.056-.558-4.579-.861a12.448,12.448,0,0,1-1.87-.523,1.63,1.63,0,0,1-1.181-1.79C-1374.187-227.316-1373.927-228.287-1373.657-229.62Zm9.9,5.387.232.654.552-.2a2.331,2.331,0,0,0-.27-.629C-1363.278-224.459-1363.576-224.3-1363.753-224.233Z" transform="translate(9.898 10.385)" fill="#000"/>
    <path id="Path_1032" data-name="Path 1032" d="M-1231.606-201.219c-.55,1.443-.94,2.525-1.388,3.585-.086.2-.4.306-.813.6-2.209-2.146-5.1-2.539-8.092-2.721-1.788-.109-2.3-.85-1.977-2.537a24.9,24.9,0,0,1,.856-2.7C-1239.238-203.54-1235.2-203.682-1231.606-201.219Zm-2.895.538c-.1.078-.307.188-.294.226a3.9,3.9,0,0,0,.3.589,3.564,3.564,0,0,0,.288-.582C-1234.2-200.491-1234.4-200.6-1234.5-200.681Z" transform="translate(30.474 14.273)" fill="#000"/>
    <path id="Path_1033" data-name="Path 1033" d="M-1359.31-226.24c3.827.548,7.3.849,10.751,1.686a5.192,5.192,0,0,1-.693,4.039,8.938,8.938,0,0,1-2.137.227c-2.323-.288-4.648-.616-6.939-1.086-1.847-.379-2.136-.968-1.687-2.737C-1359.86-224.727-1359.62-225.318-1359.31-226.24Z" transform="translate(12.126 10.919)" fill="#000"/>
    <path id="Path_1034" data-name="Path 1034" d="M-1282.111-213.181l12.279,4.946-.637,2.388c-.452.112-.72.271-.939.219q-4.543-1.061-9.072-2.18c-2.5-.624-2.924-1.367-2.247-3.918A11.052,11.052,0,0,1-1282.111-213.181Z" transform="translate(24.31 12.98)" fill="#000"/>
    <path id="Path_1035" data-name="Path 1035" d="M-1208.847-192.728a3.837,3.837,0,0,0-1.4.375,15.336,15.336,0,0,0-1.7,1.843c-1.226-.962-2.369-1.781-3.42-2.7-1.194-1.048-2.763-.269-3.937-.751-.172-.421-.4-.688-.345-.885.377-1.481.808-2.947,1.318-4.753a26.183,26.183,0,0,0,9.351,4.666v2.341Z" transform="translate(34.311 15.124)" fill="#000"/>
    <path id="Path_1036" data-name="Path 1036" d="M-1412.825-227.182a18.939,18.939,0,0,1-1.944-.64,1.888,1.888,0,0,1-.938-2.87c1.774-3.157,5.166-3.876,7.856-1.667a2.192,2.192,0,0,1,.031,3.64A9.327,9.327,0,0,1-1412.825-227.182Z" transform="translate(3.313 9.751)" fill="#000"/>
    <path id="Path_1037" data-name="Path 1037" d="M-1388.755-225.588c.125-.6.176-.981.285-1.345.858-2.861,2.555-3.667,5.191-2.476a2.1,2.1,0,0,1,1.2,2.538,4.452,4.452,0,0,1-2.9,2.892A3.223,3.223,0,0,1-1388.755-225.588Z" transform="translate(7.619 10.335)" fill="#000"/>
    <path id="Path_1038" data-name="Path 1038" d="M-1287-208.5a3.168,3.168,0,0,1-2.619-1.8,3.314,3.314,0,0,1,.666-3.593,3.559,3.559,0,0,1,3.648-.69,2.02,2.02,0,0,1,1.232,2.517,11.588,11.588,0,0,1-1.451,2.715C-1285.867-208.89-1286.59-208.719-1287-208.5Z" transform="translate(23.227 12.726)" fill="#000"/>
    <path id="Path_1039" data-name="Path 1039" d="M-1318.3-219.776a4.362,4.362,0,0,1-2.287,3.63c-1.115.43-2.818-.459-3.508-1.829a2.252,2.252,0,0,1,1.1-2.631c1.556-1.033,2.847-1.141,3.941-.23A4.438,4.438,0,0,1-1318.3-219.776Z" transform="translate(17.803 11.674)" fill="#000"/>
    <path id="Path_1040" data-name="Path 1040" d="M-1337.841-217.974a9.2,9.2,0,0,1-1.673-1.327,2.216,2.216,0,0,1-.225-2.565,4.161,4.161,0,0,1,4.431-1.747,1.7,1.7,0,0,1,1.2,1.783,5.388,5.388,0,0,1-2.426,3.4A8.246,8.246,0,0,1-1337.841-217.974Z" transform="translate(15.308 11.316)" fill="#000"/>
    <path id="Path_1041" data-name="Path 1041" d="M-1316.365-218.247a5.959,5.959,0,0,1,.6-1.724,2.275,2.275,0,0,1,2.827-.646,2.055,2.055,0,0,1,1.247,2.238,6.7,6.7,0,0,1-1.172,2.816,2.8,2.8,0,0,1-2.11.628,1.533,1.533,0,0,1-1.316-1.68C-1316.3-217.008-1316.324-217.4-1316.365-218.247Z" transform="translate(19.046 11.769)" fill="#000"/>
    <path id="Path_1042" data-name="Path 1042" d="M-1250.712-205.667a17.042,17.042,0,0,1,2.495-.887c1.724-.338,2.7.866,2.12,2.589a8.631,8.631,0,0,1-1.022,2.069,2.169,2.169,0,0,1-3.781-.331A3.745,3.745,0,0,1-1250.712-205.667Z" transform="translate(29.327 14.017)" fill="#000"/>
    <path id="Path_1043" data-name="Path 1043" d="M-1343.964-224.4c.446.28,1.344.537,1.429.956a6.491,6.491,0,0,1-.115,2.986c-.226.782-2.2,1.223-3.156.923a2.43,2.43,0,0,1-1.613-2.764,1.923,1.923,0,0,1,1.377-1.709C-1345.425-224.189-1344.77-224.253-1343.964-224.4Z" transform="translate(14.138 11.209)" fill="#000"/>
    <path id="Path_1044" data-name="Path 1044" d="M-1225.972-196.424a8.1,8.1,0,0,1,.378-2.489,3.3,3.3,0,0,1,1.708-1.377,1.565,1.565,0,0,1,2.012.67,2.547,2.547,0,0,1,.274,1.778,5.1,5.1,0,0,1-1.323,1.822C-1223.345-195.6-1223.925-195.746-1225.972-196.424Z" transform="translate(33.314 14.995)" fill="#000"/>
    <path id="Path_1045" data-name="Path 1045" d="M-1388.195-265.357a2.294,2.294,0,0,1,2.207-1.755l.258.3a2.332,2.332,0,0,1-2.528,1.379Z" transform="translate(7.697 4.467)" fill="#000"/>
    <path id="Path_1046" data-name="Path 1046" d="M-1242.759-228.731l.746.06c-.242,0-.483-.007-.725,0A.365.365,0,0,1-1242.759-228.731Z" transform="translate(30.664 10.526)" fill="#000"/>
  </g>
</svg>
