<svg xmlns="http://www.w3.org/2000/svg" width="879.132" height="261.778" viewBox="0 0 879.132 261.778">
  <g id="Group_100" data-name="Group 100" transform="translate(2049.309 -4814.259)">
    <path id="Path_649" data-name="Path 649" d="M-999.569,4989.034a36.288,36.288,0,0,1-1.829,4.057,53.27,53.27,0,0,1-3.381,4.819,3.424,3.424,0,0,1-1.439,1.025,1.414,1.414,0,0,1-2.02-1.589,5.843,5.843,0,0,1,.272-1.038,7.511,7.511,0,0,0-.91-6.527,20.693,20.693,0,0,0-1.788-2.464,208.154,208.154,0,0,1-22.734-32.848c-8.071-14.124-15.858-28.4-22.315-43.353-1.492-3.456-2.788-7-4.211-10.481-.347-.851-.843-1.64-1.458-2.814a29.9,29.9,0,0,0-2.454,8.234c-.646,4.436-.987,8.924-1.8,13.325a58.73,58.73,0,0,0-.287,16.619c.685,6.9,1.473,13.791,2.261,20.68a27.549,27.549,0,0,0,2.8,9.227c4.444,8.873,8.945,17.718,13.43,26.571a10.376,10.376,0,0,0,.6.894c.485-.277.945-.5,1.356-.784.439-.308.814-.705,1.25-1.017a1.851,1.851,0,0,1,2.184-.1,2.083,2.083,0,0,1,1.082,2.1,5.039,5.039,0,0,1-.334,1.391c-1.277,3.157-2.54,6.32-3.888,9.447-.624,1.445-1.653,1.776-2.875,1.124a1.5,1.5,0,0,1-.8-2.226c1.465-2.666.985-5.15-.369-7.674-3.59-6.69-7.131-13.406-10.7-20.109-.184-.346-.429-.658-.86-1.309a12.518,12.518,0,0,0-.052,5.413c.37,1.938.835,3.856,1.218,5.791a14.475,14.475,0,0,1,.308,2.479,1.444,1.444,0,0,1-1.381,1.587,14.512,14.512,0,0,1-2.317.2c-3.406-.126-6.817-.216-10.213-.489-4.766-.382-9.518-.943-14.281-1.37-1.544-.137-3.1-.121-4.658-.117a13.4,13.4,0,0,0-1.9.292,21.661,21.661,0,0,0,1.184,3.733c1.149,2.152,2.447,4.233,3.8,6.265.742,1.11,1.317.944,1.8-.353.628-1.679,1.7-2.226,3.13-1.6a2.713,2.713,0,0,1,1.484,3.715c-1.61,3-3.3,5.954-4.969,8.921a2.287,2.287,0,0,1-2.188,1.3c-1.764-.063-2.435-1.218-1.63-2.8a2.076,2.076,0,0,1,.182-.309c2.086-2.785,1.613-5.444-.346-8.069a37.431,37.431,0,0,1-5.606-9.556,3.593,3.593,0,0,0-3.016-2.266c-1.941-.336-3.9-.66-5.857-.8-5.508-.4-11,.15-16.488.493-1.672.1-3.346.141-5.017.248a19.264,19.264,0,0,0-8.053,1.852,8.432,8.432,0,0,0,.166,1.227,43.868,43.868,0,0,0,3.7,9.122c.865,1.572.973,1.594,2.388.59,1.51-1.07,2.238-1.16,3.028-.371.7.7.572,1.482-.2,2.944-.921,1.737-1.715,3.541-2.565,5.314a14.74,14.74,0,0,1-1.031,2.075,2.072,2.072,0,0,1-2.538.789,1.479,1.479,0,0,1-1.04-1.973,9.347,9.347,0,0,1,.633-1.481,6.713,6.713,0,0,0-.187-6.7,82.823,82.823,0,0,1-4.7-9.263,4.158,4.158,0,0,0-4.786-2.642c-6.647.8-13.3,1.59-19.94,2.425-1.718.217-3.424.545-5.12.9a7.107,7.107,0,0,1-3.715-.113,144.55,144.55,0,0,0-29.654-6.022c-6.663-.677-13.351-1.119-20.034-1.561-5.908-.392-11.826-.63-17.738-.954a8.1,8.1,0,0,0-4.025.574c-1.526.712-3.167.429-4.773.232-3.561-.435-7.125-.839-10.681-1.312-5.576-.741-11.092-.06-16.632.5-7.672.779-15.357,1.467-23.049,2a134.706,134.706,0,0,0-29.98,5.2,13.793,13.793,0,0,1-2.969.628c-2.007.146-3.017-.878-2.948-2.9a11.327,11.327,0,0,1,.355-2.3,65.65,65.65,0,0,0,1.606-15.663c.009-7.833-.235-15.682.213-23.493a244.711,244.711,0,0,0-.134-26.353c-.232-4.652-.854-9.286-1.3-13.928l-.391-4.061a9,9,0,0,0-1.073,1.293c-.911,1.813-1.865,3.611-2.64,5.483-3.381,8.173-6.581,16.424-10.092,24.542-2.513,5.811-5.445,11.438-8.13,17.175-1.95,4.168-3.918,8.335-5.653,12.6a82.435,82.435,0,0,0-2.564,8.192c-.332,1.144-.5,2.337-.733,3.509-.424,2.176-.285,4.172,1.7,5.643a1.256,1.256,0,0,1,.427,1.867,1.587,1.587,0,0,1-2.041.6,3.108,3.108,0,0,1-.95-.493,10.361,10.361,0,0,1-1.949-1.826c-1.36-1.964-2.6-4.011-3.878-6.034a3.7,3.7,0,0,1-.369-.813c-.428-1.286.027-1.953,1.359-2.06.872-.072,1.977.111,2.551-.35a5.461,5.461,0,0,0,1.227-2.512,253.952,253.952,0,0,1,13.86-32.466,143.325,143.325,0,0,0,8.368-20.182c1.524-4.769,3.585-9.374,5.548-13.993a82.508,82.508,0,0,0,4.562-13.013,4.133,4.133,0,0,1,2.8-3.2c7.617-2.711,14.44-6.882,21.057-11.446a270.733,270.733,0,0,0,30.042-24.436c6.058-5.6,12.192-11.131,18.149-16.842a112.607,112.607,0,0,0,8.52-9.218c2.337-2.8,5.245-4.48,10.2-2.719q20.458,7.263,41.421,12.933c10.611,2.864,21.4,5.07,32.144,7.435,10.047,2.212,20.194,3.9,30.385,5.3a139.975,139.975,0,0,0,18.969,1.185c5.622.006,11.243.062,16.865.085a12.479,12.479,0,0,1,9.668,4.341c2.232,2.494,4.532,4.928,6.8,7.389a21.277,21.277,0,0,1,1.451,1.588c3,4.007,6.807,7.193,10.513,10.5,3.434,3.065,6.643,6.38,10,9.526,2.706,2.533,5.494,4.978,8.244,7.464a8.269,8.269,0,0,1,1.027.994c.762.983.613,1.688-.458,2.356-.252.157-.54.259-.791.418a2.126,2.126,0,0,0-1.062,2.6c.385,1.255.788,2.51,1.279,3.726,10.17,25.151,23.38,48.7,37.986,71.487,3.74,5.835,7.932,11.38,11.916,17.059.1.147.2.3.39.586.969-.511,1.841-.985,2.725-1.436a3.685,3.685,0,0,1,4.35.207ZM-1253,4836.449c-1.434,1.191-2.818,2.312-4.17,3.47s-2.6,2.485-4.046,3.538c-12.9,9.428-25.3,19.477-37.432,29.865a113.018,113.018,0,0,1-25.865,16.639c-.433.2-.87.4-1.3.614-1.971,1-2.4,1.786-2.182,4.019.035.356.1.709.148,1.065.29,2.252.675,4.5.849,6.759.457,5.958.888,11.921,1.21,17.89.747,13.854,1.1,27.723.92,41.6-.076,5.839-.075,11.735-1.962,17.392a3.715,3.715,0,0,0-.147.883,2.627,2.627,0,0,0,2.239,3.148,11.5,11.5,0,0,0,3.371.034c7.662-.867,15.311-1.853,22.979-2.665,5.29-.561,10.609-.843,15.905-1.365,4.579-.45,9.137-1.125,13.716-1.587a44.011,44.011,0,0,1,13.562.7,52.947,52.947,0,0,0,6.022.794c1.425.133,2.115-.511,2.219-1.96a18.626,18.626,0,0,0-.067-2.507c-.593-9.367-1.232-18.729-1.333-28.123a75.182,75.182,0,0,0-.976-10.334,152.509,152.509,0,0,1-1.812-19.085c-.1-4.36-.325-8.72-.587-13.074a182.536,182.536,0,0,1,.043-25.984,117.013,117.013,0,0,0,.345-17.2c-.463-7.156-1.234-14.3-.486-21.487A3.243,3.243,0,0,0-1253,4836.449Zm10,143.765.331.156a6.115,6.115,0,0,1,5.6-2.259,10.118,10.118,0,0,0,5.423-.729,3.961,3.961,0,0,1,3.317-.122c2.243,1.094,4.609,1.066,7.016,1.055,3.285-.016,6.579-.008,9.857.2a134.966,134.966,0,0,1,19.635,3.146c5.671,1.206,11.359,2.346,16.768,4.52.082.034.216-.059.4-.115a4.433,4.433,0,0,0,.031-.664c-.946-10.259-.8-20.54-.764-30.826.028-8.186-.2-16.38-.58-24.56-.381-8.117-1.075-16.221-1.684-24.327-.282-3.754-.651-7.5-1.058-11.248a5.438,5.438,0,0,0-3.863-4.91,7.907,7.907,0,0,1-2.061-1.061c-3.288-2.391-6.614-4.737-9.794-7.265-10.311-8.194-19.8-17.321-29.46-26.247a256.084,256.084,0,0,1-20.353-21.719c-.4-.471-.852-.906-1.52-1.613-.231,2.461-.355,4.534-.631,6.586a106.8,106.8,0,0,0-.3,25.222,241.5,241.5,0,0,1,1.486,24.875c-.011,13.691-.084,27.383-.075,41.075a80.887,80.887,0,0,0,.4,8.591c.755,7.011,1.711,14,2.485,21.009a74.524,74.524,0,0,1-.437,19.49C-1242.919,4979.048-1242.946,4979.634-1243,4980.214Zm4.141-150.347-.242.288a12.286,12.286,0,0,0,1.026,1.491c8.947,9.654,18.095,19.1,28.3,27.467q12.831,10.522,25.581,21.143a26.76,26.76,0,0,0,10.943,5.494,169.128,169.128,0,0,0,20.984,3.795c6.828.782,13.673,1.471,20.529,1.926,7.336.486,14.691.742,22.043.912a82.924,82.924,0,0,0,9.657-.516,94.81,94.81,0,0,1,15.576-.551,75.181,75.181,0,0,0,7.516.234c2.8-.086,5.588-.674,8.4-.1a1.12,1.12,0,0,0,.7,0c.535-.317,1.236-.616,1.46-1.11.167-.364-.189-1.125-.527-1.528a21.258,21.258,0,0,0-1.882-1.65c-5.782-5.374-11.577-10.733-17.326-16.142a109.74,109.74,0,0,1-13.436-14.9,12.52,12.52,0,0,0-1.152-1.372c-1.53-1.556-2.931-1.9-4.849-.84a6.508,6.508,0,0,1-5.024.476,84.54,84.54,0,0,0-15.622-2.055,195.625,195.625,0,0,1-19.633-1.829c-14.855-2.5-29.724-4.937-44.365-8.523-15.615-3.825-31.2-7.792-46.792-11.7C-1237.613,4830.131-1238.239,4830.006-1238.861,4829.867Zm174.632,154.461c-.042-.925-.016-1.732-.125-2.521-1.014-7.338-2.541-14.606-2.956-22.025a6.017,6.017,0,0,0-.507-1.886c-3.529-8.628-7.092-17.242-10.615-25.871-2.619-6.415-4.933-12.953-8.037-19.17-1.7-3.415-3.184-6.949-4.607-10.494a4.023,4.023,0,0,0-3.853-2.913c-5.074-.178-10.142-.773-15.229-.211a46.833,46.833,0,0,1-10.2.179q-7.041-.764-14.091-1.46c-2.851-.286-3.263.28-2.253,2.965a131.211,131.211,0,0,0,6.518,14.353c2.318,4.447,4.476,8.979,6.645,13.5,1.006,2.1,1.835,4.285,2.807,6.4,2.22,4.832,4.695,9.56,6.677,14.486,4.117,10.235,9.719,19.717,14.639,29.544a4.042,4.042,0,0,0,3.233,2.283c1.36.186,2.728.357,4.1.438,5.192.3,10.386.561,15.578.855,2.327.13,4.66.22,6.972.491C-1067.843,4983.469-1066.178,4983.929-1064.23,4984.328Zm-107.91-90.426a10.175,10.175,0,0,0,.787,5.332q2.154,5.605,4.412,11.171c2.779,6.869,5.8,13.647,8.336,20.6,4.44,12.188,8.749,24.414,14.053,36.27,1.75,3.911,2.981,8.061,4.336,12.139.848,2.552,1.521,3.145,4.261,3.091,6.22-.122,12.442-.175,18.658-.388,4.359-.152,8.713-.48,13.062-.815,1.709-.132,1.958-.689,1.262-2.2-.1-.217-.244-.412-.349-.627-4.5-9.241-9.1-18.435-13.474-27.738-7.8-16.607-15.468-33.278-23.181-49.927a5.222,5.222,0,0,0-5.252-3.292,90.5,90.5,0,0,1-18.872-2.015C-1166.733,4894.986-1169.362,4894.455-1172.14,4893.9Zm2.282,19.714a83.781,83.781,0,0,1-.2,14.277,12.726,12.726,0,0,0,.114,2.856,74.381,74.381,0,0,1,.394,13.244c-.176,2.443-.365,4.887-.492,7.334a292.77,292.77,0,0,0,.266,29.574,22.659,22.659,0,0,0,.907,4.737,1.847,1.847,0,0,0,2.408,1.571c3.609-.5,7.23-.935,10.813-1.583,3.935-.713,7.834-1.623,11.741-2.481a16.519,16.519,0,0,0,2.02-.734c-.311-.753-.532-1.3-.764-1.842-1.48-3.46-3.068-6.88-4.425-10.388q-7.624-19.726-15.118-39.5c-1.36-3.572-2.607-7.187-3.957-10.765A18.254,18.254,0,0,0-1169.858,4913.616Zm80.657-13.89c6.372,14.613,12.634,28.973,18.9,43.332l.346-.1c-1.432-15.023-1.1-30.1-1.419-45.275C-1077.34,4898.6-1083.282,4897.841-1089.2,4899.726Z" transform="translate(-170.607 -1.642)" fill="#000"/>
    <path id="Path_650" data-name="Path 650" d="M-1467.52,5160.5a4.218,4.218,0,0,1-1.964-4.43,8.636,8.636,0,0,1,2.528-5.749,8.59,8.59,0,0,1,.888-.65c1.2,1.612-.657,2.956-.309,4.34.168.158.24.279.341.313,2.3.766,2.313.77,1.368,2.952-.489,1.128-.636,2.452-1.775,3.224Z" transform="translate(-146 -84.461)" fill="#000"/>
    <path id="Path_651" data-name="Path 651" d="M-1887.952,4972.779c.377-.692.643-1.153.882-1.627,6.331-12.542,12.725-25.053,18.948-37.65,1.82-3.685,3.213-7.589,4.689-11.435a7.246,7.246,0,0,0-.47-6.722c-.682-1.107-.468-1.861.675-2.336,4.427-1.842,7.69-5.226,11.154-8.331a6.952,6.952,0,0,1,3.739-1.923,19.763,19.763,0,0,0,8.134-3.6c5.5-3.717,10.911-7.567,16.027-11.813,5.3-4.4,10.784-8.531,16.439-12.46a206.412,206.412,0,0,0,23.572-19.039,157.134,157.134,0,0,0,27.041-34.026,18.9,18.9,0,0,1,1.8-2.67c1.149-1.33,2.34-1.237,3.436.158a7.737,7.737,0,0,1,.764,1.211,31.627,31.627,0,0,0,5.929,7.84q1.655,1.644,3.371,3.226c3.253,3,6.433,6.063,9.381,9.381a100.624,100.624,0,0,0,16.033,14.048c3.231,2.37,6.531,4.644,9.793,6.971a10.189,10.189,0,0,1,1.382,1.136,48.631,48.631,0,0,0,10.99,8.3c10.319,5.81,20.676,11.563,31.683,16a20.128,20.128,0,0,1,9.925,8.923c6.048,10.176,12.046,20.389,18.387,30.383a181.737,181.737,0,0,0,24.608,30.315c3.278,3.313,6.352,6.829,9.519,10.25a15.477,15.477,0,0,0,1.223,1.308,1.543,1.543,0,0,0,2.261.086c.243-.17.419-.492.679-.573a3.493,3.493,0,0,1,1.641-.266,1.355,1.355,0,0,1,1,1.523,5.319,5.319,0,0,1-.46,1.708,42.07,42.07,0,0,0-3.532,12.367c-.171,1.385-.936,2.357-1.776,2.4-.72.036-1.491-.92-1.7-2.262a5.694,5.694,0,0,1,.046-1.773,17.968,17.968,0,0,1,.555-2.261,8.747,8.747,0,0,0-2.286-9.24c-1.885-1.921-3.748-3.867-5.7-5.725-11.616-11.086-21.376-23.7-30.376-36.931-6.126-9-11.678-18.366-17.063-27.828a10.7,10.7,0,0,0-.929-1.53,7.319,7.319,0,0,0-1.353-.957,10.527,10.527,0,0,0-.358,2.741c.53,3.122.027,6.2-.168,9.3-.23,3.641-.472,7.285-.514,10.93-.109,9.328-.256,18.66-.1,27.985.091,5.252.759,10.493,1.167,15.737.194,2.5.384,5.009.59,7.512.033.4.14.8.242,1.366,1.184-.092,2.311-.107,3.413-.278,7.646-1.182,15.377-1.208,23.067-1.776,3.816-.282,7.617-.759,11.424-1.15a3.183,3.183,0,0,1,1.229-.111,2.04,2.04,0,0,1,1.189.9,1.571,1.571,0,0,1-.308,1.425,4.925,4.925,0,0,1-2.162,1.138c-3.058.545-6.134,1-9.216,1.4-8.542,1.091-17.091,2.128-25.636,3.2-.7.088-1.4.281-2.3.468.069.79.092,1.542.2,2.281q1.453,9.48,2.943,18.956c.158,1,.444,1.982.625,2.982.263,1.46-.019,1.9-1.494,1.95-2.868.1-5.741.1-8.612.13-6.938.076-13.879.058-20.814.245a179.691,179.691,0,0,0-22.127,2.19c-6.975,1.059-13.977,2-20.888,3.39-4.553.917-8.972,2.507-13.436,3.847-2.846.854-3.009.879-5.53-.623a12.915,12.915,0,0,0-.138,2.806,19.053,19.053,0,0,1-.114,2.145,1.329,1.329,0,0,1-1.356,1.2,1.414,1.414,0,0,1-1.505-1.034,6.178,6.178,0,0,1-.219-1.405c-.308-4.592-.631-9.186-.89-13.781-.124-2.206-.225-4.423-.148-6.629a51.18,51.18,0,0,0-.965-10.821c-.149.23-.284.345-.3.472-.47,4.58-.978,9.156-1.374,13.742a49.405,49.405,0,0,0,.878,11.957,17.751,17.751,0,0,1,.221,2.676c.007,1.7-.389,2.22-2.08,2.214a61.092,61.092,0,0,1-7.7-.374,82.18,82.18,0,0,0-14.133-.768c-10.219.424-20.442.8-30.663,1.189q-2.511.094-5.024.1a31.42,31.42,0,0,0-7,1.245,8.777,8.777,0,0,0,.6,1.013,22.751,22.751,0,0,1,4.53,10.593,20.462,20.462,0,0,1-2.1,13.378,3.3,3.3,0,0,1-2.109,1.81c-4.78,1.324-9.559,2.65-14.355,3.917a16.883,16.883,0,0,1-7.123-.14c-8.2-1.349-16.393-2.753-24.608-4-6.182-.941-12.413-.595-18.632-.374-9.528.34-18.91,1.929-28.328,3.234-3.962.548-7.934,1.114-11.968.624a17.93,17.93,0,0,1-11.076-5.349c-.292-.3-.583-.6-.869-.907a4.479,4.479,0,0,0-4.4-1.392c-1.406.276-2.806.627-4.226.791-6.831.783-12.426-1.836-17.117-6.556-2.554-2.57-3.454-5.956-3.784-9.482a18.375,18.375,0,0,1,1.631-9.622,83.537,83.537,0,0,1,4.624-8.489,10.791,10.791,0,0,1,2.992-2.763,11.391,11.391,0,0,1,2.763-1.257c2.425-.885,2.515-1.02,2.244-3.656a17.629,17.629,0,0,1,3.982-13.383,16.017,16.017,0,0,1,10.233-5.768,29.358,29.358,0,0,0,4.184-.975,7.248,7.248,0,0,0,5.127-5.31,12.092,12.092,0,0,1,3.6-5.87c.517-.5,1.02-1.012,1.491-1.553a3.889,3.889,0,0,1,3.771-1.534,4.5,4.5,0,0,0,4.16-1.676,16.283,16.283,0,0,0,1.916-2.8c4.669-8.758,9.36-17.506,13.906-26.329a64.683,64.683,0,0,0,2.827-7.339,9.508,9.508,0,0,0,.267-1.617c-.729-.048-1.356-.125-1.983-.125a52.567,52.567,0,0,0-11.012,1.415,270.888,270.888,0,0,1-29.107,4.176c-3.442.351-6.845,1.077-10.274,1.574a38.942,38.942,0,0,1-5.519.561,3.32,3.32,0,0,0-3.344,2.164c-1.689,3.632-3.315,7.3-5.152,10.855-5.188,10.049-9.446,20.525-14.279,30.736a184.686,184.686,0,0,0-7.954,20.561,10.258,10.258,0,0,0-.245,1.945c3.019.28,5.806.549,8.6.794,3.217.283,6.437.541,9.654.819a6.121,6.121,0,0,1,1.235.2,1.766,1.766,0,0,1,1.457,1.8,1.84,1.84,0,0,1-1.314,1.929,5.3,5.3,0,0,1-2.107.288c-4.251-.49-8.487-.021-12.73.063-1.673.033-3.35.04-5.023-.027a4.983,4.983,0,0,0-4.806,2.545c-.853,1.438-1.518,2.986-2.363,4.428-.994,1.7-2.132,3.305-3.124,5a7.148,7.148,0,0,0-.733,2.125c-.122.574.007,1.2-.071,1.785-.2,1.495-.966,2.094-2.337,1.594a46.161,46.161,0,0,1-5.41-2.367,5.589,5.589,0,0,1-1.916-1.819,1.372,1.372,0,0,1,1.014-2.26,5.26,5.26,0,0,1,2.073.3c2.243.636,3.734.227,4.928-1.787,1.486-2.5,2.773-5.125,4.253-7.893-1.327-.424-2.5-.807-3.674-1.173-.456-.142-.928-.231-1.383-.377-1.827-.589-2.4-1.423-2.212-3.343.191-1.9.505-3.793.681-5.7a114.5,114.5,0,0,0-1.006-28.794c-1.166-7.253-2.631-14.46-4.083-21.665a40.253,40.253,0,0,0-1.849-5.611c-.3-.833-.76-1.609-1.283-2.69a9.651,9.651,0,0,0-1.538,1.543,9.289,9.289,0,0,0-1.062,2.45,125.974,125.974,0,0,1-6.776,18.5c-3.864,8.815-7.643,17.667-11.506,26.481a100.891,100.891,0,0,1-6.612,12.315c-1.875,3.05-3.522,6.244-5.14,9.441a6.62,6.62,0,0,0-.512,2.928c.01,1.9-1.142,2.765-2.876,1.987a3.473,3.473,0,0,1-.768-.455c-1.812-1.468-3.628-2.933-5.412-4.437-.54-.455-1.13-.981-.813-1.826a1.951,1.951,0,0,1,1.857-1.182,3.261,3.261,0,0,1,2.207.485c1.661,1.059,2.66.831,3.8-.776.622-.875,1.15-1.817,1.7-2.742a193.019,193.019,0,0,0,16.671-34.9,38.889,38.889,0,0,1,2.017-4.79,160.1,160.1,0,0,0,9.7-24.863c.488-1.539.989-3.074,1.534-4.592a7.56,7.56,0,0,1,4.269-4.589,181.06,181.06,0,0,0,28.5-15.842c6.923-4.6,13.924-9.086,20.835-13.706,2.482-1.66,4.79-3.579,7.2-5.347,2.217-1.624,4.515-3.14,6.693-4.816,4.074-3.134,8.088-6.346,12.121-9.531.516-.408,1.022-.833,1.5-1.282a29.27,29.27,0,0,1,13.186-6.886c9.146-2.349,18.2-5.048,27.288-7.635a38.964,38.964,0,0,0,4.569-1.6c6.062-2.577,12.337-4.514,18.587-6.566,10.334-3.394,20.557-7.133,30.781-10.854,20.958-7.624,41.881-15.338,62.828-22.991a27.2,27.2,0,0,0,6.042-3.105c1.826-1.246,3.688-2.442,5.56-3.62,1.312-.825,2.3-.782,3.109.033a1.839,1.839,0,0,1,.111,2.714,5.619,5.619,0,0,1-.8.712q-3.836,2.962-7.679,5.91a53.008,53.008,0,0,1-10.993,6.372,236.637,236.637,0,0,1-24.926,9.087q-20.727,6.431-41.427,12.945c-10.322,3.248-20.744,6.226-30.906,9.919-14.286,5.192-28.964,9.109-43.36,13.923a30.813,30.813,0,0,0-10.735,5.956c-4.414,3.857-8.839,7.7-13.324,11.477a169.174,169.174,0,0,1-25.849,17.752,283.686,283.686,0,0,0-28.3,17.988c-.5.37-1,.754-1.754,1.331.626.08.9.139,1.172.144,6.639.116,13.271.2,19.909-.286,5.962-.439,11.965-.367,17.92-.872,6.729-.569,13.434-1.46,20.131-2.34,6.167-.81,12.3-1.895,18.565-1.486a5.175,5.175,0,0,0,1.768-.22,153.172,153.172,0,0,1,27.8-5.271,92.78,92.78,0,0,0,17.243-3.288,7.231,7.231,0,0,1,.86-.249c.712-.121,1.469-.283,1.959.449a2.226,2.226,0,0,1,.15,2.228,2.7,2.7,0,0,1-2.033,1.6c-1.463.305-2.934.577-4.4.84-3.884.693-7.765,1.4-11.656,2.047a3.963,3.963,0,0,0-3.255,2.69c-1.727,4.2-3.55,8.355-5.354,12.52-.9,2.083-1.77,4.189-2.791,6.215-1.4,2.771-2.9,5.489-4.405,8.207-1.532,2.773-3.119,5.514-4.666,8.277-.256.459-.43.964-.676,1.526a4.534,4.534,0,0,0,2.643,1.048,21.541,21.541,0,0,0,3.576.23,13.557,13.557,0,0,1,7.507,2.025A22.982,22.982,0,0,1-1887.952,4972.779Zm54.96,42.212c4.251.009,8.423.472,12.549-.581,1.158-.295,2.321-.579,3.492-.817a72.911,72.911,0,0,1,13.207-1.157c4.723-.092,9.462-.091,14.164-.488a113.511,113.511,0,0,1,19.709-.229c3.275.293,6.538.709,9.807,1.071,2.907.321,3.579-.262,3.6-3.135.024-3.468-.016-6.94.074-10.406.223-8.488.637-16.975.73-25.464.117-10.7.024-21.409-.047-32.114a85.4,85.4,0,0,0-.459-8.774c-.79-7.19-1.775-14.357-2.583-21.544-.974-8.674-2.031-17.347-1.3-26.113.247-2.978.3-5.971.451-8.958q.507-9.763,1.03-19.524c.248-4.653.515-9.305.747-13.959a33.215,33.215,0,0,1,1.549-9.343,8.082,8.082,0,0,0,.209-1.039,4.692,4.692,0,0,0-3.605,2.279c-2.946,3.846-5.841,7.731-8.85,11.525a64.7,64.7,0,0,1-15.658,14.64,22.815,22.815,0,0,0-2.26,1.768c-4.688,3.9-9.313,7.881-14.064,11.7-7.827,6.3-15.57,12.707-23.98,18.247-2.995,1.973-5.966,4-8.789,6.207a48.505,48.505,0,0,1-8.287,5.3,58.441,58.441,0,0,0-14.167,10.3,4.8,4.8,0,0,0-1.375,5.373,19.555,19.555,0,0,1,.841,4.208c.387,4.527.854,9.06.95,13.6.282,13.271.521,26.546-.543,39.8-.243,3.039-.539,6.074-.807,9.11-.034.387-.054.774-.1,1.381,2.078-.805,3.934-1.625,5.856-2.24a29.148,29.148,0,0,1,6.053-1.542c6.433-.6,12.719,4.639,12.74,11.054,0,1.194.152,2.386.228,3.581a34.261,34.261,0,0,1-.925,11.918A7.861,7.861,0,0,0-1832.991,5014.991Zm81.471-181.387c0,3.619-.073,7.075.021,10.527.085,3.105.5,6.206.516,9.309.072,11.6.216,23.2.991,34.778.471,7.037.822,14.087,1.523,21.1.725,7.26,1.568,14.5,1.576,21.808,0,2.689.165,5.379.305,8.066q.927,17.822,1.89,35.643c.071,1.311.174,2.625.37,3.924.631,4.2,1.411,8.372,1.946,12.579.588,4.623.956,9.273,1.443,13.908.166,1.575.4,3.143.63,4.894,2.336-.639,4.41-1.178,6.467-1.775a94.659,94.659,0,0,1,15.336-3.627c2.905-.341,5.789-.87,8.68-1.33,3.3-.523,6.589-1.279,9.913-1.56,11.025-.93,22.07-1.583,33.145-1.459,2.153.024,4.307.063,6.458-.015,1.865-.065,2.351-.588,2.185-2.468a42.772,42.772,0,0,0-.854-5.846,69.133,69.133,0,0,1-2.105-15.42c0-1.551-.188-3.1-.31-4.652-.539-6.851-1.244-13.694-1.6-20.555-.714-13.871-.1-27.735.528-41.6.216-4.776.284-9.562.315-14.345.022-3.217-.916-4.334-3.843-5.505q-4.742-1.9-9.393-4.018c-4.349-1.987-8.609-4.172-12.985-6.1a114.825,114.825,0,0,1-16.85-9.134c-9.023-5.927-17.227-12.9-25.335-19.981-5.989-5.235-11.927-10.527-17.886-15.795C-1749.289,4834.215-1750.1,4833.4-1751.521,4833.6Zm-126.835,175.7c-.839,1.208-1.527,2.305-2.324,3.314a31.412,31.412,0,0,1-2.5,2.775,1.039,1.039,0,0,1-1.586-.029,9.14,9.14,0,0,1-2.916-4.005c-.262-.857-.565-1.7-.869-2.546a42.347,42.347,0,0,0-8.654-14.751,14.376,14.376,0,0,0-8.074-4.691c-3.143-.565-4.984.3-6.489,3.15a18.313,18.313,0,0,0-.692,15.942,26.32,26.32,0,0,0,6.537,10.171c1.99,1.815,1.511,4,.406,5.68-.942,1.428-2.458,1.56-4.664.509a8.038,8.038,0,0,0-.969-.464,40.891,40.891,0,0,0-4.787-1.452c-4.924-.925-9.779-.114-14.573.972a6.47,6.47,0,0,0-4.6,4.2,8.332,8.332,0,0,0,.343,6.954,16.555,16.555,0,0,0,8.262,7.893c4.176,1.942,8.558,2.029,13.01,1.417,6.278-.864,12.54-1.853,18.834-2.575,5.165-.594,10.358-1.04,15.551-1.263a130.848,130.848,0,0,1,35.934,3.719,34.234,34.234,0,0,0,22.762-2.239,5.936,5.936,0,0,0,3.671-4.862,21.379,21.379,0,0,0-.984-10.6,9.778,9.778,0,0,0-5.052-5.8c-4.987-2.459-9.9-2.538-14.583.783a8.1,8.1,0,0,1-5.94,1.466c-1.689-.214-2.292-1.177-1.675-2.753a4.707,4.707,0,0,1,.873-1.337,37.335,37.335,0,0,0,5.337-8.052,23.9,23.9,0,0,0,2.389-7.482c.739-5.434-3.388-12.386-11.622-10.688a26.647,26.647,0,0,0-14.177,7.591,47.015,47.015,0,0,0-10.834,16.942,4.361,4.361,0,0,1-1.276,1.875,1.576,1.576,0,0,1-2.754-1.042c-.253-1.525-.346-3.08-.451-4.626A8.314,8.314,0,0,0-1878.356,5009.306Zm-5.905-3.238a1.133,1.133,0,0,0,.283.054,1.053,1.053,0,0,0,.333-.122c3.113-2.14,6.24-2.6,9.432-.142a1.409,1.409,0,0,0,2.085-.254,9.677,9.677,0,0,0,1.52-2.4,29.376,29.376,0,0,0,2.113-12.274,7.7,7.7,0,0,0-.7-3.117,7.018,7.018,0,0,0-9.486-3.24,20.642,20.642,0,0,0-4.192,3c-1.569,1.34-3.049.985-3.586-1.035a3.777,3.777,0,0,1-.124-1.416c.435-3.339-.85-6.062-2.915-8.552-5.652-6.819-13.011-9.178-21.609-8.322-6.486.646-10.871,5.538-10.237,12.706.235,2.652-.862,4.478-2.212,6.368-.562.787-1.032.795-1.824.156-.65-.522-1.217-1.147-1.825-1.722a3.318,3.318,0,0,0-3.141-.9,19.812,19.812,0,0,0-13.494,10.363,2.646,2.646,0,0,0,2.663,4.06,4.8,4.8,0,0,1,4.988,2.476q.986,1.5,1.995,2.98c1.028,1.517,1.009,2.9-.066,3.889-1.027.951-2.166.844-3.633-.484a7.315,7.315,0,0,0-3.329-1.65,10.447,10.447,0,0,0-8.247,1.471,19.561,19.561,0,0,0-8.982,12.67,14.112,14.112,0,0,0,1.076,9.44,7.48,7.48,0,0,0,6.194,4.567,37.3,37.3,0,0,0,9.482.086,13.8,13.8,0,0,0,1.528-.393c-.1-.7-.184-1.23-.259-1.758-.76-5.364,1.259-9.331,6.041-11.866a20.939,20.939,0,0,1,9.971-2.547c2.989,0,5.979-.088,8.968-.15.455-.009.908-.085,1.311-.125.058-.172.11-.246.091-.282-.255-.469-.5-.942-.785-1.393a25.251,25.251,0,0,1-4-12.675,32.071,32.071,0,0,1,1.8-11.808,9.716,9.716,0,0,1,7.868-6.791,14.969,14.969,0,0,1,9.138.964c8.185,3.784,13.834,9.689,15.455,18.87C-1884.488,5005.225-1884.357,5005.67-1884.261,5006.068Zm-74.531-71.59c-.615-.07-.958-.141-1.3-.144-3.106-.029-6.217-.15-9.319-.039-3.7.134-7.393.585-11.094.691-6.034.174-12.072.165-18.109.261-2.835.044-3.079.337-2.337,3.034,1.347,4.895,2.69,9.793,4.161,14.65,3.02,9.966,4.16,20.225,4.826,30.552a40.376,40.376,0,0,1-1.321,13.144,12.409,12.409,0,0,0-.323,3.013,1.837,1.837,0,0,0,1.757,2.087,4.314,4.314,0,0,0,4.937-2.6c2.414-6.046,4.845-12.089,7.46-18.049,6.505-14.824,13.117-29.6,19.685-44.4C-1959.482,4936.033-1959.194,4935.383-1958.792,4934.478Zm72.523,39.731c1.153,2.079,2.176,4.035,3.311,5.925.568.945.81,1.267,2.213.75a21.812,21.812,0,0,1,3.1-.9,9.214,9.214,0,0,1,7.2,1.328c4.091,2.67,5.737,6.557,5.84,11.267.013.626,0,1.255,0,2.176.677-.446,1.08-.675,1.441-.957,1.923-1.5,2.191-2.4,1.548-4.8a4.434,4.434,0,0,1-.146-1.58c.34-3.147.8-6.283,1.079-9.436.466-5.237.964-10.478,1.2-15.728a237.2,237.2,0,0,0-.584-25.086c-.151-2.5-.594-4.978-.922-7.464a3.781,3.781,0,0,0-.366-.835c-.235.354-.385.539-.49.745-5.474,10.89-10.979,21.765-16.4,32.682C-1880.384,4966.6-1882.542,4970.853-1886.269,4974.209Zm141.2,32.629-.414.09c0,1.017-.055,2.038.037,3.046.023.259.508.476.78.711.251-.34.774-.754.7-1.007A25.438,25.438,0,0,0-1745.07,5006.838Z" transform="translate(0)" fill="#000"/>
    <path id="Path_652" data-name="Path 652" d="M-1680.515,5093.3c2.046-.107,4.009-.234,5.974-.308,8.2-.309,16.323-1.378,24.456-2.377,7.079-.869,13.992-2.562,20.975-3.912,6.338-1.225,12.705-2.291,19.043-3.519,4.812-.932,9.573-2.143,14.4-2.973,4-.686,8.082-.893,12.1-1.5q8.422-1.271,16.8-2.83a440.262,440.262,0,0,1,46.154-6.563c6.5-.517,13.018-.74,19.524-1.162,7.7-.5,15.388-1.139,23.089-1.574,5.311-.3,10.634-.419,15.954-.506,4.724-.078,9.456.161,14.174-.031a134.276,134.276,0,0,0,22.783-2.628,41.6,41.6,0,0,1,6.233-.593c3.162-.19,6.339-.2,9.494-.46,10.749-.9,21.516-.731,32.283-.746,7.595-.01,15.217.16,22.778-.414,11.685-.889,23.314-.174,34.964.309,3.7.153,7.415.222,11.114.451a93.428,93.428,0,0,1,25.881,5.506c5.4,1.938,8.788,8.63,7.221,14.029a6.834,6.834,0,0,1-3.215,4.364c-11.672,6.336-23.413,12.568-36.3,16.119-4.828,1.33-9.813,2.125-14.756,3-6.473,1.149-12.963,2.234-19.472,3.157a90.678,90.678,0,0,1-10.546.828c-9.569.223-19.142.24-28.711.453-6.876.153-13.747.517-20.621.733-4.664.147-9.334.1-13.993.318-6.691.307-13.373.8-20.062,1.159s-13.384.65-20.076.944c-9.447.416-18.851,1.315-28.241,2.4q-18.186,2.1-36.142,5.663c-3.517.693-7.087,1.116-10.63,1.684a16.281,16.281,0,0,0-7.789,3.49,9.4,9.4,0,0,0,4.281,2.249,10.575,10.575,0,0,0,5.156-.1,35.568,35.568,0,0,1,8.382-.689,3.133,3.133,0,0,1,1.228.2,1.75,1.75,0,0,1,1.137,1.682,1.44,1.44,0,0,1-1.178,1.41,25.85,25.85,0,0,1-2.815.529,39.856,39.856,0,0,1-13.214.18,49.548,49.548,0,0,1-4.995-1.4,5.636,5.636,0,0,1-1.286-.627c-2-1.242-2.372-3.062-.745-4.79a17.325,17.325,0,0,1,3.668-2.823,20,20,0,0,1,7.453-2.465c13.773-2.1,27.542-4.22,41.334-6.187,11.257-1.6,22.595-2.391,33.948-2.983q17.741-.925,35.475-1.981c12.011-.714,24.037-.655,36.06-.761a247.775,247.775,0,0,0,33.422-2.673q19.524-2.834,39.006-5.968a76.1,76.1,0,0,0,22.2-6.852,50.9,50.9,0,0,1,5.478-2.229,15.644,15.644,0,0,0,5.888-3.669c1.351-1.354,2.634-2.775,3.948-4.168a6.506,6.506,0,0,0,1.592-3.732c.114-.828.149-1.669.184-2.5.09-2.15-.254-2.692-2.235-3.567a59.774,59.774,0,0,0-13.732-4.053c-7.473-1.334-14.943-2.723-22.46-3.766a95.845,95.845,0,0,0-13.241-.795c-8.193.009-16.388.209-24.577.5-12.075.422-24.149.908-36.216,1.526-7.226.371-14.434,1.071-21.654,1.574-4.654.325-9.31.7-13.971.809-13.1.3-26.171,1.086-39.232,2.144q-14.573,1.178-29.185,1.845a85.519,85.519,0,0,0-15.042,2.268,279.484,279.484,0,0,1-29.178,4.888c-12.059,1.41-24.1,2.931-36.077,4.916-5.306.877-10.693,1.276-15.993,2.188-6.655,1.144-13.254,2.6-19.882,3.905-10.969,2.159-21.925,4.391-32.917,6.425-7.881,1.458-15.854,2.312-23.839,3.027a24.3,24.3,0,0,1-8.159-.861C-1680.065,5097.825-1681,5096.126-1680.515,5093.3Zm337.633,10.977c1.19.439,2.381.8,3.683-.146C-1340.566,5103.309-1341.725,5103.791-1342.881,5104.276Zm-190.712-28.851c1.368.852,1.4.849,2.481-.276Z" transform="translate(-92.836 -62.079)" fill="#000"/>
    <path id="Path_653" data-name="Path 653" d="M-1404.553,5023.02c-.621-.241-1.049-.419-1.486-.574-6.418-2.262-9.54-6.48-9.828-13.28a25.216,25.216,0,0,1,1.507-9.682,34.494,34.494,0,0,1,7.034-11.572,13.2,13.2,0,0,1,9.654-4.467c2.091-.071,4.186-.021,6.278-.051,1.487-.022,1.846-.479,1.367-1.879a12.85,12.85,0,0,1-.488-7.059c.984-4.457,3.868-7.142,8.078-8.563,4.084-1.38,7.5-.009,10.6,2.6.046.039.091.078.133.12.78.783.924,1.566.409,2.214a1.555,1.555,0,0,1-2.241.142c-.347-.231-.653-.523-.983-.78a6.1,6.1,0,0,0-6.084-1.018c-3.36,1.177-5.765,3.381-6.147,7a9.23,9.23,0,0,0,4.363,9.038c.628.422,1.6.619,1.463,1.588a2.735,2.735,0,0,1-1.8,2.071,3.924,3.924,0,0,1-2.962-.17,33.758,33.758,0,0,0-8.958-1.685,13.422,13.422,0,0,0-12.365,6.247,28,28,0,0,0-4.86,15.884c-.048,6.055,3.626,9.91,9.747,10.522.832.084,1.677.106,2.493.268,1.341.266,1.686.976,1.035,2.2a24.849,24.849,0,0,1-1.516,2.214,19.011,19.011,0,0,0-1.358,2.1c-.479.962-.126,1.625.941,1.8a11.017,11.017,0,0,0,1.785-.01,23.853,23.853,0,0,1,2.86.044,3.844,3.844,0,0,1,3.557,3.268,10.541,10.541,0,0,1,.14,1.066c.259,2.164.818,2.7,3.014,2.517a26.283,26.283,0,0,0,4.4-.765,8.472,8.472,0,0,0,5.253-3.8,7.446,7.446,0,0,1,5.47-3.625,12.983,12.983,0,0,0,4-1.5,32.052,32.052,0,0,1,13.627-4.072c1.844-.111,3.671-.494,5.507-.746a4.455,4.455,0,0,1,3.69,1,1.562,1.562,0,0,1-.595,2.79,8.084,8.084,0,0,1-2.129.252,43.3,43.3,0,0,0-18.481,4.539,8.479,8.479,0,0,1-1.835.709,14.8,14.8,0,0,0-7.309,4.313c-.466.464-.925.936-1.394,1.4a11.586,11.586,0,0,1-5.776,3.079,20.992,20.992,0,0,1-7.844.089,3.623,3.623,0,0,1-3.368-3.393c-.058-.354-.078-.715-.153-1.065a2.237,2.237,0,0,0-2.157-2.037c-.649-.084-1.322.017-1.969-.075a14.569,14.569,0,0,1-3.141-.614c-2.7-1.025-3.53-3.106-2.422-5.765C-1405.417,5024.94-1405,5024.037-1404.553,5023.02Z" transform="translate(-159.504 -38.047)" fill="#000"/>
    <path id="Path_654" data-name="Path 654" d="M-1800.819,4906.18a4.28,4.28,0,0,1,1.08-4.737,14.579,14.579,0,0,1,2-1.5c6.318-4.31,11.26-9.753,14.11-16.953.732-1.848,2.321-2.825,4.045-3.592a1.177,1.177,0,0,1,1.716.792,6.239,6.239,0,0,1,.182,2.771,19.093,19.093,0,0,1-3.854,8.388,49.6,49.6,0,0,1-16.943,13.815C-1799.179,4905.5-1799.9,4905.782-1800.819,4906.18Z" transform="translate(-62.502 -16.369)" fill="#000"/>
    <path id="Path_655" data-name="Path 655" d="M-1861.862,4903.6a4.045,4.045,0,0,1-.359,1.121,23.86,23.86,0,0,1-2.744,4.141,117.528,117.528,0,0,1-14.047,12.744c-3.865,2.9-7.542,6.056-11.337,9.054a9.081,9.081,0,0,1-2.461,1.4,1.6,1.6,0,0,1-2.119-.815,1.6,1.6,0,0,1,.595-2.323c.956-.711,1.993-1.313,2.975-1.991,2.159-1.491,4.354-2.937,6.446-4.517,2.906-2.193,5.718-4.511,8.594-6.744a25.282,25.282,0,0,0,7.578-9.383c.681-1.459,1.447-2.879,2.211-4.3.754-1.4,1.318-1.722,2.325-1.437A3.044,3.044,0,0,1-1861.862,4903.6Z" transform="translate(-38.806 -21.706)" fill="#000"/>
    <path id="Path_656" data-name="Path 656" d="M-1256.479,4931.266a115.278,115.278,0,0,0,.472,15.763,30.849,30.849,0,0,1-.016,5.016c-.105,2.013-.622,2.685-2.58,3.1-2.628.561-5.274,1.106-7.941,1.408-4.272.484-8.568.763-12.854,1.125a7.032,7.032,0,0,1-.718.018c-1.586-.03-2.045-.4-2.237-1.938-.141-1.125-.23-2.259-.292-3.393-.253-4.6-.427-9.2-.758-13.784a51.947,51.947,0,0,0-.912-5.294c-.4-2.249.315-3.578,2.51-4.27a81.4,81.4,0,0,0,22.767-11.17c1.585-1.124,2.984-.392,2.987,1.589,0,2.749-.14,5.5-.237,8.246C-1256.329,4928.878-1256.414,4930.07-1256.479,4931.266Zm-3.406-6.4c-1.332-.779-2.251-.171-3.164.41a44.613,44.613,0,0,1-12.376,5.558,15.9,15.9,0,0,0-3.063,1.442,2.489,2.489,0,0,0-1.391,2.672q.224,2.229.413,4.461c.346,4.106.64,8.218,1.042,12.32.187,1.911.79,2.361,2.664,2.38.417,0,.837-.006,1.254-.036q5.275-.379,10.548-.771a22.08,22.08,0,0,0,2.315-.262c1.3-.238,1.78-.756,1.793-2.054.01-.95-.182-1.9-.241-2.854a28.232,28.232,0,0,1-.216-5.164C-1259.545,4936.954-1259.889,4930.929-1259.885,4924.87Z" transform="translate(-192.61 -25.953)" fill="#000"/>
    <path id="Path_657" data-name="Path 657" d="M-1153.394,4958.917c-1.281-.149-2.335-.32-3.394-.388-3.76-.242-7.525-.417-11.283-.681-2.921-.2-5.837-.492-8.752-.764a9.012,9.012,0,0,1-1.58-.312c-1.268-.354-1.594-.651-1.633-1.993-.1-3.4-.224-6.815-.125-10.218.133-4.541.51-9.075.7-13.614a43.052,43.052,0,0,0-.747-11.6,4.235,4.235,0,0,1,3.108-4.588,2.7,2.7,0,0,1,1.783.558,105.1,105.1,0,0,1,19.8,19.155c.708.888,1.379,1.81,2.127,2.663a7.159,7.159,0,0,1,1.7,5.669c-.285,2.976-.574,5.951-.888,8.923C-1152.815,4954.045-1153.1,4956.358-1153.394,4958.917Zm-21.276-37.759a4.707,4.707,0,0,0-1.13,3.891,108.95,108.95,0,0,1-.16,15.208c-.268,3.451-.489,6.907-.693,10.361-.13,2.182.393,2.987,2.521,3.432a27.464,27.464,0,0,0,4.793.494,31.828,31.828,0,0,1,7.113.627c1.7.439,2.711-.228,2.964-1.943a63.832,63.832,0,0,1,2.491-10.432,3.441,3.441,0,0,0-.651-3.362,121.15,121.15,0,0,0-12.967-14.564C-1171.744,4923.623-1173.17,4922.454-1174.671,4921.158Z" transform="translate(-218.836 -25.305)" fill="#000"/>
    <path id="Path_658" data-name="Path 658" d="M-1105.047,4887.379a9.429,9.429,0,0,1-1.44-.47,37.9,37.9,0,0,1-4.8-2.73,52.254,52.254,0,0,1-12.411-13.055c-1.146-1.747-2.37-3.443-3.563-5.16a1.478,1.478,0,0,1,.022-2.1c.547-.553,1.425-.481,2.247.262a12.772,12.772,0,0,1,1.4,1.622c1.216,1.551,2.5,3.059,3.6,4.686a46.727,46.727,0,0,0,9.187,9.748,47.573,47.573,0,0,0,4.332,2.831c.8.52,1.6,1.03,2.354,1.613a1.232,1.232,0,0,1,.436,1.731A5.289,5.289,0,0,1-1105.047,4887.379Z" transform="translate(-232.077 -12.4)" fill="#000"/>
    <path id="Path_659" data-name="Path 659" d="M-1018.445,4893.68a6.479,6.479,0,0,1-4.409-1.738,83.115,83.115,0,0,1-6.242-6.143c-2.053-2.321-3.845-4.87-5.741-7.329a4.857,4.857,0,0,1-.643-1.068,1.312,1.312,0,0,1,.423-1.606,1.331,1.331,0,0,1,1.8-.151,6.692,6.692,0,0,1,1.149,1.117c1.6,1.932,3.2,3.86,4.752,5.832a21.8,21.8,0,0,0,8.362,6.851,16.091,16.091,0,0,1,1.994,1.194c.7.44,1.231.982.921,1.907a1.673,1.673,0,0,1-1.826,1.134C-1018.086,4893.678-1018.266,4893.68-1018.445,4893.68Z" transform="translate(-255.267 -15.387)" fill="#000"/>
    <path id="Path_660" data-name="Path 660" d="M-1722.086,4933.477a19.066,19.066,0,0,0-5.659,3.867,68.6,68.6,0,0,1-5.294,4.565,49.736,49.736,0,0,1-6.707,4.108,6.726,6.726,0,0,0-4.08,5.275,35.671,35.671,0,0,0-.513,5.344c.041,3.7.225,7.41.443,11.107.151,2.568.941,3.14,3.444,2.748,5.255-.827,10.5-1.7,15.769-2.467,1.694-.246,3.429-.206,5.243-.3a7.879,7.879,0,0,1-1.051,3.783,2.789,2.789,0,0,1-2.429,1.3c-2.256.271-4.511.582-6.776.739a46.331,46.331,0,0,0-13.666,2.686c-2.949,1.141-4.166.267-4.284-2.9-.116-3.1-.045-6.218-.1-9.325-.081-4.544-.2-9.086-.3-13.629-.017-.717-.05-1.435-.022-2.15a4.536,4.536,0,0,1,2.115-3.751q10.308-7,20.6-14.028c.986-.673,1.911-1.436,2.87-2.15a2.074,2.074,0,0,1,2.932-.13c.563.341,1.1.721,1.647,1.087a3.553,3.553,0,0,1,1.621,3.2c-.021,8.909-.013,17.818-.022,26.727,0,.836-.03,1.674-.1,2.509-.1,1.311-.647,1.971-1.6,2.023a1.822,1.822,0,0,1-1.932-1.742,78.311,78.311,0,0,1-.942-8.537c-.144-5.677-.034-11.359-.039-17.04C-1720.916,4935.326-1720.828,4934.205-1722.086,4933.477Z" transform="translate(-75.853 -28.547)" fill="#000"/>
    <path id="Path_661" data-name="Path 661" d="M-1681.176,5068.75a11.431,11.431,0,0,1-4.448,2.556,26.816,26.816,0,0,1-16.342.75c-1.723-.5-2.308-1.217-1.94-2.6a1.651,1.651,0,0,1,2.165-1.3,1.1,1.1,0,0,1,.171.053c5.548,2.265,11.1,1.585,16.653.026A4.11,4.11,0,0,1-1681.176,5068.75Z" transform="translate(-86.951 -63.899)" fill="#000"/>
    <path id="Path_662" data-name="Path 662" d="M-1677.27,5063.77a32.726,32.726,0,0,1-3.405-1.72,1.453,1.453,0,0,1-.316-2.09,1.469,1.469,0,0,1,1.961-.78c2.6,1.145,5.144.7,7.7-.132.171-.055.349-.086.518-.146.712-.253,1.427-.451,1.849.431.373.779-.176,1.19-.7,1.635a8.112,8.112,0,0,1-3.637,1.835C-1674.526,5063.065-1675.734,5063.392-1677.27,5063.77Z" transform="translate(-92.673 -61.551)" fill="#000"/>
    <path id="Path_663" data-name="Path 663" d="M-1666.35,5072.09a1.7,1.7,0,0,1-1.746-1.65,1.7,1.7,0,0,1,1.785-1.775,1.617,1.617,0,0,1,1.551,1.621A1.728,1.728,0,0,1-1666.35,5072.09Z" transform="translate(-95.994 -64.063)" fill="#000"/>
    <path id="Path_664" data-name="Path 664" d="M-1668.268,5053.793a1.6,1.6,0,0,1-1.573-1.6c0-.8.487-1.259,1.375-1.287a1.324,1.324,0,0,1,1.542,1.329A1.4,1.4,0,0,1-1668.268,5053.793Z" transform="translate(-95.556 -59.591)" fill="#000"/>
    <path id="Path_665" data-name="Path 665" d="M-1615.264,4955.218c-.289-.065-.456-.118-.626-.141-2.1-.289-2.908-.962-3-3.072a70.721,70.721,0,0,1-.026-9.131,63.278,63.278,0,0,0-.729-18.734c-.418-1.951-.057-2.68,1.682-3.668a11.793,11.793,0,0,1,1.776-.851,2.977,2.977,0,0,1,3,.538c2.821,2.1,5.652,4.21,8.6,6.122a22.367,22.367,0,0,0,10.888,3.228,10.858,10.858,0,0,1,4.586,1.4,3.333,3.333,0,0,1,1.875,3.2,174.517,174.517,0,0,1-1.822,24.474c-.285,1.864-.682,2.358-2.3,2.414-5.851.2-11.716.616-17.52-.584-1.052-.218-2.1-.464-3.13-.771C-1614.735,4958.83-1615.253,4958.124-1615.264,4955.218Zm.6-.406c1.669.346,3.267.577,4.806,1.016a98.083,98.083,0,0,0,15.681,2.83c2.091.243,2.627-.206,2.657-2.305q.061-4.209-.138-8.42a44.5,44.5,0,0,1,.388-9.471,16.728,16.728,0,0,0,.165-3.391,9.939,9.939,0,0,0-.519-2.037,31.361,31.361,0,0,1-13.861-3.145c-2.276-1.054-4.494-2.232-6.743-3.344-.4-.2-.831-.34-1.385-.562-.284,3.443-.679,6.7-.795,9.968-.219,6.141-.277,12.286-.395,18.43A1.725,1.725,0,0,0-1614.664,4954.812Z" transform="translate(-108.154 -26.482)" fill="#000"/>
    <path id="Path_666" data-name="Path 666" d="M-1542.874,5055.12a13.825,13.825,0,0,1-6.74,1.954,20.227,20.227,0,0,1-7.047-1,1.722,1.722,0,0,1-1.354-2.425c.323-1.032.963-1.33,2.277-.911a50.026,50.026,0,0,0,11.092,1.82c.574.049,1.145.125,1.718.189Z" transform="translate(-123.681 -60.006)" fill="#000"/>
    <path id="Path_667" data-name="Path 667" d="M-1539,5039.215a4.087,4.087,0,0,1-4.322,1.674,1.474,1.474,0,0,1-1.365-1.748c.109-.873.656-1.154,1.486-1.19C-1541.156,5037.863-1540.266,5038.093-1539,5039.215Z" transform="translate(-127.067 -56.325)" fill="#000"/>
    <path id="Path_668" data-name="Path 668" d="M-1540.378,5046.46c1.225.006,1.953.546,1.9,1.414a2.185,2.185,0,0,1-2.124,1.565,1.484,1.484,0,0,1-1.326-1.625A1.35,1.35,0,0,1-1540.378,5046.46Z" transform="translate(-127.766 -58.472)" fill="#000"/>
  </g>
</svg>
