<svg xmlns="http://www.w3.org/2000/svg" viewBox="0 0 626.104 317.344">
          <g id="Group_60" data-name="Group 60" transform="matrix(1, 0.017, -0.017, 1, -3301.229, -1754.192)">
            <path id="Path_475" data-name="Path 475"
              d="M3475.246,1696.216c.27.108.533.237.812.319,8.76,2.565,17.531,5.094,26.28,7.7a27.813,27.813,0,0,1,10.722,5.642c.409.362.788.761,1.214,1.1a2.062,2.062,0,0,0,2.491.119,1.622,1.622,0,0,0,.737-2.052,2.769,2.769,0,0,1,1.424-3.279,12.479,12.479,0,0,1,4.94-1.986c4.555-.71,8.795-2.41,13.04-4.078a18.607,18.607,0,0,1,5.469-1.324c1.435-.106,2.875-.183,4.313-.188,4.1-.015,7.52,4.63,6.091,8.486a13.405,13.405,0,0,1-2.76,4.71,23.941,23.941,0,0,0-6.107,10.914c-2.073,7.761-5.423,15.029-8.741,22.289-2.557,5.593-5.476,11.026-8.349,16.468a5.2,5.2,0,0,0,.145,5.6c.995,1.654,1.849,3.4,2.676,5.144,1.338,2.824,2.577,5.694,3.9,8.523,1.769,3.774,3.582,7.527,5.376,11.288.342.715.66,1.443,1.035,2.14,1.27,2.36,2.659,4.661,3.828,7.07a185.154,185.154,0,0,0,15.969,27.021,124.948,124.948,0,0,1,7.829,11.955,20.693,20.693,0,0,0,2.823,3.427,6.945,6.945,0,0,0,1.216.872,3.561,3.561,0,0,0-.268-2.6,69.08,69.08,0,0,1-2.677-15.521,40.9,40.9,0,0,1,2.812-17.359,29.151,29.151,0,0,0,1.161-3.376,49.285,49.285,0,0,1,7.19-15.12,123.525,123.525,0,0,1,12.279-14.555,30.932,30.932,0,0,1,9.762-6.929c8.508-3.961,17.5-5.3,26.8-5.165a48.879,48.879,0,0,1,22.013,5.577,86.924,86.924,0,0,1,29.184,24.288,61.117,61.117,0,0,1,12.8,35.264c.225,4.562.23,9.135.332,13.7.067,3.027.2,6.055.171,9.082-.028,3.525-.2,7.049-.3,10.574-.058,2.184-.109,4.37-.112,6.555,0,1.141.613,1.491,1.646,1a3.283,3.283,0,0,0,.725-.514,74.468,74.468,0,0,1,14.3-9.63c6.671-3.533,13.491-4.35,20.009.628.079.06.166.109.25.163a4.09,4.09,0,0,1,1.969,3.479c.117,3.522.335,7.047.3,10.568a26.424,26.424,0,0,1-3.071,12.312,19.807,19.807,0,0,0-.951,2.181,1.286,1.286,0,0,0,.172,1.524c.437.424.9.215,1.387.068,3.417-1.034,6.831-2.078,10.26-3.067a22.233,22.233,0,0,1,15,1.046c3.487,1.43,6.986,2.84,10.532,4.111a51.674,51.674,0,0,1,11.368,5.47,35.354,35.354,0,0,0,4.146,1.98,6.468,6.468,0,0,1,1.624,1c3.823,3.617,7.639,7.242,11.411,10.912,9.45,9.2,16.249,20,19.6,32.831a35.35,35.35,0,0,1,1.551,8.163c.112,7.047-.163,14.1-.324,21.152a4.054,4.054,0,0,1-.519,1.977c-1.288,2.062-2.672,4.064-4.041,6.074a3.662,3.662,0,0,1-2.173,1.446c-1.572.443-3.105,1.023-4.647,1.568-2.009.71-3.977,1.563-6.024,2.137a35.63,35.63,0,0,1-10.776,1.128q-10.267-.331-20.521-1.007c-4.3-.286-8.586-.871-12.877-1.335-5.377-.581-10.763-1.1-16.128-1.787-5.016-.645-9.995-1.581-15.014-2.2-6.056-.75-12.134-1.336-18.209-1.931-6.026-.59-12.058-1.112-18.088-1.646-7.464-.662-14.9-1.658-22.4-1.832a207.424,207.424,0,0,0-24.7.531c-5.829.56-11.668,1.013-17.505,1.486-2.274.184-4.57.171-6.83.456-5.759.728-11.493,1.666-17.258,2.342a105.979,105.979,0,0,0-13.375,2.081c-13.767,3.431-27.528,6.885-41.256,10.471-11.135,2.909-22.194,6.08-33.56,8.06-7.094,1.235-14.179,2.432-21.364,2.969-1.178.088-2.35.259-3.526.391h-20.553c-1.621-.171-3.24-.362-4.863-.51a60.426,60.426,0,0,1-30.973-11.51c-4.115-3.027-8.253-6.023-12.326-9.106a11.514,11.514,0,0,1-2.294-2.508q-1.9-2.66-3.615-5.457a3.451,3.451,0,0,0-3.312-1.759c-2.861-.009-5.6.736-8.392,1.106-3.733.5-7.462,1.052-11.165,1.729-1.842.337-3.621,1.013-5.435,1.516a19.667,19.667,0,0,1-3.163.786,65.159,65.159,0,0,0-12.755,2.839c-4.232,1.322-8.633,1.81-12.91,2.873-3.413.848-6.8,1.8-10.2,2.7q-1.434.376-2.892.661a2.125,2.125,0,0,1-2.3-.941v-.894a9.438,9.438,0,0,1,1.526-.847,31.625,31.625,0,0,1,3.293-.928c5.858-1.306,11.736-2.525,17.579-3.891,4.926-1.152,9.787-2.587,14.726-3.671,4.164-.914,8.4-1.509,12.421-2.994a4.058,4.058,0,0,1,.867-.2c3.688-.491,7.376-.969,11.064-1.459,2.016-.268,4.04-.5,6.042-.849,1.486-.26,1.889-1.044,1.461-2.477-.057-.189-.132-.374-.208-.558a36.733,36.733,0,0,1-2.691-12.9c-.114-3.423-.1-6.854-.345-10.268a38.21,38.21,0,0,1,3.167-18.453c2.729-6.172,5.622-12.272,8.4-18.422a70.315,70.315,0,0,1,11.737-17.85c3.236-3.634,6.545-7.208,9.644-10.955a30.136,30.136,0,0,1,6.229-5.7c.491-.337.972-.689,1.466-1.021a40.452,40.452,0,0,1,14.035-6.312,90.335,90.335,0,0,1,24.121-1.93q7.872.434,15.717,1.343a76.511,76.511,0,0,1,20.448,5.083,43.348,43.348,0,0,0,5.1,1.622,1.735,1.735,0,0,0,1.345-.305c.477-.385.144-.909-.144-1.327a16.365,16.365,0,0,1-2.3-5.776q-.4-1.741-.76-3.492a5.754,5.754,0,0,1,2.825-6.616,16.948,16.948,0,0,1,10.2-2.656c1.089.076,2.18.16,3.26.311,6.332.885,12.717,1.537,18.66,4.164.555.245,1.049.291,1.421-.346-.474-2.62-.942-5.256-1.433-7.888a4.055,4.055,0,0,1,.57-3.128,3.645,3.645,0,0,0,.37-3.291,26.27,26.27,0,0,0-1-2.484c-1.678-3.653-3.464-7.259-5.052-10.951a373.857,373.857,0,0,0-16.753-34.554c-2.467-4.42-4.866-8.88-7.427-13.245a50.229,50.229,0,0,0-3.828-5.31c-.795-1.022-1.607-.933-2.2.207a14.154,14.154,0,0,0-.992,2.637c-.566,1.953-1.037,3.932-1.606,5.883-.708,2.429-1.6,4.812-2.192,7.267-1.677,6.945-3.216,13.925-4.863,20.877a56.481,56.481,0,0,0-1.448,9.707,3.215,3.215,0,0,0,.768,2.618c1.023,1.075,1.024,1.156.082,2.352a2.305,2.305,0,0,0-.286,2.637c.237.49.588.928.8,1.426a37.618,37.618,0,0,1,1.638,4.131c.385,1.317-.349,2-1.695,1.749a9.994,9.994,0,0,1-1.123-.382c-.917-.286-1.282-.108-1.569.8-.135.424-.192.872-.312,1.3a1.861,1.861,0,0,1-1.192,1.425,15.493,15.493,0,0,1-.427-2.512c-.009-1.933.1-3.867.169-5.8.076-2.017-.381-2.75-2.238-3.528-1.078-.451-1.145-.671-.49-1.586s.67-1.048-.041-1.938c-.961-1.2-1.932-2.4-2.941-3.56-2.542-2.921-5.008-5.914-7.682-8.707q-8.7-9.092-17.593-18c-6.509-6.55-13.1-13.018-19.643-19.534a2.958,2.958,0,0,0-3.076-.876,12.592,12.592,0,0,1-3.822.167c-1.527-.123-3.032-.5-4.554-.721a6.944,6.944,0,0,1-6.265-6.67,10.535,10.535,0,0,1,1.44-6.577c1.624-2.613,3.362-5.158,4.941-7.8,3.02-5.046,7.338-8.675,12.315-11.639a2.973,2.973,0,0,1,3.341,0c1.058.641,1.189,1.219.414,2.15-.284.341-.626.636-.946.949q-6.645,6.519-13.29,13.039a14.373,14.373,0,0,0-3.9,7.077,5.459,5.459,0,0,0,5.481,6.786,56.084,56.084,0,0,0,20.771-4.02,192.159,192.159,0,0,0,27.669-13.824c2.949-1.738,5.891-3.5,8.729-5.411,4.366-2.939,8.077-6.687,12.042-10.118,1.912-1.655,3.668-3.489,5.5-5.24q10.551-10.087,21.111-20.165a11.281,11.281,0,0,0,3.718-8.764c-.049-2.391-1.406-3.459-3.695-2.925-.241.057-.486.106-.723.178a102.338,102.338,0,0,0-20.484,8.384c-.365.2-.7.466-1.018.681.066.164.072.221.1.251a3.04,3.04,0,0,0,.338.288,3.879,3.879,0,0,1,1.566,4.465,17.1,17.1,0,0,1-2.264,5.636c-.891,1.315-1.712,2.677-2.593,4a28.922,28.922,0,0,1-6.234,6.959c-.428.332-.767.774-1.168,1.143a11.945,11.945,0,0,1-1.555,1.351q-4.505,2.9-9.056,5.728c-1.306.813-2.627,1.606-3.983,2.33-6.435,3.435-12.894,6.827-19.326,10.268a35.561,35.561,0,0,1-11.4,3.718,13.452,13.452,0,0,1-5.74-.477,4.023,4.023,0,0,1-2.631-2.256,1.816,1.816,0,0,1,2.8-2.256,10.809,10.809,0,0,1,1.059,1.044,3.625,3.625,0,0,0,3.074,1.2,14.849,14.849,0,0,0,1.767-.24,51.577,51.577,0,0,0,10.421-3.5c8.456-3.695,16.117-8.78,23.79-13.813,3.923-2.574,7.595-5.537,11.322-8.4a19.389,19.389,0,0,0,3.076-3.012c1.169-1.41,2.139-2.983,3.253-4.442a11.44,11.44,0,0,0,1.871-5.732,1.242,1.242,0,0,0-1.529-1.476,4.811,4.811,0,0,0-1.769.973,1.681,1.681,0,0,1-2.288.232c-.423-.248-.774-.617-1.185-.892-.474-.319-.978-.594-1.5-.906-.442.477-.775.839-1.11,1.2-1.792,1.925-3.49,3.95-5.4,5.755a70.126,70.126,0,0,1-20.643,13.375c-5.1,2.2-10.339,4.063-15.517,6.076-1.746.679-2.057,1.13-2.055,2.984,0,1.639.042,3.28-.017,4.916-.013.38-.281.974-.565,1.068a2,2,0,0,1-1.376-.224,1.676,1.676,0,0,1-.706-.913,10.636,10.636,0,0,1-.6-2.435c-.225-2.721-.428-5.448-.514-8.176-.1-3.12-.24-6.256-.047-9.365.264-4.257.883-8.49,1.245-12.743a49.9,49.9,0,0,1,2.35-11.948,7.972,7.972,0,0,1,5.949-5.682,2.741,2.741,0,0,0,.529-.248Zm100.58,162.512a36.5,36.5,0,0,0-3.022-4.048c-2.109-2.162-4.373-4.178-6.634-6.186a8.323,8.323,0,0,0-2.192-1.239,3.791,3.791,0,0,0-4.049.611,3.368,3.368,0,0,0-1.235,3.583,32.516,32.516,0,0,0,3.438,10.254,22.721,22.721,0,0,1,1.541,4.006c.165.493.261,1.137-.329,1.477a1.516,1.516,0,0,1-1.688-.118,9.5,9.5,0,0,1-.832-.625,41.39,41.39,0,0,0-17.741-9.025c-2.119-.507-4.254-.987-6.406-1.309a13.189,13.189,0,0,0-8.1,1.309,6.817,6.817,0,0,0-4.007,7.163,13.174,13.174,0,0,0,1.755,5.634c1.228,2.156,2.442,4.322,3.582,6.526a10.406,10.406,0,0,1,.9,2.662c.162.784-.315,1.139-1.067.832a8.309,8.309,0,0,1-2.075-1.136,19.865,19.865,0,0,0-7.125-3.609c-8.493-2.426-17.043-4.637-25.731-6.247a51.04,51.04,0,0,0-18.8-.459,52.49,52.49,0,0,0-7.723,2.142,33.026,33.026,0,0,1-7.171,1.9,34.535,34.535,0,0,0-12.987,4.507,72.043,72.043,0,0,0-26.936,26.157c-3.066,5.1-5.889,10.352-8.72,15.59a34.393,34.393,0,0,0-3.232,10.028c-1.008,5.264-2,10.532-2.9,15.815a25.576,25.576,0,0,0,.226,9.479c.39,1.9.817,3.784,1.212,5.678a47.65,47.65,0,0,0,6.034,14.346c1.558,2.651,3.284,5.2,4.959,7.786a13.428,13.428,0,0,0,3.893,3.848,85.581,85.581,0,0,0,33.979,13.681,74.421,74.421,0,0,0,21.951.366,20.157,20.157,0,0,1,3.559-.23,84.059,84.059,0,0,0,15.708-1.252c4.224-.6,8.477-1.062,12.655-1.9,5.006-1,9.941-2.354,14.915-3.515,16.2-3.779,32.037-8.828,47.932-13.669a131.494,131.494,0,0,1,19.347-4.08c2.993-.438,5.953-1.15,8.957-1.453,4.292-.433,8.607-.689,12.918-.873,8.132-.346,16.269-.6,24.405-.866q6.251-.208,12.5-.345a159.631,159.631,0,0,1,20.644,1.207c3.991.435,8.027.453,12.027.834,5.974.569,11.953,1.149,17.9,1.982,9.432,1.322,18.828,2.9,28.253,4.288,7.656,1.124,15.32,2.228,23,3.136,5.121.6,10.282.9,15.431,1.245a176.3,176.3,0,0,0,19.346.348c4.584-.192,9.118-.684,13.334-2.677,1.476-.7,2.891-1.529,4.321-2.324a3.741,3.741,0,0,0,1.992-3.125c.5-5.786,1.1-11.566,1.483-17.36a41.633,41.633,0,0,0-2.725-16.495,89.443,89.443,0,0,0-21.171-34.3,53.448,53.448,0,0,0-17.153-11.613,80.054,80.054,0,0,0-18.868-5.8,29.191,29.191,0,0,0-15.389,1.3,25.445,25.445,0,0,0-9.156,6.236c-1.307,1.36-2.566,2.766-3.847,4.15-.27.292-.528.6-.814.869-.443.423-.937.851-1.56.384a1.26,1.26,0,0,1-.336-1.612,74.207,74.207,0,0,1,4.62-10.476,50.469,50.469,0,0,0,5.771-13.988,21.669,21.669,0,0,0-.883-13.591,13.647,13.647,0,0,0-.912-1.871,4.774,4.774,0,0,0-4.69-2.584,20.111,20.111,0,0,0-5.236.99c-3.988,1.506-7.9,3.214-11.808,4.932a34.106,34.106,0,0,0-11.171,8.274,41.02,41.02,0,0,1-3.386,3.114,1.921,1.921,0,0,1-1.951.41c-.738-.255-1.2-.79-.9-1.459,1.428-3.175.7-6.577,1.128-9.854.993-7.647.786-15.367,1.247-23.048.077-1.288.182-2.575.257-3.864a54.185,54.185,0,0,0-.873-11.265,88.78,88.78,0,0,0-5.584-20.8,47.241,47.241,0,0,0-13.322-18.4q-5.35-4.512-10.856-8.838a51.511,51.511,0,0,0-25.881-10.894c-9.2-1.12-18.23-.552-26.909,3.047a40.411,40.411,0,0,0-13.5,9.078c-1.913,1.948-3.857,3.875-5.637,5.942a39.454,39.454,0,0,0-4.076,5.479,58.135,58.135,0,0,0-7.872,20.756,49.17,49.17,0,0,0-.644,6.068c-.22,7.152-.238,14.3,1.426,21.329.479,2.026.7,4.115,1.216,6.132.61,2.4,1.323,4.781,2.147,7.115a4.577,4.577,0,0,1-.311,4.128c-.429.72-.837,1.452-1.3,2.255A3.856,3.856,0,0,1,3575.825,1858.728Zm-116.4-83.033c6.555,7.267,13.572,14.067,20.786,20.674,4.5,4.121,8.857,8.4,13.267,12.62a48.983,48.983,0,0,1,5.836,6.936c1.588,2.213,3.4,4.267,5.112,6.388a2.611,2.611,0,0,0,.313.317c1.091.961,1.656.842,2.146-.55a8.941,8.941,0,0,0,.515-2.312,175,175,0,0,1,4.934-29.019,79.6,79.6,0,0,1,5.854-16.52,5.5,5.5,0,0,0-.521-6.247c-2.267-3.073-4.439-6.22-6.54-9.41-1.115-1.692-1.994-3.539-2.976-5.319-.191-.347-.337-.722-.549-1.055a1.616,1.616,0,0,0-2.391-.738,12.141,12.141,0,0,0-1.448.76c-2.994,1.761-6.027,3.458-8.96,5.314-5.978,3.782-12.422,6.621-18.808,9.593-5.1,2.371-10.423,4.11-15.709,5.964-.74.26-1.476.531-2.466.89C3458.484,1774.686,3458.965,1775.182,3459.428,1775.694Zm9.011-45.38a48.831,48.831,0,0,0,10.607-4.994,145.8,145.8,0,0,0,20.042-14.4,14.472,14.472,0,0,0,2.055-2.137c.642-.829.461-1.442-.508-1.892a14.229,14.229,0,0,0-2.91-1.11c-6.555-1.423-12.887-3.6-19.284-5.565a23.081,23.081,0,0,0-4.781-1c-2.192-.185-2.806.424-3.193,2.6-1.007,5.665-1.869,11.361-3.054,16.988a49.1,49.1,0,0,0-.808,11.1c0,.244.052.487.1.888C3467.321,1730.627,3467.884,1730.484,3468.438,1730.315Zm58.517,24.06c2-5.038,4.692-9.731,7.023-14.6,2.094-4.378,3.949-8.871,5.893-13.322.346-.793.307-.81.071-1.89-1.012-.093-1.6.606-2.247,1.207-3.008,2.808-5.929,5.717-9.052,8.391-3.688,3.158-7.551,6.111-11.339,9.152-.27.217-.575.4-.827.63a2.115,2.115,0,0,0-.61,2.557c.233.547.471,1.094.741,1.623a65.7,65.7,0,0,0,6.175,9.8c.358.471.758.91,1.339,1.6A47.092,47.092,0,0,0,3526.955,1754.374Zm36.015,86.709q-9.757-17.915-19.527-35.822c-5.612-10.235-10.558-20.8-15.5-31.361-.714-1.527-1.49-3.029-2.315-4.5-.239-.425-.787-1.011-1.124-.969a2.177,2.177,0,0,0-1.326,1,3.184,3.184,0,0,0-.187,3.005,6.745,6.745,0,0,0,.654,1.167c5.8,8.448,10.587,17.478,15.4,26.5,4.214,7.894,7.784,16.074,11.44,24.223,2.6,5.8,5.38,11.509,8.057,17.27.6,1.292,1.436,2.135,2.9,1.981C3563.713,1843.488,3564.008,1842.99,3562.97,1841.084Zm-41.37-75.415a3.415,3.415,0,0,0,.389-3.394,10.857,10.857,0,0,0-.633-1.34q-3.426-5.916-6.873-11.816c-1.319-2.249-2.349-2.4-4.341-.7a1.618,1.618,0,0,0-.451,2.47q4.827,8.193,9.712,16.352c.07.119.214.194.455.4A22.56,22.56,0,0,0,3521.6,1765.669Zm-29.294-45.83c-1.325.906-1.386,1.367-.5,2.643a5.322,5.322,0,0,1,.575,1.173c.383,1.017.981,1.271,1.953.8a.923.923,0,0,0,.127-.077c2.5-1.783,5-3.559,7.49-5.356a1.657,1.657,0,0,0,.624-1.718,3.31,3.31,0,0,0-2.342-2.842C3497.545,1716.282,3494.919,1718.052,3492.306,1719.839Zm-4.46,7.641a2.728,2.728,0,0,0,.479-1.8c0-1.339-.87-1.862-2.061-1.262-1.72.867-3.4,1.807-5.105,2.71-.645.342-1.185.768-1.115,1.585s.733,1.118,1.394,1.362c.368.137.756.22,1.276.367A17.687,17.687,0,0,0,3487.846,1727.48Zm-12.928,3.574q-2.41.745-4.816,1.5c-.188.059-.38.113-.562.189-.931.39-1.314,1-1.054,1.671a1.307,1.307,0,0,0,1.755.647c1.991-.586,3.978-1.2,5.943-1.866.97-.331,1.246-.919.987-1.687a.944.944,0,0,0-1.11-.766C3475.679,1730.847,3475.295,1730.938,3474.917,1731.055Zm28.422-18.948c-.435-.226-.852-.045-.879.381a3.926,3.926,0,0,0,2.122,2.835A2.873,2.873,0,0,0,3503.339,1712.106Z"
              transform="translate(0 0)" fill="#000" />
            <path id="Path_476" data-name="Path 476"
              d="M4125.607,2014.259c-2.928,0-5.857-.027-8.784.013-1.139.016-2.272.2-3.411.273-1.427.092-1.767-.179-1.958-1.588a16.216,16.216,0,0,0-2.484-6.645,117.4,117.4,0,0,0-12.592-16.771,49.169,49.169,0,0,0-7.648-6.607c-2.753-1.95-5.4-4.046-8.093-6.083-.437-.331-.918-.674-.705-1.336s.809-.663,1.346-.722c1.529-.168,3.064-.28,4.589-.483,1.916-.255,3.844-.48,5.729-.89a21.013,21.013,0,0,0,12.209-7.721,32.272,32.272,0,0,0,4.676-8.266,8.924,8.924,0,0,0,.566-4.1,61.046,61.046,0,0,0-3.176-16.469c-.815-2.179-1.84-4.281-2.8-6.4-.8-1.762-1.737-3.466-2.436-5.264a55.358,55.358,0,0,0-13.674-20,19.921,19.921,0,0,1-2.464-2.949,14.093,14.093,0,0,0-4.385-4.185c-6.685-3.917-13.473-7.647-20.837-10.159a27.155,27.155,0,0,0-5.509-1.193c-2.9-.348-5.832-.48-8.75-.706a5.293,5.293,0,0,1-.738-.083c-1.187-.264-1.573-.967-1.076-2.075.345-.767.789-1.491,1.19-2.233,1.278-2.363,1.175-3.307-.567-5.37a15.02,15.02,0,0,0-10.366-5.254c-3.6-.357-7.228-.382-10.847-.454a26.168,26.168,0,0,0-3.541.415c-1.32.156-1.834-.172-1.791-1.486a61.026,61.026,0,0,1,.517-6.37c.339-2.456.993-4.871,1.282-7.33.866-7.373-1.674-13.493-7.232-18.315a41.738,41.738,0,0,0-17.356-8.829c-1.966-.5-3.934-1.027-5.847-1.7a38.936,38.936,0,0,0-33.175,2.853c-2.205,1.24-4.363,2.567-6.524,3.884a6.686,6.686,0,0,0-1.386,1.112,92.515,92.515,0,0,0-15.086,20.784,37.262,37.262,0,0,0-4.206,18.822,11.647,11.647,0,0,0,.493,2.771,1.482,1.482,0,0,0,1.651,1.2c.839-.132,1.1-.739,1.189-1.49.253-2.22.581-4.433.758-6.658.989-12.357,6.941-21.716,17.111-28.567a89.235,89.235,0,0,1,16.292-8.284c1.193-.488,2.391-.968,3.587-1.45a18.658,18.658,0,0,1,11.973-.7,90.831,90.831,0,0,1,14.214,5.282c2.263,1.016,4.5,2.1,6.763,3.106a13.818,13.818,0,0,1,5.25,4.057,31.011,31.011,0,0,1,4.51,7.334,15.387,15.387,0,0,1,1.19,5.347c.157,3.569.333,7.139.573,10.7a20.7,20.7,0,0,1-.473,6.358,8.434,8.434,0,0,0-.2,1.02,1.836,1.836,0,0,0,.775,1.82c.64.456,1.216.169,1.8-.158a21.683,21.683,0,0,1,7.418-2.548,27.379,27.379,0,0,1,10.911.81,38.7,38.7,0,0,1,3.844,1.164q2.849,1.047,1.79,3.9c-.621,1.675-1.383,3.3-1.977,4.981a7.041,7.041,0,0,0-.465,2.6,2.292,2.292,0,0,0,2.88,2.36,46.879,46.879,0,0,1,22.238,2.791,43.7,43.7,0,0,1,7.435,3.719,108.612,108.612,0,0,1,13.179,9.7,48.61,48.61,0,0,1,11.125,13.489c2.386,4.235,4.625,8.557,6.857,12.877a41.487,41.487,0,0,1,4.225,14.807c.2,1.827.454,3.646.673,5.469a11.526,11.526,0,0,1-.515,5.148,17.664,17.664,0,0,1-9.889,11.1,49.974,49.974,0,0,1-15.379,3.866c-1.722.162-3.435.458-5.137.773-.838.155-1.69.485-1.772,1.53a2.279,2.279,0,0,0,1.258,2.188c3.266,2.076,6.614,4.046,9.731,6.329a76.513,76.513,0,0,1,20.127,21.105,29.048,29.048,0,0,1,3.689,9.207,10.821,10.821,0,0,1-.907,7.388,27.777,27.777,0,0,1-4.754,6.993,18.044,18.044,0,0,1-8.518,4.932,34.211,34.211,0,0,1-15.917.212,93.9,93.9,0,0,1-16.614-4.566c-4.63-1.862-9.563-2.591-14.478-3.3a2.8,2.8,0,0,0-.594-.012c-1.057.072-1.522.364-1.615,1a1.993,1.993,0,0,0,1.291,2.119,2.957,2.957,0,0,0,1.029.118,27.367,27.367,0,0,1,11.35,2,96.856,96.856,0,0,0,10.338,3.3,36.078,36.078,0,0,1,4.147,1.6,4.777,4.777,0,0,0,1.25.418c4.2.356,8.4.756,12.614.994a28.788,28.788,0,0,0,14.051-2.618c6.412-3,10.188-7.872,10.819-15.032.131-1.494.709-2.023,2.2-2.035,7.3-.058,14.594-.158,21.89-.108,2.12.014,4.232.5,6.354.722,4.688.484,9.389.868,14.069,1.415a142.234,142.234,0,0,1,22.736,4.577c1.043.3,2.133.435,3.2.639a.973.973,0,0,0,1.241-.778c.156-.673-.295-.966-.888-1.13-9.465-2.618-18.877-5.418-28.782-6.023-5.044-.308-10.059-1.106-15.09-1.643-1.676-.179-3.362-.3-5.046-.339-2.58-.055-5.162-.014-7.744-.014Z"
              transform="translate(-224.258 -48.631)" fill="#000" />
            <path id="Path_477" data-name="Path 477"
              d="M3993.25,1889.591c-.5-2.294-.936-4.477-1.457-6.639a16.716,16.716,0,0,0-1.11-3.528c-2.087-4.206-5.71-5.3-9.789-3.005a18.5,18.5,0,0,0-6.98,6.758,27.7,27.7,0,0,0-4.134,12.609,3.783,3.783,0,0,1-1.784,3.251,2.64,2.64,0,0,0-1.2,2.266c-.049.691-.127,1.381-.232,2.066a2.547,2.547,0,0,1-2.037,2.274,10.1,10.1,0,0,0-4.937,3.179c-1.562,1.731-1.593,3.107-.134,4.881a23.149,23.149,0,0,0,1.9,2.289,11.657,11.657,0,0,0,2.5,1.8,1.3,1.3,0,0,0,1.839-.437,1.391,1.391,0,0,0-.246-1.887c-.764-.847-1.548-1.681-2.377-2.465-1.412-1.337-.956-2.85.864-3.558a8.284,8.284,0,0,1,3.957-.384,15.292,15.292,0,0,0,2.072.15,1.39,1.39,0,0,0,1.53-1.6,7.248,7.248,0,0,0-.367-1.883c-.39-1.3-.375-1.448.867-1.824a3.106,3.106,0,0,0,2.258-2.685c.428-2.494.857-4.99,1.166-7.5a25.915,25.915,0,0,1,4.884-12.16,8.12,8.12,0,0,1,1.411-1.524,4.022,4.022,0,0,1,6.169,1.034,7.369,7.369,0,0,1,.714,6.589c-.875,2.365-2,4.639-3.04,6.942-.264.585-.653,1.115-.927,1.7-.6,1.275-.39,2.236.593,2.882a2.468,2.468,0,0,0,3.334-.381c1.3-1.36,2.623-2.706,4.005-3.982a6.162,6.162,0,0,1,5.7-1.411,3.6,3.6,0,0,1,3.107,3.908,19.264,19.264,0,0,1-3.72,11.117,7.463,7.463,0,0,1-4.513,2.931,5.543,5.543,0,0,0-1.277.388c-.9.441-1.077,1.275-.312,1.9,1.363,1.12,2.858,2,4.756,1.625,1.314-.257,2.641-.454,3.947-.748a7.523,7.523,0,0,1,6.452,1.463,19,19,0,0,1,1.673,1.476c2.062,1.973,2.265,4.318,1.26,6.841-.644,1.616-2.135,2.106-3.65,2.5a11.274,11.274,0,0,0-1.443.329,1.208,1.208,0,0,0-.43,2.2,2.125,2.125,0,0,0,2.026.673,11.764,11.764,0,0,0,5.234-2.372,5.835,5.835,0,0,0,2.213-4.079,17.8,17.8,0,0,0-1-7.469c-1.263-3.526-3.913-5.087-7.5-5.331-.644-.044-1.294,0-1.934-.069-1.167-.133-1.492-.683-.944-1.721.719-1.359,1.547-2.659,2.3-4a13.794,13.794,0,0,0,1.825-8.3,28.4,28.4,0,0,0-.837-4.378c-.6-2.265-1.66-3.1-4.022-3.273a27.58,27.58,0,0,0-6.969.39C3994.173,1889.464,3993.833,1889.5,3993.25,1889.591Z"
              transform="translate(-235.687 -67.874)" fill="#000" />
            <path id="Path_478" data-name="Path 478"
              d="M4103.107,2024.631c2.6-1.382,5.21-2.4,7.433-4.075a8.1,8.1,0,0,0,.676-12.7c-1.22-1.164-2.569-2.193-3.788-3.358-1.177-1.124-2.262-2.343-3.464-3.6.89-1.068,1.672-2.015,2.462-2.956a18.614,18.614,0,0,0,3.19-4.824c2.434-5.938-.593-12.214-7.707-13.691a6.725,6.725,0,0,0-4.508.587c-2.723,1.422-5.443,2.87-8.04,4.5a21.849,21.849,0,0,0-3.536,3.165c-1.25,1.244-1.582,1.369-3.048.423a2.071,2.071,0,0,0-2.731.213c-1.752,1.591-2.36,1.361-3.99.166a8.9,8.9,0,0,0-4.985-1.254,32.4,32.4,0,0,1-3.528-.4c-1.314-.212-1.473-.132-1.966,1.1a6.484,6.484,0,0,1-.916,1.685c-3.176,3.913-3.867,8.388-3.008,13.2a36.816,36.816,0,0,0,.987,4.046c.362,1.206.862,1.372,2.011.818a3.566,3.566,0,0,0,2.26-3.523q-.1-4.021-.143-8.043a12.433,12.433,0,0,1,.151-2.521,3.4,3.4,0,0,1,5.691-2.074,14.578,14.578,0,0,1,2.682,3.156,6.117,6.117,0,0,0,3.536,2.766c.762.216,1.494.537,2.248.782,1.741.565,2.345.357,3.383-1.182.388-.575.713-1.193,1.082-1.781,1.318-2.1,2.541-4.274,3.988-6.284a11.421,11.421,0,0,1,8.831-5.123c2.872-.165,5.435.978,7.916,2.274a2.146,2.146,0,0,1,1.121,1.832,7.272,7.272,0,0,1-.045,2.22c-1.063,4.335-3.626,7.324-8.006,8.555-1.287.362-2.611.595-3.922.868-.68.142-1.258.372-1.253,1.2a1.6,1.6,0,0,0,1.24,1.483c2.345.8,4.715,1.526,7.027,2.411a12.181,12.181,0,0,1,6.2,5.563,6.817,6.817,0,0,1,.6,5.607,5.39,5.39,0,0,1-3.7,3.759c-1.04.333-2.075.675-3.111,1.016a.914.914,0,0,0-.628,1.4C4102.174,2022.879,4102.625,2023.688,4103.107,2024.631Z"
              transform="translate(-274.712 -107.315)" fill="#000" />
            <path id="Path_479" data-name="Path 479"
              d="M3756.28,2038.455a8.584,8.584,0,0,1,8.143-2.613,35.249,35.249,0,0,1,6.28,1.812,9.572,9.572,0,0,1,6.245,6.878c.334,1.244.554,2.518.836,3.777a8.974,8.974,0,0,0,3.528,5.526,13.129,13.129,0,0,1,4.944,7.561,7.9,7.9,0,0,1-4.249,9.1,6.339,6.339,0,0,1-1.989.548,1.411,1.411,0,0,1-1.454-1.23c-.1-.744.362-1.063.985-1.267a14.522,14.522,0,0,0,1.531-.57,4.218,4.218,0,0,0,2.278-2.439,7.045,7.045,0,0,0-1.571-7.442,10.034,10.034,0,0,0-4.246-2.368,13.813,13.813,0,0,1-2.515-.9,1.724,1.724,0,0,1-.852-2.5c.134-.319.316-.619.469-.93a4.551,4.551,0,0,0-.148-4.558,14.013,14.013,0,0,0-1.787-2.369,17.749,17.749,0,0,0-8.408-4.843,4.106,4.106,0,0,0-4.964,1.712,53.048,53.048,0,0,0-3.126,5.048c-1.163,2.134-1.868,2.239-3.385.291-1.646-2.115-3.235-4.279-4.947-6.34a29.23,29.23,0,0,0-3.427-3.506,7.192,7.192,0,0,0-6.667-1.678,34.3,34.3,0,0,0-5.086,1.627,8.209,8.209,0,0,0-4.077,3.983,6.48,6.48,0,0,0-.628,4.756c.444,1.678.808,3.379,1.28,5.049a15.319,15.319,0,0,0,2.9,5.656c1.418,1.72,2.817,3.455,4.243,5.168a1.386,1.386,0,0,1-.475,2.4,3.563,3.563,0,0,1-1.136.3,5.327,5.327,0,0,0-4.383,7.341c.217.554.459,1.1.654,1.662.516,1.484.334,1.888-1.137,2.514-.593.252-1.213.441-1.809.687-1.192.492-2.413.929-3.552,1.524a4.613,4.613,0,0,0-2.43,4.457,3.649,3.649,0,0,0,2.3,3.659,1.756,1.756,0,0,1,.98,1.008,3.228,3.228,0,0,1-.322,1.8c-.1.206-.814.287-1.17.174-5.029-1.588-6.572-8.606-2.687-12.157.586-.536,1.242-.994,1.819-1.538a1.464,1.464,0,0,0-.084-2.416,1.8,1.8,0,0,0-1.672-.267c-1.71.269-3.429.5-5.152.668-1.135.11-2.282.07-3.422.126-1.89.092-2.173.608-1.3,2.328.451.884.946,1.747,1.37,2.643a8.667,8.667,0,0,1,.894,4.184,7.065,7.065,0,0,1-4.088,6.286,1.269,1.269,0,0,1-1.742-.241c-.49-.588-.254-1.082.122-1.6.638-.886,1.272-1.776,1.86-2.7a4.66,4.66,0,0,0,.306-4.825,13.1,13.1,0,0,0-2.207-3.137,5.072,5.072,0,0,0-5.354-1.306c-.62.177-1.23.391-1.857.537a3.071,3.071,0,0,1-3.822-1.467c-.142-.2-.271-.417-.428-.608a2.607,2.607,0,0,0-3.683-.788c-.989.549-1.852,1.323-2.788,1.97a18.37,18.37,0,0,1-2.488,1.607,3.4,3.4,0,0,1-4.125-.708,37.918,37.918,0,0,0-5.809-4.378,30.294,30.294,0,0,1-4.312-3.62c-1.506-1.565-2.782-3.35-4.157-5.039a2.536,2.536,0,0,0-2.657-.924,2.164,2.164,0,0,0-1.832,2.071,9.55,9.55,0,0,0,.16,2.5c.241,1.316.667,2.6.877,3.919a1.539,1.539,0,0,1-1.855,1.872,7.84,7.84,0,0,1-1.3-.323c-1.1-.314-2.179-.689-3.288-.948-1.938-.453-2.894.447-2.512,2.4.217,1.115.668,2.182.909,3.293a6.361,6.361,0,0,1,.171,2.318,1.645,1.645,0,0,1-2.08,1.411c-.343-.044-.674-.164-1.014-.234-1.65-.34-3.288-.766-4.953-.992a12.785,12.785,0,0,0-11.123,3.389,9.1,9.1,0,0,0-2.814,4.811,16.944,16.944,0,0,0-.233,5.776,10.167,10.167,0,0,0,8.5,9.117c1.069.222,2.14.442,3.189.737.956.27,1.328.865,1.143,1.618a1.353,1.353,0,0,1-1.709,1.037,45.544,45.544,0,0,1-4.813-.917,9.11,9.11,0,0,1-5.14-3.606c-.552-.763-1.146-1.5-1.763-2.211a8.86,8.86,0,0,1-2.2-5.566c-.034-.744-.073-1.489-.068-2.233a14.844,14.844,0,0,1,12.889-14.812,42.221,42.221,0,0,1,5.2-.2c1.926-.031,2.188-.362,1.622-2.188-.059-.19-.128-.376-.187-.566a3.223,3.223,0,0,1,.921-3.531,6.442,6.442,0,0,1,3.67-1.824c.787-.1,1.58-.149,2.371-.218,1.415-.123,1.754-.461,1.648-1.87-.093-1.236-.273-2.466-.448-3.694a3.554,3.554,0,0,1,.735-3.081c1.642-1.782,3.565-3.008,6.133-2.764.346.033.692.076,1.038.1,1.346.075,1.621-.082,2.01-1.432a18.581,18.581,0,0,1,2.721-5.76c.9-1.25,1.858-2.453,2.8-3.671a11.514,11.514,0,0,1,8.417-4.486c5.624-.534,11.206-.477,16.644,1.331a3.229,3.229,0,0,0,2.321-.06,23.5,23.5,0,0,1,9.052-1.455c2.579.012,5.16-.081,7.736-.009a4.061,4.061,0,0,0,3.814-2.073,45.094,45.094,0,0,1,3.843-5.109,10.164,10.164,0,0,1,9.518-3.441,17.416,17.416,0,0,1,9.892,4.751c2.183,2.095,4.468,4.082,6.861,6.256C3754.815,2040.053,3755.55,2039.256,3756.28,2038.455Zm-44.432,30.133a13.973,13.973,0,0,0,8.261-1.161c3.622-1.7,5.2-4.288,4.679-8.231-.873-6.568-4.013-11.643-10.2-14.514a11.635,11.635,0,0,0-9.662-.238,8.756,8.756,0,0,0-5.789,7.934c-.04.494-.051.99-.074,1.486C3698.8,2061.353,3704.908,2067.5,3711.848,2068.588Zm-31.307.991a9.124,9.124,0,0,0,4.823.519,14.574,14.574,0,0,0,7.264-3.545c1.9-1.678,2.21-3.982,2.257-6.389.107-5.4-2.17-9.785-5.633-13.7a6.837,6.837,0,0,0-10.478-.3,29.164,29.164,0,0,0-4.608,6.2,11.969,11.969,0,0,0-1.443,5.437A12.561,12.561,0,0,0,3680.542,2069.58Z"
              transform="translate(-112.224 -126.493)" fill="#000" />
            <path id="Path_480" data-name="Path 480"
              d="M3775.805,1955.677c.83-4-.05-7.64-.964-11.247-.983-3.882-3.937-5.574-7.831-4.593a10.262,10.262,0,0,0-7.252,6.082,20.625,20.625,0,0,1-1.142,2.416c-.675,1.118-1.031,1.188-2.2.681-.682-.3-1.341-.654-2.04-.9a1.706,1.706,0,0,0-2.409.811c-.385.574-.678,1.21-1.008,1.822-1.1,2.046-2.247,2.729-4.5,2.194-4.333-1.029-8.476-.346-12.573,1.064a17.969,17.969,0,0,0-2.589,1.123,6.836,6.836,0,0,0-3.724,5.265c-1.169,7.989,1.159,14.5,8.093,19.063a39.192,39.192,0,0,0,11.907,5.3c.231.059.475.072.872.13a3.363,3.363,0,0,0-1.186-2.5,16.139,16.139,0,0,0-2.616-1.942,48.109,48.109,0,0,1-9.711-7.347,10.737,10.737,0,0,1-1.543-12.924c2.015-3.453,7.567-6.519,12.663-3.141,1.033.685,2.064,1.383,3.148,1.982,1.4.776,2.016.548,2.668-.941.357-.816.606-1.679.909-2.519.182-.507.371-1.011.576-1.566a2.887,2.887,0,0,1,2.215,1.427c.465.643.842,1.35,1.322,1.981,1.26,1.655,2.583,1.564,3.543-.306a9.784,9.784,0,0,0,.867-2.673,18.6,18.6,0,0,1,4.959-9.5,5.572,5.572,0,0,1,1-.885,2.051,2.051,0,0,1,3.013.539c1.355,2.261,2.628,4.6,2.658,7.33a9.011,9.011,0,0,1-.533,3.2,19.348,19.348,0,0,0-.751,5.278,1.548,1.548,0,0,0,2.421,1.355,7.092,7.092,0,0,0,1.172-.91c1.718-1.487,3.683-1.312,5.623-.711a1.967,1.967,0,0,1,1.155,2.824c-1,2.383-2.109,4.732-4.414,6.207-.458.294-.987.571-.823,1.259a1.339,1.339,0,0,0,1.576.823,3.032,3.032,0,0,0,1.6-.675,45.213,45.213,0,0,0,4.387-5.043,6.386,6.386,0,0,0-1.43-8.786,4.645,4.645,0,0,0-3.025-1.057C3778.6,1955.7,3777.313,1955.677,3775.805,1955.677Z"
              transform="translate(-148.069 -92.261)" fill="#000" />
            <path id="Path_481" data-name="Path 481"
              d="M3986.653,2086.1c.443-1.656.818-2.986,1.152-4.325a50.393,50.393,0,0,0,1.35-10.914,8.057,8.057,0,0,0-5.693-7.9,37.919,37.919,0,0,0-6.365-1.449,23.881,23.881,0,0,0-8.44.186c-5.24,1.032-8.329,4.292-9.735,9.32-.094.334-.145.68-.249,1.01a3.1,3.1,0,0,1-2.775,2.341c-.394.046-.791.054-1.187.086a3.388,3.388,0,0,0-3.458,2.911,3.6,3.6,0,0,1-3.044,3.157,11.055,11.055,0,0,0-5.857,3.886,7.755,7.755,0,0,0-1.63,6.987c.925,3.771,2.945,6.7,6.7,8.174,1.061.418,2.107.878,3.181,1.256a1.567,1.567,0,0,0,2.134-.758,1.421,1.421,0,0,0-.613-1.929,23.88,23.88,0,0,0-4.6-2.992c-3.822-1.532-3.852-7.833-1.354-9.787.664-.519,1.325-1.044,2.015-1.527a3.176,3.176,0,0,1,2.552-.514c.971.2,1.939.427,2.919.575a1.572,1.572,0,0,0,2.01-1.735,21.134,21.134,0,0,0-.315-2.2c-.2-1.678.3-2.19,1.986-2.027.493.048.98.178,1.474.207a1.57,1.57,0,0,0,1.9-1.437,14.136,14.136,0,0,0,.186-1.475c.748-6.854,6.846-11.643,12.682-11.148a38.643,38.643,0,0,1,7.916,1.28,5.574,5.574,0,0,1,4.421,5.484,16.942,16.942,0,0,1-.273,4.43c-.656,3.052-1.458,6.079-2.324,9.08a34.85,34.85,0,0,1-1.746,4.419c-.344.775-.585,1.447.022,2.2.663.828,1.438.7,2.285.417,1.456-.494,2.924-.951,4.376-1.453a9.428,9.428,0,0,1,4.4-.452c1.984.271,2.724,1.5,2.069,3.406a14.954,14.954,0,0,1-2.735,4.577c-1.039,1.266-2.084,2.528-3.09,3.82-.45.578-.812,1.223-1.25,1.892a1.714,1.714,0,0,0,2.278-.083c4.083-3.253,7.527-6.94,8.105-12.488a2.806,2.806,0,0,0-1.477-2.989,12.13,12.13,0,0,0-5.844-1.514C3989.428,2086.07,3988.148,2086.1,3986.653,2086.1Z"
              transform="translate(-228.897 -138.385)" fill="#000" />
            <path id="Path_482" data-name="Path 482"
              d="M3575.557,1718.213a11.335,11.335,0,0,0-1.027-.964c-2.314-1.7-4.644-3.384-6.968-5.074-.16-.117-.3-.337-.467-.352a1.8,1.8,0,0,0-1.077.089.75.75,0,0,0-.032,1.177c.359.409.767.776,1.162,1.151.859.816,1.724,1.626,2.818,2.657-1.962-.02-3.675.419-5.308-.972-.478,1.885-.328,3.491.942,4.782a37.735,37.735,0,0,0,3.5,2.988,1.012,1.012,0,0,0,.942.086,1.21,1.21,0,0,0,.506-.951,6.6,6.6,0,0,0-.825-2.193c-1.1-1.663-1.115-1.873.528-3.317,1.748.135,3.271,1.637,5.139,1.3Z"
              transform="translate(-86.318 -5.903)" fill="#000" />
            <path id="Path_483" data-name="Path 483"
              d="M3559.394,1733.462a6.463,6.463,0,0,0,.219-1.02,56.856,56.856,0,0,0-.288-11.428c-.046-.294-.1-.587-.167-.876-.206-.838-.575-1.145-1.169-.993a1.345,1.345,0,0,0-.872,1.512,1.1,1.1,0,0,0,.045.142c1.083,3.5,1.174,7.125,1.351,10.738C3558.572,1732.737,3558.565,1732.737,3559.394,1733.462Z"
              transform="translate(-83.547 -8.679)" fill="#000" />
            <path id="Path_484" data-name="Path 484"
              d="M3756.118,2072.463a1.687,1.687,0,0,0,1.891-1.778c-.036-1.008-.937-1.676-2.228-1.652s-1.949.449-1.986,1.285A2.166,2.166,0,0,0,3756.118,2072.463Z"
              transform="translate(-158.12 -141.346)" fill="#000" />
            <path id="Path_485" data-name="Path 485"
              d="M3707.421,2073.39a2.086,2.086,0,0,0,1.968,2.308,1.916,1.916,0,0,0,2.163-1.733,2.471,2.471,0,0,0-2.487-2.239A1.539,1.539,0,0,0,3707.421,2073.39Z"
              transform="translate(-140.539 -142.367)" fill="#000" />
          </g>
        </svg>