<svg xmlns="http://www.w3.org/2000/svg" width="325.691" height="265.166" viewBox="0 0 325.691 265.166">
  <g id="Group_74" data-name="Group 74" transform="translate(-3720.332 -3488.367)">
    <path id="Path_429" data-name="Path 429" d="M4142.586,3755.764a26.8,26.8,0,0,1-8.962,1.323c-4.286-.1-8.584-.307-12.849-.747a308.461,308.461,0,0,0-37.484-1.549c-5.691.109-11.4-.166-17.086-.414a35.385,35.385,0,0,1-5.179-.975c.082-2.151.865-2.981,2.741-2.953,12.053.19,24.111.286,36.162.627,7.121.2,14.254.584,21.34,1.292a121.849,121.849,0,0,0,17.755.155c1.107-.052,2.219-.008,3.382-.008l.181,2.043Z" transform="translate(-96.563 -74.282)" fill="#fefbf7"/>
    <path id="Path_430" data-name="Path 430" d="M4059.962,3513.313c-3.329-2.028-6.649-4-9.92-6.057q-8.07-5.07-16.086-10.228c-2.253-1.442-2.7-3.424-1.321-6.114,1.506.6,3.09,1.1,4.553,1.834,6.059,3.046,12.069,6.186,18.122,9.241a34.507,34.507,0,0,0,7.527,2.591,13.318,13.318,0,0,1,3.956,1.774,29.8,29.8,0,0,1,3.868,3.128c1.679,1.529,1.6,3.149-.194,4.569-1.729,1.365-3.674,2.489-5.255,4-3.66,3.5-7.215,7.115-10.706,10.786-3.336,3.509-6.688,6.984-10.352,10.168a48.239,48.239,0,0,0-4.685,5.237c-.856,1-1.659,2.048-2.438,3.108a2.131,2.131,0,0,1-1.465.9c-5.192.883-10.387,1.754-15.566,2.7a141.029,141.029,0,0,1-28.148,1.938q-11.9-.222-23.8.044a163.458,163.458,0,0,0-20.526,1.773,100.352,100.352,0,0,1-13.1.765c-4.321.063-8.646-.28-12.971-.284-3.949,0-7.9.219-11.847.314-.712.016-.662.418-.644.909.207,5.869.8,11.706,1.342,17.553.7,7.552,1.063,15.136,1.476,22.711.253,4.631.26,9.276.507,13.909.146,2.77.65,5.521.8,8.291.227,4.058.343,8.125.4,12.188.129,8.993,0,17.993.353,26.975a154.947,154.947,0,0,0,1.747,16.123,124.077,124.077,0,0,1,1.295,17.115c.034,5.756-.005,11.513.021,17.269a2.21,2.21,0,0,1-1,2.042c-.544.361-1.07.752-1.762,1.243-.129-1.081-.214-2.028-.356-2.965-.949-6.288-.69-12.632-.854-18.954-.2-7.762-.686-15.494-1.636-23.209a214.827,214.827,0,0,1-1.3-24.011c-.052-4.783.023-9.57-.158-14.349-.216-5.692-.661-11.376-.983-17.065-.405-7.175-.75-14.355-1.191-21.527q-.509-8.231-1.208-16.448c-.464-5.362-1.068-10.713-1.588-16.07-.061-.639-.2-1-.937-1.166a47.533,47.533,0,0,0-12.05-.846c-7.157.223-14.312.523-21.472.664a129.911,129.911,0,0,0-13.134,1.447c-7.276.888-14.534,1.917-21.88,2.094-5.21.125-10.417.4-15.625.612-.365.014-.73,0-1.17,0,.069-.961.132-1.834.195-2.707a64.446,64.446,0,0,0-.765-13.441c-.838-6.068-1.71-12.132-2.519-18.2q-.963-7.236-1.8-14.488a12.82,12.82,0,0,1,.013-3.248c.377-2.623,1.761-3.948,4.406-4.029a58.916,58.916,0,0,1,6.945.245,109.128,109.128,0,0,0,14.682.088c8.21-.384,16.425-.683,24.637-1.025q14.9-.621,29.791-1.259c2.662-.116,5.318-.316,7.979-.415a1.154,1.154,0,0,0,1.205-.931,12.2,12.2,0,0,0,.343-5.271c-.114-1.283-.318-2.562-.362-3.846-.1-3.019.98-3.208,3.264-3.133,3.233.107,6.459.407,9.688.633,2.457.171,4.915.334,7.367.56a1.428,1.428,0,0,1,.97.608,11.506,11.506,0,0,1,.344,10.648.889.889,0,0,1-.757.375,2.517,2.517,0,0,1-2.3-2.737c-.01-.887.1-1.774.084-2.66a5.219,5.219,0,0,0-.275-1.593,1.743,1.743,0,0,0-1.975-1.387q-5.069-.119-10.137-.233c-.307-.007-.614,0-1.013,0,.128,1.289.249,2.477.368,3.665.169,1.71.354,3.418.5,5.13.046.533.259.7.792.757a202.26,202.26,0,0,0,31.926.509c7.667-.369,15.341-.635,23.01-.959,3.205-.136,6.422-.184,9.609-.5a26.9,26.9,0,0,0,5.229-1.291,7.518,7.518,0,0,1,4.476-.168,14.075,14.075,0,0,0,5.115.214c7.657-.537,15.313-1.1,22.969-1.637q7.328-.517,14.658-1c2.264-.147,2.678.326,2.43,2.616-.218,2.025-.2,2.166-2.242,2.393-2.352.262-4.736.289-7.108.339-9.88.211-19.762.373-29.641.589a96.968,96.968,0,0,0-15.827,1.265c-1.4.263-2.782.673-4.187.928a41.7,41.7,0,0,1-4.825.695c-4.084.255-8.187.265-12.261.622a159.678,159.678,0,0,1-17.513.479c-11.833-.266-23.658.165-35.485.4-11.511.229-23.028.251-34.543.3-9.794.042-19.592-.1-29.387.011a70.253,70.253,0,0,0-16.572,2.172c-1.338.339-1.6.695-1.5,2.011a223.231,223.231,0,0,0,7.065,42.626c.2.725.5.953,1.23.9,6-.455,12-.792,17.99-1.335,13.331-1.206,26.686-1.794,40.069-1.96q19.677-.245,39.347-.842c10.134-.314,20.257-.972,30.389-1.365s20.268-.733,30.407-.938c7.687-.155,15.323-.816,22.953-1.675,4.068-.458,8.149-.846,12.234-1.1a20.664,20.664,0,0,0,15.832-8.258,161.441,161.441,0,0,1,23.2-24.1c.2-.166.385-.342.57-.521C4059.915,3513.518,4059.917,3513.449,4059.962,3513.313Z" transform="translate(-26.441 0)" fill="#fefbf7"/>
    <path id="Path_431" data-name="Path 431" d="M3873.668,3747.735c-2.365-.47-4.568-.978-6.8-1.317a8.891,8.891,0,0,0-3.223.055,2.474,2.474,0,0,0-1.867,3.623c.982,2.345,2.144,4.613,3.229,6.914.086.18.181.357.27.537.511,1.022.363,1.59-.75,1.883a3.053,3.053,0,0,1-2.117-.168,8.25,8.25,0,0,1-2.627-2.26,12.246,12.246,0,0,1-1.624-10.9,4.727,4.727,0,0,1,4.935-3.73c1.428-.042,2.863.063,4.29.164.759.054,1.053-.15,1.078-.967.143-4.58.284-9.161.54-13.735a47.476,47.476,0,0,1,1.638-11.619,16.77,16.77,0,0,1,4.429-7.148c1.608-1.559,2.671-1.784,4.732-.882A22.241,22.241,0,0,1,3891,3718.642c.965,1.881,1.75,3.855,2.662,5.765,1.034,2.16,2.118,4.294,3.254,6.59.65-.541,1.112-.952,1.6-1.324a17.725,17.725,0,0,1,2.5-1.8,4.087,4.087,0,0,1,5.886,2.44c.323.945.586,1.913.846,2.878.165.614.444.8,1.11.628,1.661-.428,3.343-.774,5.022-1.131a3.853,3.853,0,0,1,1.188-.09c1.23.137,1.354.281,1.579,1.474.231,1.238.439,2.481.734,3.7a1.138,1.138,0,0,0,.689.7q3.44.916,6.909,1.722a.877.877,0,0,1,.789.925c.136,1.679.323,3.355.5,5.168l3.331-.876c2.545-.668,5.087-1.354,7.639-2a.881.881,0,0,0,.8-1.05c-.207-6.1-.319-12.2-.575-18.288-.458-10.93-1.014-21.854-1.5-32.783-.519-11.7-.991-23.4-1.5-35.1-.3-6.782-.955-13.533-1.835-20.266a175.8,175.8,0,0,1-1.284-31.716c.167-3.312.305-6.633.236-9.945-.046-2.164-.5-4.318-.75-6.479-.236-2.026.423-3.143,2.356-3.819.349,1.32.747,2.62,1.027,3.944a49.1,49.1,0,0,1,.587,12.067,231.67,231.67,0,0,0,.476,26.873c.477,5.964,1.2,11.908,1.659,17.873.375,4.824.567,9.662.78,14.5.428,9.727.8,19.456,1.223,29.185.283,6.522.537,13.049.95,19.564.263,4.169.761,8.325,1.207,12.48a67.174,67.174,0,0,1,.161,15.339,13.123,13.123,0,0,0,3.5,10.507,36.356,36.356,0,0,1,2.718,3.316c3.6,5.323,2.747,11.4-2.057,15.684-3.839,3.425-8.186,4.306-13.238,3.491a168.863,168.863,0,0,0-33.285-2.379c-5.487.207-10.964.775-16.437,1.262-3.421.3-6.827.78-10.243,1.144-2.071.221-3.221-.477-3.8-2.152-.2-.573-.067-.854.489-1.126a24.423,24.423,0,0,1,9.843-2.478c7.439-.295,14.894-.78,22.324-.574,9.008.248,18,1.114,27,1.749,2.569.181,5.13.5,7.695.742a5.724,5.724,0,0,0,5.592-2.667,26.632,26.632,0,0,0,1.971-3.509,4.737,4.737,0,0,0-.22-4.7,25.131,25.131,0,0,0-3.437-4.466,5.582,5.582,0,0,0-6.906-.909,23.1,23.1,0,0,0-6.618,4.982,3.73,3.73,0,0,1-1.621,1.034c-1.111.331-2.274.479-3.451.71a11.241,11.241,0,0,1,.271-5.373,8.711,8.711,0,0,0,.157-5.646c-.3-.8-.717-1.092-1.523-.917-1.368.3-2.733.619-4.11.87-1.451.264-2.009-.139-2.234-1.621-.184-1.215-.275-2.445-.426-3.665-.052-.419-.167-.83-.258-1.265a2.383,2.383,0,0,0-1.884,1.14c-.561.758-1.034,1.581-1.6,2.339a2.564,2.564,0,0,1-3.017,1.063,1.054,1.054,0,0,1-.872-.9c-.707-3.242-1.466-6.472-2.232-9.812a4.761,4.761,0,0,0-.588.331,7,7,0,0,0-2.776,5.569c-.045,1.946.047,3.894,0,5.84-.042,1.619-.093,1.618-1.635,2.106-.354.112-.709.228-1.065.336-1.185.362-1.582.16-1.86-1.065-.489-2.147-1-4.294-1.387-6.461a57.08,57.08,0,0,0-7.6-19.479,11.944,11.944,0,0,0-4.293-4.562,8.588,8.588,0,0,0-1.165-.543c-2.573-.98-4.791-.143-5.883,2.385a26.7,26.7,0,0,0-1.327,4.34,52.08,52.08,0,0,0-.825,20.208C3873.294,3742.974,3873.427,3745.317,3873.668,3747.735Z" transform="translate(-38.893 -27.095)" fill="#fefbf7"/>
    <path id="Path_432" data-name="Path 432" d="M3795.6,3757.961c-.9-1.716-1.773-3.286-2.557-4.9a77.162,77.162,0,0,1-3.486-7.546c-1.1-3.063-.656-6.277-.186-9.438a10.907,10.907,0,0,1,1.87-5.363c1.683-2.163,4.062-3.077,6.6-3.72a20.309,20.309,0,0,1,14.416,1.828c.279.138.556.28.976.494.346-1.088.716-2.1.987-3.127a6.918,6.918,0,0,1,4.946-5.322c.492-.144.95-.4,1.438-.56s.639-.4.548-.95c-.788-4.771-1.519-9.553-2.309-14.324a8.751,8.751,0,0,1,3.122-8.672c6.209-5.288,13.476-7.192,21.467-6.708a32.156,32.156,0,0,1,13.384,4.279c3.875,2.1,7.791,4.12,11.689,6.173.25.131.508.247.871.423.255-1.406.463-2.75.751-4.076a28.216,28.216,0,0,1,.852-3.14,2.212,2.212,0,0,1,2.525-1.632,45.061,45.061,0,0,1,5.873,1.182,5.785,5.785,0,0,1,3.579,3.485c.145-.133.225-.193.29-.266,1.736-1.973,3.295-2.38,5.745-1.394a14.758,14.758,0,0,1,2.652,1.389,3.655,3.655,0,0,1,1.64,3.558q-.275,3.38-.55,6.76c-.01.11-.036.217-.052.315a3.093,3.093,0,0,1-3.464-2.056c-.368-1.049-.569-2.156-.884-3.224a3.191,3.191,0,0,0-2-2.28c-.3.509-.577,1-.862,1.483a5.816,5.816,0,0,1-3.239,2.792,1.177,1.177,0,0,1-1.456-.4,10.027,10.027,0,0,1-1.064-1.838c-.353-.84-.538-1.75-.88-2.6a4.153,4.153,0,0,0-3.942-2.575c.1,1.1.187,2.148.3,3.19.2,1.821.489,3.635.61,5.46a7.717,7.717,0,0,1-.306,2.7,2.5,2.5,0,0,1-3.467,1.712,17.531,17.531,0,0,1-2.6-1.292c-6.042-3.382-12.04-6.849-18.127-10.146a27.949,27.949,0,0,0-11.324-3.488,21.585,21.585,0,0,0-11.912,2.629c-3.282,1.748-4.177,4.8-4.291,8.239a28.387,28.387,0,0,0,3.806,14.784c1.417,2.583,2.985,5.083,4.515,7.6a1.026,1.026,0,0,1,.056,1.167c-.634,1.18-1.217,2.387-1.915,3.772-.929-.566-1.813-1.061-2.648-1.628-1.017-.692-1.952-1.508-2.993-2.157a5.118,5.118,0,0,0-4.635-.573c.377,1.191.713,2.354,1.114,3.5.529,1.507,1.215,2.968,1.636,4.5a5.725,5.725,0,0,1-.775,4.478,17.774,17.774,0,0,1-5.532-3.114c-1.9-1.657-3.828-3.28-5.8-4.842a10.289,10.289,0,0,0-5.743-2.5,9.578,9.578,0,0,0-3.614.417,10.345,10.345,0,0,0-7.011,9.744c-.17,5.215,1.571,9.533,5.8,12.734,1.163.881,2.3,1.793,3.485,2.652,2.432,1.768,4.913,3.477,6.708,5.964a4.105,4.105,0,0,1-5.852,1.007,7.857,7.857,0,0,0-7.539-1.32c-4.281,1.313-7.971,3.48-10.29,7.494a16.933,16.933,0,0,0-2.141,7.372,1.416,1.416,0,0,0,.342.115c5.521.256,11.041.639,16.563-.008,4.806-.562,9.613-1.131,14.428-1.6,3.933-.385,7.875-.7,11.821-.892a7.1,7.1,0,0,1,3.189.745,2.088,2.088,0,0,1,.887,3.02c-1.036,1.886-2.53,3.182-4.838,3.138-11.1-.208-22.159.475-33.221,1.2-2.8.183-5.63.424-8.332-.6a14.628,14.628,0,0,1-2.94-1.557,3.664,3.664,0,0,1-1.687-3.479c.561-5.651,2.323-10.781,7.112-14.3a31.79,31.79,0,0,1,4.835-2.544C3793.529,3758.822,3794.536,3758.428,3795.6,3757.961Z" transform="translate(-17.081 -57.029)" fill="#fefbf7"/>
    <path id="Path_433" data-name="Path 433" d="M3985.713,3779.943c4-2.237,7.875-4.583,12.379-5.518s9.021-1.873,13.544-2.746a87.65,87.65,0,0,1,17.255-1.61,28.754,28.754,0,0,0,14.7-3.732,17.053,17.053,0,0,1,2-.992,4.219,4.219,0,0,0,2.339-2.381,11.245,11.245,0,0,0,.98-5.438,4.537,4.537,0,0,0-4.291-4.2c-2.707-.151-5.432,0-8.149.05-1.2.021-2.4.082-3.6.167-.516.036-.853-.093-.9-.639a8.219,8.219,0,0,1-.081-1.688c1.173-9.691-5.41-19.791-14.667-22.511a12.609,12.609,0,0,0-5.781-.054c-4.713.8-9.422,1.605-14.138,2.383-1.9.313-2.641-.326-2.412-2.235.334-2.783.813-5.548,1.228-8.323.058-.391.1-.785.159-1.256a7.33,7.33,0,0,0-5.66,1.657c-1.233,1.053-2.286,2.319-3.429,3.479-.882.9-1.78,1.778-2.672,2.665a.883.883,0,0,1-1.224.067,4.257,4.257,0,0,1-2.168-4.342c.09-1.256.312-2.5.369-3.76.045-.984-.072-1.975-.118-2.963l-.307-.045c-1.243,2.824-2.487,5.646-3.742,8.5-.369-.1-.644-.168-.911-.258-1.9-.638-2.36-1.559-1.6-3.4,1.1-2.672,2.177-5.356,3.417-7.961a6.7,6.7,0,0,1,2.025-2.379,3.863,3.863,0,0,1,6.185,2.439,16.176,16.176,0,0,1,.163,2.648c.022.654,0,1.31,0,2.138.393-.327.705-.589,1.021-.849,1.644-1.356,3.411-2.458,5.646-2.367a7.875,7.875,0,0,1,5.294,2.347,4.78,4.78,0,0,1,1.307,3.786c-.047,1.23-.207,2.453-.305,3.681-.041.5-.051,1.01-.082,1.667,1.681-.2,3.245-.314,4.784-.574,6.457-1.09,12.829-1.042,19.054,1.27,6.057,2.25,10.154,6.307,11.584,12.74.483,2.175.78,4.391,1.165,6.588a2.567,2.567,0,0,0,.051.252c.81,2.93,2.016,3.75,4.975,3.058,3.432-.8,6.368.315,9.007,2.265,2.927,2.164,3.538,5.416,3.229,8.786-.476,5.2-3.151,8.18-8.165,9.746-2.479.775-4.856,1.874-7.33,2.664a60.994,60.994,0,0,1-13.272,2.192c-4.7.417-9.39,1.007-14.066,1.644-3.741.51-7.5,1.018-11.172,1.87-3.077.713-6.048,1.9-9.051,2.921C3988.263,3782.068,3986.92,3781.7,3985.713,3779.943Z" transform="translate(-72.027 -62.722)" fill="#fefbf7"/>
    <path id="Path_434" data-name="Path 434" d="M3980.552,3652.137a5.666,5.666,0,0,0-3.773,3.368c-.857,2.18-1.579,4.415-2.358,6.626-.1.294-.211.587-.312.871-1.545-.123-1.815-.323-2.076-1.753-.842-4.615.178-8.673,3.833-11.789a6.8,6.8,0,0,1,3.054-1.429,4.678,4.678,0,0,1,5.646,4.27,46.3,46.3,0,0,1-.067,5.9c-.024.825-.138,1.647-.225,2.629,1.231-.13,2.379-.289,3.534-.363a30.212,30.212,0,0,1,4.452-.15c4.2.354,6.269,3.026,5.654,7.223-.365,2.49-.847,4.963-1.275,7.444-.076.44-.147.881-.248,1.482,1.485-.46,2.806-.9,4.141-1.278a81.527,81.527,0,0,1,8.514-2.322,20.311,20.311,0,0,1,12.878,2.328c2.616,1.349,3.489,3.867,3.9,6.607.925,6.171-1.214,11.424-4.829,16.236a27,27,0,0,1-1.913,2.317,2.049,2.049,0,0,1-3.177.146c-1.461-1.217-1.452-1.336-.551-3a43.126,43.126,0,0,0,4.28-11.725,5.413,5.413,0,0,0,.08-.6c.26-2.831-.749-4.056-3.6-4.061-3.43-.005-6.866.053-10.289.261a12.132,12.132,0,0,0-5.435,1.985c-1.567.938-3.184,1.8-4.831,2.591a2.844,2.844,0,0,1-1.817.183,5.858,5.858,0,0,1-3.862-3.162,3.789,3.789,0,0,1,.258-3.233c1.091-2.673,2.234-5.327,3.225-8.038a20.472,20.472,0,0,0,1.049-4.319c.277-2.091-.874-3.364-2.976-3.611a7.683,7.683,0,0,0-6.574,2.275c-.835.822-1.572,1.744-2.4,2.572a3.092,3.092,0,0,1-3.694.73,1.08,1.08,0,0,1-.728-1.1c-.1-2.791.668-5.436,1.248-8.121.494-2.289.855-4.605,1.256-6.914A6.8,6.8,0,0,0,3980.552,3652.137Z" transform="translate(-71.261 -45.229)" fill="#fefbf7"/>
    <path id="Path_435" data-name="Path 435" d="M3918.027,3644.712c-1.1-1.8-2.238-3.486-3.186-5.272-1.616-3.043-3.436-5.9-6.358-7.859-3.7-2.485-7.848-2.866-12.122-2.327a13.4,13.4,0,0,0-9.089,5.172,9.084,9.084,0,0,0-1.316,9.319c.974,2.657,2.005,5.293,3.066,7.916a5.387,5.387,0,0,1,.309,4.4.628.628,0,0,1-.838.44,13.37,13.37,0,0,1-6.125-3.3,6.915,6.915,0,0,0-7.228-1.2,3.178,3.178,0,0,0-2.119,2.281,8.765,8.765,0,0,0,.4,5.962c.633,1.5,1.308,2.979,1.959,4.458a2.711,2.711,0,0,1-3.935.312c-3.635-3.367-5.628-9.154-2.866-14.322a4.8,4.8,0,0,1,4.676-2.633c3.063.1,6.124.228,9.186.343.281.011.562,0,.871,0-.371-1.65-.806-3.242-1.075-4.863a25.619,25.619,0,0,1,.191-10.072c1.207-5.178,4.739-8.048,9.7-9.37,6.686-1.78,12.685-.587,17.9,4.12a48.316,48.316,0,0,1,6.365,6.367,16.706,16.706,0,0,1,3.153,9.024.793.793,0,0,1-.346.574A8.269,8.269,0,0,1,3918.027,3644.712Z" transform="translate(-41.653 -38.246)" fill="#fefbf7"/>
    <path id="Path_436" data-name="Path 436" d="M3877.019,3529.455c3.226-2.083,6.254-4.6,10.3-5.106a9.451,9.451,0,0,1,4.965.647,6.453,6.453,0,0,1,3.871,5.3c.289,1.832.4,3.694.545,5.547a.881.881,0,0,0,.783.922c2.17.513,4.332,1.061,6.5,1.571,2.4.564,4.061,1.943,4.46,4.416a71.621,71.621,0,0,1,.879,7.92c.15,3.087-1.2,4.584-4.288,4.86a31.315,31.315,0,0,1-4.708-.119,41.3,41.3,0,0,0-17.32,2.206,27.4,27.4,0,0,1-2.744.974,2.628,2.628,0,0,1-3.2-2.4c-.007-.174.223-.431.407-.528,1.136-.6,2.276-1.2,3.443-1.742a1.036,1.036,0,0,0,.682-1.19c-.23-3.14-.471-6.28-.592-9.425a26.92,26.92,0,0,1,.251-4.434,9.06,9.06,0,0,0-3.669-8.811c-.179-.142-.351-.293-.521-.442C3877.044,3529.605,3877.046,3529.567,3877.019,3529.455Zm6.612,13.746a19.688,19.688,0,0,1,2.654-2.069c1.3-.708,2.743-1.132,4.086-1.762,1.315-.616,2.6-1.308,3.854-2.036a1.025,1.025,0,0,0,.38-.893c-.608-2.114-1.187-4.244-1.97-6.3a4.023,4.023,0,0,0-4.79-2.829c-3.273.711-4.208,2.032-4.387,4.37-.1,1.313-.185,2.629-.236,3.944a97.3,97.3,0,0,0,.412,15.867c.063.506.085.912.823.9,6.728-.137,13.458-.228,20.185-.369a1.123,1.123,0,0,0,.846-.592,15.073,15.073,0,0,0,.772-3.149c.333-3.483-2.018-8.284-7.5-7.381a27.286,27.286,0,0,0-4.547,1.191c-1.993.7-3.929,1.57-5.889,2.364A3.7,3.7,0,0,1,3883.631,3543.2Z" transform="translate(-44.41 -10.174)" fill="#fefbf7"/>
    <path id="Path_437" data-name="Path 437" d="M4044.436,3530.643c.981-2.5,1.91-4.864,2.924-7.443a11.262,11.262,0,0,0-1.749-.256c-.915.011-1.826.167-2.741.2a2.938,2.938,0,0,1-3.245-2.613c3.416-.713,6.66-2.289,10.27-2.036.98.068,1.95.306,3.042.486-1.154,2.906-2.238,5.635-3.373,8.492.436.04.788.08,1.14.1,3.2.219,6.426.236,9.59.7a9.768,9.768,0,0,1,7.738,13.183,20.637,20.637,0,0,1-4.812,7.348,12.537,12.537,0,0,1-6.925,3.156,21.118,21.118,0,0,1-10.038-.344,18.242,18.242,0,0,1-3.225-1.554,2.3,2.3,0,0,1-1.209-2.532c.072-.561.126-1.124.2-1.8,1.47.648,2.848,1.26,4.229,1.863a14.3,14.3,0,0,0,14.8-1.5,10.452,10.452,0,0,0,4.15-7.153c.506-2.828-2.44-6.674-5.848-7.224a14.448,14.448,0,0,0-2.39-.2,61.141,61.141,0,0,1-11.559-.684C4045.13,3530.781,4044.856,3530.725,4044.436,3530.643Z" transform="translate(-90.498 -8.532)" fill="#fefbf7"/>
    <path id="Path_438" data-name="Path 438" d="M3931.521,3525.552c.2.235.247.274.276.321,1.891,3.049,1.862,3.045,1.346,6.753-.334,2.411-.649,4.826-.833,7.251a9.647,9.647,0,0,0,4.576,9.289.9.9,0,0,0,1.267-.048c1.582-1.277,3.228-2.473,4.8-3.757a5.936,5.936,0,0,0,2.263-5.136,27.94,27.94,0,0,1,.119-3.77,7,7,0,0,0-1.684-5.662c-.97-1.064-1.453-1.152-2.68-.4a9.112,9.112,0,0,0-3.558,3.4,9.273,9.273,0,0,1-.562.826,6.859,6.859,0,0,1-1.172-4.91c.452-3.281,2.07-6.083,3.672-8.921,1.108.434,1.962.877,2.085,2.23a5.428,5.428,0,0,0,2.056,3.278c1.013.968,2.085,1.888,2.993,2.948a7.249,7.249,0,0,1,1.594,5.937,35.885,35.885,0,0,0-.245,5.993,9.2,9.2,0,0,1-5.4,9.181,22.2,22.2,0,0,1-3.876,1.592,5,5,0,0,1-5.52-1.6,12.08,12.08,0,0,1-3.23-8.294c.047-4.38.161-8.763.423-13.135C3930.3,3527.819,3931.039,3526.763,3931.521,3525.552Z" transform="translate(-59.374 -9.188)" fill="#fefbf7"/>
    <path id="Path_439" data-name="Path 439" d="M3957.635,3556.217c.793-1.964,1.509-3.795,2.27-5.6,2.141-5.086,4.434-10.112,6.4-15.263,1.167-3.057,1.837-6.3,2.719-9.468a7.426,7.426,0,0,0,.124-1.058c-.588.164-1.071.294-1.55.434-1.593.463-3.18.946-4.778,1.387-.487.134-.62.349-.549.854.153,1.1.227,2.209.342,3.4a3.3,3.3,0,0,1-2.261-1.343c-.456-.583-.794-1.254-1.2-1.873-.484-.731-.99-1.45-1.547-2.264a25.649,25.649,0,0,1,14.316-3.311,12.326,12.326,0,0,1-.138,5.366c-1.313,3.961-2.361,8.014-3.791,11.931a78.676,78.676,0,0,1-3.5,7.24,15.739,15.739,0,0,0-1.028,2.345c-.407,1.366-.69,2.768-1.042,4.229a3.921,3.921,0,0,0,.586.069q3.773-.209,7.546-.435a3.989,3.989,0,0,0,2.935-1.367c1.235-1.407,2.169-1.428,3.63-.277a3.691,3.691,0,0,1,1.349,4.629c-.473,1.484-.473,1.488-2.012,1.408q-8.92-.465-17.842-.936C3958.358,3556.294,3958.106,3556.261,3957.635,3556.217Z" transform="translate(-67.249 -9.549)" fill="#fefbf7"/>
    <path id="Path_440" data-name="Path 440" d="M3720.332,3764.477c.813-.324,1.6-.7,2.438-.961a63.828,63.828,0,0,1,11.8-2.193,195.4,195.4,0,0,1,27.185-1.083c2.087.054,4.172.227,6.259.319.558.024.838.191.808.8-.04.794-.011,1.592-.011,2.556-10.743-.138-21.508.212-32.36,1.014.593,8.215,1.891,16.209,5.3,23.746a2.915,2.915,0,0,1-3.728-1.957,61.741,61.741,0,0,1-2.732-11.59c-.385-2.979-.8-5.956-1.156-8.938a1.063,1.063,0,0,0-.926-1.021,16.125,16.125,0,0,0-5.627-.075c-1.872.134-3.756.125-5.635.1a6.235,6.235,0,0,1-1.6-.456Z" transform="translate(0 -77.035)" fill="#fefbf7"/>
    <path id="Path_441" data-name="Path 441" d="M3851.958,3528.242c-.352.826-.688,1.634-1.039,2.435-1.137,2.592-2.39,5.14-3.392,7.783a23.024,23.024,0,0,0-1.22,10.244c.226,2.59,1.957,4.391,4,5.843a8.037,8.037,0,0,0,2.056,1.041,4.028,4.028,0,0,0,4.492-1.038,15.885,15.885,0,0,0,3.519-6.415,25.782,25.782,0,0,0,1.3-11.168,12.2,12.2,0,0,0-.305-1.6c-.641-2.427-1.6-3.253-4.094-3.575l-2.532-.328c.513-2.7,2.553-3.721,4.841-2.5a8.95,8.95,0,0,1,4.655,6.754,25.953,25.953,0,0,1-4.633,20.348c-1.826,2.544-4.308,3.349-7.7,2.347a10.769,10.769,0,0,1-8.1-8.865,20.891,20.891,0,0,1-.129-9.117,12.486,12.486,0,0,1,1.356-3.5,29.92,29.92,0,0,0,2.744-6.268c.971-2.833.738-2.6,3.863-2.53A1.428,1.428,0,0,1,3851.958,3528.242Z" transform="translate(-34.83 -11.261)" fill="#fefbf7"/>
    <path id="Path_442" data-name="Path 442" d="M4023.8,3524.29v.515c0,1.631-.253,1.789-1.882,1.505a3.464,3.464,0,0,0-1.766.17c-1.486.577-2.93,1.267-4.388,1.919a.941.941,0,0,0-.585,1.1c.117.992.178,1.994.232,2.993a1.138,1.138,0,0,0,1,1.23c1.726.4,3.428.911,5.134,1.393,1.136.32,1.365.922.686,1.9-1.889,2.715-1.022,2.042-4.163,2.433-.454.057-.909.118-1.365.147-1.228.078-1.134-.134-1.154,1.292-.05,3.292-.11,6.584-.157,9.875-.01.674-.171,1.2-.97,1.245a1.266,1.266,0,0,1-1.442-1.158c-.315-3.677-.639-7.352-.9-11.033-.3-4.31-.538-8.624-.8-12.934a10.268,10.268,0,0,1-.042-1.115,1.535,1.535,0,0,1,1.346-1.539c2.836-.553,5.674-1.1,8.508-1.662a8.584,8.584,0,0,0,1.389-.407c.8-.3,1.206-.1,1.288.759.043.455.007.915.007,1.374Z" transform="translate(-82.453 -9.54)" fill="#fefbf7"/>
    <path id="Path_443" data-name="Path 443" d="M3803.671,3832.885c.618,2.027,1.166,3.825,1.714,5.622.224.739.492,1.469.656,2.22a1.117,1.117,0,0,0,1.055,1c-.135-2.044-.408-4.1-.37-6.141a11.645,11.645,0,0,1,1.922-5.868q1.041,10.262,2.081,20.521c-.114.021-.187.06-.216.038-3.737-2.747-6.7-6.075-7.848-10.7A8.525,8.525,0,0,1,3803.671,3832.885Z" transform="translate(-23.256 -96.748)" fill="#fefbf7"/>
    <path id="Path_444" data-name="Path 444" d="M3959.2,3681.95c3.405,6.024,3.3,12.267,1.423,18.64a2.056,2.056,0,0,1-2.02-2.313c.155-4.89.292-9.78.447-14.671C3959.065,3683.054,3959.147,3682.5,3959.2,3681.95Z" transform="translate(-67.532 -54.867)" fill="#fefbf7"/>
    <path id="Path_445" data-name="Path 445" d="M3962.692,3762.4c2.6,4.594,2.661,15.136.493,20.46a4.811,4.811,0,0,1-1.318-4.795,8.337,8.337,0,0,1,.28-.989,11.359,11.359,0,0,0,.446-5.619,42.981,42.981,0,0,1-.036-7.089C3962.563,3763.778,3962.636,3763.182,3962.692,3762.4Z" transform="translate(-68.415 -77.671)" fill="#fefbf7"/>
    <path id="Path_446" data-name="Path 446" d="M4015.981,3814.243a37.012,37.012,0,0,0,1.682,13.043c-1.686-.507-3-1.215-3.351-2.708a18.166,18.166,0,0,1-.484-7.385A4.423,4.423,0,0,1,4015.981,3814.243Z" transform="translate(-83.13 -92.363)" fill="#fefbf7"/>
    <path id="Path_447" data-name="Path 447" d="M4026.018,3826.462c-3.665-4.584-4-10.271-.445-13.888C4025.722,3817.208,4025.867,3821.73,4026.018,3826.462Z" transform="translate(-85.809 -91.89)" fill="#fefbf7"/>
    <path id="Path_448" data-name="Path 448" d="M4115.26,3779.194a6.264,6.264,0,0,1-1.308-4.482,13.061,13.061,0,0,1,3.043-7.064,3.824,3.824,0,0,1,1.114-1.04Z" transform="translate(-111.558 -78.862)" fill="#fefbf7"/>
    <path id="Path_449" data-name="Path 449" d="M4109.371,3780.7c-2.771-.808-3.717-2.455-3.056-5.123a9.19,9.19,0,0,1,2.15-3.827C4108.781,3774.873,4109.073,3777.764,4109.371,3780.7Z" transform="translate(-109.342 -80.319)" fill="#fefbf7"/>
    <path id="Path_450" data-name="Path 450" d="M3754.9,3793.492c-3.059-2.1-2.952-6.5.13-9.378a4.546,4.546,0,0,1,.432,3.372,18.546,18.546,0,0,1-.467,2A6.945,6.945,0,0,0,3754.9,3793.492Z" transform="translate(-9.164 -83.824)" fill="#fefbf7"/>
    <path id="Path_451" data-name="Path 451" d="M3952.8,3591.768v9.266C3950.868,3599.259,3950.708,3594.069,3952.8,3591.768Z" transform="translate(-65.461 -29.307)" fill="#fefbf7"/>
    <path id="Path_452" data-name="Path 452" d="M3952.187,3504.266c-1.6-1.093-1.739-2.258-.478-4.715C3951.876,3501.206,3952.03,3502.709,3952.187,3504.266Z" transform="translate(-65.339 -3.17)" fill="#fefbf7"/>
  </g>
</svg>
