<svg xmlns="http://www.w3.org/2000/svg" width="523.147" height="496.16" viewBox="0 0 523.147 496.16">
  <g id="Group_103" data-name="Group 103" transform="translate(-735 -1486)">
    <g id="Group_102" data-name="Group 102" transform="translate(735 1486)">
      <path id="Path_703" data-name="Path 703" d="M-1379.021,1344.257a6.375,6.375,0,0,1,.85,7.213,12.529,12.529,0,0,0-1.008,6.162c.1,4.692-.229,9.4-.463,14.091-.249,4.967-.583,9.93-.9,14.894-.3,4.785-.6,9.57-.942,14.353a9.435,9.435,0,0,0,1.908,6.875c.434-1.448.854-2.586,1.118-3.758a117,117,0,0,0,2.374-34.7c-.285-3.707-.231-7.441-1.286-11.088-.448-1.549-.586-3.362.866-4.638.27-.041.493-.151.6-.081,2.5,1.6,5.084,1.589,7.871.74,3.1-.942,6.226-.249,9.172.727,9.605,3.179,19.153,6.536,28.174,11.187,5.865,3.023,11.564,6.409,16.166,11.161,8.659,8.941,15.934,18.812,19.544,31.01a90.343,90.343,0,0,0,4.3,11.172c4.933,11.019,10.053,21.953,15,32.965,4.113,9.159,9.172,17.647,16.566,24.581.452.423.829.928,1.27,1.366,3.545,3.513,4.741,7.532,3.855,12.6a101.629,101.629,0,0,1-5.276,20.311,47.165,47.165,0,0,0-2.278,7.92c-1.465,7.13-2.845,14.279-4.092,21.451a54.835,54.835,0,0,0-.423,7.164c-.08,1.968-.262,3.88-1.5,5.2-5.377-1.99-8.668-6.2-12.192-10.086-3.577-3.949-6.911-8.12-10.537-12.022a34.48,34.48,0,0,1-6.047-8.067c-1.542-3.078-4.364-5.565-6.812-8.131-5.29-5.543-8.911-12.11-12.166-18.951-1.254-2.635-2.808-5.126-4.207-7.692s-2.71-5.177-4.179-7.7c-1.649-2.83-3.111-5.859-5.227-8.308-3.826-4.425-7.969-8.593-12.181-12.659a31.362,31.362,0,0,0-14.674-7.744,89.21,89.21,0,0,0-19.98-2.919c-2.208-.029-4.419.254-6.71.4a14.736,14.736,0,0,0-.31,1.66c-.365,5.4-.818,10.8-1.036,16.208-.357,8.872-.535,17.751-.83,26.626q-.505,15.18-1.085,30.36c-.372,10.2-1.557,20.36-1.2,30.612.176,5.113-.827,10.256-1.1,15.4-.419,7.982-.928,15.973-.938,23.961-.023,19.2-.788,38.37-1.369,57.552-.425,14.027-.326,28.07-.522,42.105-.181,13.058-.519,26.114-.649,39.173-.112,11.283-.032,22.568-.026,33.852,0,.7.093,1.395.143,2.1,1.338.318,1.608-.745,2.019-1.419,2.96-4.849,6.064-9.623,8.753-14.62a424.535,424.535,0,0,1,22.365-37.518,208.89,208.89,0,0,0,15.616-27.5c6.5-13.61,13.725-26.882,20.849-40.185a244.5,244.5,0,0,0,11.529-26.039c1.042-2.643,2.089-5.284,3.172-7.91a10.258,10.258,0,0,1,5.112-5.557c1.612-.778,2.065-.656,3.057.853,1.038,1.578,1.972,3.206,4.367,2.578.832-.218,1.283.447,1.317,1.276.036.887-.026,1.781.049,2.664.5,5.923.635,11.914,1.662,17.745.9,5.124,2.761,10.087,4.3,15.089,2.816,9.161,5.633,18.322,8.6,27.436,1.4,4.3,3.125,8.5,4.736,12.726.321.845.813,1.664-.011,2.443a2.288,2.288,0,0,1-2.947.122,18.8,18.8,0,0,1-1.795-1.146c-4.247-3.07-8.56-6.054-12.707-9.253-6.726-5.186-14.191-9.093-21.723-12.9-2.264-1.144-2.848-.916-4.015,1.3-5.473,10.36-11.4,20.469-16.495,31.042-5.141,10.668-11.848,20.418-18.836,29.964-1.253,1.712-2.325,3.56-3.435,5.375-1.019,1.666-1.891,3.427-2.975,5.047-6.665,9.965-13.428,19.864-20.036,29.867-2.784,4.213-5.391,8.557-7.832,12.978-1.139,2.062-1.692,4.447-2.666,7.106l10.533,1.089a7.751,7.751,0,0,1,2.35.3,2.1,2.1,0,0,1,1.13,1.515,2.137,2.137,0,0,1-1.227,1.444,6.232,6.232,0,0,1-2.351.223c-1.687-.015-3.375-.078-5.06-.151-3.988-.176-7.981-.3-11.963-.568a73.345,73.345,0,0,0-19.086,1.246,11.234,11.234,0,0,1-1.831.3c-1.2.033-1.7-.812-1.967-1.814a1.554,1.554,0,0,1,1.219-2.033,26.424,26.424,0,0,1,2.861-.522,29.585,29.585,0,0,0,5.2-.954c2.935-1.083,3.161-3.176,1.11-5.55a39.65,39.65,0,0,1-4.675-6.416c-3.82-6.814-7.4-13.762-11.169-20.609a41.362,41.362,0,0,0-3.327-4.8c-1.707-2.27-3.628-4.392-5.211-6.743-10.165-15.108-20.035-30.363-28.091-46.78-5.349-10.9-11.708-21.318-17.783-31.856-3.083-5.347-5.209-5.736-10.235-2.163-7.166,5.1-14.234,10.327-21.339,15.507a6.717,6.717,0,0,0-2.854,3.734c-.3,1.2-.985,1.616-2.309,1.049-.6-2.112-.175-4.311.052-6.488q1.027-9.8,2.155-19.588c.172-1.49.641-2.945.851-4.433.926-6.592,1.811-13.189,2.7-19.785.75-5.541,1.471-11.086,2.256-16.623.148-1.046.551-2.055.8-3.089.818-3.4,4.608-3.806,6.615-2.507a12.737,12.737,0,0,1,2.559,2.3,84.623,84.623,0,0,1,9.791,13.606c6.881,11.922,13.779,23.835,18.786,36.721a39.24,39.24,0,0,0,2.561,4.964c2.7,4.793,5.566,9.5,8.151,14.354,5.81,10.909,12.507,21.275,19.042,31.745,1.73,2.771,3.056,5.795,4.558,8.706s2.709,6.029,4.547,8.714c6.117,8.94,12.432,17.744,18.739,26.553,1.22,1.7,2.739,3.195,4.579,5.312a32.235,32.235,0,0,0,.561-3.644c.314-14.3.469-28.6.916-42.9.561-17.937,1.51-35.848,3.577-53.7,1.123-9.7,1.6-19.475,2.234-29.225a40.835,40.835,0,0,0-.5-6.627,167.3,167.3,0,0,1-.172-25.028c.4-8.164.91-16.312.162-24.5-.247-2.7.373-5.469.564-8.21.376-5.4.753-10.809,1.087-16.216,1.043-16.942,1.33-33.9,1.682-50.872.2-9.656,1.481-19.293,2.34-28.933,1.159-13,2.7-25.976,3.008-39.046.114-4.795.55-9.585.558-14.378.007-4.435-.369-8.871-.565-13.307-.416-9.461.781-18.781,2.227-28.106.9-5.783,1.42-11.638,1.831-17.479a42.027,42.027,0,0,0-1.7-13.959c-1-3.673-.785-4.056,2.831-5.046,1.263-.346,2.552-.6,3.829-.9Zm2.339,98.462a15.618,15.618,0,0,0,2.28-.344,10.92,10.92,0,0,1,6.287.1c4.964,1.355,9.984,2.563,14.834,4.256a45.834,45.834,0,0,1,10.307,4.879,50.582,50.582,0,0,1,11.2,9.708c7.324,8.851,14.353,17.888,19.576,28.16a171.457,171.457,0,0,0,11.243,19.325c2.108,3.076,4.038,6.274,6.1,9.385a23.752,23.752,0,0,0,2.427,3.163c3.641,3.893,7.3,7.771,11.037,11.571a18.931,18.931,0,0,0,3.945,3.126c1.522.881,3.2,1.407,4.085,3.158.271.538,1.1.794,1.815,1.274.292-.947.542-1.689.75-2.441,2.855-10.34,5.005-20.888,9.16-30.845a31.309,31.309,0,0,0,1.777-5.3c.622-2.849,1.072-5.743,1.449-8.635a7.02,7.02,0,0,0-1.779-5.389c-1.636-2.085-2.96-4.415-4.414-6.643-.481-.737-.79-1.737-1.465-2.151-.591-.363-1.582-.076-2.644-.076,1.32-3.04-.128-5.22-1.828-7.4-2.292-2.936-4.618-5.864-6.682-8.961a105.523,105.523,0,0,1-11.682-23.567,117.142,117.142,0,0,0-7.784-17.5,49.242,49.242,0,0,1-3.4-7.221c-3.748-10.631-10.248-19.418-18.029-27.366a80.416,80.416,0,0,0-36.992-21.69c-2.381-.648-4.679-.887-6.686,1.517-.023-2.322-1.2-3.21-2.988-3.464-1.489-.211-2.979-.483-4.477-.553-2.025-.1-2.4.236-2.318,2.26a176.172,176.172,0,0,1-2.057,31.6c-.372,2.646,0,2.986,2.736,3.406,6.051.93,12.115,1.791,18.145,2.841,11.635,2.026,21.733,6.988,29.7,15.909.768.861,1.58,1.685,2.387,2.51,1.615,1.649,3.237,3.291,5.119,3.5a22.842,22.842,0,0,0,1.736,3.686A122.068,122.068,0,0,1-1298,1457.686c1.421,3.727,3.079,7.38,4.864,10.948,4.564,9.13,9.145,18.254,13.943,27.26a37.882,37.882,0,0,0,12.97,14.237,19.188,19.188,0,0,1,2.026,1.766l-3.182,2.861c-4.716-4.637-9.47-9.291-14.19-13.977a10.044,10.044,0,0,1-1.6-2.122c-4.451-7.78-8.9-15.559-13.282-23.379-1.165-2.079-2.294-4.225-2.009-6.776a2.782,2.782,0,0,0-.3-1.287c-2.85-6.775-4.469-14.078-8.709-20.254-1-1.459-1.967-2.943-2.955-4.411-4.117-6.116-8.2-12.254-12.381-18.328a20.194,20.194,0,0,0-3.2-3.527,63.328,63.328,0,0,0-18.155-10.964c-2.356-.982-4.864-2.014-7.605-1.64a6.568,6.568,0,0,1-1.564-.281c-6.069-.773-12.133-1.592-18.214-2.273-2.325-.261-2.5.1-2.754,2.432-.581,5.291-1.257,10.57-1.854,15.858-.169,1.5-.259,3.007-.279,4.512-.037,2.83.039,5.662,0,8.492C-1376.441,1438.68-1376.579,1440.527-1376.682,1442.719Zm-6.936-87.724-.6.129c-.049.944-.16,1.89-.137,2.833.239,9.258-.62,18.461-1.394,27.667-.632,7.521-1.5,15.033-1.838,22.567-.526,11.713-.589,23.448-1.041,35.165-.329,8.52-.872,17.034-1.512,25.536-.359,4.777-1.294,9.511-1.642,14.288-.672,9.212-1.15,18.438-1.634,27.664-.2,3.9-.253,7.807-.316,11.712-.052,3.282.118,6.574-.052,9.85-.485,9.4-1.262,18.792-1.6,28.2-.27,7.54-.02,15.1-.085,22.644-.037,4.165-.006,8.354-.429,12.489a180.717,180.717,0,0,0-.97,28.732,124.456,124.456,0,0,1,.255,13.313c-.491,9.657-1.2,19.3-1.969,28.943-.742,9.3-1.884,18.562-2.472,27.865-.689,10.9-1.095,21.823-1.384,32.743-.169,6.386-.118,12.76-.543,19.158-.5,7.512-.009,15.087-.033,22.635-.017,5.057-.177,10.114-.283,15.17-.023,1.066-.18,2.134-.13,3.193.084,1.8.673,2.34,2.455,2.395,1.6.048,3.2.11,4.795.052a16.67,16.67,0,0,0,2.44-.4c-.108-4.687-.2-9.02-.311-13.353-.018-.71-.109-1.418-.125-2.128-.073-3.369-.1-6.74-.2-10.109-.13-4.253-.129-8.521-.527-12.75-.568-6.018-1.209-12.013-.821-18.077.333-5.229.492-10.471.767-15.7.317-6.027.679-12.051,1.016-18.077a3.022,3.022,0,0,0-1.02-2.823c-1.486-1.269-1.509-1.855-.286-3.373a4.622,4.622,0,0,0,1.018-3.169q0-6.259.171-12.518c.164-5.773.467-11.54.6-17.313.157-6.925.192-13.854.288-20.781.042-3.109.068-6.219.168-9.328a6.165,6.165,0,0,0-1.12-3.987c-1.411-2-1.552-4.321-1.322-7.03,1.5,1.421.817,3.472,2.432,4.984-.157-35.768,2.734-70.919,4.354-106.125a.28.28,0,0,0-.1-.221c-.067-.039-.172-.009-.4-.009-.493,1.265-1.01,2.586-1.527,3.907l-.546-.191a15.84,15.84,0,0,1,1.549-7.653,11.664,11.664,0,0,0,.7-10.708,8.682,8.682,0,0,1,.4-7.726,7.2,7.2,0,0,0,.615-3.346c.02-4.264-.105-8.528-.115-12.792-.007-2.753-.012-5.512.169-8.255.413-6.287,1.022-12.561,1.4-18.851.421-7,.69-14.017,1-21.028q.553-12.641,1.056-25.284c.336-8.7.569-17.4.952-26.09.292-6.656.777-13.3,1.11-19.958C-1382.331,1358.013-1382.361,1356.308-1383.618,1354.995Zm57.427,319.963c.784-1.859,1.384-3.535,2.191-5.1a10.719,10.719,0,0,1,2.152-2.993,13.6,13.6,0,0,0,4.072-6.451c1.934-7.044,4.978-13.666,7.662-20.421,2.191-5.517,4.758-10.885,7.09-16.349,1.145-2.68,2.143-5.424,3.185-8.148a2.652,2.652,0,0,0-.946-3.11c-1.641,1.4-2.256,3.265-2.945,5.064-2.252,5.884-4.25,11.875-6.744,17.653-3.09,7.164-6.642,14.128-9.881,21.231-7.187,15.754-14.557,31.41-23.823,46.084-1.372,2.174-2.91,4.242-4.343,6.379-2.071,3.088-4.181,6.153-6.147,9.307-1.312,2.1-2.367,4.37-3.606,6.523a6.132,6.132,0,0,0-1.082,3.465,5.407,5.407,0,0,1-2.087,4.3l-.9-1.615c-.564.829-1.029,1.466-1.446,2.132q-7.069,11.284-14.126,22.577c-2.544,4.064-5.189,8.066-7.609,12.2a89.729,89.729,0,0,0-4.43,8.777,5.581,5.581,0,0,0-.166,5.2c1.2-2.3,2.144-4.515,3.445-6.493,4.882-7.414,9.9-14.739,14.832-22.12,4.29-6.417,8.578-12.838,12.788-19.308q4.065-6.249,7.881-12.659a23.572,23.572,0,0,0,2.716-5.735,23.745,23.745,0,0,1,4.832-8.784,8.254,8.254,0,0,1,1.333-1.028v2.621c3.356-5.224,7.212-10.023,9.2-15.886a33.289,33.289,0,0,1,5.113-9.877,52.988,52.988,0,0,0,3.619-6.2Zm-185.233,2.7c1.23-.7,2.089-1.107,2.858-1.641q9.723-6.746,19.413-13.536c2.379-1.667,2.329-1.9,1.019-4.539-3.5-7.062-6.915-14.166-10.371-21.249-1.437-2.945-2.874-5.889-4.355-8.811a11.755,11.755,0,0,0-1.265-1.657,9.919,9.919,0,0,0-2.25,5.807q-2.172,19.019-4.269,38.047C-1510.908,1672.441-1511.131,1674.8-1511.425,1677.662Zm50.939,13.285c-.594-1.332-.922-2.134-1.3-2.91-2.52-5.186-5.025-10.379-7.582-15.547-11.31-22.865-13.554-29.968-30.192-53.123-.566-.788-.9-1.756-1.534-2.475a1.644,1.644,0,0,0-1.539-.361,3.454,3.454,0,0,0-.817,1.686c-.06.187.179.485.31.715,2.668,4.707,5.311,9.429,8.018,14.113,3.464,5.99,6.944,11.972,10.509,17.9a9.572,9.572,0,0,0,2.558,2.57,3.236,3.236,0,0,1,1.411,2.367,10.6,10.6,0,0,0,1.243,3.671c2.806,4.832,5.821,9.543,8.582,14.4,2.5,4.394,4.755,8.924,7.143,13.381A7.754,7.754,0,0,0-1460.486,1690.947Zm53.849,91.8c1.134-3.281,2.359-5.934.5-8.624-3.28-4.738-6.567-9.482-10.082-14.047-6.541-8.5-13.6-16.594-18.692-26.146a52.651,52.651,0,0,0-5.341-7.275,5.034,5.034,0,0,1-1.231-2.831,7.373,7.373,0,0,0-1-3.182c-1.735-2.784-3.629-5.467-5.481-8.177-.288-.422-.677-.776-1.443-1.638a25.031,25.031,0,0,0,.893,3.365c1.5,3.4,2.741,6.974,4.7,10.091,5.712,9.077,11.3,18.26,18.253,26.489a31.6,31.6,0,0,1,3.288,4.51c4.7,8.135,9.324,16.319,13.973,24.487C-1407.84,1780.582-1407.389,1781.4-1406.637,1782.745Zm102.337-117.053c1.408-2.507,1.834-5.045,2.761-7.373q1.425-3.578,2.74-7.2c.853-2.333,1.933-4.6,2.227-7.139a6.144,6.144,0,0,0-1.478,2.13c-.978,2.183-1.925,4.378-2.871,6.575-1.332,3.09-2.689,6.172-3.96,9.288C-1305.323,1663.054-1306.031,1664.258-1304.3,1665.692Zm2.431,1.431.892.268q.965-2.4,1.928-4.8.985-2.464,1.958-4.931c.649-1.644,1.36-3.269,1.909-4.947.513-1.568,1.743-2.974,1.14-4.847A57.463,57.463,0,0,0-1301.869,1667.124Zm13.168-1.3a13.157,13.157,0,0,0-1.32,2.27,52.355,52.355,0,0,0-1.585,5.56c-.2.908.523,1.47,1.389,1.621.885.154,1.2-.431,1.42-1.2.341-1.182.823-2.321,1.2-3.495C-1287.071,1668.908-1286.929,1667.294-1288.7,1665.821Zm-20.7-2.381c-.167-4.381,2.848-7.935,2.534-12.232-2.207,3.285-3.233,7.007-4.3,10.7C-1311.428,1662.828-1310.845,1663.386-1309.4,1663.44Zm15.144-4.293c-.664.525-1.151.715-1.285,1.046-.978,2.436-1.945,4.88-2.767,7.371-.178.54.243,1.278.389,1.925C-1296.264,1666.21-1294.584,1663.124-1294.256,1659.147Zm-8.746-8.993c2.29-4.555,4.618-9.091,5.842-14.07A47.68,47.68,0,0,0-1303,1650.154Zm17.852,23.163c-.923,1.766-1.624,3.136-.961,4.545.582,1.241,1.922,1.576,3.626,1.5C-1283.373,1677.355-1284.146,1675.6-1285.151,1673.317Zm-5.752-10.961-.568-.406c-1.511,2.907-2.966,5.835-3.366,9.155l.546.209Q-1292.6,1666.834-1290.9,1662.356Zm-92.367-215.742.617-.044c.471-1.289.682-2.558-.617-3.732Zm91.236,208.346c-1.391.651-2.4,1.493-1.622,3.213Zm-91.14-218.258.255.023v-2.249l-.255,0Zm78.743,198.4.611.215q.318-.918.639-1.834l-.6-.209Z" transform="translate(1720.327 -1344.257)" fill="#fefbf7"/>
      <path id="Path_704" data-name="Path 704" d="M-1281.628,1772.705c-1.173-.534-1.859-.873-2.563-1.162-6.782-2.776-13.881-4.2-21.1-5.322-19.485-3.024-39.094-3.245-58.736-2.988-10.038.131-20.085.006-30.112.422-13.125.544-26.275.943-39.3,2.939a32.144,32.144,0,0,1-3.456.181c-3.192.14-6.385.376-9.577.388-2.925.011-5.86-.114-8.773-.362-10.356-.887-20.533-2.964-30.753-4.743-4.7-.818-8.871-3.047-12.922-5.477-.924-.554-1.923-1.119-1.637-2.446.264-1.227,1.283-1.575,2.363-1.84,4.048-.992,8.081-2.048,12.135-3.013,11.821-2.818,23.637-5.658,35.487-8.35a22.83,22.83,0,0,1,6.361-.307,73.067,73.067,0,0,0,16.727-.819,21.056,21.056,0,0,1,3.455-.142c.784,0,1.792-.092,1.938.937.174,1.231-.988,1.341-1.8,1.522-1.99.445-3.995.87-6.015,1.135-7.305.955-14.628,1.777-21.929,2.767-9.58,1.3-19.237,2.2-28.589,4.817a85.63,85.63,0,0,0-8.236,3,40.287,40.287,0,0,0-3.684,1.94c4.676,2.08,8.959,3.839,13.584,4.569,5.345.844,10.7,1.659,16.063,2.348a96.044,96.044,0,0,0,10.077.854,265.647,265.647,0,0,0,32.192-1.382c7.332-.728,14.7-1.058,22.045-1.709,6.1-.541,12.18-1.309,18.274-1.933a33.778,33.778,0,0,1,3.719-.069c3.724.032,7.447.163,11.169.117,6.393-.078,12.8-.625,19.174-.3,7.791.392,15.543,1.533,23.321,2.243,6.095.555,12.208.92,18.308,1.418a64.167,64.167,0,0,1,25.96,8.151,8.656,8.656,0,0,1,2.746,2.794c.9,1.337.492,2.354-1.037,2.9a25.255,25.255,0,0,1-3.37.743c-4.862,1.017-9.721,2.043-14.586,3.047-9.51,1.959-19.155,2.667-28.826,3.2a86.864,86.864,0,0,0-20.909,3.776,23.766,23.766,0,0,0-2.334.991q.012.318.023.636a22.812,22.812,0,0,0,3.439.873c6.979.674,13.972,1.209,20.948,1.913a50.845,50.845,0,0,0,13.533-.458,16.048,16.048,0,0,1,3.969-.086,1.685,1.685,0,0,1,1.69,1.979c-.143,1.19-.971,1.48-2.106,1.513-3.9.118-7.8.318-11.692.517-3.733.191-7.447.319-11.119-.669a10.962,10.962,0,0,0-3.167-.261,98.964,98.964,0,0,1-18.282-1.609,12.444,12.444,0,0,1-6.276-3.3c-1.27-1.11-1.314-2.276-.042-3.425a6.933,6.933,0,0,1,3.149-1.8q6.542-1.15,13.158-1.881c5.292-.6,10.6-1.028,15.906-1.5,7.517-.674,15.075-1.043,22.542-2.072,5.511-.759,10.914-2.326,16.344-3.624A16.582,16.582,0,0,0-1281.628,1772.705Z" transform="translate(1722.01 -1300.28)" fill="#fefbf7"/>
      <path id="Path_705" data-name="Path 705" d="M-1405.735,1722.966a7.23,7.23,0,0,1-6.087,2.476c-6.931-.043-13.86-.089-20.791-.078-7.819.012-15.646-.128-23.453.193s-15.579,1.18-23.373,1.711c-7.621.518-15.255.85-22.873,1.392-7.7.548-15.407,1.156-23.092,1.92-6.714.667-13.415,1.5-20.1,2.423-4.745.656-9.456,1.554-14.174,2.392-9.089,1.614-18.158,3.336-27.259,4.875-10.327,1.747-20.708,3.186-31.01,5.059-6.453,1.175-12.844,2.756-19.194,4.412-18.14,4.729-36.56,8.086-54.967,11.522-1.57.293-3.134.628-4.709.887-1.1.181-2.387.717-2.947-.841-.369-1.029.422-1.665,2.5-2.063,4.62-.886,9.23-1.836,13.869-2.6,17.877-2.964,35.5-7.115,53.051-11.551,10.784-2.726,21.761-4.3,32.694-6.146q25.471-4.3,50.985-8.343c6.575-1.029,13.221-1.6,19.84-2.347,6.529-.738,13.06-1.469,19.6-2.138,4.132-.422,8.273-.768,12.416-1.07q13.008-.948,26.024-1.8c2.569-.169,5.147-.191,7.721-.288,5.057-.19,10.113-.451,15.171-.556,4.525-.093,9.056.037,13.583-.027,5.059-.07,10.118-.32,15.177-.353,3.449-.023,6.9.185,10.349.317C-1406.565,1722.345-1406.355,1722.585-1405.735,1722.966Z" transform="translate(1699.851 -1302.242)" fill="#fefbf7"/>
      <path id="Path_706" data-name="Path 706" d="M-1211.467,1707.159c-7.168.484-14.333,1.271-21.507,1.374a257.063,257.063,0,0,0-26.264,2.02c-8.192.962-16.366,2.3-24.586,2.731-8.465.443-16.665,2.525-25.066,3.186-3.007.237-6.04.23-9.028.593-6.164.749-12.292,1.791-18.461,2.491-6.52.74-13.068,1.215-19.6,1.826-2.028.189-4.064.359-6.072.683q-9.583,1.553-19.145,3.234c-1.306.228-2.566.71-3.869.963-.868.169-2,.257-2.208-.84a2.611,2.611,0,0,1,.958-1.94,8.506,8.506,0,0,1,5.615-2.147c6.25.036,12.357-1.171,18.512-1.968,8.094-1.048,16.18-2.16,24.288-3.095,14.631-1.688,29.282-3.211,43.911-4.92a122.2,122.2,0,0,0,13.647-2.243,129.841,129.841,0,0,1,21.6-2.909c9.125-.566,18.268-1.111,27.4-1.107,6.622,0,13.243.915,19.864,1.42Z" transform="translate(1734.614 -1304.124)" fill="#fefbf7"/>
      <path id="Path_707" data-name="Path 707" d="M-1527.719,1725.508c-1.453,1.992-2.147,2.187-3.81.89-2.9-2.259-3.972-5.419-3.932-8.93.048-4.177,1.86-7.905,3.445-11.658a3.659,3.659,0,0,1,1.477-1.477c2.346-1.434,4.7-2.855,7.124-4.154a19.141,19.141,0,0,1,8.2-2.036c1.55-.081,3.086-.448,4.878-.725-.868-2.633-1.651-4.888.052-7.111,1.616-2.108,3.981-2,6.4-2.166a41.525,41.525,0,0,1,1.826-17.273,88.848,88.848,0,0,1,3.683-9.4,8.219,8.219,0,0,1,2.087-2.719c10.706-9.531,25.191-3.075,29.216,6.555.068.163.12.334.179.5.347.982.521,2-.584,2.567-1.231.629-1.764-.363-2.219-1.244a20.876,20.876,0,0,0-6.423-7.355,12.924,12.924,0,0,0-11.859-2.034,13.112,13.112,0,0,0-9.169,9.2q-1.195,3.8-2.3,7.628a19.818,19.818,0,0,0,.817,12.786c.748,1.992,1.66,3.935,2.239,5.974.331,1.167,1.112,2.717-.417,3.624-1.478.875-2.13-.678-3.073-1.378a14.306,14.306,0,0,0-2.908-1.795,1.953,1.953,0,0,0-2.519.919,1.878,1.878,0,0,0,.341,2.425,20.943,20.943,0,0,1,1.48,1.52c.42.6.987,1.371.906,1.991-.144,1.095-1.246,1.053-2.144,1.065-1.331.017-2.665-.019-3.995.044a27.852,27.852,0,0,0-20.025,9.143c-4.6,5.018-4.435,9.435.558,14.036A4.979,4.979,0,0,1-1527.719,1725.508Z" transform="translate(1718.134 -1309.8)" fill="#fefbf7"/>
      <path id="Path_708" data-name="Path 708" d="M-1306.679,1692.854c.889.208,1.746.4,2.6.608a11.808,11.808,0,0,1,6.866,4.283c1.8,2.341,1.916,4.48.122,6.83a52.61,52.61,0,0,1-4.449,4.942,4.518,4.518,0,0,1-4.424,1.177c-3.285-.71-6.585-1.356-9.872-2.058-1.009-.216-1.957-.657-1.78-1.911.159-1.133,1.18-1.272,2.063-1.236,1.057.043,2.1.356,3.157.446a37.871,37.871,0,0,0,5.3.281c3.116-.176,5.261-1.978,6.647-4.666.865-1.677.4-2.745-1.41-3.224a9.877,9.877,0,0,0-3.41-.308c-2.027.2-4.033.618-6.046.954-.7.116-1.388.305-2.09.371-.872.082-2.007.3-2.3-.748a3.144,3.144,0,0,1,.473-2.393c1.209-1.638,2.637-3.115,3.983-4.652,1.461-1.671,3.039-3.255,4.368-5.025,3.158-4.207,1.341-8.34-3.885-8.98a19.01,19.01,0,0,0-2.661-.088c-2.576.049-5.149.146-7.725.193-1.145.021-2.381.171-3.049-1.1-.689-1.311.644-1.818,1.077-2.7a61.344,61.344,0,0,0,2.566-6.068,1.509,1.509,0,0,0-1.376-2.128,13.127,13.127,0,0,0-4.413.324,27.822,27.822,0,0,0-4.3,2.063,7.408,7.408,0,0,1-1.927.839,1.526,1.526,0,0,1-1.7-2.175c.471-1.038,1.285-1.916,1.806-2.936a48.563,48.563,0,0,0,2.918-6.224c.716-2.094-.2-2.836-2.335-2.147-3.329,1.075-5.685,3.551-8.183,5.808-.326.293-.507.819-.87.984-.508.229-1.363.49-1.638.248a2.04,2.04,0,0,1-.635-1.751,6.645,6.645,0,0,1,1.853-2.858c2.616-1.96,5.375-3.737,8.136-5.494a7.313,7.313,0,0,1,2.507-.851,3.967,3.967,0,0,1,5,3.2,21.773,21.773,0,0,1,.359,3.7c.053.948.011,1.9.011,3.056.9,0,1.5.013,2.1,0a6.556,6.556,0,0,1,6.234,3.783,4.455,4.455,0,0,1,.269,4.324,11.8,11.8,0,0,0-.509,1.229c-.827,2.434-.5,2.87,2.083,3.159,2.991.334,6.01.5,8.823,1.8,4.145,1.906,5.385,4.5,3.973,8.8a30.824,30.824,0,0,1-1.839,4.421C-1304.9,1690.268-1305.8,1691.478-1306.679,1692.854Z" transform="translate(1739.511 -1310.099)" fill="#fefbf7"/>
      <path id="Path_709" data-name="Path 709" d="M-1425.92,1648.912c.884-.12,1.571-.192,2.251-.308a5.965,5.965,0,0,1,7.05,3.838,15.483,15.483,0,0,1,.938,8.373c-.537,3.676-1.29,7.32-2.023,11.379a6.981,6.981,0,0,1-1.439-4.8c.04-1.767.414-3.526.454-5.294a27.569,27.569,0,0,0-.263-5.816c-.509-2.629-2.148-3.506-4.724-2.776a37.552,37.552,0,0,0-3.949,1.551c-.82.337-1.6.8-2.439,1.053-1.87.556-2.79-.35-2.246-2.2.325-1.1.911-2.137,1.173-3.25a13.1,13.1,0,0,0,.423-3.666c-.141-2.535-1.241-3.062-3.2-1.554a23.08,23.08,0,0,0-2.787,2.821c-.356.387-.553.915-.892,1.32a2.2,2.2,0,0,1-2.638.7c-1.068-.41-.952-1.353-.854-2.261.284-2.647.649-5.289.793-7.943a9.7,9.7,0,0,0-.538-3.6c-.51-1.481-1.021-1.682-2.426-1.02a36.79,36.79,0,0,0-4.6,2.612c-1.965,1.3-2.611,1.215-3.765-.826-.174-.309-.284-.654-.473-.952-.99-1.568-2.383-1.751-3.729-.43a6.342,6.342,0,0,0-1.739,4.35c-.075,1.327.061,2.667-.035,3.992-.039.529-.409,1.434-.7,1.462-.6.059-1.581-.183-1.8-.61a8.388,8.388,0,0,1-1.039-3.491,12.627,12.627,0,0,1,2.756-8.165c1.985-2.527,4.044-2.931,6.692-1.094a4.257,4.257,0,0,0,5.357.118,12.534,12.534,0,0,1,4.681-1.728c3.5-.548,5.845,1.559,5.909,5.106.031,1.662-.149,3.328-.247,5.237,1.431-.289,2.692-.595,3.971-.793,3.749-.583,5.28.553,5.776,4.324C-1426.062,1645.945-1426.031,1647.35-1425.92,1648.912Z" transform="translate(1726.4 -1312.41)" fill="#fefbf7"/>
      <path id="Path_710" data-name="Path 710" d="M-1358.441,1629.44c-.555.508-.895.786-1.195,1.1-.682.718-1.324,1.553-2.459.764a2.5,2.5,0,0,1-1.2-2.955,29.614,29.614,0,0,0,1.137-5.183,26.3,26.3,0,0,0-.241-5.54,2.89,2.89,0,0,0-2.933-2.6c-8.193-.537-14.163,2.268-16.273,10.033a71.306,71.306,0,0,0-1.333,8.629c-.073.522.135,1.141-.077,1.574-.318.651-.8,1.5-1.382,1.666a2.969,2.969,0,0,1-2.061-.694c-.469-.328-.668-1.026-1.026-1.532-1.019-1.443-1.943-1.807-3.095-1.25s-1.445,1.478-1.023,3.216c.163.676.371,1.341.525,1.887a3.737,3.737,0,0,1-.367.605c-1.892,1.895-3.228,1.63-4.528-1.284-.036-.081-.05-.17-.08-.253-1.738-4.863,1.243-8.384,6.359-7.49.858.15,1.694.423,2.569.647a4.873,4.873,0,0,0,1.268-3.465,17.041,17.041,0,0,1,4.742-10.457,36.1,36.1,0,0,1,11.629-8.294c5.156-2.381,10.134.173,11.435,5.74a13.225,13.225,0,0,1,.114,6.051,6.337,6.337,0,0,0,5.874,7.516c4.757.246,5.754,1.816,3.956,6.335-.781,1.964-1.462,4.057-4.1,4.656a7.889,7.889,0,0,1,.131-1.614c.28-.931.663-1.833,1.015-2.742,1.35-3.491,1.077-3.909-2.457-3.339A4.908,4.908,0,0,1-1358.441,1629.44Z" transform="translate(1733.585 -1314.959)" fill="#fefbf7"/>
      <path id="Path_711" data-name="Path 711" d="M-1446.616,1720.686c.585.08,1.166.2,1.752.231a3.287,3.287,0,0,0,3.546-3.171,1.616,1.616,0,0,0-1.727-1.9,18.99,18.99,0,0,0-3.112.5c-2.173.385-3.251-.781-2.609-2.907.429-1.421,1.217-2.787.238-4.618-.77.177-1.589.348-2.4.555a13.92,13.92,0,0,1-1.777.515c-1.287.15-1.842-.367-1.789-1.641a11.528,11.528,0,0,1,.333-1.828,14.29,14.29,0,0,0-1.076-8.583c-1.177-2.794-3.6-4.1-6.521-4.356-2.737-.242-4.725,1.538-4.888,4.455-.169,3.009-.058,6.032-.117,9.049a10.027,10.027,0,0,1-.324,2.614,2.044,2.044,0,0,1-2.231,1.516c-1.009-.041-1.259-.775-1.537-1.562-.788-2.233-1.455-2.609-3.172-1.884-1.839.777-2.548,2.325-1.722,4.079.449.95,1.231,1.742,1.7,2.687a4.436,4.436,0,0,1,.1,1.676c-.649-.008-1.433.221-1.924-.062-2.208-1.273-4.709-7.163-4.225-9.651a4.379,4.379,0,0,1,4.247-3.382,51.321,51.321,0,0,1,5.287.372c.117-.931.258-1.859.342-2.792.1-1.058.068-2.132.22-3.179.65-4.487,2.6-6.488,7.056-7.474a5.136,5.136,0,0,1,4.959,1.052c.85.776,1.811,1.431,2.661,2.206a12,12,0,0,1,4.2,9.134c.022,3.016.56,3.5,3.5,3.851,1.823.219,2.139.558,2.119,2.314,0,.353-.083.706-.09,1.06-.06,3.048.111,3.263,3.138,3.568,1.815.182,3.263.872,3.92,2.68a5.683,5.683,0,0,1-1.609,5.838,4.855,4.855,0,0,1-5.206.962c-.612-.257-1.026-.986-1.53-1.5Z" transform="translate(1724.284 -1305.832)" fill="#fefbf7"/>
      <path id="Path_712" data-name="Path 712" d="M-1359.722,1702.728c.838-.534,1.485-1,2.177-1.381,1.958-1.081,3.481-1.036,4.643.854,1.973,3.211,4.422,4.394,7.991,3.047a1.354,1.354,0,0,1,.527-.054c1.61.083,3.344.128,4.236,1.7.939,1.656-.1,3.064-1.07,4.361a15.666,15.666,0,0,1-6.782,4.975c1.2-3.089,4.69-4.363,5.244-7.729-2.261-.72-4.216-.049-6.12.879a18.54,18.54,0,0,1-2.308,1.294,2.783,2.783,0,0,1-2.179-.054c-.461-.366-.547-1.383-.539-2.112.008-.77.55-1.569.448-2.3a2.935,2.935,0,0,0-2.448-2.764c-.5.538-1.112,1.147-1.672,1.8a17.752,17.752,0,0,1-1.685,2.048c-.559.476-1.435,1.045-2,.9-.528-.13-.916-1.112-1.216-1.785-.207-.465-.028-1.113-.261-1.552-.25-.471-.791-1.113-1.183-1.1a1.845,1.845,0,0,0-1.294,1.052c-.274.717-.125,1.587-.33,2.345-.116.436-.626,1.125-.873,1.089a2.058,2.058,0,0,1-1.389-.886,4.84,4.84,0,0,1,1.109-5.6c1.759-1.543,3.3-1.557,5.523-.046C-1360.744,1702.008-1360.315,1702.314-1359.722,1702.728Z" transform="translate(1736.729 -1304.625)" fill="#fefbf7"/>
      <path id="Path_713" data-name="Path 713" d="M-1380.564,1685.824c-.268-1.772.8-2.856,1.381-4.1,1.179-2.526.782-3.893-1.493-5.412a1.8,1.8,0,0,0-2.769.366c-1.036,1.331-2.058,2.674-3.1,4a15.671,15.671,0,0,1-1.391,1.612c-1.444,1.387-2.317,1.239-3.3-.541a7.715,7.715,0,0,0-.8-1.662c-.422-.44-1.22-.983-1.639-.842a2.249,2.249,0,0,0-1.076,1.581,8.247,8.247,0,0,0,.217,2.3c-2.127.927-2.723.722-3-1.186a14.736,14.736,0,0,1-.122-3.958c.212-1.641,1.112-2.318,2.775-2.211a17.476,17.476,0,0,1,3.375.69c2.838.767,3.01.754,4.575-1.639a5.26,5.26,0,0,1,3.031-2.416c3.682-1.05,4.919-.5,6.429,3.03.28.652.553,1.308.8,1.975,1.353,3.7.431,6.388-2.9,8.4C-1379.765,1685.922-1380.079,1685.824-1380.564,1685.824Z" transform="translate(1733.452 -1307.813)" fill="#fefbf7"/>
      <path id="Path_714" data-name="Path 714" d="M-1252.741,1722.627l2.915-1.98.464.308c-.592,1.822-1.107,3.677-1.829,5.447a2.324,2.324,0,0,1-1.567,1.04,18.905,18.905,0,0,1-3.2.046c-.541-.321-.356-1.063-.151-1.878,1.166-4.655,1.443-5.229,3.713-6.8C-1252.52,1720.2-1252.622,1721.319-1252.741,1722.627Z" transform="translate(1749.182 -1302.599)" fill="#fefbf7"/>
      <path id="Path_715" data-name="Path 715" d="M-1438.139,1774.162c-1.53-.807-3.684-.209-4.15-2.857-.6-3.391,2.156-3.187,4.15-4.23Z" transform="translate(1728.488 -1297.231)" fill="#fefbf7"/>
      <path id="Path_716" data-name="Path 716" d="M-1504.217,1734.839l.869,1.7,2.23-1.312a5.694,5.694,0,0,1-.365,4.954c-.293.591-1.721.885-2.593.816-.468-.039-1.139-1.106-1.209-1.762C-1505.426,1737.906-1505.807,1736.418-1504.217,1734.839Z" transform="translate(1721.475 -1300.816)" fill="#fefbf7"/>
      <path id="Path_717" data-name="Path 717" d="M-1306.943,1724.819c.647,3.817.427,8.948-.4,10.463-1.375-.98-1.551-1.777-1.42-6.412C-1308.692,1726.29-1308.48,1725.772-1306.943,1724.819Z" transform="translate(1743.344 -1301.93)" fill="#fefbf7"/>
      <path id="Path_718" data-name="Path 718" d="M-1304.034,1736.293c-.666-.8-1.214-1.161-1.3-1.611a7.737,7.737,0,0,1,3.275-8.141c-.4,1.517-.871,3.02-1.191,4.554C-1303.553,1732.551-1303.7,1734.037-1304.034,1736.293Z" transform="translate(1743.71 -1301.739)" fill="#fefbf7"/>
      <path id="Path_719" data-name="Path 719" d="M-1506.453,1774.635c-3.611-1.943-5.021-4.83-4.409-9.274Z" transform="translate(1720.855 -1297.422)" fill="#fefbf7"/>
      <path id="Path_720" data-name="Path 720" d="M-1298.1,1756.1c.107.286.295.536.272.765-.161,1.641-.333,3.283-.575,4.914a1.417,1.417,0,0,1-.632.992,1.228,1.228,0,0,1-1.142-.249,4.522,4.522,0,0,1-.284-4.054C-1300.145,1757.317-1299.765,1756.046-1298.1,1756.1Z" transform="translate(1744.233 -1298.452)" fill="#fefbf7"/>
      <path id="Path_721" data-name="Path 721" d="M-1294.6,1755.175c.322,2.7-.738,4.5-2.147,6.341C-1297.556,1758.935-1297.3,1758.135-1294.6,1755.175Z" transform="translate(1744.64 -1298.554)" fill="#fefbf7"/>
      <path id="Path_722" data-name="Path 722" d="M-1386.9,1791.265c-.88-1.963-1.08-3.531.289-5.074C-1384.877,1788.121-1384.893,1789.357-1386.9,1791.265Z" transform="translate(1734.58 -1295.105)" fill="#fefbf7"/>
      <path id="Path_723" data-name="Path 723" d="M-1499.714,1775.026c-1.578-1.887-1.177-3.374-.561-5.272C-1498.941,1771.436-1499.346,1772.928-1499.714,1775.026Z" transform="translate(1721.988 -1296.933)" fill="#fefbf7"/>
      <path id="Path_724" data-name="Path 724" d="M-1381.294,1790.774c-2.081-1.583-2.081-1.583-.944-3.767C-1381.925,1788.258-1381.689,1789.2-1381.294,1790.774Z" transform="translate(1735.091 -1295.014)" fill="#fefbf7"/>
      <path id="Path_725" data-name="Path 725" d="M-1334.871,1416.933a8.1,8.1,0,0,1,1.319-6.91c.389.3.869.516.858.7C-1332.825,1412.8-1333.707,1414.617-1334.871,1416.933Z" transform="translate(1740.417 -1336.943)" fill="#fefbf7"/>
      <path id="Path_726" data-name="Path 726" d="M-1412.946,1724.8c0-1.649-.058-3.3.047-4.942.022-.346.645-.652.99-.977.318.352.947.751.9,1.049C-1411.263,1721.628-1411.154,1723.462-1412.946,1724.8Z" transform="translate(1731.759 -1302.59)" fill="#fefbf7"/>
      <path id="Path_727" data-name="Path 727" d="M-1409.025,1668.908c1.668,2.095,1.668,4.618.092,7.547A34.482,34.482,0,0,1-1409.025,1668.908Z" transform="translate(1732.178 -1308.149)" fill="#fefbf7"/>
      <path id="Path_728" data-name="Path 728" d="M-1411.921,1728.535a9.863,9.863,0,0,1,.652,6.238C-1412.617,1732.5-1412.742,1731.48-1411.921,1728.535Z" transform="translate(1731.818 -1301.517)" fill="#fefbf7"/>
      <path id="Path_729" data-name="Path 729" d="M-1406.31,1580.1a9.649,9.649,0,0,1-.051,4.917l-.548-.022v-4.9Z" transform="translate(1732.432 -1318.027)" fill="#fefbf7"/>
    </g>
    <path id="Path_731" data-name="Path 731" d="M-299.039,1769.48a45.7,45.7,0,0,1,1.436-5.26,16.485,16.485,0,0,0,1.186-6.589q-.118-5.537-.062-11.079a10.383,10.383,0,0,1,2.423-7.1,6.928,6.928,0,0,1,9.915-.869,4.661,4.661,0,0,0,3.9,1.063c6.47-.643,12.608.97,18.514,3.677a32.167,32.167,0,0,1,9.11,6.411,5.709,5.709,0,0,0,2.124,1.5c4.64,1.386,7.51,4.932,9.922,9.108,3.373,5.84,6.616,11.776,10.2,17.462a144.271,144.271,0,0,1,13.382,28.177,108.869,108.869,0,0,0,20.166,34.132c1.308,1.526,2.107,3.55,3.212,5.291a8.119,8.119,0,0,0,1.89,2.335c5.442,3.83,6.791,9.292,3.609,15.383a4.877,4.877,0,0,0-.186,4.56,10.123,10.123,0,0,1,.481,3.862c-.016,1.649-.389,3.295-.391,4.943a5.548,5.548,0,0,1-2.248,4.856,15.832,15.832,0,0,1-3.913,1.98,4.694,4.694,0,0,1-5.651-1.841c-2.078-2.812-4.072-5.694-6.147-8.51-3.912-5.308-7.646-10.793-11.839-15.833-5.381-6.468-9.808-13.624-14.229-20.827a95.05,95.05,0,0,1-8.285-16.381,44.209,44.209,0,0,0-8.1-13.553c-3.214-3.7-6.408-7.437-9.793-10.954-1.291-1.341-3.091-2.115-4.656-3.151a49.1,49.1,0,0,1-5.841-3.946c-3.146-2.807-6.479-4.919-10.629-5.384a31.428,31.428,0,0,1-3.987-1.069c-2.2-.554-4.39-1.2-6.618-1.57C-295.146,1779.465-298.791,1775.011-299.039,1769.48Z" transform="translate(1382.963 -231.616)" fill="#fefbf7"/>
  </g>
</svg>
