<svg xmlns="http://www.w3.org/2000/svg" width="283.467" height="159.229" viewBox="0 0 283.467 159.229">
  <g id="Group_117" data-name="Group 117" transform="translate(1438.343 115.616)">
    <path id="Path_1047" data-name="Path 1047" d="M-1245.511-98.67c-.843,2.5-2.072,3.98-4.162,4.675a3.33,3.33,0,0,0-1.132.734c-4.488,4.116-9.273,7.913-13.354,12.463a15.385,15.385,0,0,0-1.218,1.624c-1.911,2.8-3.877,5.562-5.694,8.42a28.822,28.822,0,0,0-3.908,8.572,45.36,45.36,0,0,1-2.619,7.318,53.055,53.055,0,0,0-3.423,12.006c-.951,5.228-1.3,10.506-1.862,15.771-.626,5.912.741,11.463,2.735,16.9A66.664,66.664,0,0,0-1265.805,12.6c4.186,4.446,8.959,8.285,14.88,10.381,2.125.752,4.142,1.83,6.291,2.486a69.347,69.347,0,0,0,21.723,2.886,39.247,39.247,0,0,0,15.779-3.33c5.625-2.582,11.268-5.206,16.089-9.233,1.47-1.229,3.048-2.329,4.564-3.5a45.17,45.17,0,0,0,9.769-10.709c2.388-3.558,4.76-7.127,7.227-10.63a28.118,28.118,0,0,0,2.971-6.43,98.663,98.663,0,0,0,5.071-17.173c-2.307-1.6-4.525-3.112-6.719-4.661a2.534,2.534,0,0,0-2.564-.235c-1.994.776-4.049,1.425-5.964,2.361-1.864.911-3.917.981-5.812,1.657-2.658.949-5.29,1.971-7.933,2.961a11.008,11.008,0,0,1-1.272.462,34.328,34.328,0,0,0-8.6,3.043c-.748.407-1.547.4-1.932-.821,1.734-1.473,4.009-1.736,6.066-2.5,2-.743,4.035-1.424,5.985-2.286,2.041-.9,4.5-.711,6.446-2.466a5.037,5.037,0,0,0-.83-.962c-6.485-4.3-12.915-8.7-19.5-12.835-4.3-2.7-8.806-5.057-13.262-7.493-2.971-1.625-5.975-3.2-9.04-4.642-2.031-.954-4.2-1.625-6.317-2.429-3.215,1.572-6.33,3.144-9.489,4.623-2.346,1.1-4.765,2.038-7.12,3.117-4,1.832-7.957,3.772-11.98,5.557-2.058.913-4.239,1.547-6.336,2.38-2.828,1.124-5.635,2.3-8.436,3.49a3.112,3.112,0,0,1-3.56-.353,4.538,4.538,0,0,1,2.285-2.365,23.093,23.093,0,0,1,3.828-1.332c4.7-.99,8.937-3.131,13.227-5.143q10.272-4.815,20.513-9.694c1.625-.771,3.217-1.611,4.8-2.407a64.159,64.159,0,0,0,.215-8.618c-.447-4.6-.533-9.237-.746-13.859a18.893,18.893,0,0,1,.134-2.066c.444.039.879-.057,1.043.111a102.279,102.279,0,0,0,10.893,9.644,7.084,7.084,0,0,1,.875.955,2.259,2.259,0,0,1-1.283,1.882c-2.456,1.125-4.85,2.385-7.3,3.607-.69,2.953.669,5.635.581,8.5,2.713,1.484,5.3,3.118,8.066,4.367,6.612,2.989,12.7,6.9,19.027,10.4,2.763,1.531,5.582,2.964,8.372,4.448q5.976,3.178,11.947,6.368c.6.319,1.213.618,1.776.991a5.393,5.393,0,0,0,4.8.734c2.587-.74,5.269-1.149,8-1.718,2.2,1.723,4.078,3.918,6.991,4.913a11.156,11.156,0,0,0,.749-1.835,17.573,17.573,0,0,0,.416-3.016c.189-4.714,1.218-9.368.454-14.159-.6-3.774-.627-7.642-.872-11.47a33.191,33.191,0,0,0-3.352-12.336c-2.15-4.472-4.063-9.084-6.982-13.14-5-6.953-10.766-13.041-18.73-16.741a55.313,55.313,0,0,0-15.03-5.04c-11.939-1.8-23.666-1.134-35.029,3.211a49.967,49.967,0,0,0-10.649,5.866,77.727,77.727,0,0,0-15.822,14.223,85.72,85.72,0,0,0-10.991,16.64,28.124,28.124,0,0,1-1.855,3.6c-2.472,3.605-3.527,7.791-4.984,11.807a55.026,55.026,0,0,0-3.126,13.123c-.209,2.015-.615,4.014-1,6.008-1.29,6.746-.241,13.251,1.929,19.656a24.555,24.555,0,0,1,.89,3.261c.059.307-.333.7-.652,1.309a12.713,12.713,0,0,1-2.615-4.153,49.7,49.7,0,0,1-2.156-5.695,19.336,19.336,0,0,1-.81-4.641,62.856,62.856,0,0,1,3.691-22.925c1.666-4.913,3.432-9.792,5.146-14.689a9.128,9.128,0,0,0,.478-1.622c.515-3.425,2.2-6.364,3.853-9.311A86.87,86.87,0,0,1-1263.9-95.92a67.086,67.086,0,0,1,8.51-6.688c2.933-2.1,5.979-4.047,9.053-5.933a38.04,38.04,0,0,1,11.968-4.558c2.638-.572,5.251-1.268,7.9-1.765a34.253,34.253,0,0,1,6.044-.731c5.517-.033,10.99-.153,16.519.933a57.533,57.533,0,0,1,21.511,9.441,53.419,53.419,0,0,1,14.2,14.864,146.394,146.394,0,0,1,8.725,15.288,34.5,34.5,0,0,1,3.413,11.988c.219,2.132.384,4.276.74,6.386a65.754,65.754,0,0,1,.437,10.14,17.352,17.352,0,0,1-.245,3.034c-.972,5.9-1.678,11.855-3.054,17.655-1.561,6.584-3.623,13.069-7.8,18.612a8.415,8.415,0,0,0-.93,1.414c-3.122,6.577-8.354,11.434-13.384,16.454-1.836,1.831-3.651,3.693-5.6,5.4a56.928,56.928,0,0,1-15.966,9.411c-.522.216-1.067.384-1.571.635a61.257,61.257,0,0,1-14.8,4.749,48.338,48.338,0,0,1-6.387.572,16.2,16.2,0,0,0-1.693,0c-3.411.639-6.761-.157-10.112-.5a27.9,27.9,0,0,1-6.248-1.5,75.521,75.521,0,0,1-17.881-8.778,21.8,21.8,0,0,0-3.117-2.034c-6.182-2.789-10.141-7.8-13.431-13.427-2.806-4.8-4.49-10.055-6.1-15.369-1.453-4.8-1.869-9.678-2.311-14.616-.5-5.579.556-10.991,1.048-16.476.9-10.075,4.513-19.283,8.745-28.3a79.8,79.8,0,0,1,7.61-12.3c1.113-1.56,2.147-3.181,3.331-4.684a36.326,36.326,0,0,1,11.308-10.036c1.883-1,3.656-2.327,5.889-2.455A8.973,8.973,0,0,1-1245.511-98.67ZM-1233-85.6a26.056,26.056,0,0,0,1.388,9.766,16.218,16.218,0,0,0,6.425-3.321,2.761,2.761,0,0,0-.464-.83q-3.335-2.832-6.722-5.6C-1232.5-85.686-1232.785-85.6-1233-85.6Z" fill="#000"/>
    <path id="Path_1048" data-name="Path 1048" d="M-1313.192-92.681l1.6-1.01a15.654,15.654,0,0,1,3.983,4.531,109.507,109.507,0,0,1,8.511,14.213,53.573,53.573,0,0,1,4.341,12.094,95.057,95.057,0,0,1,1.385,12.438c.264,3.716-.049,7.487.4,11.172.661,5.414-.435,10.577-1.629,15.731a81.459,81.459,0,0,1-4.885,15.468c-.231.508-.32,1.078-.5,1.61A80.3,80.3,0,0,1-1310.08,13.4c-2.959,4.262-6.8,7.5-10.842,10.582-1.525,1.165-3.209,2.137-4.65,3.392-3.707,3.227-8.045,5.439-12.3,7.751-3.369,1.829-6.873,3.436-10.4,4.938a38.3,38.3,0,0,1-15.148,3.128c-2.136,0-4.269.337-6.408.416-1,.036-2.012-.308-3.007-.257-4.4.225-8.493-1.1-12.58-2.423A99.888,99.888,0,0,1-1402.05,34.2c-5.269-2.828-10.5-5.774-14.81-10.053a21.722,21.722,0,0,0-2.925-2.3,8.338,8.338,0,0,1-3.154-3.9,16.325,16.325,0,0,0-2.157-3.41c-4.369-6.332-8.57-12.8-10.7-20.273a66.858,66.858,0,0,1-2.519-16.329,72.757,72.757,0,0,1,1.825-17.8,81.921,81.921,0,0,1,6.3-18.882,97.829,97.829,0,0,1,7.123-12.655,66.918,66.918,0,0,1,11.1-12.7c.17-.148.339-.3.5-.462,5.122-5.314,11.216-9.461,16.923-14.074a9.26,9.26,0,0,1,1.671-1.15c4.651-2.3,9.307-4.62,14.4-5.771,4.5-1.017,9.049-1.859,13.587-2.717a20.736,20.736,0,0,1,5.047-.224c3.381.192,6.78.041,10.162.212,10.01.507,19.4,3.029,27.645,8.968C-1319.1-97.208-1316.251-94.984-1313.192-92.681Zm-84.207.53-.283-.025.389-.032a35.472,35.472,0,0,1-3,2.185,68.134,68.134,0,0,0-21.721,20.512,47.4,47.4,0,0,0-3.573,5.347c-2.887,5.732-6.005,11.355-7.358,17.766a108.912,108.912,0,0,0-2.625,17.37,65.789,65.789,0,0,0,2.45,19.748c.54,2.062,1.515,4.009,2.263,6.02a116.646,116.646,0,0,0,10.489,20.453,21.8,21.8,0,0,0,7.957,7.668c2.358,1.337,4.652,2.785,6.989,4.16,3.6,2.118,7.131,4.357,10.828,6.284a43.042,43.042,0,0,0,14.015,4.79c1.45.2,2.946.123,4.375.4a37.925,37.925,0,0,0,12.131.112c1.432-.177,2.834-.666,4.267-.765a53.258,53.258,0,0,0,15.07-3.7c2.007-.754,4.022-1.517,5.951-2.446,5.225-2.516,9.646-6.274,14.382-9.539a33.754,33.754,0,0,0,5.433-4.547,80.822,80.822,0,0,0,10.782-13.906,96.649,96.649,0,0,0,8.775-18.98,71.277,71.277,0,0,0,3.63-22.616c0-2.034-.016-4.068.015-6.1a70.332,70.332,0,0,0-4.076-25.93,65.647,65.647,0,0,0-7.294-14.471,16.969,16.969,0,0,0-1.226-1.39,10.866,10.866,0,0,1-.244,1.832.834.834,0,0,1-1.383.286c-.27-.358-.5-.749-.733-1.131a32.435,32.435,0,0,0-3.066-4.85A47.962,47.962,0,0,0-1323.8-96.2c-5.835-3.671-12.386-5.356-19.054-6.652a24.49,24.49,0,0,0-4.375-.423c-4.862-.051-9.728-.127-14.586.023a51.424,51.424,0,0,0-8.045.955c-2.984.571-5.916,1.423-8.86,2.193a47.085,47.085,0,0,0-10.715,4.133c-1.66.9-3.42,1.624-5.175,2.443l-1.067-.288-.034.182,1.2.111C-1395.352-92.84-1396.154-92.07-1397.4-92.151Z" fill="#000"/>
    <path id="Path_1049" data-name="Path 1049" d="M-1225.53-56.627a24.766,24.766,0,0,1-2.25,1.349,48.7,48.7,0,0,1-12.185,4c-3.9.695-7.517,2.341-11.307,3.4a10.171,10.171,0,0,0-1.773.889,2.121,2.121,0,0,0,1.872.785c1.568.159,3.146.294,4.72.3,5.762.023,11.48.563,17.207,1.152,4.6.474,9.241.484,13.86.778,3.374.216,6.749.478,10.1.88,1.618.194,3.334.472,4.489,2.064a5.029,5.029,0,0,1-3.149,1.967q-3.556,1.105-7.144,2.111c-7.376,2.078-14.74,4.182-22.278,5.642-4.644.9-9.21,2.2-13.846,3.151-5.525,1.132-11.083,2.1-16.634,3.1a42.916,42.916,0,0,0-9.09,2.5c-2.125.888-4.614.919-6.949,1.274a2.391,2.391,0,0,1-1.307-.277,1.049,1.049,0,0,1-.521-.768,1.016,1.016,0,0,1,.507-.8c.745-.24,1.54-.32,2.307-.5q12.185-2.8,24.369-5.606c1.317-.3,2.675-.419,4-.7,6.6-1.425,13.212-2.8,19.787-4.342,5.916-1.385,11.791-2.95,17.681-4.451,1.636-.417,3.263-.874,4.882-1.354a5.692,5.692,0,0,0,1.084-.577c-.064-1.124-.855-1.08-1.48-1.165a73.827,73.827,0,0,0-11.822-.615,90.765,90.765,0,0,1-13.531-.438c-3.127-.388-6.252-.618-9.371-1.237-2.957-.587-6.071-.359-9.113-.553-2.816-.18-5.628-.435-8.44-.68-.736-.064-1.316-.353-1.159-1.412a37.081,37.081,0,0,1,7.376-3.04c3.606-1.284,7.356-2.167,11.045-3.219.108-.031.227-.029.331-.069a90.456,90.456,0,0,1,13.358-3.642c.861-.187,1.628-.814,2.489-.993a4.751,4.751,0,0,1,1.783.366Z" fill="#000"/>
    <path id="Path_1050" data-name="Path 1050" d="M-1271.623,3.5a3.267,3.267,0,0,1,2.668-1.935c2.005-.3,3.992-.736,6-.97,2.687-.314,5.39-.491,8.087-.725,4.266-.369,8.534-.63,12.667-1.975a46.543,46.543,0,0,1,5.638-1.016c1.77-.342,3.51-.851,5.288-1.126,4.9-.757,9.793-1.592,14.72-2.084a29.153,29.153,0,0,1,11.4.782,67.337,67.337,0,0,0,12.58,2.509c3.693.363,7.375.837,11.06,1.277a3.52,3.52,0,0,1,.817.408c-.384.386-.678.943-1.057,1.01a13.555,13.555,0,0,1-2.683.075c-6.008-.161-11.84-1.6-17.753-2.447a75.2,75.2,0,0,0-9.082-.889,47.717,47.717,0,0,0-7.4.671c-6.144.84-12.275,1.783-18.417,2.643-4.905.686-9.814,1.35-14.73,1.945-2.113.256-4.152.821-6.331.879-3.477.093-6.94.714-10.407,1.132A6.151,6.151,0,0,1-1271.623,3.5Z" fill="#000"/>
    <path id="Path_1051" data-name="Path 1051" d="M-1351.669-66.275l1.419-.467c0-1.118-.065-2.11.013-3.091a3.975,3.975,0,0,1,4.105-4.078,7.629,7.629,0,0,1,5.861,1.755,20.7,20.7,0,0,0,.822-1.953,11.5,11.5,0,0,1,7.322-7.865c.635-.238,1.248-.535,1.883-.771,4.218-1.568,8-.567,11.474,2.025a4.662,4.662,0,0,1,2.038,3.738c.016.668.105,1.334.158,1.964,3.365.676,3.365.676,4.161,3.275,1,.249,2.081.519,3.159.783a4,4,0,0,1,1.953,6.514c-2.218,2.422-4.587,4.5-8.128,5.091-5.8.962-11.613,1.573-17.457,2.074-2.234.191-4.443.665-6.777-.042-1.613,3.345-4.693,4.642-7.771,5.7a28.826,28.826,0,0,1-6.329.976c-3.141.329-6.31.426-9.437.848-3.828.517-7.667.394-11.5.544-1.577.062-3.159.144-4.724.337a104.565,104.565,0,0,1-14.856.809,13.657,13.657,0,0,1-3.927-.925,1.479,1.479,0,0,1-.885-2.193,5.293,5.293,0,0,1,2.968-3.09c.71-.3,1.452-.524,2.416-.867-.365-.943-.7-1.738-.981-2.55a2.237,2.237,0,0,1,.857-2.711,5.513,5.513,0,0,1,4.717-1.232c2.176.546,4.391.932,6.818,1.434a3.437,3.437,0,0,0-.021-1.291c-2.073-4.276-1.787-8.857-1.439-13.334.519-6.668,4.736-8.848,10.537-7.875,6,1.006,10.683,4.152,13.173,10,.437,1.026,1,2,1.5,2.98a22.446,22.446,0,0,1,3.3-1.044c2.091-.323,3.1.6,3.268,2.77.025.337-.025.681.012,1.017A3.559,3.559,0,0,0-1351.669-66.275Zm-7.561,1.267c-.2-.254-.3-.331-.331-.43a4.567,4.567,0,0,1-.26-.964,15.626,15.626,0,0,0-8.413-13.062,13.058,13.058,0,0,0-7.448-1.772c-3.8.281-6.051,2.344-6.368,6.126-.455,5.442-.451,10.844,2.2,15.866a.656.656,0,0,1,.117.314c-.032.376-.095.749-.179,1.361-.992-.363-1.717-.62-2.435-.893a20.959,20.959,0,0,0-6.532-1.664,10.1,10.1,0,0,0-2.666.215,1.949,1.949,0,0,0-1.525,2.3,3.352,3.352,0,0,0,1.674,2.776c.535.35,1.259.664.807,1.555-1.54.242-3.085.437-4.607.749a1.066,1.066,0,0,0-.973,1.17,1.687,1.687,0,0,0,.82.984,3.877,3.877,0,0,0,1.6.418,65.2,65.2,0,0,0,13.5-.6,38.086,38.086,0,0,1,5.035-.475c3.387-.107,6.79.064,10.163-.193,5.167-.394,10.322-.995,15.468-1.625a12.476,12.476,0,0,0,6.218-2.472c2.109-1.626,2.563-3.215,1.384-5.548a6.932,6.932,0,0,0-7.8-4.013c-.992.2-1.958.528-2.948.746a1.072,1.072,0,0,1-1.339-1.376c.216-1.067.853-2.08.45-3.213-2.489-.365-3.033-.156-3.973,1.493C-1358.014-66.5-1358.059-65.5-1359.23-65.008Zm19.44,6.41a5.03,5.03,0,0,0,1.069.241c4.935-.5,9.871-.987,14.8-1.542,2.8-.315,5.59-.775,8.39-1.116,2.9-.354,4.953-2.052,6.747-4.16a4.08,4.08,0,0,0,.783-1.47,2.206,2.206,0,0,0-1.943-2.925c-.785-.083-1.582-.036-2.373-.063-2.339-.08-2.371-.132-2.066-2.563.02-.162-.2-.354-.407-.691-.687.171-1.443.309-2.164.552s-1.4.59-2.171.925c-.188-.491-.448-.824-.385-1.075a7.54,7.54,0,0,1,.676-1.522,4.518,4.518,0,0,0-1.491-5.977,9.558,9.558,0,0,0-1.176-.668c-4.192-2.183-8.213-1.239-11.864,1.116a9.8,9.8,0,0,0-4.894,7.383,20.071,20.071,0,0,1-.729,2.839c-.83-.633-1.436-1.064-2.007-1.536a6.465,6.465,0,0,0-5.092-1.34,2.913,2.913,0,0,0-2.665,2.244,3.38,3.38,0,0,0,.449,2.978C-1343.6-66.17-1340.632-63.464-1339.79-58.6Z" fill="#000"/>
    <path id="Path_1052" data-name="Path 1052" d="M-1333.793-27.628c10.775-4.5,22.121-7.962,33.3-11.889.189-.066.439.043.727.078a4.05,4.05,0,0,1,.342.873c.083.548.083,1.108.124,1.752-1.766.835-3.452,1.713-5.2,2.443-2.913,1.217-5.868,2.331-8.8,3.5a13.162,13.162,0,0,1-5.185,1.427,2.848,2.848,0,0,0-.987.181c-2.336.819-4.67,1.643-6.993,2.5a8.008,8.008,0,0,0-1.261.792,7.955,7.955,0,0,0,3.21,1.353q4.251,1.152,8.481,2.381a4.542,4.542,0,0,1,1.131.653c.058.039.069.233.029.322-.081.181-.2.47-.324.482a3.5,3.5,0,0,1-1.312-.051q-11.336-3.434-22.657-6.91-6.3-1.929-12.6-3.88a13.75,13.75,0,0,1-2.251-.735c-2.791-1.435-5.882-1.5-8.87-2.022a7.1,7.1,0,0,0-5.139,1.221,57.648,57.648,0,0,1-5.395,2.792c-2.13,1.033-4.349,1.9-6.426,3.023-4.165,2.262-8.694,3.7-12.85,6.03-4.614,2.586-9.579,4.537-14.325,6.9a65.977,65.977,0,0,1-9.727,3.9,35.956,35.956,0,0,0-4.31,1.962,6.4,6.4,0,0,1-4.225.771,5,5,0,0,0-3.929.572c-.2.133-.616-.054-1.3-.14a8.776,8.776,0,0,1,1.388-1.233c1.3-.682,2.611-1.34,3.964-1.9,7.612-3.156,15.258-6.234,22.852-9.435,4.68-1.973,9.276-4.143,13.929-6.18,4.238-1.855,8.528-3.6,12.747-5.494,2.573-1.158,5.09-2.452,7.568-3.8a7.546,7.546,0,0,1,5.192-.683,113.637,113.637,0,0,1,15.32,4.183C-1343.039-30.477-1338.513-29.089-1333.793-27.628Z" fill="#000"/>
    <path id="Path_1053" data-name="Path 1053" d="M-1315.706-14.431a6.259,6.259,0,0,1-1.607.921c-4.518,1.01-9.122,1.709-13.556,3-3.506,1.019-7.129,1.135-10.624,2.036-2.182.562-4.357,1.161-6.558,1.64-3.854.838-7.713,1.671-11.6,2.361-2.769.492-5.6.625-8.369,1.133-4.32.794-8.647,1.616-12.9,2.716A94.166,94.166,0,0,1-1390.929.959c-3.683.543-7.376,1.019-11.054,1.6a28.476,28.476,0,0,0-3.587.952c-.17.05-.271.334-.535.683a15.916,15.916,0,0,0,2.824.835c4.031.418,8.072.751,12.112,1.077.893.071,1.812-.118,2.694,0,.73.1,1.226.587.761,1.657a16.517,16.517,0,0,1-1.824.088c-5.525-.3-11.051-.6-16.574-.946a6.643,6.643,0,0,1-5.319-2.551,3.25,3.25,0,0,1,2.608-2.048c1.885-.345,3.74-.924,5.638-1.13,4.6-.5,8.982-2.279,13.671-2.212a7.742,7.742,0,0,0,1.642-.379c2.42-.528,4.825-1.145,7.265-1.552,6.794-1.132,13.525-2.544,20.217-4.164,1.641-.4,3.328-.608,5-.887,5.12-.854,10.255-1.626,15.359-2.566,7.311-1.347,14.668-2.476,21.859-4.429a9.083,9.083,0,0,1,2.3-.026Z" fill="#000"/>
    <path id="Path_1054" data-name="Path 1054" d="M-1419.318,12.733c2.309-.289,4.2-.542,6.088-.758q8.581-.978,17.166-1.929a54.646,54.646,0,0,0,7.31-1.324c3.823-.959,7.719-1.648,11.607-2.321,4.447-.769,8.933-1.312,13.372-2.121a22.586,22.586,0,0,1,6.689.007c4.593.508,9.232.614,13.853.858q9.469.5,18.942.948c3.161.144,6.325.2,9.487.306a10.405,10.405,0,0,1,2.006.217c.236.056.389.46.766.943a7,7,0,0,1-1.643.411q-4.911-.136-9.819-.371c-2.031-.095-4.058-.294-6.089-.379-7.109-.3-14.221-.542-21.33-.867-2.256-.1-4.5-.394-6.754-.608a32.423,32.423,0,0,0-7.774.154c-7.6,1.1-15.195,2.145-22.663,4-2.4.595-4.906.773-7.366,1.126-3.125.449-6.253.883-9.38,1.32a10.7,10.7,0,0,1-1.344.147,41.911,41.911,0,0,0-9.044,1.14A4.71,4.71,0,0,1-1419.318,12.733Z" fill="#000"/>
  </g>
</svg>
