<svg xmlns="http://www.w3.org/2000/svg" width="642.193" height="491.958" viewBox="0 0 642.193 491.958">
  <g id="Group_101" data-name="Group 101" transform="translate(1347.949 -3861.052)">
    <path id="Path_669" data-name="Path 669" d="M-882.2,4269.414a13.164,13.164,0,0,0,.673-5.245,13.282,13.282,0,0,1,1.286-5.975,8.05,8.05,0,0,1,3.874-3.992c1.17-.56,2.3-1.2,3.418-1.871a19.958,19.958,0,0,1,11.242-2.547,12.983,12.983,0,0,1,5.738,1.607,27.928,27.928,0,0,0,6.192,2.112c0-2.009-.145-3.856.028-5.672.453-4.742,1.068-9.468,1.573-14.206.3-2.8.468-5.612.779-8.41a18.866,18.866,0,0,1,.748-3.648,121.232,121.232,0,0,0,4.494-22.09c.518-4.138,1.011-8.278,1.514-12.417.039-.323.087-.646.094-.971A4.26,4.26,0,0,0-842.7,4182a3.954,3.954,0,0,0-4.573.349c-3.977,2.912-8.083,5.671-11.876,8.806-10.263,8.482-21.414,15.64-32.67,22.689-11.292,7.071-23.287,12.675-35.529,17.813-5.339,2.241-10.713,4.4-16.073,6.594a35.478,35.478,0,0,1-8.749,2.375c-6.346.853-12.5,2.6-18.695,4.144a100.658,100.658,0,0,1-18.1,2.9c-4.918.31-9.833.714-14.755.905a89.275,89.275,0,0,1-20.5-1.912,226.672,226.672,0,0,1-28.651-7.136,147.407,147.407,0,0,1-21.254-9.288c-6.15-3.191-12.255-6.5-18.577-9.318A171.114,171.114,0,0,1-1113.357,4210a154.266,154.266,0,0,0-19.129-10,10.85,10.85,0,0,0-1.981-.715,84.958,84.958,0,0,1-16.173-5.8c-5.876-2.636-11.767-5.238-17.652-7.854a3.311,3.311,0,0,0-2.527-.189c-.918.322-1.862.581-2.755.96-1.017.432-1.206.984-1,2.084a44.229,44.229,0,0,1,.731,4.63,213.253,213.253,0,0,0,6.911,39.952c1.751,6.478,3.13,13.058,4.927,19.522a115,115,0,0,0,4.181,12.113c1.5,3.717,2.059,3.917,6.013,3.815a23.859,23.859,0,0,1,8.033.9c4.124,1.331,7.286,3.777,8.877,7.939a13.215,13.215,0,0,1,.278,8.3,12.061,12.061,0,0,0-.446,2.055,1.773,1.773,0,0,0,1.8,2.188,11.157,11.157,0,0,0,1.3.059,8.686,8.686,0,0,1,6.409,2.714,44.886,44.886,0,0,1,3.832,4.618,4.273,4.273,0,0,1-.407,5.541c-3.115,3.248-6.7,5.618-11.414,5.835a114.117,114.117,0,0,0-23.37,3.759,18.384,18.384,0,0,1-5.445.74,4.309,4.309,0,0,0-4.153,2.061,9.348,9.348,0,0,1-5.035,3.895,86.449,86.449,0,0,1-14.068,3.887,144.09,144.09,0,0,1-20.185,2.035c-5.566.267-11.121.856-16.669,1.418-7.486.758-14.914,2.142-22.468,2.115-3.3-.011-6.61-.112-9.9-.387a139.956,139.956,0,0,0-18.678-.171,54.891,54.891,0,0,1-21.048-3.242c-1.481-.518-2.966-1.034-4.41-1.645-6.993-2.954-9.142-9.472-9.088-14.336a8.12,8.12,0,0,1,1.317-4.132,16.632,16.632,0,0,1,7.105-6.47c3.162-1.539,3.176-1.561,2.587-4.955a16.482,16.482,0,0,1,1.582-10.261,44.376,44.376,0,0,1,7.265-10.136,7.465,7.465,0,0,1,5.848-2.409c2.808.054,5.615.355,8.409.667a12.262,12.262,0,0,1,2.433.881c1.971.675,3.131.142,3.771-1.842,1.272-3.944,4.027-6.748,7.118-9.259,2.007-1.63,4.4-1.723,6.8-1.089,1.46.385,2.879.936,4.3,1.457,2.244.821,3.193.551,4.6-1.366a7.9,7.9,0,0,0,1.513-4.884,39,39,0,0,0-.39-5.99c-1.129-6.7-.8-13.361-.03-20.068,1.569-13.727,3.844-27.342,6.182-40.95.752-4.375,1.409-8.767,2.108-13.151a4.958,4.958,0,0,0-.6-3.9,2.034,2.034,0,0,1-.033-2.313c2.681-4.446,3.118-9.394,3.239-14.409.132-5.47.228-10.941.367-16.41a29.534,29.534,0,0,1,.274-3.072,59.477,59.477,0,0,0-.453-15.063c-.219-1.774-.4-3.557-.737-5.309a14.858,14.858,0,0,0-1.031-3.045c-.556-1.286-1.259-2.508-1.822-3.792a1.125,1.125,0,0,0-1.269-.765,3.163,3.163,0,0,0-1.334.529,51.493,51.493,0,0,1-13.288,6.356,83.565,83.565,0,0,1-13.108,3.7,36.956,36.956,0,0,1-25.219-4.505c-3.035-1.757-5.862-3.886-8.715-5.942-1.887-1.36-3.638-2.909-5.474-4.343a19.446,19.446,0,0,1-7.483-13.9c-.224-2.148-.2-4.323-.278-6.486-.018-.487.022-.975,0-1.462-.072-1.774-.616-2.433-2.32-2.8-.741-.16-1.5-.256-2.233-.432a25.066,25.066,0,0,1-14.089-9.32c-2.875-3.643-2.871-7.467-.127-11.229a20.069,20.069,0,0,1,3.412-3.677,70.007,70.007,0,0,1,6.937-5.088,22.316,22.316,0,0,1,4.506-1.774c1.156-.411,2.339-.743,3.708-1.172a19.5,19.5,0,0,0-1.347-2.211c-1.984-2.432-3.949-4.884-6.05-7.214a70.766,70.766,0,0,1-7.5-9.589,67.654,67.654,0,0,1-3.687-6.674c-2.49-5.171-4.775-10.441-7.309-15.588a89.334,89.334,0,0,1-7.447-23.283c-.646-3.459-1.241-6.927-1.822-10.4a4.5,4.5,0,0,1,.038-1.763c.335-1.364.735-2.715,1.189-4.043.333-.97.821-1.886,1.2-2.844,4.417-11.333,12.692-18.906,23.453-24.045a99.037,99.037,0,0,1,15.173-5.254c2.8-.816,5.615-1.63,8.462-2.269a43.11,43.11,0,0,1,11.65-.679,87.658,87.658,0,0,1,16.252,2.065,92.4,92.4,0,0,1,14.648,5.278c.531.228,1.079.416,1.693.651a9.332,9.332,0,0,0-.47-4.941,16.546,16.546,0,0,1-.848-5.751,14.728,14.728,0,0,1,12.349-13.732,15.982,15.982,0,0,1,6.107.591c6.837,1.622,12.713,4.833,17.173,10.406.905,1.132,1.989,2.12,2.985,3.169,1.464-.577,1.57-1.775,1.726-2.965.31-2.361.535-4.739.991-7.072,4.4-22.483,16.968-38.853,37.186-49.446a89.52,89.52,0,0,1,14.272-5.812,12.559,12.559,0,0,1,3.323-.7c9.119-.32,18.064.565,26.587,4.12a47.462,47.462,0,0,1,9.585,5.44,26.839,26.839,0,0,1,10.466,15.783c3.163,12.787,2.784,25.331-2.959,37.438a14.739,14.739,0,0,0-.808,2.461c-.327,1.2-.579,2.419-.9,3.619-.47,1.741-.15,2.515,1.435,3.294.291.143.594.264.9.377a12.055,12.055,0,0,1,7.555,8.146,11.042,11.042,0,0,1,.362,1.247.916.916,0,0,0,1.174.819,21.029,21.029,0,0,0,2.99-.714,41.48,41.48,0,0,1,14.671-2.387,44.4,44.4,0,0,1,19.343,4.973,19.3,19.3,0,0,1,10.133,12.686,32.065,32.065,0,0,1,.981,12.074,26.557,26.557,0,0,1-7.078,15.033c-.255.28-.541.535-.775.832-.613.777-.333,1.455.669,1.544.753.067,1.517.01,2.274.047a26.832,26.832,0,0,1,13.059,4,37.65,37.65,0,0,1,17.489,25.131c1.174,5.576.4,11.112-1.149,16.541a58.513,58.513,0,0,1-10.735,20.79,26.328,26.328,0,0,1-5.81,5.4c-1.616,1.09-3.28,2.109-4.9,3.2-1.685,1.132-1.982,1.933-1.358,3.857a22.62,22.62,0,0,1-.443,15.129c-.2.56-.429,1.111-.643,1.666-.876,2.273-.622,3.441,1.108,5.1s1.956,2.926.648,5.033c-3.668,5.91-8.843,9.833-15.738,11.037-6.608,1.153-13.269,2.023-19.925,2.866a58.152,58.152,0,0,1-7.3.223c-5.635,0-11.27-.06-16.9-.109a8.477,8.477,0,0,0-4.768,1.384,31.561,31.561,0,0,0-3.375,2.529q-17.4,14.912-34.782,29.844c-2.675,2.283-5.436,4.486-8.3,6.523a19.251,19.251,0,0,0-8.167,14c-.6,4.807-.277,9.626-.361,14.491a6.939,6.939,0,0,0,.854.487c8.505,3.367,16.99,6.787,25.529,10.067a89.975,89.975,0,0,0,20.326,4.882c7.616,1.03,15.226,2.072,22.8,3.4a185.669,185.669,0,0,0,20.183,2.152c5.564.354,11.119.656,16.663,1.418,5.945.818,11.965,1.173,17.964,1.506,15.483.861,30.98.8,46.472.256,5.193-.183,10.375-.705,15.559-1.1,4.752-.362,9.505-.724,14.251-1.153s9.491-.872,14.22-1.439c7.754-.93,15.491-1.7,23.329-.963a28.23,28.23,0,0,0,7.424-.565c4.856-.857,9.735-1.475,14.62-2.116,6.274-.823,12.519-1.908,18.753-3.006q10.474-1.844,20.9-3.926c7.046-1.414,13.877-3.532,19.967-7.462a75.115,75.115,0,0,1,11.411-6.166,5.014,5.014,0,0,0,3.371-5.477,50.344,50.344,0,0,0-.864-7.57,78.5,78.5,0,0,1-1.409-13.883c-.1-2.544-.136-5.091-.275-7.632-.119-2.169-.472-2.474-2.589-2.227-2.9.339-5.793.794-8.7,1.137a29.488,29.488,0,0,1-10.338-.379c-1.91-.452-2.573-.135-3.182,1.537a20.031,20.031,0,0,1-8.484,10.159,33.015,33.015,0,0,1-14.318,4.885c-3.923.437-7.841.442-11.537-1.041-8.755-3.513-14.459-9.7-16.163-19.188a19.321,19.321,0,0,1,.516-7.893c.147-.623.268-1.251.418-1.956-1.171-.529-2.255-1-3.321-1.506a9.855,9.855,0,0,1-4.515-3.6c-2.156-3.591-2.779-7.36-.9-11.3.4-.83.861-1.632,1.2-2.483.452-1.131.222-1.539-.959-1.908a6.162,6.162,0,0,0-1.109-.226,15.337,15.337,0,0,1-9.161-4.5,23.879,23.879,0,0,1-7.071-14.114c-.906-6.635-.187-13.185,1.131-19.694a15.233,15.233,0,0,1,.808-2.966,7.811,7.811,0,0,1,1.451-2.1c1.348-1.476,2.774-2.88,4.153-4.327a14.184,14.184,0,0,0,.914-1.141,25.548,25.548,0,0,1,7.173-6.747c1.721-1.008,1.75-1.725.465-3.232-1.37-1.607-2.837-3.137-4.125-4.807a35.664,35.664,0,0,1-6.886-14.908,35.143,35.143,0,0,1-.108-9.387c.516-7.647,3.148-14.676,6.23-21.574a30.378,30.378,0,0,1,9.109-11.273c2.572-2.055,5.347-3.857,8.028-5.777.343-.245.661-.525,1.076-.857-.288-.584-.542-1.106-.8-1.626a13.738,13.738,0,0,1-1.663-6.87c.215-4.357,2.6-7.21,6.367-9.077.766-.38,1.571-.684,2.567-1.113a17.773,17.773,0,0,0-.846-2.429c-4.335-8.35-4.5-17.034-2.053-25.9a6.587,6.587,0,0,1,1.612-2.77c2.935-2.957,5.913-5.88,9.008-8.668a33.709,33.709,0,0,1,7.729-5.06c4.464-2.2,8.848-4.6,13.421-6.549a58.134,58.134,0,0,1,24.858-4.728,62.731,62.731,0,0,1,26.487,6.972c12.386,6.233,21.645,15.746,28.458,27.7a38.264,38.264,0,0,1,4.743,16.245c.19,2.482.554,4.95.774,7.43.176,1.986.253,3.979.386,6.152.451-.177.975-.365,1.484-.59a34.753,34.753,0,0,1,9.094-2.914,16.875,16.875,0,0,1,3.72-.14,8.89,8.89,0,0,1,7.217,4.889,25.657,25.657,0,0,1,2.587,7.322c.151.684.3,1.369.447,2.072a2.5,2.5,0,0,0,2.744-.409,33.714,33.714,0,0,1,20.273-5.749,31.955,31.955,0,0,1,12.536,3.068,43.526,43.526,0,0,1,18.916,16.58c1.488,2.322,2.837,4.74,4.132,7.177a27.132,27.132,0,0,1,2.7,9.646,193.7,193.7,0,0,1,.934,31.48,50.54,50.54,0,0,1-6.089,22.871c-1.559,2.788-3.064,5.605-4.566,8.425-.478.9-.87,1.842-1.315,2.794a11.985,11.985,0,0,0,.977.775c4.46,2.8,5.736,6.949,5.087,11.928a32.9,32.9,0,0,1-2.744,9.146,5.07,5.07,0,0,1-1.991,2.275,57.328,57.328,0,0,0-5.172,3.629c-2.49,2.01-4.906,4.094-7.913,5.337a3.277,3.277,0,0,0-2.078,3.519c.061,1.026.209,2.046.3,3.071.965,10.411-2.626,18.773-11.152,24.962a47.625,47.625,0,0,1-13.891,6.544q-5.878,1.863-11.685,3.944a11.121,11.121,0,0,1-6.243.119c-5.45-1.169-10.885-2.411-16.337-3.575-1.8-.383-3.623-.639-5.442-.912a6.233,6.233,0,0,0-1.618-.012,1.83,1.83,0,0,0-1.862,1.709,7.671,7.671,0,0,0-.1,2.263c.349,2.789.733,5.576,1.18,8.352.863,5.343,1.818,10.67,2.659,16.016a63.429,63.429,0,0,0,2.413,10.854,14.139,14.139,0,0,0,6.023-.921,9.962,9.962,0,0,1,1.69-.559c1.581-.271,2.567.834,2.031,2.327a8.356,8.356,0,0,1-3.253,4.534c-4.283,2.712-5.487,6.685-4.44,11.41,1.393,6.289,2.942,12.543,4.434,18.812q1.6,6.713,3.222,13.422a2.8,2.8,0,0,0,2.017,2.486c.282-.452.609-.925.886-1.427a27.17,27.17,0,0,0,2.87-7.912c1.764-8.934,4.365-17.654,6.6-26.469,1.021-4.036,1.807-8.135,2.6-12.224a19.864,19.864,0,0,1,1.823-5.7,13.086,13.086,0,0,0,1.335-8.97c-.281-1.434-.456-2.887-.7-4.328a16.856,16.856,0,0,0-1.876-5.5c-.977-1.73-.523-2.722,1.439-3.156a11.721,11.721,0,0,1,7.192.4,126.775,126.775,0,0,0,16.086,5.09c.522.141,1.05.274,1.557.458a3.912,3.912,0,0,1,2.7,3.174c.19,1.066.355,2.138.6,3.191a16.131,16.131,0,0,0,3.553,7.032c1.475,1.694,1.555,2.672.386,4.519a21.8,21.8,0,0,1-5.232,5.945,10.09,10.09,0,0,1-11.146,1.151,13.131,13.131,0,0,1-5.222-4.023,5.4,5.4,0,0,0-.766-.838c-1.508-1.362-2.761-1-3.379.964a5.336,5.336,0,0,0-.226,1.113,32,32,0,0,1-3.345,11.646,55.819,55.819,0,0,0-4.882,15.086c-.889,4.819-2.719,9.344-4.314,13.946-1.488,4.293-2.91,8.615-4.2,12.971a18.676,18.676,0,0,0,.175,10.9c.079.26.163.518.262.77.033.083.119.145.266.317a6.635,6.635,0,0,0,.377-.736,9.918,9.918,0,0,1,4.244-5.182c2.2-1.374,4.454-2.681,6.724-3.942a4.5,4.5,0,0,1,4.362-.049,26.185,26.185,0,0,0,2.873,1.069c1.481.514,3.011.911,4.449,1.523,6.553,2.792,10.16,7.823,11.143,14.829a33.657,33.657,0,0,1-1.488,14.268c-.41,1.4-.817,2.807-1.234,4.207a2.945,2.945,0,0,0,1.185,3.431c.645.493,1.34.922,1.971,1.431a6.666,6.666,0,0,1,2.422,7.813,16.13,16.13,0,0,1-4.538,7.205,10.267,10.267,0,0,1-6.117,2.752c-8.362.725-16.724,1.439-25.093,2.077a53.662,53.662,0,0,1-6.172-.019,14.238,14.238,0,0,0-7.4,1.446,4.781,4.781,0,0,0-1.914,1.643c-3.339,5.91-8.612,8.8-15.1,9.814a108.8,108.8,0,0,1-20.264.932,50.093,50.093,0,0,0-12.432.947,51.571,51.571,0,0,1-12.277,1.073c-5.524-.123-11.043-.439-16.566-.559-4.982-.106-9.971-.18-14.95-.047a62.282,62.282,0,0,1-17.643-2.368,12.4,12.4,0,0,1-6.126-3.82,48.872,48.872,0,0,1-3.562-4.624,4.45,4.45,0,0,1-.082-5.208c3.226-5.059,7.2-9.225,13.344-10.658,1.216-.284,1.286-.393,2.191-1.466-.51-.639-1.04-1.306-1.573-1.97-.678-.843-1.429-1.637-2.023-2.535a10.369,10.369,0,0,1-.8-10.514,19.134,19.134,0,0,0,.8-1.776c.436-1.335-.04-2.091-1.416-2.319a7.323,7.323,0,0,0-1.3-.085q-5.688.08-11.377.179a3.392,3.392,0,0,0-2.913,1.449c-.789,1.076-1.432,1.032-2.415.068-.54-.53-1-1.149-1.563-1.649a3.018,3.018,0,0,0-4.017-.342,18.04,18.04,0,0,0-1.9,1.519q-2.986,2.509-5.964,5.027a3.176,3.176,0,0,1-.527.268c-.053-1.3-.122-2.51-.148-3.724-.026-1.183-.069-2.371.008-3.55.082-1.245-.244-1.8-1.534-2-.962-.144-1.942-.165-2.915-.226-10.6-.655-21.191-1.488-31.822-1.14-3.9.127-7.781.529-11.676.7q-6.571.288-13.153.376c-3.249.044-6.5-.166-9.751-.069a45.776,45.776,0,0,0-6.928.736,77.13,77.13,0,0,1-10.639,1.225c-4.113.181-8.236.239-12.334.6-5.391.476-10.766,1.149-16.137,1.82-6.828.853-13.646,1.764-20.554,1.5a195.65,195.65,0,0,0-24.828,1c-2.256.2-4.543.09-6.815.063-4.276-.051-8.553-.25-12.826-.179-2.315.04-4.615.619-6.934.762-3.945.245-7.9.351-11.852.487a2.172,2.172,0,0,1-2.4-1.278c-.609-1.528.039-2.752,1.793-3.107,2.068-.418,4.156-.754,6.248-1.031a89.864,89.864,0,0,1,16.379-.206c5.457.275,10.946.241,16.407.014,8.928-.371,17.844-1.04,26.769-1.523,5.085-.275,10.175-.451,15.264-.632a66.732,66.732,0,0,0,13.579-2.329,238.251,238.251,0,0,1,28.393-5.322,158.161,158.161,0,0,1,18.821-.915q13.815-.012,27.631.174a96.027,96.027,0,0,1,15.962,1.794,48.892,48.892,0,0,0,8.862.971,120.808,120.808,0,0,1,20.968,2.273c11.463,2,22.9,4.156,34.348,6.241C-882.976,4269.368-882.653,4269.373-882.2,4269.414Zm-356.74-314.341a2.539,2.539,0,0,1-.489.256,5.45,5.45,0,0,1-6.082-2.411,29.5,29.5,0,0,0-8.154-7.348,69.446,69.446,0,0,0-23.036-10.193c-5.923-1.335-11.928-1.355-17.943-1.287a11.553,11.553,0,0,0-2.891.372,148.83,148.83,0,0,0-19.25,6.374c-5.3,2.26-10.419,4.883-14.726,8.781-8.88,8.038-12.54,17.989-10.324,29.838.7,3.763,2.039,7.4,2.99,11.125a61.156,61.156,0,0,0,8.109,17.808c3.737,5.838,7.432,11.7,11.183,17.53a37.919,37.919,0,0,0,2.716,3.642c1.417,1.71,2.86,3.4,4.382,5.019,3.823,4.06,7.7,8.073,11.553,12.1.845.883,1.7,1.815,1.161,3.135a3.209,3.209,0,0,1-3.035,1.818c-.108.009-.216,0-.325.009-1.782.093-3.571.123-5.345.293a33.275,33.275,0,0,0-10.429,2.268,24.9,24.9,0,0,0-4.757,2.74,2.874,2.874,0,0,0-.817,4.174,17.406,17.406,0,0,0,2.28,3.142c3.02,3.342,6.957,5.047,11.23,6.143a9.519,9.519,0,0,0,5.436-.049,7.527,7.527,0,0,1,2.545-.411c2.072.08,2.9,1.544,1.885,3.358a15.731,15.731,0,0,1-1.86,2.45,18.931,18.931,0,0,0-3.327,5.358,11.209,11.209,0,0,0,.61,10.174c1.69,2.9,3.555,5.695,5.438,8.471a10.428,10.428,0,0,0,4.5,3.886,50.856,50.856,0,0,0,18.514,4.5c4.6.124,9.2-.181,13.8-.3a64.522,64.522,0,0,0,11.769-1.3c11.152-2.366,19.74-8.293,25.417-18.271.295-.518.582-1.041.9-1.541,1.29-2.007,2.086-2.114,3.835-.516.4.365.766.766,1.156,1.142s.773.763,1.193,1.1c1.454,1.171,2.473,1.253,3.97.184a16.767,16.767,0,0,0,2.3-2.04,9.764,9.764,0,0,1,3.9-2.559,3.127,3.127,0,0,1,4.3,1.77,14.3,14.3,0,0,1,.954,3.253,6.648,6.648,0,0,0,3.554,4.971,33.177,33.177,0,0,0,5.722,2.25,7.09,7.09,0,0,0,5.266-.407c.067-.177.109-.231.1-.277-.042-.265-.087-.531-.146-.792a8.783,8.783,0,0,1,.532-5.877,23.9,23.9,0,0,1,6.567-8.762c1.658-1.309,3.406-2.5,5.057-3.818,1.042-.83,1.982-1.791,2.955-2.682l-.642-.991c-.176-.273-.366-.538-.526-.821a19.856,19.856,0,0,1-.307-19.879,53.68,53.68,0,0,1,6.624-9.209,17.009,17.009,0,0,1,10.641-6.074,21.411,21.411,0,0,1,11.476,1.35c1.105.442,2.174.975,3.277,1.423,2.52,1.024,3.628.634,4.954-1.7.214-.377.412-.762.635-1.134,1.619-2.7,3.031-3.221,5.966-2.186.917.324,1.8.741,2.719,1.069,1.65.592,2.181.4,3.048-1.135.747-1.318,1.437-2.669,2.182-3.988a13.134,13.134,0,0,1,8.863-6.313,10.8,10.8,0,0,1,7.905.753,36.72,36.72,0,0,1,12.23,10.249,97.115,97.115,0,0,1,9.122,15.148c.26.522.532,1.038.876,1.708.805-.472,1.5-.865,2.176-1.279,1.017-.619,1.991-1.317,3.043-1.866a9.959,9.959,0,0,1,9.371-.152,25.067,25.067,0,0,1,3.227,1.867c3.449,2.362,6.832,4.808,9.106,8.606,1.409-.776,2.746-1.471,4.043-2.236a17.583,17.583,0,0,0,5.581-4.89,56.437,56.437,0,0,0,5.881-10.273,33.2,33.2,0,0,0,1.776-23c-.916-3.169-1.951-6.315-3.144-9.389a23.839,23.839,0,0,0-2.774-5.118c-5.214-7.337-15.416-13.61-28.919-9.738a2.658,2.658,0,0,1-3.1-1.14,2.382,2.382,0,0,1,.281-3.122,8.751,8.751,0,0,1,.948-.886c2.476-2.106,4.915-4.258,7.443-6.3a20.018,20.018,0,0,0,7.069-11.545c1.3-5.755.268-10.873-4.609-14.569a32.346,32.346,0,0,0-17.635-6.786c-3.781-.25-7.565-.469-11.344-.737-5.492-.39-10.675.436-15.367,3.56a7.372,7.372,0,0,1-2.879.978,2.438,2.438,0,0,1-2.827-1.679,2.771,2.771,0,0,1,.775-3.508c1.247-1.2,2.535-2.369,3.708-3.64,1.353-1.465,1.233-2.737-.22-4.077a3.083,3.083,0,0,0-3.161-.762,14.337,14.337,0,0,0-2.942,1.329c-1.719,1.026-3.36,2.183-5.06,3.242a2.271,2.271,0,0,1-2.594.247,2.606,2.606,0,0,1-1.073-2.716,6.659,6.659,0,0,1,.415-1.563c.456-1.158.945-2.3,1.45-3.442a134.3,134.3,0,0,0,10.034-33.006,37.206,37.206,0,0,0,.352-11.8c-1.285-8.22-5.7-14.361-12.573-18.862a51.182,51.182,0,0,0-12.745-5.987c-6.994-2.2-13.918-2.444-20.811.44-1.692.707-3.483,1.181-5.234,1.748-3.139,1.016-6.361,1.828-9.407,3.07-7.075,2.885-12.731,7.755-17.709,13.429-6.777,7.724-10.989,16.8-13.776,26.608a46.205,46.205,0,0,0-1.9,17.654c.2,1.878.625,3.733.935,5.6.363,2.184-.1,3.069-2.1,4.017-.293.139-.588.278-.893.39-1.421.526-1.87.319-2.593-1.038-.943-1.766-1.875-3.542-2.907-5.255a37.576,37.576,0,0,0-15.963-14.6,26.106,26.106,0,0,0-5.274-2.062c-5.09-1.224-9.2,1.55-10.168,6.685-.249,1.33-.467,2.669-.607,4.015a16.832,16.832,0,0,0,1.473,9.333,101.949,101.949,0,0,0,8.33,13.927A5.848,5.848,0,0,1-1238.94,3955.073Zm441.244,21.2c-.951-1.555-.983-1.893-.893-3.977.128-2.974.26-5.951.263-8.927,0-2.87-.039-5.749-.276-8.606a55.838,55.838,0,0,0-1.162-8.346c-3.38-14.121-14.561-27.122-28.144-32.937-8.293-3.55-17.054-4.8-25.97-5.219a71.813,71.813,0,0,0-17.133,1.323,78.58,78.58,0,0,0-15.168,4.138c-8.28,3.418-14.409,9.038-17.968,17.363-2.887,6.752-2.606,13.3,1.139,19.621,1.432,2.416,3.135,4.67,4.67,7.028a15.891,15.891,0,0,1,1.715,3.1,2.043,2.043,0,0,1-1.689,2.909,9.789,9.789,0,0,1-2.1.142c-1.355,0-2.71-.083-4.063-.04a9.065,9.065,0,0,0-2.4.364,5.017,5.017,0,0,0-3.188,7.023,11.24,11.24,0,0,0,1.664,2.371c.683.838,1.506,1.564,2.163,2.42.961,1.249.812,1.934-.556,2.763-.785.475-1.66.8-2.455,1.258-2.806,1.627-5.726,3.1-8.366,4.964a34.253,34.253,0,0,0-13.826,19.837,48.279,48.279,0,0,0-.947,17.746,20.881,20.881,0,0,0,2.19,7.934,41.089,41.089,0,0,0,7.813,10.526,20.932,20.932,0,0,0,4.671,3.473c3.771,1.882,7.635,3.6,11.558,5.146a13.529,13.529,0,0,0,11.194-.483,5.9,5.9,0,0,1,2.824-.448,3.281,3.281,0,0,1,2.457,5.1,26.725,26.725,0,0,1-2,2.555c-1.022,1.193-2.157,2.294-3.119,3.531a26.439,26.439,0,0,0-2.822,4.149c-2.591,5.113-1.46,10.117,3.1,13.582a18.338,18.338,0,0,0,10.306,3.954,7.8,7.8,0,0,1,3.092.811,2.236,2.236,0,0,1,.33,3.895,9.748,9.748,0,0,1-1.216.8c-1.055.662-2.129,1.295-3.167,1.981a21.98,21.98,0,0,0-5.36,5.161,4.11,4.11,0,0,0-.785,4.116,11.751,11.751,0,0,0,4.1,5.528,4.789,4.789,0,0,0,3.319,1.131c3.052-.355,6.176-.309,9.1-1.488a8.112,8.112,0,0,1,2.187-.567,2.349,2.349,0,0,1,2.869,2.342,9.35,9.35,0,0,1-.094,2.584,24.447,24.447,0,0,0,1.5,13.537,15.333,15.333,0,0,0,6.726,7.864,20.193,20.193,0,0,0,6.486,2.5c4.381.856,8.5.42,12.159-2.463a14.487,14.487,0,0,1,5.568-2.567c.577-.143,1.162-.27,1.725-.456a7.185,7.185,0,0,0,5.065-4.84,3.972,3.972,0,0,1,.315-.747c.858-1.573,3.205-2.613,4.725-2.025s3,1.24,4.479,1.908a5.188,5.188,0,0,1,2.949,3.076,9.166,9.166,0,0,0,5.239,5.468,22.556,22.556,0,0,0,6.828,1.99,10.4,10.4,0,0,1,2.9.908c2.585,1.105,5.092,2.409,7.718,3.4a161.28,161.28,0,0,0,19.209,5.409A16.394,16.394,0,0,0-765.89,4140c3.246-1.35,6.546-2.569,9.813-3.87,2.714-1.08,5.493-2.035,8.1-3.326a20.146,20.146,0,0,0,11.014-13.353c.361-1.357.5-2.773.835-4.135.948-3.807-.53-6.4-3.9-8.143a18.986,18.986,0,0,1-2.455-1.579,2.186,2.186,0,0,1-.8-2.466,2.308,2.308,0,0,1,1.753-1.74,5.838,5.838,0,0,1,1.607-.2,16.757,16.757,0,0,0,11.112-3.912c2.82-2.271,5.484-4.747,8.11-7.246a13.14,13.14,0,0,0,3.567-5.56,14.512,14.512,0,0,0,.739-4.279c0-2.431-1.617-3.867-4.046-3.933-.379-.009-.758,0-1.137.017-1.91.069-2.994-1.05-3.715-2.633-.636-1.394-.329-2.612,1.061-3.913a20.1,20.1,0,0,0,5.219-8.308,30.429,30.429,0,0,0,1.039-3.586c2.331-10.962,4.609-21.937,6.114-33.05a41.359,41.359,0,0,0-.881-16.6,45.229,45.229,0,0,0-4.9-10.756,85.9,85.9,0,0,0-14.838-18.828,15.418,15.418,0,0,0-14.625-4.283c-2.855.606-5.688,1.354-8.486,2.188a32.488,32.488,0,0,0-14.71,8.565,6.672,6.672,0,0,1-1.267,1.008,2.653,2.653,0,0,1-3.184-.186,2.352,2.352,0,0,1-.856-2.739c.36-1.472.724-2.949.952-4.444a13.352,13.352,0,0,0-1.387-9.126,6.256,6.256,0,0,0-8.194-2.906,15.943,15.943,0,0,0-5.139,3.055c-1.244,1.119-2.383,2.358-3.516,3.594A8.335,8.335,0,0,1-797.7,3976.275Zm-73.392,214.515c-1.332.258-2.549.448-3.741.733-5.156,1.237-10.29,2.572-15.462,3.739a227.374,227.374,0,0,1-23.848,4c-7.051.817-14.113,1.428-21.215,1.562-4.6.086-9.228.015-13.8.45-8.673.824-17.312,2-25.974,2.953-5.057.557-10.124,1.044-15.2,1.418-3.617.267-7.256.223-10.878.443a179.25,179.25,0,0,1-23.542.276c-5.618-.4-11.252-.562-16.874-.914-6.756-.423-13.5-1-20.285-.754-1.191.043-2.386.045-3.575-.012q-2.757-.133-5.509-.379c-5.391-.484-10.771-1.113-16.171-1.465-6.216-.405-12.434-.694-18.6-1.665a13.126,13.126,0,0,0-4.8.073c-.2,1.517-.12,1.706.993,2.285.72.375,1.46.708,2.177,1.089,7.039,3.731,13.845,7.849,20.491,12.242a152.222,152.222,0,0,0,25.427,13.662c24.559,10.228,34.093,10.921,54.917,12.458a96.538,96.538,0,0,0,22.521-.929c4.433-.715,8.959-1.061,13.289-2.174,7.38-1.9,14.707-4.069,21.931-6.5,8.356-2.81,16.567-6.049,24.858-9.055,11.4-4.132,22.341-9.184,32.224-16.274,5.762-4.135,11.335-8.534,17-12.809.821-.62,1.681-1.188,2.49-1.822A2.691,2.691,0,0,0-871.087,4190.791Zm-370.771,83.395a13.112,13.112,0,0,1-5.608-4.356,10.918,10.918,0,0,0-7.925-4.542,4.783,4.783,0,0,0-5.223,2.757,11.244,11.244,0,0,0-.943,2.749c-.37,1.8-.559,3.639-.932,5.438a13.245,13.245,0,0,1-1,3.067,2.531,2.531,0,0,1-3.367,1.473,14.521,14.521,0,0,1-2.626-1.236c-1.1-.584-2.127-1.306-3.253-1.821a9.869,9.869,0,0,0-9.49.438,21.835,21.835,0,0,0-8.173,8.169,9.918,9.918,0,0,0-.8,1.771,6.67,6.67,0,0,0,3.016,8.259,13.418,13.418,0,0,0,3.47,1.3c1.572.391,3.2.54,4.786.884,1.769.383,2.32,1.572,1.387,3.111a3.68,3.68,0,0,1-1.658,1.457,12.605,12.605,0,0,1-3.3.739c-1.925.194-3.733-.477-5.565-.958-6.22-1.634-10.038,1.477-12.4,6.446a1.905,1.905,0,0,0,.64,2.6,14.18,14.18,0,0,0,1.858,1.3c8.014,4.871,16.813,7.343,26.046,8.449,7.722.926,15.462.649,23.2.287,6.868-.321,13.738-.58,20.608-.865,3.083-.128,6.168-.206,9.247-.391,2.106-.126,4.2-.479,6.3-.586,6.922-.351,13.851-.559,20.768-.968a75.876,75.876,0,0,0,17.145-3.475,5.8,5.8,0,0,0,4.193-4.517,12.88,12.88,0,0,0-10.718-15.448c-.591-.074-1.187-.125-1.771-.235-2.792-.527-3.96-2.263-3.365-5.049.18-.844.5-1.656.727-2.492a4.684,4.684,0,0,0-.079-3.26c-1.612.335-1.715.393-2.621,1.369a25.987,25.987,0,0,1-2.007,2.118,2.328,2.328,0,0,1-3.132.131c-1.13-.74-1.444-1.716-1.073-3.447.43-2.008.744-4.056,1.354-6.009a14.92,14.92,0,0,0-1.41-12.055c-.258-.475-.478-.972-.737-1.446-4.226-7.723-10.564-12.483-19.385-13.646a21.48,21.48,0,0,0-13.65,2.542,17.14,17.14,0,0,0-8.132,10.519c-.556,1.866-1.029,3.757-1.586,5.624A6.183,6.183,0,0,1-1241.859,4274.185Zm108.563-219.152c-1.8.592-2.862.306-3.981-1.12-1.4-1.788-2.706-3.657-4.118-5.439a13.808,13.808,0,0,0-15.835-4.788c-5.847,1.915-10.037,5.853-13.036,11.117a18.684,18.684,0,0,0-2.567,9.122,8.236,8.236,0,0,0,3.709,7.334c1.553,1.083,3.076,2.22,4.535,3.426,1.571,1.3,1.349,2.6-.505,3.485a7.4,7.4,0,0,1-1.054.421c-1.864.556-3.729,1.115-5.6,1.641a13.321,13.321,0,0,0-9.614,8.844,7.111,7.111,0,0,0,.46,6.429c2.333,3.548,5.493,5.975,9.931,6.2a37.085,37.085,0,0,0,4.869-.084c4.262-.349,8.172-1.62,11.3-4.7a5.98,5.98,0,0,1,6.882-1.3q3.028,1.169,6.054,2.345a56.727,56.727,0,0,0,15.868,3.89q4.613.384,9.235.644c4.648.26,9.3.645,13.95.656a219.02,219.02,0,0,0,23.491-1.571,31.874,31.874,0,0,0,15.231-5.6,8.648,8.648,0,0,0,1.841-1.567,2.586,2.586,0,0,0-1.422-4.219,9.234,9.234,0,0,0-2.088-.175c-.484-.011-.97.112-1.456.113a2.718,2.718,0,0,1-2.463-4.291,6.851,6.851,0,0,1,1.538-1.644,24.923,24.923,0,0,0,5.867-7.094,13.388,13.388,0,0,0,1.927-6.8c-.11-5.7-2.921-9.985-7.424-13.195a5.788,5.788,0,0,0-6.742.036c-1.933,1.193-3.815,2.476-5.663,3.8a18.062,18.062,0,0,0-4.855,5.186,13.945,13.945,0,0,1-1.58,2.057,11.147,11.147,0,0,1-5.608,3.411,3.659,3.659,0,0,1-4.8-3.079,4.98,4.98,0,0,1,.211-2.705,32.737,32.737,0,0,0,1.909-11.967,40.916,40.916,0,0,0-3.749-14.538,11.057,11.057,0,0,0-11.1-5.936,10.218,10.218,0,0,0-8.731,8.4c-.218,1.5-.44,2.995-.692,4.487-.431,2.547-.887,5.09-1.33,7.621a3.363,3.363,0,0,1-4.342-2.9,47.758,47.758,0,0,0-1.233-5.37c-.644-2.105-2.33-2.8-4.408-2.9a3.969,3.969,0,0,0-4.04,2.4,6.91,6.91,0,0,0-.373,6.1C-1134.38,4052.458-1133.855,4053.7-1133.3,4055.033Zm247.906,240.411c-.557-.089-.928-.142-1.3-.209a26.316,26.316,0,0,0-8.872-.518,12.5,12.5,0,0,0-9.051,5.968,5.331,5.331,0,0,0,1.008,7.2,11.379,11.379,0,0,0,5.587,2.795,75.263,75.263,0,0,0,13.536,1.554c9.907.3,19.816.487,29.725.712a77.331,77.331,0,0,0,18.1-1.249c5.639-1.206,11.4-1.14,17.154-.923a54.616,54.616,0,0,0,17.178-2.084,12.759,12.759,0,0,0,8.067-7.041c.935-1.873.525-3.126-1.252-4.281a8.941,8.941,0,0,0-3.783-1.37,31.808,31.808,0,0,1-4.158-.682c-1.935-.521-2.491-1.791-1.6-3.608.568-1.158,1.367-2.2,2.051-3.305a65.671,65.671,0,0,0,3.631-5.949,22.015,22.015,0,0,0-.264-20.335,16.489,16.489,0,0,0-13.023-9.366,24.219,24.219,0,0,0-10.445.744c-6.442,1.9-11.674,5.331-14.6,11.678a22.777,22.777,0,0,1-2.341,3.7c-.656.907-1.469,1.7-2.161,2.486a2.852,2.852,0,0,1-2.244-2.082,18.661,18.661,0,0,0-2.056-4.377,28.926,28.926,0,0,0-9.758-8.662,11.906,11.906,0,0,0-9.27-1.084,45.85,45.85,0,0,0-4.933,1.607,18.979,18.979,0,0,0-3.693,2.009,7.285,7.285,0,0,0-3.17,5.935,24.662,24.662,0,0,0,.8,6.26,11.344,11.344,0,0,1,.251,3.208,5.8,5.8,0,0,1-2.065,4.047c-1.52-1.154-2.92-2.263-4.366-3.31a11.575,11.575,0,0,0-10.215-1.623,3.1,3.1,0,0,0-2.423,2.377c-.759,3.381-.284,6.485,2.347,8.969.86.813,1.9,1.425,2.81,2.192a28.886,28.886,0,0,1,3.46,3.153A6.38,6.38,0,0,1-885.39,4295.445Zm-349.586-190.316c3.7.77,5.2,3.086,5.757,6.225.056.32.133.635.2.954a91.766,91.766,0,0,1,1.6,20.847c-.133,5.3-.276,10.607-.4,15.911-.091,3.948-.1,7.9-.257,11.844-.074,1.831-.475,3.646-.635,5.477a3.691,3.691,0,0,0,2.2,3.829,30.65,30.65,0,0,0,3.126,1.348c9.633,3.575,19.74,5.3,29.73,7.437,4.006.858,8.146,1.1,12.232,1.567,1.843.212,2.734-.588,2.751-2.518q.055-6.335-.024-12.671c-.02-1.478-.241-2.953-.391-4.675-1.239.924-2.2,1.708-3.226,2.389a2.224,2.224,0,0,1-3.33-.8c-.408-.735.218-5.022.917-5.522,2.152-1.54,3.617-3.714,5.385-5.609a26.139,26.139,0,0,1,3.541-3.068c3.128-2.323,6.437-4.418,9.449-6.879,7.675-6.27,15.22-12.7,22.831-19.046,4.616-3.851,9.258-7.67,13.885-11.508a3.982,3.982,0,0,0,1.77-2.857,32.98,32.98,0,0,0-9.439-2.929,12.114,12.114,0,0,0-7.519,1.5,134.594,134.594,0,0,1-14.449,7.021c-5.813,2.512-11.7,4.893-17.073,8.287-2.93,1.853-6.06,2.161-9.347,1.991a3.678,3.678,0,0,1-1.395-.39,1.856,1.856,0,0,1-.7-2.979,4.2,4.2,0,0,1,.682-.692,3.062,3.062,0,0,0,.958-3.785q-.871-2.272-1.714-4.556a27.82,27.82,0,0,1-1.026-2.9c-.49-1.966.643-3.077,2.589-2.637a4.209,4.209,0,0,1,3.682,3.754,26.627,26.627,0,0,0,1.151,4.557c.9,2.7,1.8,3.041,4.337,1.834,1.466-.7,2.926-1.41,4.414-2.055q8.111-3.512,16.239-6.981c2.387-1.025,4.781-2.034,7.158-3.081a4.094,4.094,0,0,0,1.485-.936,1.95,1.95,0,0,0,.39-1.436c-.127-.7-.821-.846-1.432-.737a7.267,7.267,0,0,0-1.668.583c-3.3,1.486-6.615,2.959-9.9,4.5a38.007,38.007,0,0,1-9.432,2.911c-5.285.955-9.792-.186-13.007-4.816-.062-.089-.133-.171-.2-.255a4.765,4.765,0,0,0-3.935-1.924c-1.408.015-2.817.086-4.224.063a29.674,29.674,0,0,1-4.044-.228,18.5,18.5,0,0,1-9.133-4.671c-.947-.807-1.836-1.684-2.776-2.5a3.659,3.659,0,0,0-3.774-.817c-.924.307-1.857.588-2.792.858a9.8,9.8,0,0,1-6.979-.25,2.34,2.34,0,0,0-3.448,1.08,18.27,18.27,0,0,1-4.754,5.056c-1.332,1.021-2.676,2.027-3.991,3.07C-1233.551,4103.8-1234.123,4104.364-1234.975,4105.129Zm71.82,170.174c.478-.423.863-.793,1.278-1.127a3.954,3.954,0,0,0,1.264-5.163c-1.061-2.542-1.879-5.19-2.74-7.811-3.1-9.42-5.373-19.063-7.647-28.7a295.8,295.8,0,0,1-7.1-40.762c-.134-1.454-.318-2.9-.51-4.354a2.092,2.092,0,0,0-1.881-1.94c-1.12-.185-2.242-.377-3.369-.507a249.058,249.058,0,0,1-28.941-4.991c-4.1-.974-8.242-1.862-11.991-3.938a7.676,7.676,0,0,0-1.83-.644,3.233,3.233,0,0,0-4.191,2.071,16.8,16.8,0,0,0-.792,3.3c-.251,1.494-.319,3.02-.607,4.5-2.146,11.057-4.016,22.157-5.461,33.327-.619,4.777-1.226,9.56-1.7,14.353-.659,6.624.426,13.188.863,19.772.049.74.459,1.021,1.21,1.043a7.652,7.652,0,0,1,4.181-3.186c.8-.32,1.612-.639,2.381-1.033a15.4,15.4,0,0,0,1.565-1.047c-.247-.457-.4-.74-.554-1.023a37.2,37.2,0,0,1-4.422-17.616,16.755,16.755,0,0,1,.462-3.69,1.763,1.763,0,0,1,1.828-1.534,2.148,2.148,0,0,1,2.035,1.587,5.8,5.8,0,0,1,.167,1.443c.044,1.84.1,3.683.081,5.523-.05,4.332,1.058,8.472,2.076,12.622.381,1.558,1.214,1.974,2.81,1.715.64-.1,1.271-.268,1.908-.391,6.442-1.244,12.539-.45,18.012,3.34a80.5,80.5,0,0,1,7,5.537,27.691,27.691,0,0,1,6.1,7.751c.232.428.465.857.72,1.272,1.116,1.805,1.767,2.006,3.758,1.133.793-.348,1.559-.756,2.351-1.1a11.862,11.862,0,0,1,11.226.542,22.478,22.478,0,0,1,3.811,2.745c1.527,1.371,2.9,2.913,4.319,4.4C-1164.711,4273.538-1163.974,4274.4-1163.155,4275.3Zm260.741-219.66c-4.012-.694-7.4-2.532-10.955-3.96a26.42,26.42,0,0,0-3.554-1.122,12.123,12.123,0,0,0-10.486,1.992,24.544,24.544,0,0,0-3.09,2.625,31.676,31.676,0,0,0-9.138,21.616,27.425,27.425,0,0,0,3.577,14.486,11.868,11.868,0,0,0,10.779,6.623,35.981,35.981,0,0,1,4.832.554c1.717.272,2.24,1.243,1.681,2.938-.153.461-.358.906-.553,1.352-.871,1.981-1.778,3.949-2.612,5.945a7.72,7.72,0,0,0,.408,7.034,3.112,3.112,0,0,0,3.758,1.831c.693-.111,1.37-.321,2.06-.453a8.513,8.513,0,0,1,1.446-.174c1.862-.03,2.687.777,2.654,2.661a10.985,10.985,0,0,1-.3,2.247c-.362,1.583-.773,3.154-1.19,4.723-2.778,10.451,5.1,19.826,12.99,21.883,5.91,1.542,11.609.642,17.108-1.778a24.762,24.762,0,0,0,11.523-9.655c1.245-2.02,1.2-2.523-.313-4.314a26.819,26.819,0,0,1-5.889-12.312,41.769,41.769,0,0,1-.564-8.732c.029-2.09-.347-2.366-2.371-2.155a32.78,32.78,0,0,1-4.367.246c-6.42-.188-10.368-3.5-11.826-9.754a9.98,9.98,0,0,1,1.592-8.495,50.9,50.9,0,0,1,3.644-4.128c.355-.391.773-.726,1.254-1.172-.955-.544-1.792-1.035-2.641-1.5a41.767,41.767,0,0,1-7.4-4.979,18.18,18.18,0,0,1-4.908-6.19c-2.045-4.563-2.31-9.083.476-13.492.578-.915,1.105-1.862,1.63-2.808C-902.9,4056.767-902.709,4056.279-902.414,4055.643Zm66.158,129.2c0,.844.011,1.482,0,2.121-.06,2.815-.082,5.631-.2,8.444a57.554,57.554,0,0,1-1.741,10.226c-1.024,4.537-1.7,9.153-2.772,13.678a42.731,42.731,0,0,0-1.138,12.716,40.376,40.376,0,0,1-.732,11.153c-1.022,4.736-1.105,9.567-1.505,14.364-.194,2.334,1.018,3.786,3.554,4.507,0-.622,0-1.2,0-1.769q-.008-6.335-.017-12.673c0-.747.126-1.427,1.022-1.6.807-.158,1.263.189,1.614,1.207a11.952,11.952,0,0,1,.695,4.623,4.706,4.706,0,0,0,.662,3.149c3.262-1.357,5.787-3.325,6.2-7.066a10.923,10.923,0,0,0-.223-3.541,12.951,12.951,0,0,1,.114-4.836,2.921,2.921,0,0,1,2.193-2.568c1.071,4.065.264,8.3,1.649,12.342,1.883-.413,3.657-.844,5.449-1.186a28.594,28.594,0,0,1,11.457-.107c5.485,1.18,9.558,4.4,12.653,8.977.482.712.936,1.442,1.4,2.161.161-.09.28-.118.332-.192,2.565-3.689,5.214-7.324,7.656-11.093a10.349,10.349,0,0,0,.922-9.656c-.3-.812-.613-1.621-.937-2.423a36.107,36.107,0,0,1-2.676-10,62.094,62.094,0,0,0-.987-6.417q-2.967-14.472-6.027-28.925c-.493-2.347-1.24-2.932-3.691-3.011-.487-.016-.975-.028-1.462-.019a174.1,174.1,0,0,1-25.09-1.771C-830.561,4185.311-833.26,4185.127-836.256,4184.842Zm36.657,105.71c.88.219,1.595.436,2.324.573a7.211,7.211,0,0,1,4.291,2.4,9.212,9.212,0,0,0,6.727,3.169c1.887.077,3.786-.045,5.677-.13,2.378-.108,4.76-.45,7.13-.372a94.314,94.314,0,0,0,18.132-1.167,16.314,16.314,0,0,0,7.883-3.205,11.844,11.844,0,0,0,2.057-2.059,2.07,2.07,0,0,0-.478-3.248,20.978,20.978,0,0,0-2.705-1.453,37.663,37.663,0,0,1-4.153-2.185c-2.3-1.588-2.352-3.095-.4-5.042.269-.268.549-.524.813-.8a16.194,16.194,0,0,0,4.29-7.358A25.532,25.532,0,0,0-749.582,4253a9.966,9.966,0,0,0-7.171-5.839,16.837,16.837,0,0,0-7.729-.073,6.967,6.967,0,0,0-5.778,5.87c-.6,3.263-2.339,6.045-3.568,9.038a2.337,2.337,0,0,1-3.424,1.12,4.556,4.556,0,0,1-2.2-2.5,14.975,14.975,0,0,0-1.1-2.342,3.273,3.273,0,0,0-4.223-1.454,8.135,8.135,0,0,0-5.5,5.542,10.344,10.344,0,0,0,.188,6.857,10.715,10.715,0,0,1,.516,1.538,1.862,1.862,0,0,1-1.262,2.46c-.591.242-1.219.4-1.95.627C-793.559,4279.942-796.291,4285.266-799.6,4290.552Zm-36.343-128.793h-.011q0,6.987,0,13.973c0,2.932.579,3.629,3.4,4.174.212.041.428.063.642.1,3.044.494,6.081,1.04,9.134,1.475a129.981,129.981,0,0,0,20.886,1.39c2.759-.055,3.2-.524,2.849-3.193-.6-4.56-1.271-9.11-1.974-13.655-.943-6.1-1.978-12.178-2.9-18.276-.276-1.816-.319-3.667-.473-5.5a2.5,2.5,0,0,0-1.771-2.452,25.714,25.714,0,0,1-7.444-4.239c-2.038-1.522-4.029-3.12-6.161-4.5a16.039,16.039,0,0,1-3.9-3.367c-1.387-1.72-2.447-1.873-4.388-.8-.613.339-1.178.768-1.759,1.165-1.117.762-2.216,1.552-3.348,2.292-2.194,1.436-2.785,2.771-2.213,5.365a20.642,20.642,0,0,1,.155,6.935c-.363,3.111-.586,6.246-.7,9.377C-836.031,4155.258-835.942,4158.51-835.942,4161.759Zm-327.986,121.2a4.035,4.035,0,0,1-2.6-3.337,9.4,9.4,0,0,0-2.316-4.584,64.3,64.3,0,0,0-5.138-4.695,9.77,9.77,0,0,0-2.739-1.37c-4.589-1.757-11.23,1.557-11.9,6.727-.283,2.2-.488,3.27,2.473,3.917,3.271.715,4.891,2.736,5.292,6.079a2.013,2.013,0,0,0,1.767,2.007c.372.063.738.167,1.106.256,6.81,1.664,10.907,5.888,12.081,12.845.234,1.386.354,2.792.6,4.175.32,1.785.945,2.329,2.772,2.227s3.667-.313,5.484-.59c8.824-1.344,17.648-2.7,26.46-4.125a10.781,10.781,0,0,0,3.455-1.289c1.389-.781,1.538-1.832.63-3.134a6.748,6.748,0,0,0-4.136-2.957,40.541,40.541,0,0,0-5.3-.521c-1.237-.083-2.5.04-3.72-.113-1.721-.214-2.254-1.017-1.79-2.71.355-1.3.944-2.529,1.4-3.8a25.614,25.614,0,0,0,1.261-3.841c.569-3.089.1-6.012-2.383-8.182a12.1,12.1,0,0,0-10.015-2.706c-2.633.362-4.565,2.152-6.444,3.873-1.277,1.168-2.407,2.494-3.665,3.684C-1162.148,4281.594-1163.108,4282.287-1163.928,4282.954Zm403.484-119.671c-.091,1.408-.193,2.529-.229,3.653a3.031,3.031,0,0,0,.985,2.481c1.534,1.369,3.031,2.784,4.614,4.093a10.607,10.607,0,0,0,5.4,2.456c1.445.192,2.9.347,4.351.453,1.718.125,2.51-.45,2.878-2.16a7.4,7.4,0,0,0-1.8-6.792c-1.129-1.254-2.65-1.457-4.458-1.189.336.5.56.839.8,1.173.438.617.932,1.2,1.313,1.851a2.278,2.278,0,0,1-.291,2.847c-.75.884-1.307.906-2.192.186q-5.222-4.253-10.469-8.475C-759.743,4163.7-759.979,4163.578-760.444,4163.283Zm7.563,16.3-.195.329a9.473,9.473,0,0,0,4.155,4.046,5.055,5.055,0,0,0,6.414-2.9Z" transform="translate(0 0)" fill="#714c98"/>
    <path id="Path_670" data-name="Path 670" d="M-847.4,4266.406a32.979,32.979,0,0,0,6.473-.164c6.106-.734,11.7-3.007,17.153-5.706,4.41-2.184,8.8-4.408,13.208-6.595a9.525,9.525,0,0,1,2.839-.937c-.377.373-.739.763-1.134,1.115a70.272,70.272,0,0,1-27.3,14.818c-1.347.4-2.718.717-4.073,1.087a16.359,16.359,0,0,1-8.661-.157c-2.368-.631-3.122-1.837-2.461-4.241a35.911,35.911,0,0,1,1.9-4.812,11.332,11.332,0,0,0,1.374-4.632,4.215,4.215,0,0,0-3.3-.456c-.693.085-1.366.336-2.056.459a6.7,6.7,0,0,1-1.609.132,1.684,1.684,0,0,1-1.593-1.562,1.386,1.386,0,0,1,1.006-1.647,18.616,18.616,0,0,1,4.246-.951,65.54,65.54,0,0,1,7.132.21c1.793.122,2.34,1.107,1.6,2.795-.52,1.187-1.246,2.282-1.77,3.467-.941,2.12-1.807,4.273-2.683,6.423A9.147,9.147,0,0,0-847.4,4266.406Z" transform="translate(-158.361 -126.056)" fill="#714c98"/>
    <path id="Path_671" data-name="Path 671" d="M-882.513,4288.443a7.629,7.629,0,0,1-3.476,3.173c-1.4.694-2.869,1.27-4.324,1.852a120.165,120.165,0,0,1-13.6,4.836,23.134,23.134,0,0,1-11.878.125c-2.705-.691-4.259-1.529-2.4-5.083,1-1.917,1.867-3.907,2.766-5.877.554-1.214.2-1.787-1.153-1.934-.484-.052-.976-.031-1.459-.093-1.317-.17-1.857-.752-1.763-1.856.092-1.079.733-1.583,2.068-1.527,1.352.058,2.7.174,4.051.283.81.065,1.624.125,2.423.259,1.883.317,2.384,1.11,1.571,2.812s-1.824,3.313-2.77,4.953c-.3.515-.7.966-.989,1.486a2.553,2.553,0,0,0,1.956,3.982,7.845,7.845,0,0,0,2.1-.024A55.179,55.179,0,0,0-897.239,4293c3.908-1.439,7.8-2.909,11.7-4.37A3.57,3.57,0,0,1-882.513,4288.443Z" transform="translate(-138.001 -135.703)" fill="#714c98"/>
    <path id="Path_672" data-name="Path 672" d="M-756.58,4503.989c.454-.316.926-.609,1.356-.954.464-.37.85-.846,1.338-1.175a1.573,1.573,0,0,1,2.274.467,1.231,1.231,0,0,1-.245,1.979,7.146,7.146,0,0,0-2.677,4.113,2.237,2.237,0,0,1-.861,1.12c-.657.481-1.221.214-1.431-.59a3.913,3.913,0,0,1-.087-.643c-.075-.879-.6-1.17-1.424-1.2a25.623,25.623,0,0,1-3.068-.241,2.856,2.856,0,0,1-2.774-2.709,26.943,26.943,0,0,1-.293-4.041,1.69,1.69,0,0,1,1.784-1.885c1-.072,1.471.3,1.789,1.47.153.564.243,1.145.413,1.967a7.29,7.29,0,0,0,.722-.941c.9-1.785,1.731-3.61,2.682-5.37q4.241-7.849,8.569-15.65a15.828,15.828,0,0,1,4.286-5.029,12.019,12.019,0,0,1-.434,1.486c-1.812,3.865-3.53,7.779-5.495,11.566a93.34,93.34,0,0,0-6.38,14.536c-.155.484-.251.987-.374,1.481Z" transform="translate(-188.074 -197.793)" fill="#714c98"/>
    <path id="Path_673" data-name="Path 673" d="M-955.115,4313.338a6.885,6.885,0,0,0,4.54-.122c1.668-.449,3.293-1.058,4.95-1.547a7.71,7.71,0,0,1,3.836-.4c.5.756.122,1.166-.508,1.554a30.339,30.339,0,0,1-10.135,4.188,21.146,21.146,0,0,1-6.773.376c-1.874-.241-2.5-1.307-1.813-3.077a5.548,5.548,0,0,1,.437-.867,1.632,1.632,0,0,0-.007-1.967,3.6,3.6,0,0,1-.321-.563c-.695-1.472-.359-2.293,1.181-2.919,1.247-.508,2.489-1.026,3.735-1.535a2.042,2.042,0,0,1,2.637.505c.69.821.709,1.584-.1,2.639A6.193,6.193,0,0,0-955.115,4313.338Z" transform="translate(-124.633 -143.486)" fill="#714c98"/>
    <path id="Path_674" data-name="Path 674" d="M-998.664,4503.638c1.057-1.833,1.971-3.353,2.82-4.908.7-1.282,1.283-2.629,1.995-3.9.65-1.162,1.408-1.482,2.209-1.086a1.717,1.717,0,0,1,.642,2.4,47.305,47.305,0,0,1-5.46,9.939,8.946,8.946,0,0,1-.968,1.092c-1.265,1.164-2.341,1.109-3.491-.2-.93-1.056-1.8-2.162-2.724-3.225-.851-.981-1.789-1.892-2.589-2.912a1.924,1.924,0,0,1-.1-2.67,1.57,1.57,0,0,1,2.528-.264,21.143,21.143,0,0,1,1.767,1.9C-1001,4500.971-999.973,4502.148-998.664,4503.638Z" transform="translate(-109.957 -203.884)" fill="#714c98"/>
    <path id="Path_675" data-name="Path 675" d="M-823.552,4484.167c-.588-.959-1.113-1.692-1.507-2.489a3.316,3.316,0,0,0-2.135-2.051,1.4,1.4,0,0,1-.7-.388c-.995-1.169-.783-2.525-.477-3.851a2.607,2.607,0,0,1,2.152-2.158c1.121-.212,1.624.127,1.777,1.278.091.689.094,1.389.141,2.14a2.107,2.107,0,0,0,2.048-.73c.492-.42.924-.91,1.416-1.332a3.3,3.3,0,0,1,2.564-.777,1.213,1.213,0,0,1,1.188,1.131c.031.478-.085,1.245-.4,1.423-2.561,1.458-3.708,4-5.1,6.369C-822.819,4483.138-823.109,4483.516-823.552,4484.167Z" transform="translate(-167.396 -197.306)" fill="#714c98"/>
    <path id="Path_676" data-name="Path 676" d="M-914.282,4554.55c1.023-1.28,2.035-2.54,3.039-3.8a1.507,1.507,0,0,1,1.959-.653,1.155,1.155,0,0,1,.709,1.7,14.212,14.212,0,0,1-1.409,2.172,13.354,13.354,0,0,0-2.343,4.413c-.455,1.611-.935,1.8-2.633,1.368-.367-.094-.73-.208-1.1-.271a2.648,2.648,0,0,1-2.377-2.484c-.183-1.281-.469-2.549-.635-3.833a3.451,3.451,0,0,1,.165-1.431,1.581,1.581,0,0,1,1.652-1.065,1.348,1.348,0,0,1,1.407,1.11,9.043,9.043,0,0,1,.289,1.428C-915.488,4553.876-915.153,4554.3-914.282,4554.55Z" transform="translate(-138.234 -222.051)" fill="#714c98"/>
    <path id="Path_677" data-name="Path 677" d="M-1138.019,4579.042c.339-.477.77-1,1.107-1.579.27-.462.384-1.015.646-1.483.464-.831,1.042-1.054,1.721-.747a1.505,1.505,0,0,1,.911,2.11c-.927,1.71-1.939,3.375-2.976,5.021a1.2,1.2,0,0,1-1.836.335c-1.013-.623-2.055-1.2-3.064-1.827-1.747-1.089-2.007-2.866-2.006-4.685a1.764,1.764,0,0,1,1.533-1.663c.739-.133,1.32.217,1.737,1.147.241.54.372,1.128.561,1.69A2.136,2.136,0,0,0-1138.019,4579.042Z" transform="translate(-65.896 -229.967)" fill="#714c98"/>
    <path id="Path_678" data-name="Path 678" d="M-535.3,4568.379a9.428,9.428,0,0,1-.335-.923,14.313,14.313,0,0,1,.519-8.271,4.275,4.275,0,0,1,.362-.722c.6-.984,1.159-1.261,1.956-.983a2.06,2.06,0,0,1,1.328,2.315,4.76,4.76,0,0,1-.331.91q-1.449,3.338-2.911,6.67C-534.835,4567.648-535.015,4567.893-535.3,4568.379Z" transform="translate(-261.713 -224.449)" fill="#714c98"/>
    <path id="Path_679" data-name="Path 679" d="M-545.3,4564.607a3.846,3.846,0,0,1-4.582-.078,2.252,2.252,0,0,1-.3-.381c-.864-1.385-.028-4.631,1.391-5.415a1.23,1.23,0,0,1,1.879.592,11.517,11.517,0,0,1,.422,1.4C-546.117,4561.945-545.739,4563.169-545.3,4564.607Z" transform="translate(-257.033 -224.815)" fill="#714c98"/>
    <path id="Path_680" data-name="Path 680" d="M-748.369,4461.816c-.018-.908.533-1.428,1.553-1.469a1.842,1.842,0,0,1,2.1,1.752,1.774,1.774,0,0,1-1.656,1.677A2.062,2.062,0,0,1-748.369,4461.816Z" transform="translate(-193.264 -193.172)" fill="#714c98"/>
    <path id="Path_681" data-name="Path 681" d="M-728.423,4440.611a1.49,1.49,0,0,1-1.743-1.452c-.042-1.083.484-1.726,1.437-1.758a1.854,1.854,0,0,1,1.908,1.786C-726.81,4440.033-727.424,4440.579-728.423,4440.611Z" transform="translate(-199.131 -185.776)" fill="#714c98"/>
    <path id="Path_682" data-name="Path 682" d="M-722.983,4469.751a1.956,1.956,0,0,1,1.737,1.821,1.5,1.5,0,0,1-1.538,1.512,2.357,2.357,0,0,1-1.743-2.249A1.343,1.343,0,0,1-722.983,4469.751Z" transform="translate(-200.947 -196.202)" fill="#714c98"/>
    <path id="Path_683" data-name="Path 683" d="M-714.207,4445.421c.007.872-.436,1.4-1.172,1.4a1.925,1.925,0,0,1-1.819-1.874c-.014-.762.371-1.126,1.206-1.141A1.6,1.6,0,0,1-714.207,4445.421Z" transform="translate(-203.312 -187.84)" fill="#714c98"/>
    <path id="Path_684" data-name="Path 684" d="M-1249.513,4051.182c-.252-.965-.481-1.739-.656-2.525a16.9,16.9,0,0,1,1.65-12.116c.619-1.137,1.381-2.2,2.093-3.284,3.171-4.844,10.947-5.213,14.888-1.259a23.039,23.039,0,0,1,4.909,7.2c.9,2.085,1.641,4.237,2.446,6.362.173.456.291.931.47,1.384.684,1.743,1.62,2.247,3.426,1.833.844-.193,1.67-.467,2.516-.644,2.159-.449,3.248.124,4.093,2.177.348.849.575,1.747.886,2.612.752,2.09,1.792,2.8,4.008,2.869a30.723,30.723,0,0,1,5.006.32c7.57,1.523,11.252,8.4,10.881,14.693a7.548,7.548,0,0,1-1.649,4.176c-1.122,1.458-2.32,2.859-3.531,4.244a1.409,1.409,0,0,1-2.021.335,2.607,2.607,0,0,1-.731-4.417,7.289,7.289,0,0,1,.822-.785c1.832-1.416,2.248-3.36,2.063-5.518a8.97,8.97,0,0,0-8.833-8.522,13.766,13.766,0,0,0-5.768.667,4.973,4.973,0,0,1-1.1.288,2.508,2.508,0,0,1-3.114-2.453c-.056-.644.02-1.3.024-1.947a19.136,19.136,0,0,0-.02-2.271c-.157-1.376-.841-1.926-2.209-1.728-1.229.179-2.434.514-3.657.745a12.782,12.782,0,0,1-1.769.2,2.156,2.156,0,0,1-2.211-1.347,20.662,20.662,0,0,1-.879-2.437c-.768-2.537-1.435-5.107-2.281-7.617a18.511,18.511,0,0,0-3.747-6.414c-3.533-3.975-7.417-3.615-10.151.958-2.979,4.979-3.465,10.046-.5,15.242a8.87,8.87,0,0,1,1.434,4.925,4.881,4.881,0,0,1-.254,1.424,1.257,1.257,0,0,1-1.81.83c-.506-.173-.956-.5-1.455-.707a51.584,51.584,0,0,0-6.026-2.351c-4.7-1.241-7.568,1.109-7.374,5.95.187,4.684,2.188,8.309,6.5,10.469a8.629,8.629,0,0,1,1.376.849,1.214,1.214,0,0,1,.472,1.576,2.773,2.773,0,0,1-1.246,1.113,2.119,2.119,0,0,1-1.421-.071,14.071,14.071,0,0,1-7.366-5.331,10.649,10.649,0,0,1-1.4-3.083c-.613-2.407-1.135-4.847-1.534-7.3-.623-3.819.625-5.94,4.24-7.367a31.354,31.354,0,0,1,9.034-1.854C-1250.567,4051.244-1250.139,4051.223-1249.513,4051.182Z" transform="translate(-26.924 -54.232)" fill="#714c98"/>
    <path id="Path_685" data-name="Path 685" d="M-1081.312,3995.514c-1.071.114-1.244-.47-1.4-1.162a23.058,23.058,0,0,1-.071-9.516,46.292,46.292,0,0,1,4.934-13.349c1.271-2.328,2.622-4.617,3.771-7a22.065,22.065,0,0,0,1.654-4.732,12.649,12.649,0,0,0-6.161-13.553,4.713,4.713,0,0,0-5.216.078,28.816,28.816,0,0,0-8.7,8.168c-1.771,2.666-2.392,2.7-4.635.359a12.667,12.667,0,0,0-1.9-1.76c-2.324-1.594-4.732-1.1-6.049,1.37a15.928,15.928,0,0,0-1.5,4.254,6.286,6.286,0,0,0,1.469,5.308c.469.585,1.083,1.165.407,1.987a1.625,1.625,0,0,1-2.339.2,18.778,18.778,0,0,1-2.927-2.975,3.578,3.578,0,0,1-.485-2.966c.283-1.434.572-2.867.833-4.3a13.254,13.254,0,0,1,2.978-6.052,5.418,5.418,0,0,1,6.12-1.844c.728.2,1.427.508,2.137.771a5.349,5.349,0,0,0,6.083-1.391c1.419-1.407,2.951-2.7,4.463-4.012a12.207,12.207,0,0,1,1.729-1.207,8.944,8.944,0,0,1,9.847-.1c6.315,3.864,9.769,9.861,8.464,17.869a19.884,19.884,0,0,1-3.485,8.639c-4.014,5.566-6.319,11.93-8.033,18.517-.613,2.355-1.1,4.744-1.651,7.116C-1081.072,3994.634-1081.189,3995.042-1081.312,3995.514Z" transform="translate(-76.514 -25.657)" fill="#714c98"/>
    <path id="Path_686" data-name="Path 686" d="M-1028.064,4046.784c.423-.356.794-.661,1.156-.976a21.918,21.918,0,0,1,7.576-4.3c6.526-2.174,12.4,1.308,13.555,8.1a16.476,16.476,0,0,1-5.045,15.372,21.764,21.764,0,0,1-6.184,4.131,3.184,3.184,0,0,1-3.251-.035,1.985,1.985,0,0,1-.037-3.554c1.107-.671,2.314-1.176,3.464-1.778a13.356,13.356,0,0,0,6.079-6.113,9.225,9.225,0,0,0-.4-9.444c-1.826-2.895-4.465-3.735-7.543-2.247a23.17,23.17,0,0,0-7.574,5.766c-1.938,2.253-3.173,2.173-4.767-.3-.5-.773-.9-1.607-1.423-2.364-1.342-1.956-3.486-1.94-4.752.076a6.393,6.393,0,0,0-.716,5.752c.143.407.332.8.508,1.195.29.65.659,1.3-.139,1.871a1.955,1.955,0,0,1-2.273-.049,3.251,3.251,0,0,1-.668-.7,10.407,10.407,0,0,1-1.61-9.41,5.792,5.792,0,0,1,4.651-4.282,8.916,8.916,0,0,1,7.763,1.878C-1029.152,4045.819-1028.631,4046.288-1028.064,4046.784Z" transform="translate(-98.426 -57.96)" fill="#714c98"/>
    <path id="Path_687" data-name="Path 687" d="M-1183.713,4169.937a19.665,19.665,0,0,1-.925,6.561,7.085,7.085,0,0,1-.806,1.577,1.258,1.258,0,0,1-1.585.48,2.419,2.419,0,0,1-1.031-1.111,3.175,3.175,0,0,1-.159-1.437c.072-1.619.188-3.236.287-4.854a14.945,14.945,0,0,0,.122-2.583,6.025,6.025,0,0,0-.743-2.444c-1.218-1.95-3.217-2.23-5.291-2.065a4.432,4.432,0,0,0-4.149,2.882,5.722,5.722,0,0,0-.311,3.958,1.523,1.523,0,0,1,.092.31c.138,1.213.182,2.473-.9,3.273-1.008.75-2.074.192-3.054-.283a11.82,11.82,0,0,1-1.238-.77c-.551-.359-1.1-.494-1.6.06s-.835,1.216-.356,1.9a6.747,6.747,0,0,0,1.365,1.357c.8.637,1.7,1.167,2.484,1.822.942.782.939,1.237.145,2.134-1.531,1.731-1.568,1.787-3.47.518a42.963,42.963,0,0,1-4.8-3.573,10.046,10.046,0,0,1-3.257-6.54c-.253-2.192.474-3.338,2.654-3.678a19.013,19.013,0,0,1,4.515-.074c1.735.15,2.5-.068,3.378-1.549.524-.881.934-1.83,1.442-2.722,1.779-3.129,3.692-4.155,7.242-3.559a36.28,36.28,0,0,1,5.766,1.594,5.685,5.685,0,0,1,3.942,5.089C-1183.812,4167.448-1183.789,4168.7-1183.713,4169.937Z" transform="translate(-43.518 -96.158)" fill="#714c98"/>
    <path id="Path_688" data-name="Path 688" d="M-526.928,4108.816a21.434,21.434,0,0,1-1.315,7.157c-.993,2.764-.733,4.09,2.811,4.25a7.58,7.58,0,0,1,5.218,2.324,3.981,3.981,0,0,1,.9,4.76c-.109.247-.237.487-.337.739-.588,1.489-.269,2.471,1.271,2.929,3.714,1.1,6.433,3.746,9.411,5.958,2.021,1.5,2.775,3.845,3,6.279a17.7,17.7,0,0,1-2.843,11.446,8.707,8.707,0,0,1-7.181,4.375,23.116,23.116,0,0,1-11.68-2.164,12.786,12.786,0,0,1-3.012-2.388,1.743,1.743,0,0,1-.3-2.245,2.125,2.125,0,0,1,2.129-1.22,7.429,7.429,0,0,1,2.415.833,22.366,22.366,0,0,0,5.953,2.52c5.379,1.139,9.6-2.035,10.028-7.549a8.744,8.744,0,0,0-3.059-7.532,18.036,18.036,0,0,0-9.044-4.487,13.514,13.514,0,0,1-2.507-.648,1.833,1.833,0,0,1-1.292-2.567,14.1,14.1,0,0,1,.989-2.217c.356-.728.812-1.414,1.117-2.161.453-1.111.211-1.654-.968-1.889a31.555,31.555,0,0,0-3.862-.432c-.971-.07-1.952.009-2.923-.064-2.5-.186-3.337-1.4-2.621-3.841a15.1,15.1,0,0,1,1.156-3.025,19.4,19.4,0,0,0,1.784-13.248,40.8,40.8,0,0,0-1.2-5.049c-1.187-3.749-4.275-4.98-7.675-2.993a14.9,14.9,0,0,0-7.288,10.813c-.236,1.331-.34,2.688-.615,4.01a9.952,9.952,0,0,1-.857,2.434c-.668,1.324-1.149,1.433-2.428.619a11.639,11.639,0,0,1-1.636-1.328,9.2,9.2,0,0,0-4.26-2.236c-3.178-.744-5.686.82-6.163,4.072a8.64,8.64,0,0,0,3.258,8.218,19.268,19.268,0,0,0,2.892,1.781c.669.382,1.4.681,1.22,1.667a1.806,1.806,0,0,1-1.862,1.51,7.486,7.486,0,0,1-2.8-.645c-5.314-2.532-8.339-9.725-6.5-15.312,1.415-4.3,4.822-6.227,9.665-5.918a24.488,24.488,0,0,1,3.5.638c1.246.265,1.805.007,2.282-1.176a11.429,11.429,0,0,0,.379-1.242,19.815,19.815,0,0,1,9.406-12.13c4.645-2.765,9.615-1.47,12.17,3.287A26.7,26.7,0,0,1-526.928,4108.816Z" transform="translate(-251.354 -74.121)" fill="#714c98"/>
    <path id="Path_689" data-name="Path 689" d="M-664.414,4058.743c.054.563.167,1.423.207,2.286a11.8,11.8,0,0,1-.043,2.259,1.388,1.388,0,0,1-1.691,1.34c-.7-.051-1.38-.262-2.074-.37a20.45,20.45,0,0,0-2.247-.281,4.637,4.637,0,0,0-4.6,2.441,4.872,4.872,0,0,0,.079,5.52,25.559,25.559,0,0,0,2.96,3.187c1.164,1.146,1.005,2.519-.5,3.033a2.034,2.034,0,0,1-1.656-.2c-2.508-2-4.888-4.159-5.867-7.373a7.119,7.119,0,0,1,1.5-6.985,12.19,12.19,0,0,1,4.279-3.153c.783-.369,1.582-.706,2.344-1.114a5.077,5.077,0,0,0,2.761-4.116,19.012,19.012,0,0,1,2.474-7.331,9.707,9.707,0,0,1,12.224-4.236c5.111,2.1,8.781,5.656,10.224,11.182.355,1.361.765,2.707,1.109,4.069a3.448,3.448,0,0,1-1.689,4.014,2,2,0,0,1-3.145-1.322,10.141,10.141,0,0,1-.239-1.922c-.072-1.025-.058-2.058-.164-3.079a7.667,7.667,0,0,0-3.01-5.541c-.988-.756-1.893-1.628-2.921-2.321-3.115-2.1-6.5-1.333-8.487,1.908a14.133,14.133,0,0,0-1.826,7.153C-664.418,4058.009-664.414,4058.225-664.414,4058.743Z" transform="translate(-215.239 -58.613)" fill="#714c98"/>
    <path id="Path_690" data-name="Path 690" d="M-598.381,4194.916a16.147,16.147,0,0,1-2.8,8.089,38.272,38.272,0,0,1-3.029,3.8,1.624,1.624,0,0,1-2.3.449,2.118,2.118,0,0,1-.873-2.678c.371-.771.943-1.444,1.385-2.185a43.076,43.076,0,0,0,2.658-4.62c1-2.276.539-3.574-1.42-5.085a5.482,5.482,0,0,0-6.06-.876c-1.567.73-3.187,1.353-4.725,2.136a3.553,3.553,0,0,1-4.343-.475c-.529-.462-1.077-.907-1.644-1.32a3.192,3.192,0,0,0-4.783.869,5.717,5.717,0,0,0-.762,3.9,12.288,12.288,0,0,1,.157,1.611,1.74,1.74,0,0,1-2.735,1.557,3.314,3.314,0,0,1-1.573-1.983c-1.478-4.036,1.359-9.992,5.412-11.377a5.4,5.4,0,0,1,5.52.82,4.773,4.773,0,0,0,5.568.606,17.845,17.845,0,0,1,5.917-1.612,10.228,10.228,0,0,1,9.826,5.887A15.606,15.606,0,0,1-598.381,4194.916Z" transform="translate(-230.894 -104.846)" fill="#714c98"/>
    <path id="Path_691" data-name="Path 691" d="M-1166.638,4358.852c.1.756.234,1.389.25,2.025.046,1.785.057,3.571.056,5.358,0,4.924-.052,9.849.006,14.772a21.977,21.977,0,0,0,.571,3.668c.131.712.342,1.449-.518,1.818a1.33,1.33,0,0,1-1.759-.752,4.158,4.158,0,0,1-.579-1.644q-.495-6.393-.892-12.794a39.312,39.312,0,0,1,.6-10.669C-1168.6,4359.225-1168.379,4359.052-1166.638,4358.852Z" transform="translate(-57.483 -160.458)" fill="#714c98"/>
    <path id="Path_692" data-name="Path 692" d="M-1151.331,4419.074a1.216,1.216,0,0,1-.406-.215,10.506,10.506,0,0,1-3.164-9.729,5.2,5.2,0,0,1,.4-1.226,1.311,1.311,0,0,1,1.405-.874,1.413,1.413,0,0,1,1.311,1.233,6.18,6.18,0,0,1,.1.963Q-1151.5,4414.143-1151.331,4419.074Z" transform="translate(-62.164 -175.984)" fill="#714c98"/>
    <path id="Path_693" data-name="Path 693" d="M-1164.413,4413.244a1.818,1.818,0,0,1-1.851-1.807,1.364,1.364,0,0,1,1.567-1.246,1.6,1.6,0,0,1,1.716,1.693A1.287,1.287,0,0,1-1164.413,4413.244Z" transform="translate(-58.562 -177.006)" fill="#714c98"/>
    <path id="Path_694" data-name="Path 694" d="M-1176.349,4374.564a1.219,1.219,0,0,1-1.182,1.284,1.1,1.1,0,0,1-1.263-1.143,1.3,1.3,0,0,1,1.19-1.3A1.113,1.113,0,0,1-1176.349,4374.564Z" transform="translate(-54.524 -165.146)" fill="#714c98"/>
    <path id="Path_695" data-name="Path 695" d="M-1178.18,4388.294c1.236-.037,1.678.292,1.677.981a1.049,1.049,0,0,1-1.116,1.088c-.753.023-1.523-.6-1.338-1.233C-1178.84,4388.734-1178.335,4388.451-1178.18,4388.294Z" transform="translate(-54.463 -169.947)" fill="#714c98"/>
    <path id="Path_696" data-name="Path 696" d="M-579.695,4355.458c0,1.189.052,2.383-.013,3.568a4.338,4.338,0,0,1-2.148,3.615,1.386,1.386,0,0,1-1.668.082,1.647,1.647,0,0,1-.667-1.7c.44-2.991.838-5.986,1.252-8.98a6.285,6.285,0,0,1,.117-.8,1.481,1.481,0,0,1,1.519-1.209,1.446,1.446,0,0,1,1.526,1.375c.094.911.057,1.836.072,2.755.007.434,0,.866,0,1.3Z" transform="translate(-246.176 -157.613)" fill="#714c98"/>
    <path id="Path_697" data-name="Path 697" d="M-589.16,4416.139c-.087,2.158-.156,4.317-.266,6.473-.06,1.181-.455,1.625-1.339,1.655a1.386,1.386,0,0,1-1.554-1.629q.19-5.9.525-11.786a4.922,4.922,0,0,1,.573-2,1.373,1.373,0,0,1,1.138-.6,1.446,1.446,0,0,1,.924.931,9.529,9.529,0,0,1,.054,2.094q0,2.429,0,4.859Z" transform="translate(-243.564 -176.379)" fill="#714c98"/>
    <path id="Path_698" data-name="Path 698" d="M-583.277,4372.525a9.41,9.41,0,0,1,1.125,4.178c.072,1.295-.01,2.6.027,3.9.041,1.457.11,2.913.221,4.365.076,1-.148,1.375-1.132,1.613-1.467.355-2.3-.228-2.393-1.711a28.648,28.648,0,0,1,.036-7.607A10.013,10.013,0,0,1-583.277,4372.525Z" transform="translate(-245.706 -164.865)" fill="#714c98"/>
    <path id="Path_699" data-name="Path 699" d="M-590.95,4373.651a10.651,10.651,0,0,1,.928,5.5c-.239,2.738-.616,5.463-.972,8.189-.133,1.02-.594,1.442-1.278,1.342a1.511,1.511,0,0,1-1.264-1.747c.236-2.685.449-5.373.758-8.05A11.982,11.982,0,0,1-590.95,4373.651Z" transform="translate(-243.169 -165.227)" fill="#714c98"/>
    <path id="Path_700" data-name="Path 700" d="M-588.581,4355.185a1.753,1.753,0,0,1,1.664,1.644,1.33,1.33,0,0,1-1.454,1.192,1.823,1.823,0,0,1-1.751-1.754A1.333,1.333,0,0,1-588.581,4355.185Z" transform="translate(-244.271 -159.275)" fill="#714c98"/>
    <path id="Path_701" data-name="Path 701" d="M-597.718,4416.847c-1.1.007-1.633-.4-1.658-1.293a1.2,1.2,0,0,1,1.229-1.369,1.886,1.886,0,0,1,1.813,1.718C-596.356,4416.592-596.721,4416.84-597.718,4416.847Z" transform="translate(-241.289 -178.292)" fill="#714c98"/>
    <path id="Path_702" data-name="Path 702" d="M-580.709,4402.614a1.172,1.172,0,0,1-1.282,1.166,1.9,1.9,0,0,1-1.805-1.754c.061-.832.67-.868,1.3-.86C-581.38,4401.18-580.693,4401.737-580.709,4402.614Z" transform="translate(-246.31 -174.096)" fill="#714c98"/>
  </g>
</svg>
