<svg xmlns="http://www.w3.org/2000/svg" width="48.777" height="70.759" viewBox="0 0 48.777 70.759">
  <path id="Path_454" data-name="Path 454" d="M1177.67,625.125a11.569,11.569,0,0,0-8.373,3.572c-.172.179-.338.362-.5.551,5.445-8.935,2.311-21.992-6.49-27.291v13.034h0v14.26h-20.83l1.238,7.547h2.689l.477-1.881,11.344-.039-8.153,9.1,1.062,1.9a7.491,7.491,0,0,1,9.812,7.126c0,.207-.01.412-.027.615a7.33,7.33,0,0,1-13.456,3.014c-.111-.174-.219-.352-.315-.536h-5.655a12.609,12.609,0,0,0,12.16,9.292c.045,0,.089,0,.134,0,.132,0,.263.014.4.014a13.946,13.946,0,0,0,5.1-.962l.012-.005c.177-.068.35-.141.521-.216l.136-.062a10.665,10.665,0,0,0,3.36-2.368v10.922a10.32,10.32,0,0,0,2.951-8.9q.2.185.421.351c.087.065.171.134.261.2l.014.009a6.042,6.042,0,0,0,3.377,1.036l.019,0,.022,0h.019a6.082,6.082,0,0,0,6.043-6.081c0-.026,0-.052,0-.078a5.268,5.268,0,0,0-.177-1.37,5.741,5.741,0,0,0-.6-1.433c-.022-.038-.042-.076-.064-.114-.085-.139-.174-.278-.274-.416l-.011,0a3.689,3.689,0,0,1-.031.477,3.611,3.611,0,0,1-4.642,2.8c-.021-.006-.043-.01-.065-.017-.038-.011-.075-.025-.113-.037-.092-.031-.182-.063-.272-.1l-.037-.014a4.012,4.012,0,0,1-.661-.36l-.016-.011c-.079-.054-.154-.112-.229-.171-.058-.046-.114-.094-.169-.143l-.014-.012a3.985,3.985,0,0,1-1.308-2.572c-.007-.065-.017-.13-.02-.2,0-.026,0-.052,0-.078v-.011a1.374,1.374,0,0,1,.017-.217,1.284,1.284,0,0,1,.979-1.025,1.25,1.25,0,0,1,.249-.03h.083l.172,0h.021a1.4,1.4,0,0,0,1.387-1.394v-2.339c0-.014,0-.026,0-.04s0-.026,0-.04a1.383,1.383,0,0,0-1.363-1.344l-.258-.005a1.349,1.349,0,0,1-1.3-1.342v.033c0-.031,0-.061,0-.092,0-.182.007-.362.018-.541a8.852,8.852,0,0,1,8.777-8.309c.073,0,.146,0,.218.009a7.786,7.786,0,0,1,7.459,8.156,9.322,9.322,0,0,1-.332,2.043l0,0c.147-.132.306-.288.469-.444.382-.322.744-.658,1.09-1a16.723,16.723,0,0,0,4.3-7.224,14.5,14.5,0,0,0,.564-3.836A11.605,11.605,0,0,0,1177.67,625.125Z" transform="translate(-1140.494 -601.958)" fill="#c4c2c1"/>
</svg>
