<svg xmlns="http://www.w3.org/2000/svg" width="117.38" height="251.184" viewBox="0 0 117.38 251.184">
  <path id="Path_1183" data-name="Path 1183" d="M943.443,380.5c3.5.867,5.133,3.325,6.224,6.434,2.98,8.459,6.313,16.8,9.007,25.35,2.54,8.066,4.633,16.288,6.577,24.524,2.411,10.247,4.463,20.582,6.658,30.89.542,2.526,1.022,5.073,1.558,7.748,1.571-3.887,3.169-7.558,4.551-11.3A39.068,39.068,0,0,1,985.9,451.26a99.988,99.988,0,0,1,9.807-9.881,23.9,23.9,0,0,1,12.767-5.242c10.457-1.253,20.6,3.17,26.006,12.272a18.985,18.985,0,0,1,1.883,5.872c1.382,6.746,1.538,13.4-1.469,19.871-2.574,5.533-5,11.141-7.4,16.756a4.888,4.888,0,0,1-3.068,2.993c-1.47-1.307-.447-2.506.021-3.332,4.4-7.809,6.38-16.471,9.048-24.9a15.637,15.637,0,0,0-.048-8.066c-1.795-8.8-6.644-15.523-15.963-17.832a17.989,17.989,0,0,0-16.83,3.975A77.553,77.553,0,0,0,980.916,471.1a54.545,54.545,0,0,0-4.578,23.169,18,18,0,0,0,.284,2.33,89.157,89.157,0,0,0,1.653,9.922c1.1,4,2.776,7.843,4.138,11.778,1.036,2.993,2.384,5.29,6.177,5.391,2.174.054,2.546,1.449,1.808,4.538-.806.149-1.693.244-2.54.481-3.975,1.1-4.5,1.781-4.531,6.007-.027,4.531-.163,9.075.041,13.6a26,26,0,0,0,6.407,15.645c2.424,2.933,4.145,2.933,6.887.373a12.706,12.706,0,0,0,4.321-8.032c.3-2.343,1.192-4.592.779-7.05-.067-.4.657-.928,1.043-1.436,3.047,3.359,3.075,9.793.23,15.116-3.062,5.736-7.809,7.511-16.126,5.913-.149,1.815-.318,3.6-.447,5.4-.454,6.36-.989,12.712-1.314,19.072-.237,4.551-.189,9.116-.257,13.674-.1,6.725-.488,13.457.237,20.176a4.438,4.438,0,0,1-1.923,4.524c-1.91-2.093-1.89-4.592-1.978-6.956-.2-4.951-.169-9.908-.25-14.866-.257-14.595-.495-29.183-.812-43.778-.048-2.323-.447-4.639-.752-7.626-1.687,3.441-3.19,6.326-4.524,9.285-5.046,11.188-13.606,18.178-25.357,21.381-8.141,2.215-15.929.759-23.535-2.364a6.035,6.035,0,0,1-1.66-1.016c-1.077-.942-1.707-2.093-.731-3.42.894-1.212,2.039-.7,3.17-.244,2.993,1.226,5.912,2.858,9.034,3.5,8.636,1.781,16.573-.088,23.264-5.98,11.351-9.99,16.884-22.824,17.988-37.744a78.751,78.751,0,0,0-1.253-22.539c-2.906-13.613-10.233-24.788-19.465-34.649a37.121,37.121,0,0,0-14.331-9.834c-2.059-.731-2.506-3.4-.948-5.648,1.639-2.35,3.474-4.565,5.2-6.847.366-.488.65-1.03,1.382-2.194-5.27.291-9.861.406-14.317,1.727-1.991.589-3.908,1.442-5.858,2.188-1.727.67-3.772,1.537-5.106.007-1.646-1.883-3.19-4.172-2.032-7.05,5.933-.284,11.73-.589,17.527-.84,5.662-.244,11.331-.427,17.325-.65.135,6.271-5.6,8.872-7.646,14.013,5.161,2.343,8.459,6.9,12.144,11.026,3.2,3.59,6.224,7.335,9.313,11.026a16.586,16.586,0,0,1,1.049,1.618L971,492.8a34.067,34.067,0,0,0-.508-3.447c-4.07-16.288-8.093-32.59-12.306-48.837-1.734-6.664-4.05-13.179-5.838-19.837-2.3-8.541-4.294-17.169-6.488-25.743-1-3.895-2.12-7.748-3.23-11.609C942.332,382.281,941.9,381.3,943.443,380.5Z" transform="translate(-919.932 -380.5)" fill="#000"/>
</svg>
