<svg xmlns="http://www.w3.org/2000/svg" width="247.265" height="279.121" viewBox="0 0 247.265 279.121">
  <g id="Group_119" data-name="Group 119" transform="translate(-872 -3898)">
    <g id="Group_118" data-name="Group 118" transform="translate(872 3898)">
      <path id="Path_1055" data-name="Path 1055" d="M-2842.653-687.188a19.624,19.624,0,0,0-1.224,9.62,24.654,24.654,0,0,1-.278,5.749c-.77,5.182-.573,10.392-.709,15.6-.127,4.813-.416,9.623-.637,14.433-.249,5.466-.452,10.935-.764,16.4-.326,5.668-.8,11.328-1.132,16.994-.311,5.226-.559,10.458-.783,15.69-.183,4.272-.281,8.549-.439,12.823-.112,3.047.513,3.706,3.648,3.73,9.566.075,19.132.085,28.7.237q11.245.18,22.483.647c11.25.46,22.491,1.128,33.743,1.518,4.9.17,9.814-.206,14.721-.2,3.43.007,6.857.3,10.287.369,7.944.171,15.89.252,23.834.435,12.111.279,24.209.688,36.331,0,5.976-.34,12,.293,18,.2a164.691,164.691,0,0,1,24.684,1.813,63.185,63.185,0,0,0,9.893.048c1.265-.03,2.365.009,3.015,1.418-.912,2.793-3.468,1.627-5.553,2.091l3.446,5.677c-1.4,1.792-3.041,1.57-4.855,1.475-6.642-.347-13.293-.489-19.942-.678-7.93-.225-15.857-.061-23.769-1.176-4.607-.649-9.355-.241-14.037-.414-6.638-.246-13.27-.661-19.909-.868-4.618-.144-9.245,0-13.865-.1-4.8-.11-9.607-.347-14.409-.569-4.675-.217-9.347-.54-14.023-.717-8.681-.331-17.362-.581-26.043-.881-5.793-.2-11.585-.427-17.376-.639-3.958-.145-7.922-.2-11.873-.463a5.252,5.252,0,0,0-5.4,2.645c-.2.327-.572.545-1.417.538.313-.892.628-1.783,1.05-2.985-1.047-.057-2.06-.151-3.075-.157-3.073-.019-6.152-.1-9.222.013-8,.3-15.989.5-23.884,2.145-4.183.872-8.478,1.242-12.736,1.7a30.031,30.031,0,0,1-4.531-.192c1.977-5.96,1.472-11.917,1.809-17.814.475-8.346,1.295-16.671,1.965-25.006.214-2.671.4-5.346.633-8.016.523-5.972,1.094-11.94,1.6-17.912.346-4.068.666-8.138.883-12.213a16.663,16.663,0,0,0-.524-3.06,3.339,3.339,0,0,1-.035-1.831c1.848-3.383,1.222-7.125,1.656-10.7q.949-7.825,1.7-15.673a18.833,18.833,0,0,0-.273-3.4,3.74,3.74,0,0,1-.1-1.176,110.275,110.275,0,0,0,2.927-20.583c.4-5.871,1.409-11.7,2.048-17.555,1.047-9.582,2.647-19.091,2.433-28.816-.143-6.507.7-13.035,1.079-19.555.073-1.26.011-2.527.011-4.173a48.284,48.284,0,0,0-6.521,1.432,4.981,4.981,0,0,1-4.26-.311,4.612,4.612,0,0,0-1.339-.643c-1.34-.154-1.577-.9-1.2-2,1.135-3.343,2.12-6.75,3.48-10a91.276,91.276,0,0,0,5.906-22.958q1.189-8.6,2.327-17.2a20.867,20.867,0,0,0,.183-2.884c-.021-2.741,1.14-4.1,3.828-4.087,8.14.038,16.281.227,24.42.2,5.878-.016,11.755-.335,17.633-.405,2.935-.035,5.877.331,8.807.253,3.934-.105,7.86-.474,11.791-.713,3.718-.227,7.436-.534,11.158-.63,9.648-.25,19.3-.353,28.947-.626,3.3-.093,6.583-.526,9.875-.787,1.905-.149,3.814-.293,5.722-.392,4.922-.252,9.851-.405,14.768-.732,4.808-.32,9.608-.786,14.408-1.225,7.361-.674,14.735-1.238,22.072-2.126,4.241-.516,8.427-1.523,12.618-2.409,2.948-.623,4.414-.754,6.86-.152a285.329,285.329,0,0,0,6.975,55.559c-1.37,2.161-3.563.233-5.461,1,.31,2.637.536,5.284.945,7.9.674,4.329,1.766,8.615,2.125,12.964.365,4.4,1.19,8.685,1.97,13.007,1.119,6.2,1.953,12.451,2.942,18.676,1.261,7.934,2.623,15.853,3.8,23.8.534,3.594.731,7.24,1.094,10.859.129,1.28.252,2.563.454,3.832,1.144,7.2,2.286,14.4,3.473,21.588,1.588,9.617,2.679,19.3,5.073,28.8,3.171,12.582,5.261,25.4,7.474,38.189,1.879,10.866,4.46,21.615,6.895,32.377.373,1.646.365,2.843-.817,4.081a2.347,2.347,0,0,1-2.429-2.114c-1.456-7.573-2.958-15.138-4.321-22.728-2.083-11.606-3.863-23.27-6.152-34.835-2-10.094-4.537-20.08-6.8-30.122-.518-2.3-.928-4.63-1.306-6.961q-3.068-18.883-6.093-37.772c-1.41-8.776-2.931-17.538-4.169-26.338-.833-5.931-1.2-11.928-1.882-17.882-.712-6.174-1.471-12.345-2.373-18.493-.946-6.447-2.085-12.867-3.144-19.31-4.073-.406-7.786-.845-11.509-1.13-5.443-.417-10.891-.91-16.345-1.019-4.384-.089-8.783.55-13.171.5-6.97-.081-13.869.748-20.8,1.211-6.092.406-12.179.885-18.275,1.185-4.261.21-8.537.122-12.8.256-5.364.168-10.728.38-16.088.669a33.219,33.219,0,0,0-6.045.782c-5.465,1.329-11.016,1.572-16.6,1.818-3.306.147-6.6.674-9.889,1.083-6.264.778-12.528,1.556-18.782,2.4-8.351,1.13-16.693,2.328-25.408,3.548-.139,2.617-.3,4.909-.371,7.2-.149,4.72-.215,9.445-.385,14.164-.157,4.394-.685,8.791-.558,13.173.264,9.133-1.252,18.112-1.911,27.163-.374,5.135-.631,10.278-.945,15.417a25.762,25.762,0,0,0-.178,2.878C-2843.132-690.405-2842.9-689.123-2842.653-687.188ZM-2647.772-787c-1.545-8.393-3.309-16.337-4.4-24.374s-1.507-16.185-2.251-24.636a28.929,28.929,0,0,0-3.12.016c-4.584.511-9.151,1.2-13.744,1.6-8.328.733-16.674,1.262-25,1.969-8.75.743-17.477,1.827-26.239,2.339-10.89.637-21.809.766-32.708,1.252-7.695.342-15.373,1.016-23.067,1.354-7.386.326-14.782.422-22.175.584-1.065.023-2.137-.241-3.2-.231-9.637.085-19.271.207-28.907.3-2.74.027-5.481,0-8.413,0a285.453,285.453,0,0,1-8.963,53.352c1.381-.187,2.426-.281,3.454-.475,2.733-.516,5.445-1.163,8.189-1.593,5.4-.849,10.854-1.387,16.216-2.416,9.285-1.78,18.677-2.577,28.063-3.45,3.949-.367,7.947-.319,11.866-.873,3.99-.564,8-.265,12.008-.88,6.23-.954,12.579-1.189,18.889-1.561,5.334-.315,10.683-.361,16.024-.58,5.107-.21,10.211-.5,15.317-.737,3.425-.163,6.848-.365,10.274-.452,5.874-.148,11.75-.176,17.624-.336,9-.245,17.989-.7,26.987-.794C-2659.491-787.677-2653.924-787.24-2647.772-787Zm-186.975,213.676c-4.146,0-7.535-.027-10.922.032a2.138,2.138,0,0,0-1.33.723c-1.313,1.455-2.557,2.974-4.246,4.965,4.4-.274,8.009-.44,11.6-.768a3.748,3.748,0,0,0,2.15-1.152A37.87,37.87,0,0,0-2834.747-573.327Zm-16.907-6.7c-4.119,2.119-5.96,7.2-5.065,13.185,4.633.673,4.933-3.367,6.743-5.949-.457-.413-.995-.664-1.037-.981C-2851.278-575.745-2851.433-577.736-2851.654-580.024Zm128.39,9.5c-3.456-.094-6.585-.008-9.677-.312-2.864-.283-4.85.834-6.985,3.418,1.589.129,2.7.24,3.809.305a42.077,42.077,0,0,1,5.448.319C-2727.395-566.168-2725.143-567.32-2723.263-570.526Zm47.348,4.751,3.274-4.216a104.923,104.923,0,0,0-11.009.121,5.759,5.759,0,0,0-4.243,3.135Zm14.932-4.108c-8.2-.8-9.584-.308-12.473,4.336l8.006,1.059C-2663.894-566.366-2662.565-567.971-2660.983-569.883Zm10.653.138c-6.008-1.822-11.04,1.665-12.171,5.49,2.316,0,4.544.05,6.769-.035a2.546,2.546,0,0,0,1.652-.744C-2652.833-566.456-2651.71-567.987-2650.33-569.745Zm-203.457-41.522.687.235c.761-2.267,3.524-2.962,3.876-5.634a24.286,24.286,0,0,0,.171-7.316c-2.009,1.114-3.663,2.267-3.99,4.263C-2853.5-616.936-2853.557-614.087-2853.786-611.267Zm212.157,42.182c-5.215-1.168-8.6.423-10.028,4.446,1.714.1,3.415.276,5.117.283a2.944,2.944,0,0,0,2.022-.585A43.587,43.587,0,0,0-2641.629-569.085Zm-193.856.127c2.39-.2,4.257-.645,6.058-.452,2.843.306,3.831-1.468,5.135-3.711C-2828.647-573.53-2832.688-574.294-2835.485-568.959Zm-20.376-10.5c3.5-3.193,6.559-6.257,4.9-11.279C-2854.7-589-2856.051-585.958-2855.861-579.456Zm145.57,11.56c3.482.381,6.305,1.285,9.238.919,1.434-.18,2.245-1.344,2.476-3.088C-2702.48-569.787-2706.4-571.258-2710.291-567.9Zm-12.552.891,9.744-.56,2-2.691C-2715.409-570.164-2719.667-572.114-2722.843-567Zm-127.583-33.832c-4.125,2.937-5.547,6.485-4.286,10.535a23.363,23.363,0,0,1,2.554-3.289C-2849.978-595.55-2849.765-597.868-2850.426-600.837Zm-4.032.544c3.382-2.99,5.575-6.124,4.453-11.046A12.4,12.4,0,0,0-2854.458-600.293Zm3.219-42.4c1.5-2.131,3.114-3.613,3.667-5.417.575-1.88.128-4.07.128-6.389-1.814.936-3.169,1.747-3.3,3.591C-2850.931-648.38-2851.053-645.84-2851.239-642.7Zm98.465,72.047c-7.041-1.068-10.843-.587-12.973,1.714,3.663.169,7.193.41,10.725.449A2.243,2.243,0,0,0-2752.773-570.65Zm1.471,2.037c2.447.334,4.433.506,6.374.895,2.392.48,3.74-.655,5.021-2.881C-2743.939-570.992-2747.666-571.98-2751.3-568.613Zm-63.448-1.521c3.729,0,6.807.017,9.888-.009,1.463-.012,2.27-.8,2.616-2.572-2.457,0-4.7.153-6.91-.044C-2811.284-572.947-2812.889-572.284-2814.75-570.133Zm-33.578-72.418c-3.713,2.777-4.547,5.108-3.1,8.56C-2848.923-636.3-2847.144-638.866-2848.328-642.552Zm80.881,71.133c-3.333.257-6.606-.771-9.6,1.309a47.052,47.052,0,0,0,7.367,1.258C-2768.247-568.7-2767.5-569.413-2767.447-571.418Zm-56.954,1.811c1.771,0,3.221-.067,4.664.015,2.167.124,3.3-.957,3.893-3.08C-2819.229-573.313-2822.175-573.195-2824.4-569.607Zm182.067,5.089c4.018.76,5.849-.363,7.073-4.122C-2639.183-569.011-2639.917-568.6-2642.334-564.518Zm-210.151-59.526c2.449-2.8,4.9-5.065,3.982-8.883C-2851.555-631.952-2852.871-629.074-2852.485-624.044Zm60.054,53.263c4.173.708,8.355,1.642,12.373-.385C-2784.187-570.917-2788.388-573.1-2792.431-570.78Zm-54.771-92.774c-2.766,1.619-3.717,4.235-2.838,7.766C-2847.36-657.74-2846.047-660.189-2847.2-663.554Zm149.407,96.546h7.475l1.855-2.529C-2691.95-570.182-2694.989-570.377-2697.794-567.009Zm62.035,2.958c3.193.651,5.5,0,6.595-3.1C-2631.359-568.98-2632.224-568.594-2635.759-564.051Zm-210.735-108.5c-.912.534-1.928.783-2.059,1.27a50.4,50.4,0,0,0-.875,5.57C-2846.6-668.442-2846.376-668.979-2846.494-672.549Zm.194-9.577c-1.854.9-2.212,2.293-2.11,7.322C-2845.682-676.685-2846.767-679.506-2846.3-682.126Zm46.369,109.321-.667.81c.493.614.9,1.636,1.5,1.761,1.526.32,3.145.261,3.833-1.971ZM-2845.7-694.142a15.185,15.185,0,0,0-1.032,9.053C-2845.578-688.357-2846.343-691.336-2845.7-694.142Z" transform="translate(2860.704 839.479)" fill="#714c98"/>
      <path id="Path_1056" data-name="Path 1056" d="M-2754.77-768.811c-.831,1.06-1.332,1.7-2.173,2.779l-1.544-6.907c-1.516,1.923-2.749,3.489-3.957,5.023-1.71-.919-2.432-1.838-2.317-3.53.177-2.624.047-5.268.047-8.1,2.444.595,1.35,2.421,1.5,3.643a46.578,46.578,0,0,1,.041,5c3.632-2.376,4.356-5.518,4.969-9.5,2.45,3.287,1.585,6.665,2.561,9.78,1.4-2.916,1.718-6.633,5.833-7.638.172.918.3,1.617.46,2.446-2.883.541-3.186,2.841-3.959,5.407l5.506-1.016c.7-5.477-1.675-10.566-.564-15.792,1.537,3.975,1.769,8.169,2.4,12.808l2.206-2.773c1.838.042,1.913,1.409,2.115,2.491.366,1.971,1.338,3.944-.116,6.135l-1.583-4.176-2.9,3.787c-1.334-1.21-2.619-.809-3.948.013C-2751.684-768.009-2753.253-767.17-2754.77-768.811Z" transform="translate(2893.862 857.543)" fill="#714c98"/>
      <path id="Path_1057" data-name="Path 1057" d="M-2798.952-691.129l2.835-3.843c-1.124.359-1.869.568-2.593.833-2.867,1.05-2.865,1.056-4.568-1.965-.958.853-1.9,1.648-2.8,2.5-1.181,1.129-2.352,2.352-4.181,1.679-1.289-.475-2.763-3.355-2.344-4.995.593-2.324,1.548-4.558,2.421-7.043a6.5,6.5,0,0,1,3.625,4.661c.6,2.434-1.169,3.349-3.936,4.116,1.256.429,1.81.832,2.191.708a10.428,10.428,0,0,0,2.881-1.387c1.247-.91,2.688-1.616,2.764-3.641.05-1.285.9-2.541,1.6-4.356,2.142,2.878-1.416,5.088.323,7.638l6.156-.506c.724-1.6,1.462-3.23,2.3-5.07l-3.9-1.6-.531-.784c.576-.275,1.208-.86,1.716-.766a45.61,45.61,0,0,1,4.548,1.29c-.45,4.131-2.406,7.234-4.189,10.614l3.3.3c.469,1.336.041,2.207-1.084,2.294-2.009.156-4.038.044-6.06.044Z" transform="translate(2877.307 885.974)" fill="#714c98"/>
      <path id="Path_1058" data-name="Path 1058" d="M-2831.792-764.913l-.5-5.657c-2.034.323-3.7.68-5.373.826-1.863.161-2.558-.647-2.023-2.488.95-3.269,2.056-6.494,3.147-9.721.116-.343.571-.569.911-.889,1.793.669,1.895,2.386,2.3,3.69a2.651,2.651,0,0,1-1.165,2.317c-1.614.7-1.759,1.993-2.117,3.839l6.456-1.566c.276,3.855.637,7.238.693,10.627a2.436,2.436,0,0,1-2.219,2.563c-2.295.291-4.574.789-6.875.91a1.969,1.969,0,0,1-2.25-1.833c-.077-1.492.981-1.685,2.12-1.808C-2836.478-764.344-2834.275-764.618-2831.792-764.913Z" transform="translate(2867.581 859.055)" fill="#714c98"/>
      <path id="Path_1059" data-name="Path 1059" d="M-2838.473-730.256a5.438,5.438,0,0,1-3.655-5.2c-.243-3.507-.2-6.769,2.09-9.732,1.033-1.339,2-2.132,3.743-1.638,1.763.5,3.28,1.461,3.693,3.221C-2831.557-739.144-2832.851-732.281-2838.473-730.256Zm2.836-11.89c-1.262,1.058-3.446.456-3.852,2.631-.355,1.909-.713,3.974,1.257,5.409C-2835.034-736.536-2834.406-738.335-2835.636-742.146Z" transform="translate(2867.091 871.454)" fill="#714c98"/>
      <path id="Path_1060" data-name="Path 1060" d="M-2724.591-766.566v-9.464c-1.529,1.137-2.966,2.3-5.03,1.262-.3-2.185-.8-4.431.72-6.521,1.982.725.57,2.6,1.767,3.964l2.749-3.141a1.684,1.684,0,0,1,1.783,1.8c.07,1.285.162,2.569.2,3.854.07,2.757.178,5.516.125,8.272a17.074,17.074,0,0,1-.8,3.328c-5.505-2.216-10.809-2.826-16.548-.541,1.084-3.314,3.331-4.033,5.692-4.052a47.093,47.093,0,0,1,6.672.829C-2726.446-766.865-2725.628-766.727-2724.591-766.566Z" transform="translate(2902.552 859.592)" fill="#714c98"/>
      <path id="Path_1061" data-name="Path 1061" d="M-2757.406-656.742c2.463.121,4.286.06,6.054.34,1.527.244,2.135,1.285,1.414,2.948h-3.916v2.962a17.966,17.966,0,0,1,3.341.3c.577.161,1,.879,1.491,1.344-.435.408-.806,1.016-1.318,1.177a13.16,13.16,0,0,1-2.671.276c-.036,1.438.164,2.4,1.9,1.979,1.145-.277,2.294-.541,3.449-.778,1.391-.284,2.785-.514,3.917.992-.975,1.469-2.7,1.565-4.135,1.924a35.857,35.857,0,0,1-6.321.883c-.466.031-1.472-.9-1.413-1.253.553-3.312-.936-6.3-1.332-9.446C-2757.077-654.118-2757.205-655.146-2757.406-656.742Z" transform="translate(2896.409 902.64)" fill="#714c98"/>
      <path id="Path_1062" data-name="Path 1062" d="M-2773.639-693.614h5.964c-1,2.016-2.225,2.916-4.149,2.777-.533-.039-1.072-.031-1.607-.032-2.674-.008-3.278-.406-3.415-2.993-.168-3.149-.045-6.312-.115-9.469-.044-2.017-.239-4.031-.3-6.049a9.776,9.776,0,0,1,.347-1.908,3.371,3.371,0,0,1,2.544,3.472c.091,2.133-.013,4.274,0,6.411,0,.772.1,1.543.2,3.048l2.764-5c1.909,1.9.826,3.364.119,4.838C-2771.981-697.086-2772.664-695.653-2773.639-693.614Z" transform="translate(2889.545 883.787)" fill="#714c98"/>
      <path id="Path_1063" data-name="Path 1063" d="M-2808.5-736.889c-1.961,1.168-4.379,2.165-4.154,5.38,1.617-.315,3.058-.549,4.476-.888,1.164-.279,1.384-1.183,1.3-2.254q-.583-7.012-1.141-14.026c-.092-1.14-.191-2.28-.291-3.452,2.217-.249,2.065,1.175,2.142,2.257.242,3.419.316,6.852.624,10.265.241,2.656.79,5.284,1.093,7.937a22.286,22.286,0,0,1-.085,3.271l-.751.18-1.507-3.012-6.61,2.757c-2.909-1.761-1.6-4.112-1.079-6.162a5.2,5.2,0,0,1,3.833-3.988C-2809.408-738.94-2808.552-738.542-2808.5-736.889Z" transform="translate(2876.419 869.661)" fill="#714c98"/>
      <path id="Path_1064" data-name="Path 1064" d="M-2706.542-674.159c-1.677.12-3.357.235-5.034.363-4.582.35-9.162.713-13.746,1.052-1.7.126-3.413.178-5.117.3-1.8.133-3.589.474-5.378.441-2.99-.055-5.979-.293-8.96-.564-.484-.044-.919-.649-1.376-.993.506-.4.994-1.1,1.525-1.13,1.815-.114,3.648-.026,5.473.039a166.175,166.175,0,0,0,23.437-1.171,33.325,33.325,0,0,1,5.8-.077,19.344,19.344,0,0,1,3.551.914Z" transform="translate(2900.298 895.99)" fill="#714c98"/>
      <path id="Path_1065" data-name="Path 1065" d="M-2823.693-643.449V-657.5c3.187.518,2.082,3.805,4.06,4.827,2.059-.729,3.009-2.636,3.947-4.661a2.2,2.2,0,0,1,2.033,2.2c.217,3.3.478,6.6.588,9.908.019.579-.61,1.18-.939,1.771-.5-.456-1.32-.845-1.429-1.381-.4-1.977-.573-4-.884-6.417l-3.674,2.625-1.47-1.064C-2822.73-647.9-2819.847-644.99-2823.693-643.449Z" transform="translate(2873.497 902.377)" fill="#714c98"/>
      <path id="Path_1066" data-name="Path 1066" d="M-2831.133-649.576c-2.387,0-4.523.079-6.647-.043a7.564,7.564,0,0,1-2.22-.888,10.856,10.856,0,0,1,1.08-2.169c1.745-2.15,3.583-4.227,5.38-6.327,1.985,1.7,1.985,1.7,2.243,4.482l-2.279-1.585c-.962,1.184-1.946,2.393-3.1,3.812,2.406,1.648,5.155.472,7.462,1.356.184,2.52.359,4.928.549,7.534-.463.427-1.079.993-1.263,1.161-3.228-.088-5.983-.074-8.719-.292-.76-.061-1.467-.807-2.1-1.593,3.228-1.546,6.5-.392,9.949-.686C-2830.9-646.212-2830.989-647.542-2831.133-649.576Z" transform="translate(2867.602 901.858)" fill="#714c98"/>
      <path id="Path_1067" data-name="Path 1067" d="M-2760.053-644.524c-2.926-2.464-5.427-4.571-7.929-6.677l-.629.358c.343,1.823.566,3.68,1.07,5.458.394,1.39.167,2.271-1.42,2.9-1.915-4.412-1.126-9.176-2.494-13.907,2.779.3,3.593,2.484,5.177,3.567a45.983,45.983,0,0,1,4.4,3.9c1.479-3.055-.562-6.093.979-8.592,1.46-.139,1.627.864,1.7,1.656a57.8,57.8,0,0,1,.415,7.288C-2758.823-647.316-2759.539-646.082-2760.053-644.524Z" transform="translate(2891.553 902.368)" fill="#714c98"/>
      <path id="Path_1068" data-name="Path 1068" d="M-2807.986-665.457c-1.033-1.663-2.068-3.326-3.21-5.165-.96.85-1.813,2.009-2.954,2.507a7.81,7.81,0,0,1-4.228.638c-1.18-.206-1.912-1.363-2.136-2.865-.355-2.4.686-4.442,1.408-6.487.75-2.123,3.279-2.3,5.078-.723.993.872,1.511,2.41,3.242,2.286.208-.015.53.37.661.638A17.319,17.319,0,0,1-2807.986-665.457Zm-4.475-7.93-3.37-2.816a5.12,5.12,0,0,0-1.937,6.328C-2815.064-669.329-2813.861-671-2812.461-673.387Z" transform="translate(2874.571 895.085)" fill="#714c98"/>
      <path id="Path_1069" data-name="Path 1069" d="M-2703.317-704.367c-4.182,1.347-25,2.364-27.306,1.427.669-1.939,2.36-2.307,4-2.469,4.473-.444,8.955-.86,13.446-1.062a38.705,38.705,0,0,1,7.023.475C-2705.3-705.878-2704.545-705.1-2703.317-704.367Z" transform="translate(2905.666 885.443)" fill="#714c98"/>
      <path id="Path_1070" data-name="Path 1070" d="M-2774.106-655.786c-.5,4.742-4.274,7.639-6.046,11.727,1.919,1.141,3.936-1.588,5.672.238-1.3,2.81-4.107,3.418-9.178,1.737a22.815,22.815,0,0,1,1.266-2.639c1.561-2.422,3.227-4.777,4.781-7.2a12.018,12.018,0,0,0,.825-2.406c-1.849-.106-3.4-.19-4.95-.288a5.509,5.509,0,0,1-1.881-.215,1.573,1.573,0,0,1-.774-1.229,1.581,1.581,0,0,1,.962-1.046C-2781.723-657.679-2776.614-656.946-2774.106-655.786Z" transform="translate(2887.08 902.446)" fill="#714c98"/>
      <path id="Path_1071" data-name="Path 1071" d="M-2830.73-726.889c-3.2-7.378-3.181-14.849-3.643-22.225-.028-.449.6-.939,1.358-2.032a16.335,16.335,0,0,1,.869,3.133c.142,4.157.214,8.316.245,12.474.015,2.025,1.244,3.508,1.838,6.043,1.285-2.068,2.169-3.379,2.916-4.765a1.581,1.581,0,0,0-.039-1.459,2.784,2.784,0,0,0-1.639-.4c-.4-.015-.869.405-1.188.292-.545-.194-1.273-.569-1.407-1.021a1.775,1.775,0,0,1,.705-1.531,4.051,4.051,0,0,1,4.278.16,2.667,2.667,0,0,1,1.14,3.1C-2825.892-731.905-2827.132-729.005-2830.73-726.889Z" transform="translate(2869.805 870.011)" fill="#714c98"/>
      <path id="Path_1072" data-name="Path 1072" d="M-2717.433-651.032c-.034,3.042-3.322,5.927-6.791,5.958-2.973.027-6.052-3.114-6.034-6.314a3.009,3.009,0,0,1,.963-1.819c1.484-1.476,2.307-3.756,5.162-3.491C-2720.567-656.367-2717.4-653.905-2717.433-651.032Zm-1.811-.057a18.82,18.82,0,0,0-2.837-2.516c-1.686-.981-3.258-.389-4.8,1.282a2.32,2.32,0,0,0-.315,3.176c1.121,1.81,2.1,2.158,4.332,1.67C-2721.1-647.866-2720.081-648.952-2719.244-651.089Z" transform="translate(2905.791 902.648)" fill="#714c98"/>
      <path id="Path_1073" data-name="Path 1073" d="M-2842.914-666.771c-.56-3.725-1.12-7.448-1.764-11.731,3.7,1.659,1.864,4.869,3.152,7.13,2.527-2.036,3.734-5.027,5.805-7.3.782,1.391.782,1.391-1.49,6.148l7.729,5.576c-.648,2.024-.775,2.122-2.246,1.14-2.225-1.488-4.405-3.044-6.549-4.532l-3.717,4.264Z" transform="translate(2866.244 895.06)" fill="#714c98"/>
      <path id="Path_1074" data-name="Path 1074" d="M-2735.522-704.349a12.838,12.838,0,0,1-2.031.659c-3.8.583-7.593,1.194-11.408,1.63-2.753.314-5.536.394-8.308.523a3.717,3.717,0,0,1-1.876-.314c-.475-.261-.744-.9-1.1-1.37.488-.307.951-.823,1.469-.887,5.471-.669,10.944-1.34,16.43-1.846C-2740.072-706.163-2737.715-706.246-2735.522-704.349Z" transform="translate(2895.426 885.595)" fill="#714c98"/>
      <path id="Path_1075" data-name="Path 1075" d="M-2696.206-659.06c2.135.012,5.568,2.987,5.621,4.874.086,3.069-3.276,6.152-6.654,6.105a4.848,4.848,0,0,1-4.741-5.354A5.66,5.66,0,0,1-2696.206-659.06Zm-3.314,5.349c.052,1.561.322,2.777,1.946,3.087,1.324.252,3.724-.624,4.209-1.814a3.144,3.144,0,0,0-.188-2.328c-.9-1.767-2.406-.9-3.864-.869C-2699.122-655.6-2699.428-654.825-2699.521-653.711Z" transform="translate(2915.563 901.839)" fill="#714c98"/>
      <path id="Path_1076" data-name="Path 1076" d="M-2803.507-786.226c.072,1.535.12,2.8.191,4.069.246,4.385.508,8.768.75,13.154.139,2.5-.29,3.026-2.75,3.387a51.07,51.07,0,0,1-5.083.69c-2.185.1-2.913-1.058-2.06-3.064.54-1.27,1.268-2.464,1.751-3.753.667-1.779,1.82-2.173,3.61-1.55v2.165c-1.875.258-3.238,1.207-2.884,3.659h5.194c.082-6.151.164-12.374.274-18.6A7.587,7.587,0,0,1-2803.507-786.226Z" transform="translate(2877.26 857.886)" fill="#714c98"/>
      <path id="Path_1077" data-name="Path 1077" d="M-2784.63-773.639c.206,1.4.4,2.693.651,4.443l6.938-2.894c-.844,2.374-4.127,4.948-6.127,5a3.768,3.768,0,0,1-3.539-2.792c-.946-3.511.291-6.756,1.48-9.966.132-.359.822-.653,1.29-.719,1.22-.172,3.034,1.294,3.474,2.878a2.367,2.367,0,0,1-1.505,3.095C-2782.661-774.307-2783.378-774.083-2784.63-773.639Z" transform="translate(2886.165 859.839)" fill="#714c98"/>
      <path id="Path_1078" data-name="Path 1078" d="M-2723.709-746.444c-4.852,1.85-30.577,3.516-35.591,2.732.371-.556.585-1.274.979-1.389a13.36,13.36,0,0,1,3.459-.56c6.612-.12,13.224-.124,19.834-.263C-2731.252-746-2727.481-746.265-2723.709-746.444Z" transform="translate(2895.754 871.636)" fill="#714c98"/>
      <path id="Path_1079" data-name="Path 1079" d="M-2801.914-643.486c-.561-1.845-.94-3.094-1.32-4.346-2.49-.412-3.089-.215-4.031,1.783-.55,1.165-.809,2.48-2.34,2.833-1.056-.441-.982-1.168-.509-2.062,2.071-3.9,4.117-7.8,6.24-11.831,1.354-.03,1.186,1.418,1.583,2.255.447.941.344,2.172.872,3.038a11.666,11.666,0,0,0,2.523,2.2c-.436.353-.708.585-.995.8-.246.186-.51.35-.9.614l1.064,2.8Z" transform="translate(2878.076 902.513)" fill="#714c98"/>
      <path id="Path_1080" data-name="Path 1080" d="M-2801.431-670.235c-.05-1.591-.187-3.186-.1-4.77.025-.471.684-.909,1.49-1.9.191,1.544.291,2.261.367,2.981.345,3.29.608,6.59,1.047,9.866.421,3.139.267,6.093-2.538,8.106-3.1,2.223-6.469,1.991-9.744.406a2.464,2.464,0,0,1-.836-2.093c.3-2.045,1.938-2.818,4.891-2.321-.6.531-1.054.9-1.464,1.311-.362.365-.674.779-1.167,1.356,2.106,1.651,4.116,1.495,6.3.622a4.153,4.153,0,0,0,2.915-4.489c-.273-3.06-.828-6.094-1.262-9.138Z" transform="translate(2877.622 895.671)" fill="#714c98"/>
      <path id="Path_1081" data-name="Path 1081" d="M-2827.435-707.9c1.695-.18,2.1.779,2.222,1.9q.755,7.026,1.414,14.065a2.392,2.392,0,0,1-.357,1.507c-1.09,1.511-6.785,2.43-8.269,1.219a2.951,2.951,0,0,1-1.06-2.368,19.1,19.1,0,0,1,2.25-4.934c.931-1.459,2.066-1.331,3.59.234-2.146,1.145-3.91,2.581-3.23,5.443h5.1A94.2,94.2,0,0,0-2827.435-707.9Z" transform="translate(2870.101 884.951)" fill="#714c98"/>
      <path id="Path_1082" data-name="Path 1082" d="M-2813.267-731.6c-2.677-.631-1.752-3.574-3.255-4.535a27.745,27.745,0,0,1-4.251,2.654c-2.126.86-3.183-.106-3.192-2.366a12.062,12.062,0,0,1,1.945-6.637c1.356-2.138,3.768-2.191,4.819.012,1.542,3.234,2.785,6.61,4.136,9.932C-2813.005-732.387-2813.141-732.155-2813.267-731.6Zm-8.564-4.193a4.093,4.093,0,0,0,4.01-3.54c.116-.615-.766-1.418-1.23-2.2C-2821.095-739.93-2821.57-738.092-2821.831-735.791Z" transform="translate(2873.403 872.445)" fill="#714c98"/>
      <path id="Path_1083" data-name="Path 1083" d="M-2840.58-688.538v-6.129a10.9,10.9,0,0,1-2.41.087c-1.14-.238-1.625-1.709-.7-2.148,2.854-1.358,1.986-3.6,1.8-6.035l-3.382.2c-.076-.483-.374-1.436-.217-1.518a18.8,18.8,0,0,1,4.329-1.864c1.444-.334,3.365.811,4.825,2.473a23.207,23.207,0,0,1-1.93,3.8,6.029,6.029,0,0,0-.93,5.384,20.308,20.308,0,0,1,.587,4.435c0,.579-.732,1.161-1.132,1.743Zm2.237-14.75c-1.807-.048-1.841-.051-1.917,1.074a5.906,5.906,0,0,0,.51,1.534C-2839.114-701.858-2838.755-702.525-2838.343-703.288Z" transform="translate(2865.948 885.612)" fill="#714c98"/>
      <path id="Path_1084" data-name="Path 1084" d="M-2735.955-654.047c-3.108.013-4.469,1.179-4.485,3.839-.017,2.884,1.26,3.805,4.077,2.943,4.245-1.3,4.251-1.3,5.044,3.153.09.507.084,1.031.134,1.693-2.37.607-1.942-1.954-3.332-2.616-.533.07-1.277.11-1.995.271a5.278,5.278,0,0,1-6.322-6.339,10.34,10.34,0,0,1,4.055-5.635,2.548,2.548,0,0,1,2.049.008C-2735.783-656.372-2735.827-656.243-2735.955-654.047Z" transform="translate(2901.393 902.568)" fill="#714c98"/>
      <path id="Path_1085" data-name="Path 1085" d="M-2824.168-702.092c2.388,2.485.338,4.936,1.5,6.845,2.165.032,4.617-3.6,6.395.768,2.368-3.127.853-6.267.315-9.41,1.71-.1,2.516.646,2.572,1.761.169,3.407.569,6.886-1.495,9.979a11.141,11.141,0,0,0-.693,1.762l-3.24-3.9-5.322,3.971C-2824.293-694.445-2825.264-697.87-2824.168-702.092Z" transform="translate(2873.155 886.341)" fill="#714c98"/>
      <path id="Path_1086" data-name="Path 1086" d="M-2773.868-761.077c-.848-3.579,1.115-5.3,3.071-6.945,2.013-1.693,4.134-3.256,6.313-4.959l-4.059-7.2c-.938,2.388-1.718,4.377-2.5,6.365-1.384-1.985.1-3.352.528-4.9.446-1.62-.28-3.694,1.97-4.972.565,1,1.079,1.893,1.58,2.793,1.132,2.031,2.265,4.06,3.379,6.1,1.086,1.986,1.046,2.76-.526,4.207a29.452,29.452,0,0,1-3.337,2.466c-2.272,1.558-4.88,2.814-4.966,6.169C-2772.423-761.707-2773.185-761.477-2773.868-761.077Z" transform="translate(2890.648 858.761)" fill="#714c98"/>
      <path id="Path_1087" data-name="Path 1087" d="M-2830.054-778.57c.461,2.37.753,3.873,1.1,5.633,1.222-1.716,2.275-3.193,3.329-4.671l.8.159c.318,1.37.746,2.725.929,4.112.266,2,.325,4.032.534,6.043.106,1.017.117,1.895-1.49,2.275-.406-2.623-.8-5.159-1.26-8.14-2.075,2.886-1.838,6.565-4.556,8.664-.318-.295-.744-.51-.739-.714q.152-5.894.416-11.785C-2830.982-777.321-2830.628-777.635-2830.054-778.57Z" transform="translate(2870.829 860.532)" fill="#714c98"/>
      <path id="Path_1088" data-name="Path 1088" d="M-2794.415-768.583c-2.426-.066-1.9-1.94-2.524-2.547l-6.07,4.088c-1.863-4.147-.473-9.063,3.33-12.817,3.647,1.452,4.547,2.689,4.6,6.187a22.235,22.235,0,0,0,.274,2.523C-2794.7-770.366-2794.568-769.586-2794.415-768.583Zm-4.675-8.634c-1.486,2.033-3.4,3.914-2.7,7,2.2-.5,3.573-1.592,3.891-3.807C-2797.721-775.256-2797.014-776.6-2799.089-777.216Z" transform="translate(2880.362 860.086)" fill="#714c98"/>
      <path id="Path_1089" data-name="Path 1089" d="M-2810.608-767.82l-1.7,1.63-2.063-4.344c-.7.829-1.163,1.821-1.93,2.195a6.352,6.352,0,0,1-3.773.9c-1.4-.33-1.279-1.827-1.083-3.225a9.287,9.287,0,0,1,2.417-5.459c.46-.471,1.386-1.167,1.657-1.008a7.808,7.808,0,0,1,1.677,2.017c-2.457,1.226-3.82,2.671-3.48,5.306,2.29-.44,3.02-2.156,3.484-3.862.31-1.142.506-2.033,2.072-2.037Z" transform="translate(2874.332 861.019)" fill="#714c98"/>
      <path id="Path_1090" data-name="Path 1090" d="M-2794.028-668.621c-.425.581-.706,1.009-1.031,1.4-1.8,2.176-4.151,1.87-5.256-.673-.864-1.986.26-7.034,2.059-8.322a3.419,3.419,0,0,1,2.584-.389c.914.254,1.005,1.416.592,3.43-.968.192-2.022-1.647-2.989.066-.769,1.364-.6,2.892.972,5a19.885,19.885,0,0,1,2.021-2.756c.429-.417,1.673-.767,1.834-.567a41.739,41.739,0,0,1,3.282,4.72,11.421,11.421,0,0,1,.815,2.446l-.787.436C-2791.206-665.318-2792.479-666.808-2794.028-668.621Z" transform="translate(2881.475 895.742)" fill="#714c98"/>
      <path id="Path_1091" data-name="Path 1091" d="M-2740.028-773.266a14.955,14.955,0,0,1-2.425,1.771c-2.064.931-4.472-.65-4.105-2.823a15.435,15.435,0,0,1,1.888-4.976,4.481,4.481,0,0,1,2.531-1.667c1.175-.344,1.321,1.034,1.967,1.6,2.761,2.444,2.914,5.6,3.2,9.022C-2739.119-770.486-2738.748-772.585-2740.028-773.266Zm-4.023-.5c3.578-1.713,3.892-2.541,1.832-4.653C-2743.389-777.19-2744.366-775.943-2744.051-773.768Z" transform="translate(2900.145 859.686)" fill="#714c98"/>
      <path id="Path_1092" data-name="Path 1092" d="M-2783.437-702.96c.568-.743,1.135-1.484,1.757-2.294,4.177-.1,3.781,4.112,5.835,6.2-.607,1.87-2.15,3.069-3.659,4.2-1.92,1.443-3.588.9-3.97-1.539a37.681,37.681,0,0,1,.07-6.66Zm2.3,6.47,3.906-2.23C-2780.82-699.253-2780.82-699.253-2781.142-696.491Z" transform="translate(2887.347 885.872)" fill="#714c98"/>
      <path id="Path_1093" data-name="Path 1093" d="M-2793.711-742.343c.36-.463.563-1,.863-1.066,9.359-1.926,18.885-1.255,28.314-2.127l.113.763c-2.1.375-4.18.869-6.291,1.1-5.216.573-10.445,1.013-15.666,1.539a21.5,21.5,0,0,0-3.776.616A3.241,3.241,0,0,1-2793.711-742.343Z" transform="translate(2883.859 871.95)" fill="#714c98"/>
      <path id="Path_1094" data-name="Path 1094" d="M-2794.512-778.212l1.431,3.308c1.647-.521.725-3.715,3.751-3.047.215,3.75.436,7.6.677,11.807-2.754-1.416-1.429-4.3-2.92-5.94-.822,1.264-1.666,2.561-2.572,3.955C-2795.324-770.008-2795.691-774.159-2794.512-778.212Z" transform="translate(2883.333 860.656)" fill="#714c98"/>
      <path id="Path_1095" data-name="Path 1095" d="M-2795.69-696.223a7.986,7.986,0,0,1,3.345-6.634c1.754-1.449,5.125.678,4.9,3.15a11.744,11.744,0,0,1-2.728,7.034c-1.253,1.379-2.382,1.547-3.507.152A18.96,18.96,0,0,1-2795.69-696.223Zm3.551,2.17c2.646-2.393,3.161-4.429,1.8-6.506l-3.233,1.63C-2793.907-696.031-2793.907-696.031-2792.139-694.052Z" transform="translate(2883.176 886.538)" fill="#714c98"/>
      <path id="Path_1096" data-name="Path 1096" d="M-2832.117-672.913c1.953,1.305,3.082,3.627,5.969,2.052a4.059,4.059,0,0,0,.173-4.3c-1.184-1.97-3.177-2.269-4.646-.494-.528.638-.958,1.373-1.7.8a2.223,2.223,0,0,1-.3-1.9c.617-2.234,2.773-3.042,5.517-2.195a5.462,5.462,0,0,1,3.655,5.155c-.14,2.569-2.031,5.081-4.173,5.545C-2830.259-667.674-2832.164-669.413-2832.117-672.913Z" transform="translate(2870.382 894.852)" fill="#714c98"/>
      <path id="Path_1097" data-name="Path 1097" d="M-2786.54-645.495c-.488.533-.991,1.581-1.583,1.635a13.443,13.443,0,0,1-5.049-.276,4.386,4.386,0,0,1-2.532-5.526,66.623,66.623,0,0,1,3.541-6.4c.453-.755,1.205-1.323,2.152-.634,1.189.863.545,1.721-.19,2.38a9.108,9.108,0,0,0-2.979,4.465c-.682,2.576.44,3.91,3.078,3.718C-2788.964-646.215-2787.645-647.483-2786.54-645.495Z" transform="translate(2883.074 902.549)" fill="#714c98"/>
      <path id="Path_1098" data-name="Path 1098" d="M-2839.75-698.545a9.464,9.464,0,0,0,2.149-1.518,3.049,3.049,0,0,1,3.987-.924,4.808,4.808,0,0,1,2.547,4.119,4.621,4.621,0,0,1-.3,1.241c-.619,1.74-1.4,3.449-3.422,3.826-1.5.279-3.64-1.693-4.288-3.748C-2839.36-696.454-2839.5-697.406-2839.75-698.545Zm2.108,1.611a18.517,18.517,0,0,0,2.293,2.667c.186.152,1.421-.5,1.7-1.032a2.506,2.506,0,0,0-.759-3.565Z" transform="translate(2867.947 887.223)" fill="#714c98"/>
      <path id="Path_1099" data-name="Path 1099" d="M-2801.954-669.956a5.921,5.921,0,0,1-5.281,3.045,2.966,2.966,0,0,1-3.226-2.55c-.259-2.737.155-5.385,2.193-7.471,1.351-1.382,2.13-1.28,3.9.334-3.608,1.985-4.512,4.006-3.156,7.319,1.857-.2,3.756-.412,5.661-.616C-2801.856-669.893-2801.954-669.956-2801.954-669.956Z" transform="translate(2878.047 895.329)" fill="#714c98"/>
      <path id="Path_1100" data-name="Path 1100" d="M-2732.31-782.614c.579.916,1.348,1.683,1.2,1.967-1.684,3.2-1.9,7.328-6.055,9.519a51.043,51.043,0,0,1-1.566-10.125c2.815,1.215,1.784,3.688,3.033,5.625Z" transform="translate(2902.863 859.134)" fill="#714c98"/>
      <path id="Path_1101" data-name="Path 1101" d="M-2823.15-663.651c-1.726-6.793-1.507-12.952-2.083-19.185,1.528-.653,2.135.034,2.215,1.464.11,2.025.15,4.054.239,6.081.125,2.846-.292,5.749,1.164,8.439C-2820.938-665.6-2822.071-665.031-2823.15-663.651Z" transform="translate(2872.964 893.536)" fill="#714c98"/>
      <path id="Path_1102" data-name="Path 1102" d="M-2781.9-703.114c-.765,2.076-1.61,4.128-2.268,6.238a3.433,3.433,0,0,1-3.024,2.726l-.783-7.771c1.96-.9,1.631.943,2.545,1.708l1.725-4.807c1.751-.4,1.133,1.366,1.766,2.01C-2781.932-703.021-2781.9-703.114-2781.9-703.114Z" transform="translate(2885.843 885.933)" fill="#714c98"/>
      <path id="Path_1103" data-name="Path 1103" d="M-2758.062-673.211c-1.569-.161-3.134-.385-4.707-.468-2.125-.112-4.255-.112-6.383-.167-1.046-.028-2.429.238-2.492-1.284-.063-1.561,1.213-1.274,2.325-1.339,3.633-.209,6.94,1.181,10.372,1.942a3.712,3.712,0,0,1,1.007.61Z" transform="translate(2891.486 895.815)" fill="#714c98"/>
      <path id="Path_1104" data-name="Path 1104" d="M-2709.4-651.26l-1.779.929c-1.864-3.585-1.542-7.541-2.956-10.841,1.059-1.175,1.846-.848,2.338-.027a8.251,8.251,0,0,1,.808,2.422C-2710.458-656.407-2709.981-654.024-2709.4-651.26Z" transform="translate(2911.363 900.844)" fill="#714c98"/>
      <path id="Path_1105" data-name="Path 1105" d="M-2826.082-745.283c2.274,2.454,1.492,5.069,2.037,7.269.321,1.292.882,2.964-.852,3.992C-2825.995-735.822-2826.663-741.324-2826.082-745.283Z" transform="translate(2872.597 872.037)" fill="#714c98"/>
      <path id="Path_1106" data-name="Path 1106" d="M-2736.366-708.494c1.818,1.79.215,3.407.266,4.967.055,1.665.012,3.332.012,5.217-1,.279-1.586-.4-1.9-1.584C-2738.538-701.973-2737.915-705.618-2736.366-708.494Z" transform="translate(2903.052 884.753)" fill="#714c98"/>
      <path id="Path_1107" data-name="Path 1107" d="M-2733.958-706.722c2.042,1.382,2.123,2.592.779,8.915C-2734.846-699.438-2735.183-702.806-2733.958-706.722Z" transform="translate(2904.259 885.365)" fill="#714c98"/>
      <path id="Path_1108" data-name="Path 1108" d="M-2822.944-776.226c1.254,4.952,1.249,8.2,0,10.675-1.566-.876-.537-2.328-.77-3.477a30.777,30.777,0,0,1-.6-4.13C-2824.39-774.326-2824.708-775.747-2822.944-776.226Z" transform="translate(2873.258 861.342)" fill="#714c98"/>
      <path id="Path_1109" data-name="Path 1109" d="M-2815.192-692.072v-9.047l.625-.288c.393.449,1.121.9,1.121,1.351,0,2.327-.152,4.656-.339,6.977C-2813.8-692.833-2814.386-692.631-2815.192-692.072Z" transform="translate(2876.435 887.202)" fill="#714c98"/>
      <path id="Path_1110" data-name="Path 1110" d="M-2751.02-679.007c1.45,2.752-.779,5.454.5,8.226a2.007,2.007,0,0,1-2.283-1.727A7.6,7.6,0,0,1-2751.02-679.007Z" transform="translate(2897.948 894.945)" fill="#714c98"/>
      <path id="Path_1111" data-name="Path 1111" d="M-2748.922-677.723c.449.3,1.208.564,1.217.849.065,2.187-.016,4.377-.058,6.884C-2750.129-671.887-2750.374-674.016-2748.922-677.723Z" transform="translate(2899.03 895.388)" fill="#714c98"/>
      <path id="Path_1112" data-name="Path 1112" d="M-2765.529-748.429a18.2,18.2,0,0,1,.973,8.3c-1.534-.222-1.7-1.187-1.833-2.313C-2766.906-746.74-2766.933-746.738-2765.529-748.429Z" transform="translate(2893.191 870.95)" fill="#714c98"/>
      <path id="Path_1113" data-name="Path 1113" d="M-2686.854-652.6a43.047,43.047,0,0,1-4.26-1.023,1.641,1.641,0,0,1-.83-1.383,1.717,1.717,0,0,1,1.323-1.025,7.629,7.629,0,0,1,2.971,1.017c.609.382.915,1.243,1.358,1.889Z" transform="translate(2919.03 902.885)" fill="#714c98"/>
      <path id="Path_1114" data-name="Path 1114" d="M-2763.991-746.907c2.114.725,2.464,1.766,2.453,6.676C-2763.666-741.593-2764.018-742.511-2763.991-746.907Z" transform="translate(2894.132 871.476)" fill="#714c98"/>
      <path id="Path_1115" data-name="Path 1115" d="M-2694.319-650.731c2.438-.864,4.242,1.538,3.745,4.973C-2692.446-647.088-2693.31-648.922-2694.319-650.731Z" transform="translate(2918.214 904.657)" fill="#714c98"/>
      <path id="Path_1116" data-name="Path 1116" d="M-2788.746-775.922c.282,2.442,1.967,4.875.219,7.381A9.543,9.543,0,0,1-2788.746-775.922Z" transform="translate(2885.354 861.447)" fill="#714c98"/>
      <path id="Path_1117" data-name="Path 1117" d="M-2694.258-665.5c-.688,2.347-1.2,4.1-1.713,5.856l-.636.186c-.354-.63-1.075-1.311-.993-1.877C-2697.369-662.948-2697.089-664.713-2694.258-665.5Z" transform="translate(2917.077 899.614)" fill="#714c98"/>
      <path id="Path_1118" data-name="Path 1118" d="M-2704.223-661.5c.837,1.593,1.534,2.919,2.367,4.5-1.821.005-3.174-.324-3.8-1.946C-2706.125-660.142-2705.6-660.953-2704.223-661.5Z" transform="translate(2914.237 900.997)" fill="#714c98"/>
      <path id="Path_1119" data-name="Path 1119" d="M-2699.946-660.343c-1.866-.97-2.652-2.308-2.336-4,.075-.4.866-.657,1.845-1.342C-2700.242-663.553-2700.094-661.948-2699.946-660.343Z" transform="translate(2915.438 899.55)" fill="#714c98"/>
      <path id="Path_1120" data-name="Path 1120" d="M-2691.9-657.93c-1.253-1.582-1.382-2.956-.265-3.754a1.761,1.761,0,0,1,1.665,0,1.688,1.688,0,0,1,.339,1.6A12.308,12.308,0,0,1-2691.9-657.93Z" transform="translate(2918.695 900.861)" fill="#714c98"/>
      <path id="Path_1121" data-name="Path 1121" d="M-2699.858-644.7c-.858-2.269.663-3.294,1.424-4.556.153-.254.869-.168,1.726-.3C-2697.62-647.634-2697.7-645.7-2699.858-644.7Z" transform="translate(2916.211 905.123)" fill="#714c98"/>
      <path id="Path_1122" data-name="Path 1122" d="M-2839.439-783.467l1.226-4.442C-2836.215-785.229-2836.5-784.171-2839.439-783.467Z" transform="translate(2868.054 857.304)" fill="#714c98"/>
      <path id="Path_1123" data-name="Path 1123" d="M-2701.733-651.831c-3.6.822-3.6.822-4.52-.848C-2704.719-652.844-2703.254-653.471-2701.733-651.831Z" transform="translate(2914.089 903.956)" fill="#714c98"/>
      <path id="Path_1124" data-name="Path 1124" d="M-2710.186-647.527c-.7-1.133-1.281-1.677-1.3-2.243-.016-.388.728-1.1,1.168-1.124a1.589,1.589,0,0,1,1.194,1.054C-2709.1-649.283-2709.613-648.7-2710.186-647.527Z" transform="translate(2912.279 904.661)" fill="#714c98"/>
      <path id="Path_1125" data-name="Path 1125" d="M-2802.54-743.526c-1.323.012-2.144-.37-1.984-1.607a1.406,1.406,0,0,1,1.163-.724C-2802.069-745.621-2802.053-744.72-2802.54-743.526Z" transform="translate(2880.115 871.837)" fill="#714c98"/>
      <path id="Path_1126" data-name="Path 1126" d="M-2763.775-701.628c-1.762.1-2.774-.071-2.956-1.764C-2765.231-703.847-2764.246-703.635-2763.775-701.628Z" transform="translate(2893.185 886.447)" fill="#714c98"/>
      <path id="Path_1127" data-name="Path 1127" d="M-2763.457-705.639l-2.095.932-.578-1.666,2.24-.443Z" transform="translate(2893.393 885.333)" fill="#714c98"/>
      <path id="Path_1128" data-name="Path 1128" d="M-2815.97-706.2c1.578.662,2.224,1.385,2,3.022C-2815.214-703.839-2816.485-704.087-2815.97-706.2Z" transform="translate(2876.125 885.546)" fill="#714c98"/>
      <path id="Path_1129" data-name="Path 1129" d="M-2824-746.716l-2.316-2.619C-2824.009-749.217-2824.009-749.217-2824-746.716Z" transform="translate(2872.59 870.637)" fill="#714c98"/>
      <path id="Path_1130" data-name="Path 1130" d="M-2789.2-781.281c1.835-.447,1.969.592,2.187,2.078C-2788.705-779.884-2788.705-779.884-2789.2-781.281Z" transform="translate(2885.419 859.559)" fill="#714c98"/>
      <path id="Path_1131" data-name="Path 1131" d="M-2775.747-774.9a7.707,7.707,0,0,1-1.343-1.457c-.09-.178.5-.954.577-.926a3.713,3.713,0,0,1,1.46.9C-2774.935-776.245-2775.4-775.61-2775.747-774.9Z" transform="translate(2889.601 860.977)" fill="#714c98"/>
      <path id="Path_1132" data-name="Path 1132" d="M-2801.9-740.546c-.869.664-1.725.825-2.3-.269a1.334,1.334,0,0,1,.494-1.2C-2802.566-742.337-2801.915-741.81-2801.9-740.546Z" transform="translate(2880.224 873.135)" fill="#714c98"/>
      <path id="Path_1133" data-name="Path 1133" d="M-2783.073-677.622c-1.046-.042-2.033.2-2-1.257a.856.856,0,0,1,.54-.632C-2783.337-679.584-2782.971-678.918-2783.073-677.622Z" transform="translate(2886.844 894.768)" fill="#714c98"/>
      <path id="Path_1134" data-name="Path 1134" d="M-2803.567-681.29c.981.974,1.651,1.642,2.616,2.6C-2803.131-678.386-2804.037-678.807-2803.567-681.29Z" transform="translate(2880.411 894.156)" fill="#714c98"/>
      <path id="Path_1135" data-name="Path 1135" d="M-2782.353-675.316c-.671,1.122-1.38,1.134-2.111.441a.9.9,0,0,1,.083-.868C-2783.451-676.668-2783.015-675.753-2782.353-675.316Z" transform="translate(2887.029 895.935)" fill="#714c98"/>
      <path id="Path_1136" data-name="Path 1136" d="M-2822.02-778.136l-1.773-.6.487-1.047,1.6.967Z" transform="translate(2873.462 860.113)" fill="#714c98"/>
      <path id="Path_1137" data-name="Path 1137" d="M-2776.974-778.567c-.308-.48-.671-.8-.677-1.133,0-.268.421-.541.656-.813.3.31.738.579.848.945C-2776.088-779.372-2776.592-779.007-2776.974-778.567Z" transform="translate(2889.411 859.86)" fill="#714c98"/>
      <path id="Path_1138" data-name="Path 1138" d="M-2801.74-791.256c-1.574-.977-2.721-1.741-1.212-3.4a2.924,2.924,0,0,0,.58-1.733,59.7,59.7,0,0,0-.774-13.762,98.838,98.838,0,0,1-1.2-11.435,17.707,17.707,0,0,1,.646-3.922h15.079a60.228,60.228,0,0,0-.628,7.939c.287,5.988.8,11.969,1.4,17.935.335,3.3-.2,4.325-3.569,5.066-1.04.23-2.11.332-3.164.5C-2797.124-793.658-2799.625-793.148-2801.74-791.256Zm10.084-31.686c-2.917,0-5.473.059-8.025-.018-2.2-.066-2.624.367-2.185,2.636.467,2.411,1.032,4.805,1.422,7.229.8,4.964,1.5,9.944,2.285,14.911a10.984,10.984,0,0,0,.774,2.06l6.5-1.206C-2791.147-805.974-2791.4-814.293-2791.656-822.942Z" transform="translate(2880.179 844.308)" fill="#714c98"/>
      <path id="Path_1139" data-name="Path 1139" d="M-2776.806-823.884c3.33-.343,6.305-.669,9.283-.946.834-.078,1.682-.013,2.524-.022a2.7,2.7,0,0,1,2.952,2.744q.464,4.945.72,9.908c.137,2.679.167,5.366.18,8.05.019,3.593-.924,4.48-4.353,4.859-3.609.4-7.191,1.054-10.787,1.581-.821.12-1.652.175-2.428.256-1.225-1.927-.534-3.75-.38-5.516.444-5.065,1.425-10.123.566-15.215C-2778.916-820.493-2778-822.228-2776.806-823.884Zm13.086,20.857c-.225-5.494-.443-10.935-.672-16.374-.062-1.473-.691-2.518-2.306-2.5-2.7.023-5.394.133-8.31.214v19C-2771.424-802.721-2767.858-801.273-2763.719-803.027Z" transform="translate(2888.797 844.529)" fill="#714c98"/>
      <path id="Path_1140" data-name="Path 1140" d="M-2819.432-824.142c-2.386.167-4.3.326-6.208.425a2.713,2.713,0,0,0-2.849,2.472c-.241,1.479-.444,2.963-.646,4.447-.186,1.366-.206,2.816-2.017,3.468-.256-.471-.722-.926-.7-1.351a76.906,76.906,0,0,1,.75-8.635c.349-2,2.124-2.94,4.043-3.138,3.169-.328,6.358-.468,9.987-.719.681,10.651-1.584,21.264-.706,32.068a3.17,3.17,0,0,1-3.628,1.591c-1.684-.295-3.4-.42-5.108-.546a14.225,14.225,0,0,0-9.488,2.2c-.833.57-1.752,1.506-3.176.7-.322-.182-1.523,1.194-2.453,1.962a2.15,2.15,0,0,1,.112-3.352,9.322,9.322,0,0,1,2.929-1.912c8.7-3.236,5.474-3.675,17.764-2.378C-2820.214-805.932-2819.583-815.008-2819.432-824.142Z" transform="translate(2867.039 843.733)" fill="#714c98"/>
      <path id="Path_1141" data-name="Path 1141" d="M-2819.47-825.068c2.722.46,3.987,2.259,5.012,4.122,2.941,5.339,5.726,10.766,8.606,16.141,1.264,2.359,2.681,4.638,3.9,7.019.857,1.673,1.2,3.416-.621,5.054-5.642-8.666-8.173-18.89-15.237-26.9-.215,2.928-.432,5.858-.656,8.911l4.427,1.305c-1.534,1.245-2.691,2.181-4.077,3.3-.2,2.647-.42,5.623-.645,8.6a13.53,13.53,0,0,1-.237,2.561c-.256.923-.8,1.817-2,1.507-1.019-.264-1.1-1.017-1.013-2.023.458-5.555.814-11.12,1.2-16.682.269-3.853.522-7.708.815-11.559A5.889,5.889,0,0,1-2819.47-825.068Z" transform="translate(2874.071 844.46)" fill="#714c98"/>
      <path id="Path_1142" data-name="Path 1142" d="M-2731.387-815.6c.2-4.6,3.374-7.371,4.531-10.98.3-.93,1.627-1.529,2.882-2.629a50.939,50.939,0,0,1,3.161,5.446c.262.6-.452,1.632-.825,2.794l-3.592-2.664c-.809,1.4-1.641,2.835-2.638,4.555a8.628,8.628,0,0,0,4.89.136c3.794-.865,5.535.572,5.346,4.776-.2,4.463.049,8.951.2,13.425.054,1.635-.4,2.749-2.124,2.981-2.951.394-5.9.8-8.868,1.063a20.35,20.35,0,0,1-3.456-.25c-.716-1.187-.491-1.979.7-2.336a15.613,15.613,0,0,1,2.533-.443c2.652-.339,5.309-.653,8.138-1V-815.6Z" transform="translate(2905.09 843.027)" fill="#714c98"/>
      <path id="Path_1143" data-name="Path 1143" d="M-2762.985-800.305l9.741-1.186c-.236-4.349-.459-8.461-.671-12.4l-9.536-1.5c1.115-1.683,1.828-2.834,2.614-3.931,1.371-1.912,2.83-3.762,4.176-5.692,2.07-2.971,2.757-2.956,4.414.2.3.565.867,1.079.919,1.654a6.287,6.287,0,0,1-.7,2.107c-.663-.56-.974-.817-1.28-1.082s-.631-.561-1.292-1.149c-1.246,1.786-2.422,3.473-3.96,5.677a25.19,25.19,0,0,0,4.688-.058c1.651-.347,2.154.416,2.386,1.736a16.267,16.267,0,0,1,.174,1.922c.234,4.274.483,8.547.674,12.824.09,1.992-.405,2.7-2.444,3.088a26.283,26.283,0,0,1-6.331.67C-2760.8-797.509-2762.664-797.821-2762.985-800.305Z" transform="translate(2894.318 843.719)" fill="#714c98"/>
      <path id="Path_1144" data-name="Path 1144" d="M-2789.258-797.226c.381-4.808.7-8.823,1.01-12.793l-3.742-.92c.845-.959,1.16-1.646,1.658-1.825,2.391-.858,2.77-2.628,2.588-4.863a48.076,48.076,0,0,1-.008-5.151c.047-1.831,1.01-1.866,2.465-1.05v8.652l8.331-2.243c.1,1.494.362,2.362-1.6,2.761-1.989.406-3.527,2.324-5.853,2.279a1.791,1.791,0,0,0-1.22,1.261c-.011,3.357-.871,6.74.021,10.293l7.838-.852c.366,1.312.047,2.345-.926,2.558C-2782-798.4-2785.354-797.9-2789.258-797.226Z" transform="translate(2884.455 844.713)" fill="#714c98"/>
      <path id="Path_1145" data-name="Path 1145" d="M-2736.309-820.982c-2.41,3.858-6.93,3.1-9.741,5.8.436,3.994.818,8.133,1.373,12.249.2,1.507-.156,2.468-1.937,3.313a12.746,12.746,0,0,1-.887-2.538c-.269-2.227-.474-4.47-.544-6.712-.077-2.459-.4-4.7-3.692-5.77,2.7-1.344,2.427-3.339,2.3-5.349a36.714,36.714,0,0,1-.058-5.789c.2-2.041,1.418-2.76,3.126-1.745C-2742.993-825.511-2739.768-823.251-2736.309-820.982Zm-3.234.515c-2.635-1.764-4.457-3.627-7.471-4.274.331,2.329.623,4.38.981,6.9Z" transform="translate(2898.368 843.456)" fill="#714c98"/>
      <path id="Path_1146" data-name="Path 1146" d="M-2735.846-800.437c-.254-2.1-.526-4.2-.761-6.3-.56-5-1.126-10.009-1.636-15.019a23.872,23.872,0,0,1-.074-4.151c.038-.517.608-.994.935-1.49.578.39,1.52.677,1.667,1.191a36.279,36.279,0,0,1,.8,4.735c.292,2.014.565,4.031.837,6.049.556,4.135,1.156,8.265,1.634,12.409C-2732.266-801.464-2733.218-800.794-2735.846-800.437Z" transform="translate(2902.986 843.656)" fill="#714c98"/>
      <path id="Path_1147" data-name="Path 1147" d="M-2711.481-807.468c2.8-1.557,3.727-1.582,4.5-.237a2,2,0,0,1-.947,2.908C-2709.4-804.1-2710.366-804.791-2711.481-807.468Z" transform="translate(2912.281 850.126)" fill="#714c98"/>
      <path id="Path_1148" data-name="Path 1148" d="M-2713.364-832.479c.8-.374,1.272-.556,1.707-.806.989-.57,2.215-1.052,2.687.252a3.473,3.473,0,0,1-.907,2.751c-.82.943-1.768.139-2.468-.514A8.594,8.594,0,0,1-2713.364-832.479Z" transform="translate(2911.631 841.42)" fill="#714c98"/>
      <path id="Path_1149" data-name="Path 1149" d="M-2846.958-798.205c1.507.492,2.345,1.382,1.764,2.658-.691,1.519-2.145,1.358-3.953.957Z" transform="translate(2864.699 853.745)" fill="#714c98"/>
      <path id="Path_1150" data-name="Path 1150" d="M-2840.147-823.271l-2.986-.618c.155-1.343.574-2.32,1.923-2.045C-2840.1-825.709-2839.251-824.98-2840.147-823.271Z" transform="translate(2866.777 844.145)" fill="#714c98"/>
    </g>
  </g>
</svg>
