<svg xmlns="http://www.w3.org/2000/svg" width="633.827" height="478.401" viewBox="0 0 633.827 478.401">
  <g id="Group_98" data-name="Group 98" transform="translate(58.696 -4063.521)">
    <path id="Path_506" data-name="Path 506" d="M879.381,4578.277a9.3,9.3,0,0,0-5.767-7.227,57.39,57.39,0,0,0-5.389-2.2,73.14,73.14,0,0,0-15.148-3.105c-10.865-1.321-21.722-2.742-32.613-3.81-8.2-.8-16.444-1.263-24.68-1.614-7.243-.309-14.5-.31-21.753-.335-3.551-.014-7.1.226-10.653.347-2.79.095-5.588.345-8.37.237-4.686-.182-9.363-.583-14.042-.916a8.719,8.719,0,0,1-3.757-1.215,1.375,1.375,0,0,1-.822-1.232,2.065,2.065,0,0,1,2.967-1.757,5.764,5.764,0,0,0,1.4.666,76.815,76.815,0,0,0,8.644,1.561,68.484,68.484,0,0,0,13.907-.384,167.573,167.573,0,0,1,19.136-1.353c4.6-.036,9.194-.241,13.791-.244,3.124,0,6.26.09,9.368.378,2.4.222,4.754.84,7.137,1.236a19.012,19.012,0,0,0,6.906.336,69.844,69.844,0,0,0,9.995-2.731,11.968,11.968,0,0,0,6.9-6.019c2.967-5.872,3.028-11.765-.319-17.527a28.086,28.086,0,0,0-7.828-8.54,16.43,16.43,0,0,0-8.55-3.193,35.251,35.251,0,0,0-21.992,5.31c-.963.6-1.958,1.159-2.967,1.679a13.268,13.268,0,0,1-1.73.593c-.065-.785-.161-1.39-.156-1.994a6.335,6.335,0,0,0-2.94-5.667,14.658,14.658,0,0,1-1.662-1.577c.572-.072.838-.111,1.1-.14,4.048-.459,8.1-.863,12.141-1.393a13.373,13.373,0,0,0,7.636-3.144,8.3,8.3,0,0,0,2.542-9.043,8.036,8.036,0,0,0-5.577-5.42c-9.18-3.07-18.525-5.082-28.283-4.941-3.876.055-7.762-.289-11.637-.548-3.261-.218-6.508-.633-9.769-.859-2.693-.186-5.4-.176-8.1-.335a63.335,63.335,0,0,1-11.56-2.257,14.436,14.436,0,0,1-4.948-2.073,2.964,2.964,0,0,0-1.305-.5,2.083,2.083,0,0,0-2.108,1.744c-.109.694.219,1.043,1.271,1.431a92.972,92.972,0,0,0,27.117,5.2c2.6.147,5.207.257,7.809.414,5.345.321,10.685.752,16.034.962a84.226,84.226,0,0,1,10.9.9,60.685,60.685,0,0,1,11.509,3.1,10.705,10.705,0,0,1,4.9,3.52c1.8,2.386,1.394,4.878-1.141,6.44a14.644,14.644,0,0,1-3.377,1.452,61.774,61.774,0,0,1-15.957,2.547c-5.257.187-10.519.226-15.78.251-1.55.007-3.1-.257-4.653-.391a12.217,12.217,0,0,0-1.412-.075c-2.269.073-4.54.275-6.806.228a67.621,67.621,0,0,0-12.338.568c-2.71.441-5.424.9-8.1,1.5-2.658.6-3.8,2.843-2.579,5.214,1.955,3.8,4.9,6.486,9.27,7.248,1.727.3,3.469.516,5.192.831,1.863.341,3.732.678,5.561,1.156,1.943.507,2.617,1.47,2.7,3.492.027.7,0,1.405,0,2.23-.526-.083-.894-.117-1.25-.2-1.2-.28-2.393-.583-3.591-.867a16.318,16.318,0,0,0-13.683,2.493,8.881,8.881,0,0,0-4.016,8.955c.081.658.2,1.312.339,1.959a2.791,2.791,0,0,1-1.037,3.032,9.029,9.029,0,0,0-1.423,1.385,4.248,4.248,0,0,0,.691,6.486,10.855,10.855,0,0,0,3.136,1.593,12.774,12.774,0,0,0,3.083.432c3.684.263,7.391.281,11.011,1.171a4.98,4.98,0,0,0,1.543-.015c1.889-.148,3.774-.41,5.665-.457,6.918-.169,13.838-.26,20.756-.4,2.084-.043,4.167-.218,6.251-.226,3.363-.014,6.733-.075,10.086.128,5.249.318,10.489.811,15.728,1.284,5.474.494,10.949,1,16.411,1.6,4.615.507,9.207,1.217,13.821,1.73a192.265,192.265,0,0,1,21.452,3.491,37.27,37.27,0,0,1,9.127,3.1,6.042,6.042,0,0,1,3.513,6.541c-.42,3.486-2.032,5.543-5.037,6.295-2.665.667-5.335,1.323-8.027,1.866a44.872,44.872,0,0,1-15.261.781,5.917,5.917,0,0,0-1.551.085c-3.8.5-7.607,1.014-11.412,1.506a8.631,8.631,0,0,0-5,2.153,2.6,2.6,0,0,0-.761,3.214,26.975,26.975,0,0,0,2.231,3.944,9.7,9.7,0,0,0,6.92,4.026c6.292.842,12.584,1.694,18.867,2.6a33.455,33.455,0,0,1,9.793,2.828,6.7,6.7,0,0,1,3.876,5.855,2.213,2.213,0,0,1-1.029,2.2,9.32,9.32,0,0,1-1.243.684,33.266,33.266,0,0,1-8.506,2.707c-1.68.289-3.374.507-5.041.861a1.66,1.66,0,0,0-1.373,2c.18.962.864,1.38,2.045,1.241,2.211-.26,4.425-.505,6.633-.791a19.9,19.9,0,0,0,8.4-2.868,9.174,9.174,0,0,0,4.084-6.693,3.122,3.122,0,0,0-.119-1.4c-1.528-4.67-4.466-7.924-9.441-8.85a137.218,137.218,0,0,0-19.449-2.436,28.648,28.648,0,0,1-6.282-1.059,28.16,28.16,0,0,1-4.823-2.052,2.808,2.808,0,0,1-1.754-2.712,3.1,3.1,0,0,1,2-2.72,6.278,6.278,0,0,1,1.488-.454,18.672,18.672,0,0,1,2.674-.36c3.551-.122,7.1-.189,10.655-.28a47.55,47.55,0,0,0,5.251-.174c5.207-.716,10.412-1.469,15.584-2.4a11.159,11.159,0,0,0,7.951-6.121,17.362,17.362,0,0,0,.936-2.633V4578.5C879.491,4578.424,879.394,4578.357,879.381,4578.277Zm-121.026-51.741c-.627,2.5-.8,2.611-3.319,2.1q-4.595-.935-9.181-1.915a9.461,9.461,0,0,1-5.972-4.275c-.822-1.23-.656-1.864.692-2.43a8.247,8.247,0,0,1,2.315-.643c3.442-.347,6.886-.721,10.338-.894,3.641-.183,7.294-.141,10.941-.21q8.315-.157,16.63-.325c1.225-.022,2.451,0,3.676,0-2.879,2.586-5.637,5.158-6.907,9.063-.4-.332-.692-.548-.954-.794a25.394,25.394,0,0,0-8.239-5.22,13.135,13.135,0,0,0-3.711-.813,5.056,5.056,0,0,0-4.609,2.326A11.313,11.313,0,0,0,758.355,4526.536Zm-10.244,12.741a16.6,16.6,0,0,1,9.117,1.621,21.87,21.87,0,0,1,6.1,3.979c2.271-.911,2.857-2.174,1.757-4.113a38.338,38.338,0,0,1-3.12-7.606,9.814,9.814,0,0,1-.213-6.01,3.723,3.723,0,0,1,4.436-2.8,6.225,6.225,0,0,1,1.225.349,10.33,10.33,0,0,1,5.645,5.151c1.065,2.163,1.985,4.4,2.972,6.6.114.254.25.5.4.789.3-.137.552-.271.815-.363a2.973,2.973,0,0,0,1.958-2.5,19.088,19.088,0,0,1,3.587-7.971,12.214,12.214,0,0,1,1.871-1.932,3.414,3.414,0,0,1,5.558,1.432,7.3,7.3,0,0,1,.433,4.6c-.359,1.511-.947,2.968-1.447,4.446-.135.4-.317.781-.47,1.152.851.748,1.173.816,1.831.272a10.483,10.483,0,0,0,1.054-1.147c4.174-4.664,8.961-8.465,15.024-10.361,5.928-1.855,11.89-2.25,17.864-.115a11.307,11.307,0,0,1,4.743,3.027,19.991,19.991,0,0,1,5.376,15.514,7.78,7.78,0,0,1-4.171,6.421c-3.852,2.1-7.915,3.738-12.372,3.853a41.465,41.465,0,0,1-6.359-.508,97.88,97.88,0,0,0-19.012-.581c-6.1.4-12.179.827-18.311.627a97.416,97.416,0,0,0-11.33.778c-3.21.271-6.407.736-9.621.9a26.038,26.038,0,0,1-6.364-.348,9.841,9.841,0,0,1-6.2-3.446,4.806,4.806,0,0,1-.962-2.614C739.4,4542.357,743.646,4539.733,748.111,4539.277Z" transform="translate(-304.418 -172.554)" fill="#000"/>
    <path id="Path_507" data-name="Path 507" d="M569.529,4591.542a14.387,14.387,0,0,0-8.815-9.473,22.525,22.525,0,0,0-17.763.09,18.105,18.105,0,0,1-2.042.767,3.106,3.106,0,0,1-2.5-.254c.757-1.38,1.539-2.637,2.154-3.966a8.754,8.754,0,0,0-.323-8.087,6.084,6.084,0,0,0-5.61-3.464c-1.264-.032-2.532.082-3.8.121-.453.014-.907,0-1.391,0,.143-1.423.321-2.644.376-3.87.128-2.807-.79-5.155-3.418-6.6a11.8,11.8,0,0,0-2.693-1.061,19.581,19.581,0,0,0-6.689-.151c-.42.036-.841.066-1.41.113,0-.628,0-1.138,0-1.648.011-1.754.08-3.51.023-5.262a12.824,12.824,0,0,0-2.966-7.731,19.114,19.114,0,0,0-10.785-6.646,11.331,11.331,0,0,0-11.938,3.78,22.945,22.945,0,0,0-4.175,6.645c-.689,1.716-1.205,3.5-1.783,5.256a7.409,7.409,0,0,1-1.807,3.449,14.439,14.439,0,0,1-1.618-1.244,16.955,16.955,0,0,1-1.955-2.293,7.445,7.445,0,0,0-5.388-3.32,32.8,32.8,0,0,0-5.674-.315,15.017,15.017,0,0,0-14.166,11.063,9.607,9.607,0,0,0,.92,8.216,69.262,69.262,0,0,1,3.33,6.325c.678,1.35.566,1.929-.554,2.884-1.092.931-2.245,1.792-3.618,2.879a5.992,5.992,0,0,0-.593-.907,4.879,4.879,0,0,0-5.089-1.295,23.3,23.3,0,0,0-2.317.861c-.35.133-.7.273-1.168.457a16.677,16.677,0,0,0-2.112-6.243c-.209-.427-.4-.866-.564-1.311a17.779,17.779,0,0,0-28.215-7.128,36.933,36.933,0,0,0-13.967,27.9c-.142,3.124-.023,6.259-.024,9.387v1.632c-.793-.1-1.366-.179-1.94-.245-1.258-.144-2.513-.349-3.775-.406a7.462,7.462,0,0,0-5.386,1.82,5.8,5.8,0,0,1-.695.443,6.771,6.771,0,0,1-.026-3.611c.464-2.132.886-4.272,1.379-6.4q.594-2.563,1.319-5.1c1.1-3.836,3.188-7.207,5.289-10.578A51.056,51.056,0,0,0,399,4570.92a32.242,32.242,0,0,1,5.961-9.062,100.526,100.526,0,0,0,10.648-13.719c1.548-2.351,3.325-4.561,5.024-6.816a9.877,9.877,0,0,1,1.146-1.088c.077.315.143.422.111.478-1.3,2.332-2.572,4.674-3.92,6.977a2.292,2.292,0,0,0-.329,2.154,4.44,4.44,0,0,0,2.182,2.369,10.4,10.4,0,0,0,.887-1.269,18.7,18.7,0,0,0,.878-2.107,6.562,6.562,0,0,1,2.072-3.2,4.356,4.356,0,0,0,.972-1.233c.836-1.391,1.688-2.778,2.435-4.213a170.1,170.1,0,0,1,8.838-14.736c2.413-3.674,4.788-7.378,7.039-11.147,1.63-2.73,2.154-5.873,3-8.879.371-1.324-.154-2.074-1.471-2.563a29.748,29.748,0,0,0-3.092-.833,4.252,4.252,0,0,0-4.234,1.305c-1.065,1.04-2.184,2.026-3.247,3.067a10.937,10.937,0,0,0-1.52,1.721,87.432,87.432,0,0,1-7.581,9.389,52.081,52.081,0,0,0-5.144,6.543c-2.711,4.327-5.144,8.82-7.69,13.246a3,3,0,0,0-.288.651,1.534,1.534,0,0,0,.817,1.922,2.155,2.155,0,0,0,3.351-1.769c.012-.378-.027-.757-.023-1.137a9.543,9.543,0,0,1,1.583-5.249c1.048-1.6,2.035-3.238,3.125-4.809,1.717-2.473,3.432-4.955,5.283-7.333a31.329,31.329,0,0,1,3.14-3.09l.024,0c0-.008,0-.015,0-.023l-.031.027q1.193-1.524,2.386-3.048c1.123-1.43,2.237-2.868,3.376-4.286a7.637,7.637,0,0,1,6.55-3.028c.926,2.812.9,5.478-.953,7.946-.488.648-1.116,1.2-1.591,1.853a31.931,31.931,0,0,0-2.2,3.326,3.7,3.7,0,0,1-2.566,2.075c-.853,1.74-1.642,3.515-2.581,5.211-1.085,1.959-2.29,3.857-3.474,5.764a3.057,3.057,0,0,1-2.117,1.581,3.585,3.585,0,0,0-.37-3c-1.04-1.485-2.393-1.43-3.278.139-.21.373-.352.781-.548,1.162a35.648,35.648,0,0,1-2.074,3.912c-3.141,4.572-6.292,9.14-9.6,13.6-2.277,3.073-4.912,5.9-6.841,9.215-.04.07-.162.1-.345.2.919-8.089,3.75-15.667,5.7-23.484a12.151,12.151,0,0,0-3.274,3.207,6.212,6.212,0,0,0-1.143,2.425,12.671,12.671,0,0,1-1.619,4.064c-2.421,4.808-4.591,9.741-7.708,14.194a6.037,6.037,0,0,0-1.025,3.21,14.474,14.474,0,0,0,1.12-1.234c.791-1.138,1.544-2.3,2.314-3.453,1.035-1.549,2.063-3.1,3.116-4.639a4.785,4.785,0,0,1,.822-.687,38.9,38.9,0,0,1-3.627,13.932c-2.2,4.673-6.433,10.648-8.192,11.563a25.264,25.264,0,0,1,1.221-9.974,49.476,49.476,0,0,0,1.844-7.011c1.589-8.259,4.067-16.3,6.459-24.356,2.6-8.75,5.977-17.241,9.1-25.817a151.536,151.536,0,0,1,9.407-21.579,7.122,7.122,0,0,0,.524-1.323,2.788,2.788,0,0,1,1.195-1.719,1.354,1.354,0,0,0,.542-.783c.536-2.253.767-4.591,2.155-6.591a.827.827,0,0,0-.385-1.22,1.051,1.051,0,0,0-1.453.132,4.959,4.959,0,0,0-.661,1.1c-1.47,3.1-2.9,6.216-4.4,9.3a130.38,130.38,0,0,0-6.537,14.588c-.046.135-.045.349-.135.393a2.885,2.885,0,0,1-1.156.405c-.139,0-.426-.6-.395-.9.2-1.978.433-3.956.74-5.92a22.408,22.408,0,0,0,.184-6.338,240.814,240.814,0,0,1-5.835,27.528,193.675,193.675,0,0,1-9.472,26.54c-.8-.27-.879-.712-.716-1.288a1.168,1.168,0,0,0-.514-1.484,2.222,2.222,0,0,0-3.376,1,10.788,10.788,0,0,0-.42,1.061c-1.075,3.2-2.163,6.39-3.212,9.595q-3.877,11.852-7.729,23.712a5.9,5.9,0,0,1-.4.745,52.189,52.189,0,0,1,.1-11.036,158.211,158.211,0,0,1,3.9-21.839c1.562-6.1,2.374-12.4,4.964-18.246a6.5,6.5,0,0,0,.181-4.474,5.341,5.341,0,0,1-.1-.693c.19-.145.324-.322.492-.362,2.011-.463,3.181-1.862,4.284-3.43a4.085,4.085,0,0,0,.729-3.629,10.654,10.654,0,0,0-1.084-2.617,3.506,3.506,0,0,0-4.377-1.648,6.418,6.418,0,0,0-3.641,9.681c.163.236.349.457.513.692a.722.722,0,0,1-.129,1.124,3.2,3.2,0,0,0-1.2,3.042,5.24,5.24,0,0,1-.471,2.48,22.479,22.479,0,0,0-1.549,4.112c-1.348,5.63-2.688,11.265-3.846,16.934-.8,3.9-1.348,7.849-1.9,11.791a101.476,101.476,0,0,0-1.369,14.437,5.507,5.507,0,0,1-.249,1.533,1.1,1.1,0,0,1-1.026.935,55.022,55.022,0,0,1-1.87-10.078c-.218-2.405-.2-4.831-.384-7.24a6.067,6.067,0,0,0-.709-2.547c-.621-1.057-1.649-.958-2.253.134a29.546,29.546,0,0,0-1.34,2.841,6.608,6.608,0,0,0-.362,3.758,47.957,47.957,0,0,1,.625,6.071,65.6,65.6,0,0,0,.782,9.631,6.911,6.911,0,0,1-.814,4.951c-1.955,3.281-3.885,6.576-5.837,9.858-.072.121-.267.172-.625.391,0-1.642-.066-3.064.012-4.479.288-5.207.487-10.423.983-15.612.418-4.383,1.07-8.756,1.864-13.09.64-3.494,1.742-6.9,2.478-10.384,2.067-9.783,4.809-19.341,9.409-28.33.775-1.513,1.625-2.772,3.506-3.091a1.309,1.309,0,0,0,1.137-1.579,2.861,2.861,0,0,0-.282-1.088,2.609,2.609,0,0,1,.412-2.922,26.335,26.335,0,0,0,1.65-2.5,2.527,2.527,0,0,1,2.826-1.527c.485.083.981.137,1.29-.385s.034-.912-.254-1.3a1.6,1.6,0,0,1-.087-1.991c.846-1.253,1.4-2.712,2.9-3.489a.923.923,0,0,0,.113-1.649,2.208,2.208,0,0,0-1.459-.347,6.615,6.615,0,0,0-4.083,2.3,87.4,87.4,0,0,0-11.077,14.99c-.688,1.2-1.319,2.43-1.962,3.654a1.414,1.414,0,0,0,.243,1.905c.656-1.078,1.236-2.053,1.839-3.014.954-1.519,1.5-2.006,2.594-2.3-.333,1-.582,1.962-.97,2.869q-2.019,4.726-4.12,9.418a49.214,49.214,0,0,0-2.964,8.317q-1.922,7.882-3.9,15.752c-.567,2.246-1.233,4.468-1.853,6.7a2.423,2.423,0,0,1-.484-1.311c-.22-1.778.356-3.475.546-5.211.476-4.335.845-8.681,1.217-13.026a74.672,74.672,0,0,1,1.506-11.7c1.528-6.174,2.977-12.367,4.486-18.545,1.159-4.748,2.248-9.516,3.566-14.222,1.619-5.779,4.337-11.166,6.71-16.669,1.053-2.441,2.4-4.765,3.6-7.142a13.326,13.326,0,0,0,.806-1.669,2.7,2.7,0,0,0-.365-2.579.967.967,0,0,0-1.755.038,5.782,5.782,0,0,0-.371.772c-.905,1.995-1.83,3.98-2.708,5.987-2.959,6.76-5.906,13.524-9.362,20.064-.24.455-.488.9-.736,1.364-.762-.479-.736-.479-.707-1.351.13-3.885.257-7.77.357-11.655.03-1.185.005-2.372-.054-3.556-.044-.868-.4-1.253-1.051-1.305a1.422,1.422,0,0,0-1.516,1.084,5.831,5.831,0,0,0-.118,1.412c0,2.7.055,5.406.018,8.109a69.355,69.355,0,0,1-2.928,19.922,35.832,35.832,0,0,0-1.484,8.389c-.13,1.973-.5,3.932-.767,5.9a1.743,1.743,0,0,1-.659-1,49.647,49.647,0,0,1-1.123-5.716c-.318-3.49-.437-7-.585-10.5-.145-3.41-.17-6.825-.343-10.232-.128-2.508-.514-5-.6-7.513a150.771,150.771,0,0,0-1.688-18.692,144.4,144.4,0,0,1-1.609-14.7c-.2-3.549-.479-7.1-.735-10.643a5.053,5.053,0,0,0-2.146-4.024,5.762,5.762,0,0,0-.961-.411,15.435,15.435,0,0,0-.1,1.556c.122,2.793.206,5.59.417,8.376.3,3.97.756,7.929,1.039,11.9.25,3.5.314,7.007.537,10.508.184,2.885.534,5.761.711,8.647.106,1.724.02,3.459.02,5.464a10.1,10.1,0,0,1-.462-1.081c-.49-1.785-.98-3.571-1.436-5.365a102.783,102.783,0,0,0-4.427-14.427,11.491,11.491,0,0,0-1.372-2.494,4.447,4.447,0,0,0-3.89-1.735c.224.544.373.94.549,1.325.969,2.122,1.935,4.247,2.921,6.362a65.251,65.251,0,0,1,5.352,16.941c1.574,9.5,3.088,19.007,4.456,28.535a134.743,134.743,0,0,1,1.407,18.43c.042,7.823-.377,15.65.284,23.463.3,3.539.053,7.117.828,10.623a1.51,1.51,0,0,1-.407,1.532c-1.114-3.833-2.305-7.539-3.261-11.3a98.037,98.037,0,0,0-7.767-19.6,5.854,5.854,0,0,0-.76-1.208,1.907,1.907,0,0,0-2.393-.332c-.685.389-.85.866-.59,1.846.121.458.312.9.446,1.352,1.131,3.825,2.353,7.626,3.362,11.481a93.723,93.723,0,0,1,2.7,19.27c.138,2.829.684,5.639,1.042,8.458a16.632,16.632,0,0,1,.273,2.395,3.479,3.479,0,0,1-.833,2.505c-.248-.339-.421-.564-.582-.8-2.193-3.193-4.352-6.409-6.595-9.569a20.878,20.878,0,0,0-2.568-2.892,4.827,4.827,0,0,0-2.677-1.286c0,.518-.033.928.006,1.332a16.512,16.512,0,0,0,1.495,5.471c.688,1.466,1.406,2.919,2.091,4.386a33.889,33.889,0,0,1,2.869,8.187,14.11,14.11,0,0,1-.032,6.12,11.866,11.866,0,0,1-1.292-1.082c-1.3-1.479-2.614-2.947-3.826-4.492-6.27-7.991-12.556-15.971-18.752-24.017a515.415,515.415,0,0,1-33.244-49.519c-3.715-6.187-7.527-12.3-11.731-18.186a21.057,21.057,0,0,0-1.905-2.336,4.984,4.984,0,0,0-5.719-1.312,7.666,7.666,0,0,1-2.272.338c-3.116.117-6.242.076-9.348.306s-6.187.827-9.323.532a57.289,57.289,0,0,0-10.808.059c-.8.076-1.6.149-2.405.222a65.37,65.37,0,0,0,1.1-7.234,66.507,66.507,0,0,0-.278-8.784,85.562,85.562,0,0,0-2.866-17.289,14.875,14.875,0,0,0-3.782-6.717c-1.007-.984-2.024-1.958-3.079-2.977-.012.054-.018,0,.009-.034,2.052-2.292,3.38-5.024,4.9-7.637a3.223,3.223,0,0,0,.3-.645,1.482,1.482,0,0,0-.641-1.8,1.526,1.526,0,0,0-1.922.33,8.345,8.345,0,0,0-.885,1.3c-.958,1.593-1.849,3.228-2.862,4.787a10.975,10.975,0,0,1-7.953,4.884c-5.217.805-11.78-3.146-11.188-9.75.071-.789.01-1.588.01-2.467.307-.021.612-.049.918-.062,1.728-.069,3.457-.126,5.184-.2a194.243,194.243,0,0,1,23.671.072c-.24.042-.479.078-.72.13a.979.979,0,0,0-.87,1.137c.1.656.632.822,1.194.8,2.191-.071,4.383-.136,6.568-.291a14.234,14.234,0,0,0,2.324-.551l-.032-.313a16.029,16.029,0,0,0-2.358-.752,1.343,1.343,0,0,0,.617-1,1.366,1.366,0,0,0-.881-1.491,3.531,3.531,0,0,0-1.125-.272c-2.935-.251-5.871-.5-8.81-.707-.531-.038-.7-.188-.709-.712a19.572,19.572,0,0,0-.458-3.712c.091-.028.185-.049.274-.081a.7.7,0,0,0,.465-1.01,1.268,1.268,0,0,0-.85-.567,1.932,1.932,0,0,0-.337-.007,21.23,21.23,0,0,0-.766-2.072,10.461,10.461,0,0,0-2.347-3.459,71.952,71.952,0,0,1,8.765.842,74.874,74.874,0,0,0,15.438.942,35.112,35.112,0,0,1,5.114.074c5.285.523,10.554,1.185,15.837,1.725,6.5.664,13,1.257,19.5,1.884,4.414.426,8.836.786,13.238,1.306a112.906,112.906,0,0,1,17.369,3.844,7.279,7.279,0,0,1,.965.329,1.549,1.549,0,0,1,1.12,1.358,1.579,1.579,0,0,1-.947,1.489,7.245,7.245,0,0,1-1.593.7c-6.45,1.666-12.881,3.414-19.372,4.917-4.831,1.12-9.751,1.87-14.613,2.87-2.045.42-4.045,1.054-6.061,1.6a2.145,2.145,0,0,0-1.8,1.989,2.429,2.429,0,0,0,1.419,2.449c.341.179.715.3,1.072.448a4.8,4.8,0,0,1,.928.4,35.843,35.843,0,0,0,6.911,3.353,14.4,14.4,0,0,0,5.277,1c1.8.045,3.606.116,5.406.226,5.35.33,10.7.661,16.047,1.037a44.789,44.789,0,0,1,6.965.722c3.235.752,6.293.189,9.384-.511.933-.211,1.341-.758,1.285-1.486-.068-.876-.742-1.035-1.447-1.108-1.648-.171-3.3-.318-4.947-.473-3.637-.344-7.283-.625-10.911-1.044-5.708-.659-11.4-1.439-17.11-2.115a93.319,93.319,0,0,1-12.1-1.962,10.451,10.451,0,0,1-1.059-.4,22.391,22.391,0,0,1,8.6-3c4.741-.545,9.5-.947,14.244-1.468,2.853-.313,5.721-.6,8.532-1.148a20.11,20.11,0,0,0,9.062-4.4,3.316,3.316,0,0,0,1.3-3.786c-.126-.408-.218-.826-.337-1.235a3.706,3.706,0,0,0-2.793-2.648c-.8-.215-1.608-.39-2.418-.556-6.483-1.33-12.943-2.785-19.459-3.938-5.605-.993-11.269-1.687-16.919-2.426-5.119-.668-10.251-1.253-15.384-1.811a105.825,105.825,0,0,1-11.865-1.614,10.578,10.578,0,0,0-2.6-.054c-1.457.042-2.918.233-4.369.177-4.869-.188-9.734-.456-14.6-.7-3.406-.168-6.815-.307-10.219-.522-1.91-.121-3.817-.284-5.725-.44a20.3,20.3,0,0,0-3.063-1.112,6.739,6.739,0,0,0-4.909.361l-.564.278c-5.615-.119-11.236-.026-16.855-.042a13.373,13.373,0,0,1-2.178-.167,2.606,2.606,0,0,1-2.035-1.608c.376-.366.728-.746,1.119-1.083a14.977,14.977,0,0,1,5.408-3.042,48.539,48.539,0,0,1,6.775-1.724c9.82-1.5,19.657-2.887,29.491-4.3,5.977-.856,11.969-1.626,17.939-2.527a156.781,156.781,0,0,1,18.3-2,69.812,69.812,0,0,0,6.982-.613c1.854-.247,3.676-.721,5.512-1.093l.008-.316c-.587-.188-1.164-.416-1.761-.558a46.215,46.215,0,0,0-15.388-1.06c-3.876.387-7.727,1.011-11.594,1.494-5.993.748-11.99,1.457-17.984,2.2-2.946.364-5.9.677-8.825,1.172-2.444.413-4.828,1.171-7.273,1.577a211.552,211.552,0,0,0-26.6,6.041,13.876,13.876,0,0,1-2.732.272,6.218,6.218,0,0,0-.975.088c-.6.153-1.171.426-1.776.535-2.347.425-3.3,1.831-2.421,4a16.815,16.815,0,0,0,2.132,3.522,4.543,4.543,0,0,0,3.232,1.736c3.236.421,6.457.957,9.7,1.345,1.72.206,3.442.354,5.165.434a13.536,13.536,0,0,0-3.444,5.514,14.356,14.356,0,0,0-.828,5.948,3.313,3.313,0,0,1-.449.1c-2.015.158-4.031.308-6.046.467a7.246,7.246,0,0,0-1.158.137,1.5,1.5,0,0,0-1.236,1.546,1.524,1.524,0,0,0,1.373,1.356,3.3,3.3,0,0,0,.728.038q1.677-.1,3.352-.215c1.3-.094,2.6-.2,3.942-.306a12.352,12.352,0,0,0,.868,8.332A11.2,11.2,0,0,0,197.37,4452a36.937,36.937,0,0,0-6.195-2.124,102.591,102.591,0,0,0-16.3-2.433,18.81,18.81,0,0,0-7.194.841q-2.036-1.329-4.072-2.659a.834.834,0,0,0-.878-.856.966.966,0,0,0-.342.061q-2.541-1.663-5.064-3.352a4.775,4.775,0,0,1,3.89,1.648,1.146,1.146,0,0,0,.842.37c.453-.035.525-.424.563-.845.1-1.165.127-1.179,1.355-1.393a6.534,6.534,0,0,0,2.783-1.127c-.154-.1-.222-.183-.293-.185q-5.817-.167-11.635-.321c-.064,0-.129,0-.193,0a24.556,24.556,0,0,1-5.967-5.668,2.493,2.493,0,0,0-.889-.716,1.493,1.493,0,0,0-2.224,1.152,4.7,4.7,0,0,0,.067,1.128c.118.916.3,1.824.379,2.743.335,3.988.634,7.978.962,11.965.094,1.146.195,2.29.29,3.436-.415.067-.829.141-1.24.224a45.059,45.059,0,0,0-24.116,13.37,4.449,4.449,0,0,0-.868,5.479,12.137,12.137,0,0,0,5.631,5.579,87.452,87.452,0,0,0,26.518,8.56,47.8,47.8,0,0,0,13.553-.133,57.144,57.144,0,0,1,13.416-.432c1.931.232,3.841.629,5.763.933,2.075.328,3.756-.785,5.551-1.474a.539.539,0,0,0,.212-.185.549.549,0,0,0-.352-.874,4.045,4.045,0,0,0-.87.063,16.553,16.553,0,0,1-6.524-.332,17.069,17.069,0,0,0-2.446-.413,61.071,61.071,0,0,0-14.005.138c-3.149.3-6.3.557-9.456.834a44.813,44.813,0,0,1-8.677-1.368c-2.345-.641-4.684-1.321-7.064-1.817a33.437,33.437,0,0,1-7.468-2.421q-4.078-1.922-8.083-3.988a7.285,7.285,0,0,1-1.818-1.407c-1.91-1.952-1.921-3.7.068-5.565,1.716-1.611,3.49-3.181,5.361-4.617a35.844,35.844,0,0,1,17.142-7.458q.231,2.758.465,5.518a11.839,11.839,0,0,0-4.567,2.272c-1.394,1.16-1.682,2.488-.659,3.909,2.288,3.181,5.25,5.474,9.338,6.038a40.424,40.424,0,0,0,11.227-.19c4.675-.664,9.323-1.512,13.977-2.308a12.693,12.693,0,0,0,2.533-.655,4.946,4.946,0,0,0,2.53-7.521,7.354,7.354,0,0,0-4.937-3.511,49.594,49.594,0,0,0-5.521-.481,2.511,2.511,0,0,0-.861.138,1.3,1.3,0,0,0-.992,1.262,1.233,1.233,0,0,0,.848,1.348,4.252,4.252,0,0,0,1.13.255c1.311.106,2.622.206,3.936.254a4.85,4.85,0,0,1,3.808,1.809,2.174,2.174,0,0,1-.607,3.514,9.855,9.855,0,0,1-4.641,1.577c-1.264.069-2.522.238-3.779.394-4.4.542-8.793,1.118-13.193,1.641a12.931,12.931,0,0,1-5.79-.426q-1.188-.41-2.356-.895a1.981,1.981,0,0,0,1.5-.275c.954-.6.895-1.553.807-2.49-.156-1.665-.319-3.329-.479-4.993a4.142,4.142,0,0,0,.872-1.345c-.355.046-.676.084-.983.12-.084-.9-.171-1.793-.246-2.69-.071-.85-.137-1.7-.207-2.549.163-.006.323-.019.487-.023a6.184,6.184,0,0,0,1.444-.2c1.182-.323,1.381-1.156.495-2a2.753,2.753,0,0,0-2.43-.692c-.076.012-.152.023-.229.034q-.246-3.058-.492-6.115a1.584,1.584,0,0,0,.176.062,8.171,8.171,0,0,0,5.1-.575c-1.767-.615-3.254-1.183-4.774-1.646a1.2,1.2,0,0,0-.678-.022q-.185-2.34-.371-4.68c-.018-.222,0-.446,0-.8.784.614,1.458,1.144,2.134,1.672,5.711,4.456,11.994,8.108,18.021,12.12,1.989,1.324,3.945,2.708,6.011,3.909,3.143,1.827,6.349,3.553,9.53,5.318a.455.455,0,0,0-.034.052,1.335,1.335,0,0,0,.429,1.187,3.6,3.6,0,0,0,1.014.586,16.011,16.011,0,0,0,.32,7.04,10.4,10.4,0,0,0,.9,2.393c-.5.18-1,.359-1.512.526-.737.244-1.5.428-2.222.7a2.346,2.346,0,0,0-1.706,1.777,8.071,8.071,0,0,0,1.3.1c.726-.062,1.448-.186,2.167-.315a35.377,35.377,0,0,0,3.486-.812,3.248,3.248,0,0,0,3.873.211c.215-.124.438-.237.793-.429-.2,5.409-.39,10.66,1.213,15.744a1.917,1.917,0,0,1-.341.138c-2.675.249-3.787,2.2-4.745,4.229a1.277,1.277,0,0,0,.214,1.49c-.726.063-1.453.125-2.177.2a5.519,5.519,0,0,0-4.664,3.446A84.326,84.326,0,0,1,177.445,4511c-4.156,6.64-8.213,13.337-12.29,20.022-.6.977-1.072,2.021-1.611,3.031q-5.654,10.6-11.316,21.2c-.231.431-.525.83-.9,1.41-.654-.971-1.246-1.725-1.7-2.552-.615-1.129-1.153-2.3-1.67-3.475-1.71-3.887-4.049-5.423-8.369-5.372a46.723,46.723,0,0,0-12.377,1.907,25.161,25.161,0,0,0-15.751,12.5c-.711,1.295-1.375,2.615-2.064,3.923-.778,1.476-1.552,2.954-2.346,4.422-.19.353-.449.668-.787,1.163-.281-.655-.476-1.131-.689-1.6-.551-1.212-1.048-2.455-1.683-3.624a6.688,6.688,0,0,0-4.432-3.454c-4.539-1.093-6.811.663-7.991,3.934-.581,1.608-1.114,3.234-1.65,4.858a29.846,29.846,0,0,0-1.583,7.358c-.089,1.322-.05,2.652-.076,3.979a6.637,6.637,0,0,1-.922,3.634c-.238-.362-.41-.575-.531-.812-2.588-5.1-6.4-8.783-12.265-10.132a1.63,1.63,0,0,1-1.392-1.614c-.046-1.276-.086-2.558-.021-3.832.09-1.751.394-3.5.409-5.245.1-12.422.223-24.846-.295-37.262-.361-8.67-.787-17.337-1.23-26-.152-2.981-.368-5.964-.687-8.934-.562-5.233-1.332-10.446-1.82-15.685-.631-6.751-1.04-13.521-1.613-20.278a38.831,38.831,0,0,0-.867-5.182,7.033,7.033,0,0,0-1.036-2.17,1.84,1.84,0,0,0-2.041-.79c-.412.117-.758.806-.928,1.3a10.524,10.524,0,0,0-.57,4.616c.633,5.655,1.2,11.317,1.824,16.973a203.181,203.181,0,0,1,1.483,23.127,118.9,118.9,0,0,0,.951,15.04,113.332,113.332,0,0,1,1.068,13.606c.013,5.357.108,10.715.166,16.072a2.693,2.693,0,0,1-.02.566.993.993,0,0,1-1.494.8,9.78,9.78,0,0,1-1.623-.944c-5.732-3.9-11.74-4.265-17.949-1.234a33.925,33.925,0,0,0-7.647,5.207c-5.824,5.183-8.833,11.568-8.692,19.293.01.522.029,1.045.008,1.565a2.471,2.471,0,0,1-2.007,2.625c-.549.192-1.124.316-1.674.509a14.1,14.1,0,0,0-9.818,11.219,16.477,16.477,0,0,0,.475,7.319c.592,2.358.331,2.832-1.926,3.906-.044.021-.088.04-.134.058a23.258,23.258,0,0,0-9.757,7.711q-2.866,3.776-5.517,7.7a7.374,7.374,0,0,0-.948,2.506c-.431,1.894-.731,3.815-1.125,5.717a21.575,21.575,0,0,0-.223,8.617c.826,4.21,3.245,7.463,6.515,10.18a16.353,16.353,0,0,0,11.868,3.935,38.41,38.41,0,0,0,15.607-4.388c.506-.267,1.013-.532,1.683-.883.6.92,1.191,1.773,1.724,2.66.787,1.309,1.49,2.667,2.3,3.958a14.586,14.586,0,0,0,4.624,4.679q4.554,2.842,9.113,5.676A12.494,12.494,0,0,0,57.092,4648c1.361.084,2.713.292,4.072.414a39.661,39.661,0,0,0,11.075-.206,144.6,144.6,0,0,1,20.9-2.3c5.845-.256,11.69-.547,17.538-.671a73.406,73.406,0,0,1,9.193.349c4.406.462,8.773,1.266,13.173,1.793a130.115,130.115,0,0,1,23.221,5.042c5.66,1.764,11.3,3.59,16.969,5.33a57.2,57.2,0,0,0,13.9,2.55,26.5,26.5,0,0,0,17.722-5.018c2.474-1.835,4.78-3.894,7.059-5.959a5.9,5.9,0,0,0,1.581-2.5,32.51,32.51,0,0,0,1.425-5.934c1.1-9.527-3.484-18.78-14.3-22.286a39.175,39.175,0,0,0-16.745-1.512c-.568.065-1.141.1-1.735.145a2.749,2.749,0,0,1,.769-2.312c2.954-4.343,3.453-9.042,2.391-14.045-.568-2.681-1.938-4.252-4.868-4.663a30.319,30.319,0,0,0-9.878-.223c-2.053.38-4.154.53-6.24.725-1.366.127-1.8-.358-1.559-1.653.085-.465.267-.911.377-1.373.165-.691.323-1.385.451-2.083a2.056,2.056,0,0,0-1.4-2.511c-1.953-.724-3.909-1.469-5.922-2a11.457,11.457,0,0,0-6.348.3c-.26.08-.529.133-.923.23.942-3.127,1.881-6.1,2.724-9.091a44.586,44.586,0,0,0,1.543-9.393,39.222,39.222,0,0,0-.8-9.328,5.749,5.749,0,0,1,1.086.208c.575.254,1.116.575,1.681.849,1.056.513,1.446.439,2.071-.513.524-.8.994-1.632,1.436-2.476.819-1.562,1.6-3.143,2.4-4.716a3.417,3.417,0,0,1,2.918-2.056,37.807,37.807,0,0,0,4.33-.664,152,152,0,0,1,22.763-2.721c5.3-.3,10.608-.64,15.909-.984,7.246-.47,14.454-1.454,21.732-1.493a4.03,4.03,0,0,0,1.547-.326,1.711,1.711,0,0,0,.914-1.925,1.387,1.387,0,0,0-1.232-1.223,9.966,9.966,0,0,0-3.315-.289c-2.807.285-5.627.465-8.447.6-2.58.121-5.172.03-7.747.2-10.263.663-20.526,1.348-30.782,2.114-4.225.314-8.432.86-12.648,1.295-.257.026-.52,0-.891,0,.436-1.322.85-2.483,1.2-3.662a62.014,62.014,0,0,1,8.38-17.607,62.559,62.559,0,0,0,3.8-6.4,4.765,4.765,0,0,1,3.961-2.734c4.4-.5,8.8-1.121,13.21-1.521a142.4,142.4,0,0,1,17.532-.575c3.9.127,7.8.118,11.7.133,1.266,0,2.531-.148,3.8-.162s2.522.054,3.783.094c.65.021,1.158-.158,1.339-.834a1.11,1.11,0,0,0-.853-1.426,5.115,5.115,0,0,0-1.431-.22c-1.316-.035-2.633-.053-3.949-.025-9.407.2-18.816.383-28.221.66-2.576.076-5.148.4-7.71.711a27.87,27.87,0,0,1-7.722.083c-.368-.058-.728-.161-1.237-.277a16.976,16.976,0,0,1,.792-2.363q1.126-2.229,2.433-4.369a4.443,4.443,0,0,0,.857-2.5c-.029-1.188.483-1.741,1.691-1.941a17.666,17.666,0,0,1,2.619-.177c1.668-.025,3.337-.028,5.006-.041l.026.016a2.351,2.351,0,0,1,.872.965,3.9,3.9,0,0,0,2.293,2.163,10.219,10.219,0,0,0,2.311.639c3.025.314,6.054.633,9.09.791a36.683,36.683,0,0,0,10.895-.693c3.1-.773,4.31-2.1,4.48-5.185,0-.042,0-.083.007-.126,6.448-.217,12.9-.409,19.341-.7,5.259-.242,10.512-.628,15.764-1a4.127,4.127,0,0,1,4.359,2.418,81.172,81.172,0,0,0,7.43,11.57,49.709,49.709,0,0,1,4.555,7.278c.141.271.232.568.4.982-21.868,2.731-43.713,4.314-65.574,6.335.806,1.919,1.437,2.328,3.284,2.189,1.02-.076,2.035-.22,3.052-.325,7.708-.8,15.412-1.621,23.123-2.374,6.015-.586,12.039-1.079,18.059-1.619,4.028-.362,8.062-.676,12.079-1.128a38.541,38.541,0,0,0,4.7-1.029,2.936,2.936,0,0,1,3.35,1.1c.772,1.036,1.655,2,2.338,3.09,6.377,10.155,12.52,20.454,19.608,30.171a2.574,2.574,0,0,1,.6,2.171c-.553,0-1.081,0-1.608,0-2.68-.028-5.361-.125-8.04-.073-5.264.1-10.528.274-15.79.441-2.924.093-5.847.206-8.767.36-2.239.118-4.471.407-6.71.461-8.335.2-16.672.335-25.008.5-1.95.037-3.9.015-5.849.134-2.041.125-4.074.381-6.109.594-.632.066-1.122.321-1.173,1.036a1.469,1.469,0,0,0,1.006,1.561,2.89,2.89,0,0,0,.86.125,12.571,12.571,0,0,0,1.314-.054c5.784-.521,11.582-.626,17.387-.688,4.971-.054,9.952-.118,14.907-.47,8.561-.606,17.122-1.091,25.7-1.332,5.448-.152,10.919.319,16.347-.616a5.161,5.161,0,0,1,5.11,2.146c.47.6.868,1.259,1.276,1.905a95.894,95.894,0,0,0,10.639,14.255,24.46,24.46,0,0,1,2.376,3.4,8.017,8.017,0,0,1,.562,1.417,22.015,22.015,0,0,1-2.315.293c-4.044.069-8.089.078-12.132.154-3.02.057-6.062-.014-9.051.33-4.365.5-8.73.806-13.118.967-2.726.1-5.449.338-8.162.616-1.379.141-2.734.509-4.1.774a2.809,2.809,0,0,0,1.421.376c7.766.358,15.491-.416,23.232-.77,5.063-.231,10.134-.28,15.2-.4a6.659,6.659,0,0,1,1.061.178c-.806.636-2.132.535-1.864,1.967,2.3.038,4.577.132,6.855.092a23.678,23.678,0,0,0,4.205-.418,4.121,4.121,0,0,1,3.795.95,25.37,25.37,0,0,1,2.536,2.74c2.1,2.555,4.069,5.209,6.234,7.707q9.715,11.212,18.6,23.05c.363.481.765.936,1.157,1.411.546-.251.961-.4,1.331-.622.814-.484,1.047-1,.62-1.788a38.061,38.061,0,0,0-2.772-4.662c-1.831-2.454-3.822-4.8-5.787-7.154-2.026-2.43-3.986-4.928-6.194-7.192a7.13,7.13,0,0,1-2.208-5.611,75.255,75.255,0,0,0-.3-8.229c-.12-1.579-.529-3.137-.809-4.7a1.3,1.3,0,0,1,.676.584c1.815,3.193,3.7,6.355,5.413,9.6a44.339,44.339,0,0,1,4.562,12.855,7.9,7.9,0,0,0,1.783,3.691q1.106,1.325,2.275,2.6c.95,1.033,1.878.863,2.416-.434a6.351,6.351,0,0,0,.362-1.23c.412-2.142.935-4.273,1.181-6.434a38.021,38.021,0,0,1,4.989-15.049c.232-.4.488-.779.907-1.446a11.91,11.91,0,0,1,.122,1.559c-.275,3.542-.394,7.107-.9,10.62-.726,5.019-1.744,10-2.631,15-.139.781-.248,1.567-.371,2.351l.346.066c1.024-3.453,2.15-6.882,3.043-10.367.907-3.538,1.681-7.114,2.335-10.7.635-3.493,1.043-7.024,1.551-10.539a4.6,4.6,0,0,1,.5,2.112c0,2.513.074,5.035-.116,7.536-.576,7.565-1.27,15.12-1.9,22.681a4.73,4.73,0,0,1-2.252,3.789,7.254,7.254,0,0,0-3.32,5.146c-.187,1.166-.207,2.357-.336,3.533-.148,1.357-.431,1.668-1.83,1.686-2.046.026-4.1-.113-6.14-.066a57.224,57.224,0,0,0-5.815.382c-4.057.51-8.089,1.226-12.152,1.676-4.261.472-8.551.691-12.821,1.092a116.493,116.493,0,0,1-13.729.5,59.975,59.975,0,0,0-6.27.354c-1.7.137-3.386.439-5.086.542q-11.023.666-22.05,1.249c-4.43.231-8.864.4-13.3.565-3.993.152-7.988.363-11.982.38-6.388.027-12.776-.1-19.164-.131-3.8-.021-7.6.006-11.393.011-.669,0-1.28.107-1.531.827a1.367,1.367,0,0,0,.842,1.757c1.952,1.016,3.939,1.913,6.251,1.2a3.541,3.541,0,0,1,.723-.1,139.376,139.376,0,0,1,20.746.141,42.594,42.594,0,0,0,5.4.036c4.423-.3,8.837-.751,13.259-1.067,3.889-.278,7.788-.445,11.68-.676,5.548-.33,11.1-.649,16.642-1.02q11.234-.751,22.462-1.583c5.152-.387,10.3-.861,15.444-1.3,3.784-.322,7.572-.606,11.349-.992,2.757-.282,5.49-.872,8.25-1.018,3.011-.158,6.041.086,9.063.061a2.638,2.638,0,0,1,2.773,1.792,24.767,24.767,0,0,0,4.437,6.824,19.453,19.453,0,0,0,12.148,6.528c3.622.466,7.268.777,10.913,1.04,8.468.611,16.952.634,25.44.582,4.677-.028,9.362.125,14.033.366a51.617,51.617,0,0,1,10.415,1.384c1.647.43,3.276.925,4.923,1.356a70.947,70.947,0,0,0,15.193,1.944,36.9,36.9,0,0,0,16.279-2.776,11.4,11.4,0,0,1,2.107-.565,24.95,24.95,0,0,0,8.613-3.412,6.081,6.081,0,0,0,2.982-6.34,12.848,12.848,0,0,0-.676-2.163c-.373-1.115-.285-1.362.772-1.93.938-.505,1.887-.992,2.83-1.489a88.181,88.181,0,0,0,11.968-7.375,18.29,18.29,0,0,0,7.6-13.555,10.724,10.724,0,0,0-2.35-8.271,6.166,6.166,0,0,1-.828-1.484,8.865,8.865,0,0,0-6.026-5.186,15.789,15.789,0,0,0-6.784-.6,6.007,6.007,0,0,1-1.166.076c-1.142-.037-1.425-.492-.868-1.433.29-.491.673-.93,1.012-1.393a40.058,40.058,0,0,0,5.48-9.528,7.541,7.541,0,0,0-.725-6.957,11.1,11.1,0,0,0-3.319-3.36,21.581,21.581,0,0,0-8.482-3.306,13.75,13.75,0,0,0-5.516.063c-1.515.354-3.046.652-4.545,1.06a32.874,32.874,0,0,0-3.855,1.269c-1.461.6-2.054.435-2.474-1.076a10.767,10.767,0,0,0-3.7-5.509c-1.19-.979-2.451-1.875-3.693-2.793a7.721,7.721,0,0,1-3.234-4.909,11.357,11.357,0,0,1,.113-4.663c.755-3.22,2.752-5.708,4.967-8.083a3.263,3.263,0,0,1,3.689-.984c1.474.491,2.962.956,4.4,1.542a14.205,14.205,0,0,1,7.037,5.76,6.463,6.463,0,0,0,1.669,1.758,1.357,1.357,0,0,0,2.31-.674,18.061,18.061,0,0,0,.629-2.48,27.42,27.42,0,0,1,7.967-14.291,19.882,19.882,0,0,1,3.37-2.471,6.208,6.208,0,0,1,4.072-.856,17.79,17.79,0,0,1,6.62,2.127,9.714,9.714,0,0,1,4.568,5.526,14.153,14.153,0,0,1,.19,8.275c-.307,1.147-.684,2.278-.937,3.436-.264,1.212.118,1.761,1.339,2.113a8.246,8.246,0,0,0,1.286.251,13.564,13.564,0,0,0,5.2-.489,24.068,24.068,0,0,1,4.3-.757c1.383-.109,1.939.575,1.857,1.925a5,5,0,0,1-.126.843,25.781,25.781,0,0,1-2.568,6.932,9.87,9.87,0,0,0-.942,2.074,8.024,8.024,0,0,0-.355,2.372c.026,1.229.7,1.7,1.925,1.488a12.281,12.281,0,0,0,1.408-.379c1.21-.365,2.4-.814,3.629-1.093a54.1,54.1,0,0,1,6.438-1.246,2.94,2.94,0,0,1,3.323,4.022,8.3,8.3,0,0,1-2.682,4.619,16.8,16.8,0,0,0-2.05,2.025c-1.04,1.115-1.211,1.989-.623,3.1a2.647,2.647,0,0,0,2.95,1.621,32.387,32.387,0,0,0,4.373-1.078c1.611-.536,3.15-1.27,4.733-1.888a18.362,18.362,0,0,1,6.257-1.316c5.71-.136,10.257,2.271,14.049,6.219a7.237,7.237,0,0,1,2.03,4.485,64.288,64.288,0,0,1,.032,13.208,24.414,24.414,0,0,1-6.475,13.89,10.751,10.751,0,0,1-6.215,3.477c-1.1.186-2.185.482-3.275.736-4.336,1.013-8.665,1.816-13.144.7a3.951,3.951,0,0,0-3.99,1.24,1.474,1.474,0,0,0,.481,2.565c.728.378,1.525.63,2.266.988,3.479,1.684,4.079,5.169,1.337,7.828a12.124,12.124,0,0,1-5.242,2.992,16.539,16.539,0,0,1-6.958.416c-3.321-.495-6.626-1.1-9.924-1.729a53.971,53.971,0,0,0-14.665-1.24,26.8,26.8,0,0,0-4.575.88c-1.251.331-1.617.956-1.57,2.228a5.936,5.936,0,0,0,.256,1.535,2.437,2.437,0,0,0,2.477,1.84,13.088,13.088,0,0,0,1.592-.155c2.374-.213,4.749-.591,7.123-.593,3.751,0,7.5.253,11.255.385,4.044.142,8.092.451,12.131.358,5.777-.132,10.178-2.672,12.7-7.875a17.914,17.914,0,0,0,.993-3.115c.493-1.8,1.267-2.348,3.144-2.208a16.559,16.559,0,0,0,2.479.06c1.651-.126,3.3-.312,4.943-.517,2.041-.253,4.126-.54,5.776-1.821a54.936,54.936,0,0,0,8.89-8.008,15.2,15.2,0,0,0,3.283-6.437c.506-2.269,1.082-4.523,1.533-6.8a5.459,5.459,0,0,0-.022-2.387C572.341,4601.5,570.989,4596.506,569.529,4591.542Zm-144.186-56.917a6.235,6.235,0,0,1-2.952,5.317A8.944,8.944,0,0,1,425.344,4534.625Zm-278.694-65.573c-1.624-.844-1.74-1.9-.452-3.2a11.228,11.228,0,0,1,1.957-1.467c.019.214.036.428.054.642a.922.922,0,0,1-.586,1.106,1.73,1.73,0,0,0-.809,2.478,3.758,3.758,0,0,0,1.148,1.083Q147.3,4469.387,146.649,4469.052ZM37.918,4613.446a14.372,14.372,0,0,0-3.995,8.519,3.052,3.052,0,0,1-2.166,2.794c-3.463,1.125-6.9,2.39-10.447,3.2A12.492,12.492,0,0,1,6.4,4618.936c-2.479-9.182.659-20.324,11.616-25.708,2.04-1,4.211-1.749,6.293-2.674a7.444,7.444,0,0,0,2.074-1.283,2.084,2.084,0,0,0-.27-3.515c-.31-.229-.651-.418-.968-.638a5.077,5.077,0,0,1-2.2-3.247,8.3,8.3,0,0,1,1.126-6.557c.242-.355.5-.7.778-1.033,2.445-2.933,4.4-3.467,8.107-2.338a11.607,11.607,0,0,1,4.878,2.663c1.947-1.205,2.293-2.591.908-4.141a9.971,9.971,0,0,1-2.407-8.356,29.951,29.951,0,0,1,3.848-11.556,24.37,24.37,0,0,1,5.38-6.328,17.763,17.763,0,0,1,15.462-3.719c4.412.854,6.818,3.86,6.822,8.346,0,2.985-.176,5.971-.315,8.955-.237,5.067-.5,10.135-.771,15.2a10.28,10.28,0,0,1-.243,1.825,3.7,3.7,0,0,1-2.319,2.748,7.773,7.773,0,0,0-4.87,5.806,32.482,32.482,0,0,0-.662,11.165,65.294,65.294,0,0,0,2.612,12.087c.129.439.238.884.37,1.374a1.661,1.661,0,0,1-.506.036c-4.041-1.311-8.174-1.071-12.314-.692-1.408.129-2.812.286-4.221.4a2.915,2.915,0,0,0-1.947.85C41.079,4610.22,39.434,4611.778,37.918,4613.446Zm107.995-29.058a75.682,75.682,0,0,1-5.576,10.629,8.161,8.161,0,0,0-.912,2.078,1.887,1.887,0,0,0,.954,2.191,1.393,1.393,0,0,0,1.961-.209c.2-.2.358-.449.539-.672a31.675,31.675,0,0,1,8.67-7.335,6.633,6.633,0,0,1,4.4-.642,1.814,1.814,0,0,1,1.735,1.942,1.053,1.053,0,0,1,0,.284c-.589,2.632-.937,5.335-2.328,7.735-.845,1.458-.811,2.058.3,3.476a2.421,2.421,0,0,0,3.2.935,20.072,20.072,0,0,0,4.106-1.812,29.088,29.088,0,0,1,11.657-3.922,6.568,6.568,0,0,1,7.679,6.488,10.747,10.747,0,0,1-1.852,6.621c-1.22,1.821-2.647,3.509-4,5.248-.381.491-.848.923-1.194,1.435a1.957,1.957,0,0,0,.024,2.622,1.893,1.893,0,0,0,2.407.3,24.584,24.584,0,0,1,8.524-1.792,26.163,26.163,0,0,1,15.6,3.9,50.855,50.855,0,0,1,5.349,3.948,10.15,10.15,0,0,1,3.788,9.126,22.3,22.3,0,0,1-2.206,8.354c-2.839,5.69-7.644,8.853-13.906,9.988-2.385.432-4.835.522-7.256.768a40.594,40.594,0,0,1-17.369-4.061c-6.215-3.055-12.865-4.911-19.57-6.616-8.87-2.253-17.851-4.011-26.84-5.732a42.7,42.7,0,0,0-14.124-.106c-6.8.969-13.573,2.1-20.368,3.092q-8.242,1.2-16.511,2.22a23.512,23.512,0,0,1-10.232-1.157,28.115,28.115,0,0,1-17.51-15.327,7.936,7.936,0,0,1,.089-7.272c3.874-7.75,14.582-10.855,21.754-6.549.332.2.66.4,1,.594a2.3,2.3,0,0,0,3.48-1.113,2.5,2.5,0,0,0,.026-1.361,1.85,1.85,0,0,0-.54-.827c-3.631-3.711-5.393-8.29-6.428-13.187-.529-2.505-1-5.027-1.351-7.562a18.381,18.381,0,0,1-.065-4.25c.573-5.858,8.9-11.5,16.023-7.383a8.372,8.372,0,0,1,3.368,3.474c1.637,3.23,3.229,6.482,4.818,9.735.731,1.5,1.4,3.026,2.118,4.53.6,1.247,1.015,1.492,1.946,1.231a1.825,1.825,0,0,0,1.468-2.264c-.862-5.927-.7-11.916-1.156-17.868a12.681,12.681,0,0,1,3-8.994c.8-1.015,1.656-1.992,2.545-2.934,1.237-1.312,2.044-1.169,2.777.5a17.5,17.5,0,0,1,1.6,7.181c-.014,1.8-.231,3.592-.358,5.389-.107,1.514-.232,3.027-.318,4.542a2.731,2.731,0,0,0,2.687,2.937,1.873,1.873,0,0,0,1.131-.475,1.634,1.634,0,0,0,.4-.891c1.092-5.083,3.588-9.609,6.005-14.151a49.507,49.507,0,0,1,14.014-16.747,22.2,22.2,0,0,1,9.664-4.487c4.045-.678,7.391.34,10,3.553a20.721,20.721,0,0,1,4.514,11.079C150.012,4571.647,148.579,4578.121,145.913,4584.388ZM198.531,4434.8c.066-.185.489-.344.752-.351,2.6-.08,5.208-.117,7.811-.18q4.2-.1,8.394-.234a3.482,3.482,0,0,0,1.066-.207,1.428,1.428,0,0,0,.975-1.506,1.463,1.463,0,0,0-1.264-1.291,3.694,3.694,0,0,0-.634-.039c-2.053-1.248-5.3-1.229-6.86.139l-8.126.167c-.139,0-.278-.021-.593-.047a12.307,12.307,0,0,1,3.337-3.248c.317-.194.637-.382.961-.565q1.71-.07,3.424-.252c2.025-.216,4.05-.352,6.074-.419a15.745,15.745,0,0,1,2.627,1.713,7.28,7.28,0,0,1,1.686,1.932,14.87,14.87,0,0,1,1.894,6.18,14.676,14.676,0,0,0-7.261.658,11.872,11.872,0,0,0,7.326.2c0,.054.009.106.012.16.023.457-.134.6-.62.616q-10.293.263-20.584.563c-.263.007-.528,0-.856,0A9.634,9.634,0,0,1,198.531,4434.8Zm-24.856,17.442c-.919-.62-1.845-1.228-2.769-1.839a18.631,18.631,0,0,1,2.327-.153A68.936,68.936,0,0,1,191,4452.514a38.386,38.386,0,0,1,9.87,4.213,8.232,8.232,0,0,1,.9.638,4.118,4.118,0,0,1-1.136,1.1c-2.424,1.4-4.961,2.621-7.475,3.872a1.478,1.478,0,0,1-1.075.044c-1.19-.485-2.373-1-3.507-1.594A157.644,157.644,0,0,1,173.675,4452.246Zm15.775,13.233c.318.29.47.439.634.575a.8.8,0,0,0,1.248,0,3.483,3.483,0,0,1,2.581-.743,6.067,6.067,0,0,0,2.238-.435,28.926,28.926,0,0,0,2.845-1.431,17.876,17.876,0,0,0,3.468-1.926c.379-.329.753-.659,1.128-.986.005.055.018.105.022.162a7.073,7.073,0,0,1-3.51,7.026,75.524,75.524,0,0,1-9.443,4.816A12.543,12.543,0,0,1,189.45,4465.479Zm6.44,28.9a.423.423,0,0,1,.232.237c.149.579.276,1.164.441,1.881l-2.626-1.283A1.858,1.858,0,0,1,195.89,4494.379Zm26.828,6.788a24.18,24.18,0,0,1-4.43.859,76.015,76.015,0,0,1-14.288-.569c-3.043-.378-3.54-.762-3.969-4.321a34.443,34.443,0,0,0-1.162-5.681,50.959,50.959,0,0,1-1.66-9.125c-.245-2.3-.585-4.584-.914-6.872-.114-.794-.294-1.579-.453-2.366a57.6,57.6,0,0,0,7.036-4.153,7.814,7.814,0,0,0,3.53-7.623,10.537,10.537,0,0,0-.484-2.505c.049-.029.093-.062.143-.09.344-.188.418-.842.679-1.421a15.131,15.131,0,0,0,8.663-2.006,17.818,17.818,0,0,0,1.9,1.843,11.32,11.32,0,0,1,3.81,4.761,41.233,41.233,0,0,1,3.419,16.23,88.337,88.337,0,0,1-1.877,17.979c-.223,1.178-.1,1.58.806,2.192v.889c.2,0,.379,0,.564,0A1.964,1.964,0,0,1,222.718,4501.167Zm128.339,94.864c-.738.342-1.273.208-1.586-.387-1.461-2.785-3.012-5.533-3.371-8.731a14.065,14.065,0,0,1,.29-5.366,21.343,21.343,0,0,0,.242-8.749c-.349-2.533-.571-5.084-.792-7.632a10.215,10.215,0,0,1,.182-1.9l.321-.011c.136.432.288.858.4,1.295a101.005,101.005,0,0,1,2.608,15.13c.589,5.278,1.136,10.561,1.7,15.841C351.07,4595.666,351.057,4595.807,351.057,4596.031Zm38.988-46.232a4.22,4.22,0,0,1,.838-1.35c-.073.384-.149.768-.218,1.151-1.273,7.035-2.51,14.076-3.831,21.1-.883,4.7-1.885,9.376-2.843,14.06-.093.455-.26.9-.4,1.373-.95-.236-1.081-.771-.937-1.533q.528-2.792.972-5.6c.788-4.957,1.5-9.925,2.347-14.871A64.171,64.171,0,0,1,390.046,4549.8Zm-16.876,58.25c1.2-6.771,2.479-13.529,3.626-20.308a133.21,133.21,0,0,1,4.9-18.867c.482-1.486.949-2.979,1.478-4.641l.8.263c-.494,3.995-.882,7.906-1.5,11.782a22.987,22.987,0,0,1-1.563,4.858,5.259,5.259,0,0,0-.394,3.045,99.657,99.657,0,0,1,1.932,20.217,2.426,2.426,0,0,0,.792,1.9,5.261,5.261,0,0,1,1.536,3.455q.238,2.972.364,5.952a.95.95,0,0,1-.446.772,4.179,4.179,0,0,1-1.953.261,14.2,14.2,0,0,0-7.5.1c-1.286.39-1.926-.065-2.107-1.414A23.872,23.872,0,0,1,373.17,4608.049Zm91.138-32.556a6.847,6.847,0,0,1,.78-.1,9.563,9.563,0,0,1,.307,5.206c-.388,1.844-1.073,3.629-1.647,5.435-.115.359-.356.682-.461,1.042a1.386,1.386,0,0,0,1.7,1.784,5.35,5.35,0,0,0,2.658-1.4,28.5,28.5,0,0,1,17.224-8.258,11.418,11.418,0,0,1,7.636,1.913,5.252,5.252,0,0,1,2.33,4.529,20.691,20.691,0,0,1-6.008,15.683c-.994,1.043-2.031,2.046-3.04,3.077a11.209,11.209,0,0,0-.856.971,1.39,1.39,0,0,0-.215,1.6,1.6,1.6,0,0,0,1.535.908,6.288,6.288,0,0,0,1.161-.126c1.33-.292,2.679-.531,3.975-.934a18.54,18.54,0,0,1,9.4-.267c4.37.9,6.535,3.795,5.968,8.224-1.248,9.748-6.3,16.906-15.754,20.753a81.847,81.847,0,0,1-8.361,2.528,17.781,17.781,0,0,1-1.88.24,2.063,2.063,0,0,0-1.852,1.581,1.836,1.836,0,0,0,1.714,2.431,11.586,11.586,0,0,1,1.873.243,1.919,1.919,0,0,1,1.222,2.941,6.689,6.689,0,0,1-.956,1.248,13.924,13.924,0,0,1-8.822,4.31c-2.219.284-4.462.453-6.7.531a150.468,150.468,0,0,1-27.116-1.532,83.3,83.3,0,0,0-14.438-.835,119.481,119.481,0,0,1-16.929-.753,190.157,190.157,0,0,0-25.412-.843,26.417,26.417,0,0,1-5.38-.277,15.3,15.3,0,0,1-12.007-11.68,11.147,11.147,0,0,1-.094-3.674c.315-2.056.829-4.087,1.35-6.106.807-3.127,3.027-4.807,6.206-5.237,3.523-.479,7.066-.819,10.605-1.171a3.845,3.845,0,0,1,3.827,1.564c.625.879,1.078.882,1.956.241a3.609,3.609,0,0,0,1.731-3.4c-.2-2.023-.35-4.051-.579-6.07a10.816,10.816,0,0,1,1.459-6.843,2.334,2.334,0,0,1,3.342-1.065,9.146,9.146,0,0,1,4.267,3.556c.647,1,1.162,2.078,1.72,3.129.521.982.937,1.276,1.618,1.092a2.163,2.163,0,0,0,1.685-1.907,4.621,4.621,0,0,0-.121-.843,59.694,59.694,0,0,1-1.38-15.968,40.91,40.91,0,0,1,4.889-17.418,23.58,23.58,0,0,1,11.562-10.259,13.8,13.8,0,0,1,12.9.625c.422.236.833.492,1.252.733a10.952,10.952,0,0,1,5.834,9c.315,3.637.678,7.27,1,10.9.065.724.05,1.456.948,1.728a1.851,1.851,0,0,0,2.1-.937,7.188,7.188,0,0,0,.707-1.847,13.292,13.292,0,0,1,1.8-4.473,5.776,5.776,0,0,1,1.035-.9,4.737,4.737,0,0,1,.819,1.064,14.044,14.044,0,0,1,.582,2.185c.248,1.185.46,1.33,1.655,1.208a5.787,5.787,0,0,0,4.622-2.813A14.343,14.343,0,0,1,464.308,4575.494Z" transform="translate(-22.858 -138.136)" fill="#000"/>
    <path id="Path_508" data-name="Path 508" d="M-24.279,4289.5a24.824,24.824,0,0,0,6.93,12.021c5.714,5.6,12.237,9.295,20.391,9.84a56.033,56.033,0,0,0,22.426-2.643,17.083,17.083,0,0,0,6.05-3.627c1.6-1.473,3.3-2.834,5.005-4.187.989-.785,1.585-.678,2.426.3a19.791,19.791,0,0,0,1.393,1.79c3.424,3.154,7.314,5.11,12.138,4.994s9.076-1.4,12.337-5.117a19,19,0,0,0,2.656-3.671,44.351,44.351,0,0,0,2.331-5.63,5,5,0,0,1,2.425-2.987,200,200,0,0,0,17.161-10.348,11.649,11.649,0,0,1,1.726-.98c.857-.383,1.335-.266,1.786.563.534.981.928,2.039,1.4,3.1-2.8,2.031-4.5,4.765-6.269,7.472a125.723,125.723,0,0,1-7.3,10.494,84.749,84.749,0,0,0-7.461,11.408c-1.8,3.14-.081,5.674,2.553,7.271,1.087.66,1.994.126,2.362-1.137.106-.362.149-.745.274-1.1.194-.552.54-.891,1.219-.642.026.273.057.553.078.834.311,4.208.525,8.425.947,12.622,1.165,11.556,2.407,23.1,3.641,34.652a56.246,56.246,0,0,0,1.634,9.8,24.125,24.125,0,0,1,.6,3.354c.359,2.535.6,5.087,1.039,7.606,1.054,6.07,2.183,12.126,3.3,18.185.319,1.723.637,3.452,1.095,5.141.423,1.56,1.211,1.819,2.508.9.924-.657,1.754-1.446,2.635-2.165a2.76,2.76,0,0,0,.892-3.426c-.464-1.241-.88-2.5-1.24-3.78-1.067-3.786-2.016-7.605-3.154-11.368a155.5,155.5,0,0,1-4.807-20.322c-1.023-6.363-1.915-12.748-2.755-19.138-.592-4.511-1.1-9.039-1.464-13.573-.37-4.58-.515-9.167-1.114-13.74-.589-4.5-.639-9.074-.938-13.615a4.084,4.084,0,0,1,.62-2.292c1.445-2.611,2.9-5.218,4.289-7.861a42.626,42.626,0,0,1,6.449-9.33c2.421-2.607,3.144-2.794,6.438-1.417,1.79.749,3.572,1.539,5.413,2.143a18.553,18.553,0,0,0,15.132-1.22c3.806-2.031,7.694-3.9,10.875-6.92,1.027-.976,1.761-.876,2.89.054.146.121.28.256.422.381a5.105,5.105,0,0,0,4.493,1.213,12.93,12.93,0,0,0,6.025-3.032,10.4,10.4,0,0,1,6.758-2.57,4.619,4.619,0,0,0,3.935-1.477,16.159,16.159,0,0,1,2.62-1.924,4.239,4.239,0,0,0,1.773-2.978,59.218,59.218,0,0,0,.382-7.233A13.282,13.282,0,0,0,150,4251.542c-1.35-.233-2.732-.282-4.1-.427-.78-.083-1.556-.189-2.463-.3.331-.926.588-1.686.873-2.433a24.082,24.082,0,0,0,.981-2.512,12.371,12.371,0,0,0,.328-2.65c.033-.981-.055-1.967-.1-2.951a55.088,55.088,0,0,0-.276-5.659,41.46,41.46,0,0,0-4.333-12.284,8.749,8.749,0,0,0-4.5-4.186,19.061,19.061,0,0,0-4.448-1.412,33.988,33.988,0,0,0-16.395,1.549,19.972,19.972,0,0,0-11.479,9.647c-.091.167-.174.338-.277.5-.643.988-.912.983-1.923.377a30.672,30.672,0,0,0-4.113-2.2,6.807,6.807,0,0,0-5.916.342,15.293,15.293,0,0,0-4.929,4.01,9.455,9.455,0,0,0-2.05,5.361c-.025.365-.075.73-.124,1.205-1.059-.1-2.037-.235-3.019-.288a7.824,7.824,0,0,0-8.227,5.465,5.734,5.734,0,0,0,.517,5.316,21.577,21.577,0,0,0,1.872,2.314c1.017,1.166,1.053,1.618.023,2.817-3.717,4.329-4.845,9.506-4.578,14.991.235,4.838,3.076,7.962,7.79,9.106,1.1.267,2.244.346,3.368.507a2.735,2.735,0,0,1,1.935.8l-14.816,8.823c-.224-.689-.416-1.372-.671-2.031a12.029,12.029,0,0,0-.876-1.935,2.131,2.131,0,0,0-3.251-.87,2.018,2.018,0,0,0-1.042,2.962,8.82,8.82,0,0,1-.419,7.558,34.527,34.527,0,0,1-1.878,3.345,8.723,8.723,0,0,1-8.811,4.312c-5.09-.594-9.554-2.46-12.419-7.018a3.686,3.686,0,0,0-6.365.46c-1.942,4.52-5.618,7.133-10.459,8.115a112.874,112.874,0,0,1-15.742,2.271,33.5,33.5,0,0,1-5.815-.049,14.755,14.755,0,0,1-9.07-4.9,35.442,35.442,0,0,1-5.066-7.19,44.6,44.6,0,0,1-6.181-20.638c-.11-3.6.083-7.2.216-10.8a19.5,19.5,0,0,1,1.407-6.065,48.177,48.177,0,0,0,1.575-5.456c.835-3.453,1.661-6.911,2.341-10.4a12.188,12.188,0,0,0-.149-3.362,1.21,1.21,0,0,0-.49-.666,3.324,3.324,0,0,0-4.637.688c-.9,1.216-1.872,2.381-2.86,3.526a6.511,6.511,0,0,1-5.139,2.325c-1.382.006-2.032-.58-1.9-1.972a4.01,4.01,0,0,1,.481-1.461c1.249-2.341,2.574-4.641,3.8-6.995a38.254,38.254,0,0,1,5.265-8.078,5.97,5.97,0,0,0,1.144-2.093,2.6,2.6,0,0,0-.231-2.706c-.758-.833-1.772-.542-2.67-.274a48.028,48.028,0,0,0-4.977,1.687c-2.045.867-4.056,1.835-6.005,2.9a11.653,11.653,0,0,1-13.344-.813,13.031,13.031,0,0,1-5.571-9.079c-.526-3.941-.826-7.921-1.034-11.895a74.274,74.274,0,0,1,1.3-19.251c2.339-11.115,8.732-18.823,19.434-22.83a56.392,56.392,0,0,1,14.3-2.918,14.911,14.911,0,0,1,8.431,1.18,12.472,12.472,0,0,0,3.111.964,2.16,2.16,0,0,0,2.525-1.584c.33-.9.149-1.247-.944-2.095-1.947-1.511-3.924-2.989-5.8-4.588-2.075-1.773-2.31-3.176-1.176-5.679a30.257,30.257,0,0,1,6.108-8.679,16.887,16.887,0,0,1,11.544-5.436,10.523,10.523,0,0,0,2.624-.58,2.1,2.1,0,0,0,1.435-1.95c.078-.877-.663-1.171-1.318-1.465-.432-.195-.877-.359-1.307-.559-1.847-.857-3.717-1.671-5.529-2.6a10.6,10.6,0,0,1-5.684-7.264,23.745,23.745,0,0,1,.141-12.913,51.242,51.242,0,0,0,1.433-6.074,9.614,9.614,0,0,1,2.319-4.8,14.576,14.576,0,0,1,6.5-4.181,7.475,7.475,0,0,1,2.792-.313,6.955,6.955,0,0,1,5.472,3.623c.551.882.988,1.836,1.506,2.74a6.4,6.4,0,0,0,2.336,2.5,5.1,5.1,0,0,0,.563-.884c.292-.8.559-1.609.788-2.427a46.786,46.786,0,0,1,7.2-14.9,15.988,15.988,0,0,1,7.805-6.155q5.248-1.774,10.569-3.333c1.9-.555,3.869-.919,5.821-1.294,3.695-.71,7.218.116,10.773,1.1a95.8,95.8,0,0,1,25.9,11.1,47.667,47.667,0,0,1,17.935,19.736,25.934,25.934,0,0,1,2.747,14.612,58.911,58.911,0,0,1-1.393,7.108q-2.175,8.759-4.523,17.475a13.753,13.753,0,0,1-3.787,6.579c-1.738,1.633-.777,3.917.874,4.9a1.127,1.127,0,0,0,1.538-.213c.323-.346.606-.733.95-1.056,1.9-1.783,3.823-3.539,5.714-5.329a38.049,38.049,0,0,1,9.071-6.061,1.549,1.549,0,0,1,2.177.437c-.127.348-.234.705-.384,1.042-1.552,3.512-3.086,7.031-4.682,10.522-.489,1.07-1.182,2.044-1.721,3.094a7.765,7.765,0,0,0-.9,2.209,2.173,2.173,0,0,0,2.951,2.562,25.294,25.294,0,0,0,2.531-.929,35.415,35.415,0,0,1,21.733-1.937,51.563,51.563,0,0,1,20.161,9.5,58.625,58.625,0,0,1,15.157,16.409,20.222,20.222,0,0,1,2.52,15.589,21.565,21.565,0,0,1-9.887,14.171,32.421,32.421,0,0,1-7.555,3.583,6.015,6.015,0,0,0-1.062.4,1.475,1.475,0,0,0-.666,2.354,5.71,5.71,0,0,0,2.738,2.4c.783.335,1.594.6,2.393.9a8.161,8.161,0,0,1,4.808,4.377,6.045,6.045,0,0,1-.177,6c-2.39,3.75-5.918,5.9-10.751,4.8a11.578,11.578,0,0,0-2.237-.369c-1.55-.039-2.927,1.351-2.548,2.729.445,1.62.946,3.322,2.942,3.854a3.163,3.163,0,0,1,2.078,1.824c1.377,3.046,1.888,6.151.509,9.354a7.974,7.974,0,0,0-.446,1.2.981.981,0,0,0,.7,1.342c2.012.483,3.983.487,5.625-1.006a4.973,4.973,0,0,0,1.451-4.426,17.436,17.436,0,0,0-2.316-6.669c-.38-.695-.771-1.383-1.147-2.057,1.629-.794,3.182-1.5,4.683-2.3,1.546-.825,3.038-1.75,4.557-2.627.287-.166.578-.327.877-.468a6.549,6.549,0,0,0,3.8-5.905,11.494,11.494,0,0,0-8.028-11.9c-.225-.073-.459-.123-.681-.2-1.31-.483-1.5-1.112-.448-2.011a48.8,48.8,0,0,1,4.189-3.166,26.561,26.561,0,0,0,7-6.8c4.535-6.551,5.851-13.61,2.962-21.178a39.42,39.42,0,0,0-7.329-12.1,93.184,93.184,0,0,0-11.147-10.123,60.853,60.853,0,0,0-27.16-12.663,26.009,26.009,0,0,0-12.109,0,13.041,13.041,0,0,1-2.536.272,5.241,5.241,0,0,1-1.031-.169c2.93-3.59,3.716-7.92,5.2-11.944.6-1.625-.352-2.931-1.446-4.06-.949-.979-2.058-.714-3.184-.37a24.7,24.7,0,0,1-2.744.728c-2.351.432-4.66.924-6.31,2.926a2.713,2.713,0,0,1-.263-2.4c.152-.5.365-.979.5-1.48a60.906,60.906,0,0,0,1.788-23.251c-.363-3.011-.62-6.035-1-9.044a12.134,12.134,0,0,0-.744-3.144,40.885,40.885,0,0,0-4.564-8.017A57.272,57.272,0,0,0,89.8,4072.875a65.373,65.373,0,0,0-41.222-8.936,33.572,33.572,0,0,0-23.461,13.325c-1.484,1.9-2.75,3.974-4.131,5.958-.917,1.316-1.371,1.458-2.7.615a10.283,10.283,0,0,0-9.919-.751c-1.23.495-2.475.959-3.738,1.358a12.026,12.026,0,0,0-5.643,3.678,36.247,36.247,0,0,0-2.656,3.511,44.149,44.149,0,0,0-6.206,15.927,15.288,15.288,0,0,0-.079,6.071c.97,4.906,2.5,9.545,6.289,13.305-.676.637-1.23,1.149-1.774,1.672-1.574,1.509-3.238,2.938-4.689,4.558A35.875,35.875,0,0,0-14,4138.237a13.555,13.555,0,0,0-1.623,9.877c.111.6.218,1.192.358,1.959-1.183.208-2.283.462-3.4.585a49.932,49.932,0,0,0-8.786,1.662c-4.452,1.325-8.667,3.081-11.882,6.632a5.206,5.206,0,0,1-.749.654,38.705,38.705,0,0,0-9.753,11.189c-1.182,1.943-2.2,3.989-3.442,5.891a20.421,20.421,0,0,0-2.712,6.52c-1.253,5.224-1.784,10.556-2.536,15.857a19.062,19.062,0,0,0,.232,6.5c1.339,6.68,4.607,12.4,8.879,17.587a10.345,10.345,0,0,0,5.323,3.387,23.379,23.379,0,0,0,12.494.346c.3-.08.6-.12.924-.181a2.153,2.153,0,0,1-.387,1.82,34.053,34.053,0,0,0-2.442,4.951c-.984,2.813-1.744,5.708-2.524,8.588a8.71,8.71,0,0,0-.232,2.532,3.458,3.458,0,0,0,1.371,2.857c2.568,1.777,5.493,2.6,8.058.269,1.257-1.141,2.933-1.557,4.557-2.308a9.089,9.089,0,0,1-.95,3.758c-.745,1.941-1.582,3.863-2.134,5.861a52.5,52.5,0,0,0-1.523,22.531c.542,3.364,1.4,6.676,2.123,10.01C-24.608,4288.217-24.438,4288.859-24.279,4289.5Zm107.006-18.517c-.568,0-1.137.01-1.705,0a3.213,3.213,0,0,1-3.469-2.557,11.647,11.647,0,0,1,.4-8.737,41.661,41.661,0,0,1,2.154-3.836c.41-.692.92-1.324,1.34-2.01,1.056-1.725.971-2.478-.435-3.884a20.6,20.6,0,0,0-1.677-1.536,2.53,2.53,0,0,1-.8-3.052c.8-2.539,3.824-4.567,6.515-3.614a6.747,6.747,0,0,0,1.241.3,3.9,3.9,0,0,0,4.67-4.162,5.49,5.49,0,0,1,3-5.521,4.667,4.667,0,0,1,4.631-.112,16.68,16.68,0,0,1,5.321,4.2c.208.258.391.539.618.779a1.294,1.294,0,0,0,1.665.335,1.486,1.486,0,0,0,.9-1.731.837.837,0,0,0-.033-.137c-.829-2.313-.058-4.25,1.358-6.078A29.556,29.556,0,0,1,118,4221.5c6.174-3.288,14.918-1.381,19.124,4.213a18.876,18.876,0,0,1,3.533,16.118,19.7,19.7,0,0,1-1.583,4.994,8.736,8.736,0,0,0-.717,4.728c.092,1.37.219,2.742.416,4.1.174,1.2.618,1.578,1.829,1.492a21.784,21.784,0,0,0,3.224-.5,14.58,14.58,0,0,1,9.3,1.075,7.983,7.983,0,0,1,4.949,9.226,17.384,17.384,0,0,1-.943,3.56c-1.228,3.1-3.845,4.267-7.027,3.242-.36-.117-.708-.272-1.067-.392-1.762-.586-2.985.041-3.786,1.742a10.748,10.748,0,0,1-1.743,2.708,3.812,3.812,0,0,1-4.683.873,6.82,6.82,0,0,1-3.186-2.725c-1.166-1.954-2.66-2.049-4.175-.3-.867,1-1.642,2.087-2.514,3.085a24.413,24.413,0,0,1-5.589,4.8,15.877,15.877,0,0,1-10.592,2.422c-1.032-.131-2.085-.141-3.1-.346a13.907,13.907,0,0,1-11.2-12.688c-.232-3.028-.407-3.218-3.414-3.908a7.43,7.43,0,0,0-4.877.272A20.4,20.4,0,0,1,82.727,4270.986Z" transform="translate(0 0)" fill="#000"/>
    <path id="Path_509" data-name="Path 509" d="M422.712,4362.683a6.1,6.1,0,0,0-3.714,6.406,20.5,20.5,0,0,0,.98,3.13,6.053,6.053,0,0,1-.728.1c-1.9.06-3.793.063-5.685.17-4.3.241-8.606.525-12.908.8-3.5.226-6.991.543-10.492.678-4.878.189-9.762.212-14.642.365-10.232.319-20.468.584-30.694,1.05-7.335.333-14.659.932-21.984,1.468a33.8,33.8,0,0,0-4.484.732,1.259,1.259,0,0,0-1.132,1.749,1.544,1.544,0,0,0,1.78,1.255,1.46,1.46,0,0,0,.414-.1,7.284,7.284,0,0,1,3.5-.261,21.318,21.318,0,0,0,2.547.023c3.88-.2,7.758-.442,11.639-.629,6.342-.305,12.687-.549,19.029-.876,4.967-.256,9.929-.6,14.894-.9,2.791-.168,5.582-.334,8.374-.476,4.495-.227,8.989-.519,13.487-.628,5.069-.123,10.146.029,15.214-.125,9.91-.3,19.811,0,29.714.253a29.644,29.644,0,0,1,7.662,1.436,2.124,2.124,0,0,1,.713,3.969,8.593,8.593,0,0,1-2.285,1.089c-2,.575-4.035,1.039-6.055,1.548a80.736,80.736,0,0,1-15.96,2.643,106.506,106.506,0,0,0-18.591,2.315,89.374,89.374,0,0,0-13.557,3.688,9.5,9.5,0,0,0-2.134,1.1,3.518,3.518,0,0,0-.016,5.726,5.061,5.061,0,0,0,2.769,1c1.417.119,2.834.241,4.253.322a110.409,110.409,0,0,0,11.347.539c5.269-.246,10.518-.118,15.775,0,8.486.193,16.969.231,25.441-.378,3.591-.258,7.17-.67,10.759-.974,1.715-.145,2.32.479,2.06,2.153a45.136,45.136,0,0,0-.108,8.939c.117,2.7.1,5.4.078,8.1-.018,2.224-.226,4.449-.171,6.668a26.1,26.1,0,0,0,.617,4.358,4.649,4.649,0,0,0,3.7,3.7,1.479,1.479,0,0,0,1.13-.314.944.944,0,0,0,.071-1.3,5.126,5.126,0,0,0-.754-.847,4.421,4.421,0,0,1-1.413-3.422c.05-4.979.014-9.958.015-14.938,0-.416.038-.833.06-1.29a4.974,4.974,0,0,1,2.645,1.073,7.017,7.017,0,0,0,1.8.759,1.021,1.021,0,0,0,.87-.507,1.986,1.986,0,0,0-.251-1.125c-.057-.144-.309-.2-.46-.317-1.278-.964-1.44-1.807-.574-3.165.279-.438.633-.828.944-1.246.992-1.336.895-2.127-.382-3.143-.26-.207-.548-.38-.787-.607a1.775,1.775,0,0,1-.235-2.65c.357-.5.69-1.013,1.078-1.484a3.124,3.124,0,0,1,.745-.467,5.918,5.918,0,0,1,.2.785q.6,6.3,1.194,12.6a65.394,65.394,0,0,0,2.951,15.752,7.659,7.659,0,0,1,.326,1.381,3.213,3.213,0,0,1-.879,2.879,4.548,4.548,0,0,1-.986.559c.691.625,1.058.98,1.451,1.306a2.265,2.265,0,0,0,3.873-1.8,16.66,16.66,0,0,0-.55-4.35,46.762,46.762,0,0,1-1.921-9.888c-.434-3.91-.721-7.836-1.135-11.749-.209-1.977-.548-3.941-.844-5.909-.264-1.765.115-2.318,1.87-2.66.092-.019.187-.032.281-.042,5.7-.586,11.393-1.3,17.107-1.72,4.817-.357,9.663-.316,14.49-.568q6.316-.33,12.617-.935c4.1-.394,8.226.257,12.332-.481a36.4,36.4,0,0,1,6.24-.207,35.179,35.179,0,0,0,8.059-.624,4.86,4.86,0,0,1,1.829.031,57.639,57.639,0,0,0,12.754.577c2.6-.167,5.2-.417,7.795-.606a172.32,172.32,0,0,1,23.3.093c8.086.51,16.166,1.158,24.236,1.882a117.967,117.967,0,0,1,20.54,3.675,19.067,19.067,0,0,1,5.984,2.557,17.475,17.475,0,0,1,2.386,2,2.172,2.172,0,0,1,.337,2.751,9.463,9.463,0,0,1-.675,1.084,12.423,12.423,0,0,1-6.73,4.941c-4.589,1.34-9.06,3.094-13.8,3.892-4.9.825-9.8,1.69-14.724,2.417-3.933.582-7.882,1.135-11.844,1.41-2.631.183-5.3-.211-7.948-.235-6.682-.06-13.364-.07-20.046-.071a14.847,14.847,0,0,0-5.784,1.32,3.7,3.7,0,0,0-.863.485,1.5,1.5,0,0,0,.152,2.6,1.972,1.972,0,0,0,1.476.111,9.244,9.244,0,0,1,4.2-.475c1.7.125,3.384.486,5.082.541,6.3.2,12.6.331,18.9.008a141.556,141.556,0,0,0,19.465-2.329q6.413-1.23,12.779-2.705c4.429-1.021,8.837-2.133,13.232-3.293a11.674,11.674,0,0,0,3.093-1.4c3.24-2.007,5.381-5.021,7.216-8.265a3.21,3.21,0,0,0-.374-3.731,12.987,12.987,0,0,0-4.065-3.5,35.033,35.033,0,0,0-9.18-3.76c-2.9-.667-5.86-1.1-8.8-1.58a222.665,222.665,0,0,0-24.859-2.695c-7.479-.368-14.958-.759-22.44-1.079-1.984-.085-3.979.007-5.964.113-3.784.2-7.566.706-11.345.665-9.486-.1-18.956.195-28.426.665-11.219.556-22.44,1.06-33.657,1.646-4.685.245-9.364.6-14.039.992-3.587.3-7.162.759-10.744,1.134-1.645.172-2.148-.255-2.295-1.9-.03-.33-.018-.664-.04-1-.137-2.128-.219-4.263-.432-6.385-.331-3.3-.964-6.591.209-9.853a1.618,1.618,0,0,0,.043-.282,4.869,4.869,0,0,0-1.723-4.711,11.228,11.228,0,0,0-4.616-2.43c-2.633-.673-4.471.368-5.3,2.944a7.691,7.691,0,0,0-.354,1.521,57.36,57.36,0,0,0,.049,12.338c.422,3.882.321,7.821.451,11.767-.369.052-.548.091-.73.1q-6.458.351-12.916.7a97.444,97.444,0,0,1-18.026-.328,33.061,33.061,0,0,0-9.072-.223c-7.12,1.038-14.274.86-21.428.641a38.761,38.761,0,0,1-4.193-.59,4.406,4.406,0,0,1,2.512-1.667c2.193-.592,4.378-1.249,6.607-1.663,3.4-.631,6.844-1,10.245-1.622,7.364-1.337,14.712-2.764,22.069-4.141,3.957-.742,7.922-1.439,11.876-2.2a4.25,4.25,0,0,0,1.81-.74,10.444,10.444,0,0,0,3.382-4.661,3.311,3.311,0,0,0-.661-3.454,7.222,7.222,0,0,0-2.917-2.208,43.114,43.114,0,0,0-4.438-1.476c-3.377-.822-6.854-.858-10.3-1.139a36.339,36.339,0,0,1-6.342-.6,6.093,6.093,0,0,1-4.1-3.635,2.7,2.7,0,0,1,1.688-3.773,3.763,3.763,0,0,1,3.41.373c.857.551,1.657,1.192,2.478,1.789.049-.045.1-.07.115-.109.093-.268.174-.54.264-.809a22.6,22.6,0,0,1,4.523-7.986,13.918,13.918,0,0,1,6.64-4.211,4.031,4.031,0,0,1,5.337,3.082,14.34,14.34,0,0,1,.088,3.367,6.265,6.265,0,0,1-.248,1.165c.749,0,1.406-.048,2.054.009a3.057,3.057,0,0,1,2.946,3.942,4.1,4.1,0,0,1-1.372,2.269c-.249.23-.494.463-.852.8,3.038-.39,4.8-1.739,5.586-4.151a4.191,4.191,0,0,0-3.6-5.7c-.415-.057-.833-.087-1.323-.137-.141-.577-.241-1.132-.412-1.664a17.508,17.508,0,0,0-.955-2.665,6.138,6.138,0,0,0-6.841-3.47,14.935,14.935,0,0,0-7.971,3.815c-2.153,2.15-4.788,3.93-5.858,6.98A10.951,10.951,0,0,0,422.712,4362.683Zm42.09,45.86c-.456.584-.965,1.127-1.449,1.688l-.355-.206v-5.1a2.451,2.451,0,0,1,.611.007C466.049,4405.659,466.351,4406.564,464.8,4408.543Zm-1.88-13.134q.117-9.946.255-19.89a8.657,8.657,0,0,1,.33-2.09,1.479,1.479,0,0,1,1.4-1.215,1.623,1.623,0,0,1,1.645.9,4.82,4.82,0,0,1,.577,1.731c.244,3.3.435,6.613.606,9.921a15.5,15.5,0,0,1-.137,2.124c-.145,1.684-.761,3.019-2.668,3.371,3.856,3.111,2.832,3.533,3.279,6.314-.186,0-.354.007-.521,0-1.533-.074-2.006.23-2.6,1.634a7.641,7.641,0,0,1-1.481,2.974,2.8,2.8,0,0,1-.674-2.078C462.88,4397.873,462.907,4396.64,462.922,4395.409Z" transform="translate(-136.929 -117.095)" fill="#000"/>
    <path id="Path_510" data-name="Path 510" d="M173.106,4257.438a17.945,17.945,0,0,1-7.788,4.239,28.439,28.439,0,0,1-7.876.964c-.635-.008-1.269.033-1.535.751a1.539,1.539,0,0,0,.481,1.808,4.326,4.326,0,0,0,1.863.927,25.037,25.037,0,0,0,10.165-.222c5.936-1.5,10.371-4.829,12.491-10.732a15.265,15.265,0,0,0-.431-12.307,9.756,9.756,0,0,0-10.443-5.5c-.751.1-1.5.255-2.249.335-1.116.117-2.237.189-3.524.293.152-.9.244-1.594.386-2.273a7.1,7.1,0,0,0-.861-4.933,3.422,3.422,0,0,0-2.613-1.958,4.923,4.923,0,0,1-3.773-2.931c-.25-.509-.456-1.041-.658-1.571-.821-2.155-1.868-2.712-4.078-2.092a8.136,8.136,0,0,0-1.414.65c-.422.213-.814.494-1.249.673a1.729,1.729,0,0,1-2.4-.843,5.469,5.469,0,0,1-.449-1.77c-.11-.939-.063-1.9-.194-2.834a5.1,5.1,0,0,0-3.8-4.493,9.539,9.539,0,0,0-6.934.427,10.449,10.449,0,0,0-4.262,3.653c-1.111,1.586-2.3,3.121-3.523,4.625a10.8,10.8,0,0,0-2.435,5.069,18.77,18.77,0,0,0-.19,3.54c.064,2.348-.178,2.7-2.426,3.193a7.327,7.327,0,0,0-1.61.54,4.9,4.9,0,0,0-2.7,3.3,7.28,7.28,0,0,0,3.082,7.447c.273-.222.572-.448.854-.694,1.222-1.07,1.2-1.349.183-2.688a6.734,6.734,0,0,1-.986-2.013c-.286-.9.225-1.775,1.276-2.464a1.644,1.644,0,0,1,2.208.195,10.371,10.371,0,0,1,1.221,1.373,1.91,1.91,0,0,0,1.825.914c.125-.274.261-.519.351-.778a6.754,6.754,0,0,0-.17-3.919,14.509,14.509,0,0,1,.411-8.266,12.3,12.3,0,0,1,11.5-8.458c2.039-.04,3.007.722,3.282,2.736a12.328,12.328,0,0,1,.078,2.969,37.98,37.98,0,0,1-.716,3.764c-.317,1.5.042,2.123,1.525,2.473,1.835.433,3.452.246,4.657-1.478a5.983,5.983,0,0,1,3.577-2.515,1.917,1.917,0,0,1,.139,2,9.19,9.19,0,0,0-.519,2.191,2.165,2.165,0,0,0,2.376,2.53,11.742,11.742,0,0,0,2.475-.493,13.471,13.471,0,0,1,1.905-.509c1.112-.092,1.566.478,1.387,1.571a4.577,4.577,0,0,1-.165.691,14.635,14.635,0,0,1-3.371,6.019,1.427,1.427,0,0,0,.261,2.479,3.4,3.4,0,0,0,3.627.4,14.686,14.686,0,0,1,4.612-1.357c.7-.116,1.405-.223,2.1-.371,3.444-.734,6.13.664,7.3,3.974a12,12,0,0,1-.464,9.407A8.211,8.211,0,0,1,173.106,4257.438Z" transform="translate(-69.255 -60.929)" fill="#000"/>
    <path id="Path_511" data-name="Path 511" d="M98.678,4338.838a8.254,8.254,0,0,1-3.27,5.91c-1.805,1.453-3.5,3.052-5.209,4.617a1.287,1.287,0,0,0-.124,2,1.639,1.639,0,0,0,2.027.58,10.47,10.47,0,0,0,2.553-1.213,22.751,22.751,0,0,0,6.6-7.35,11.323,11.323,0,0,0-.692-12.485,7.037,7.037,0,0,0-8.15-3.129c-.69.165-1.358.421-2.049.583a1.536,1.536,0,0,1-2.123-1.272c-.127-.456-.187-.929-.288-1.392A22.078,22.078,0,0,0,84.6,4317.6a5.75,5.75,0,0,0-9.469-.358,6.928,6.928,0,0,0-1.768,4.541,3.68,3.68,0,0,1-.692,2.491c-.816-.751-1.6-1.369-2.255-2.1a8.044,8.044,0,0,0-4.2-2.515,33.6,33.6,0,0,0-3.634-.636c-1.89-.235-2.791.318-3.532,2.107a10.32,10.32,0,0,0-.212,7.634c.947,2.668,1.907,5.332,2.914,8.144-.349.167-.8.4-1.263.6-1.254.559-2.525,1.083-3.768,1.665a12.719,12.719,0,0,0-5.9,6.13,5.641,5.641,0,0,0-.459,4.414,11.144,11.144,0,0,0,5.372,6.7,8.432,8.432,0,0,0,7.72.156,2.917,2.917,0,0,0-2.179-1.064c-.612-.061-1.233-.012-1.846-.06a7.241,7.241,0,0,1-5.066-2.682,4.021,4.021,0,0,1,.46-.6,2.008,2.008,0,0,0,.592-2.437c-.09-.27-.182-.54-.257-.813a5.543,5.543,0,0,1,2.272-6.366,11.69,11.69,0,0,1,7.068-2.216q1.916.09,3.836.132a1.667,1.667,0,0,0,1.88-1.173c.274-.779.108-1.239-.76-1.926-1.189-.941-2.411-1.84-3.59-2.794-3.02-2.443-4.152-5.778-4.388-9.508a2.273,2.273,0,0,1,1.623-2.4,3.956,3.956,0,0,1,4.044.488,21.38,21.38,0,0,1,2.974,2.823c1.314,1.493,2.5,3.1,3.762,4.636.847,1.028,1.87.885,2.4-.348a3.94,3.94,0,0,0,.232-1.381,8.153,8.153,0,0,0-.154-1.124c-.388-3.6,1.556-6.1,3.98-8.369a.554.554,0,0,1,.123-.072,1.294,1.294,0,0,1,1.878.355,4.01,4.01,0,0,1,.592,1.123,13.792,13.792,0,0,1,.861,5.721,31.887,31.887,0,0,1-.455,3.951,3.959,3.959,0,0,0,1.6,4.116,1.755,1.755,0,0,0,2.556.2c.978-.579,1.968-1.137,2.933-1.736a5.207,5.207,0,0,1,4.767-.465,21.159,21.159,0,0,1,2.089.891,2.624,2.624,0,0,1,1.686,3.093C98.9,4337.337,98.746,4338.084,98.678,4338.838Z" transform="translate(-44.298 -102.364)" fill="#000"/>
    <path id="Path_512" data-name="Path 512" d="M354.3,4350.445a1.13,1.13,0,0,0,1.267-.908,9.5,9.5,0,0,0,.209-1.4,4.93,4.93,0,0,1,2.265-3.616,1.119,1.119,0,0,1,1.816.358c.3.423.482.922.739,1.374a1.9,1.9,0,0,0,2.344,1.12,3.666,3.666,0,0,0,3.386-2.964,8.14,8.14,0,0,1,.3-.949,26.667,26.667,0,0,1,13.693-15.452c4.381-2.258,10.861.069,10.909,6.586.021,2.9.052,5.8-1.328,8.476a1.416,1.416,0,0,0-.095.268,1.486,1.486,0,0,0,.873,1.983,2.946,2.946,0,0,0,2.484.135,16.881,16.881,0,0,0,2.361-1.265,7.065,7.065,0,0,1,2.593-1.375,4.618,4.618,0,0,1,1.042,2.363c.554,1.766,1.079,2.048,2.825,1.4a8.935,8.935,0,0,1,3.875-.734,4.617,4.617,0,0,1,3.828,2.365,3.542,3.542,0,0,1-1.594,5.256,15.8,15.8,0,0,1-5.114,1.653c-5.091.516-10.176,1.1-15.27,1.576-3.679.348-7.369.584-11.055.855a5.272,5.272,0,0,0-4.729,3.165,18.007,18.007,0,0,1,7.323-.371,31.953,31.953,0,0,0,5.247.166c2.646-.165,5.282-.5,7.915-.833s5.247-.786,7.879-1.092c1.974-.23,3.982-.2,5.945-.481a10.139,10.139,0,0,0,8.574-8.65c.414-3.653-.847-5.483-4.415-6.2a29.181,29.181,0,0,0-4.355-.485,3.272,3.272,0,0,1-3.35-2.332,5.8,5.8,0,0,0-.261-.66,1.754,1.754,0,0,0-1.959-1.083c-.418.054-.819.25-1.237.295a13.936,13.936,0,0,1-2.948.2c-1.433-.157-1.961-1.016-1.559-2.408a7.762,7.762,0,0,0-.33-5.148c-.571-1.455-1.139-2.913-1.757-4.349a4.631,4.631,0,0,0-4.143-3.011,48.657,48.657,0,0,0-5.816-.04,12.338,12.338,0,0,0-7.18,2.774c-1.8,1.46-3.613,2.923-5.3,4.514a26.181,26.181,0,0,0-6.267,9.057c-.1.248-.25.477-.365.692-1.209-.51-2.318-1.029-3.465-1.445a3.445,3.445,0,0,0-3.007.356c-2.659,1.555-4.606,6.251-3.818,9.23C353.42,4349.946,353.7,4350.389,354.3,4350.445Z" transform="translate(-160.596 -106.124)" fill="#000"/>
    <path id="Path_513" data-name="Path 513" d="M639.822,4453.277a30.918,30.918,0,0,0,1.026-11.409c-.336-3.041-2.629-4.1-5.191-2.443-.159.1-.307.223-.464.33a21.635,21.635,0,0,0-5.764,5.834c-1.435,2.117-2.809,4.278-4.167,6.445-2.741,4.377-5.433,8.786-8.184,13.157-2.852,4.533-5.789,9.012-8.6,13.568a18.52,18.52,0,0,0-1.866,4.125c-1.029,3.261-.1,6.14,2.077,8.855,1.459-1.161,2.3-2.409,1.791-4.16a9.455,9.455,0,0,1,.74-6.771,72.975,72.975,0,0,1,6.131-11.215q8.792-12.765,17.667-25.473a5.3,5.3,0,0,1,.945-1.05,1.618,1.618,0,0,1,1.872-.123,1.38,1.38,0,0,1,.678,1.583,50.861,50.861,0,0,1-1.761,8.767c-2.806,8.361-6.067,16.55-9.613,24.618-2.573,5.853-5.4,11.594-8.118,17.382a8.313,8.313,0,0,1-.687,1.242,1.713,1.713,0,0,1-2.684.515,8.5,8.5,0,0,1-.886-.71c-.429-.359-.873-.585-1.407-.208a1.2,1.2,0,0,0-.345,1.637,10.666,10.666,0,0,0,1.07,1.673c1.775,2.272,4.671,2.389,6.437.119a24.522,24.522,0,0,0,3.176-5.025q4.962-11.249,9.664-22.612A146.772,146.772,0,0,0,639.822,4453.277Z" transform="translate(-259.826 -152.737)" fill="#000"/>
    <path id="Path_514" data-name="Path 514" d="M685.236,4502.521c.736.3,1.379.6,2.051.821,1.847.594,2.99.212,4-1.437a26.191,26.191,0,0,0,1.528-3.045,214.845,214.845,0,0,0,8.254-22.546c1.51-4.739,3.028-9.477,4.386-14.26.971-3.423,1.824-6.859,3.591-10a5.969,5.969,0,0,0,.258-5.495,25.541,25.541,0,0,0-2.107-3.689c-.544-.824-1.068-.923-1.972-.5a10.806,10.806,0,0,0-4.741,3.734c-.495.753-1,1.5-1.438,2.286q-5.837,10.339-11.651,20.689c-1.719,3.057-3.417,6.125-5.14,9.18A30.8,30.8,0,0,0,678.631,4490a5.86,5.86,0,0,0,1.6,4.967,1.384,1.384,0,0,0,1.8.341c.758-.456.439-1.064.2-1.62a6.616,6.616,0,0,1,.3-5.756c1.659-3.512,3.291-7.038,4.859-10.591a71.434,71.434,0,0,1,6.292-12.246,24.958,24.958,0,0,0,2.984-5.637,27.33,27.33,0,0,1,4.383-7.6c1.123-1.409,2.309-2.766,3.479-4.136a7.079,7.079,0,0,1,.726-.647,2.861,2.861,0,0,1,.378,2.645c-.2.781-.452,1.549-.608,2.335a106.713,106.713,0,0,1-4.514,16.137c-1.3,3.557-2.61,7.116-3.8,10.709a64.207,64.207,0,0,1-3.656,9.7,4.672,4.672,0,0,0-.3.937c-.5,1.822-.9,3.679-1.52,5.46a12.075,12.075,0,0,1-5.731,7.146C685.424,4502.167,685.393,4502.28,685.236,4502.521Z" transform="translate(-288.188 -154.153)" fill="#000"/>
    <path id="Path_515" data-name="Path 515" d="M433.96,4323.631c1.1-.064,1.461-.52,1.067-1.571a4.705,4.705,0,0,1,1.236-5.09c2.091-2.325,4.788-2.045,6.314.683a18.541,18.541,0,0,1,1.155,3.185c.347,1.034.732,1.366,1.578,1.29,1.573-.143,2.064-.493,2.183-1.671a6.134,6.134,0,0,1,1.079-3.048c1.253-1.723,2.476-3.48,3.861-5.093a19.094,19.094,0,0,1,7.292-5.311,15.921,15.921,0,0,1,8.048-1.328,6.12,6.12,0,0,1,4.294,9.979,16.486,16.486,0,0,1-1.771,1.833,11,11,0,0,1-.89.706,2.628,2.628,0,0,0-1.026,3.127,6.8,6.8,0,0,1,.2,3.925,1.019,1.019,0,0,0,.478,1.214,6.275,6.275,0,0,0,3.508,1.379c1.278.029,1.666.539,1.623,1.807a3.781,3.781,0,0,1-1.477,3.1,18.5,18.5,0,0,1-2.572,1.458c-.59.3-1.234.493-1.288,1.369a5.946,5.946,0,0,0,4.908.684,4.315,4.315,0,0,0,1.9-1.175c2.184-2.392,3.007-6.409.136-9.369-2.626-2.708-2.8-5.366-.617-8.459a9.862,9.862,0,0,0,1.165-9.341c-.836-2.5-2.383-4.3-5.146-4.745-.28-.045-.553-.134-.829-.2a17.593,17.593,0,0,0-10.5.334,26.594,26.594,0,0,0-13.427,10.934l-.9,1.436c-.592-.406-1.142-.755-1.658-1.148-.565-.43-1.086-.917-1.647-1.354a4.64,4.64,0,0,0-4.694-.622c-3.53,1.228-5.184,3.942-5.976,7.356a3.441,3.441,0,0,0,.391,2.614A2.064,2.064,0,0,0,433.96,4323.631Z" transform="translate(-191.389 -97.238)" fill="#000"/>
    <path id="Path_516" data-name="Path 516" d="M367.987,4742.795a1.125,1.125,0,0,0-.833,1.727,1.429,1.429,0,0,0,1.535.79c1.607-.09,3.214-.2,4.819-.312,7.475-.527,14.958-.51,22.445-.437,3.455.034,6.917-.066,10.368-.259,6.715-.375,13.422-.912,20.138-1.283,6.764-.374,13.539-.539,20.3-.958,7-.434,13.993-.922,21.013-.712a17.858,17.858,0,0,0,2.414-.072,8.55,8.55,0,0,0,4.788-1.629c-3.194-.381-6.382-.827-9.584-1.127a28.855,28.855,0,0,0-10.994.73,3.013,3.013,0,0,1-.7.1c-3.075.156-6.15.426-9.225.434-9,.022-17.993.435-26.988.789-14.485.566-28.983.833-43.472,1.306A41.4,41.4,0,0,0,367.987,4742.795Z" transform="translate(-165.353 -274.753)" fill="#000"/>
    <path id="Path_517" data-name="Path 517" d="M72.861,4184.589c-.867.379-1.748.73-2.6,1.144a2.121,2.121,0,0,0-1.247,2.461,33.651,33.651,0,0,0,.715,3.476,6.733,6.733,0,0,0,5.861,4.683,5.951,5.951,0,0,0,4.715-1.923,1.594,1.594,0,0,0,.242-2.184c-.468-.6-1.09-.614-2.023-.02-.4.254-.762.563-1.154.83-1.519,1.034-2.374.908-3.525-.527a5.717,5.717,0,0,1-.631-.942,2.348,2.348,0,0,1,.932-3.417,11.871,11.871,0,0,1,2.236-.873c.986-.329,2.018-.538,2.977-.931,1.39-.569,1.7-1.331,1.151-2.708a22.828,22.828,0,0,0-1.157-2.277c-.381-.709-.8-1.4-1.179-2.107a4.068,4.068,0,0,1,.293-4.553,12.716,12.716,0,0,1,1.03-1.355,1.8,1.8,0,0,1,2.756-.275,5.978,5.978,0,0,1,2.573,4.247,15.379,15.379,0,0,0,.225,1.545,2.272,2.272,0,0,0,2.036,1.89,2.359,2.359,0,0,0,2.583-1.342c.222-.415.362-.874.546-1.31a7.348,7.348,0,0,1,5.525-4.448,2.547,2.547,0,0,1,3.332,2.644,8.858,8.858,0,0,1-.2,2.112,11.526,11.526,0,0,1-2.038,4.342,12.532,12.532,0,0,0-.809,1.169,1.433,1.433,0,0,0,1.345,2.229,2.169,2.169,0,0,0,1.461-.7,26.966,26.966,0,0,0,3.115-4.721,7.429,7.429,0,0,0-4.3-10.245,9.265,9.265,0,0,0-9.832,1.714c-.318.269-.613.563-.973.9-.352-.326-.663-.608-.966-.9a23.266,23.266,0,0,0-5.207-3.679,3.037,3.037,0,0,0-2.994-.184c-1.743.947-3.156,2.34-3.321,4.349-.24,2.911-.58,5.853.122,8.775C74.9,4183.216,74.507,4183.869,72.861,4184.589Z" transform="translate(-51.98 -42.554)" fill="#000"/>
    <path id="Path_518" data-name="Path 518" d="M543.09,4559.476c2.1-1.96,2.841-5.574,1.366-7.819-2.1-3.187-4.793-5.625-8.9-5.821a5.276,5.276,0,0,1-4.032-2.085c-.353-.444-.7-.9-1.069-1.327a8.934,8.934,0,0,0-3.377-2.535c-3.125-1.262-5.87-.395-8.3,1.67a22.761,22.761,0,0,0-4.88,5.879,9.287,9.287,0,0,0,1.863,12,19.628,19.628,0,0,0,13.366,4.928,29.8,29.8,0,0,0,8.786-1.723A15.6,15.6,0,0,0,543.09,4559.476Zm-15.4,2.1a33.339,33.339,0,0,1-3.965-1.034,21.775,21.775,0,0,1-6.39-4.165,3.333,3.333,0,0,1-1.074-3.849c1.4-3.978,3.914-6.742,8.226-7.579a4.72,4.72,0,0,1,4.918,1.768,7.9,7.9,0,0,1,1.023,1.529,2.428,2.428,0,0,0,2.658,1.429c1.273-.084,2.553-.087,3.83-.073a4.707,4.707,0,0,1,4.325,2.727,2.43,2.43,0,0,1-.411,3.345,16.459,16.459,0,0,1-9.043,5.262C530.544,4561.2,529.271,4561.332,527.694,4561.574Z" transform="translate(-223.245 -193.719)" fill="#000"/>
    <path id="Path_519" data-name="Path 519" d="M301.116,4712.513a8.266,8.266,0,0,0-3.671.988c-.527.287-.96.647-.831,1.333.138.733.714.812,1.308.794.661-.021,1.323-.057,1.98-.131,1.881-.215,3.754-.586,5.639-.659,8-.312,16-.545,24-.8q6.957-.218,13.914-.4c1.513-.038,3.029,0,4.544.024,3.833.047,7.668.207,11.5.1a18.168,18.168,0,0,0,4.379-1.079,1.056,1.056,0,0,0,.788-1.206,1.336,1.336,0,0,0-1.132-1.283,4.086,4.086,0,0,0-1.406.031,52.265,52.265,0,0,1-10.753.729c-2.51-.029-5.023-.121-7.53-.044-5.344.164-10.685.426-16.027.637-2.887.114-5.775.207-8.662.311v.013q-4.9.17-9.8.34C306.607,4712.313,303.862,4712.405,301.116,4712.513Z" transform="translate(-138.488 -263.284)" fill="#000"/>
    <path id="Path_520" data-name="Path 520" d="M693.19,4498.865a17.786,17.786,0,0,0-1.895,1.914,3.168,3.168,0,0,0,.586,4.525,1.29,1.29,0,0,0,1.934-.155c-.92-1.68-.121-2.894,1.019-4.052,1.061-1.078,2.1-2.184,3.071-3.343a5.04,5.04,0,0,0,1.126-4.65,2.062,2.062,0,0,1,.583-2.051c.994-1.141,1.98-2.292,2.915-3.482.6-.765.525-1.3-.114-1.859-.73-.643-1.347-.7-1.994-.046-1.1,1.106-2.186,2.232-3.2,3.416a5.469,5.469,0,0,0-1.4,3.917A7.06,7.06,0,0,1,693.19,4498.865Z" transform="translate(-293.266 -171.692)" fill="#000"/>
    <path id="Path_521" data-name="Path 521" d="M271.4,4494.251a1.41,1.41,0,0,0,.615-.8.891.891,0,0,0-.48-.736,9.67,9.67,0,0,0-3.62-.273,25.075,25.075,0,0,0-7.4,3.185,14.268,14.268,0,0,0-2.319,1.858,3.418,3.418,0,0,0-.395,4.43A4.35,4.35,0,0,0,261.47,4504c2.881.119,5.311-1.035,7.889-2.831a9.087,9.087,0,0,0-1.439-.281c-1.182,0-2.364.07-3.545.086q-1.484.02-2.968-.021a1.172,1.172,0,0,1-1.282-.9,1.357,1.357,0,0,1,.684-1.444,19.312,19.312,0,0,1,9.762-4.26C270.852,4494.327,271.194,4494.39,271.4,4494.251Z" transform="translate(-123.606 -174.596)" fill="#000"/>
    <path id="Path_522" data-name="Path 522" d="M627.677,4492.351c-1.726.137-2.624,1.389-3.737,2.373a.918.918,0,0,0-.023,1.391,1.326,1.326,0,0,0,1.776.4q2.715-1.222,5.382-2.548a2.138,2.138,0,0,0,1.245-1.948,7.781,7.781,0,0,0-.289-.926c-.185-.435-.437-.838-.641-1.265a4.439,4.439,0,0,1,1.19-5.861,18.614,18.614,0,0,1,1.848-1.311c.88-.6,1.1-1.13.74-1.874a1.674,1.674,0,0,0-2.187-.752,6.592,6.592,0,0,0-1.343,1.021c-.855.743-1.65,1.561-2.541,2.257-2.029,1.586-2.134,1.867-1.213,4.3.334.885.74,1.748,1,2.652C629.231,4491.454,628.837,4492.259,627.677,4492.351Z" transform="translate(-267.059 -169.524)" fill="#000"/>
    <path id="Path_523" data-name="Path 523" d="M713.126,4602.693l0,.033.024-.006.018-.038Z" transform="translate(-302.327 -219.526)" fill="#000"/>
    <path id="Path_524" data-name="Path 524" d="M703.538,4594.514a1.6,1.6,0,0,0,.487,1.5c.984,1.183.853,1.876-.377,2.815a16.464,16.464,0,0,0-1.834,1.536c-.256.264-.531.9-.4,1.074a4.192,4.192,0,0,0,1.443,1.226,1.015,1.015,0,0,0,1.309-.562,5.9,5.9,0,0,1,4.179-2.771c-.082-.59-.13-1.188-.258-1.768C707.512,4594.972,706.216,4594.113,703.538,4594.514Z" transform="translate(-297.592 -216.162)" fill="#000"/>
    <path id="Path_525" data-name="Path 525" d="M813.823,4441.522a.889.889,0,0,0-.709,1.064.971.971,0,0,0,.94.9,5.541,5.541,0,0,0,.845-.063c1.691-.176,3.38-.376,5.073-.526,2.26-.2,4.528-.316,6.783-.559,1.189-.128,2.358-.447,3.536-.679l-.069-.326a66.6,66.6,0,0,0-15.7.077A4.3,4.3,0,0,0,813.823,4441.522Z" transform="translate(-338.856 -153.657)" fill="#000"/>
    <path id="Path_526" data-name="Path 526" d="M738.064,4510.635a5.036,5.036,0,0,0,1.4-.057c2.115-.154,4.228-.364,6.345-.439a27.914,27.914,0,0,1,3.384.244,1.234,1.234,0,0,0,1.518-1.092c-1.143-.259-2.276-.523-3.413-.772a19.325,19.325,0,0,0-8.009-.066,5.019,5.019,0,0,0-1.59.537,1.089,1.089,0,0,0-.378.945A1.145,1.145,0,0,0,738.064,4510.635Z" transform="translate(-311.527 -181.001)" fill="#000"/>
    <path id="Path_527" data-name="Path 527" d="M426.835,4467.448a23.133,23.133,0,0,0-11.78-.625,2,2,0,0,0-1.628,1.938c4.647.544,9.073-.891,13.76-.914C426.952,4467.576,426.907,4467.473,426.835,4467.448Z" transform="translate(-184.767 -164.018)" fill="#000"/>
    <path id="Path_528" data-name="Path 528" d="M213.416,4627.731c.129,1.624.446,2.033,1.743,2.292a14.386,14.386,0,0,0,1.686.223,34.546,34.546,0,0,0,11.762-1.512,3.957,3.957,0,0,0,.685-.4A72.791,72.791,0,0,1,213.416,4627.731Z" transform="translate(-106.477 -229.725)" fill="#000"/>
    <path id="Path_529" data-name="Path 529" d="M400.219,4480.188a35.682,35.682,0,0,0,4.385-.035c2.385-.268,4.75-.72,7.122-1.1.506-.081.937-.248.7-1.1a26.009,26.009,0,0,0-4.091.04,31.161,31.161,0,0,1-7.051.317c-.518-.034-1.036-.11-1.553-.1a.81.81,0,0,0-.834,1.137C399.082,4480.021,399.629,4480.181,400.219,4480.188Z" transform="translate(-179.065 -168.714)" fill="#000"/>
    <path id="Path_530" data-name="Path 530" d="M790.4,4433.881a56.436,56.436,0,0,0,16.753-1.565C801.417,4431.13,795.916,4432.476,790.4,4433.881Z" transform="translate(-329.616 -149.974)" fill="#000"/>
    <path id="Path_531" data-name="Path 531" d="M465.1,4510.137a20.185,20.185,0,0,0-3.859-.384c-2.783.019-5.568.061-8.347.207a5.774,5.774,0,0,0-3.668,1.4c2.92,0,5.844.1,8.756-.036,2.064-.1,4.113-.521,6.165-.827A4.676,4.676,0,0,0,465.1,4510.137Z" transform="translate(-198.747 -181.689)" fill="#000"/>
    <path id="Path_532" data-name="Path 532" d="M501.908,4606.361c-1.309-.2-2.618-.4-3.933-.554-1.832-.208-3.666-.42-5.5-.529a3.7,3.7,0,0,0-3.212,1.166c2.87,1.115,10.551,1.451,13.649.239A7.071,7.071,0,0,0,501.908,4606.361Z" transform="translate(-214.446 -220.578)" fill="#000"/>
    <path id="Path_533" data-name="Path 533" d="M484.322,4577.446l-14.788,1.08C472.276,4580.96,481,4579.852,484.322,4577.446Z" transform="translate(-206.711 -209.251)" fill="#000"/>
    <path id="Path_534" data-name="Path 534" d="M888.5,4638.292c-.561-.026-1.073.064-1.142.752-.066.662.4.9.937,1.039a2.2,2.2,0,0,0,.415.087c1.648.1,3.3.3,4.941.25a12.464,12.464,0,0,0,6.146-1.562c-1.361-.075-2.72-.159-4.081-.225Q892.113,4638.454,888.5,4638.292Z" transform="translate(-369.092 -234.023)" fill="#000"/>
    <path id="Path_535" data-name="Path 535" d="M213.314,4595.021c4.247.044,8.455-.093,12.463-1.671C221.465,4592.727,217.117,4591.813,213.314,4595.021Z" transform="translate(-106.461 -215.476)" fill="#000"/>
    <path id="Path_536" data-name="Path 536" d="M351.442,4850.315c-.151-.492-.43-.9-1.028-.692a.908.908,0,0,0-.606,1.243c.362,1.373.658,2.764,1.056,4.127.384,1.315.848,2.607,1.311,3.9a6.7,6.7,0,0,0,.649,1.057,6.622,6.622,0,0,0,.315-3.922C352.65,4854.1,352.023,4852.215,351.442,4850.315Z" transform="translate(-159.955 -320.049)" fill="#000"/>
    <path id="Path_537" data-name="Path 537" d="M683.134,4434.848a18.578,18.578,0,0,0-6.738-1.467,4.678,4.678,0,0,0-3.829,2.1C676.155,4435.486,679.541,4435.916,683.134,4434.848Z" transform="translate(-286.243 -150.588)" fill="#000"/>
    <path id="Path_538" data-name="Path 538" d="M245.028,4619.387c-3.43-1.583-6.6-2.091-9.878-.53C238.272,4620.6,241.467,4620.562,245.028,4619.387Z" transform="translate(-115.027 -225.727)" fill="#000"/>
    <path id="Path_539" data-name="Path 539" d="M606.986,4437.641c-2.406-.024-4.812-.038-7.217.015a1.1,1.1,0,0,0-1.176,1.154c.052.582.525.924,1.4.848,1.412-.123,2.817-.317,4.223-.5,1.209-.154,2.416-.33,3.57-.488C608.093,4437.739,607.509,4437.646,606.986,4437.641Z" transform="translate(-257.308 -152.319)" fill="#000"/>
    <path id="Path_540" data-name="Path 540" d="M760.358,4517.821a.86.86,0,0,0,1.012.76c1.132-.076,2.267-.1,3.4-.126.9-.02,1.8.033,2.7-.022a5.036,5.036,0,0,0,2.935-1c-.414-.182-.621-.3-.844-.367-2.8-.846-5.651-.239-8.479-.25A.754.754,0,0,0,760.358,4517.821Z" transform="translate(-320.608 -184.483)" fill="#000"/>
    <path id="Path_541" data-name="Path 541" d="M941.891,4639.263a4.821,4.821,0,0,0,3.357,1.625,16.27,16.27,0,0,0,6.581-1.725C948.551,4638.777,945.291,4638.265,941.891,4639.263Z" transform="translate(-391.296 -234.184)" fill="#000"/>
    <path id="Path_542" data-name="Path 542" d="M514.64,4512.216c-2.207-.086-4.412-.211-6.62-.236a11.724,11.724,0,0,0-2.652.333,3.212,3.212,0,0,0-2.1,1.49c4-.107,7.74.073,11.332-1.233C514.617,4512.451,514.628,4512.334,514.64,4512.216Z" transform="translate(-219.963 -182.595)" fill="#000"/>
    <path id="Path_543" data-name="Path 543" d="M487.945,4621.571a10.229,10.229,0,0,0,8.918.1c.225-.109.384-.354.745-.7C494.164,4620.854,491,4620.329,487.945,4621.571Z" transform="translate(-213.988 -226.887)" fill="#000"/>
    <path id="Path_544" data-name="Path 544" d="M786.588,4441.144a1.356,1.356,0,0,0,.554.881,2.105,2.105,0,0,0,1.077.237c.614.013,1.23-.053,1.845-.086l0-.024c.9-.065,1.8-.105,2.693-.2a.829.829,0,0,0,.756-1.012.8.8,0,0,0-.781-.845,15.058,15.058,0,0,0-5.492.455C786.971,4440.625,786.569,4440.962,786.588,4441.144Z" transform="translate(-328.063 -153.298)" fill="#000"/>
    <path id="Path_545" data-name="Path 545" d="M257.845,4594.743c-2.516.279-5.037.52-7.546.855-1.007.135-1.075.661-.277,1.8C252.716,4596.888,255.745,4597.367,257.845,4594.743Z" transform="translate(-120.648 -216.293)" fill="#000"/>
    <path id="Path_546" data-name="Path 546" d="M281.294,4470.614c.077.548.538.874,1.315.735a22.682,22.682,0,0,0,7.776-2.51c-.014-.108-.028-.218-.042-.327-2.665.34-5.333.66-7.993,1.031C281.532,4469.657,281.214,4470.055,281.294,4470.614Z" transform="translate(-133.093 -164.897)" fill="#000"/>
    <path id="Path_547" data-name="Path 547" d="M214.559,4858.71c-.011-.677-.29-.977-.869-1.055-.622-.085-.854.362-.88.871a22.458,22.458,0,0,0-.046,3.255,4.089,4.089,0,0,0,1.846,2.952,4.592,4.592,0,0,0,.307-3.363A22.448,22.448,0,0,1,214.559,4858.71Z" transform="translate(-106.298 -323.337)" fill="#000"/>
    <path id="Path_548" data-name="Path 548" d="M770.753,4510.409a1.874,1.874,0,0,0,.282-.028c1.627-.295,3.255-.584,4.879-.895a2.556,2.556,0,0,0,.611-.346,7.763,7.763,0,0,0-6.156-.743c-.922.229-1.288.7-1.118,1.345C769.468,4510.569,770.144,4510.431,770.753,4510.409Z" transform="translate(-324.142 -181.01)" fill="#000"/>
    <path id="Path_549" data-name="Path 549" d="M409.865,4455.965c0-.146,0-.292.005-.438-2-.132-4-.313-6-.376a2.99,2.99,0,0,0-2.681,1.256A12.229,12.229,0,0,0,409.865,4455.965Z" transform="translate(-180.037 -159.456)" fill="#000"/>
    <path id="Path_550" data-name="Path 550" d="M576.329,4808.924a8.656,8.656,0,0,0,2.213-7.237C576.024,4804.156,575.192,4806.979,576.329,4808.924Z" transform="translate(-248.502 -300.553)" fill="#000"/>
    <path id="Path_551" data-name="Path 551" d="M563.6,4802.016c-.557,2.511.635,5.069,3.264,6.852C567.159,4806.565,565.719,4803.619,563.6,4802.016Z" transform="translate(-243.65 -300.687)" fill="#000"/>
    <path id="Path_552" data-name="Path 552" d="M635.447,4436.587c-1.345-.151-2.688-.376-4.037-.432a3.87,3.87,0,0,0-3.185,1.759,9.077,9.077,0,0,0,7.225-.914C635.45,4436.863,635.448,4436.726,635.447,4436.587Z" transform="translate(-268.946 -151.721)" fill="#000"/>
    <path id="Path_553" data-name="Path 553" d="M935.246,4813.888a2.641,2.641,0,0,0,1.641,3.418c.156-1.081.273-2.194.487-3.288a8.524,8.524,0,0,0,.3-3.707A7.609,7.609,0,0,0,935.246,4813.888Z" transform="translate(-388.531 -304.065)" fill="#000"/>
    <path id="Path_554" data-name="Path 554" d="M489.156,4523.142c3.23.432,6.361.745,9.587-.372C496.426,4521.618,490.909,4521.6,489.156,4523.142Z" transform="translate(-214.463 -186.652)" fill="#000"/>
    <path id="Path_555" data-name="Path 555" d="M518.019,4635.654c1.075,0,2.15-.071,3.224-.123a.912.912,0,0,0,.151-1.816c-.644-.114-1.3-.164-1.949-.241l-.006.042c-.375,0-.751,0-1.125,0a2.829,2.829,0,0,0-.421.036c-.813.137-1.259.549-1.214,1.111A1.2,1.2,0,0,0,518.019,4635.654Z" transform="translate(-225.296 -232.063)" fill="#000"/>
    <path id="Path_556" data-name="Path 556" d="M519.393,4619.755q-.037-.216-.074-.432c-.974-.054-1.95-.178-2.92-.14a9.5,9.5,0,0,0-2.349.423,1.008,1.008,0,1,0,.533,1.943,27.542,27.542,0,0,0,2.859-.775A15.319,15.319,0,0,0,519.393,4619.755Z" transform="translate(-223.953 -226.242)" fill="#000"/>
    <path id="Path_557" data-name="Path 557" d="M197.37,4581.572c-.547.061-1.053.254-1.03.923s.545.824,1.091.856a11.784,11.784,0,0,0,5.87-1.2,7.217,7.217,0,0,0-.759-.367A12.2,12.2,0,0,0,197.37,4581.572Z" transform="translate(-99.854 -210.862)" fill="#000"/>
    <path id="Path_558" data-name="Path 558" d="M922.337,4638.411c-.606-.106-1.068.041-1.209.651a.948.948,0,0,0,.752,1.184,7.751,7.751,0,0,0,5.557-.529,15.9,15.9,0,0,0-2.17-.861C924.31,4638.625,923.31,4638.58,922.337,4638.411Z" transform="translate(-382.83 -234.061)" fill="#000"/>
    <path id="Path_559" data-name="Path 559" d="M542.185,4617.484a11.392,11.392,0,0,0-7.721-.608A7.025,7.025,0,0,0,542.185,4617.484Z" transform="translate(-232.228 -225.148)" fill="#000"/>
    <path id="Path_560" data-name="Path 560" d="M529.212,4603.82a12.272,12.272,0,0,0,6.149-.426C532.853,4601.371,531.133,4601.193,529.212,4603.82Z" transform="translate(-230.196 -219.192)" fill="#000"/>
    <path id="Path_561" data-name="Path 561" d="M930.44,4813.329c-.742-.892-1.42-.9-2.053.137a2.382,2.382,0,0,0-.038,2.435,6.133,6.133,0,0,0,2.135,2.342l.268-.173a12.438,12.438,0,0,1-.595-2.3A13.089,13.089,0,0,1,930.44,4813.329Z" transform="translate(-385.654 -305.027)" fill="#000"/>
    <path id="Path_562" data-name="Path 562" d="M361,4850.883l-.292-.121c-.392.577-.817,1.134-1.172,1.733-1.266,2.135-.664,3.951,1.735,5.052A14.228,14.228,0,0,1,361,4850.883Z" transform="translate(-163.546 -320.535)" fill="#000"/>
    <path id="Path_563" data-name="Path 563" d="M891.738,4649.787c-.762-.209-1.513-.469-2.287-.617a23.441,23.441,0,0,0-3.056-.419,2.64,2.64,0,0,0-2.083.833A8.878,8.878,0,0,0,891.738,4649.787Z" transform="translate(-367.853 -238.281)" fill="#000"/>
    <path id="Path_564" data-name="Path 564" d="M694.19,4442.392a6.47,6.47,0,0,0,4.9-1.41l-.041-.321c-1.586-.061-3.171-.132-4.757-.178a.958.958,0,1,0-.1,1.909Z" transform="translate(-294.421 -153.484)" fill="#000"/>
    <path id="Path_565" data-name="Path 565" d="M763.524,4480.313c-.739.093-1.212.547-1.036,1.221a10.631,10.631,0,0,0,1.023,2.6c.267.464.873.733,1.6,1.3-.126-1.693-.187-3-.337-4.3C764.695,4480.486,764.213,4480.226,763.524,4480.313Z" transform="translate(-321.594 -169.695)" fill="#000"/>
    <path id="Path_566" data-name="Path 566" d="M468.5,4593.7a1.964,1.964,0,0,0,.42.04,7.558,7.558,0,0,0,4.1-1.361,6.469,6.469,0,0,0-4.564-.7c-.543.088-1,.349-.949,1.013A1.053,1.053,0,0,0,468.5,4593.7Z" transform="translate(-206.039 -214.993)" fill="#000"/>
    <path id="Path_567" data-name="Path 567" d="M487.919,4400.328a5.085,5.085,0,0,0,5.993-1.2A5.462,5.462,0,0,0,487.919,4400.328Z" transform="translate(-214.03 -136.485)" fill="#000"/>
    <path id="Path_568" data-name="Path 568" d="M209.1,4606.435a.869.869,0,0,0-.985.813,1.03,1.03,0,0,0,.86,1.138,1.818,1.818,0,0,0,.839.011c1.413-.358,2.818-.749,4.225-1.129q-.023-.174-.045-.347c-1.017-.131-2.033-.276-3.053-.386A16.55,16.55,0,0,0,209.1,4606.435Z" transform="translate(-104.468 -221.054)" fill="#000"/>
    <path id="Path_569" data-name="Path 569" d="M752.567,4635.035c-2.236-1.692-3.776-1.934-5.746-.848C748.716,4635.712,751.01,4636.023,752.567,4635.035Z" transform="translate(-315.409 -232.086)" fill="#000"/>
    <path id="Path_570" data-name="Path 570" d="M777.024,4626.126c-2.075-.032-4.033-1.276-6.3-.673A4.357,4.357,0,0,0,777.024,4626.126Z" transform="translate(-324.759 -228.73)" fill="#000"/>
    <path id="Path_571" data-name="Path 571" d="M205.71,4615.1c-.545.055-1.095.146-1.046.865a1.039,1.039,0,0,0,1.131,1.022,5.01,5.01,0,0,0,3.974-1.331A8.009,8.009,0,0,0,205.71,4615.1Z" transform="translate(-103.124 -224.559)" fill="#000"/>
    <path id="Path_572" data-name="Path 572" d="M931.424,4631.291a1.666,1.666,0,0,0,2.149-1.195c-.135-.2-.186-.373-.294-.431a5.247,5.247,0,0,0-3.7-.091c-.2.043-.461.529-.435.782a1,1,0,0,0,.609.655C930.288,4631.177,930.871,4631.175,931.424,4631.291Z" transform="translate(-386.106 -230.355)" fill="#000"/>
    <path id="Path_573" data-name="Path 573" d="M774.39,4485.465l1.07-4.486a2.68,2.68,0,0,0-2.552,1.771A2.769,2.769,0,0,0,774.39,4485.465Z" transform="translate(-325.674 -169.973)" fill="#000"/>
    <path id="Path_574" data-name="Path 574" d="M222.314,4860.767c-2.016,2.519-1.572,3.68.988,5.763-.277-1.822-.511-3.392-.758-4.959A7.105,7.105,0,0,0,222.314,4860.767Z" transform="translate(-109.562 -324.608)" fill="#000"/>
    <path id="Path_575" data-name="Path 575" d="M920.464,4698.611c-.423-.116-.8-.235-1.179-.32-.542-.12-1.1-.173-1.633-.334-.483-.146-.914-.3-1.2.286a1.206,1.206,0,0,0,.43,1.6A2.831,2.831,0,0,0,920.464,4698.611Z" transform="translate(-380.883 -258.264)" fill="#000"/>
    <path id="Path_576" data-name="Path 576" d="M471.763,4400.074c-.748-.4-1.339-.744-1.961-1.024a4.479,4.479,0,0,0-1.327-.4.911.911,0,0,0-1,.8.847.847,0,0,0,.534,1.144A3.851,3.851,0,0,0,471.763,4400.074Z" transform="translate(-206.031 -136.449)" fill="#000"/>
    <path id="Path_577" data-name="Path 577" d="M899.336,4690.51c-1.907-.239-3.647-.81-5.34.326C895.814,4692.336,897.574,4692.254,899.336,4690.51Z" transform="translate(-371.795 -255.141)" fill="#000"/>
    <path id="Path_578" data-name="Path 578" d="M611.906,4446.9a6.026,6.026,0,0,0,5.168-1.087C615.086,4445.395,613.389,4445.092,611.906,4446.9Z" transform="translate(-262.591 -155.525)" fill="#000"/>
    <path id="Path_579" data-name="Path 579" d="M704.28,4432.758a4.277,4.277,0,0,0,4.96-.6C707.273,4431.288,705.345,4431.541,704.28,4432.758Z" transform="translate(-298.767 -149.886)" fill="#000"/>
    <path id="Path_580" data-name="Path 580" d="M316.876,4499.238c.835.453,1.469.164,2.557-1.078-1.2-1.019-1.876-1.2-2.675-.647-.287.2-.679.6-.637.834A1.531,1.531,0,0,0,316.876,4499.238Z" transform="translate(-146.785 -176.581)" fill="#000"/>
    <path id="Path_581" data-name="Path 581" d="M773.445,4430.19q-1.362-2.569-4.114,0A4.509,4.509,0,0,0,773.445,4430.19Z" transform="translate(-324.257 -148.771)" fill="#000"/>
    <path id="Path_582" data-name="Path 582" d="M492.145,4596.061c-.765.183-1.2.709-1.1,1.246s.714.892,1.487.678a21.273,21.273,0,0,0,2.282-.918A2.628,2.628,0,0,0,492.145,4596.061Z" transform="translate(-215.279 -216.8)" fill="#000"/>
    <path id="Path_583" data-name="Path 583" d="M905.982,4629.424c.046,0,.28.01.513,0a.9.9,0,0,0,.944-.854c.066-.622-.4-.81-.882-.876a12.121,12.121,0,0,0-1.68-.085.808.808,0,0,0-.871.749c-.07.579.3.854.811.956C905.137,4629.375,905.468,4629.378,905.982,4629.424Z" transform="translate(-375.868 -229.675)" fill="#000"/>
    <path id="Path_584" data-name="Path 584" d="M636.911,4576.46c0,.711.55,1.148,1.458,1.154.823.006,1.321-.342,1.326-.923a1.435,1.435,0,0,0-1.48-1.37A1.139,1.139,0,0,0,636.911,4576.46Z" transform="translate(-272.425 -208.386)" fill="#000"/>
    <path id="Path_585" data-name="Path 585" d="M267.651,4501.83a1.2,1.2,0,0,0,.138,1.127,1.376,1.376,0,0,0,1.128.181,12.85,12.85,0,0,0,1.8-.717,1.852,1.852,0,0,0-1.988-1.321A1.57,1.57,0,0,0,267.651,4501.83Z" transform="translate(-127.773 -178.164)" fill="#000"/>
    <path id="Path_586" data-name="Path 586" d="M645.621,4585.634a1.423,1.423,0,0,0,1.314,1.243,1.359,1.359,0,0,0,1.4-1.281c.008-.64-.542-1.066-1.384-1.074C646.126,4584.514,645.6,4584.952,645.621,4585.634Z" transform="translate(-275.837 -212.131)" fill="#000"/>
    <path id="Path_587" data-name="Path 587" d="M928.14,4603.782c-1.872.768-2.252,1.832-1.1,3.306C928.675,4606,928.986,4605,928.14,4603.782Z" transform="translate(-384.984 -219.973)" fill="#000"/>
    <path id="Path_588" data-name="Path 588" d="M635.252,4606.139a1.281,1.281,0,0,0,1.45,1.209c.842-.006,1.419-.448,1.394-1.068-.027-.66-.742-1.128-1.7-1.116C635.689,4605.172,635.266,4605.534,635.252,4606.139Z" transform="translate(-271.774 -220.537)" fill="#000"/>
    <path id="Path_589" data-name="Path 589" d="M644.4,4472.489a1.053,1.053,0,0,0,1.156-.979c.047-.695-.6-1.275-1.533-1.374-.725-.076-1.157.232-1.215.867A1.562,1.562,0,0,0,644.4,4472.489Z" transform="translate(-274.732 -165.554)" fill="#000"/>
    <path id="Path_590" data-name="Path 590" d="M920.092,4604.178c1.2-.5,1.412-1.618,1.723-2.618.158-.507-.378-.814-.936-.584a2.142,2.142,0,0,0-1.229,1.454A1.388,1.388,0,0,0,920.092,4604.178Z" transform="translate(-382.188 -218.8)" fill="#000"/>
    <path id="Path_591" data-name="Path 591" d="M498.6,4682.392a1.373,1.373,0,0,0-1.314-1.389c-.616-.013-1,.494-.971,1.283a1.237,1.237,0,0,0,1.191,1.315A1.109,1.109,0,0,0,498.6,4682.392Z" transform="translate(-217.368 -251.415)" fill="#000"/>
    <path id="Path_592" data-name="Path 592" d="M224.093,4613.368c.589-.251,1.133-.605,2-1.081a9.471,9.471,0,0,0-2.2-.847c-.4-.04-.917.37-1.265.7-.141.134-.076.656.072.89A1.054,1.054,0,0,0,224.093,4613.368Z" transform="translate(-110.141 -223.091)" fill="#000"/>
    <path id="Path_593" data-name="Path 593" d="M397.289,4468.182c-.034.575.309.888.979.891.881,0,1.63-.552,1.623-1.208a1.165,1.165,0,0,0-1.28-1.019A1.322,1.322,0,0,0,397.289,4468.182Z" transform="translate(-178.581 -164.219)" fill="#000"/>
    <path id="Path_594" data-name="Path 594" d="M765.047,4634.045c1.312,1.176,2.458,1.117,3.695-.191C766.992,4632.847,766.174,4632.89,765.047,4634.045Z" transform="translate(-322.589 -231.926)" fill="#000"/>
    <path id="Path_595" data-name="Path 595" d="M225.319,4481.5c1.888,1.063,3.134.923,4.166-.514A4.281,4.281,0,0,0,225.319,4481.5Z" transform="translate(-111.22 -169.851)" fill="#000"/>
    <path id="Path_596" data-name="Path 596" d="M491.734,4592.027c-2.288-1.226-3.176-1.125-4.337.47C488.924,4593.029,490.222,4592.4,491.734,4592.027Z" transform="translate(-213.848 -214.848)" fill="#000"/>
    <path id="Path_597" data-name="Path 597" d="M900.984,4520.819a3.956,3.956,0,0,0,.615,3.854C902.463,4522.429,902.381,4521.868,900.984,4520.819Z" transform="translate(-374.546 -186.194)" fill="#000"/>
    <path id="Path_598" data-name="Path 598" d="M910.824,4525.255a16.9,16.9,0,0,0,.644-1.648c.065-.231.018-.649-.133-.75a1,1,0,0,0-.885-.12,2.3,2.3,0,0,0-.915,1.149C909.393,4524.583,909.963,4524.941,910.824,4525.255Z" transform="translate(-378.114 -186.95)" fill="#000"/>
    <path id="Path_599" data-name="Path 599" d="M596.39,4407.43c-1.287,1.137-1.515,2.175-.82,3.99C596.264,4410.057,596.911,4408.9,596.39,4407.43Z" transform="translate(-256.106 -140.027)" fill="#000"/>
    <path id="Path_600" data-name="Path 600" d="M942.374,4650.009a2.478,2.478,0,0,0,3.341-1.123C943.63,4648.468,943.017,4648.673,942.374,4650.009Z" transform="translate(-391.493 -238.259)" fill="#000"/>
    <path id="Path_601" data-name="Path 601" d="M253.189,4608.383a.949.949,0,0,0,.959,1,1.038,1.038,0,0,0,1.137-.833,1.073,1.073,0,0,0-1.064-1.086A.931.931,0,0,0,253.189,4608.383Z" transform="translate(-122.15 -221.473)" fill="#000"/>
    <path id="Path_602" data-name="Path 602" d="M801.038,4508.945a1.191,1.191,0,0,0-1.061-1.165c-.641.047-.7.587-.753,1.1-.069.7.209,1.089.736,1.12A1.073,1.073,0,0,0,801.038,4508.945Z" transform="translate(-333.203 -180.885)" fill="#000"/>
    <path id="Path_603" data-name="Path 603" d="M793.689,4517.034c-.086-.606-.519-.7-1.022-.7-.759.006-1.251.312-1.279.8a.957.957,0,0,0,1.017.918C793.075,4518.066,793.705,4517.565,793.689,4517.034Z" transform="translate(-330.016 -184.37)" fill="#000"/>
    <path id="Path_604" data-name="Path 604" d="M479.224,4406.945a1.028,1.028,0,0,0-.949-1.034c-.541-.035-.91.361-.931,1s.32,1.014.9,1A.925.925,0,0,0,479.224,4406.945Z" transform="translate(-209.945 -139.407)" fill="#000"/>
    <path id="Path_605" data-name="Path 605" d="M786.749,4631.532a.872.872,0,0,0-.863-.936,1,1,0,1,0-.232,1.992A1.056,1.056,0,0,0,786.749,4631.532Z" transform="translate(-327.301 -230.888)" fill="#000"/>
    <path id="Path_606" data-name="Path 606" d="M712.667,4477.866c.279-.082.48-.428.6-.542-.051-.943-.528-1.4-1.2-1.351-.474.031-.823.225-.787.768C711.319,4477.313,712.138,4478.022,712.667,4477.866Z" transform="translate(-301.565 -167.933)" fill="#000"/>
    <path id="Path_607" data-name="Path 607" d="M509.911,4593.211c-.016-.482-.656-1.137-1.017-.937a1.729,1.729,0,0,0-.81,1.014c-.1.51.318.86.854.917A.982.982,0,0,0,509.911,4593.211Z" transform="translate(-221.979 -215.273)" fill="#000"/>
    <path id="Path_608" data-name="Path 608" d="M238.686,4606.156a1,1,0,0,0,.96-1.141c-.117-.36-.546-.619-.712-.793-.778.023-1.136.412-1.072.944C237.921,4605.657,238.109,4606.1,238.686,4606.156Z" transform="translate(-116.147 -220.153)" fill="#000"/>
    <path id="Path_609" data-name="Path 609" d="M487.347,4511.458a.79.79,0,0,0-1.027.813.763.763,0,0,0,.886.837,6.878,6.878,0,0,0,1.458-.536c0-.148-.008-.3-.011-.444A6.8,6.8,0,0,0,487.347,4511.458Z" transform="translate(-213.454 -182.369)" fill="#000"/>
    <path id="Path_610" data-name="Path 610" d="M913.439,4691.752c.122-.535-.447-1.041-1.052-1.018-.466.019-.808.22-.807.75,0,.565.515,1.059,1.332,1.054A2.358,2.358,0,0,0,913.439,4691.752Z" transform="translate(-378.954 -255.377)" fill="#000"/>
    <path id="Path_611" data-name="Path 611" d="M923.908,4649.145c-.444.011-.719.413-.7,1.022.021.649.388,1.081.886,1.008a.832.832,0,0,0,.743-1A1.012,1.012,0,0,0,923.908,4649.145Z" transform="translate(-383.69 -238.444)" fill="#000"/>
    <path id="Path_612" data-name="Path 612" d="M460.35,4619.122c.254-.058.461-.323.608-.433-.047-.716-.606-1.361-1.058-1.349-.554.017-.679.435-.69.875A.926.926,0,0,0,460.35,4619.122Z" transform="translate(-202.844 -225.494)" fill="#000"/>
    <path id="Path_613" data-name="Path 613" d="M828.387,4434.08a5.524,5.524,0,0,0,1.343-.818c-.561-.378-.865-.742-1.2-.768-.455-.034-.75.354-.77.846C827.749,4433.77,827.927,4434.179,828.387,4434.08Z" transform="translate(-344.828 -150.231)" fill="#000"/>
    <path id="Path_614" data-name="Path 614" d="M467.425,4629.854a.813.813,0,0,0-.915-.8c-.48.014-.625.347-.616.768.011.48.226.833.742.84A.7.7,0,0,0,467.425,4629.854Z" transform="translate(-205.465 -230.263)" fill="#000"/>
    <path id="Path_615" data-name="Path 615" d="M436.1,4475.674c.26.005.526-.353.94-.658l-.922-1c-.235.254-.6.473-.676.769A.687.687,0,0,0,436.1,4475.674Z" transform="translate(-193.524 -167.136)" fill="#000"/>
    <path id="Path_616" data-name="Path 616" d="M640.768,4603.515c-.011.584.461.813.973.756.252-.027.477-.3.959-.631a6.385,6.385,0,0,0-1.361-.727C641.194,4602.878,640.772,4603.3,640.768,4603.515Z" transform="translate(-273.95 -219.619)" fill="#000"/>
    <path id="Path_617" data-name="Path 617" d="M769.95,4436.492c.244-.014.472-.32.919-.65a4.232,4.232,0,0,0-1.138-.676c-.162-.031-.555.353-.583.581C769.088,4436.253,769.508,4436.517,769.95,4436.492Z" transform="translate(-324.234 -151.319)" fill="#000"/>
    <path id="Path_618" data-name="Path 618" d="M508.822,4689.769a.843.843,0,0,0-.63.4c-.253.5.042.821,1.051,1.179C509.437,4690.257,509.317,4689.784,508.822,4689.769Z" transform="translate(-222.002 -254.984)" fill="#000"/>
    <path id="Path_619" data-name="Path 619" d="M592.395,4410.655c-.109-.621-.2-1.17-.3-1.719C591.073,4409.995,591.169,4410.347,592.395,4410.655Z" transform="translate(-254.628 -140.64)" fill="#000"/>
    <path id="Path_620" data-name="Path 620" d="M717.338,4589.409a1.112,1.112,0,0,0-1.2-1.092,1.042,1.042,0,0,0-1.1,1.029c-.008.611.486.98,1.288.965C716.974,4590.3,717.321,4589.991,717.338,4589.409Z" transform="translate(-303.028 -213.677)" fill="#000"/>
    <path id="Path_621" data-name="Path 621" d="M539.574,4559.583a.935.935,0,0,0-1,1.066,1.294,1.294,0,0,0,1.22,1.136,1.145,1.145,0,0,0,1.189-1.12A1.285,1.285,0,0,0,539.574,4559.583Z" transform="translate(-233.913 -201.977)" fill="#000"/>
  </g>
</svg>
