<svg xmlns="http://www.w3.org/2000/svg" width="634.347" height="324.231" viewBox="0 0 634.347 324.231">
  <g id="Group_112" data-name="Group 112" transform="translate(3412.843 1362.088)">
    <path id="Path_914" data-name="Path 914" d="M-3412.842-1277.9c6.091.346,12.307.041,18.248,1.178a310.878,310.878,0,0,0,31.979,4.766c10.113.868,20.093,3.262,30.157,4.831,8.061,1.255,16.146,2.4,24.247,3.363,6.642.79,13.343,1.1,19.979,1.919a37.275,37.275,0,0,1,8.38,2.307c1.991.749,2.5,3.361,1.395,5.262a3.188,3.188,0,0,1-.447.746c-5.711,5.337-11.035,11.036-19.423,12.485-8.024,1.387-15.96,3.376-23.823,5.508-3.815,1.033-8.055,1.728-11.093,5.947,1.594.86,2.894,2.066,4.324,2.252,9.254,1.209,18.513,2.713,27.814,3.131,14.572.656,29.179.6,43.771.713,11.938.1,23.852.046,35.778,1.263a226.745,226.745,0,0,0,27.13.736c9.372-.173,18.517,1.915,27.827,2.136,2.906.07,5.813.5,8.711.452,10.671-.191,21.341-.651,32.015-.744,6.938-.059,13.883.532,20.821.473a118.364,118.364,0,0,0,15.657-1.093c10.16-1.452,20.382-.956,30.57-1.428,1.152-.054,2.3-.214,3.22-.3.443-.365.749-.5.886-.742.93-1.609.868-4.629,3.735-3.65,1.17.4,1.73,2.594,2.726,4.229,1.811.47,3.5-.083,4.864-2.085.76-1.111,1.953-2.457,3.134-2.661,7.1-1.24,14.238-2.63,21.418-1.219.3,2.162-.992,2.165-2.1,2.271-3.185.3-6.375.548-9.942.847.9,2.441,2.965,2.242,4.182,2.149,11.7-.886,23.31.62,34.957.847,15.761.307,31.532,0,47.3.105,7.254.044,14.577-.124,21.421,2.695.449,2.392-.889,3.687-2.7,3.862a30.712,30.712,0,0,1-8.722-.124c-8.408-1.646-16.876-1.035-25.331-1.235-9.315-.22-18.613.191-27.949-1.173-7.166-1.046-14.574-.537-21.872-.527-14.6.021-29.21-.118-43.8.362-11.646.385-23.257,1.708-34.895,2.413-26.533,1.607-53.1,1.785-79.661,1.17-14.278-.333-28.551-1.5-42.792-2.682-21.842-1.821-43.707-1.591-65.585-1.47-13.139.075-26.293.147-39.418-.331-7.254-.261-14.487-1.521-21.692-2.588a12.762,12.762,0,0,1-10.247-7.277,12.924,12.924,0,0,1,7.933-6.68c13.3-4.317,26.23-9.824,39.974-12.736a33.865,33.865,0,0,0,12.064-4.746c-1.653-.922-2.485-1.676-3.426-1.854-3.151-.6-6.329-1.142-9.521-1.439-12.8-1.183-25.3-4.087-37.92-6.316-13.5-2.382-27.058-4.379-40.586-6.567-7.769-1.258-15.521-2.591-23.292-3.828-3.448-.55-6.923-.948-10.387-1.416Z" transform="translate(-0.001 133.291)" fill="#000"/>
    <path id="Path_915" data-name="Path 915" d="M-2910.967-1276.162c-5.822-1.692-11.7-3.216-17.457-5.11a338.523,338.523,0,0,0-35.376-9.8,42.159,42.159,0,0,0-14.882-.749l-.722,11.207a27.243,27.243,0,0,0,3.3.878c4.88.656,7.729,3.748,9.7,7.933,4.949,10.5,4.208,20.922-.54,31.247-.85,1.852-2.281,3.475-2.921,5.379-2.716,8.08-9.394,9.7-16.611,10.351a44.834,44.834,0,0,1-6.851-.39c-.386.535-1.008,1.023-.933,1.354,1.878,8.249-3.283,13.159-8.629,17.824-1.175,1.028-3.205,1.38-4.874,1.475a19.331,19.331,0,0,1-10.871-2.756c-2.219-1.279-4.45-2.544-7.48-4.272a46.089,46.089,0,0,0-.312,5.613c1.374,17.378,3.688,34.567,10.3,51.333,1.809-.483,3.157-.868,4.518-1.2,4.808-1.188,6.241-.354,7.4,4.422.334,1.374.445,2.806.722,4.637a85.962,85.962,0,0,1,8.85.356,31.52,31.52,0,0,1,8.373,2.131,6.3,6.3,0,0,1,2.58,9.586c-1.428,2.134-3.469,3.857-5.675,6.244,1.09.45,1.989,1.124,2.9,1.144,4.379.093,8.812.434,13.134-.088,14.288-1.715,28.507.021,42.691.9,11.961.744,23.878,1.136,35.846.958,13.715-.2,27.435-.168,41.152-.194a21.017,21.017,0,0,1,3.193.444c1.025,2.118-.029,3.115-1.465,3.41a26.274,26.274,0,0,1-5.21.246c-14.882.008-29.765-.1-44.644.036-5.533.049-11.067.987-16.593.938-8.168-.075-16.331-.7-24.5-1.031-11.955-.478-23.914-.989-35.874-1.32-21.284-.592-42.594-.708-63.725-3.828-13.032.656-25.329-3.674-37.977-5.619a44.141,44.141,0,0,1-6.789-1.708,11.746,11.746,0,0,1-7.078-6.133,4.624,4.624,0,0,1,1.482-6.174,22.7,22.7,0,0,1,7.042-3.2c4.054-.824,7.411-2.718,12.3-5.006-6.6-2.826-11.8-3.955-17.38-3.273-2.291.281-4.665.971-6.877.636-12.2-1.844-24.479-.76-36.713-1.188-10.788-.377-21.565-.716-32.243-2.627-2.82-.507-5.8-.062-8.707-.155-4.646-.15-9.29-.312-13.927-.607a102.3,102.3,0,0,1-10.408-1.106,3.153,3.153,0,0,1-2-2.286,3.021,3.021,0,0,1,1.917-2.255c6.1-1.083,12.2-.173,18.282.447,1.152.116,2.355.93,3.395.72,9.457-1.9,18.457,1.963,27.772,2.069s18.639,1.214,27.967,1.524c13.123.439,26.259.423,39.383.876a57.056,57.056,0,0,1,12.032,1.922c1.726.442,3.118,2.181,4.769,3.407-4.722,9.491-14.637,10.594-22.6,15.518,2.8,3.376,6.13,4.154,9.429,4.833a347.847,347.847,0,0,0,42.47,5.8c6.972.56,13.941,1.149,20.917,1.65,1.991.145,4,.023,6.98.023-1.4-1.276-1.9-2.1-2.6-2.315-5.564-1.708-11.106-3.552-16.769-4.859-6.946-1.6-13.921-.013-20.87.584-2.023.176-4.03.625-6.05.7-4.732.157-7.647-3.079-9.644-6.531-2.077-3.583-.127-7.853,3.229-8.577a16.153,16.153,0,0,0,2.54-.643,9.109,9.109,0,0,0,1.733-1.361c-1.909-7.895-.848-15.854,2.465-24.117a28.387,28.387,0,0,0-5.225-.46c-2.885.3-5.742,1.4-8.6,1.359-11.757-.15-23.227,2.224-34.789,3.707a17.969,17.969,0,0,1-9.4-1c-7.569-3.079-8.69-9.628-2.39-14.9,1.947-1.633,4.405-2.661,6.918-4.136-.689-2.521-1.49-4.986-2.036-7.5-2.2-10.093,5.6-20.344,15.9-21,5.216-.331,9.026,2.144,11.679,6.347a50.212,50.212,0,0,1,3.11,6.97c7.932-.667,8.45-2.01,11.876,7.034a13.881,13.881,0,0,1,3.112.46c1.809.666,3.459,1.981,5.3,2.284,1.63.269,3.416-.63,5.148-.736,4.371-.264,5.167.142,9.84,4.216,2.664-5.781,2.942-8.272,2.152-19.473-1.865-2.015-3.826-4.139-6.087-6.582-2.285.16-4.852.491-7.411.47a20.714,20.714,0,0,1-6.017-.785c-6.879-2.185-8.1-5.425-4.608-11.782.964-1.757,2.08-3.431,3.214-5.285l-4.5-5.5a21.947,21.947,0,0,0-2.721.018c-2.862.383-5.7,1.075-8.576,1.222-8.44.431-13.746-4.394-17.058-11.4-2.359-4.994-3.685-10.447-2.186-16.456,2.4-1.258,4.924-2.586,7.618-4-.52-4.423-.612-8.83-1.646-13-1.06-4.286,1.34-7.99,1.074-12.547a13.248,13.248,0,0,0-2.971-.561c-11.08.369-22.225.189-33.219,1.372-17.383,1.87-34.812,3.534-52.04,6.678a22.912,22.912,0,0,1-4.337.527c-13.8-.173-27.285,2.516-40.845,4.492-2.506.364-5.007.739-9.171,1.354,8.615,4.57,16.722,5.928,24.037,9.25,7.422,3.369,14.971,6.461,22.382,9.855,7.427,3.4,14.864,6.81,22.085,10.62,7.111,3.751,15.5,5.443,21.107,12.457l-1.821,3.7c-.845,0-1.478.191-1.9-.029-9.069-4.681-18.052-9.537-27.187-14.089-8.613-4.3-17.38-8.282-26.081-12.4-1.578-.749-3.218-1.392-4.73-2.26-8.922-5.135-18.6-8.2-28.493-10.813-17.194-4.547-34.368-9.176-51.139-15.18-3.272-1.173-6.781-1.687-10.168-2.552-22.6-5.781-45.065-12.129-67.961-16.724a7.28,7.28,0,0,1-3.054-1.48,2.638,2.638,0,0,1-.837-2.178c.158-.651,1.041-1.235,1.733-1.615a2.618,2.618,0,0,1,1.705-.08c16.453,3.865,32.942,7.587,49.333,11.7,13.859,3.479,27.629,7.334,41.387,11.2,6.175,1.733,12.217,3.929,18.337,5.859,3.051.961,6.14,1.8,9.617,2.8,2.852-3.2,6.533-3.826,10.7-4.464,21.366-3.271,42.934-4.428,64.364-6.885,11.264-1.292,22.568-2.175,33.8-4.1,10.857-1.86,22.072-1.664,33.131-2.315,3.779-.222,7.571-.214,11.352-.424,2.451-.137,3.58,1.472,4.745,3.247l7.964-1.767a38.515,38.515,0,0,0-.023-4.348c-1.1-9.411,2.928-17.029,8.4-24.115,3.811-4.934,4.988-5.19,11.19-3.023.812.284,1.62.581,2.314.832,2.6-.62,3.1-2.757,3.526-4.7,1.408-6.388,4.591-11.963,7.706-17.584a25.7,25.7,0,0,1,1.267-2.294c3.029-4.348,6.517-4.942,10.208-1.382,3.818,3.681,6.867,7.951,7.895,13.342.318,1.671.615,3.343.979,5.335,3.573-.191,6.709-.442,9.851-.506,5.692-.116,7.964,1.961,8.093,7.75a58.4,58.4,0,0,1-.777,8.662c-.294,2.3-.8,4.567-1.228,6.923,5.96,4.42,8.417,11.157,12.225,17.148,1.785-.277,3.469-.558,5.161-.793,4.229-.592,8.089-.054,11.364,3.115a6.129,6.129,0,0,0,3.776,1.529c13.286.375,25.854,4.322,38.533,7.662,5.631,1.485,11.082,3.655,16.692,5.231a26.137,26.137,0,0,1,10.486,6.094c.511.457.472,1.527.689,2.312Zm-149.605,33.612c.349,3.456,3.291,4.469,5.605,6.174.907.667,1.248,2.1,1.948,3.369-9.8,1.912-10.364,2.434-10.1,8.9,4.4,2.64,8.931,1.8,13.428.323,2.214-.726,4.288-1.9,6.518-2.544a23.143,23.143,0,0,1,4.63-.462c1.839,2.2.255,5.1,2.3,6.593a9.008,9.008,0,0,0,6.154-4.913,3.2,3.2,0,0,1,2.645-1.478,4.247,4.247,0,0,1,2.393,2.255c.981,2.043-.1,4.6,1.772,6.577,3.272,3.457,6.791,6.327,11.65,7.231,4.75.883,8.807-.995,10.8-5.231a4.247,4.247,0,0,0-1.4-5.43c-1.437-.963-3.11-1.56-4.613-2.434-1.92-1.119-3.775-2.345-6.187-3.859,1.46-1.2,2.206-2.312,3.149-2.521,7.07-1.558,11.47-6.7,15.814-11.775,4.022-4.7,3.354-8.876-1.444-12.7-4.086-3.26-8.565-3.578-13.166-1.6a27.6,27.6,0,0,0-5.818,3.831c-3.671,2.878-7.2,5.942-10.87,8.82a11.744,11.744,0,0,1-3.044,1.191c-1.151-4.113,1.287-7.985-.927-11.343-3.335-1.271-4.117,4.12-7.326,2.924-1.465-3.469.752-7.014-.961-10.917-2.539,2.144-2.085,6.079-5.4,6.792-2.459-3.749-4.694-7.445-7.246-10.907a15.015,15.015,0,0,0-4.485-3.949c-3.13-1.809-5.786-1.406-7.6,1.594-4.231,6.969-6.324,14.358-2.575,22.338a5.559,5.559,0,0,0,4.639,3.449Zm65.372,8.507c4.015,4.495,7.993,5.456,12.925,3.128a19.575,19.575,0,0,0,8.486-7.241c4.988-7.74,6.233-16.195,5.058-25.125a10.525,10.525,0,0,0-5.771-8.261c-3.895-2.085-7.713-4.271-12.257-1.4a3.044,3.044,0,0,1-2.933-.654,3.872,3.872,0,0,1,.08-3.185c1.209-2.635,2.78-5.1,4.046-7.719a14.62,14.62,0,0,0,1.273-4.126c.524-3.459-1.568-5.239-4.335-6.776-2.575-1.431-4.965-1.85-7.22.243-1.705,1.578-3.118,3.461-4.77,5.1a10.16,10.16,0,0,1-2.395,1.3c-1.454-.853-2.883-1.692-4.409-2.586.447-2.4.94-4.366,1.145-6.357a29.875,29.875,0,0,0,.142-6.094c-.527-5.1-4.071-7.094-8.683-4.818a8.672,8.672,0,0,0-3.781,3.4c-1.581,3.076-3.273,6.326-3.762,9.674-.6,4.136-2.186,6.778-6.453,7.884a37.755,37.755,0,0,0-2.624-4.356,32.211,32.211,0,0,0-4.733-5.042c-2.063-1.677-4.389-1.214-6.166.829a6.476,6.476,0,0,0-1.535,2.1c-2.211,7.528-4.84,15-4.22,23.04.24,3.09,1.949,5.185,4.814,6.753.917-1.235,1.526-2.222,2.3-3.064,2.552-2.808,5.458-2.591,6.822.625,1.008,2.371,1.64,4.9,2.4,7.228l5.427,1.573c1.692,2,.871,4.573,3.382,5.856,3.508-2.3,7.017-4.864,10.765-7a16.743,16.743,0,0,1,22.974,5.554c2.864,4.5,2.583,8.788-.491,12.947C-2991.252-1238.513-2993.043-1236.6-2995.2-1234.044Zm-45.031-120.872a36.071,36.071,0,0,0-10.476,28.039c.346,4.42-1.167,7.146-4.8,9.137-3.49-2.979-4.937-8.305-10.595-8.61-3.916,2.754-5.665,6.453-5.912,11.155-.315,5.908.155,11.669,2.409,17.158.822,2,1.408,3.808-.162,6.138a19.733,19.733,0,0,1-3.762-1.279c-1.764-1-3.28-2.434-5.04-3.444-2.472-1.421-4.381-.953-6.1,1.312a16.91,16.91,0,0,0-1.826,2.958c-3.219,6.737-.966,12.351,3.428,17.45,3.229.323,5.924-3.252,9.659-.294-2.054,1.6-3.929,3.053-5.895,4.585.227.878.434,1.7.65,2.524.281,1.049.571,2.1.967,3.547-1.765.486-3.1.894-4.454,1.219-2.263.54-4.593.858-6.789,1.586-2.547.842-3.573,4.717-1.638,6.51,5.239,4.854,10.834,8.972,19.083,6.123.229-1.271.446-2.679.744-4.066.919-4.257,1.689-8.558,2.849-12.749,1.568-5.65,5.268-8.889,11.354-9.023a7.012,7.012,0,0,0,1.883-.749c.532-2.6.907-5.464,1.723-8.194a93.364,93.364,0,0,1,4.539-13.154c2.813-5.968,9.356-8.086,15.516-5.51,1.818.76,3.516,1.813,4.883,2.527,3.5-4.97,6.845-9.675,10.146-14.407a8.828,8.828,0,0,0,1.663-2.968c1-4.841,1.94-9.7,2.589-14.6.158-1.2-.871-2.55-1.393-3.942-1.268.48-2.4.548-2.815,1.126-3.666,5.12-7.205,10.333-10.775,15.508-.578-.145-1.276-.116-1.63-.452a3.836,3.836,0,0,1-1.374-2.072c-.152-2.9-.021-5.823-.062-8.734-.054-3.787.047-7.592-.317-11.354C-3032.485-1347.352-3034.457-1352.085-3040.232-1354.916Zm-16.642,211.223c-1.8,2.485.025,3.865,1.493,3.97a35.93,35.93,0,0,0,10.388-.473c8.559-1.933,16.729-1.016,24.905,1.865,6.04,2.128,12.225,3.846,18.362,5.686,4.792,1.436,9.2.814,13.128-2.531,2.749-2.343,2.247-5.275-1.263-6.688-3.922-1.581-7.99-1.524-12.075-.93-2.214.323-4.4.811-7.031,1.307a17.423,17.423,0,0,1,.028-3.043c.31-1.4,1.1-2.761,1.105-4.141a4.255,4.255,0,0,0-1.573-2.777,2.606,2.606,0,0,0-2.387.15c-2.437,1.583-4.679,3.472-7.138,5.017-1.064.672-2.48.785-4.379,1.338v-9.922c-6-1.956-8.011,4.441-12.1,5.371-2.552-1.917-1.7-3.95-1.149-5.823a33.574,33.574,0,0,0,1.418-13.839c-.625-4.981-2.324-9.478-6.92-12.015-11.2,6.481-14.769,14.392-11.917,25.727.638,2.539,1.584,5.007,2.173,7.556a26.014,26.014,0,0,1,.5,5.13c.009.341-.713.706-1.162,1.119Zm-53.758-36.115a19.724,19.724,0,0,0,2.616,1.956c4.09,2.157,8.51,1.95,12.795,1.126a147.6,147.6,0,0,1,22.431-2.589c4.88-.183,9.75-1.361,14.567-2.356a11.069,11.069,0,0,0,7.69-5.3,6.332,6.332,0,0,0,.215-4.867c-.721-1.754-2.862-1.987-4.575-1.359-2.168.8-4.12,2.224-6.313,2.891-1.2.367-3.71.075-3.911-.509-1.344-3.909-5.448-1.036-7.455-3.454-1.23-2.2.98-5.864-2.853-7.608-1.444,1.235-3.01,2.506-4.5,3.865-1.162,1.064-2.307,1.733-4.192.243-.1-1.627-.14-3.63-.367-5.606a25.079,25.079,0,0,0-1.041-5.97c-2.358-6.252-8.579-8.044-14.18-4.286-5.477,3.679-7.306,8.974-6.13,15.177.584,3.074,2.118,5.98,3.354,8.907a5.275,5.275,0,0,1-.45,5.65C-3108.274-1184.84-3108.274-1184.84-3110.631-1179.808Zm71.024-4.472c9.565,6.451,8.334,16.319,7.67,26.748l8.726-3.438c-1.562-9.256-5.089-17.634-5.543-26.66-.447-8.9-1.4-17.768-2.137-26.693-6.058,1.276-6.354,1.459-6.605,5.352-.276,4.327-.395,8.664-.581,12.963l1.933,1.769C-3039.126-1190.477-3039.126-1190.477-3039.607-1184.28Zm-52.293-82.376c-.474-.114-1.011-.421-1.4-.292s-.628.7-.933,1.075c.462.108.992.408,1.371.279C-3092.466-1265.73-3092.213-1266.281-3091.9-1266.656Z" transform="translate(71.545 0)" fill="#000"/>
    <path id="Path_916" data-name="Path 916" d="M-3248.97-1186.153l-.738-5.42-6.136-.568c-1.346-4.265,4.146-3.865,4.1-7.362-6.185-.581-9.075,4.5-13.3,7.638.285-7.943,5.544-11.359,19.576-12.681-5.109-2.444-9.937-2.405-14.252-4.2-4.084-1.7-9.069-1.225-13.446-1.684-1.28-2.679.182-3.852,2-3.986,3.735-.274,7.5-.08,12.237-.08-1.139-1.943-1.768-3.124-2.5-4.24-2.236-3.4-4.53-6.771-6.765-10.178-1.819-2.772-3.3-5.616-.584-8.5-1-.733-1.4-1.289-1.847-1.323-14.828-1.173-29.411-3.973-44.048-6.435-4.3-.726-8.7-.876-13.043-1.4a110.7,110.7,0,0,1-12.971-1.857c-6.312-1.532-8.23-3.9-10.535-11.325.845-2.544,3.222-3.074,5.363-3.945,9.5-3.867,19.636-5.453,29.432-8.264,16.245-4.66,32.605-9.042,48.17-15.7,5.007-2.142,9.538-5.588,13.929-8.91,3.349-2.529,2.7-6.709-1.092-8.427a51.931,51.931,0,0,0-8.313-2.635c-8.579-2.25-17.326-2.074-26.091-1.71-5.521.227-11.106.821-16.56.25-15.153-1.589-30.284-.266-45.419-.237-10.2.021-20.411.147-30.6.6-6.7.3-13.385.726-20.062-.083-2.5-.3-4.955-.93-7.094-1.343-.821-2.227.455-2.878,1.434-3.051a38.08,38.08,0,0,1,7.766-.772c12.542.4,25.076-.15,37.634.217,15.706.457,31.47-1.026,47.2-1.749,12.229-.561,24.425-1.963,36.7-.927,7.634.643,14.79,3.193,22.013,5.36,2.963.891,5.668,2.971,8.2,4.887,3.085,2.33,3.707,5.162,1.39,8.427-3.175,4.474-6.771,8.635-11.761,11.407-8.492,4.712-17.8,7.218-26.942,10.083-16.948,5.308-33.8,11-51.265,14.549-1.429.292-2.671,1.5-5.17,2.96a79.952,79.952,0,0,0,16.247,4.338c10.093,1.47,20.206,2.847,30.235,4.688,16.956,3.116,34.184,3.508,51.249,5.49,3.16.367,6.489,0,9.207,2.7-.612,3.257-3.374,3.75-5.841,3.779-3.771.047-7.546-.648-11.325-.772-1.583-.052-3.187.558-6.012,1.1a14.572,14.572,0,0,0,6.926,2.939c2.281.483,4.627.664,6.9,1.186s4.479,1.3,6.714,1.969,4.461,1.33,7.189,2.144a27.385,27.385,0,0,1,1.426-4.867c1.831-3.617,3.3-7.686,6.019-10.514,3.385-3.521,4.894-6.872,3.875-11.682-.526-2.49-.093-5.185-.093-7.595l-5.905-3.622,5.337-3.614c.889-3.082,1.266-6.376,2.78-9.013,1.224-2.129,3.673-3.694,5.841-5.107a8.664,8.664,0,0,1,13.337,5.916c.391,2.823.067,5.748.067,8.969,2.47.532,4.728.9,6.89,1.571a2.332,2.332,0,0,1,1.139,1.979,2.365,2.365,0,0,1-1.73,1.465c-2.3.178-4.614.07-7.378.07,1.075,6.05-.524,11.232-2.935,16.58,8.29,6.727,8.326,15.425,5.516,24.43,6.029,2.994,6.489,3.056,18.168,2.6,1.724-2.888,3.112-6.153,5.342-8.675,2.069-2.341,5.035-3.888,7.988-6.068-.4-3.268-1.493-6.774-1.031-10.062.458-3.252,2.485-6.288,3.715-9.166-2.482-2.779-7.179,1.054-8.452-4.162l8.372-1.018a21.157,21.157,0,0,1,7.394-12.258c3.4-2.818,6.12-2.852,9.235.277a21.316,21.316,0,0,1,3.366,5.006c.955,1.77,1.617,3.7,2.57,5.937h12.694c-3.862,4.588-9.435,2.33-13.836,5.4a34.734,34.734,0,0,1-10.532,20.6c-.271,4.794,2.475,7.148,5.965,9.059,4.156,2.281,8.391,4.224,13.278,2.87a4.784,4.784,0,0,1,4.869,1.109c4.624,4.616,10.338,4.75,16.3,4.577,4.945-.145,9.91.049,14.852.336a3.416,3.416,0,0,1,2.5,1.984,3.341,3.341,0,0,1-1.327,2.834c-8.466,5.146-16.024,11.733-25.118,15.88-1.542.705-3.058,1.47-4.755,2.289,3.854,3.935,6.623.308,9.5-.5,1.65,1.165.708,2.255-.008,2.986-3.03,3.105-6.213,4.444-10.928,2.917-12.247-3.96-24.987-5.645-37.821-6.2a53.87,53.87,0,0,1-13.788-2.023c-8.977-2.79-18.152-3.924-27.5-4.51-6.972-.437-13.893-1.684-20.836-2.586-1.729-.222-3.446-.625-5.18-.736-5.123-.323-10,2.842-10.961,7.853A20.29,20.29,0,0,1-3248.97-1186.153Zm142.342-26.306a34.2,34.2,0,0,0-4.126-.8q-20.947-.423-41.9-.775a47.724,47.724,0,0,0-6.984.075c-6.72.881-13.369.106-19.987-.736-11.537-1.465-23.035-3.221-34.562-4.756-1.674-.222-3.958-.561-5.027.3-3.206,2.588-6.993,4.918-8.386,9.661,6.627,2.1,12.977,2.609,19.315,3.152,4.348.372,8.724.473,13.051,1,14.418,1.762,28.559,5.732,43.244,5.42a17.2,17.2,0,0,1,3.395.747C-3132.812-1196.189-3119.75-1201.924-3106.628-1212.458Zm-153.494-18.186c4.381,7.533,8.2,13.175,13.95,17.429a10.746,10.746,0,0,0,11.506,1.354,23.615,23.615,0,0,0,10.829-9.478C-3235.594-1224.714-3246.516-1229.382-3260.123-1230.645Zm106.264-26.448c-1.183,2.3-2.071,3.8-2.743,5.381a15.131,15.131,0,0,0-.876,10.222,3.818,3.818,0,0,0,2.165,2.366,3.5,3.5,0,0,0,3.025-.956c3.394-4.348,6.822-8.76,6.38-14.774a5.612,5.612,0,0,0-.811-1.648,13,13,0,0,0-2.328-.563C-3150.469-1257.162-3151.906-1257.093-3153.859-1257.093Zm-59.09,25.515c3.738-1.72,5.521-4.916,9-6.024,2.762-.876,2.483-5.368-.129-7.047a16.105,16.105,0,0,0-3.864-1.684,41.384,41.384,0,0,0-4.2-.873l-6.125,8.419C-3216.425-1236.3-3214.9-1234.23-3212.949-1231.577Zm51.712,5.347a17.189,17.189,0,0,1,.509-1.9c.444-.881,1.534-2.116,1.274-2.55-.969-1.61-2.426-1.121-3.57-.013a82.869,82.869,0,0,0-6.017,6.2c-.783.938-.933,2.4-1.653,4.412,5.425,0,9.984.062,14.541-.028,1.738-.036,2.537-1.085,2-3.255C-3156.266-1224.22-3158.583-1225.158-3161.237-1226.23Zm-42.051-44.818a9.417,9.417,0,0,0,1.187-8.086,4.477,4.477,0,0,0-6.386-2.387c-3.664,2.34-5.873,5.391-4.537,10.253A17.161,17.161,0,0,0-3203.288-1271.048Zm-8.067,5.523a18.208,18.208,0,0,0,.842,11.847,4.194,4.194,0,0,0,2.349,2.2c1.581.418,2.537-.84,3.231-2.178,1.894-3.663,1.966-7.533,1.809-11.87Zm54.861,5.564c4.051-2.4,8.563,1.93,11.842-2.829a7.305,7.305,0,0,0-.362-2.289c-2.131-4.322-4.3-4.986-8.222-2.7C-3155.687-1266.356-3157.08-1264.406-3156.494-1259.96Zm-42.856,25.262c-3.465,4.887-8.491,5.182-12.077,9.512l10.193,1.149C-3199.612-1227.087-3198.413-1229.616-3199.35-1234.7Zm60.608,14.161c-3.04-.746-6.062-1.6-9.142-2.141-.565-.1-1.356,1.1-2.295,1.919C-3143.8-1218.33-3143.8-1218.312-3138.742-1220.537Zm-81.831-13.766c-1.107,2.015-2.167,3.315-2.479,4.774a3.061,3.061,0,0,0,1.7,2.5,6.683,6.683,0,0,0,4.021-.429c.361-.147.375-2.113-.039-2.956C-3217.976-1231.634-3219.113-1232.59-3220.573-1234.3Z" transform="translate(4.795 71.71)" fill="#000"/>
    <path id="Path_917" data-name="Path 917" d="M-3353.9-1308.92a53.371,53.371,0,0,1-18.78,2.454c-3.983-.24-7.926-1.2-11.956-.449a2.1,2.1,0,0,1-1.625-.413,4.174,4.174,0,0,1-1.139-2.007,1.6,1.6,0,0,1,.971-1.238c4.054-.2,8.311-1.1,12.118-.181,5.183,1.25,10.326.863,15.469,1.328C-3357.2-1309.276-3355.549-1309.09-3353.9-1308.92Z" transform="translate(40.267 80.634)" fill="#000"/>
    <path id="Path_918" data-name="Path 918" d="M-3305.847-1270.146c-2.905,5.831-7.444,7.228-13.167,6.487-4.513-.584-9.075-.793-14.117-1.212-.755-.925-.432-2.366,1.255-2.73,3.046-.659,6.4-1.71,9.262-1.033a20.451,20.451,0,0,0,14.221-1.684C-3307.96-1270.529-3307.3-1270.262-3305.847-1270.146Z" transform="translate(125.598 145.174)" fill="#000"/>
    <path id="Path_919" data-name="Path 919" d="M-3379.33-1271.688c.165-1.142.108-1.516.267-1.666a3.077,3.077,0,0,1,1.376-.976c7.934-1.186,15.875-2.312,25.041-3.627-3.653,4.027-7.814,4.224-11.366,5.12C-3368.9-1271.6-3373.893-1269.182-3379.33-1271.688Z" transform="translate(53.061 133.202)" fill="#000"/>
    <path id="Path_920" data-name="Path 920" d="M-3308.552-1287.362c.857,2.395.09,4.055-1.961,4.167-4.345.233-8.717.065-13.068-.131-.541-.023-1.4-1.189-1.437-1.863-.035-.651.771-1.374,1.264-2.02a1.083,1.083,0,0,1,.762-.364C-3318.136-1287.538-3313.233-1288.638-3308.552-1287.362Z" transform="translate(139.05 117.334)" fill="#000"/>
    <path id="Path_921" data-name="Path 921" d="M-3361.386-1282.575c-7.35,4.314-13.624,4.325-19.922,3.885a16.611,16.611,0,0,1-4.733-1.5c-.186-.072-.022-1.025-.025-1.57.5-.271.992-.775,1.49-.78C-3377.446-1282.593-3370.316-1282.575-3361.386-1282.575Z" transform="translate(42.293 125.887)" fill="#000"/>
    <path id="Path_922" data-name="Path 922" d="M-3285.9-1255.211c5.643-4.169,11.325-3.784,16.59-4.763,1.147-.215,2.512.736,5.144,1.6-6.778,3.291-12.748,3.666-18.5,4.774C-3283.29-1253.482-3284.09-1254.275-3285.9-1255.211Z" transform="translate(200.994 161.627)" fill="#000"/>
    <path id="Path_923" data-name="Path 923" d="M-3373.954-1305.837c5.728-2.8,11.726-1.534,17.943-1.8-3.068,2.924-6.425,4.232-11.647,4.441C-3369.9-1303.109-3372.437-1302.641-3373.954-1305.837Z" transform="translate(61.572 86.112)" fill="#000"/>
    <path id="Path_924" data-name="Path 924" d="M-3320.99-1258.669a12.53,12.53,0,0,1-.276-2.132c6.44-2.139,12.41-6.016,19.6-5.406a2.533,2.533,0,0,1,.777.369C-3304.48-1263.108-3312.54-1260.191-3320.99-1258.669Z" transform="translate(144.957 151.705)" fill="#000"/>
    <path id="Path_925" data-name="Path 925" d="M-3245.9-1262.24a62.309,62.309,0,0,1-20.3.912C-3263.623-1264.934-3257.733-1265.29-3245.9-1262.24Z" transform="translate(232.167 154.823)" fill="#000"/>
    <path id="Path_926" data-name="Path 926" d="M-3316.381-1301.793c-4.7-1.428-6.941-4.864-7.27-9.522-.108-1.521.375-3.64,3.139-3.038l1.473,6.926,5.425-3.278C-3313.988-1305.461-3314.025-1305.471-3316.381-1301.793Z" transform="translate(141.196 75.413)" fill="#000"/>
    <path id="Path_927" data-name="Path 927" d="M-3255.806-1259.78c-4.521,3-6.729,3.4-14.4,2.816-1.687-.129-3.622-.044-4.012-3.066C-3268.234-1262.144-3262.36-1260.906-3255.806-1259.78Z" transform="translate(219.488 159.767)" fill="#000"/>
    <path id="Path_928" data-name="Path 928" d="M-3304.033-1313.229c5.747-3,10.968-4.991,18.517-4.074a35.822,35.822,0,0,1-15.83,5.389C-3302.183-1311.821-3303.134-1312.764-3304.033-1313.229Z" transform="translate(172.278 70.551)" fill="#000"/>
    <path id="Path_929" data-name="Path 929" d="M-3347.951-1308.929c-4.278.39-8.554.84-12.839,1.1a2.4,2.4,0,0,1-1.881-1.294c-.177-.514.462-1.863.924-1.958C-3357.011-1312.058-3352.273-1312.543-3347.951-1308.929Z" transform="translate(79.39 79.643)" fill="#000"/>
    <path id="Path_930" data-name="Path 930" d="M-3369.886-1287.07c5.112,1.483,10.222,2.963,15.216,4.409.584,2-.664,1.844-1.744,1.979a19.667,19.667,0,0,1-13.037-3.156c-.595-.367-.869-1.253-1.292-1.9Z" transform="translate(66.655 118.776)" fill="#000"/>
    <path id="Path_931" data-name="Path 931" d="M-3384.363-1249.2l3.677,5.986c.994-1.379,1.949-2.71,3.161-4.394.754,6.148.754,6.148-3,9.881C-3384.98-1239.623-3385.525-1243.2-3384.363-1249.2Z" transform="translate(44.258 178.74)" fill="#000"/>
    <path id="Path_932" data-name="Path 932" d="M-3201.167-1311.48c-.262,5.239-.47,9.458-.7,13.986-2.864-1.028-3.717-3.355-3.327-5.947C-3204.769-1306.236-3206-1310.028-3201.167-1311.48Z" transform="translate(328.635 80.128)" fill="#000"/>
    <path id="Path_933" data-name="Path 933" d="M-3297.431-1264.979c-2.346,3.779-5.616,4.559-8.967,4.841-.762.062-1.635-1.183-2.456-1.829.705-.749,1.327-2.028,2.131-2.154C-3303.659-1264.61-3300.533-1264.726-3297.431-1264.979Z" transform="translate(164.644 153.752)" fill="#000"/>
    <path id="Path_934" data-name="Path 934" d="M-3269.548-1301.443c1.093,4.146-2.211,3.542-3.169,4.968a22.815,22.815,0,0,0-1.774,4.089c-2.6-.481-3.7-1.808-3.253-3.7a5.6,5.6,0,0,1,2.33-3.232C-3273.789-1300.283-3271.815-1300.663-3269.548-1301.443Z" transform="translate(213.746 96.019)" fill="#000"/>
    <path id="Path_935" data-name="Path 935" d="M-3344.167-1318.5a9.029,9.029,0,0,1,3.285-9.271C-3339.9-1323.981-3341.579-1321.139-3344.167-1318.5Z" transform="translate(108.372 54.334)" fill="#000"/>
    <path id="Path_936" data-name="Path 936" d="M-3308.011-1241.287c.568,4.686.992,8.187,1.475,12.167C-3311.979-1233.085-3312.154-1234.361-3308.011-1241.287Z" transform="translate(161.412 191.263)" fill="#000"/>
    <path id="Path_937" data-name="Path 937" d="M-3273.722-1331.312v7.305c-2.41,1.372-3.487-.279-3.688-1.878C-3277.7-1328.142-3276.743-1330.147-3273.722-1331.312Z" transform="translate(214.353 48.727)" fill="#000"/>
    <path id="Path_938" data-name="Path 938" d="M-3308.751-1318.647c5.024-2.033,8.232-3.059,12.732-1.1C-3300.015-1317.363-3303.144-1315.828-3308.751-1318.647Z" transform="translate(164.806 65.38)" fill="#000"/>
    <path id="Path_939" data-name="Path 939" d="M-3270.387-1273.945c4.882-1.511,7.9,1.276,11.289,1.612.24,2.023-.94,2.333-2.046,2.265C-3265.017-1270.3-3265.618-1270.592-3270.387-1273.945Z" transform="translate(225.549 138.851)" fill="#000"/>
    <path id="Path_940" data-name="Path 940" d="M-3372.912-1304.422h-8.788c1.509-1.284,2.154-2.3,2.909-2.39C-3376.675-1307.051-3374.36-1307.638-3372.912-1304.422Z" transform="translate(49.308 87.2)" fill="#000"/>
    <path id="Path_941" data-name="Path 941" d="M-3374.118-1301.984c3.2-3.441,6.522-2.847,10.565-1.661C-3368.6-1300.251-3368.6-1300.251-3374.118-1301.984Z" transform="translate(61.313 91.063)" fill="#000"/>
    <path id="Path_942" data-name="Path 942" d="M-3201.665-1300.159c-1.553-6.017-1-7.931,3.433-10.2-.809,3.338-1.485,6.29-2.273,9.215C-3200.614-1300.737-3201.264-1300.481-3201.665-1300.159Z" transform="translate(333.111 81.909)" fill="#000"/>
    <path id="Path_943" data-name="Path 943" d="M-3210.414-1294.1c-.349,4.57-.559,7.28-.788,10.292C-3214.857-1286.608-3214.853-1288.706-3210.414-1294.1Z" transform="translate(315.064 107.637)" fill="#000"/>
    <path id="Path_944" data-name="Path 944" d="M-3209.346-1284c-1.854.349-2.916-.731-2.3-2.247a48.989,48.989,0,0,1,3.847-6.551C-3206.525-1290.093-3206.424-1290.059-3209.346-1284Z" transform="translate(318.271 109.699)" fill="#000"/>
    <path id="Path_945" data-name="Path 945" d="M-3296.586-1314.5l8.135.442C-3291.855-1311.135-3291.855-1311.135-3296.586-1314.5Z" transform="translate(184.069 75.34)" fill="#000"/>
    <path id="Path_946" data-name="Path 946" d="M-3370.074-1279.695c2.689-3.151,4.462-1.984,6.332-.553C-3366.333-1278.852-3366.333-1278.852-3370.074-1279.695Z" transform="translate(67.716 127.282)" fill="#000"/>
    <path id="Path_947" data-name="Path 947" d="M-3357.75-1277.258c-1.659,2.653-3.88,1.8-5.668,2.159a2.281,2.281,0,0,1-1.958-1.054c-.279-1.374.86-1.976,2.028-1.9C-3361.578-1277.948-3359.822-1277.568-3357.75-1277.258Z" transform="translate(75.087 133.037)" fill="#000"/>
    <path id="Path_948" data-name="Path 948" d="M-3346.436-1327.331c.48.259,1.145.4,1.405.8.757,1.165,1.739,2.433.449,3.8a1.656,1.656,0,0,1-1.434-.1,29.874,29.874,0,0,1-.969-3.9C-3347.015-1326.881-3346.629-1327.124-3346.436-1327.331Z" transform="translate(104.27 55.03)" fill="#000"/>
    <path id="Path_949" data-name="Path 949" d="M-3260.957-1275.08c-.5.219-1.025.674-1.478.607a36.031,36.031,0,0,1-3.677-.914c.174-.486.349-1.392.514-1.39a18.742,18.742,0,0,1,3.84.406C-3261.412-1276.291-3261.22-1275.529-3260.957-1275.08Z" transform="translate(232.319 135.073)" fill="#000"/>
    <path id="Path_950" data-name="Path 950" d="M-3271.424-1330.661a37.107,37.107,0,0,1-.71,4.394,16.255,16.255,0,0,1-1.5,2.671C-3276.25-1327-3274.788-1328.45-3271.424-1330.661Z" transform="translate(218.286 49.758)" fill="#000"/>
    <path id="Path_951" data-name="Path 951" d="M-3260.407-1272c-.791.186-1.654.674-2.225.439-.48-.2-.617-1.229-.909-1.891a10.841,10.841,0,0,1,2.428-.217C-3260.87-1273.636-3260.722-1272.776-3260.407-1272Z" transform="translate(236.388 139.965)" fill="#000"/>
    <path id="Path_952" data-name="Path 952" d="M-3316.074-1268.35c-.615.808-.972,1.671-1.6,1.994a3.47,3.47,0,0,1-2.242-.015,1.447,1.447,0,0,1-.405-1.268,3.524,3.524,0,0,1,1.8-1.274A7.094,7.094,0,0,1-3316.074-1268.35Z" transform="translate(146.408 147.493)" fill="#000"/>
    <path id="Path_953" data-name="Path 953" d="M-3306.043-1266.109l-1.979,1.669a8.75,8.75,0,0,1-1.209-1.948c-.083-.256.744-1.152.948-1.088A11.066,11.066,0,0,1-3306.043-1266.109Z" transform="translate(164.037 149.793)" fill="#000"/>
    <path id="Path_954" data-name="Path 954" d="M-3300.426-1263.927c.3-1.413.788-2.754,2.6-2.074.586.22,1.412,1.408,1.255,1.744C-3297.566-1262.132-3299.018-1262.891-3300.426-1263.927Z" transform="translate(177.988 151.845)" fill="#000"/>
    <path id="Path_955" data-name="Path 955" d="M-3379.262-1303.408a13.031,13.031,0,0,1,2.222,2.053c.145.207-.683,1.1-1.062,1.672a21.345,21.345,0,0,1-2.161-2.072C-3380.373-1301.884-3379.763-1302.6-3379.262-1303.408Z" transform="translate(51.561 92.908)" fill="#000"/>
    <path id="Path_956" data-name="Path 956" d="M-3360.875-1279.805c-.418-1.121-1.016-2.007-.8-2.3a3.594,3.594,0,0,1,1.935-.925c.091-.023.724.995.589,1.315C-3359.4-1281.128-3360.027-1280.7-3360.875-1279.805Z" transform="translate(80.939 125.169)" fill="#000"/>
    <path id="Path_957" data-name="Path 957" d="M-3292.373-1314.831c-.486-.129-.969-.256-1.452-.383l.754-1.775c.429.277,1.062.47,1.222.858C-3291.722-1315.82-3292.174-1315.272-3292.373-1314.831Z" transform="translate(188.44 71.406)" fill="#000"/>
    <path id="Path_958" data-name="Path 958" d="M-3361.9-1308.2a6.232,6.232,0,0,1-2.01.382c-.284-.039-.46-.842-.685-1.3a7.228,7.228,0,0,1,1.892-.517C-3362.493-1309.632-3362.269-1308.872-3361.9-1308.2Z" transform="translate(76.384 83.058)" fill="#000"/>
    <path id="Path_959" data-name="Path 959" d="M-3355.21-1304.783l-7.62.382C-3359.524-1307.115-3357.739-1307.118-3355.21-1304.783Z" transform="translate(79.183 88.031)" fill="#000"/>
    <path id="Path_960" data-name="Path 960" d="M-3251.805-1261.125c-.25.609-.39,1.364-.6,1.385a10.438,10.438,0,0,1-2.193-.212l.744-1.955C-3253.173-1261.647-3252.492-1261.389-3251.805-1261.125Z" transform="translate(250.55 158.614)" fill="#000"/>
    <path id="Path_961" data-name="Path 961" d="M-3259.992-1258.069c-.685-.6-1.317-.891-1.359-1.248-.165-1.454.954-1.821,2.033-1.718.561.052,1.054.793,1.579,1.222Z" transform="translate(239.83 159.971)" fill="#000"/>
    <path id="Path_962" data-name="Path 962" d="M-3367.946-1310.488l1.149.92-1.911,1.232c-.2-.488-.644-1.041-.53-1.439C-3369.144-1310.108-3368.4-1310.258-3367.946-1310.488Z" transform="translate(69.011 81.698)" fill="#000"/>
    <path id="Path_963" data-name="Path 963" d="M-3190.933-1328.627l1.483.1-.559.917c-.254-.408-.507-.814-.763-1.219Z" transform="translate(351.347 52.664)" fill="#000"/>
    <path id="Path_964" data-name="Path 964" d="M-3363.874-1279.235l-.909.811a8.127,8.127,0,0,1-.452-1.395c-.023-.147.354-.354.548-.535Z" transform="translate(75.374 129.409)" fill="#000"/>
    <path id="Path_965" data-name="Path 965" d="M-3301.32-1319.745c.279-.269.609-.782.829-.741.361.073.653.506.974.785-.188.168-.413.506-.559.473A6.547,6.547,0,0,1-3301.32-1319.745Z" transform="translate(176.571 65.864)" fill="#000"/>
    <path id="Path_966" data-name="Path 966" d="M-3305.293-1237.3c-.344.315-.677.852-.989.842-.369-.013-.721-.5-1.08-.785.2-.2.429-.576.6-.553A7.974,7.974,0,0,1-3305.293-1237.3Z" transform="translate(167.007 196.787)" fill="#000"/>
    <path id="Path_967" data-name="Path 967" d="M-3248.5-1313.157c0-.793-.343-1.935.052-2.32,2.349-2.291,2.809-2.281,7.893-.793-2.57,2.26-4.526,4.777-8.23,2.816Z" transform="translate(259.754 70.903)" fill="#000"/>
    <path id="Path_968" data-name="Path 968" d="M-3236-1328.676c-1.06,2.733-2.6,4.082-5.185,3.854a1.777,1.777,0,0,1-1.212-.987,1.853,1.853,0,0,1,.193-1.586C-3240.557-1329.355-3238.531-1329.477-3236-1328.676Z" transform="translate(269.707 52.167)" fill="#000"/>
    <path id="Path_969" data-name="Path 969" d="M-3232.48-1332.5c-2.884,1.61-4.2,2.547-5.658,3.043-.5.171-1.782-.633-1.994-1.24-.454-1.3.442-2.209,1.752-2.266C-3237.017-1333.024-3235.643-1332.771-3232.48-1332.5Z" transform="translate(273.261 46.097)" fill="#000"/>
    <path id="Path_970" data-name="Path 970" d="M-3218.174-1313.295l1.733,1.573c-.54.592-.972,1.452-1.639,1.713-1.126.441-2.691-.958-2.159-1.8C-3219.858-1312.419-3219-1312.729-3218.174-1313.295Z" transform="translate(304.779 77.254)" fill="#000"/>
    <path id="Path_971" data-name="Path 971" d="M-3233.117-1328.061c-1,.922-1.853,2-2.1,1.881a10.966,10.966,0,0,1-2.294-1.979c.563-.566,1.211-1.659,1.669-1.584C-3234.978-1329.6-3234.218-1328.789-3233.117-1328.061Z" transform="translate(277.597 51.206)" fill="#000"/>
    <path id="Path_972" data-name="Path 972" d="M-3217.8-1314.262l1.9-1.5c.264.429.853,1.044.731,1.25a7.948,7.948,0,0,1-1.493,1.532Z" transform="translate(308.814 73.354)" fill="#000"/>
    <path id="Path_973" data-name="Path 973" d="M-3247.069-1340.075c1.592,3.159.491,4.8-.935,6.192-.439.427-1.922.555-2.2.219-.6-.726-1.273-2.237-.93-2.715C-3250.192-1337.686-3248.74-1338.626-3247.069-1340.075Z" transform="translate(255.889 34.853)" fill="#000"/>
    <path id="Path_974" data-name="Path 974" d="M-3257.512-1331.9c2.087-1.617,4.043-1.5,5.942.328C-3254.113-1328.022-3255.542-1328.1-3257.512-1331.9Z" transform="translate(245.934 45.996)" fill="#000"/>
    <path id="Path_975" data-name="Path 975" d="M-3249.011-1337.969c-.9-1.207-1.723-1.816-1.774-2.485-.134-1.78,1.237-2.547,2.733-2.7.658-.07,1.4.638,2.1.992Z" transform="translate(256.57 29.963)" fill="#000"/>
    <path id="Path_976" data-name="Path 976" d="M-3249.323-1330.66c-1.088.674-1.795,1.454-2.354,1.361-.493-.085-.936-1.105-1.152-1.79-.057-.178.874-.984,1.235-.914A8.834,8.834,0,0,1-3249.323-1330.66Z" transform="translate(253.345 47.626)" fill="#000"/>
    <path id="Path_977" data-name="Path 977" d="M-3245.429-1315.087h7.693C-3241.533-1311.356-3242.876-1311.305-3245.429-1315.087Z" transform="translate(265.065 74.416)" fill="#000"/>
    <path id="Path_978" data-name="Path 978" d="M-3240.3-1320.506c-4.908,3.345-4.908,3.345-8.1.219C-3245.725-1322.134-3243.289-1321.666-3240.3-1320.506Z" transform="translate(260.359 64.222)" fill="#000"/>
    <path id="Path_979" data-name="Path 979" d="M-3242.451-1315.025c-.868-.829-1.736-1.289-1.863-1.9a1.978,1.978,0,0,1,1.223-1.558,2.162,2.162,0,0,1,1.661,1.245C-3241.284-1316.745-3241.966-1316-3242.451-1315.025Z" transform="translate(266.817 69.038)" fill="#000"/>
    <path id="Path_980" data-name="Path 980" d="M-3228.35-1306.527l1.491,1.3c-.476.264-.951.741-1.421.734s-.92-.5-1.379-.786Z" transform="translate(290.033 87.97)" fill="#000"/>
    <path id="Path_981" data-name="Path 981" d="M-3239.842-1282.671c-.259.494-.447,1.348-.785,1.413a32.26,32.26,0,0,1-3.914.315c.039-.489-.033-1.354.13-1.4a31.85,31.85,0,0,1,3.887-.786C-3240.325-1283.156-3240.072-1282.831-3239.842-1282.671Z" transform="translate(266.471 125.014)" fill="#000"/>
    <path id="Path_982" data-name="Path 982" d="M-3242.826-1288.141l1.132,2.245a11.357,11.357,0,0,1-2.051.943c-.143.036-.83-.927-.716-1.211A9.161,9.161,0,0,1-3242.826-1288.141Z" transform="translate(266.577 117.08)" fill="#000"/>
    <path id="Path_983" data-name="Path 983" d="M-3244.211-1285a20.812,20.812,0,0,1,2.966-.385c.256,0,.568.706.733,1.134.042.111-.377.582-.57.574-1.039-.036-2.069-.173-3.105-.277Z" transform="translate(266.993 121.436)" fill="#000"/>
    <path id="Path_984" data-name="Path 984" d="M-3252.274-1294.021h-7.615C-3256.815-1297.49-3256.815-1297.49-3252.274-1294.021Z" transform="translate(242.169 103.65)" fill="#000"/>
    <path id="Path_985" data-name="Path 985" d="M-3263.415-1290.88c1.8-3.353,4.554-2.736,7.59-2.371C-3258.623-1289.5-3258.623-1289.5-3263.415-1290.88Z" transform="translate(236.587 108.522)" fill="#000"/>
    <path id="Path_986" data-name="Path 986" d="M-3256-1298.924c-3.185.3-4.8.511-6.428.543-.312.008-.875-.685-.9-1.077a1.727,1.727,0,0,1,.721-1.3C-3260.741-1301.905-3259.049-1301.6-3256-1298.924Z" transform="translate(236.729 96.101)" fill="#000"/>
    <path id="Path_987" data-name="Path 987" d="M-3258.984-1295.966c-.894.868-1.408,1.775-2.027,1.855-.577.075-1.267-.731-1.907-1.152.473-.561.865-1.459,1.434-1.589C-3260.878-1296.991-3260.105-1296.4-3258.984-1295.966Z" transform="translate(237.373 103.254)" fill="#000"/>
    <path id="Path_988" data-name="Path 988" d="M-3237.145-1300.824c-.4.287-.8.568-1.206.853l-.672-1.9c.475-.106,1.062-.424,1.4-.253C-3237.321-1301.971-3237.292-1301.279-3237.145-1300.824Z" transform="translate(275.208 94.863)" fill="#000"/>
    <path id="Path_989" data-name="Path 989" d="M-3309.042-1270.649c4.859-3.082,8.029-3.56,12.225-2.831C-3300.1-1270.172-3303.3-1269.52-3309.042-1270.649Z" transform="translate(164.347 139.818)" fill="#000"/>
    <path id="Path_990" data-name="Path 990" d="M-3303.334-1273.449l-1.069-1.038a7.055,7.055,0,0,1,1.788-.868c.165-.034.517.881.782,1.361Z" transform="translate(171.69 137.322)" fill="#000"/>
    <path id="Path_991" data-name="Path 991" d="M-3298.952-1275.475l1.98,1.157c-.558.434-1.131,1.225-1.674,1.2-.6-.021-1.165-.79-1.746-1.232Z" transform="translate(178.042 137.134)" fill="#000"/>
  </g>
</svg>
