<svg xmlns="http://www.w3.org/2000/svg" viewBox="0 0 615.829 364.759">
          <g id="Group_32" data-name="Group 32" transform="translate(-220.511 -15.561)">
            <g id="Group_30" data-name="Group 30" transform="translate(543.783 15.561)">
              <path id="Path_99" data-name="Path 99"
                d="M612.492,374.941c.026-.894-.019-1.794-.072-2.689-.26-4.32-.545-8.638-.8-12.956-.329-5.518-.626-11.037-.965-16.553-.091-1.485-.58-1.858-1.975-1.735-6.265.547-12.386,1.965-18.557,3.079a20.372,20.372,0,0,0-2.583.738,2.759,2.759,0,0,0-2.2,2.958c.137,2.835.149,5.682.417,8.5.754,8.014,2.083,15.97,2.341,24.033h-2.7a12.69,12.69,0,0,0,.076-1.784c-.629-6.708-1.246-13.416-1.949-20.116-.341-3.258-1.362-6.462-.647-9.794a1.93,1.93,0,0,0-.165-.875,1.177,1.177,0,0,0-1.33-.923,22.312,22.312,0,0,0-2.631.573c-1.3.346-2.582.8-3.9,1.095-2.714.606-4.455-.522-4.68-3.2-.214-2.538-.807-5.012-1.077-7.546-.285-2.67-.68-5.334-.826-8.026-.021-.383-.278-1.012-.536-1.077-.772-.192-1,.526-1.142,1.084a79.5,79.5,0,0,0-2.353,13.223,11.5,11.5,0,0,1-.288,2.174c-.554,2.014-1.583,2.84-3.582,2.478-2.2-.4-4.364-1.047-6.534-1.62-1.4-.367-2.629-1.413-4.511-1a35.436,35.436,0,0,0-2.148,4.717q-1.663,5.583-2.937,11.281a68.708,68.708,0,0,1-3.394,11.6,45.588,45.588,0,0,0-2.309,7.729h-2.7a109.069,109.069,0,0,0,7.457-25.367,56.384,56.384,0,0,1,2.68-9.039c.715-1.965.265-2.731-1.606-3.4a59.5,59.5,0,0,0-8.116-2.576c-4.861-.991-9.562-2.5-14.285-3.942a46.6,46.6,0,0,0-9.265-1.7c-1.935-.188-3.863-.5-5.773-.859a3.669,3.669,0,0,1-1.474-.931,1.326,1.326,0,0,1-.26-.808.869.869,0,0,1,.754-.947,5.514,5.514,0,0,1,2.211-.023A98.975,98.975,0,0,0,519.2,332.7c3.4.52,6.733,1.459,10.086,2.25q4.59,1.081,9.158,2.253c1.446.374,2.833,1.014,4.369.288a1.986,1.986,0,0,1,1.313-.018c3.562,1.09,7.255,1.629,10.724,3.177,4.926,2.2,4.571,1.954,6.177-2.645a87.511,87.511,0,0,0,3.884-16.135,18.362,18.362,0,0,1,.974-3.445c.3-.828.641-1.62,1.815-1.691.819-.051,1.039-.981,1.385-1.619,1.643-3.025,3.35-6.016,3.575-9.583a1.274,1.274,0,0,1,2.081-.724c.309.271.7.78.634,1.09a36.722,36.722,0,0,1-1.292,4.754A29.443,29.443,0,0,1,571.6,316.4a8.712,8.712,0,0,0-1.088,5.17,96.314,96.314,0,0,0,2.984,21.773c.438,1.671.9,1.951,2.571,1.562,6.125-1.418,12.211-3.037,18.374-4.253,5.868-1.156,11.7-2.515,17.7-3.04,3.722-.325,7.408-1.076,11.105-1.671.807-.13.851-.872.592-1.383-1.213-2.408-2.5-4.78-3.789-7.148a11.8,11.8,0,0,1-1.434-6.012c.116-8.552.035-17.105.065-25.659a57.147,57.147,0,0,1,.617-9.87,11.949,11.949,0,0,0,.044-5.176c-1.469-.35-2.875.39-4.149.838-6.924,2.436-13.947,4.589-20.682,7.58a42.268,42.268,0,0,0-7.109,3.691c-2.369,1.643-4.933,2.158-7.575.467a4.55,4.55,0,0,0-.833-.334c-4.74-1.835-9.582-3.343-14.16-5.682-4.112-2.1-8.647-3.374-12.973-5.067-4.183-1.634-8.459-3.1-12.035-5.954-2.021-1.613-3.917-1.536-6.2-.278-4.858,2.673-9.736,5.3-14.416,8.279-2.018,1.286-4.128,2.425-6.17,3.677a2.33,2.33,0,0,1-2.527-.009c-8.564-4.483-17.754-7.172-27.168-9.037-3.52-.7-7.037-1.374-10.518-2.25-2.617-.657-2.763-.81-2.844-3.682-.06-2.1-.232-4.206-.121-6.3a88.906,88.906,0,0,0-1.232-17.448,140.1,140.1,0,0,1-1.336-15.23c-.2-5.865-1.258-11.611-2.1-17.39-.562-3.851-1.139-7.7-1.831-11.531-.534-2.947-1.16-5.886-1.928-8.78A86.168,86.168,0,0,1,459.16,186.2a16.172,16.172,0,0,0-.687-2.585c-.121-.385-.274-1-.812-.8-1.675.617-2-.8-2.717-1.671A35.377,35.377,0,0,1,447.92,167.7c-.765-2.863-.371-5.657-.042-8.473a2.992,2.992,0,0,1,.967-1.965,3.558,3.558,0,0,0,1.16-4.743c-2.917-6.286-4.035-13.156-6.65-19.541-2.332-5.692-4.952-11.244-7.485-16.842-.865-1.912-1.728-3.826-2.513-5.771-.717-1.777-.3-2.64,1.453-2.937,8.7-1.467,17.36-3.22,26.128-4.281,5.081.54,10.095-.982,15.239-.25a27.08,27.08,0,0,0,10.738-.634,73.161,73.161,0,0,0,10.455-4c3.961-1.759,7.814-3.768,11.706-5.682a2.594,2.594,0,0,1,2.149-.213c1.81.657,3.782.854,5.307,2.272a3.648,3.648,0,0,0,3.077,1.134c0-1.594-.573-3.543.132-4.747,1.072-1.829.359-2.641-.722-3.819-3.613-3.931-6.3-8.394-7.049-13.77a12.1,12.1,0,0,0-2.9-5.963,54.283,54.283,0,0,0-12.067-10.727,12.6,12.6,0,0,0-2.68-1.64c-1.961-.7-2.019-2.429-2.406-3.989a.748.748,0,0,1,.717-.924c8.012.228,15.167-3.234,22.576-5.422,8.615-2.543,17.089-5.617,25.5-8.8a179.46,179.46,0,0,0,17.671-7.784A59.342,59.342,0,0,0,572.6,18.042c.752-.722,1.547-1.4,2.344-2.074A1.6,1.6,0,0,1,577,15.907c2.787,1.768,5.687,3.381,8.337,5.334a88.694,88.694,0,0,0,11.773,7.416c7.307,3.791,14.534,7.768,22.149,10.944,3.04,1.269,6.1,2.489,9.126,3.8,1.647.712,3.183,1.706,4.863,2.313,1.647.6,1.534,2.084,2.021,3.265.135.329-.1.856-.267,1.248a1.63,1.63,0,0,1-.617.64c-5.251,3.424-7.416,8.894-9.336,14.436-.411,1.186-1.36,2.311-1.091,3.747.081.427-.244.752-.534,1.123-2.369,3.032-3.047,4.663-3.188,8.04a2.82,2.82,0,0,1-.791,1.958,19,19,0,0,1-4.4,3.076c-1.921,1.2-2.232,1.982-1.578,4.051a13.039,13.039,0,0,0,.74,1.64,6.035,6.035,0,0,1,.378,4.38,17.963,17.963,0,0,0-.568,2.638c-.267,2.244.046,2.752,2.146,3.837,3.462,1.787,6.972,3.489,10.371,5.388,3.13,1.75,6.228,3.582,9.179,5.613,3.58,2.467,7.513,4.418,10.8,7.311a4.376,4.376,0,0,0,4.97.743q10.221-4.1,20.476-8.118c4.457-1.745,8.894-3.554,13.42-5.105,10.334-3.543,20.717-6.94,31.077-10.411,1.278-.427,2.517-.972,3.8-1.4a5.215,5.215,0,0,1,2.172-.336c3.323.3,3.483.573,2.895,3.817-.677,3.717-2.506,7.039-3.42,10.664-1.287,5.1-3.7,9.792-5.313,14.777-1.425,4.418-3.016,8.808-4.265,13.253-1.383,4.923-3.253,9.611-5.007,14.378-1.446,3.928-2.5,8-3.7,12.019-.246.819-.018,1.5.928,1.664a1.911,1.911,0,0,1,1.519,1.353c1.643,3.627,1.364,7.325.392,10.972-1.06,3.979-2.784,7.615-6.624,9.8a21.9,21.9,0,0,0-2.049,1.752,4,4,0,0,0-1.562,2.613c-2.119,10.884-3.9,21.82-5.437,32.8-1.408,10.075-2.9,20.14-4.246,30.225-1.074,8.012-2.144,16.031-2.917,24.077-.457,4.757-.337,9.573-.462,14.362-.012.446.132.9.109,1.343a3.368,3.368,0,0,1-4.684,3.255,21.3,21.3,0,0,1-2.84-1.341c-4.446-2.158-8.85-4.417-13.36-6.436a13.278,13.278,0,0,0-6.555-1.322c-2.4.206-4.128-.766-5.958-2.418a111,111,0,0,0-12.074-10.03,3.8,3.8,0,0,0-3.771-.65c-3.5,1.343-6.988,2.7-10.49,4.03a1.74,1.74,0,0,0-1.179,1.714c-.471,8.372-1.283,16.731-1.172,25.13a81.168,81.168,0,0,0,2.023,18.678,67.063,67.063,0,0,0,3.385,9.271,3.628,3.628,0,0,0,2.158,2.09,1.452,1.452,0,0,1-.067,2.5,4.432,4.432,0,0,1-2.58.647c-3.815-.292-7.376,1.2-11.1,1.587a1.66,1.66,0,0,0-1.58,1.833,69.839,69.839,0,0,0,.125,8.1c1.042,8.494,1.94,16.979,1.352,25.555a4.663,4.663,0,0,0,.473,3.172M436.336,110.4a28.238,28.238,0,0,0,2.431,6.033,149.919,149.919,0,0,1,8.438,20.33c2,5.808,3.854,11.666,5.763,17.5a2.277,2.277,0,0,0,1.332,1.684c4.7,1.634,6.365,5.555,7.42,9.91.316,1.311.515,2.652.793,3.974a14.1,14.1,0,0,1-.274,7.984,9.429,9.429,0,0,0,.009,5.724c1.562,6.4,3.348,12.789,4.278,19.293,1.4,9.792,3.74,19.423,4.865,29.251.717,6.253,1.394,12.52.952,18.842a112.534,112.534,0,0,0,.109,17.089c.52,6.32.566,6.348,6.761,6.945.149.014.3,0,.45.016a56.1,56.1,0,0,1,12.177,2.887c5.271,1.706,10.585,3.285,15.9,4.859,1.482.439,1.988.137,2.221-1.292.775-4.733,1.856-9.441,1.789-14.265-.09-6.439-.33-12.875-.525-19.311a9.831,9.831,0,0,0-.251-1.777,1.914,1.914,0,0,0-1.794-1.687,43.075,43.075,0,0,0-15.172.436,3.69,3.69,0,0,1-1.33.07.941.941,0,0,1-.622-.524c-.079-.211.012-.671.165-.749a7.126,7.126,0,0,1,2.46-1.026c3.859-.279,7.692-1.388,11.606-.427a9.97,9.97,0,0,0,2.237.183c1.612.018,2.155-.438,2.12-2.135-.095-4.494-.118-9-.487-13.476-.96-11.648-2.118-23.279-3.125-34.924-.176-2.035-.706-2.608-2.641-3.039a6.366,6.366,0,0,0-3.97.167c-6.915,2.912-14.218,4.706-21.267,7.235a8.735,8.735,0,0,1-2.183.385c-.2.018-.432-.3-.649-.46.171-.227.3-.589.518-.663,3.977-1.322,7.977-2.571,11.947-3.914a64.384,64.384,0,0,0,8.726-3.237c2.441-1.246,4.708-2.571,7.576-2.307a1.014,1.014,0,0,0,1.044-1.185c-.109-2.093-.151-4.2-.38-6.278-1.06-9.675-2.174-19.344-3.271-29.014-.539-4.756-1.562-9.434-1.947-14.227a73.769,73.769,0,0,0-2.044-11.047c-1.211-5.1-2.719-10.126-3.963-15.218-.652-2.664-2.267-3.633-4.863-3.606-3.75.037-7.506-.165-11.253-.06-6.293.176-12.583.534-18.875.777-2.25.086-4.466.36-6.7.64-3.733.469-7.339,1.432-11,2.172C440.083,109.294,438.266,109.331,436.336,110.4ZM679.9,290.517c.306-3.684.838-7.4.865-11.112a85.486,85.486,0,0,1,1.308-12.958,225.975,225.975,0,0,0,2.687-27.26,107.986,107.986,0,0,1,1.423-13.385c.316-1.923.736-3.837.888-5.771a97.364,97.364,0,0,1,1.835-12.441c1.049-4.979,2.308-9.912,3.474-14.866.2-.861.6-1.71-.113-2.552-3.527-4.2-3.559-9.26-2.648-14.112,1.106-5.886,3.714-11.121,10.1-13.181a2.407,2.407,0,0,0,1.5-1.55,33.7,33.7,0,0,0,1.329-3.81c1.228-4.48,2.353-8.988,3.61-13.46,1.336-4.759,2.687-9.517,4.191-14.225s3.373-9.285,4.763-14.012c1.61-5.469,3.524-10.826,5.378-16.209.221-.641.749-1.306.141-2.255-1.9-.176-3.691.673-5.483,1.285a213.022,213.022,0,0,0-19.842,8.448c-7.5,3.436-15.16,6.429-22.94,9.123-6.807,2.357-13.413,5.158-19.966,8.126a3.041,3.041,0,0,0-2.04,3.5c.23,2.364.153,4.757.3,7.095.467,7.48.5,14.963.8,22.441.232,5.842.606,11.68.81,17.522.058,1.647.8,2.214,2.278,2.75,6.466,2.355,13.116,4.258,19.105,7.821a39.192,39.192,0,0,0,5.406,2.209c1.111.45,2.227.893,3.307,1.409.548.262,1.039.759.814,1.42a1.047,1.047,0,0,1-1.474.541,55.281,55.281,0,0,1-7.909-3.2c-6.03-3.473-12.627-5.494-19.058-7.949-1.478-.564-2.069-.207-1.919,1.237.568,5.517.2,11.061.851,16.6.659,5.638.327,11.388.5,17.088.067,2.237.633,4.5.417,6.7-.476,4.791-.4,9.575-.494,14.371-.248,13.33.07,26.646.575,39.964.158,4.227.118,3.88,3.666,4.947a62.513,62.513,0,0,1,18.62,8.747C677.739,290.118,678.609,290.875,679.9,290.517Zm-57.171-87.96c-.808.872-.5,1.808-.369,2.643.684,4.432,1.3,8.882,2.2,13.274,1.7,8.358,3.355,16.726,5.51,24.986.946,3.622,1.213,3.877,4.8,3.279.736-.123,1.446-.4,2.181-.545a30.181,30.181,0,0,1,3.525-.594,1.093,1.093,0,0,1,1.223,1.042c0,.3-.5.779-.851.856-2.341.522-4.707.933-7.053,1.429-2.084.441-2.353.771-1.8,2.675,1.371,4.75,2.824,9.478,4.26,14.211a2.915,2.915,0,0,0,1.3,1.729,50.555,50.555,0,0,1,10.3,8.561,11.47,11.47,0,0,0,2.557,1.8c.735.445,1.443.007,1.51-.926a28.551,28.551,0,0,0,.116-3.594,139.592,139.592,0,0,1-.355-15.244c.176-3.285-.042-6.589-.084-9.884-.153-11.684.9-23.362.144-35.049-.155-2.392-.35-4.793-.292-7.183.183-7.5-.534-14.972-.6-22.464-.04-4.8-.058-4.2-4.631-3.678a22.122,22.122,0,0,0-2.648.527q-6.119,1.482-12.227,3c-.731.183-1.446.471-2.149.014a1.207,1.207,0,0,1-.5-.687.885.885,0,0,1,.22-.757,2.75,2.75,0,0,1,1.207-.508c6.415-.756,12.381-3.61,18.868-4.03a1.088,1.088,0,0,0,1.033-1.213c.028-1.049.035-2.1-.014-3.148-.253-5.241-.785-10.485-.726-15.722.074-6.612-.638-13.167-.842-19.755-.1-3.135-.466-6.262-.55-9.4-.056-2.067.907-4.063-.743-5.026a18.452,18.452,0,0,1-2.761-1.756,105.848,105.848,0,0,0-10.042-6.524c-2.615-1.452-7.241-4.552-9.777-6.146-4.824-3.033-11.866-7.223-16.692-10.253a2.667,2.667,0,0,0-2.076-.68c-.559.982.323,4.7.534,5.7.77,3.661,1.59,7.309,2.38,10.965a22.119,22.119,0,0,1,.675,3.522,73.638,73.638,0,0,0,1.453,10.225,22.85,22.85,0,0,1,.524,3.547c.162,5.559,1.406,10.995,2.061,16.49.689,5.773,1.357,11.592,2.355,17.348.36,2.074.185,4.306,3.16,4.462a.979.979,0,0,1,.684.534c.74,1.889,2.622,2.355,4.084,3.336,1.738,1.167,3.515,2.281,5.248,3.457a.848.848,0,0,1,.267,1.176c-.339.524-.808.863-1.478.422-1.127-.743-2.248-1.5-3.4-2.193-1.538-.928-3.088-1.842-4.671-2.691-.742-.4-1.613-1.281-2.4-.525-.64.615-.374,1.714-.223,2.6s.432,1.745.594,2.627c.967,5.3,2.072,10.575,2.828,15.9.736,5.2.643,4.151,4.608,6.218a15.977,15.977,0,0,0,1.652.714,212.908,212.908,0,0,1,21.912,10.411,4.8,4.8,0,0,1,1.476.972,1.569,1.569,0,0,1,.009,1.25.824.824,0,0,1-1.1.471,16.519,16.519,0,0,1-1.989-1.028A140.186,140.186,0,0,0,622.729,202.557Zm-45.318,3.251a15.39,15.39,0,0,0,.186,5.265c1.063,7.411,2.807,14.708,3.55,22.177.385,3.863,1.155,7.691,1.852,11.517.539,2.961.729,3.074,3.877,3.005a26.692,26.692,0,0,0,3.559-.4,20.816,20.816,0,0,1,8.466.12,16.941,16.941,0,0,0,3.1.543c4.835.3,9.367,2,14.044,3.012a71.451,71.451,0,0,1,7.3,2.255,5.518,5.518,0,0,1,2.747,1.429,1.222,1.222,0,0,1,.33.794c-.023.183-.383.448-.6.459a4.132,4.132,0,0,1-1.773-.121c-3.32-1.446-6.889-2.051-10.315-3.134a64.678,64.678,0,0,0-29.956-2.536c.9,6.188,1.719,12.393,2.71,18.573.986,6.14.742,12.464,2.561,18.9,2.308-1.083,4.343-1.965,6.311-2.979,2.256-1.163,4.341-2.784,6.71-3.573,2.276-.756,4.45-1.71,6.678-2.548,7.975-3,15.743-6.564,24.01-8.773,1.759-.471,1.94-.9,1.455-2.552-2.4-8.176-5.148-16.242-6.787-24.634-.946-4.833-2.253-9.6-3.418-14.386-1.877-7.72-2.9-15.6-4.22-23.414-1.671-9.879-3.188-19.782-4.779-29.674-.19-1.183-.378-2.371-.638-3.54-.417-1.863-.576-2.032-2.373-1.838a61.888,61.888,0,0,0-13.053,3.188,79.774,79.774,0,0,1-7.68,2.515c-6.054,1.376-11.432,4.452-17.195,6.546-1.093.4-1.242,1.137-1.062,2.116.791,4.274,1.57,8.552,2.367,12.826.376,2.011-.012,4.59,1.786,5.749,1.719,1.109,4.1.366,6.174.151a28.738,28.738,0,0,0,3.949-.828,20.692,20.692,0,0,1,4.42-.754c2.093-.061,4.186-.251,6.272-.457,4.919-.482,9.833-1.009,14.75-1.506a8.655,8.655,0,0,1,1.8-.04c.517.056,1.3-.127,1.274.8-.019.729-.633,1.009-1.17,1.158a19.976,19.976,0,0,1-3.5.724c-4.176.371-8.372.545-12.536,1.014-2.975.334-5.988.473-8.919.937C585.693,204.527,581.76,205.439,577.412,205.808Zm-67.421-9.153a3.151,3.151,0,0,0-.262.974c1,8.782.977,17.655,2.474,26.4a32.872,32.872,0,0,1,.6,8.473c-.462,4.982.673,9.847.568,14.778a1.757,1.757,0,0,0,1.508,1.9,62.737,62.737,0,0,1,9.585,3.847c2.719,1.239,5.241,2.931,8.262,3.485a3.608,3.608,0,0,1,1.471.988.97.97,0,0,1,.232.784.832.832,0,0,1-.991.675,13.629,13.629,0,0,1-1.743-.406,35.7,35.7,0,0,1-6.5-3.046,52.361,52.361,0,0,0-11.594-4.483c-.662,3.641.663,6.991.385,10.385-.269,3.278.111,6.606-.111,9.891-.23,3.373-.844,6.722-1.33,10.4a29.764,29.764,0,0,0,6.209-3.445,26.262,26.262,0,0,1,3.346-2.257c4.257-2.2,8.557-4.32,12.845-6.462,1.712-.854,3.787-1.339,5.061-2.624,1.45-1.464.105-3.749.411-5.662.19-1.179.1-2.4.281-3.585a28.248,28.248,0,0,0-.044-7.624c-.719-6.112-.381-12.27-1.055-18.4-.489-4.453-.938-8.9-1.619-13.339-.886-5.773-1.752-11.564-2.255-17.378a226.277,226.277,0,0,0-3.591-25.328c-1.478-7.33-3.005-14.659-4.388-22.012-1.935-10.3-3.65-20.646-6.515-30.75-1.8-6.337-3.666-12.655-5.432-19a36.33,36.33,0,0,0-2.64-5.706,1.5,1.5,0,0,0-1.9-.791,9.525,9.525,0,0,0-2.453,1.084c-3.654,2.366-7.453,4.467-11.313,6.473-1.336.694-1.467,1.322-.91,3,1.789,5.416,2.9,11.005,4.223,16.539,1.5,6.272,2.13,12.692,3.09,19.051.759,5.028,1,10.133,1.743,15.161.682,4.6.269,9.306,1.434,13.84a45.622,45.622,0,0,1,.872,8.037c.258,3.434.569,6.863.87,10.293a3.3,3.3,0,0,0,1.852,2.845c2.362,1.3,4.573,2.812,7.218,3.608a56.156,56.156,0,0,1,6.626,2.726,5.262,5.262,0,0,1,2.511,1.829,1,1,0,0,1,.123.8.872.872,0,0,1-.678.448,7.055,7.055,0,0,1-2.165-.441c-3.273-1.492-6.5-3.074-9.764-4.587C513.091,197.362,511.7,196.4,509.991,196.655Zm32.71,61.433c-.086,1.945-.243,3.891-.248,5.836-.016,5.88.2,6.235,5.251,9.186a30.1,30.1,0,0,0,3.6,1.837c5.666,2.36,11.36,4.654,17.03,7.005a42.117,42.117,0,0,1,4.058,1.921,73.82,73.82,0,0,0,12.513,4.982c1.153.378,1.65-.123,1.292-1.42a19.418,19.418,0,0,1-.568-3.531c-.438-5.058-.768-10.125-1.591-15.146-.773-4.731-1.392-9.487-2.093-14.228-1.025-6.916-2.164-13.817-3.067-20.75-1.065-8.165-2.311-16.3-3.868-24.381a56.323,56.323,0,0,1-1.1-8.452,39.548,39.548,0,0,0-1.316-7.478,3.051,3.051,0,0,0-2.32-2.436c-2.434-.747-4.858-1.531-7.283-2.308-4.417-1.415-8.838-2.81-13.239-4.276a3.517,3.517,0,0,0-2.6-.039c-3.186,1.308-6.383,2.587-9.568,3.9a1.772,1.772,0,0,0-1.025,1.828,17.094,17.094,0,0,0,.048,2.248q1.147,8.91,2.346,17.815c.657,4.891,1.436,9.77,1.989,14.673.738,6.553,1.25,13.121,1.4,19.731C542.444,249.1,542.859,253.586,542.7,258.088ZM515.6,69.193c.6-.128,1.039-.209,1.471-.32a140.977,140.977,0,0,1,17.7-2.979c3.271-.408,6.543-.81,9.81-1.246a198.193,198.193,0,0,1,21.392-2.132c9.9-.239,19.773-.464,29.631.631,6.546.728,13.169.958,19.543,2.875a1.474,1.474,0,0,0,1.9-.682c3.466-5.791,7-11.534,11.641-16.5.831-.888.583-1.58-.594-1.933a134.283,134.283,0,0,1-27.6-11.975c-6.265-3.554-12.7-6.761-18.989-10.255a7.505,7.505,0,0,0-8.423.506c-2.483,1.8-5.246,2.858-7.821,4.351a99.577,99.577,0,0,1-18.527,8.088,19.3,19.3,0,0,0-3.757,1.485A48.573,48.573,0,0,1,531.681,43.5c-2.582.766-5.193,1.459-7.71,2.4-6.323,2.369-12.87,4.009-19.293,6.046-.993.315-2.046.441-3.026.784a.94.94,0,0,0-.464,1.471,10.12,10.12,0,0,0,1.638,2.118,97.8,97.8,0,0,1,9.98,10.947,6.093,6.093,0,0,0,1.29,1.244A8.589,8.589,0,0,0,515.6,69.193Zm97.728,94.566.156-.023c-.625-4.441-1.522-8.865-1.812-13.327-.411-6.292-1.8-12.43-2.471-18.683-1.084-10.112-3.369-20.058-5.45-30.017-.329-1.573-1.54-5.492-3.13-5-3.564,1.1-7.09,2.334-10.622,3.543-5.659,1.935-10.993,4.682-16.715,6.506-4.552,1.45-9.821,1.633-14.23,3.5-2.341.991-1.009,6.7-.561,9.01.882,4.543,1.77,9.081,3.056,13.536.912,3.165,1.568,6.406,2.467,9.576,1.262,4.452,3.053,8.77,3.172,13.5a10.424,10.424,0,0,0,.466,2.2c1.3,5.234,2.641,10.455,3.443,15.8.265,1.775.691,3.529,1.1,5.279.253,1.088.882,1.429,2.011,1.172a5.416,5.416,0,0,0,1.71-.533,27.017,27.017,0,0,1,7.8-3.107,1.563,1.563,0,0,0,.765-.452c1.392-1.659,3.383-1.757,5.292-2.13a20.019,20.019,0,0,0,5.206-1.292,48.512,48.512,0,0,1,10.422-3.84c2.176-.54,4.274-1.394,6.545-1.531a1.343,1.343,0,0,0,1.371-1.431C613.355,165.26,613.324,164.508,613.324,163.759ZM516.16,98.138c1.587,4.555,3.019,8.032,4,11.629,1.531,5.624,3.019,11.256,4.243,16.973,1.218,5.7,2.474,11.385,3.547,17.121,2.364,12.647,4.945,25.254,7.471,37.871.288,1.439-.007,3.353,1.239,4.162,1.4.907,2.657-.87,4.06-1.234a22.317,22.317,0,0,0,2.076-.842c6.471-2.4,6.51-2.492,12.8.093,4.74,1.946,9.793,2.766,14.608,4.409a1.536,1.536,0,0,0,.441.007.859.859,0,0,0,.881-.814,3.731,3.731,0,0,0-.021-1.339c-2.067-11.481-5.133-22.754-7.119-34.26a142.414,142.414,0,0,0-3.615-14.341c-1.385-4.9-2.557-9.817-3.564-14.794-.237-1.169-.615-2.311-.96-3.457-.278-.93.241-8.469-.712-8.815-5.218-1.9-10.262-2.921-14.854-6.021-3.132-2.112-7.587-2.754-10.94-4.416-1.61-.8-3.2-.065-4.814-.852C522.272,97.922,519.618,99.82,516.16,98.138Zm97.2-18.6a15.73,15.73,0,0,0-2.487-.873c-5.455-.961-10.919-1.865-16.381-2.787-1.627-.274-3.232-.585-4.865.134a2,2,0,0,1-1.7-.141c-1.722-1.323-3.678-1.025-5.608-1.053-2.25-.03-4.5-.153-6.747-.162-7.8-.033-15.6-.353-23.358.872a82.073,82.073,0,0,1-8.9,1.156c-7.246.336-14.126,2.6-21.214,3.754a10.77,10.77,0,0,0-2.13.715,1.23,1.23,0,0,0-.634,2.093c.362.475.775.912,1.177,1.355,4.808,5.293,10.907,8.33,17.724,10.088a83.091,83.091,0,0,0,13.227,2.443c4.8.438,9.594.341,14.381.592,4.879.255,9.306-1.968,14.074-2.121,9.2-2.773,18.237-5.979,26.548-10.907,2.186-1.3,4.242-2.815,6.341-4.258C613.02,80.287,613.107,79.957,613.357,79.535ZM579.863,65.416a11.648,11.648,0,0,0-1.856-.346,221.8,221.8,0,0,0-26.487,1.244,23.094,23.094,0,0,0-6.568,1.364c-.578.241-1.137.5-1.336,1.09a4.889,4.889,0,0,0,.332,4.322,1.6,1.6,0,0,0,1.065.677,6.962,6.962,0,0,0,2.207-.17,49.773,49.773,0,0,1,13.346-1.513,43.1,43.1,0,0,0,7.181-.123,56.964,56.964,0,0,1,9.857-.49,3.084,3.084,0,0,0,2.669-.814ZM535.9,68.3a39.72,39.72,0,0,0-4.879.749,34.827,34.827,0,0,1-6.144,1.1c-3.174.232-6.028,1.58-8.873,2.893a1.438,1.438,0,0,0-.791,1.852,12.147,12.147,0,0,0,.659,1.657c.858,1.972.991,1.933,2.961,1.87,2.158-.069,3.961-1.409,6.046-1.538,4.191-.258,8.249-1.272,12.357-2.012a24.736,24.736,0,0,0,3.032-.712c.369-.116.914-.55.91-.835-.018-1.619.383-3.4-.622-4.784-.833-1.141-2.218.042-3.334-.235A11.291,11.291,0,0,0,535.9,68.3Zm59.59,3.545c7.072,1.387,14.248,1.907,21.156,3.872a1.392,1.392,0,0,0,.868-.021,1.541,1.541,0,0,0,.951-1.387c.06-.949-.448-.872-1.088-.6a2.065,2.065,0,0,1-.861.2,1.279,1.279,0,0,1-1.193-1.531A1.314,1.314,0,0,1,617,71.335a1.987,1.987,0,0,1,.793.392c.779.641,1.36.42,1.75-.406.439-.928,1.186-1.8.868-2.924a2.2,2.2,0,0,0-.773-.967c-.285-.23-.562-.056-.657.332-.364,1.471-1.378,1.845-2.722,1.561-2.042-.431-4.065-.956-6.112-1.355-4.508-.879-9.058-1.42-13.813-1.879,0,1.125.007,1.995,0,2.865C596.322,69.875,595.2,70.374,595.491,71.846Zm-9.631-.51c.9,0,1.807-.065,2.7.014a3.826,3.826,0,0,0,3.133-1.436c1.063-1.054.931-1.292-.251-2.42-1.939-1.849-4.322-1.879-6.717-2.035-1.861-.121-1.97-.042-2.3,1.8C581.66,71.495,581.66,71.495,585.86,71.337Z"
                transform="translate(-433.022 -15.561)" fill="#714c98" />
              <path id="Path_100" data-name="Path 100"
                d="M475.609,235.484c1.942-10.65,1.75-21.43,2.16-32.177a31.084,31.084,0,0,1,.613-4.413.852.852,0,0,1,1-.68,2.1,2.1,0,0,1,1.1.641,3.368,3.368,0,0,1,.362,3.014c-1.2,4.873-.576,9.815-.742,14.731-.114,3.423-.647,6.835-1,10.251-.406,3.984-.815,7.968-1.251,12.223"
                transform="translate(-400.765 122.771)" fill="#714c98" />
              <path id="Path_101" data-name="Path 101"
                d="M473.834,211.237c-.322-.235-.808-.422-.981-.764a2.074,2.074,0,0,1-.021-1.285c.578-2.475,1.135-4.958,1.815-7.406a130.5,130.5,0,0,0,4.39-22.819,60.489,60.489,0,0,1,1.046-6.169,1.451,1.451,0,0,1,.823-.944,1.381,1.381,0,0,1,1.52.671,1.9,1.9,0,0,1,.5,1.647c-2.035,6.608-1.96,13.59-3.615,20.265-1.114,4.5-2.193,9-3.365,13.481a13.925,13.925,0,0,1-1.3,2.84C474.527,210.971,474.156,211.054,473.834,211.237Z"
                transform="translate(-402.937 102.781)" fill="#714c98" />
              <path id="Path_102" data-name="Path 102"
                d="M491.968,175.763c-.134.4-.153.924-.424,1.206-1.835,1.9-2.322,4.462-3.4,6.729a72.992,72.992,0,0,1-6.4,10.184,3.667,3.667,0,0,1-1.021.844.846.846,0,0,1-1.181-.109,1.623,1.623,0,0,1-.288-1.2,6.891,6.891,0,0,1,.809-1.575c1.914-3.358,3.763-6.754,5.77-10.056,1.634-2.691,3.132-5.392,3.425-8.61a1.344,1.344,0,0,1,.8-.916,1.057,1.057,0,0,1,1.318.863C491.622,173.974,491.769,174.849,491.968,175.763Z"
                transform="translate(-398.022 103.096)" fill="#714c98" />
              <path id="Path_103" data-name="Path 103"
                d="M528.5,176.516a4.886,4.886,0,0,1,.712.982c.745,1.789,1.374,3.627,2.165,5.4,1.833,4.09,3.669,8.19,7.216,11.184a1.4,1.4,0,0,1,.464.743,1.338,1.338,0,0,1-.193.815c-.241.431-.768.675-1.111.406a22.756,22.756,0,0,1-2.995-2.664,55.564,55.564,0,0,1-7.258-11.251c-.947-1.775-.018-3.427.065-5.134C527.573,176.86,528.03,176.748,528.5,176.516Z"
                transform="translate(-361.778 106.353)" fill="#714c98" />
              <path id="Path_104" data-name="Path 104"
                d="M486.681,218.107c-.239-.158-.569-.267-.691-.489a1.017,1.017,0,0,1-.019-.84,2.233,2.233,0,0,1,.854-.981,13.544,13.544,0,0,0,4.889-3.836.763.763,0,0,1,1.167-.051c.236.3.438.96.274,1.188a13.007,13.007,0,0,1-6.031,5.058C487,218.2,486.831,218.126,486.681,218.107Z"
                transform="translate(-392.978 132.974)" fill="#714c98" />
              <path id="Path_105" data-name="Path 105"
                d="M527.846,219.453c-.573-.156-1.236-.3-1.248-1.019a1.364,1.364,0,0,1,.529-1.095,9.8,9.8,0,0,0,5.193-5.211,1.718,1.718,0,0,1,.6-.631,1.334,1.334,0,0,1,1.629.093.883.883,0,0,1,.242,1.181,25.643,25.643,0,0,1-4.107,5.759A3.116,3.116,0,0,1,527.846,219.453Z"
                transform="translate(-362.143 132.672)" fill="#714c98" />
              <path id="Path_106" data-name="Path 106"
                d="M487.208,116.71c-.369-.227-.707-.322-.815-.534a.823.823,0,0,1,.084-.777,15.8,15.8,0,0,1,5.095-2.33c.167-.054.555.232.67.448a.832.832,0,0,1-.074.77A10.077,10.077,0,0,1,487.208,116.71Z"
                transform="translate(-392.641 58.29)" fill="#714c98" />
              <path id="Path_107" data-name="Path 107"
                d="M526.26,144.623a7.853,7.853,0,0,1,1.25.241,1.057,1.057,0,0,1,.5.617.7.7,0,0,1-.647.937c-3,0-5.838,1.2-8.872,1.058-3.225-.144-6.051,1.46-8.995,2.476-2.256.779-4.434,1.78-6.661,2.648a2.786,2.786,0,0,1-2.177.047c-.127-.054-.336-.169-.329-.237a1.748,1.748,0,0,1,.218-.819,1.684,1.684,0,0,1,.719-.492c2.912-1.172,5.8-2.39,8.75-3.471A53.463,53.463,0,0,1,526.26,144.623Z"
                transform="translate(-382.039 82.196)" fill="#714c98" />
              <path id="Path_108" data-name="Path 108"
                d="M518.641,31.827c1.072.473,1.9-.144,2.785-.127a5.357,5.357,0,0,1,2.578.617c2.188,1.214,2.459,3.051.583,4.615a15.968,15.968,0,0,1-2.271,1.4c-.652.378-1.336.749-2.046.142-.745-.64-.415-1.311-.011-1.975.239-.392.381-.837-.118-1.088a1.321,1.321,0,0,0-.865.1,2.863,2.863,0,0,0-1.875,2.325c-.237,1.149-.343,2.323-.527,3.641.675.192,1.388.371,2.088.6a1.208,1.208,0,0,1,.912,1.341,1.425,1.425,0,0,1-1.067,1.309,15.8,15.8,0,0,1-4.8.768c-1.5-.158-2.926-1.1-4.353-1.768a1.048,1.048,0,0,1,.162-1.821,9.874,9.874,0,0,1,1.288-.362c.589-.192,1.139-.5,1.146-1.193a1.3,1.3,0,0,0-1.432-1.357c-2.172-.018-2.777-1.466-2.982-3.214-.2-1.648.764-2.9,2.656-3.687a2.944,2.944,0,0,1,.854-.262,2.882,2.882,0,0,0,2.97-2.731,3.716,3.716,0,0,1,.93-1.5c.413-.531,1.522-.348,1.961.2C518.178,29,517.9,30.676,518.641,31.827ZM512.219,34.6a1.665,1.665,0,0,0-1.467,1.749c-.044.773.615,1.7,1.169,1.645.842-.086,2.113-1.334,1.984-2.077A1.525,1.525,0,0,0,512.219,34.6Z"
                transform="translate(-376.374 -6.682)" fill="#714c98" />
              <path id="Path_109" data-name="Path 109"
                d="M510.161,83.723a18.586,18.586,0,0,1,7.209-12.049,6.543,6.543,0,0,1,2.9-1.142,9.64,9.64,0,0,0,2.979-.909,5.035,5.035,0,0,1,5.51.269c1,.654,2.063,1.221,3.1,1.824,3.45,2.005,4.446,5.139,3.872,8.849-1.01,6.51-4.638,11.3-10.207,14.615a8.179,8.179,0,0,1-7.787.531C512.643,93.4,510.305,90.433,510.161,83.723Zm23.462-4.176a5.255,5.255,0,0,0-1.836-4.829,41.408,41.408,0,0,0-4.151-2.634,1.978,1.978,0,0,0-1.267-.237c-3.084.6-6.244,1.274-8.515,3.582-3.293,3.348-6.13,6.9-4.464,12.251,1.678,5.39,6.518,8,11.469,5.408C530.2,90.283,533.414,85.8,533.623,79.547Z"
                transform="translate(-374.594 24.862)" fill="#714c98" />
              <path id="Path_110" data-name="Path 110"
                d="M496.8,95.682c-4.627-.083-5.444-.71-6.807-4.793a18.751,18.751,0,0,0-1.051-2.455,10.023,10.023,0,0,1-.881-6.557,22.041,22.041,0,0,1,3.345-8.242,4.571,4.571,0,0,1,2.3-2.042c3.26-1.014,6.5-2.2,10.028-1.49a7.19,7.19,0,0,1,5.956,5.376c1.253,4.193.726,8.288-.272,12.4a2.166,2.166,0,0,1-.352.81C505.853,92.858,502.163,96.178,496.8,95.682Zm-5.075-10.631a14.774,14.774,0,0,0,.033,2.3,2.65,2.65,0,0,0,.752,1.541,15.965,15.965,0,0,0,6.239,3.381,3.562,3.562,0,0,0,3.028-.409c3.344-2.334,6.4-4.771,6.557-9.464a21.622,21.622,0,0,0-.682-5.713,5.528,5.528,0,0,0-3.278-3.975c-1.656-.757-3.077-.888-4.462.457-.178.172-.568.13-.859.185-3.668.673-5.652,3.042-6.6,6.492A12.865,12.865,0,0,0,491.727,85.051Z"
                transform="translate(-391.484 25.588)" fill="#714c98" />
              <path id="Path_111" data-name="Path 111"
                d="M513.427,46.173c-.207.128-.427.38-.617.359-.466-.054-.713-.4-.457-.835a.747.747,0,0,1,.706-.218C513.25,45.574,513.31,45.931,513.427,46.173Z"
                transform="translate(-373.011 7.08)" fill="#714c98" />
              <path id="Path_112" data-name="Path 112"
                d="M516.2,44.879c.325.121.443.359.253.645a1.931,1.931,0,0,1-.5.39c-.1-.228-.276-.464-.26-.684C515.7,45.1,516.018,44.995,516.2,44.879Z"
                transform="translate(-370.408 6.645)" fill="#714c98" />
              <path id="Path_113" data-name="Path 113"
                d="M520.646,45.013c-.125.243-.206.634-.383.685a.87.87,0,0,1-.743-.3c-.232-.308-.053-.608.341-.608A2.931,2.931,0,0,1,520.646,45.013Z"
                transform="translate(-367.583 6.579)" fill="#714c98" />
              <path id="Path_114" data-name="Path 114"
                d="M515.139,79.462c-1.141-.193-1.854-.492-2.077-1.292-.171-.615.276-1.105.677-1.555a2.507,2.507,0,0,1,2.829-.779c.742.228,1.48.522,1.555,1.373a1.663,1.663,0,0,1-1.207,1.7C516.236,79.174,515.521,79.346,515.139,79.462Z"
                transform="translate(-372.424 29.981)" fill="#714c98" />
              <path id="Path_115" data-name="Path 115"
                d="M495.557,77.781c-.3,1.445-1.863,2.7-2.777,2.239a2.04,2.04,0,0,1-1.061-2.209c.095-1,1.076-1.532,2.355-1.265C494.782,76.693,495.531,76.874,495.557,77.781Z"
                transform="translate(-388.575 30.579)" fill="#714c98" />
            </g>
            <g id="Group_31" data-name="Group 31" transform="translate(220.511 46.028)">
              <path id="Path_116" data-name="Path 116"
                d="M470.264,252.42c-3.548.754-7.083,1.575-10.613,2.408a6.076,6.076,0,0,0-3.005,1.258c.348,1.1.652,2.265,1.083,3.383,1.323,3.439-3.33,7.423-3.822,11.114a46.964,46.964,0,0,1-.622,4.945c-.694,2.854-.924,5.492.9,8.132,1.216,1.759,1.192,4.072,1.4,6.141.322,3.149.181,6.346.211,9.522a3.71,3.71,0,0,1-.2,1.789c-2.109,3.608-.589,7.358-.461,11.033.07,2.063.243,2.272,2.383,2.508a3.775,3.775,0,0,1,3.439,3.086c.573,1.914.866,3.88-.858,5.48a8.468,8.468,0,0,1-.657.626c-3.427,2.538-3.119,2.351-1.636,6.856a19.016,19.016,0,0,1-.236,11.926,11.384,11.384,0,0,0,.759,10.829,15.348,15.348,0,0,1,1.067,2c.585,1.374.119,2.2-1.45,2.578a17.183,17.183,0,0,1-2.668.511c-1.431.118-2.8-.17-3.46-1.615a4.533,4.533,0,0,0-3.416-2.592,8.131,8.131,0,0,1-5.8-7.188,28.124,28.124,0,0,1,.056-7.241,10.345,10.345,0,0,0-.629-5.325c-.513-1.413-.989-2.327-2.824-2.193-2.313.169-2.641-1.142-2.815-2.786-.269-2.545-.234-5.121-.323-7.684a3.7,3.7,0,0,1,2.777-4.118,9.036,9.036,0,0,0,1.276-.636c-2.75-6.214-2.993-12.6-1.736-19.137a13.581,13.581,0,0,0-.369-6.7c-.882-2.873-1.183-5.919-1.882-8.854a11.6,11.6,0,0,1,1.065-7.48c.415-.968,1.014-1.854,1.478-2.8a2.165,2.165,0,0,0,.074-2.156,17.617,17.617,0,0,1-2.2-9.717c.712.019-.569-.341,0,0-6.845,1.845-13.647,3.847-20.464,5.794a4.144,4.144,0,0,0-.438.123c-5.283,2.091-5.274,1.478-5.267,7.244.005,4.613,1.334,8.945,2.06,13.4a140.076,140.076,0,0,0,4.467,18.451,98.821,98.821,0,0,0,4.532,10.821c1.457,3.307,3.158,6.515,4.9,9.685.937,1.706,2.183,3.242,3.288,4.858,2.049,2.991,4.079,6,6.155,8.972,1.046,1.5,2.169,2.866,4.218,3.132a.914.914,0,0,1,.432,1.668,14.044,14.044,0,0,1-2.54,1.845,4.372,4.372,0,0,1-2.569.392c-8.685-1.051-17.372-2.167-26.139-2.251-2.721-.025-5.446.174-8.165.341-1.884.116-1.968.337-2.148,2.1-.411,4.051-.9,8.095-1.353,12.14H394.8c1.448-4.434.937-8.915.29-13.625a181.413,181.413,0,0,0-22.506.707c-1.093.105-1.733.775-1.534,1.791.726,3.7.8,7.508,1.942,11.128h-2.726c-.258-3.794-1.738-7.3-2.6-10.956-.32-1.36-.974-1.743-2.352-1.425-3.52.812-7.054,1.6-10.506,2.654-3.984,1.214-3.949,1.332-4.849-2.907-.308-1.448-.636-1.793-2.093-1.787-3.619.011-7.235.109-10.854.125-7.683.035-15.332,1.1-23.028.772a6.221,6.221,0,0,0-1.35.109c-1.083.2-1.608.94-1.761,2.169a49.345,49.345,0,0,0,.325,11.248h-2.726c-.279-3.764-.571-7.529-.826-11.3a1.285,1.285,0,0,0-1.381-1.39,10.733,10.733,0,0,0-1.812.047c-3.886.559-7.764,1.158-11.648,1.719a17.159,17.159,0,0,0-5.886,2.276A3.76,3.76,0,0,1,282,348.548a1.51,1.51,0,0,1,.214-1.706c1.75-1.548,1.945-3.661,2.279-5.747a8.522,8.522,0,0,1,1.763-4.566,7.7,7.7,0,0,0,1.188-2.91,136.312,136.312,0,0,1,4.865-14.091,46.35,46.35,0,0,0,2.568-10.55c.6-3.891,1.515-7.692,2.42-11.511.764-3.223,1.485-6.473,1.94-9.75a26.341,26.341,0,0,1,.97-4.385,47.8,47.8,0,0,0,2.095-13.836c.028-1.872-.258-2.385-2.144-2.951-3.756-1.127-7.557-2.1-11.344-3.112-8.316-2.227-16.617-4.513-24.963-6.626a75.139,75.139,0,0,0-10.671-2.009c-3.907-.4-7.706-1.606-11.682-1.481a11.109,11.109,0,0,1-2.675-.462c-2.663-.592-2.525-.606-2.652-3.606-.351-8.45-.292-16.907-1.29-25.344-.9-7.629-1-15.35-1.742-23-.685-7.077-.917-14.156-1.139-21.255-.155-4.944-.893-9.868-1.4-14.8-.127-1.227-.648-1.511-1.838-1.079-.566.206-1.086.545-1.655.735-1.336.445-1.979.153-2.536-1.083a5.441,5.441,0,0,1-.513-1.253c-.81-4.749-2.244-9.383-1.988-14.32a40.793,40.793,0,0,0-.51-10.387c-.645-3.139.641-5.942,2.539-8.425,1-1.3,2.562-2.388,3-3.835.443-1.473-.211-3.267-.344-4.923-.984-12.2-2.018-24.4-3.9-36.5-.745-4.787-.626-9.64-1.54-14.393a3.883,3.883,0,0,1-.088-1.353c.288-1.722-1.8-3.8.09-5.049,1.6-1.065,3.411.638,5.068,1.17,6.754,2.172,13.39,4.712,20.16,6.835,6.191,1.942,12.32,4.109,18.683,5.51,3.689.812,7.279,2.056,10.944,2.993,3.492.893,7.023,1.64,10.481,2.438.707-1.169-.13-1.517-.554-2.007a10.769,10.769,0,0,1-2.213-11.386,18.549,18.549,0,0,1,5.385-8.209,54.723,54.723,0,0,1,9.474-6.942,59.9,59.9,0,0,1,11.6-5.009c4.926-1.436,9.814-3,14.755-4.378A55.388,55.388,0,0,1,350.2,42.684c4.155.759,8.355,1.281,12.543,1.838a46.443,46.443,0,0,0,5.875.489c3.74.021,7.482-.083,11.22-.2,9.8-.308,18.952-3.645,28.312-6.026,5.128-1.306,9.928-3.671,15.163-4.612,2.083-.373,4.156-.8,6.241-1.149a16.161,16.161,0,0,1,6.715.736c2.488.634,4.968,1.343,7.392,2.19a18.288,18.288,0,0,1,7.381,4.309,21,21,0,0,0,3.119,2.624A14.844,14.844,0,0,1,459.554,50a29.078,29.078,0,0,1,1.931,14.17,30.613,30.613,0,0,1-3.673,12.012c-.125.223-.016.58-.018.873a1.126,1.126,0,0,0,.4.149q9.045-.369,18.089-.752c2.416-.1,4.835-.211,7.253-.234a7.721,7.721,0,0,0,3.975-.722c2.119-1.281,3.87-.675,5.608.654-.162.244-.292.666-.487.7-1.518.258-2.188,1.16-2.735,2.6-2.427,6.378-3.981,13-5.694,19.574-.534,2.047-1.13,4.079-1.74,6.1a26.92,26.92,0,0,0-1.436,7.539,13.635,13.635,0,0,1-.438,3.123c-1.135,4.575-1.359,9.269-1.9,13.921a1.443,1.443,0,0,0,.659,1.538c.511.323,1.054.594,1.573.905a5.471,5.471,0,0,1,2.81,5.742c-.364,3-.8,5.989-1.22,8.981-.167,1.193-.469,2.376-.541,3.575-.2,3.318-1.754,6.046-3.592,8.671a2.069,2.069,0,0,1-1.87,1.042c-1.615-.084-2.086,1.054-2.269,2.292-.288,1.944-.452,3.907-.613,5.866-.174,2.109-.09,4.258-.453,6.33-2.084,11.868-1.253,23.824-1.206,35.757.007,1.967.084,3.933.051,5.9-.112,6.358.571,12.673,1,19q.351,5.2.645,10.409a4.07,4.07,0,0,1-.264,1.294c-.018.056-.283.061-.432.056-.132-.005-.339-.016-.383-.095a12.408,12.408,0,0,1-1.42-5.176c-.39-5.406-.717-10.821-1.251-16.212-.462-4.68.237-9.355-.114-14.01a167.145,167.145,0,0,1-.309-18.093,138.926,138.926,0,0,1,1.371-17.128c.773-4.9.724-9.931,1.2-14.889.151-1.59.178-2.9-1.169-4.03a3.265,3.265,0,0,1-.905-2.944c.533-4.981-.2-9.952-.058-14.931a5.373,5.373,0,0,1,1.531-4.1,4.833,4.833,0,0,0,1.935-3.459,1.383,1.383,0,0,1,1.153-1.244c1.084-.288,1.286-1.095,1.4-2.053.529-4.494,1.026-8.991,1.67-13.469.322-2.235.937-4.425,1.408-6.64a203.344,203.344,0,0,1,6.068-23.618c.536-1.573.965-3.184,1.38-4.8.3-1.149-.134-1.752-1.316-1.745-3.329.019-6.659.054-9.984.2a36.231,36.231,0,0,1-4.053.028c-6.387-.418-12.668.645-18.926,1.706a14.959,14.959,0,0,0-4.181,1.719c-3.543,1.838-7.42,2.536-11.246,3.4a5.947,5.947,0,0,1-2.7.069c-4.315-1.134-8.736-.511-13.095-.9a36.315,36.315,0,0,0-12.1,1.4,82.656,82.656,0,0,1-11.6,2.047c-1.946.2-3.837.872-5.779,1.151-4.476.645-8.97,1.17-13.455,1.77-2.091.279-4.2.555-5.815,2.142-.859.845-1.961.6-3.005.673-1.935.134-4.357-.559-5.6,1.025-1,1.276-1.018,3.411-1.25,5.193-.388,3-.71,6.01-.87,9.026-.483,9.211-.466,18.469-1.446,27.624-.678,6.325-.118,12.692-1.237,18.968a27.836,27.836,0,0,0-.084,4.536c-.111,9.376.156,18.759-.534,28.128-.5,6.787-.921,13.582-1.348,20.374-.153,2.411-.283,4.826-.306,7.241-.035,4.083-.42,8.141-.657,12.209-.308,5.279-.058,10.59-.112,15.885-.074,7.264-.167,14.527-.329,21.787-.118,5.279-.362,10.555-.541,15.831-.026.756-.03,1.517.011,2.271.146,2.736,1.063,3.406,3.369,2.163a53.479,53.479,0,0,1,5.88-2.373,102.9,102.9,0,0,0,10.42-4.346c5.481-2.889,11.45-4.654,17.283-6.717,4.689-1.661,9.343-3.422,14.035-5.072a3.582,3.582,0,0,0,2.436-1.821.861.861,0,0,1,1.45-.374,1.691,1.691,0,0,0,2.033.411c4.455-2.376,9.5-2.859,14.214-4.427,7.733-2.573,15.7-4.258,23.631-6.107,5.585-1.3,11.2-2.5,16.794-3.74,7.645-1.7.3-1.262,8.16-1.965,1.924-.17-2.242,2.114-.329,1.717m-19.133,102.2a1.649,1.649,0,0,1,.105.357.848.848,0,0,1-.076.281l.056-.6c-.473-.366-.316-1.353-1.251-1.262a17.714,17.714,0,0,1,.995-10.571c.29-.652-.012-1.561.257-2.23,1.076-2.691-.431-4.61-1.842-6.548-.286-.394-.768-.251-.9.322a4.284,4.284,0,0,1-.172.882,1.049,1.049,0,0,1-.573.569c-.155.033-.489-.265-.568-.482-.332-.9.042-2.158-1.513-2.536,0,2.3.039,4.561-.021,6.817-.021.735-.232,1.54-1.337.968-.33-.17-.58-.009-.694.364a54.541,54.541,0,0,0-1.779,6.046,5,5,0,0,0,3.777,5.807,8.79,8.79,0,0,0,4.427.543C453.849,353.116,454.394,353.387,455.146,353.478Zm-13.452-89.735a1.953,1.953,0,0,0-.482,1.612c.042.385.243.547.552.429a.37.37,0,0,0,.2-.294c-.095-.566-.225-1.127-.343-1.689-.221-.981,5.448-2.645,4.339-3.464-.459,1.06-5.757,2.42-5.387,3.235C440.756,263.969,441.3,263.927,441.695,263.743Zm-.36,38.657c-1.7,1.281-1.018,3.084-.666,4.532.78,3.232,2.585,6.079,4.023,9.06a.972.972,0,0,0,1.111.55,28.53,28.53,0,0,1,3.083-.689c3.569-.232,3.865-.311,3.371-4.6-.135-1.177-.1-2.452-.979-3.415a.735.735,0,0,0-.707,0c-.411.327-.086,1.172-.856,1.3-.474-1.4-.592-2.928-1.51-4.174a2.821,2.821,0,0,0-1.6,1.471c-.362.766.283,2.264-.712,2.308-1.522.069-.851-1.582-1.19-2.464-.053-.141-.037-.327-.127-.427a.494.494,0,0,0-.387-.1.468.468,0,0,0-.336.211,1.954,1.954,0,0,0-.158.835c.1.842.729,2.111-.45,2.276-1.627.227-1.067-1.446-1.276-2.322-.35-1.459-.508-2.963-.747-4.45a1.4,1.4,0,0,0,.4-.19c.067-.063.049-.218.07-.332Zm3.6-5.666c1.056,3.4,1.123,3.513,3.728,5.924-.675-2.685-1.176-4.944-3.866-5.794.353-1.592.8-2.019,1.8-1.815a4.879,4.879,0,0,1,3.474,2.619,1.351,1.351,0,0,0,1.09.6,1.328,1.328,0,0,0,.826-.905A23.868,23.868,0,0,0,451.8,286.6a1.458,1.458,0,0,0-.819-.967c-.294-.06-.833.341-1.028.677-.831,1.427-1.557,2.914-2.355,4.36a2.9,2.9,0,0,1-1.715,1.374c-.51.165-1.392-.457-1.22-.956.439-1.267.914-2.527,1.462-3.75s1.251-2.4,1.812-3.626A2.69,2.69,0,0,0,446.3,280.7a.824.824,0,0,0-.645.482,11.208,11.208,0,0,0-.172,1.756c-.032.459-.114.893-.67.953-.6.063-.7-.425-.844-.847a4.664,4.664,0,0,0-1.5-2.473,55.1,55.1,0,0,0-.578,8.111c-.053,2.119-.253,4.176,1.888,5.64C444.415,294.755,444.565,295.908,444.939,296.734ZM236.868,213.227l-.309.019q.364,3.606.731,7.213c.378,3.754,1.037,7.508,1.06,11.265.032,5.594.619,11.144.821,16.72.058,1.615.525,2.118,2.155,2.336,2.543.343,5.112.533,7.629,1,5.5,1.032,11.151,1.293,16.49,3.026,6.622,2.151,13.459,3.427,20.142,5.311,2.909.821,5.8,1.7,8.743,2.387a86.431,86.431,0,0,1,12.97,4.032c2.8,1.134,5.668,2.1,8.494,3.174s5.717,2.011,8.432,3.313c8.583,4.116,17.1,8.374,25.638,12.582.271.134.518.315.793.441,1.005.464,1.8-.032,1.8-1.19,0-3.025-.135-6.053-.054-9.075.181-6.8.51-13.6.682-20.4.135-5.288.178-10.58.167-15.87-.011-5.747.453-11.488.478-17.216.04-8.785,1.072-17.5,1.193-26.27a12.5,12.5,0,0,1,.237-1.793c.835-5.23.207-10.573,1.2-15.791-.893-3.3,0-6.6.049-9.9.1-7.1.069-14.221.591-21.3,1.021-13.864,1.729-27.743,2.367-41.627a32.745,32.745,0,0,1,.9-6.72c.923-3.578.4-4.188-3.239-4.511-.3-.026-.6-.009-.907-.021a255.674,255.674,0,0,1-29.664-3.5q-9.841-1.595-19.7-3.018c-10.149-1.441-20.441-2.135-30.218-5.6a5.39,5.39,0,0,0-1.782-.329,13.766,13.766,0,0,1-4.85-1.07c-4.258-1.6-8.692-2.587-13.023-3.928s-8.62-2.815-12.952-4.153c-2.309-.714-4.713-1.132-7-1.912-3.714-1.271-7.36-2.736-11.04-4.107-1.38-.515-2.139-.046-1.995,1.353.278,2.7.931,5.388.968,8.086.074,5.469.984,10.826,1.685,16.216.6,4.636,1.288,9.262,1.829,13.9.682,5.849,1.237,11.713,1.888,17.566a3.952,3.952,0,0,0,.7,2.569,2.915,2.915,0,0,1,.942,2.858,1.565,1.565,0,0,0,.743,1.547c1.116.833,1.146,2.039,1.339,3.237.812,5.068,1.492,10.156,3.385,15,.779,1.991.524,4.184.445,6.3a3.373,3.373,0,0,1-1.285,2.8c-1.975,1.315-2.026,3.22-1.939,5.234q.345,7.927.682,15.854c.088,2.111.127,4.223.228,6.332Q236.172,199.422,236.868,213.227ZM349.372,342a2.657,2.657,0,0,0,.7-2.144c.137-2.717.142-5.441.327-8.155.464-6.778,1.127-13.546,1.466-20.33.286-5.735.2-11.487.775-17.211a7.131,7.131,0,0,1,.162-1.786,1.749,1.749,0,0,1,1.784-1.127,1.131,1.131,0,0,1,1.065,1.223,37.5,37.5,0,0,1,.093,4.529c-.214,3.165-.656,6.314-.824,9.48-.357,6.64-.023,13.3-.691,19.94-.376,3.747-.012,7.555-.865,11.283a8.243,8.243,0,0,0,.014,2.708c.042.376.432,1.023.657,1.019,1.814-.023,3.371,1.232,5.3.81a70.111,70.111,0,0,1,15.726-1.489c6.807.06,13.617-.067,20.425-.16,2.858-.039,5.712-.264,8.568-.279,2.109-.012,4.223.128,6.329.29,6.362.487,12.652-1.053,19.012-.649,1.371.088,1.648-.713.771-2.109a175.161,175.161,0,0,1-13.9-26.448q-3.105-7.54-5.921-15.195a12.619,12.619,0,0,1-1.081-5.3c.49-6.854-1.561-13.488-1.771-20.286-.03-.954-.747-1.221-1.6-1.01a21.235,21.235,0,0,0-2.172.648q-8.51,3.09-17.007,6.206c-3.119,1.144-6.286,2.183-9.334,3.5-6.662,2.866-13.281,5.837-19.877,8.852a7.275,7.275,0,0,1-6.928-.125c-4.536-2.409-9.142-4.687-13.752-6.956a223.1,223.1,0,0,0-27.891-11.945c-.851-.283-1.673-.766-2.562-.316-.845,4.169-1.7,8.307-2.513,12.455a42.786,42.786,0,0,0-.786,4.93,105.594,105.594,0,0,1-1.824,12.954c-.961,4.731-1.747,9.476-3.5,14.03a42.525,42.525,0,0,0-2.076,8.33,37.386,37.386,0,0,1-2.743,9.543c-1.974,4.285-2.58,8.893-3.4,14.061,4.318-.87,8.374-.749,12.283-1.965a43.688,43.688,0,0,1,14.348-1.759,168.512,168.512,0,0,0,21.706-.285C341.687,341.376,345.589,341.063,349.372,342ZM427.939,81.139a61.806,61.806,0,0,0,8.133-.575q5.346-1.054,10.743-1.606a7.45,7.45,0,0,0,3.471-.919c4.344-2.893,8.478-5.963,8.557-11.94.009-.747.308-1.485.373-2.235a23.009,23.009,0,0,0-5.561-17.673c-5.615-6.413-13-9.661-21.45-10.5a12.024,12.024,0,0,0-2.719.051A73.757,73.757,0,0,0,416.6,38.192c-6.474,2.042-12.989,3.96-19.5,5.893a82.74,82.74,0,0,1-20.52,3.374c-1.511.056-3.039-.088-4.221,1.193a1.132,1.132,0,0,1-1.633.165c-1.617-1.866-3.849-1.6-5.879-1.675a110.07,110.07,0,0,1-15.72-2c-8.088-1.5-15.98-.619-23.836.956a80.663,80.663,0,0,0-15.04,4.944,88.563,88.563,0,0,0-16.745,9,13.64,13.64,0,0,0-6.163,12.852,7.341,7.341,0,0,0,6.091,6.868,25.8,25.8,0,0,0,7.16.613c2.88-.281,5.657-.482,8.269-1.919a17.391,17.391,0,0,1,3.886-1.192c3.2-.865,6.483-1.474,9.575-2.619a46.153,46.153,0,0,1,9.186-2.376c4.177-.633,8.408-1.026,12.553-1.7,8.077-1.311,16.218-1.255,24.313-1.979a11.778,11.778,0,0,1,3.165.1c5.485,1.019,10.977,1.9,16.258,3.928a58.2,58.2,0,0,0,9.5,2.974c4.578.907,9.044,2.374,13.608,3.374C416.507,80.2,422.115,81.55,427.939,81.139Zm12.729,240.153c-.524,1.559-.916,2.7-1.286,3.838-.221.687-.837,1.446-.158,2.091,1,.951,1.564-.316,2.262-.666,1.474-.738,2.865-1.641,4.32-2.415,1.6-.847,3.155-1.722,5.135-1.179,1.663.457,3.237-.457,4.856-.722.947-.156,1.351-1.343,1.044-2.636-.232-.968-.937-.974-1.747-.8-2.209.469-4.42.939-6.641,1.35C445.948,320.615,443.529,321.561,440.668,321.292Zm8.387-41.887c.381-1.12.838-2.211,1.105-3.346.126-.533.1-1.425-.227-1.684-1.218-.958-.759-2.622-1.64-3.594-1.566-1.729-1.693-3.8-1.656-5.905.037-2.128,2.371-4.334,1.93-6.387-.081-.371-.225-.54-.554-.543a.67.67,0,0,0-.715.854c.373,2.664-1.96,5.483-1.583,8.148.139.977.079,1.529-1.346,1.524-1.889-.007-2.693,1.721-1.575,3.019,1.364,1.582,2.636,3.348,4.58,4.253a1.949,1.949,0,0,1,1.246,2.1C448.614,278.38,448.338,278.992,449.055,279.405Zm-9.033,6.58c1.308-5.151,1.388-6.585.6-10.552C439.076,278.86,438.062,282.034,440.022,285.985Zm8.271-21.824a3.632,3.632,0,0,0,.128.982.946.946,0,0,0,.562.52c.513.081.8-.332.935-.743.258-.764-.193-1.411-.476-2.074-.048-.111,5.119-.67,5-.721-.283-.121-5.822.48-5.914.849C448.42,263.4,448.355,263.838,448.292,264.161Zm4.228,64.748c.8-.415.7-1.221.793-1.912.032-.223-.214-.483-.332-.726-.209.167-.541.3-.606.508A2.46,2.46,0,0,0,452.521,328.909Zm-13.4-246.315.793-.2a3.208,3.208,0,0,0-.721-.286c-.374-.054-.553.118-.434.36C438.793,82.55,438.992,82.554,439.116,82.594ZM287.256,338.2c-.074,0-.241-.005-.241,0-.018.26-.021.52-.026.78l.255,0C287.257,338.721,287.256,338.461,287.256,338.2Zm193.2-196.229c-.051.118-.156.248-.139.358s.193.278.25.26c.339-.1.409-.336.192-.612C480.717,141.932,480.559,141.975,480.453,141.975Z"
                transform="translate(-220.511 -32.897)" fill="#714c98" />
              <path id="Path_117" data-name="Path 117"
                d="M287.107,223.9c.248-3.694,1.408-7.343.457-11.1-.186-.731.863-1.446,1.909-1.49a1.553,1.553,0,0,1,1.794,1.555c-.425,3.687.037,7.49-1.434,11.039Z"
                transform="translate(-170.067 102.237)" fill="#714c98" />
              <path id="Path_118" data-name="Path 118"
                d="M358.8,103.485c-3.423.308-7.789.643-12.14,1.114a27.384,27.384,0,0,0-7,1.822,53.779,53.779,0,0,1-6.5,1.837,1.727,1.727,0,0,1-2.1-1.78,27.113,27.113,0,0,1,.228-3.151c.721-7.061,1.469-14.119.731-21.233a7.425,7.425,0,0,1,.234-2.221,1.442,1.442,0,0,1,1.58-1.308c7.61.838,15.049-1.1,22.594-1.371a65.942,65.942,0,0,0,12.058-1.935,33.363,33.363,0,0,1,4.917-.633,1.223,1.223,0,0,1,1.216,1.119,9.044,9.044,0,0,1-.36,4.035,23.241,23.241,0,0,0-.327,9c.575,4.237-.095,8.438-.529,12.633-.169,1.619-1.028,2.17-2.789,2.348A68.83,68.83,0,0,1,358.8,103.485Zm12.053-26.216a3.047,3.047,0,0,0-2.33-.079c-2.678.446-5.341,1.025-8.033,1.336-5.979.687-11.975,1.225-17.959,1.859-1.945.206-3.877.534-5.819.78a1.418,1.418,0,0,0-1.343,1.489c-.453,5.248-.932,10.492-1.359,15.741-.135,1.65-.188,3.311-.186,4.968,0,1.134.677,1.6,1.773,1.336.583-.142,1.135-.42,1.721-.548,6.313-1.392,12.485-3.457,18.982-3.963a72.585,72.585,0,0,1,11.3.03,1.565,1.565,0,0,0,1.819-1.541c.52-4.026,1.144-8.042,1.524-12.081A37.015,37.015,0,0,0,370.855,77.269Z"
                transform="translate(-136.771 -1.292)" fill="#714c98" />
              <path id="Path_119" data-name="Path 119"
                d="M325.828,78.576c1.227,1.188,2.04,2.067,2.945,2.835,4.151,3.52,5.842,8.351,6.949,13.4.9,4.09-.882,7.5-3.933,10.026a21.366,21.366,0,0,1-18.59,4.856,9.391,9.391,0,0,1-5.671-3.455c-1.719-2.248-3.942-4.146-4.452-7.218a8.133,8.133,0,0,1,.119-3.97c.772-2.439,1.367-4.933,2.088-7.39,1.2-4.083,1.216-4.077,4.383-6.956a11.474,11.474,0,0,0,1.652-1.536,4.849,4.849,0,0,1,5.172-1.9,15.659,15.659,0,0,0,4.944-.294c2.961-.485,5.949-1.172,8.965-.228a2.651,2.651,0,0,0,2.466-.777c1.807-1.35,3.617-2.706,5.513-3.926a2.139,2.139,0,0,1,2.54-.2,1.3,1.3,0,0,1,.492.687,1.618,1.618,0,0,1-.162.842.551.551,0,0,1-.364.25c-3.313.654-5.515,2.989-7.778,5.2a2.059,2.059,0,0,1-2.786.453,9.935,9.935,0,0,0-2.543-.828A8.836,8.836,0,0,0,325.828,78.576ZM318.217,81c-.7,0-1.6-.012-2.506,0a6.188,6.188,0,0,0-5.747,3.655,24.146,24.146,0,0,0-2.332,15.729c.48,3.011,2.191,4.406,4.782,5.329,1.731.617,3.573.6,5.3,1.069,3.678,1.009,6.829-.2,9.886-1.982a9.808,9.808,0,0,0,5.053-9.024c-.014-3.872-1-7.471-4.1-10.153-.8-.689-1.659-1.32-2.383-2.081A7.879,7.879,0,0,0,318.217,81Z"
                transform="translate(-158.113 -3.66)" fill="#714c98" />
              <path id="Path_120" data-name="Path 120"
                d="M381.57,121.936c-.93-.209-1.953-.464-2.986-.67a13.309,13.309,0,0,0-10.021,1.531,19.8,19.8,0,0,1-13.467,2.814c-4.207-.576-8.4.424-12.487,1.6-1.742.5-3.46,1.095-5.214,1.55-3.267.845-6.506,1.2-9.777-.207-2.71-1.167-5.292-.9-7.439,1.4a11.824,11.824,0,0,1-1.438,1.107c-1.589,1.237-2.329,1.7-3.631-.371-1.049-1.67-2.4-1.589-3.949-1.142A22.2,22.2,0,0,0,304.5,132.3a1.086,1.086,0,0,1-1.557-.408,1.518,1.518,0,0,1-.179-1.264c.631-1.411,1.5-2.735,3.132-3.046,3.074-.583,6.046-1.645,9.332-1.081a9.6,9.6,0,0,0,7.03-1.046,4.537,4.537,0,0,1,3.937-.383c3.566,1.1,7.17.684,10.777.255,5.251-.622,10.329-2.206,15.627-2.657a36.954,36.954,0,0,0,7.915-1.895,37.171,37.171,0,0,1,7.125-1.279,13.225,13.225,0,0,0,3.554-.624,8.573,8.573,0,0,1,6.534-.473c1.185.415,2.677-.051,4.03-.1a2.189,2.189,0,0,1,1.933.924c.787,1.007.526,2.149-.666,2.439C382.586,121.767,382.138,121.83,381.57,121.936Z"
                transform="translate(-158.261 31.526)" fill="#714c98" />
              <path id="Path_121" data-name="Path 121"
                d="M306.7,144.15c-.931-.576-1.938-1.171-2.914-1.812a.933.933,0,0,1,.185-1.5,12.626,12.626,0,0,1,2.482-1.054,44.975,44.975,0,0,1,9.334-1.8,5.235,5.235,0,0,0,1.355-.111c6.545-2.037,13.4-1.877,20.088-2.88,5.965-.9,12.044-1.123,17.847-2.986a2.955,2.955,0,0,1,1.309-.32c3.4.7,6.58-.64,9.861-1.007a32.691,32.691,0,0,1,5.884-.141,57.869,57.869,0,0,0,11.712-.149c-.833,1.74-1.576,2.722-2.919,3.23a8.453,8.453,0,0,1-6.2.223,11.774,11.774,0,0,0-9.223.236c-.828.359-1.736.529-2.578.861a4.461,4.461,0,0,1-3.944-.051,5.384,5.384,0,0,0-4.812-.014,49.95,49.95,0,0,1-15.9,3.348c-2.7.153-5.195,1.483-7.952,1.729a15.858,15.858,0,0,1-6.678-.366,5.81,5.81,0,0,0-5.52.884c-.759.5-1.5,1.018-2.242,1.545a2.256,2.256,0,0,1-2.935.069c-1.532-1.241-2.778-.654-4.033.418C308.233,143.071,307.764,143.923,306.7,144.15Z"
                transform="translate(-157.662 40.942)" fill="#714c98" />
              <path id="Path_122" data-name="Path 122"
                d="M309.382,131.692a8.6,8.6,0,0,0,5.105-.548,1.878,1.878,0,0,1,.877-.2c3.844.561,7.415-.722,11.1-1.452,3.534-.7,7.167-.914,10.747-1.462a57.982,57.982,0,0,1,9.054-.214,34.387,34.387,0,0,0,8.938-1.271,16.945,16.945,0,0,1,6.256-.559,29.507,29.507,0,0,0,10.8-.582c1.306-.346,2.712-.313,4.025-.638,1.6-.4,2.967.206,4.364.754a.831.831,0,0,1,.471,1.107,2.263,2.263,0,0,1-.931.888,1.163,1.163,0,0,1-.875.079c-3.056-1.1-5.952-.258-8.859.652-1.007.316-2.044.541-3.07.793a8.734,8.734,0,0,1-5.759-.142c-1.872-.8-3.849-.406-5.8-.011-2.661.541-5.344.975-8.021,1.436a27.1,27.1,0,0,1-8.126.255,9.839,9.839,0,0,0-6.6,1.037c-4.684,2.923-9.851,2.759-14.954,2.341-2.392-.2-4.5-.086-6.469,1.163a2.514,2.514,0,0,1-3.279-.056c-.663-.5-1.594-1.091-2.416-.216-.489.52-.694,1.534-1.626,1.193-1.158-.425-1.764-1.568-2.48-2.506-.091-.12.344-.909.67-1.03a13.718,13.718,0,0,1,3.053-.782A35.716,35.716,0,0,1,309.382,131.692Z"
                transform="translate(-158.909 36.592)" fill="#714c98" />
              <path id="Path_123" data-name="Path 123"
                d="M357.57,95.756c1.322,1.086,2.773,2.165,4.088,3.388a5.892,5.892,0,0,0,5.865,1.425,13.3,13.3,0,0,1,2.624-.654c1.264-.053,2.865-.722,3.673.664.55.946-2.221,3.812-3.6,3.923a4.736,4.736,0,0,1-1.355.012c-3.657-.794-7.55-.417-11.012-2.158a2.352,2.352,0,0,0-2.158.076,9.744,9.744,0,0,0-1.861,1.239,11.9,11.9,0,0,1-4.45,2.174c-2.373.59-4.812.924-6.575-1.5-.865-1.188-1.982-1.1-3.227-.585a13.977,13.977,0,0,0-4.866,3.221,6.268,6.268,0,0,1-3.905,2.1c-.448.047-.931.091-1.22-.362a.936.936,0,0,1,.135-1.223,35.328,35.328,0,0,1,11.193-6.675c1.081-.427,2.019.186,3.012.576,1.487.585,2.459,2.5,4.385,1.875,1.583-.511,1.942-2.23,2.905-3.358C353.164,97.638,353.117,97.6,357.57,95.756Z"
                transform="translate(-138.013 14.715)" fill="#714c98" />
              <path id="Path_124" data-name="Path 124"
                d="M319.458,162.269c1.68-.888,2.752-2.578,4.123-3.944s2.847-2.258,4.717-.773a2.478,2.478,0,0,0,2.96.193,18.482,18.482,0,0,1,9.592-2.079c1.346.011,2.694-.188,4.032-.29.606.887-.019,1.45-.526,1.9-2.169,1.926-4.4,3.408-7.629,3.265-3.285-.146-6.6.418-9.9.656a3.691,3.691,0,0,0-2.014.914c-1.313,1.009-2.608,2.051-3.995,2.949s-2.2.691-3.555-.606c-.325-.311-.576-.7-.893-1.019a1.158,1.158,0,0,0-1.612-.153c-.248.167-.45.4-.685.585-.606.49-.942,1.817-2.047.877-.64-.545-.411-1.38-.1-2.1.3-.691.557-1.4.893-2.074.657-1.32,1.22-1.54,2.485-.967.819.373,1.606.817,2.406,1.232C318.358,161.165,318.417,162.167,319.458,162.269Z"
                transform="translate(-151.503 59.874)" fill="#714c98" />
              <path id="Path_125" data-name="Path 125"
                d="M234.1,71.27c3.46-.3,3.46-.3,4.65,2.706,2-.054,3.738-1.014,5.554-1.675a33.979,33.979,0,0,1,7-1.861,1.812,1.812,0,0,1,2.251,1.62c.285,1.142-.3,2.559.77,3.418,1.214.979,2.671.29,3.938.046,3.2-.619,6.337.077,9.5.125,1.766.028,2.482,1.533,3.585,2.982,2.566-1.431,5.148-2.891,7.749-4.313,1.188-.648,2.429-1.206,3.627-1.838,1.617-.852,2.836-.355,3.988.938,1.2,1.351,2.631,2.5,3.794,3.884,1.381,1.636,3.084,1.736,4.949,1.411A21.446,21.446,0,0,0,299,77.968c2.993-1.06,5.97.051,8.954-.051a1.8,1.8,0,0,1,1.654,2.531A6.65,6.65,0,0,0,309,82.6c-.025.634-.3,1.2-1.035,1.253a1.4,1.4,0,0,1-1.411-.916c-.9-2.265-2.7-2.587-4.814-2.429a22.077,22.077,0,0,0-6.249,1.014,5.339,5.339,0,0,1-5.835-1.279c-1.7-1.5-3.494-2.9-5.258-4.325a1.64,1.64,0,0,0-2.072-.183c-3.334,2.039-7.223,3.13-10.037,6.084-1.072,1.125-2.044.954-3.19-.065a1.681,1.681,0,0,1-.329-.311c-2.471-3.828-5.763-3.794-9.481-2.1a13.618,13.618,0,0,1-4.824,1.174,2.942,2.942,0,0,1-2.924-1.68c-.675-1.091-.571-2.337-1.005-3.457a1.884,1.884,0,0,0-2.555-1.137c-2.954,1.114-5.893,2.269-8.838,3.4-1.692.65-2.55.367-3.246-1.3C235.215,74.7,234.7,73,234.1,71.27Z"
                transform="translate(-210.217 -4.484)" fill="#714c98" />
              <path id="Path_126" data-name="Path 126"
                d="M272.176,132.6q0,3.627,0,7.255a11.414,11.414,0,0,1-.91,4.413,1.3,1.3,0,0,1-1.858.7,2.368,2.368,0,0,1-.411-.192c-4.144-2.743-8.854-2.979-13.531-2.643a59.1,59.1,0,0,1-13.538-.181c-1.687-.265-2.011-.643-2-2.325,0-.745-.011-1.494.042-2.235.313-4.374.559-8.747-.438-13.072a1.713,1.713,0,0,1,1.123-2.151,7.95,7.95,0,0,1,3.965-.7c5.879.32,11.757.675,17.641.8,2.7.06,5.42-.373,8.13-.582,1.072-.083,1.712.318,1.782,1.482.054.886.612,1.692.357,2.648C271.934,128.066,272.448,130.344,272.176,132.6Zm-29.288-1.081H243c0,2.112-.007,4.223,0,6.336a1.965,1.965,0,0,0,1.548,1.946,15.983,15.983,0,0,0,5.381.483c5.559,0,11.144-.715,16.645.77,1.058.285,1.722-.285,1.856-1.39.359-2.991.6-6,1.005-8.979.627-4.6.067-4.935-4.264-5.156-6.756-.348-13.5-.9-20.255-1.362-1.759-.121-2.105.316-2.046,2.376C242.927,128.2,242.888,129.864,242.888,131.523Z"
                transform="translate(-206.157 34.183)" fill="#714c98" />
              <path id="Path_127" data-name="Path 127"
                d="M292.218,107.7c-9.186-.065-12.893-4.726-13.153-13.17-.132-4.293,2.221-7.434,4.494-10.61a23.449,23.449,0,0,1,4.933-4.655c2.4-1.861,5.337-1.8,8.093-2.369a2.546,2.546,0,0,1,1.717.448c2.243,1.511,4.689,2.808,6.1,5.281,1.125,1.968,2.364,3.882,3.339,5.923,2.995,6.26-.471,14.376-6.453,16.692C295.612,107.436,295.629,107.723,292.218,107.7Zm-.032-2.631c3.385-.731,7.111-1.409,10.2-3.777a9,9,0,0,0,3.655-7.882,12.878,12.878,0,0,0-4.153-8.341c-2.248-2.2-4.555-4.557-8.225-3.826-1.824-.917-3.149.17-4.533,1.1-3.954,2.664-6.051,7.237-7.105,11.177-.524,1.954.293,5.671,1.272,7.35C285.241,104.2,288.473,104.707,292.186,105.067Z"
                transform="translate(-176.163 0.408)" fill="#714c98" />
              <path id="Path_128" data-name="Path 128"
                d="M302.129,91.959a1.773,1.773,0,0,1-2.251,1.677c-2.7-.988-5.346-.685-8.039-.112a8.753,8.753,0,0,1-2.255.183,17.1,17.1,0,0,0-8.372,1.6,5.676,5.676,0,0,1-7.3-1.756c-2.408-2.933-5.318-3.079-8.6-2.25a51.731,51.731,0,0,0-7.188,2.75c-1.724.724-2.471.48-3.482-1.014-.673-.995-1.172-2.107-1.75-3.165-.83-1.517-1.109-1.663-2.9-1.276-3.692.8-7.374,1.641-11.068,2.425-1.114.235-1.629-.469-1.237-1.564.25-.7.511-1.392.728-2.1s.773-.849,1.373-.949a.827.827,0,0,1,.445.065c3.443,1.445,6.8.884,10.153-.373a10.132,10.132,0,0,1,1.766-.418,1.992,1.992,0,0,1,2.269,1.1c.348.663.564,1.4.854,2.091.408.975,1.174,1.508,2.151,1.067,3.67-1.654,7.669-1.474,11.5-2.186a5.115,5.115,0,0,1,3.9.845,11.37,11.37,0,0,1,2.281,1.466c1.944,2.206,4.181,2.306,6.931,1.807,4.6-.835,9.29-1.258,13.952-1.728a28.6,28.6,0,0,1,4.979.109C301.581,90.295,301.964,90.857,302.129,91.959Z"
                transform="translate(-207.604 7.052)" fill="#714c98" />
              <path id="Path_129" data-name="Path 129"
                d="M239.662,101.46a71.713,71.713,0,0,0,16.306.562c1.206-.077,2.422.035,3.626-.047a2.44,2.44,0,0,1,2.946,2.111,5.178,5.178,0,0,0,.371.824,1.348,1.348,0,0,0,1.807.847,5.862,5.862,0,0,0,1.285-.425c2.613-1.413,5.457-1.594,8.341-1.7,1.771-.065,3.228.167,4.042,2.04a3.221,3.221,0,0,0,2.531,1.7c1.325.272,2.626.675,3.924,1.067a.908.908,0,0,1,.329,1.46c-3.047,2.617-3.64,2.624-6.439.077a17.291,17.291,0,0,1-1.986-1.851c-1.815-2.279-4.141-2.265-6.553-1.441-2.708.924-5.369,2-8.016,3.088a1.491,1.491,0,0,1-2.193-.8c-2.691-5.3-1.8-4.5-8.072-4.35-4.815.116-9.652-.46-14.457.32a1.553,1.553,0,0,1-1.128-.559c-.529-.6-.051-1.114.364-1.54C237.518,102,238.21,100.82,239.662,101.46Z"
                transform="translate(-208.711 18.897)" fill="#714c98" />
              <path id="Path_130" data-name="Path 130"
                d="M304.235,191.269a2.893,2.893,0,0,1-3.346,3.095,1.869,1.869,0,0,1-1.506-2.629,6.6,6.6,0,0,1,.8-1.559,2.136,2.136,0,0,1,2.2-1.149A2.661,2.661,0,0,1,304.235,191.269Z"
                transform="translate(-160.886 85.333)" fill="#714c98" />
              <path id="Path_131" data-name="Path 131"
                d="M304.3,201.738a2.274,2.274,0,0,1-2.956,2.308c-1.6-.531-2.292-1.309-2.153-2.43.253-2.058,1.541-2.7,3.466-1.78C303.5,200.241,304.258,200.664,304.3,201.738Z"
                transform="translate(-160.929 93.237)" fill="#714c98" />
              <path id="Path_132" data-name="Path 132"
                d="M302.315,183.557a1.113,1.113,0,0,1-1.255,1.023,2.091,2.091,0,0,1-1.981-2.06,1.217,1.217,0,0,1,1.3-1.032A1.95,1.95,0,0,1,302.315,183.557Z"
                transform="translate(-161.008 79.652)" fill="#714c98" />
              <path id="Path_133" data-name="Path 133"
                d="M328.583,42.944c-.265,1.764-.269,1.775,1.155,2.172a10.763,10.763,0,0,1,1.754.406,3.627,3.627,0,0,1,1.3,5.68c-.757.919-1.489,1.974-2.749,2.26a1.752,1.752,0,0,1-1.223-.355.836.836,0,0,1-.2-1.2c.633-.824,1.364-1.571,2-2.392.308-.394-.156-1.316-.668-1.443-2.353-.582-4.677,1.167-4.033,3.373a7.279,7.279,0,0,1-.056,4.724c-.448,1.3.907,1.735,1.445,2.564a.986.986,0,0,1-.645,1.394c-1.32.2-2.706-.441-3.984.311-1.8-.912-3.643-1.757-5.383-2.775a.953.953,0,0,1,.088-1.554,4.8,4.8,0,0,1,2.979-.9.933.933,0,0,0,.94-1.214,4.617,4.617,0,0,1,.842-3.378,2.587,2.587,0,0,0-.359-3.29c-.928-.583-2.413.453-2.986,2.095a2.87,2.87,0,0,0-.047.45c-.134.81.207,2.109-1.176,1.9-1-.155-1.056-1.339-1.236-2.22a3.645,3.645,0,0,1,1.967-4.181,6.76,6.76,0,0,1,2.012-1c1.325-.237,2.763-.019,4.025-.406,1.392-.427,1.149-2.413,2.357-3.151a1.184,1.184,0,0,1,1.968.8A4.146,4.146,0,0,1,328.583,42.944Z"
                transform="translate(-147.996 -27.105)" fill="#714c98" />
              <path id="Path_134" data-name="Path 134"
                d="M344.941,85.279a2.935,2.935,0,0,0-3.336.74c-.87.761-1.617.478-2.36-.177-.773-.684-1.6-1.315-2.307-2.06-.325-.341-.127-.873.193-1.211.188-.2.539-.439.743-.385a9.016,9.016,0,0,1,1.613.689c.508.25,1.012.9,1.58.353,1.754-1.691,3.7-.4,5.548-.425a1.034,1.034,0,0,1,1.088,1.149,1.43,1.43,0,0,1-1.473,1.388C345.786,85.355,345.34,85.3,344.941,85.279Z"
                transform="translate(-132.449 4.431)" fill="#714c98" />
              <path id="Path_135" data-name="Path 135"
                d="M320.82,85.049a2.712,2.712,0,0,1-.258.835,19.575,19.575,0,0,1-1.411,1.733c-1.515,1.656-3.227,1.462-4.3-.464a4.1,4.1,0,0,1,1.007-4.886c.2-.183.6-.39.782-.308,1.478.678,3.039,1.257,4.021,2.682A1.879,1.879,0,0,1,320.82,85.049Z"
                transform="translate(-149.374 4.25)" fill="#714c98" />
              <path id="Path_136" data-name="Path 136"
                d="M291.867,91.519a3.764,3.764,0,0,1-3.492-2.775c-.441-1.3-.2-2.018,1.065-3.1a5.932,5.932,0,0,1,1.049-.83c1.023-.525,2.077-1.517,3.253-.545a3.626,3.626,0,0,1,1.211,3.62,4.768,4.768,0,0,1-1.794,3.007A5.947,5.947,0,0,1,291.867,91.519Z"
                transform="translate(-169.261 5.701)" fill="#714c98" />
            </g>
          </g>
        </svg>