<svg xmlns="http://www.w3.org/2000/svg"
          viewBox="0 0 147.806 97.474">
          <g id="Group_51" data-name="Group 51" transform="translate(-3305.137 -3013.749) rotate(9)">
            <path id="Path_425" data-name="Path 425"
              d="M3860.655,2527.5a7.311,7.311,0,0,0,2.592,1.616,2.179,2.179,0,0,0,1.816-.3,22.1,22.1,0,0,0,2.29-1.7c.539-.457.794-.57,1.248-.262a1.053,1.053,0,0,1,.4,1.49c-1.936,3.292-5.118,4.788-8.63,3.68a98.64,98.64,0,0,0-16.815-3.772c-3.183-.419-6.385-.7-9.577-1.052a3.5,3.5,0,0,1-.886-.208,13.726,13.726,0,0,0-5.561-.93,2.679,2.679,0,0,1-1-.176,13.889,13.889,0,0,0-6.147-.789,6.327,6.327,0,0,1-1.952-.336,96.551,96.551,0,0,0-13.869-2.152c-4.664-.436-9.325-.906-13.975-1.471-2.71-.33-5.395-.877-8.091-1.32a11.2,11.2,0,0,0-5.785.161,7.152,7.152,0,0,0-4.895,5.875,14.352,14.352,0,0,1-3.949,7.788c-.3.324-.6.642-.905.959-.022.023-.07.021-.153.043a2.11,2.11,0,0,1-.435-1.747c.091-.468.259-.919.365-1.385a6.709,6.709,0,0,0,.177-1.128c.025-.466-.128-.745-.707-.66-1.115.164-2.239.278-3.362.379a1.354,1.354,0,0,1-1.572-.862,1.405,1.405,0,0,1,.5-1.738,20.786,20.786,0,0,1,2-1.228,4.424,4.424,0,0,0,1.958-1.91,7.745,7.745,0,0,0-2.7-.014,10.843,10.843,0,0,0-4.708,2.5,7.757,7.757,0,0,0-2.1,2.318,2.488,2.488,0,0,1-.272.368c-.472.565-.9.693-1.385.423a1.331,1.331,0,0,1-.706-1.633,1.67,1.67,0,0,1,.247-.514,26.538,26.538,0,0,1,4.855-5.164,11.073,11.073,0,0,1,9.52-1.576,4.282,4.282,0,0,0,1.4.115.775.775,0,0,0,.542-.515c.037-.312-.163-.568-.565-.658-1.789-.4-3.576-.809-5.352-1.263-2.516-.644-5.006-1.4-7.535-1.981a18.609,18.609,0,0,0-7.172-.39,1.579,1.579,0,0,1-1.961-1.161,1.606,1.606,0,0,1,1.16-1.969,9.188,9.188,0,0,1,2.422-.373c2.428-.052,4.858-.03,7.287-.037.665,0,.761-.063.539-.681a5.009,5.009,0,0,0-.928-1.738,44.194,44.194,0,0,1-6.656-9.926,5.7,5.7,0,0,1-.6-1.663,3.1,3.1,0,0,1,1.745-3.38c.452-.275,1.134-.142,1.666-.324a4.94,4.94,0,0,1,3.027.3c1.532.417,3.015,1.017,4.551,1.409,2.98.759,6,1.368,8.973,2.149,3.064.8,6.1,1.721,9.133,2.633.443.133.675.062.8-.32.451-1.394.915-2.787,1.3-4.2a9.99,9.99,0,0,1,1.465-3.4c.519-.708.968-1.467,1.439-2.211a13.643,13.643,0,0,1,2.824-3.293,4.563,4.563,0,0,0,1.526-5.549,10.774,10.774,0,0,1-.389-6.317,3.329,3.329,0,0,0,.074-.8.992.992,0,0,0-.957-1.139,9.062,9.062,0,0,0-1.142-.072,1.8,1.8,0,0,1-1.581-.876,1.529,1.529,0,0,1,1.084-2.534c.541-.107,1.1-.106,1.642-.219a1.638,1.638,0,0,0,1.306-1.494,5.961,5.961,0,0,0,.1-1.142,9.778,9.778,0,0,1,2.421-6.41,12.381,12.381,0,0,1,3.306-2.982,5.417,5.417,0,0,1,5.468-.369,8.3,8.3,0,0,1,4.948,6.133,10.09,10.09,0,0,1-.338,3.862c-.093.469-.173.941-.292,1.4-.108.422.043.689.442.773a16.731,16.731,0,0,0,2.183.382,6.21,6.21,0,0,1,3.092.693,4.177,4.177,0,0,1,.731.545,1.434,1.434,0,0,1,.271,1.6,1.145,1.145,0,0,1-1.176.755c-1.108-.009-2.217-.051-3.323-.1a7.866,7.866,0,0,0-3.028.335c.159,1.077.363,2.107.457,3.147a12.2,12.2,0,0,1-1.477,7.027c-.118.218-.229.44-.335.665a2.1,2.1,0,0,0,.438,2.574c.656.669,1.355,1.3,1.943,2.027a11.5,11.5,0,0,1,2.387,8.731c-.175,1.745-.531,3.476-.875,5.2-.392,1.959.114,2.756,2.086,2.941,2.09.2,4.19.29,6.28.491.868.084,1.721.334,2.582.5a7.953,7.953,0,0,0,.961.152,2.446,2.446,0,0,0,2.9-2.266,7.881,7.881,0,0,1,3.06-5.443,24.417,24.417,0,0,1,2.127-1.558c.987-.655,2-1.268,3.01-1.891.761-.47,1-.945.649-1.727-1.56-3.519-.971-6.916.536-10.26.588-1.3,1.246-2.578,1.945-4.017a6.125,6.125,0,0,0-1.5-.36,18.064,18.064,0,0,0-2.5.285,3.274,3.274,0,0,1-2.226-.314,2.194,2.194,0,0,1-.833-1.075.9.9,0,0,1,.758-1.237c.923-.12,1.863-.117,2.794-.165a10.229,10.229,0,0,0,1.71-.1,2.733,2.733,0,0,0,2.047-2.57,10.086,10.086,0,0,1,3.728-6.135c.5-.444,1.029-.856,1.55-1.276,1.852-1.494,3.322-1.557,5.361-.334a9.509,9.509,0,0,1,4.1,5.671c.195.62.363,1.248.559,1.867a2.635,2.635,0,0,0,2.917,2.137c2.58-.079,5.159-.218,7.738-.333a3.6,3.6,0,0,1,1.08.057c-.149.118-.292.245-.447.354a12.321,12.321,0,0,1-5.232,1.9c-1.433.234-2.883.386-4.3.7a2.465,2.465,0,0,0-2.249,2.584c-.178,4.387-2.235,7.906-4.9,11.188a17.668,17.668,0,0,0-2.111,2.978,3.568,3.568,0,0,0,.985,4.564,24.258,24.258,0,0,0,7.478,4.275,9.208,9.208,0,0,0,5.7-.013,3.226,3.226,0,0,1,3.532.773,13.282,13.282,0,0,0,8.835,3.718,37.267,37.267,0,0,0,7.6-.436,14.942,14.942,0,0,1,5.291.294,16.339,16.339,0,0,0,2.6.406,1.893,1.893,0,0,1,1.7,1.147c.671,1.229.645,1.178-.514,1.941q-4.811,3.174-9.572,6.422a63.3,63.3,0,0,1-11.505,6.626C3862.405,2526.841,3861.583,2527.139,3860.655,2527.5Zm-78.074-10.9c.437.121.8.229,1.167.323a56.058,56.058,0,0,0,12.443,1.883c2.788.079,5.588.162,8.352.5,3.41.417,6.779,1.154,10.18,1.658,5.6.829,11.19,1.681,16.808,2.338,6,.7,12.021,1.206,18.036,1.761a20.385,20.385,0,0,0,9.07-1.212c5.643-2.092,10.609-5.4,15.613-8.641a.778.778,0,0,0,.3-.958c-.105-.4-.4-.45-.751-.45-2.046,0-4.1-.094-6.138,0-5.915.271-11.811-.107-17.715-.339-4.277-.167-8.569-.325-12.842-.158a127.451,127.451,0,0,1-23.891-1.494c-2.627-.393-5.252-.806-7.883-1.166-3.144-.431-6.293-.812-9.44-1.22-1.592-.206-3.18-.44-4.774-.625a2.807,2.807,0,0,0-2.492.893c-1.115,1.182-2.253,2.341-3.392,3.5A14.469,14.469,0,0,0,3782.581,2516.593Zm-23.971-15.938a4.488,4.488,0,0,0,.193.416c1.2,1.907,2.371,3.84,3.627,5.711a24.129,24.129,0,0,0,7.058,7.2,8.488,8.488,0,0,0,9.463.258,30.578,30.578,0,0,0,7.688-6.647.6.6,0,0,0,.07-.2,1.423,1.423,0,0,0-.193-.067,85.241,85.241,0,0,1-11.822-3.206,65.565,65.565,0,0,0-13.1-3.236C3760.632,2500.784,3759.669,2500.736,3758.61,2500.655Zm77.473-10.592c.047.528.067,1.2.177,1.859a3.626,3.626,0,0,0,1.2,2.4,1.387,1.387,0,0,0,2.242-.184c1.345-1.8,2.713-3.6,3.885-5.519a12.017,12.017,0,0,0,1.719-6.458,1.5,1.5,0,0,0-1.519-1.725c-.85-.105-1.716-.082-2.569-.173a3.248,3.248,0,0,0-3.548,2.2A19.855,19.855,0,0,0,3836.083,2490.063Zm-41.708,10.224a7.522,7.522,0,0,0,1.122-.8c.634-.66,1.232-1.359,1.8-2.074a3.272,3.272,0,0,1,3.05-1.448c1.082.108,1.52-.333,1.714-1.406a4.98,4.98,0,0,1,.37-1.312,1.956,1.956,0,0,0-.312-2.329,5.854,5.854,0,0,0-3.16-1.954,8.194,8.194,0,0,1-3.4-1.285.455.455,0,0,0-.439.026,3.5,3.5,0,0,0-.489.622c-.394.558-.746,1.151-1.182,1.672-.564.673-1.22,1.269-1.792,1.937-1.241,1.451-1.374,2.565-.332,4.173C3792.24,2497.515,3793.3,2498.826,3794.375,2500.287Zm3.5-29.653c.572-.042,1.471-.069,2.358-.185a2.442,2.442,0,0,0,2.166-1.561,7.355,7.355,0,0,0,.214-4.837,3.325,3.325,0,0,0-5.105-2.015,7.9,7.9,0,0,0-3.41,4.04,5.365,5.365,0,0,0-.366,2.7,1.753,1.753,0,0,0,1.644,1.7C3796.089,2470.553,3796.817,2470.568,3797.87,2470.634Zm.56,2.961-.011.141c-.707,0-1.416-.026-2.122.006-.92.042-1.358.475-1.317,1.223.085,1.546.187,3.091.244,4.639a10.5,10.5,0,0,0,1.26,4.547,1.775,1.775,0,0,0,3.276.113,10.464,10.464,0,0,0,1.606-3.839c.275-1.908.427-3.834.661-5.749.057-.465-.1-.7-.534-.755C3800.474,2473.8,3799.452,2473.7,3798.43,2473.6Zm27.253,34.786c.233.019.364.039.494.039q4.816,0,9.631,0a20.691,20.691,0,0,0,2.4-.093,1.163,1.163,0,0,0,1.073-1.214,1.264,1.264,0,0,0-.854-1.4,11.327,11.327,0,0,0-1.561-.34,5.579,5.579,0,0,1-2.909-1.088,1.176,1.176,0,0,1-.092-1.855,6.688,6.688,0,0,1,1.088-.826.673.673,0,0,0,.241-1.022,1.565,1.565,0,0,0-2.474-.515,21.882,21.882,0,0,0-4.547,4.255A19.665,19.665,0,0,0,3825.683,2508.382Zm20.408-32.736a6.813,6.813,0,0,0-1.827-3.807,1.5,1.5,0,0,0-1.69-.522c-.342.113-.71.144-1.062.234a6.306,6.306,0,0,0-4.589,3.694,3.09,3.09,0,0,0-.233,1.389c.1,1.236.68,1.551,1.866,1.215a3.142,3.142,0,0,1,1.608-.134,9.221,9.221,0,0,0,4.409.064C3845.708,2477.555,3846.119,2477.072,3846.091,2475.646Zm-47.9,26.321a2.079,2.079,0,0,0-1.655.5,1.886,1.886,0,0,0-.693,1.986c.255.793.938.819,1.583.872,1.406.116,2.816.192,4.223.3a2.283,2.283,0,0,0,2.622-1.723,25.342,25.342,0,0,0,.625-3.432,4.13,4.13,0,0,0-.208-1.344c-.116-.523-.437-.646-.881-.352-.554.367-1.112.732-1.636,1.138-.6.468-1.152,1-1.76,1.464A3.163,3.163,0,0,1,3798.187,2501.966Zm-8.779,2.063.055-.15a1.384,1.384,0,0,0,.171,0,2.274,2.274,0,0,0,1.881-1.23,1.708,1.708,0,0,0-.412-1.848c-.327-.445-.631-.909-.97-1.345a6.78,6.78,0,0,0-.837-.933c-.671-.591-.938-.634-1.437.081a15.87,15.87,0,0,0-1.47,2.744,1.29,1.29,0,0,0,.6,1.729A23.334,23.334,0,0,0,3789.407,2504.029Zm61.494,4.858.015-.243c-.648-.241-1.284-.529-1.948-.716-1.832-.514-3.674-.985-5.514-1.474a.854.854,0,0,0-1.018.321,4.372,4.372,0,0,0-.539,1.123.765.765,0,0,0,.7,1.075,25.872,25.872,0,0,0,6.16.319C3849.478,2509.217,3850.186,2509.026,3850.9,2508.887Z"
              transform="translate(0)" fill="#fff" />
            <path id="Path_426" data-name="Path 426"
              d="M3949.446,2590.065a15.708,15.708,0,0,1-1.658-.547c-.58-.262-.608-.807-.106-1.227a5.322,5.322,0,0,1,2.745-1.207c1.3-.166,2.622-.214,3.936-.272.625-.028,1.036.286,1.085.712a1.1,1.1,0,0,1-.836,1.1q-2.051.62-4.113,1.2a8.7,8.7,0,0,1-1.012.165Z"
              transform="translate(-104.06 -67.316)" fill="#fff" />
            <path id="Path_427" data-name="Path 427"
              d="M3984.12,2580.278a4.606,4.606,0,0,1-.863,1.125,3.3,3.3,0,0,1-2.451.542,1.143,1.143,0,0,1-.973-1.278.977.977,0,0,1,1.125-.906c1,.052,2,.208,3.005.32Z"
              transform="translate(-121.007 -63.639)" fill="#fff" />
            <path id="Path_428" data-name="Path 428"
              d="M3964.828,2579.519h.058c.77.023,1.291.364,1.348.9a.8.8,0,0,1-.58.884c-.665.262-1.663.063-1.865-.431a1.1,1.1,0,0,1,.009-.913,3,3,0,0,1,.96-.569Z"
              transform="translate(-112.596 -63.447)" fill="#fff" />
          </g>
        </svg>