<svg xmlns="http://www.w3.org/2000/svg" width="277.921" height="388.873" viewBox="0 0 277.921 388.873">
  <g id="Group_108" data-name="Group 108" transform="translate(679.505 -350.053)">
    <path id="Path_737" data-name="Path 737" d="M-499.678,623.873c2.646,4.712,5.149,9.421,7.894,13.987s5.715,8.966,8.585,13.442c.2.314.526.63.549.963a5.609,5.609,0,0,1-.12,2.461,2,2,0,0,1-2.365.963c-6.927-1.335-13.862-2.633-20.772-4.053-3.9-.8-7.765-1.8-11.64-2.738-.752-.181-1.16-.024-1.365.775q-3.732,14.536-7.5,29.063a107.269,107.269,0,0,0-2.617,17.977c-.542,6.406-2.765,12.272-4.93,18.2-2.095,5.736-4.14,11.49-6.21,17.235a8.345,8.345,0,0,1-.332.807,2.3,2.3,0,0,1-2.41,1.6,2.32,2.32,0,0,1-2.022-2.216c-.722-4.595-1.329-9.21-2.169-13.783-1.013-5.51-2.209-10.986-3.349-16.472a44.435,44.435,0,0,0-1.314-5.574c-1.006-2.893-2.171-5.739-3.4-8.545-2.206-5.02-4.574-9.969-6.739-15.006a17.219,17.219,0,0,1-1.024-4.466c-.8-5.883-1.529-11.777-2.255-17.67-.11-.9-.649-.8-1.25-.709-3.324.508-6.644,1.038-9.973,1.51a31.5,31.5,0,0,1-4.211.384c-6.775.039-13.549.018-20.324.017-.25,0-.5,0-.748-.013-2.39-.119-3.353-1.8-2.13-3.846,1.643-2.746,3.437-5.4,5.031-8.174,3.644-6.338,7.206-12.722,10.8-19.091a8.642,8.642,0,0,0,.362-.856,4.875,4.875,0,0,0-.808-.357c-4.266-1-7.841-3.6-11.869-5.121-6.058-2.288-12.187-4.392-18.3-6.517-6.785-2.357-13.567-4.734-20.4-6.93-2.994-.962-6.161-1.378-9.187-2.253-4.466-1.291-8.885-2.745-13.308-4.176q-7.823-2.532-15.618-5.152c-2.744-.921-3.005-2.179-1.322-4.488a4.784,4.784,0,0,1,3.369-1.992c12.506-2.234,25-4.555,37.495-6.828,9.273-1.686,18.552-3.335,27.826-5.007,5.72-1.032,11.436-2.081,17.158-3.1,1.02-.181,1.451-.467,1.192-1.709-.684-3.291-.731-6.769-1.806-9.907-1.5-4.374-3.692-8.512-5.614-12.74-.308-.676-.769-1.281-1.13-1.934a2.2,2.2,0,0,1,.085-2.577,2.3,2.3,0,0,1,2.448-.849q4.521.9,9.037,1.82,10.191,2.073,20.379,4.164c.82.168.98-.214,1.117-.89.965-4.763,1.9-9.533,2.97-14.273,1.335-5.913,2.765-11.807,4.2-17.7,2.97-12.184,6.015-24.349,8.938-36.546,1.074-4.48,1.9-9.022,2.816-13.54.318-1.565,1.141-2.522,2.294-2.58,1.182-.06,2.04.8,2.537,2.48,1.6,5.415,3.146,10.851,4.87,16.228a34.527,34.527,0,0,0,2.684,6.024,41.355,41.355,0,0,1,3.875,11.513c1.434,6.7,2.98,13.377,4.468,20.067a3.121,3.121,0,0,0,2.005,2.5,2.737,2.737,0,0,1,1.75,2.084c2.538,9.34,5.051,18.687,7.684,28,1.13,4,.061,3.46,4.153,2.55,6.481-1.441,12.9-3.177,19.351-4.744,2.3-.559,4.625-1.006,6.945-1.476a2.656,2.656,0,0,1,2.939.815,2.666,2.666,0,0,1,.051,2.939c-2,4.521-4.125,8.993-5.922,13.594a71.812,71.812,0,0,0-1.993,7.691,7.433,7.433,0,0,1-.887,2.016c-.726,1.148-.662,1.458.615,1.851,6.19,1.906,12.349,3.929,18.583,5.683,8.31,2.338,16.7,4.393,25.016,6.7,8.923,2.476,17.8,5.108,26.7,7.669q8.081,2.325,16.166,4.642c.4.114.9.164,1.149.435.554.6,1.343,1.325,1.351,2.006a2.68,2.68,0,0,1-1.305,2c-1.75.838-3.676,1.3-5.47,2.057-5.844,2.472-12.023,3.354-18.249,4.218-10.645,1.48-21.332,2.73-31.839,5.1-8.706,1.964-17.449,3.773-26.121,5.877-5,1.212-9.884,2.87-14.818,4.335A.7.7,0,0,0-499.678,623.873Zm-48.7-23.5-.24-.307a70.282,70.282,0,0,0-7.666.042c-9.554,1.055-18.876-.62-28.224-2.115-4.221-.676-8.439-1.407-12.681-1.914-4-.477-8.024-.683-12.037-1.031a18.929,18.929,0,0,1-1.955-.355c-1.45-.283-2.886-.685-4.349-.831-2.436-.243-4.892-.279-7.333-.491a3.083,3.083,0,0,1-2.588-2.916c.046-1.265,1.058-2.051,2.736-2.125.167-.007.333-.005.5-.007,6.9-.073,13.8-.112,20.693-.236,2.361-.043,4.718-.294,7.075-.453a38.166,38.166,0,0,1,5.686-.348c6.825.578,13.636,1.312,20.448,2.031,4.87.514,9.733,1.106,14.6,1.648.9.1,1.808.138,2.713.206l.084-.357c-.611-.672-1.258-1.315-1.824-2.02-4.69-5.833-10.887-10.44-14.18-17.421a1.358,1.358,0,0,0-1.1-.529c-2.234.17-4.464.413-6.691.658q-7.365.808-14.728,1.644c-2.681.306-5.394.465-8.031,1-9.968,2.007-19.891,4.239-29.871,6.183-4.721.919-9.531,1.37-14.3,2.046-3.779.537-7.573,1-11.33,1.667-3.8.678-7.561,1.566-11.337,2.374-.4.086-.783.254-1.366.447a5.6,5.6,0,0,0,.576.319c7.87,2.78,15.662,5.813,23.635,8.258,6.933,2.127,14.052,3.663,21.123,5.315a39.191,39.191,0,0,1,10.612,3.78,86,86,0,0,0,11.674,5.886c10.214,3.855,20.566,7.343,30.862,10.982a1.266,1.266,0,0,0,1.714-.517c1.759-2.814,3.754-5.5,5.251-8.45a18.776,18.776,0,0,1,8.216-8.663C-550.589,603.04-549.574,601.532-548.376,600.377Zm13.645-7.567a3.355,3.355,0,0,0,.7.34,41.4,41.4,0,0,0,12.415-.022c5.216-.771,10.412-1.669,15.63-2.419a13.8,13.8,0,0,1,4.785-.139c5.675,1.252,11.288,2.783,16.944,4.13,5.453,1.3,10.931,2.488,16.392,3.751,1.584.367,2.348,1.287,2.231,2.521s-1.2,2.012-2.817,2.079c-2.408.1-4.812.266-7.221.311-2.739.051-5.49.138-8.219-.039-6.8-.439-13.573-1.168-20.372-1.5-6.419-.312-12.674-1.631-18.995-2.559-3.112-.458-6.259-.687-9.394-.968a9.241,9.241,0,0,0-1.954.311c2.643,2.777,4.829,5.548,7.481,7.762,5.544,4.627,11.315,8.985,17.055,13.372a3.167,3.167,0,0,0,2.334.407q9.84-2.214,19.641-4.609c4.067-1,8.062-2.315,12.149-3.217,7.417-1.635,14.9-2.973,22.317-4.607,9.489-2.09,18.939-4.348,28.406-6.537,1.918-.443,3.831-.906,6.1-1.444a14.114,14.114,0,0,0-1.31-.6q-7.976-2.463-15.958-4.911c-1.1-.338-2.4-.445-3.233-1.121a10.008,10.008,0,0,0-5.37-2.067,23.724,23.724,0,0,1-3.551-.607c-8.111-2.282-16.175-4.737-24.319-6.891-9.754-2.58-19.583-4.872-29.357-7.379-3.85-.987-7.636-2.223-11.459-3.318a1.247,1.247,0,0,0-1.013.105c-1.995,1.971-4.407,3.552-5.659,6.224a7.8,7.8,0,0,1-1.746,2.391c-2.787,2.555-5.652,5.023-8.483,7.531C-531.939,590.3-533.281,591.511-534.731,592.81Zm-10.691-119.476a4.775,4.775,0,0,0-.314.661c-1.637,7.164-3.331,14.315-4.886,21.5-1.616,7.468-3.1,14.964-4.633,22.451q-1.858,9.092-3.677,18.191c-1.277,6.392-2.56,12.784-3.785,19.186-.583,3.053-1.1,6.125-1.491,9.208a2.828,2.828,0,0,0,.828,2.046c5.442,5.25,10.945,10.439,16.436,15.638.224.212.49.381.983.759-.338-2.749-.66-5.2-.935-7.654-.331-2.958-1-5.873-.424-8.913.525-2.767.716-5.6,1.049-8.4.5-4.246,1.058-8.489,1.5-12.742.453-4.417.929-8.838,1.15-13.268.3-5.995-.439-11.944-1.15-17.889a7.129,7.129,0,0,1,.389-2.389c.2-.85.548-1.667.729-2.52.127-.6,0-1.258.134-1.856a1.982,1.982,0,0,1,1.895-1.7,1.909,1.909,0,0,1,2.05,1.486,8.784,8.784,0,0,1,.26,2.213c.127,5.642-.094,11.281.953,16.9,1.329,7.142,2.343,14.343,3.458,21.524.337,2.171.954,4.4.748,6.534-.474,4.912-1.37,9.784-2.106,14.67-.785,5.214-1.639,10.42-2.346,15.645a39.481,39.481,0,0,0-.032,5.036c.467-.372.732-.551.959-.769,3.9-3.735,7.773-7.5,11.71-11.2a16.547,16.547,0,0,0,4.282-5.576c.819-1.95,1.739-3.865,2.726-5.736a4.175,4.175,0,0,0,.252-3.337c-1.882-6.588-3.71-13.192-5.533-19.8-2.573-9.326-5.073-18.672-7.7-27.982-2.528-8.951-5.173-17.871-7.781-26.8-1.351-4.622-2.546-9.3-4.856-13.581C-544.829,474.414-545.075,473.971-545.422,473.334Zm7.439,133.008c.045.741.035,1.028.083,1.3q.649,3.744,1.317,7.484c1.457,8.177,2.945,16.348,4.346,24.535a9.067,9.067,0,0,1,.006,3.931c-1.548,5.257-3.328,10.446-4.951,15.682-.554,1.787-2.065,2.43-3.474,3.133-1.014.5-2.229-.386-2.48-1.613a13.326,13.326,0,0,1-.112-1.489c-.273-2.972-.36-5.979-.88-8.908-.595-3.347-1.565-6.628-2.394-9.932-.646-2.578-1.432-5.129-.9-7.85.175-.892.2-1.815.283-2.724.389-4.135.786-8.27,1.161-12.406.251-2.772.542-5.542.667-8.32a24.1,24.1,0,0,0-.394-3.746l-.492-.2a29.72,29.72,0,0,0-2.779,2.523c-1.98,2.29-3.868,4.659-5.775,7.012-1.882,2.323-3.76,4.652-5.592,7.014a2.8,2.8,0,0,0-.432,1.38c-.122,1.2-.221,2.4-.228,3.6a25.3,25.3,0,0,0,.161,5.2c1.409,6.79,2.989,13.544,4.508,20.311,2,8.915,4.035,17.823,5.991,26.749.657,3,1.154,6.031,1.656,9.059.322,1.951.315,3.976.818,5.871.746,2.81.738,5.885,2.674,8.323a2.074,2.074,0,0,1,.27.823c.627,2.8,1.241,5.594,1.871,8.39.256,1.133.543,2.26.843,3.5.236-.23.326-.276.345-.342,1.743-5.851,3.536-11.687,5.2-17.56q2.922-10.307,5.659-20.667c1.736-6.539,3.344-13.113,5.067-19.657.935-3.551,1.166-7.332,3.367-10.485a4.7,4.7,0,0,0,.52-1.4c1.768-6.19,3.51-12.387,5.307-18.569a1.685,1.685,0,0,0-.6-1.955q-9.372-8.405-18.732-16.825A14.392,14.392,0,0,0-537.983,606.341Zm-57.1,39.779c.721,0,1.126.03,1.527-.005q10.851-.936,21.7-1.888c1.57-.137,3.146-.243,4.705-.469.355-.051.9-.52.927-.829.235-3.269.477-6.543.513-9.819a37.333,37.333,0,0,0-.565-5.3,2.316,2.316,0,0,0-1.87-1.932c-3.975-1.191-7.958-2.354-11.911-3.612a1.249,1.249,0,0,0-1.775.691c-3.071,5.417-6.187,10.811-9.285,16.214C-592.394,641.4-593.662,643.627-595.085,646.12Zm2.984-100.542-.3.276c2.022,2.417,2.641,5.336,3.512,8.239a109.813,109.813,0,0,0,4.776,11.746c.129.3.881.515,1.305.462,1.4-.175,2.775-.5,4.162-.751,2.695-.49,5.4-.932,8.078-1.487a1.93,1.93,0,0,0,1.324-1.007,11.831,11.831,0,0,0,.358-3.57,23.525,23.525,0,0,1,.4-8.411c.072-.248-.284-.761-.572-.936a4.075,4.075,0,0,0-1.318-.329q-6.351-1.251-12.7-2.494C-586.088,546.729-589.1,546.157-592.1,545.578Zm78.425,9.967c.939,3.444,1.842,6.631,2.666,9.839a2.28,2.28,0,0,0,1.737,1.842q6.148,1.813,12.254,3.77c.861.277,1.188.136,1.369-.749,1.134-5.53,2.3-11.051,3.456-16.577.171-.82.3-1.648.5-2.8ZM-492,649.368c0-.4.029-.492,0-.555-3.309-6.275-6.611-12.555-9.974-18.8a1.439,1.439,0,0,0-1.288-.392,18.291,18.291,0,0,0-3.485,1.316,5.709,5.709,0,0,0-2.005,1.7c-1.347,1.942-2.558,3.978-3.81,5.985-.956,1.532-1.889,3.078-2.94,4.794Zm-46.621-98.654-.4.015v6.2l.4,0Zm38.78,44.648c-1.875-.6-3.381-1.064-4.914-.343l-.011.343Z" transform="translate(0 4.352)" fill="#000"/>
    <path id="Path_738" data-name="Path 738" d="M-546.726,429.432c.273-1.879.635-3.7.783-5.543.169-2.109.152-4.233.21-6.351.225-8.084.894-16.141,1.539-24.2a25.027,25.027,0,0,1,.753-3.659c.776-3.313,1.185-6.778,2.444-9.9,2.558-6.35,4.6-12.965,8.558-18.686,4.139-5.981,9.621-9.831,16.915-10.95,3.818-.587,5.942,1.669,6.935,4.934.686,2.259-1.527,4.6-3.5,3.649-4.835-2.338-8.249.041-11.634,2.991-5.294,4.615-8.2,10.632-10.355,17.155a112.449,112.449,0,0,0-4.657,18.7,97.3,97.3,0,0,0-.766,19.756c.28,5.093-.02,10.216.041,15.324.043,3.525.277,7.046.39,10.571a14.368,14.368,0,0,1-.126,2.956,2.5,2.5,0,0,1-2.157,2.129,2.9,2.9,0,0,1-3.2-1.1q-4.616-6.421-9.253-12.828a72.055,72.055,0,0,0-4.888-6.233c-.14,2.293-.293,4.584-.42,6.878-.2,3.567-.354,7.137-.573,10.7-.132,2.153-1.023,3.131-2.656,3.065a2.326,2.326,0,0,1-2.471-2.642c.17-3.024.66-6.041.678-9.064.039-6.434.068-12.883-.334-19.3a30.634,30.634,0,0,1,.37-6.98c.122-.738.1-1.72,1.17-1.808,1.268-.1,2.717-.736,3.64.737a62.681,62.681,0,0,1,3.48,5.881c1.444,2.987,2.627,6.1,3.97,9.136A7.309,7.309,0,0,0-546.726,429.432Z" transform="translate(4.587)" fill="#000" />
  </g>
</svg>
