<svg xmlns="http://www.w3.org/2000/svg" width="421.475" height="416.907" viewBox="0 0 421.475 416.907">
  <g id="Group_122" data-name="Group 122" transform="translate(2639.645 1007.901)">
    <path id="Path_1163" data-name="Path 1163" d="M-2447.349-918.7c2.718-1.55,4.536-.634,5.882.929a26.985,26.985,0,0,1,4.684,6.6c5.19,12.135,6.393,24.912,4.875,37.891-1.4,11.95-3.731,23.736-8.407,34.935a18.1,18.1,0,0,0-.66,3.728c7.544,1.123,14.725-.7,22.513-1.1.277-2.669.7-5.25.791-7.842.464-13.164,4.323-25.7,7.058-38.441,2.56-11.924,5.666-23.736,8-35.7a66.432,66.432,0,0,0,1.046-21.246c-.568-4.467.384-9.111.361-13.674a62.659,62.659,0,0,0-.8-11.129c-1.673-8.986-4.07-17.848-5.439-26.872a28.717,28.717,0,0,1,2.464-16.234c.257-.564,1.6-1.22,1.979-1.01a5.029,5.029,0,0,1,1.684,2.19c.177.357-.112.976-.256,1.457-2.389,7.959-1.24,15.754.971,23.529,1.244,4.372,2.8,8.735,3.347,13.206a107.545,107.545,0,0,1,.257,15.2c-.132,6.438-.612,12.87-.74,19.309-.26,13.113-2.363,25.983-5.2,38.724-2.714,12.2-5.989,24.284-8.771,36.474a138.319,138.319,0,0,0-2.3,15.039c-.223,1.939.276,3.961.484,6.4,9.328-.634,18.2-1.238,26.913-1.829,1.256-7.172,2.3-14.357,3.808-21.444,1.933-9.1,4.453-18.082,6.307-27.2s3.81-18.293,4.572-27.536c.6-7.334-.349-14.825-.958-22.218-.433-5.254,2.488-8.964,5.118-12.843.351-.517,1.8-.285,2.739-.4.1.919.64,2.256.228,2.69-5.486,5.792-3.119,12.753-3.041,19.362a46.91,46.91,0,0,0,.349,5.007c.842,7-.453,13.853-1.291,20.755-1.68,13.836-5.817,27.1-9.058,40.574-1.809,7.529-4.069,15.118-2.432,23.717,3.268.634,6.676,1.435,10.132,1.933,8.039,1.157,16.166,1.82,24.134,3.332,8.453,1.605,17.133,2.42,25.19,5.756,5.422,2.247,11.18,4.046,16.039,7.2,6.138,3.985,8.167,10.772,7.931,17.842-.242,7.265-1.226,14.506-1.856,21.76-.189,2.162-.272,4.336-.419,6.766a21.415,21.415,0,0,0,3.222.515c5.4-.045,8.8,3.243,11.622,7.193,1.921,2.692.929,7.844-1.746,10.85-3.591,4.04-8.305,5.565-13.789,5.826-1.648,24.593-3.25,49.151-3.415,73.867,6.355,1.7,12.694.317,18.99.461,9.308.213,18.612.523,27.914.848a34.159,34.159,0,0,1,4.453.876c-5.263,2.077-9.786,1.531-14.073,1.221a55.735,55.735,0,0,0-10.969-.232c-3.5.425-7.074.109-10.6.33-5.2.327-10.388.842-16.211,1.331.081,1.531.234,3.123.236,4.716.008,6.268.2,12.664-3.473,18.131a29.081,29.081,0,0,1-14.811,11.792c-8.957,3.134-17.78,6.668-27.213,8.084-5.851.876-11.758,1.412-17.652,1.96-3.874.359-7.767.581-11.658.668a190.061,190.061,0,0,1-40.967-3.028c-6.627-1.295-13.423-1.695-20.1-2.758-6.176-.982-12.309-2.258-18.441-3.5s-12.235-2.6-18.352-3.906a11.6,11.6,0,0,1-2-.359c-7.655-3.2-15.379-6.251-22.9-9.745-3.5-1.627-5.682-4.542-7.723-8.21-2.526-4.538-2.364-8.977-2.7-14.089a22.381,22.381,0,0,0-4.246-.936c-10.277-.238-20.555-.368-30.833-.536a2.492,2.492,0,0,1-.5-.036c-11.978-2.66-23.806.115-35.7.908a232.634,232.634,0,0,1-36.555-.459c-5.723-.519-11.5-.478-17.247-.687-.166-.006-.386.125-.491.055-.874-.585-1.727-1.2-2.587-1.81.662-.625,1.269-1.71,1.994-1.8,3.349-.4,6.856-1.2,10.081-.617,12.692,2.29,25.426,2.509,38.235,1.854,17.773-.908,35.554-1.716,53.357-1.165,6.929.213,13.855.591,20.782.859,1,.038,2.014-.121,3.708-.234.593-22.152-1.348-44.114-2.467-66.406-4.346-1.255-8.363-2.441-12.4-3.57-3.612-1.012-7.208-2-9.857-4.948-2.8-3.107-3.062-5.139-.856-8.686a21.542,21.542,0,0,1,16.455-10.653c4.136-.489,3.858-.527,3.726-4.6-.236-7.272-.606-14.484-2.35-21.6-.353-1.435.529-3.192.932-4.776.114-.459.739-.819.788-1.261.646-5.854,4.774-9.081,9.147-12.052a47.3,47.3,0,0,1,5.732-3.1c25.542-12.639,34.184-13.036,57.146-17.818,2.267-7.884,5.033-16.075,6.923-24.465,2.154-9.577,4.328-19.33,2.628-29.217-1.312-7.644-3.3-15.184-5.277-22.694-.438-1.658-2.056-3.024-3.186-4.48C-2445.278-916.321-2446.244-917.389-2447.349-918.7Zm-62.031,177.509c.188,2.433.313,4.446.5,6.453.391,4.182.868,8.356,1.216,12.541.457,5.522.774,11.053,1.252,16.572.376,4.361,1.183,8.7,1.3,13.064.244,8.814.066,17.636.228,26.453.174,9.624.961,10.77,10.33,13.974,7.687,2.628,15.392,5.316,23.272,7.225q20.46,4.96,41.155,8.922c10.925,2.109,21.654,4.988,32.9,5.866a150.566,150.566,0,0,0,32.9-1.052,263.578,263.578,0,0,0,30.378-5.924,84.853,84.853,0,0,0,18.651-7.9c4.627-2.524,7.934-6.542,5.314-12.626a6.216,6.216,0,0,1-.074-2.52c.227-6.086.646-12.167.666-18.252a232.606,232.606,0,0,1,1.259-26.33c1.732-14.918,2.618-29.934,3.9-44.905.375-4.393.989-8.767,1.3-13.162.6-8.444,1.074-16.893,1.544-25.343a7.014,7.014,0,0,0-.462-2.058c-5.107,1.614-9.872,3.193-14.682,4.622-9.326,2.768-18.914,3.676-28.6,4.068-14.214.574-28.418,1.5-42.636,1.979-4.712.16-9.452-.818-14.182-.9-13.587-.232-27.178-.123-40.761-.442-7.611-.179-15.244-.631-22.8-1.514-9.394-1.1-18.711-2.813-28.076-4.166a86.888,86.888,0,0,1-21.208-6.151c.5,7.6.938,15.194,1.533,22.772.423,5.4.842,10.823,1.669,16.173,1.021,6.6,2.656,7.58,9.271,6.451a3.716,3.716,0,0,0,.961-.327c3.645-1.72,7.427-3.211,10.874-5.265,2.159-1.286,3.855-1.678,5.788-.353a4.825,4.825,0,0,1-2.52,5.273c-3.6,2.335-7.279,4.3-11.571,4.969C-2502.114-742.478-2505.422-741.867-2509.38-741.187Zm-3.738-59.54c.623,1.065.821,1.907,1.332,2.194,4.692,2.643,9.413,5.237,14.2,7.7a2.808,2.808,0,0,0,2.339-.5c7.827-5.828,16.674-8.488,26.341-8.93a9.222,9.222,0,0,0,6.74-2.871,7.193,7.193,0,0,1,10.136-.491,7.024,7.024,0,0,0,6.106,1.663c4.47-.825,8.884-1.963,13.307-3.043,6.726-1.644,13.424-3.714,20.181-.725,3.9-3.141,8.127-4.837,11.737-4.161,3.813.717,7.854,1.291,11.24,3.015,8.958,4.557,18.367,3.53,27.744,3.1,6.838-.31,13.717-.468,20.023,2.315a58,58,0,0,0,15.514,4.523c5.092.706,9.3,2.6,12.149,6.87,1.381-.419,2.528-.721,3.645-1.112,6.359-2.224,8.409-5.173,9.045-11.871.451-4.769-1.827-8.165-4.931-11.155a36.449,36.449,0,0,0-15.646-9.239c-8.475-2.286-17.146-3.844-25.741-5.686-10.419-2.235-21.014-2.477-31.54-2.934-1.592,4.423,3.9,8.225.918,12.675-3.4-.034-5.215-1.526-5.824-4.712-.538-2.807-1.333-5.56-2.088-8.643a74.875,74.875,0,0,0-8-.736c-5.25.053-10.5.376-15.748.64-1.109.055-2.209.334-3.674.565.57,4.257,1.095,8.176,1.705,12.73-6.556-2.8-4.988-8.443-6.022-12.764-5.087-.5-18.652,1.9-24.882,4.329-2.641,8.55-2.641,8.55-1.49,16.97-1.646,1.242-2.475,0-3.2-1.15-1.944-3.07-1.856-6.449-1.306-9.862.262-1.62.6-3.226.91-4.886-2.2,0-4.119-.383-5.822.064-8.486,2.228-16.921,4.648-25.358,7.055-2.773.789-5.547,1.618-8.237,2.645-4.578,1.75-9.409,3.145-13.542,5.66C-2505.412-808.71-2509.885-805.486-2513.118-800.728Zm23,10.308c14,.919,26.956,1.9,39.923,2.581,9.962.523,19.94.734,29.915.963,16.4.379,32.8.753,49.2.942,10.162.117,20.336-.415,30.487-.089,7.223.23,13.6-3.274,21.244-3.049-2.671-2.752-3.6-3.166-7.034-3.676-5.528-.821-11.034-1.618-16.021-4.523a13.235,13.235,0,0,0-5.807-1.671c-8.456-.419-16.923-.763-25.388-.789-5.813-.017-11.248-.653-16.689-3.192-7.087-3.306-14.569-4.61-21.469,1.023a5.426,5.426,0,0,1-1.15.491c-5.478-2.858-11.206-2.36-16.991-.357a82.829,82.829,0,0,1-9.687,2.977c-4.245.906-8.726,2.379-12.742-.553-3.25-2.371-6.1-2.339-9.245.121a14.043,14.043,0,0,1-9.9,3.087C-2477.94-796.513-2483.711-794.021-2490.12-790.419Zm-26.1,25.769c-2.507.512-4.28.968-6.083,1.22-3.953.553-5.637,3.321-6.8,6.681a3.521,3.521,0,0,0,1.518,4.425c3.927,2.515,8.365,2.656,13.164,3.141C-2515.061-754.71-2515.613-759.475-2516.215-764.651Zm216.448,10.751c1.436,0,2.96.37,4.169-.089a18.676,18.676,0,0,0,4.727-2.93c3.338-2.628,3.125-6.02-.585-8.1-2.542-1.425-5.279-2.509-8.312-3.923Zm-83.613-27.665.468-.672h-6.3l-.021.4Z" transform="translate(0 0)" fill="#000"/>
    <path id="Path_1164" data-name="Path 1164" d="M-2626.826-822.384c2.02-8.029,4.166-15.154,5.549-22.426,1.58-8.3,2.726-16.7,3.573-25.1.4-3.965-.411-8.044-.536-12.075-.032-1.076.1-2.615.772-3.128.655-.5,2.269-.276,3.177.189,8.562,4.382,17.818,6.413,27.175,8,2.8.476,5.745.13,8.622.145,2.364.013,4.729,0,7.169,0,.791,1.869,1.149,3.615,2.142,4.85,1.546,1.918,3.5,4.852,5.324,4.888,2.781.057,3.825,1.435,4.385,3.17.433,1.344-.292,3.113-.675,4.65a14.68,14.68,0,0,1-1.105,2.552c7.562,10.274,10.953,21.688,11.214,34.087.028,1.384-1.112,2.8-1.712,4.2-2.91-1.127-2.107-3.06-2.156-4.612-.341-10.6-4.183-20.128-8.711-30.049a35.19,35.19,0,0,0-2.805,2.628c-3.147,3.744-6.138,7.621-9.375,11.284-4.584,5.188-10.584,8.512-16.622,11.6-5.122,2.617-10.593,4.546-15.856,6.9-2.3,1.029-4.932.432-6.034-.863-2.443-2.875-5.1-1.952-7.865-1.661C-2622.8-822.975-2624.415-822.714-2626.826-822.384Zm34.359-22.279-.011,0a4.469,4.469,0,0,0,1.445-.4q11.175-7.936,22.289-15.956a7.014,7.014,0,0,0,1.335-1.916l-7.346-8.482c-6.13-.368-12.817-.187-19.271-1.325-6.37-1.121-12.507-3.577-19.385-5.637.842,17.14-4.876,33.279-7.242,50.145,4.353.544,7.889,1.095,11.048-3.032,2.358-3.077,6.328-4.9,9.53-7.35C-2597.5-840.577-2595-842.641-2592.467-844.664ZM-2564.234-859l-.731-.944c-2.765,2.345-5.38,4.9-8.321,7-8.808,6.287-17.787,12.335-26.606,18.605-3.638,2.588-7.5,5.022-10.243,9.453C-2589.491-829.9-2574.25-841.03-2564.234-859Z" transform="translate(14.438 137.974)" fill="#000"/>
    <path id="Path_1165" data-name="Path 1165" d="M-2563.945-868.42c-2.69-2.537-4.289-4.321-6.158-5.75-3.364-2.566-5.628-1.665-6.4,2.5-.421,2.284-.421,4.644-.789,6.94a8.408,8.408,0,0,1-1.333,2.354l-3.266-1.665a3.827,3.827,0,0,0-.149,1.421,33.083,33.083,0,0,0,1.887,5.237,4.3,4.3,0,0,1-.851,5.654,4.688,4.688,0,0,1-1.718-.7c-5.106-5.078-11.578-7.164-18.434-7.561-8.871-.512-16.219,3.292-20.178,11.191-4.637,9.258-8.005,19.168-6.668,29.845.583,4.65,1.948,9.2,3.051,14.227a22.777,22.777,0,0,1-3.2,2.968,22.941,22.941,0,0,1-4.3,1.735c-.089,3.445,3.865,3.774,5.207,6.151-6.771,2.687-8.516,1.824-9.974-4.706-.289-1.3-.608-2.592-.912-3.889l6.338-2.484c-.6-4.805-1.148-9.139-1.686-13.47a45.551,45.551,0,0,1,7.323-30.889c5.936-9.13,14.187-16.015,26.317-14.839,3.835.372,7.6,1.431,11.737,2.243.438-2.233.316-4.852,1.488-6.611,1.035-1.552,3.51-2.143,5.8-3.408.615-2.511.6-5.92,3.859-7.78,3.241-1.85,6.26.636,9.787.185.336-3.923.728-7.963,1.019-12.009.37-5.1.808-10.128,4.212-14.378.783-.978.787-2.543,1.41-3.7,5-9.281,11.941-16.944,22.347-19.4,11.15-2.63,21.469.621,30.04,8.484,1.855,1.7,1.689,2.06-.733,4.91a51.752,51.752,0,0,1-6.158-4.265c-4.7-4.336-10.629-5.307-16.492-5.671-2.985-.185-6.33,1.187-9.086,2.654-3.414,1.816-6.432,4.406-9.544,6.762-5.949,4.506-9.311,10.648-10.878,17.825-1.708,7.821-2.524,15.671-1.2,23.693C-2561.936-872.92-2563.184-870.972-2563.945-868.42Z" transform="translate(1.714 87.852)" fill="#000"/>
    <path id="Path_1166" data-name="Path 1166" d="M-2325.481-821.153c-1.431.555-2.845,1.544-4.287,1.586-6.441.194-12.894.047-19.339.166-3.549.066-7.094.627-10.636.591-5.9-.06-11.81-.634-17.712-.6-9.968.051-19.936.512-29.9.6q-16.547.153-33.1-.07c-11.659-.142-23.315-.506-34.973-.71q-10.423-.182-20.849-.168-24.929.029-49.855.17c-5.056.038-10.106.532-15.162.568-4.7.034-9.392-.262-14.089-.423a5.014,5.014,0,0,1-2.005-.225,8.236,8.236,0,0,1-1.68-1.552c.564-.517,1.087-1.422,1.7-1.486a126.1,126.1,0,0,1,13.156-1.061c17.127-.026,34.254.181,51.382.242,16.464.059,32.93-.068,49.392.11,9.823.106,19.64.819,29.464.936,9.972.117,19.948-.2,29.925-.255,11.716-.066,23.472-.651,35.143.081,13.185.829,26.251-.1,39.362-.721C-2328.005-823.447-2326.453-823.715-2325.481-821.153Z" transform="translate(68.226 207.386)" fill="#000"/>
    <path id="Path_1167" data-name="Path 1167" d="M-2450.874-856.191c1.877-3.209,3.848-6.364,5.566-9.653.457-.872.585-2.6.06-3.119a3.9,3.9,0,0,0-3.217-.41c-2.726.759-5.363,1.831-8.466,2.932-.344-1.546-.61-2.62-.819-3.7a40.272,40.272,0,0,0-.922-4.963c-.708-2.169-1.931-4.01-4.584-4.121s-5.082.185-6.6,2.817c-.953,1.65-2.075,3.2-3.655,5.607-.708-1.916-1-2.79-1.354-3.636-.383-.912-.825-1.8-1.285-2.787,3.447-4.9,8.595-6.889,13.785-5.813s7.759,6.007,9.064,10.868a67.01,67.01,0,0,1,8.253-.878c4.091.07,5.011,1.1,4.9,5.322a54.632,54.632,0,0,1-1.1,7.083c2.49.506,4.9.942,7.294,1.491,4.242.976,5.507,4.45,2.836,7.967-1.814,2.386-1.861,2.343-1.87,5.565,3.981,1.824,8.908,3.064,9.49,8.395.443,4.068-.43,8.082-6.035,10.379.774-2.118,1.151-3.479,1.755-4.731a7.5,7.5,0,0,0-1.193-8.95c-2.267-2.475-5.307-2.377-7.929-.878-2.511,1.435-4.5-.121-7.058-.106.84-3.487,4.41-3.661,6.039-5.864,1.686-2.277,3.723-4.289,4.348-7.419a7.9,7.9,0,0,0-7.98.075C-2445.164-852.542-2448.272-852.1-2450.874-856.191Z" transform="translate(184.145 140.311)" fill="#000"/>
    <path id="Path_1168" data-name="Path 1168" d="M-2480.545-834.565c.474-1.35.512-2.19.933-2.488a5,5,0,0,1,2.367-.77c11.777-1.046,23.485-2.692,35.416-1.135,6.338.827,12.87.142,19.313.208a19.131,19.131,0,0,1,3.221.583c-.237,2.1-1.259,2.664-2.766,2.7-13.732.285-27.466.542-41.195.887-3.379.085-6.746.6-10.126.661A67.056,67.056,0,0,1-2480.545-834.565Z" transform="translate(179.194 189.561)" fill="#000"/>
    <path id="Path_1169" data-name="Path 1169" d="M-2553.136-836.784c-1.04,2.7-2.622,3.336-4.965,3.166-6.415-.463-12.851-.651-19.27-1.076-6.551-.432-13.09-1.053-19.641-1.5a11.2,11.2,0,0,0-2.966.568c-4.07.88-4.882.123-5.033-4.786q25.082,1.12,50.144,2.288C-2554.337-838.1-2553.842-837.354-2553.136-836.784Z" transform="translate(39.008 188.64)" fill="#000"/>
    <path id="Path_1170" data-name="Path 1170" d="M-2486.761-813.986a9.27,9.27,0,0,1-7.544,3.942c-1.686.047-3.379-.032-5.059.079-8.209.538-16.415,1.146-24.622,1.676-3.015.193-3.158-.085-2.492-4.229,12.638-.84,25.355-1.693,38.078-2.492C-2488-815.036-2487.57-814.509-2486.761-813.986Z" transform="translate(127.092 217.251)" fill="#000"/>
    <path id="Path_1171" data-name="Path 1171" d="M-2591.631-852.888l-2.708,4.9-1.155-.094c.538-4.336-5.254-5.477-5.008-11.084C-2597.077-856.741-2594.574-854.972-2591.631-852.888Z" transform="translate(44.078 167.519)" fill="#000"/>
    <path id="Path_1172" data-name="Path 1172" d="M-2597.363-857.866c-1.308-1.431-2.562-2.177-2.637-3.028-.121-1.374-.076-3.462,1.925-3.5.98-.017,2.784,1.335,2.8,2.1C-2595.254-861.052-2596.383-859.782-2597.363-857.866Z" transform="translate(44.609 161.631)" fill="#000"/>
    <path id="Path_1173" data-name="Path 1173" d="M-2602.277-856.631c-1.242,2.1-2.188,3.9-4.416,2.566a3.072,3.072,0,0,1-.634-2.968C-2605.877-859.052-2604.206-858.187-2602.277-856.631Z" transform="translate(36.211 168.593)" fill="#000"/>
    <path id="Path_1174" data-name="Path 1174" d="M-2456.694-850.4h5.09C-2453.628-848.343-2455.146-848.94-2456.694-850.4Z" transform="translate(206.057 177.389)" fill="#000"/>
    <path id="Path_1175" data-name="Path 1175" d="M-2443.1-850.274l3.26-.361c.145.459.382.806.291.989C-2440.731-847.295-2441.79-847.9-2443.1-850.274Z" transform="translate(221.363 177.128)" fill="#000"/>
    <path id="Path_1176" data-name="Path 1176" d="M-2449.456-849.227l-3.878-.464.04-.383h3.7Z" transform="translate(209.841 177.761)" fill="#000"/>
    <path id="Path_1177" data-name="Path 1177" d="M-2475.44-823l-4.469,2.209c.017,2.039,2.158,4.729-1.905,6.083l-2.881-6.683c-1.04.874-1.782,1.546-2.573,2.154-2.86,2.2-5.813,3.249-9.326,1.242-1.246-.71-2.847-.793-4.565-1.233l-1.3-3.491c.672-.385,1.184-.914,1.482-.812a52.676,52.676,0,0,1,5.516,2.169c2.262,1.072,4.365,1.8,6.542-.249,2.415-2.273,2.979-4.174,1.939-7.291a8.144,8.144,0,0,0-6.451-5.818c-1.631-.338-3.251-.723-5.222-1.163l1.448-6.039c-1.669.487-3.045.812-4.364,1.288-1.818.655-2.923.185-3.479-2.341l12.369-4.244.94.916-2.543,7.646,5.665,1.941c-1.937-7.882-3.726-15.148-5.542-22.53,3.613.315,3.613.315,6.2,10.081,1.924-1.272,3.876-3.562,5.935-3.659,2.407-.117,4.906,1.678,7.672,2.764l-2.023,4c-.587-.3-1.165-.4-1.376-.731-.84-1.329-1.788-3.028-3.464-2.209a5.789,5.789,0,0,0-2.977,3.583c-.449,2.949-.138,6.015-.138,9.541l4.308-.842c2.858,3.849-1.456,4-2.864,5.739l1.637,5.458,5.439-1.395Z" transform="translate(151.601 167.433)" fill="#000"/>
    <path id="Path_1178" data-name="Path 1178" d="M-2540.707-900.889c-2.492-2.824-1.3-4.771.372-6.192,3.666-3.121,8.68-2.575,14.161,1.354-.738,1.59-1.573,3-3.7,2.1C-2533.973-905.35-2537.444-904.289-2540.707-900.889Z" transform="translate(109.826 111.284)" fill="#000"/>
    <path id="Path_1179" data-name="Path 1179" d="M-2510.08-903.668c-.14-3.5,2.173-4.282,4.221-4.633,4.416-.755,8.956-1.227,11.675,4.623-1.32.189-2.817.9-3.721.442a9.169,9.169,0,0,0-8.291-.5C-2507.267-903.288-2508.691-903.668-2510.08-903.668Z" transform="translate(145.922 111.682)" fill="#000"/>
    <path id="Path_1180" data-name="Path 1180" d="M-2513.206-904.779l-2.339,2.811c-2.739-3.587-6.3-2.628-9.683-1.975-1.029-3.717-.8-4.448,1.867-5.024C-2519.094-909.89-2515.764-908.321-2513.206-904.779Z" transform="translate(128.228 111.136)" fill="#000"/>
    <path id="Path_1181" data-name="Path 1181" d="M-2603.158-854.107c-1.048-1.242-2.022-3.462-3.158-3.547-3.576-.272-3.591-2.265-3.015-4.074-2.307-.772-4.735-.874-5.937-2.141-2.237-2.354.468-4.578,1.279-6.641l-3.345-5.435c1.835-1.8,3.155-1.018,3.9.07,1.457,2.141,3.2,3.126,5.8,2.754.484-.07,1.08.648,2.015,1.257l-2.853,3.472c.6,2.864,2.309,4.272,5.109,3.657l2.126,7.748c-.442.663-1.184,1.773-1.927,2.883Z" transform="translate(25.129 147.418)" fill="#000"/>
  </g>
</svg>
