<svg xmlns="http://www.w3.org/2000/svg" width="1342" height="662.102" viewBox="0 0 1342 662.102">
  <g id="Group_132" data-name="Group 132" transform="translate(-1518.477 -943.965)">
    <path id="Path_1218" data-name="Path 1218" d="M2010.66,1065.907l-3.925-2.858a41.99,41.99,0,0,1,5.5-7.381,20.99,20.99,0,0,0,3.887-5.927,8.632,8.632,0,0,0-5.747-11.462,36.323,36.323,0,0,0-7.069-1.26c-9.8-1.054-19.611-2-29.413-3.039a29.888,29.888,0,0,1-3.512-.792c-1.453-2.683-.723-5.141.293-7.649a48.327,48.327,0,0,0,2.646-7.425c.855-3.825-.05-4.779-3.937-4.9-2.64-.081-5.285-.087-7.93-.143-.219-.006-.431-.187-.862-.387-1.535-5.716,1.223-10.931,2.514-16.728-6.351.193-8.4,6.42-13.071,8.9a5.879,5.879,0,0,1-3.98-4.617c-.424-1.734-.468-3.563-.768-5.335-.355-2.078-.811-4.143-1.272-6.445-4.861.181-7.575,2.64-9.272,6.308a46.759,46.759,0,0,0-4.6,17.664c-.1,2.259-.4,4.511-.6,6.694-4.168.518-6.158-.8-6.363-4.923a72.494,72.494,0,0,1,.573-13.265,38.76,38.76,0,0,1,6.108-15.286,12.466,12.466,0,0,1,10.084-6.1c4.336-.337,7.125,1.2,8.978,5.179,1.111,2.384,2,4.873,3.157,7.749a35.594,35.594,0,0,1,3.432-2.028,29.138,29.138,0,0,1,6.326-2.445c3.675-.693,6.4,1.223,7.213,4.866a27.588,27.588,0,0,1,.406,5.709,36.956,36.956,0,0,1-.425,4.055c2.034,1.248,3.912,2.533,5.908,3.594,5.16,2.752,7.357,6.945,6.764,12.766-.231,2.228-.038,4.5-.038,7.176,6.427.461,12.648.823,18.844,1.391a53.015,53.015,0,0,1,9.939,1.535c11.549,3.338,16.3,13.87,11.106,24.708-1.541,3.207-3.9,6.034-5.934,9-.936,1.366-2,2.646-3.151,4.162,8.261,3.519,16.172,6.994,24.165,10.27,5.329,2.184,10.769,4.08,16.16,6.109,1.011.38,2.021.767,3.039,1.129,10.151,3.625,15.948,10.694,17.2,21.469.449,3.85.774,7.656-.43,11.418-1.061,3.3-2.732,3.887-5.678,1.978-1.2-.774-2.34-1.623-3.556-2.465-.918,2.658.212,22.7,1.984,43.033,1.241,14.207,2.015,28.446,3.012,42.977,1.386-.331,2.416-.542,3.414-.823,3.774-1.067,5.833-3.045,6.333-7.444,1.873-16.466,4.2-32.882,6.5-49.3.893-6.421,2.265-12.772,3.219-19.186.992-6.689,1.248-13.371-.711-20.01a8.157,8.157,0,0,1,2.122-8.6,25.883,25.883,0,0,0,4.942-7.025c6.288-13.677,14.444-26.324,21.5-39.577,3.276-6.146,6.882-12.123,10.139-18.281a73.306,73.306,0,0,0,4.3-9.871c1.64-4.636,3.013-9.365,6.426-13.3l-8.6-10.632c7.642-.88,13.345-4.617,19.266-8.011,2.74-1.566,6.065-2.122,9.428-3.232a24.743,24.743,0,0,1,.655,3q1.227,14.731,2.371,29.462c.48,6.314-.487,7.113-6.589,5.7-.231-.056-.468-.062-1.062-.131l-7.337,11.7-8.666-6.769-33.6,63.23c3.918,3.351,6.021,3.014,8.242-1.442,5.584-11.174,11.038-22.412,16.565-33.611q3.744-7.6,7.568-15.156c1.46-2.864,2.121-3.382,5.36-4.635,1.135,1.934.8,3.843-.112,5.715-1.254,2.6-2.6,5.148-3.875,7.731q-7.206,14.525-14.4,29.057a109.783,109.783,0,0,0-11.343,42.166c-1.447,23.2-5.877,45.959-10.251,68.727-1.611,8.374-3.27,16.734-4.842,25.114-1.511,7.993-2.771,9.334-10.694,10.807-3.994.742-8.005,1.4-12.379,2.164,1.235,14.5,2.452,28.82,3.68,43.289,10.788,4.724,22.231,6.065,33.668,7.605-1.691,4.5-4.467,6.253-8.972,5.56-7.363-1.129-14.7-2.421-22.051-3.637-.7-.119-1.41-.206-2.571-.368-.966,1.8-2,3.65-2.975,5.528-1.223,2.353-2.84,4.144-5.946,4.268l-2.334-3.831a51.408,51.408,0,0,0-5.815.032,86.664,86.664,0,0,1-19.062.006,173.011,173.011,0,0,0-34.94.08c-1.672.169-3.357.269-5.035.3-17.433.337-34.872.449-52.3,1.035-14.9.5-29.774,1.542-44.661,2.334-6.128.324-12.267.418-18.369.967-7.775.7-15.517,1.741-23.267,2.658a75.1,75.1,0,0,1-7.512.923,30.9,30.9,0,0,1-8.542-.7,93.259,93.259,0,0,0-27.852-2.97c-4.567.156-9.121.543-13.683.774-3.119.162-6.257.424-9.371.312a219.708,219.708,0,0,0-34.542,1.854,501.2,501.2,0,0,1-57.209,3.55c-18.038.119-36.076-.043-54.114-.3a219.884,219.884,0,0,0-33.78,2.3c-5.871.823-11.693,1.335-17.414-1-1.4-.574-3.07-.443-4.6-.705-4.324-.743-8.642-1.515-13.384-2.352,1.853-2.92,4.3-3.9,6.751-4.742,2.034-.705,4.181-1.073,6.276-1.622,1.042-.275,2.072-.606,3.108-.918a3.26,3.26,0,0,0,2.559-3.731c-.344-7.8-.257-15.636-.868-23.417-2.159-27.2-4.1-54.395-4.648-81.686-.375-18.387-1.192-36.762-1.822-55.137-.045-1.285-.176-2.559-.324-4.742l-8.024,9.6-9-6.383c.955-3.681,1.753-7.263,4.149-10.282a15.516,15.516,0,0,0,2.209-3.675,25.861,25.861,0,0,1,12.747-13.677,107.881,107.881,0,0,1,12.3-5.066,217.135,217.135,0,0,0,36.145-16.128,111.148,111.148,0,0,1,21.782-9.372c37.343-11.761,74.4-24.352,110.755-38.909,8.392-3.363,17.152-5.422,25.869-7.687a74.845,74.845,0,0,0,12.3-4.024c14.532-6.645,29.331-7.038,44.25-2,8.405,2.839,16.6,6.333,24.77,9.8a251.587,251.587,0,0,0,38.791,13.289,108.3,108.3,0,0,1,20.321,7.207c15.43,7.244,31.546,12.191,48.068,16.085,7.581,1.79,15.112,3.781,22.668,5.684ZM1862.081,1206.15c5.315-1.385,7.443-4.979,8.779-9.1,1.1-3.395,3.569-4.617,6.732-5.054a17.87,17.87,0,0,1,2.52-.106c7.456.031,14.906.056,22.363.131a16.9,16.9,0,0,1,10.126,3.313c4.093,3.076,7.924,6.5,12.229,10.083l-6.907,4.243a105.119,105.119,0,0,0,1.235,21.65c.961,5.235,2.346,6.633,7.549,6.9,7.2.375,14.413.511,21.62.717a29.242,29.242,0,0,0,3.02-.243l-2.939-20.541-8.96-1.666c3.145-3.8,6.04-7.019,8.6-10.482a13.832,13.832,0,0,1,8.2-5.435,53.919,53.919,0,0,1,6.7-1.329c6.807-.723,13.634-1.335,20.46-1.934,2.988-.262,6-.505,9-.549,3.382-.056,5.46,1.292,5.429,3.969-.051,4.13,2.015,6.445,5.471,8.03a2.944,2.944,0,0,1,1.835,3.625l-6.009,4.2c.861,6.264,1.729,12.516,2.64,19.117l59.755-2.3c.112-1.965.249-3.507.287-5.048.287-12.279-.862-24.483-2.016-36.688-1.4-14.825-2.825-29.65-3.974-44.5-1.217-15.685-2.1-31.4-3.157-47.107a29.5,29.5,0,0,0-.555-3.138c-7.931-.643-15.587-1.467-23.255-1.828-11.529-.549-23.066-.768-34.6-1.117a5.817,5.817,0,0,0-1.436.082c-7.406,1.615-14.85.649-22.286.442a72.362,72.362,0,0,0-7.856.555c-3.1.262-6.2.743-9.3.8-4.312.081-8.642-.362-12.947-.2-14.894.562-29.781,1.335-44.68,1.922-4.723.187-9.091.868-11.749,6-3.681-5.684-8.786-6.034-14.506-5.428-7.762.824-15.58,1.111-23.373,1.629-1.292.087-2.577.206-4.068.331a43.465,43.465,0,0,0-.568,4.467c-.1,4.686-.2,9.378-.124,14.057.118,7.088.835,14.195.5,21.252-.611,12.641.306,25.219.68,37.829.269,9,.486,18.032.05,27.017a123.827,123.827,0,0,0,.363,21.576,72.611,72.611,0,0,0,3.094,15.005c8.511-1.26,16.883-2.352,25.226-4.049-.555-7.25-1.054-14.076-1.622-20.9a10.823,10.823,0,0,0-5.466-8.822C1863.678,1207.229,1863.21,1206.9,1862.081,1206.15Zm-23.691,80.326c-2.208-48.667-4.386-96.648-6.583-144.966a171.92,171.92,0,0,0-71.7,1.759c-.076,1.2-.188,2.259-.194,3.319-.169,20.565,1.067,41.08,2.34,61.589q2.086,33.636,4.237,67.272c.15,2.378.3,4.762.468,7.406,1.123,0,2.065.025,3.008,0a175.26,175.26,0,0,1,24.465,1.279c9.552,1.061,19.129,2,28.713,2.621C1828.013,1287.074,1832.943,1286.6,1838.39,1286.476Zm-167.278-127.19c1.023.505,1.885.923,2.746,1.354,6.969,3.525,9.383,5.777,6.208,15.374-2.409,7.263-11.144,9.153-16.578,3.743a10,10,0,0,1-1.616-12.872,24.613,24.613,0,0,0,3.407-13.421c-.063-2.888-.113-5.771-.219-8.654a20.791,20.791,0,0,0-.4-2.508l-28.1,1.142c.281,4.555.524,8.722.806,12.89.074,1.179.243,2.353.355,3.357a61.6,61.6,0,0,1,6.1,2.832c4.455,2.664,5.952,6.782,4.355,11.375-1.816,5.21-5.884,7.949-11.088,7.082a27.567,27.567,0,0,1-7.182-2.234c-4.2-1.984-5.659-5.9-4.087-10.27a14.089,14.089,0,0,1,1.654-3.188c5.272-7.556,3.531-15.461,1.566-23.529-10.726-1.217-21.158-2.4-31.927-3.619-.574,18.725,3.239,36.532,4.187,54.807,11.486,1.242,22.687,2.452,33.979,3.669.8-1.959,1.391-3.65,2.177-5.241.925-1.865,2.459-2.851,5.1-2.67v8.692c4.043.094,7.63.187,11.218.256,4.874.087,4.874.081,6.209-4.461a3.477,3.477,0,0,0,.092-.349,2.546,2.546,0,0,1,2.434-2.252c1.317-.106,1.959.68,2.453,1.716.51,1.061,1.017,2.121,1.609,3.369,6.09,0,12.092.056,18.1-.019a8.5,8.5,0,0,0,7.281-3.981c.324-.487.711-.917,1.161-1.491a28.361,28.361,0,0,0,3.219,2.514,9,9,0,0,0,3.588,1.36c3.357.244,6.726.212,10.1.25a17.3,17.3,0,0,0,8.648-2.14,8.2,8.2,0,0,1,3.033-.917c8.254-.811,16.509-1.541,24.764-2.327,2.489-.237,4.96-.58,7.848-.923-1.334-17.988-1.222-35.839-3.574-53.877l-24.639,2.159a52.552,52.552,0,0,0,.86,16.94,12.935,12.935,0,0,0,6.341,8.785c2.944,1.728,3.662,3.582,2.3,6.633a88.933,88.933,0,0,1-4.629,8.08q-3.753.1-7.512.2a7.884,7.884,0,0,1-1.086-.056c-3.763-.406-5.871-2.071-6.844-5.4-1.2-4.1-.375-6.851,2.813-9.26,1.323-1,2.689-1.934,4.131-2.963-1.5-7.312-2.1-14.582-3.887-21.695-5.959-.386-11.556-.93-16.909,2.009.505,3.731.98,7.288,1.46,10.844a25.292,25.292,0,0,0,4.854,12.572c2.314,2.982,2.283,6.769,1.4,10.376-.668,2.721-2.59,4.168-5.472,4.412a16.883,16.883,0,0,1-8.76-1.6,3.815,3.815,0,0,1-2.434-3.65c-.068-3.051.768-5.69,3.388-7.537a6.426,6.426,0,0,0,2.983-6.527c-1.1-6.483-2.415-12.928-3.7-19.673l-24.278,3.326Zm18.176,42.371c-8.76-1.441-16.809-2.04-24.739,2.521.355,4.617.674,9.272,1.093,13.914.523,5.865,1.147,11.718,1.7,17.576.182,1.854.043,3.619-1.672,4.842-3.613,2.59-8.673,1.429-11.2-2.714,1.653-1.335,3.288-2.739,5.023-4.018a3.7,3.7,0,0,0,1.715-3.637c-.53-7.188-.9-14.394-1.347-21.588-.087-1.423-.281-2.833-.449-4.505l-18.974-1.891c0,9.24.025,17.988-.018,26.736-.013,3.22.318,6.558-.406,9.628-1.316,5.584-7.8,7.281-12.647,2.914a5.6,5.6,0,0,1-1.454-4.156,4.13,4.13,0,0,1,3.7-3.457c1.061-.181,2.158-.144,3.232-.262.9-.094,1.791-.262,2.851-.424l-1.2-31.565-33.973-4.91c1.017,18.475,2,36.388,2.983,54.345a106.986,106.986,0,0,0,22.324-.162c3.7-.425,7.412-.749,11.119-1.117,11.243-1.117,22.474-2.365,33.737-3.3,6.089-.512,12.272-1.08,18.331-.58a171.365,171.365,0,0,0,21.233.911c4.68-.194,9.359-.6,14.045-.743,9.253-.281,18.512-.455,27.672-2.021,1.747-.3,3.512-.511,5.516-.8l-2.634-50.433-32.177,5.179,6.919,39.184c-6.508,2.246-9.109,1.791-11.505-1.965.736-1.129,1.473-2.359,2.308-3.519a7.976,7.976,0,0,0,1.485-6.751c-1.659-7.749-3.063-15.548-4.6-23.323a23.538,23.538,0,0,0-.818-2.483l-21.507.923c-.05.855-.138,1.429-.107,1.99.369,6.72.718,13.446,1.167,20.159.275,4.193.824,8.373,1.055,12.566.175,3.151-1.061,4.667-4.013,5.554-3.618,1.079-6.263-.026-8.479-3.7l7.7-5.247Zm61.308-72.895-1.5-24.633c-4.46-.356-8.636-1.092-12.784-.955-13.807.48-27.609,1.223-41.411,1.959-10.438.555-20.877,1.229-31.309,1.885-5.154.324-10.327.555-15.456,1.117-14.943,1.628-29.874,3.169-44.948,2.564a37.515,37.515,0,0,0-5.753.693c0,4.08-.031,7.674.006,11.268.031,3.55-.319,7.119.088,10.669,2.627.319,4.873.693,7.137.849,8.83.605,17.645,2.558,26.531.324a3.1,3.1,0,0,1,2.458.892,8.88,8.88,0,0,0,6.826,2.689c4.929-.025,9.858-.019,14.781-.162a9.455,9.455,0,0,0,7.937-4.268c.38-.568.823-1.092,1.4-1.847,6.588,5.166,13.719,4.686,21.026,2.565a12.042,12.042,0,0,1,2.8-.642,5.268,5.268,0,0,0,4.96-3.444c1.336-2.771,3.87-2.933,5.615-.4a5.976,5.976,0,0,0,5.846,2.708c2.64-.162,5.285-.43,7.918-.355s3.994-1.023,4.418-3.582c.287-1.76,1.079-3.332,3.106-3.425,1.816-.088,2.24,1.566,2.808,2.857.961,2.171,2.552,2.958,4.9,2.7,4.3-.462,8.616-.761,12.928-1.142C1743.913,1129.386,1746.9,1129.105,1750.6,1128.762Zm312.151,140.986c-3.126.3-6.215.742-9.315.867-13.571.542-27.148,1.167-40.731,1.429-24.415.479-48.786,1.722-73.144,3.419-8.755.612-17.514,1.179-26.286,1.541a54.546,54.546,0,0,1-10.028-.636,97.087,97.087,0,0,0-20.49-.924c-10.314.668-20.64,1.136-30.966,1.7a15.651,15.651,0,0,0-1.622.281l1.266,11.25c8.317-.175,16.341.238,24.29-1.641a65.626,65.626,0,0,1,12.1-1.791c11.168-.462,22.349-.605,33.53-.868,9.615-.225,19.23-.3,28.839-.705s19.2-1.1,28.8-1.7c9.479-.6,18.955-1.111,28.414-1.9,9.228-.78,18.418-1.678,27.709-1.572,7.313.088,14.638-.505,21.951-.811a14.528,14.528,0,0,0,1.778-.306c4.861-.83,5.391-1.591,4.473-6.477A7.386,7.386,0,0,0,2062.746,1269.748ZM1849,1269.7c3.719-.567,7.138-1.123,10.563-1.609,5.7-.817,11.387-2.109,17.108-2.283,11.53-.344,23.08.118,34.61-.094,23.766-.443,47.562,1.011,71.284-2.146,11.156-1.486,22.531-1.392,33.805-1.984a8.907,8.907,0,0,1,2.851.281,27.381,27.381,0,0,0,12.779.168c8.292-1.572,16.728-1.5,25.145-1.535a34.212,34.212,0,0,0,4.767-.661v-6.5a25.875,25.875,0,0,0-3.781-.556c-7.087.013-14.189-.2-21.251.25-9.1.573-18.163,1.828-27.26,2.552-9.341.748-18.694,1.416-28.06,1.765-15.6.587-31.221,1.417-46.851.524-11.15-.636-22.306-1.335-33.468-1.816a100.537,100.537,0,0,0-23.317,1.629c-7.425,1.416-14.875,2.7-22.319,4.006-2.451.424-4.928.729-7.536,1.111Zm-92.287-18.937c-4.193,0-8.4-.187-12.573.032-18.125.961-36.232,2.227-54.413,1.76-7.918-.207-15.873-.031-23.784.43-15.835.923-31.659,2.146-47.482,3.288-4.755.344-9.51.83-14.6,1.279l1.079,9.24a9.926,9.926,0,0,0,1.585.194c1.079-.063,2.158-.144,3.225-.312,19.941-3.126,39.969-3.238,60.067-2.108a250.694,250.694,0,0,0,38.91-.687c14.225-1.416,28.42-3.131,42.633-4.7C1756.672,1258.592,1758.238,1256.165,1756.716,1250.761Zm-151.186,32.527c6.6-.506,12.8-1.1,19.018-1.436,11.15-.586,22.306-1.316,33.462-1.435,16.578-.174,33.162.194,49.74.2a50.307,50.307,0,0,0,10.75-.923,217.193,217.193,0,0,1,27.753-4.168c3.45-.293,6.888-.793,10.326-1.192a15.04,15.04,0,0,0,.356-1.634c.611-6.153.25-6.757-6-6.433-12.585.661-25.2,1.222-37.736,2.52a415.464,415.464,0,0,1-57.564,2.271,351.12,351.12,0,0,0-38.185.368c-4.162.306-8.317.642-12.779.986Zm274.289-48.119a130.558,130.558,0,0,0,32.8,2.184c-.743-13.284-1.46-26.187-2.185-39.221-11.406-1.173-22.355-2.271-33.561.768C1877.4,1211.035,1876.562,1223.07,1879.819,1235.169Zm-32.863,17.359c3.557,0,6.8.037,10.028-.006a133.908,133.908,0,0,0,23.666-2.078,105.781,105.781,0,0,1,31.6-.811c5.01.549,10.014,1.41,15.038,1.528,10.931.257,21.888-.093,32.82.2,20.272.549,40.3-2.089,60.366-4.273,5.615-.611,11.243-1.766,16.871-.8,6.707,1.148,13.12.325,19.567-1.51a6.4,6.4,0,0,0,5.022-5.06c-.536-.107-.986-.231-1.441-.275-8.66-.749-17.289-.138-25.925.536-11.979.936-23.959,1.878-35.951,2.64-10.2.642-20.435.692-30.6,1.591a349.345,349.345,0,0,1-47.182,1.5c-9.6-.449-19.2-1.061-28.795-1.691-12.541-.823-24.97.636-37.417,1.735-2.49.218-4.973.406-7.663.624Zm-88.892,32.151c-3.906-2.882-3.906-2.869-8.311-2.046-1.654.313-3.313.568-4.973.83-6.882,1.067-13.751,2.409-20.7.362a4.813,4.813,0,0,0-2.121.113,140.97,140.97,0,0,1-29.381,2.5c-12.965-.238-25.925-1.011-38.89-1.266a198.893,198.893,0,0,0-20.129.654c-8.717.712-17.4,1.9-26.094,2.9-.175.025-.324.293-.555.506v8.4a2.857,2.857,0,0,0,.862.212c12.148-1.522,24.289-3.076,36.437-4.586a69.826,69.826,0,0,1,19.387-.175,120.248,120.248,0,0,0,15.043,1.366c16.222.412,32.444.356,48.586-1.56,8.335-.992,16.628-2.32,24.952-3.407A6.441,6.441,0,0,0,1758.064,1284.678Zm232.611-82.478-35.858,4.348,2.689,30.829a15.906,15.906,0,0,0,2.052.237,152.848,152.848,0,0,1,21.226.911c4.7.531,9.254-.83,13.708-3.263ZM1828.95,1092.349a10.822,10.822,0,0,0,.225-1.3c.4-15.106.848-30.212,1.167-45.323.125-5.752.049-11.512-.1-17.264-.082-2.864-1.086-3.75-3.894-3.126-2.283.512-4.386,1.81-6.614,2.646-2.646.992-3.363,2.983-3.513,5.6a276.005,276.005,0,0,0,1.474,51.363c.424,3.251.648,6.651,2.627,9.677Zm-17.7,1.6c.686-10.183-.256-58.538-1.223-61.739l-10.987,3.063c.936,20.066,1.591,39.776,2.733,59.736Zm-18.269-56.13c-1.535.293-2.358.424-3.169.611-6.452,1.523-7.332,2.49-7.063,9.066.536,13.321,1.21,26.642,1.86,39.957.1,2,.374,3.993.58,6.171h10.326c-.144-3.088-.343-5.959-.4-8.829-.225-11.168-.287-22.343-.655-33.505C1794.321,1046.889,1793.523,1042.509,1792.986,1037.823Zm310.323,79.97c-.893-.069-1.585-.156-2.285-.181-3.706-.1-3.824.038-4.148,3.662-.431,4.786-.931,9.565-1.367,14.351-1.822,19.76-4.274,39.4-9.864,58.526-1.279,4.386-.069,6.327,4.392,7.625C2097.231,1184.823,2104.737,1137.66,2103.309,1117.793ZM1742.4,1053.771l-14.445,5.472a35.659,35.659,0,0,1,5.242,14.363c.5,4.043.867,8.1,1.429,12.136.523,3.75.835,7.587,2.838,10.907h10.264C1745.286,1082.472,1746.234,1068.084,1742.4,1053.771Zm27.073,41.5c1.341.081,2.4.206,3.462.194,4.548-.05,5.653-.949,5.5-5.423-.43-12.484-1.036-24.957-1.623-37.436-.125-2.739-.443-5.472-.717-8.723l-9.783,2.24C1768.653,1062.506,1766.637,1078.835,1769.476,1095.269Zm-6.695.038c-.593-15.861-1.173-31.272-1.766-47.095a80.959,80.959,0,0,0-12.348,3.488c1.772,14.706,3.507,29.082,5.259,43.607Zm89.953-64.99c-1.441,15.792,1.6,53.235,4.842,59.181h5.172c0-2.247.068-4.274-.012-6.3q-.627-16.022-1.317-32.045c-.169-4.081-.243-8.168-.524-12.242C1860.533,1033.705,1857.414,1030.511,1852.734,1030.317Zm-2,59.767c.169-3.382.262-3.475-.974-4.7a14.27,14.27,0,0,1-4.168-8.935c-.717-6.913-1.5-13.827-1.947-20.765-.468-7.413-.6-14.856-.8-22.287a7.4,7.4,0,0,0-3.17-6.271c-2.021.462-1.754,1.9-1.772,3.207q-.441,29.145-.862,58.295c-.018,1.048.094,2.1.163,3.481Zm-18.974,41.617c-.912-3.544-2.9-4.474-5.542-4.648-7.543-.512-15.081-1.117-22.624-1.654-11.611-.824-23.223-1.672-34.84-2.39a22.075,22.075,0,0,0-5.7.649c-2.509.518-2.6.78-2.876,4.449A406.066,406.066,0,0,0,1831.764,1131.7Zm-1.909-18.631c-1.161-.069-2.215-.168-3.27-.181-4.686-.068-9.372-.137-14.057-.149-13.334-.037-26.667-.106-40-.019-3.712.025-7.425.505-11.132.848-1.3.118-2.851.2-2.033,2.558l70.493,5.179Zm54.7-71.6c-2.165,9.353-.418,42.771,2.577,48.836l6.908-.337c0-1.591.043-2.888-.012-4.174-.469-11.274-.993-22.549-1.423-33.83-.281-7.462-.225-7.469-7.1-10.357A5,5,0,0,0,1884.555,1041.467Zm-5.809,48.406a21.461,21.461,0,0,0,.131-2.271c-.873-15.1-1.691-30.205-2.683-45.3-.312-4.742-2.5-5.8-7.275-3.769.536,17.14,1.079,34.367,1.628,51.856Zm44.387-1.279,2.864-34.5-11.724-2.4c-.412,12.472-.786,24.583-.636,36.9Zm17.92-.73c.393-3.575.767-6.651,1.061-9.733.418-4.286.9-8.579,1.117-12.878.168-3.219-1.055-4.991-3.8-5.709-2.621-.686-5.316-1.073-7.837-1.56-.693,6.863-1.422,13.4-1.972,19.947-.287,3.419-.381,6.876.961,10.407Zm-34.017.287.737-39.277-9.291-2.626a17.845,17.845,0,0,0-.181,1.853c.318,10.538.611,21.089,1.023,31.627a24.582,24.582,0,0,0,1.023,5.64C1901.477,1089.367,1902.543,1089.81,1907.036,1088.15Zm-192.522,7.955c.075-10.314-.375-20.178-3.357-30.08l-9.171,3.344c.53,5.291,1.079,10.058,1.472,14.831.393,4.754.893,9.465,2.751,14.063Zm15.779,1.51c-.661-6.433-1.179-12.385-1.916-18.312a76.773,76.773,0,0,0-1.859-9.865,18.2,18.2,0,0,0-3.718-7.749l-5.166,1.809c1.248,11.125,2.483,22.119,3.724,33.181Zm238.819-9.958a5.387,5.387,0,0,0,.461-1.3c.088-3.956.193-7.918.207-11.873.018-7.281-.549-7.862-7.918-8.355-.1-.006-.206.087-.605.262a82.3,82.3,0,0,0-1.3,21.682Zm-314.166.262c-1.579.512-2.714.836-3.813,1.242q-10.117,3.762-20.222,7.556c-1.572.586-3.194,1.067-4.717,1.765-.524.243-.817.992-1.217,1.5a8.833,8.833,0,0,0,1.847,1.135,4.81,4.81,0,0,0,1.785-.05c5.977-.536,11.961-1.061,17.938-1.628,3.057-.287,6.1-.637,9.372-.986Zm173.947,18c.107-4.442-1.111-5.784-5.154-5.459-8,.643-16.01,1.3-23.984,2.222a31.243,31.243,0,0,0-11.886,3.388C1801.577,1106.488,1815.255,1107.935,1828.893,1105.92Zm-144.055-28.807-8.865,2.7,1.5,18.443,7.362-2.752Zm269.6-14.076c-4.873,1.31-5.347,1.716-5.709,5.8-.493,5.5-.849,11.006-1.241,16.515-.063.911-.006,1.822-.006,2.976a18.715,18.715,0,0,0,2.071-.449c4.131-1.491,4.4-1.865,4.524-6.177s.256-8.641.356-12.965C1954.48,1066.862,1954.442,1064.99,1954.442,1063.037Zm-292.459,34.2h9.572l-1.666-15.779-8.972,3.419Zm416.629,109.539c.5,4.118,1,7.98,1.41,11.848.287,2.67,1.03,3.65,3.27,3.913,2.571.3,4.143-.7,4.7-3.276a43.3,43.3,0,0,0,.8-6.015,4.811,4.811,0,0,0-.592-2.365C2085.969,1206.456,2084.022,1205.65,2078.613,1206.78Zm-386.755-133.523c0,6.3-.106,12.417.044,18.525.087,3.725,2.078,4.755,5.971,3.276a22.132,22.132,0,0,0,.381-2.371,52.107,52.107,0,0,0-2.159-17.059C1695.583,1073.718,1694.191,1073.394,1691.858,1073.257Zm285.184-1.828c-1.5,4.48-2.639,8.7-1.385,13.171.854,3.051,2.046,3.6,5.565,2.6.362-2.939.88-6,1.073-9.066C1982.557,1073.868,1981.683,1072.82,1977.042,1071.429Zm20.515,15.137c.443-9-2-11.618-9.215-9.977v9.977Zm142.765-83.782c3.182,3.2,9.633,7.668,12.285,8.5l-1.754-14.17Zm3.075,23.66c3.968-5.747,3.338-7.381-3.3-9.022C2136.764,1021.233,2137.594,1023.629,2143.4,1026.443Zm-37.792,76.438-.948-.411-6.664,3.369a19.261,19.261,0,0,0,1.3,3.276c.53.843,1.579,2.2,2.065,2.065a4.61,4.61,0,0,0,2.951-2.146A33.742,33.742,0,0,0,2105.6,1102.881Zm-100.841-22.349c-1.341,7.319-.256,8.654,5.342,6.851C2010.391,1082.8,2009.349,1081.412,2004.763,1080.532Zm22.9,7.949c-4.474-4.293-7.257-5.023-10.8-3.032C2018.54,1089.648,2019.288,1089.872,2027.662,1088.481ZM2074.62,1223.2c-.743-2.316-.93-4.849-2.727-6.939C2070.376,1220.113,2070.7,1221,2074.62,1223.2Z" transform="translate(287.192 186.262)" fill="#000"/>
    <path id="Path_1219" data-name="Path 1219" d="M1640.9,1063.1c1.4-1.485,2.583-2.826,3.862-4.068,4.723-4.593,10.85-3.887,14.325,1.709a40.462,40.462,0,0,1,2.546,5.166,3.483,3.483,0,0,0,3.151,2.471c2.845.249,5.672.8,8.335,1.2,2.964-4.842,5.659-9.515,8.611-14.02,7.338-11.206,15.667-21.588,25.912-30.336a32.208,32.208,0,0,1,14.55-7.543c6.4-1.31,12.4,0,18.194,2.739,1.378.649,2.8,1.2,4.68,2v-8.13l-9.51-2.327c.518-2,1.024-3.806,1.46-5.628.668-2.8,1.411-5.6,1.916-8.43,1.036-5.815-1.023-7.949-6.9-6.9-3.763.668-7.437,1.81-11.38,2.8a19.437,19.437,0,0,1-1.517-7.625c-.006-2.889.213-5.784-.012-8.654-.531-6.676-3.475-11.98-9.677-14.987-4.83-2.34-9.621-2.146-13.8,1.523-14.12,12.429-24.028,27.4-27.216,46.228-.68,4.018-2.49,7.369-4.736,11.218l-5.56-11-14.737,15.729c-.973-2.527-1.81-4.6-2.571-6.7-.449-1.241-.761-2.533-1.167-3.787-1.26-3.831-2.8-5.247-5.859-5.4-3.7-.187-6.713,1.092-8.254,4.573a37.89,37.89,0,0,0-2.215,7.213c-.942,4.218-1.653,8.48-2.483,12.722-.181.917-.474,1.81-.717,2.714-4.405-1.092-5.5-2.327-4.8-6.221,1.042-5.784,2.283-11.543,3.637-17.258a12.882,12.882,0,0,1,7.394-8.816c4.461-2.166,8.816-2.115,12.94.836,2.334,1.666,4.593,3.426,6.888,5.153,2.528-1.965,4.674-4.2,7.289-5.515,2.464-1.241,5.415-1.523,8.791-2.39.468-1.055,1.3-2.77,2.009-4.53,4.873-12.067,11.062-23.46,17.619-34.666a32.829,32.829,0,0,1,3.1-4.418c4.629-5.54,10.551-7.65,17.682-6.57a31.955,31.955,0,0,1,14.344,5.447c7.244,5.241,11,12.216,10.3,21.332-.1,1.273-.012,2.559-.012,4.305,2.127-.337,3.749-.593,5.365-.842,8.217-1.279,13.92,3.444,14.026,11.773.037,2.62-.362,5.247-.586,8.217.762.493,1.747,1.117,2.72,1.753,6.351,4.149,7.25,10.519,2.289,16.191-.86.992-1.715,1.99-2.664,3.088a15.266,15.266,0,0,0,1.049,1.9c6.171,8.267,7.649,17.47,5.228,27.341a106.574,106.574,0,0,1-3.432,10.988c-2.14,5.865-4.48,11.655-6.707,17.489-.424,1.1-.742,2.234-1.173,3.556,2.571.9,4.942,1.666,7.263,2.571,5.271,2.046,6.489,4.524,4.529,9.8-1.167,3.145-2.764,6.121-4.112,9.2-1.878,4.281-1.079,6.1,3.37,7.637,1.241.424,2.558.636,3.837.967,9,2.34,12.123,9.041,7.955,17.327-1.4,2.776-3.063,5.422-4.786,8.448,1.411.742,2.746,1.448,4.075,2.159,8.592,4.592,14.8,11.1,16.435,21.058a34.237,34.237,0,0,1-17.009,35.059c-12.834,7.125-25.737,6.351-38.577-.069.673-3.643,2.495-5.266,5.79-5a24.3,24.3,0,0,1,4.561,1c11.187,3.17,21.052.131,29.494-7.169,7.194-6.227,9.733-14.575,7.424-23.853-2.284-9.178-8.885-14.288-17.77-16.553a55.88,55.88,0,0,1-9.783-3.65c1.217-1.142,2.122-2.028,3.064-2.87,2.327-2.084,4.7-4.118,7-6.233a17.874,17.874,0,0,0,2.646-2.939c2.452-3.568,1.885-6.776-1.96-8.729a87.56,87.56,0,0,0-10.057-3.862c-1.691-.605-3.5-.911-5.148-1.6-2.439-1.036-2.963-2.452-1.89-4.929a35.584,35.584,0,0,1,2.14-3.743c1.7-2.9,3.543-5.728,5.066-8.723a26.4,26.4,0,0,0,1.44-5.035c-3.131-1.791-6.157-1.678-9.115-2-2.926-.325-5.977-.431-8.51-2.714.586-1.217,1.092-2.278,1.622-3.332,4.049-8.049,7.949-16.179,12.2-24.115,3.65-6.807,4.137-13.939,3.2-21.351-.013-.119-.037-.237-.056-.356-1.959-12.2-9.084-17.82-21.545-17.033a23.544,23.544,0,0,0-17.744,9.01,78.518,78.518,0,0,1-6.863,7.387,69.143,69.143,0,0,0-12.148,15.586c-3.469,6.04-6.832,12.148-10.432,18.113-2.1,3.481-4.568,6.738-7.125,10.476l-5.909-9c-1.155.231-2.3.474-3.444.686-2.877.537-4.187-.043-5.61-2.67-.967-1.791-1.785-3.669-2.7-5.5-.406-.817-.892-1.591-1.46-2.6a5,5,0,0,0-2,5.253c.269,1.417.743,2.789,1.03,4.2.649,3.251-.031,4.493-3.469,6.289-.767-.823-1.6-1.66-2.377-2.558-5.123-5.9-10.2-11.836-15.343-17.72a93.687,93.687,0,0,0-33.786-24.664c-7.057-3.045-14.351-4.929-22.1-3.151-8.617,1.978-15.387,6.44-19.549,14.525-6.788,13.171-10.65,27.054-9.951,41.929.449,9.6,1.267,19.186,2.352,28.726a52.617,52.617,0,0,0,7.469,20.908c3.619,6.083,7.631,11.936,11.462,17.895a48.452,48.452,0,0,1,2.645,4.292,5.87,5.87,0,0,1-.461,6.446c-5.11-1.273-10.083-2.633-15.112-3.7a27.948,27.948,0,0,0-6.813-.424c-4.025.156-5.684,2-5.2,6.058a28.384,28.384,0,0,0,9.54,18.462,36.964,36.964,0,0,0,6.794,4.7c5.379,2.92,10.895,5.59,16.341,8.4,2.565,1.323,2.846,3.806.562,5.634a9.225,9.225,0,0,1-3.2,1.566c-2.646.761-5.379,1.241-8.018,2.04a25.09,25.09,0,0,0-5.952,2.421c-3.007,1.86-3.669,4.517-2.409,7.818a8.013,8.013,0,0,0,.6,1.31c7.718,12.566,18.344,20.178,33.705,19.423a29.191,29.191,0,0,0,7.749-1.5c11.38-3.8,21.345-9.833,29.194-19.08a21.7,21.7,0,0,1,1.96-2.109,4.607,4.607,0,0,1,5.871-.63c-.473,1.279-.836,2.521-1.372,3.681a30.384,30.384,0,0,1-9.328,11.293,72.7,72.7,0,0,1-33.287,14.644,36.759,36.759,0,0,1-15.355-1.148,49.765,49.765,0,0,1-22.168-12.192c-4.854-4.7-6.863-10.588-7.549-17.09a6.361,6.361,0,0,1,2.826-5.9c2.277-1.759,4.7-3.344,7.075-4.973,1.467-1.011,2.97-1.966,4.767-3.151-.917-.83-1.554-1.479-2.258-2.041-3.756-3.007-7.574-5.934-11.274-9-6.87-5.709-11.624-12.729-13.116-21.726-1.017-6.133.481-9.1,6.308-11.143,3.5-1.223,7.157-2.015,10.745-2.982,1.372-.368,2.758-.693,4.66-1.167-.923-1.56-1.654-2.876-2.465-4.149-5.328-8.392-9.4-17.321-11.218-27.141a112.913,112.913,0,0,1-1.472-11.425c-.893-11.012-2.09-22.019-1.192-33.1,1.185-14.569,6.277-27.828,13.758-40.194,3.587-5.915,9.553-9.01,15.941-11.138a39.96,39.96,0,0,1,22.019-1.042,72.863,72.863,0,0,1,37.586,21.495C1632.155,1054.205,1636.471,1058.542,1640.9,1063.1Z" transform="translate(76.038 46.87)" fill="#000"/>
    <path id="Path_1220" data-name="Path 1220" d="M1727.49,1075.1a113.693,113.693,0,0,1,27.222-7.406c18.569-2.6,37.168-4.948,55.755-7.337,18.238-2.353,36.482-4.636,54.289-9.4a59.956,59.956,0,0,0,9.365-3.612c2.084-.954,2.084-2.277.069-3.331a14.033,14.033,0,0,0-5.035-1.717c-15.33-1.348-30.667-2.371-46.1-1.659-27.984,1.285-55.993,2.177-83.988,3.325-14.657.606-29.344.937-43.944,2.234-16.684,1.478-33.368,1.76-50.077,2.059-10.576.194-21.133,1.03-31.7,1.691a29.848,29.848,0,0,1-11.044-1.1,5.5,5.5,0,0,1-2.764-1.985c3.806-.723,7.588-1.678,11.425-2.133,7.511-.88,15.049-1.828,22.6-2.14,23.067-.954,46.153-1.642,69.227-2.383,24.04-.774,48.094-1.266,72.121-2.322,13.8-.611,27.572-2.083,41.348-3.176,13.053-1.035,26.044-3.088,39.2-2.42a93.732,93.732,0,0,1,34.172,8.024c3.326,1.5,3.994,4.773,1.286,7.307a11.824,11.824,0,0,1-4.386,2.314c-6.62,2.14-13.341,3.994-19.928,6.228-9.734,3.294-19.8,4.948-29.906,6.4-24.021,3.451-48.093,6.595-72.083,10.258-4.88.742-9.5,3.207-14.214,4.955-.406.155-.948,1.023-.83,1.309a3.075,3.075,0,0,0,1.391,1.3c.381.206.943.056,1.423.088,15.236.942,30.479,1.847,45.716,2.839,11.393.742,22.792,1.491,34.179,2.427,10.9.9,21.776,2.065,32.67,3.095,11.842,1.117,23.691,2.3,35.546,3.3,14.25,1.21,28.52,2.309,42.783,3.382,11.393.861,22.793,1.584,34.186,2.4,15.467,1.123,30.947,2.127,46.4,3.462q17.95,1.553,35.839,3.831c9.771,1.229,19.461,3.064,29.225,4.38s19.58,2.221,29.35,3.494c13.11,1.7,26.224,3.395,39.277,5.436,20.534,3.212,41.018,6.719,61.527,10.082,2.49.406,4.991.792,7.5.992a11.8,11.8,0,0,1,7.238,3.5c-4.5,1.748-8.91,2.714-13.49,2.09-10.121-1.379-20.21-2.982-30.324-4.392-13.453-1.866-26.885-3.863-40.375-5.391-17.2-1.953-34.467-3.263-51.649-5.29-9.41-1.111-18.681-3.326-28.071-4.674-8.917-1.279-17.9-2.083-26.855-3.076-18.867-2.084-37.779-3.775-56.534-6.888-10.3-1.71-20.709-2.976-31.116-3.85-17.851-1.491-35.74-2.452-53.6-3.787-6.589-.487-13.133-1.51-19.717-2.09-4.785-.424-9.6-.511-14.4-.768-15.966-.848-31.939-1.565-47.893-2.6-12.473-.811-24.933-1.884-37.38-3.082-12.08-1.16-24.135-2.62-36.2-3.949-3.581-.4-7.169-.786-10.744-1.223C1729.043,1083.343,1727.882,1082.064,1727.49,1075.1Z" transform="translate(424.71 462.096)" fill="#000"/>
    <path id="Path_1221" data-name="Path 1221" d="M1682.115,1130.811c-6.027-4.23-9.421-10.014-11.069-16.884a35.1,35.1,0,0,1-.892-7.125,8.39,8.39,0,0,1,5.446-8.542,42.347,42.347,0,0,1,7.956-2.065,58.661,58.661,0,0,1,6.146-.543c0-1.934.119-3.681-.019-5.416a107.8,107.8,0,0,1,.542-23.728,81.612,81.612,0,0,1,23.785-47.463c4.318-4.318,9.141-8.155,13.82-12.1,9.908-8.373,21.339-10.632,33.8-7.861,5.853,1.3,11.654,2.926,17.345,4.8a54.289,54.289,0,0,1,23.9,16.179c.786.886,1.585,1.759,2.608,2.889.9-1.529,1.685-2.82,2.434-4.137,6.533-11.536,15.4-20.509,27.927-25.475,1.56-.618,3.158-1.154,4.755-1.672.9-.293,1.84-.462,2.969-.736l10.657,14.369c2.258-1.366,4.362-2.689,6.514-3.93,3.956-2.278,7.862-4.655,11.936-6.689a17.668,17.668,0,0,1,6.189-1.66c3.188-.293,5.41,1.111,6.377,4.156a31.775,31.775,0,0,1,1.142,7.418c.186,2.733.043,5.49.043,8.647,1.76.238,3.5.593,5.254.693,5.035.287,10.095.349,15.124.736a23.561,23.561,0,0,1,13.771,5.509l-9.048,20.447c1.691.124,2.933.231,4.18.3,7.2.381,14.413.574,21.588,1.2a41.552,41.552,0,0,1,15.124,4.467,24.541,24.541,0,0,1,5.372,3.568,8.977,8.977,0,0,1,2.8,9.49,25.414,25.414,0,0,1-5.129,9.827c-3.038,3.719-6.245,7.306-9.39,10.938-.767.88-1.572,1.735-2.9,3.195,4.074.4,7.463.836,10.863,1.042,13.8.836,26.431,4.836,37.28,13.627,14.413,11.68,22.025,26.643,21.769,45.4a24.54,24.54,0,0,1-4.367,13.864c-3.295,4.823-7.619,8.647-12.086,12.31-2.165,1.778-4.417,1.472-6.738-.025a5.65,5.65,0,0,1,2.509-5.528c2.1-1.617,4.155-3.283,6.257-4.88,6.371-4.83,9.416-11.255,8.461-19.161-1.971-16.44-8.661-30.46-22.361-40.387-11.948-8.66-25.538-11.387-40.02-9.809-5.234.574-10.382,1.934-15.592,2.8a38.857,38.857,0,0,1-6.433.449,2.417,2.417,0,0,1-2.658-2.39c-.063-1.654-.225-3.444,1.653-4.393a11.151,11.151,0,0,1,1.692-.6,39.85,39.85,0,0,0,15.454-8.991c4.013-3.787,7.737-7.887,11.587-11.849.081-.087.155-.181.231-.274,3.594-4.592,2.869-7.288-2.552-9.652-4.486-1.959-9.246-2.546-14.051-2.876q-16.013-1.1-32.027-2.146c-4.08-.269-5.391-2.2-3.631-5.971a31.506,31.506,0,0,1,4-5.94c1.41-1.791,3.163-3.307,4.567-5.1a16.283,16.283,0,0,0,2.515-4.324c1.06-2.914-.113-5.541-3.17-6.133a37.9,37.9,0,0,0-9.628-.4c-4.548.306-9.065,1.086-13.6,1.6-1.516.175-3.052.181-4.743.268-.48-4.137-.848-7.874.207-11.7a20.8,20.8,0,0,0,.773-6.726c-.212-3.263-2.458-4.624-5.571-3.637a19.045,19.045,0,0,0-4.543,2.14,44.683,44.683,0,0,0-11.156,9.59,14.162,14.162,0,0,1-3.762,3.289c-2.34,1.41-4.436.767-5.74-1.647-.679-1.248-.949-2.714-1.547-4.018a31.746,31.746,0,0,0-2.957-5.715,8.4,8.4,0,0,0-10.614-2.783,22.314,22.314,0,0,0-5.684,3.713,65.928,65.928,0,0,0-12.254,15.043c-2.221,3.6-2.177,7.525-1.578,11.525.611,4.1.112,5.1-3.694,7.406-.6-.649-1.266-1.3-1.853-2.022-2.571-3.182-5.166-6.339-7.656-9.577-9.1-11.843-21.114-18.656-35.846-20.746a119.132,119.132,0,0,0-13.925-1.547c-8.7-.206-16.154,3.126-22.475,9.053-1.491,1.391-3.007,2.764-4.592,4.049a70.1,70.1,0,0,0-20.166,27.273c-3.962,9.178-7.25,18.562-7.749,28.707a51.61,51.61,0,0,0,4.979,25.176,14.77,14.77,0,0,1,1.024,2.3c.792,2.858-.718,4.368-3.62,3.613-3.019-.786-5.983-1.828-9.034-2.433a22.843,22.843,0,0,0-6.763-.381c-2.82.312-4.361,2.346-4.56,5.2a12.31,12.31,0,0,0,2.314,7.8c1.2,1.8,2.577,3.482,3.737,5.3C1686.345,1125.988,1685.94,1127.835,1682.115,1130.811Z" transform="translate(794.67 246.07)" fill="#000"/>
    <path id="Path_1222" data-name="Path 1222" d="M1792.41,1023.316c-3.494-2.24-6.664-4.274-10.463-4.536-3.694-.256-7.419-.056-11.269-.056-2.5-3.338-2.839-5.9-.281-9.247,4-5.222,2.615-10.694,1.273-16.191-.511-2.1-2.439-2.889-4.417-3.195-2.134-.331-4.305-.449-6.452-.724-3.038-.381-3.906-1.148-4.548-4.174-.343-1.635-.449-3.326-.736-4.979-1.629-9.278-8.661-13.72-17.739-11.2a34.041,34.041,0,0,0-11.942,6.5,43.819,43.819,0,0,0-14.269,20.815c-1.241,3.65-2.521,7.281-5.241,10.164-.568.6-1.223,1.111-1.935,1.741-6.326-1.878-7.257-8.255-10.888-12.841-.455.855-.811,1.522-1.16,2.184-1.872,3.494-3.682,7.019-5.622,10.47a48.113,48.113,0,0,0-5.322,12.934c-1.042,4.6-4.9,6.015-8.773,3.282-1.666-1.173-3.095-2.658-4.662-3.974-5.9-4.929-12.522-8.186-20.365-7.855-7.912.331-14.718,3.076-19.267,10.083-2.876,4.436-5.959,8.735-8.873,13.147-6.576,9.964-9.59,21.126-10.981,32.831a89.12,89.12,0,0,0,5.64,43.857,11.307,11.307,0,0,1,.824,4.193c-.05,3.051-2.152,4.586-5.228,4.212-2.977-.368-5.958-.8-8.948-.879A5.336,5.336,0,0,0,1595.5,1124a5,5,0,0,0,.785,4.436,22.48,22.48,0,0,1,1.5,3.057c-4.623,1.51-6.92.692-9.172-2.97a12.607,12.607,0,0,1,8.86-19.018c1.878-.287,3.788-.417,6.1-.661-.43-3.894-.861-7.662-1.254-11.431-1.329-12.822-2.14-25.669.38-38.422,2.721-13.777,7.344-26.917,15.4-38.535a73.384,73.384,0,0,1,10.513-11.792c5.622-5.2,12.367-6.6,19.772-4.156,8.423,2.783,16.865,5.522,25.525,8.355,1.891-3.313,3.813-6.888,4.455-10.975a11.913,11.913,0,0,1,4.493-7.967,103.965,103.965,0,0,1,9.327-6.1c2.352-1.41,4.655-.949,6.57.973,1.185,1.185,2.214,2.527,3.5,4.011,1.029-.992,1.74-1.566,2.314-2.246,5.335-6.352,10.775-12.616,15.941-19.1,5.129-6.445,12.3-9,19.829-10.844a11.977,11.977,0,0,1,6.027.393c8.94,2.708,15.081,8.267,16.9,17.764a3.238,3.238,0,0,0,2.29,2.851c1.928.655,3.837,1.385,5.759,2.059,4.367,1.529,7.038,4.4,7.5,9.159.411,4.181.954,8.348,1.441,12.522.206,1.779.418,3.557.649,5.522,2.271.655,4.455,1.254,6.614,1.916,2.178.668,4.379,1.285,6.495,2.128,4.7,1.859,5.884,3.912,5.235,8.91-.287,2.246-.705,4.48-1.111,7.019,2,.824,3.981,1.622,5.946,2.452,5.086,2.14,10.3,4.03,15.231,6.489,10.445,5.229,16.022,14.12,18.15,25.376a10.039,10.039,0,0,1-1.3,7.294c-1.94,3.17-3.781,6.427-6.015,9.39a26.121,26.121,0,0,1-15.36,10.04c-3.039.7-6.028,1.622-9.054,2.377a13.614,13.614,0,0,1-8.161-.443c-2.82-1.042-3.363-1.984-2.776-4.873.6-2.957,2.24-4.373,4.935-4.149,1.554.131,3.088.474,4.642.63,11.948,1.21,25.264-10.794,23.535-24.209-.468-3.65-1.885-6.819-4.991-8.8-7.394-4.736-14.938-9.247-23.616-11.268-2.907-.68-5.921-.892-8.891-1.285-.83-.106-1.691,0-2.521-.125-3.775-.561-5.191-3.157-3.326-6.47a48.925,48.925,0,0,1,4.2-5.84C1789.8,1026.124,1790.987,1024.926,1792.41,1023.316Z" transform="translate(357.749 86.033)" fill="#000"/>
    <path id="Path_1223" data-name="Path 1223" d="M1752.672,1070.446l-6.576-12.185c-2.813.83-4.249,2.739-5.491,4.836-1.035,1.753-1.94,3.594-3.007,5.334a10.19,10.19,0,0,1-6.85,4.892l-2.989-11.636-.692-.2a34.758,34.758,0,0,0-1.579,3.313c-.573,1.579-.892,3.245-1.478,4.817-1.517,4.1-3.751,5.366-8.524,4.855-.68-2.964-1.272-6.021-2.1-9-1.909-6.92-5.92-12-12.984-14.264a15.246,15.246,0,0,0-1.615-.318,23.772,23.772,0,0,0-1.585,2.253,41.742,41.742,0,0,0-4.768,26.5c.817,5.927,2.3,11.767,3.513,17.638.238,1.167.587,2.308.9,3.563-2.676,1.816-5.316,2.839-8.454,1.385a4.5,4.5,0,0,0-2.452-.275c-1.915.318-3.943.818-4.655,2.883-.686,2.009.213,3.774,1.748,5.153,2.22,2.009,4.474,3.975,6.651,5.9-1,3.656-2.459,4.511-5.666,3.469-7.743-2.515-13.365-13.353-11.045-21.152a7.722,7.722,0,0,1,5.011-5.26c1.678-.63,3.419-1.1,5.528-1.766.393-4.143.811-8.411,1.2-12.685.468-5.147.942-10.289,1.353-15.442a28.255,28.255,0,0,1,4.761-13.059c3.413-5.335,8.142-6.82,14.02-4.261a54.749,54.749,0,0,1,8,4.8c1.684,1.11,3.2,2.471,4.873,3.787,1.859-1.024,3.563-1.9,5.2-2.876,2.715-1.629,5.254-1.31,7.719.523,1.528,1.136,3.063,2.259,4.667,3.444,2.3-1.573,4.423-3.132,6.657-4.517,3.919-2.421,6.065-2.184,9.285,1.023,1.779,1.773,3.413,3.7,5.3,5.759.617-.6,1.217-1.1,1.722-1.679q15.077-17.23,30.149-34.472a23.588,23.588,0,0,1,10.644-6.521c3.757-1.248,7.544-2.452,11.382-3.4a19.411,19.411,0,0,1,16.19,2.92c5.135,3.55,10.208,7.238,14.981,11.25a25.175,25.175,0,0,1,9.409,19.136c.131,4.081.605,8.149.918,12.223a39.549,39.549,0,0,1-2.165,16.665c-1.3,3.594-2.508,7.213-3.849,11.082l9,4.454-.493,8.567c1.18.524,2.346,1.055,3.52,1.572,4.709,2.084,8.572,4.749,7.225,10.882,2.807,1.628,5.453,3.032,7.955,4.648a70.558,70.558,0,0,1,7.587,5.46,8.011,8.011,0,0,1,2.957,7.723c-1.391,8.08-10.563,15.1-18.712,14.308a26.868,26.868,0,0,1-2.963-.687,78.769,78.769,0,0,1,7.755-6.77,33.232,33.232,0,0,0,3.838-3.263c3.35-3.706,2.32-8.648-2.234-10.694a34.634,34.634,0,0,0-4.811-1.466c-1.734-.486-3.494-.873-5.216-1.4-5.336-1.641-6.059-2.832-5.236-8.379.138-.93.25-1.859.406-3.07l-13.409-2.434,2.689-9.14c-1.729-.2-3.226-.337-4.711-.555-4.312-.642-5.628-2.465-4.655-6.713a39.734,39.734,0,0,1,1.772-5.091c3.313-8.7,5.709-17.57,5.541-27a49.145,49.145,0,0,0-4.286-19.192c-3.481-7.893-9.415-13.215-17.215-16.6a16.794,16.794,0,0,0-16.515,1.3c-.918.574-1.834,1.154-2.689,1.81-13.484,10.351-26.211,21.5-36.875,34.835C1762.375,1062.709,1757.446,1066.141,1752.672,1070.446Z" transform="translate(806.747 351.103)" fill="#000"/>
    <path id="Path_1224" data-name="Path 1224" d="M1858.237,1067.042c-1.766,8.785-3.481,17.234-5.16,25.688-.443,2.234-.705,4.511-1.2,6.739-1.167,5.153-3.588,6.938-8.823,5.983-7.8-1.416-15.536-3.144-23.291-4.754-11.762-2.434-23.511-4.917-35.291-7.263a57.85,57.85,0,0,0-7.07-.536c-.524,3.363-1.079,6.408-1.466,9.478-1.142,9.053-2.527,18.094-3.219,27.191-.468,6.2.043,12.479.143,18.725.076,4.68.194,9.359-1.316,13.877-3.5-.312-4.636-1.317-4.81-4.468-1.111-20.01-.219-39.87,4.617-59.424.088-.349.219-.686.3-1.042,1.086-4.848-.162-6.395-5.865-6.732a49.429,49.429,0,0,0-1.691,7.125c-1.348,15.081-2.552,30.167-3.787,45.254-.288,3.476-.475,6.957-.83,10.42s-1.354,4.46-5.222,5.247q3.1-34.038,6.165-67.834a16.079,16.079,0,0,0-8.78-3.375c-11.125-1.062-22.268-1.978-33.4-2.977a45.987,45.987,0,0,1-5-.648,9.2,9.2,0,0,1-6.471-4.749c-2.371-4.292-4.7-8.616-7.275-13.345,4.674-3.651,9.49-7.587,14.506-11.243,2.434-1.779,3.851-1.049,6.134,2.626l-13.353,9.914c.624,6.5,4.218,10.595,10.065,10.945,7.793.468,15.6.542,23.927.8a43.937,43.937,0,0,0-4.9-9.048l-6.869,4.25c-.549-1.017-1.479-1.922-1.4-2.727.418-4.268,1.048-8.529,3.375-12.815l2.264,5.2c3.669-.948,4.861-6.1,9.459-5.322.182,1.716-.9,2.608-1.915,3.625-2.009,2.015-2.371,3.388-1.073,5.8,2.053,3.8,4.256,7.537,6.614,11.156a5.029,5.029,0,0,0,3.014,1.522c9.752,2.034,19.53,3.994,29.3,5.952,21.894,4.4,43.794,8.786,66.037,13.247.275-1.055.619-2.04.78-3.057,1.117-6.876,2.178-13.759,3.289-20.634.824-5.066-.662-7.406-5.729-8.573-7.605-1.759-15.255-3.313-22.849-5.128-20.284-4.842-40.923-7.114-61.657-8.835-7.032-.586-14.164-.773-20.958-2.963-.331-3.612.492-4.736,3.943-4.729,6.37.018,12.741.225,19.117.362,5.409.118,6.033-.461,5.572-5.865-.206-2.389-.755-4.742-1.092-7.119a9.245,9.245,0,0,1,.262-4.261,29.6,29.6,0,0,1,2.127,2.583,27.505,27.505,0,0,0,12.579,10.438,5.7,5.7,0,0,1,3.931,5.022c.2,2.209,1.372,2.908,3.494,3.239,11.4,1.766,22.78,3.613,34.135,5.622,11.619,2.052,22.993,5.016,33.749,10C1856.439,1066.081,1857.469,1066.648,1858.237,1067.042Z" transform="translate(948.419 443.899)" fill="#000"/>
    <path id="Path_1225" data-name="Path 1225" d="M1593.709,1042.884a55.1,55.1,0,0,0-5.6,1.491,12.943,12.943,0,0,1-13.252-1.809c-1.236-.923-2.64-1.622-4.038-2.471l-6.863,4.043c.762,2.24,1.379,4.405,2.271,6.452a4.122,4.122,0,0,0,2.021,1.715,18.916,18.916,0,0,0,3.2.874c.772,2.614.935,5.06-1.429,6.888-2.122,1.647-4.349,2.982-7.263,1.51a3.773,3.773,0,0,1-2.389-2.864c-.344-2.016-.768-4.012-1.08-6.027a88.378,88.378,0,0,0-7.618-23.56,5.635,5.635,0,0,1,.062-5.709c2.358-4.205,2.3-9.022,2.7-13.67a22.184,22.184,0,0,1,6.963-14.962c5.522-5.185,10.995-6.127,17.807-2.858,1.4.674,2.783,1.41,4.281,2.172a7.4,7.4,0,0,0,1.191-.674c5.828-4.842,12.634-6.077,19.953-5.509,4.043.312,6.807,2.2,7.7,6.3.741,3.4,1.372,6.82,2.059,10.226.162.8.368,1.6.524,2.271a3.573,3.573,0,0,0,.817.412,16.68,16.68,0,0,1,13.9,20.777c-1.473,5.672-5.459,8.929-10.838,10.52-4.48,1.323-9.047,2.414-13.621,3.363a5.419,5.419,0,0,0-4.074,3.026c-4.337,8.03-8.8,15.985-13.215,23.972a32.528,32.528,0,0,0-3.251,24.365c2.9,11.767,5.871,23.516,8.454,35.346,1.872,8.554,3.088,17.246,4.755,25.85.773,3.981,1.934,7.893,3.007,12.2l-8.679,3.743a83.1,83.1,0,0,1-2.946-8.392c-5.4-23.011-10.594-46.072-16.1-69.058-1.847-7.737-.817-14.469,3.663-21.189,5.646-8.486,10.55-17.464,15.76-26.237C1592.892,1044.806,1593.129,1044.138,1593.709,1042.884Zm-21.339-45.1-10.488,11.917c3.494,5.6,3.338,7.493-.861,12.36-.237.268-.592.486-.723.792-.306.73-.849,1.572-.706,2.246.861,4.062,1.885,8.092,2.907,12.372l11.912-5.621c1.691,1.816,3.382,3.513,4.929,5.335a3.849,3.849,0,0,0,4.049,1.466c6.158-1,12.367-1.684,18.537-2.639,5.091-.8,10.214-1.566,15.212-2.8,4.654-1.148,7.35-5.715,6.813-10.532-.561-5.035-3.519-7.843-8.8-8.267-1.909-.156-3.837-.125-5.76-.237-.917-.05-1.828-.231-2.988-.381.163-2.109.349-4.005.437-5.908.15-3.351.449-6.72.294-10.064-.163-3.257-2.321-5.066-5.3-4.293-5.26,1.379-10.919,2.153-13.378,8.38-1.061,2.7-3.406,3.057-5.933,1.641C1579.2,1001.692,1575.883,999.783,1572.371,997.786Z" transform="translate(169.963 229.606)" fill="#000"/>
    <path id="Path_1226" data-name="Path 1226" d="M1583.217,1115.774c-2.527,5.747-3.637,6.526-8.891,6.177a62.906,62.906,0,0,1-8.586-1.017c-7.711-1.617-11.754-6.071-12.309-13.858a40.15,40.15,0,0,1,.68-9.3c.555-3.382,2.87-5.479,6.089-6.483,2.383-.742,4.823-1.316,7.375-2.009,0-2.621.032-5.129-.006-7.631-.138-8.311.044-16.572,2.146-24.7,3.17-12.279,7.624-16.428,20.234-17.938a68.986,68.986,0,0,1,12.179-.131c3.4.206,6.439,1.76,9.3,3.643a39.4,39.4,0,0,0,3.993,2.009c.818-1.5,1.466-2.621,2.059-3.768,2.714-5.285,6.427-8.767,13.1-6.938.238-1.024.455-1.8.593-2.59,1.21-6.863,5.129-12.079,10.245-16.491a4.286,4.286,0,0,1,2.932-.8,13,13,0,0,1,8.923,4.156c2,2.215,4.049,4.38,6.2,6.695,2.221-1.965,4.23-3.838,6.339-5.6,7.3-6.077,11.88-5.416,17.1,2.583,1.766,2.708,3.282,5.59,4.823,8.442.793,1.466.961,2.982-.474,4.255-1.56,1.385-3.289,1.5-4.8-.081-1.4-1.46-2.4-3.294-3.725-4.836a21.55,21.55,0,0,0-4.28-4.243c-2.359-1.529-3.888-1.073-5.535,1.2-1.479,2.04-2.72,4.255-4.218,6.283-1.847,2.5-4.156,4.293-7.85,4.111-1.085-2.308-2.183-4.685-3.319-7.044-1.4-2.914-3.32-5.2-6.62-6.177-1.828-.543-3.194-.25-3.862,1.448a22.939,22.939,0,0,0-1.7,6.146c-.231,2.489.212,5.035.237,7.556.074,7.057-2.8,10.919-9.771,13.015l-6.158-7.737c-2.764,2.122-2.951,4.767-2.383,7.388a74.484,74.484,0,0,0,2.471,7.487c.849,2.54-.088,4.181-2.646,4.886-1.872.518-2.913-.505-3.925-1.81-2.87-3.681-5.74-7.369-8.672-11a34.631,34.631,0,0,0-3.264-3.363c-4.911-4.567-9.141-4.786-14.457-.711q-4.577,3.509-9.021,7.187c-9.939,8.2-12.1,18.669-8.417,30.53,1.086,3.488,3.113,6.72,4.948,9.933,1.691,2.976.555,5.485-2.895,5.7a8.673,8.673,0,0,1-2.484-.318,23.956,23.956,0,0,1-2.377-.824c-4.242-1.516-6.4-1.366-7.593.53-1.8,2.839-1.511,8.224.874,10.47a13.621,13.621,0,0,0,4.854,2.957,62.52,62.52,0,0,0,7.724,1.653C1579.886,1115.125,1581.377,1115.412,1583.217,1115.774Z" transform="translate(182.807 366.616)" fill="#000"/>
    <path id="Path_1227" data-name="Path 1227" d="M1583.511,1052.153c.942-1.809,1.822-3.494,2.689-5.185,2.246-4.38,4.417-8.8,6.776-13.127a23.209,23.209,0,0,1,3.55-4.954c3.469-3.6,8.112-4.181,12.036-1.136a27.91,27.91,0,0,1,5.853,6.7c2.046,3.095,1.978,3.295,5.322,2.34,3.943-1.123,4.249-1.011,6.457,2.371a23.643,23.643,0,0,1,1.366,2.122c1.748,3.431,4.019,5.727,8.374,5.234,1.541-.175,3.288.618,4.8,1.291,1.9.842,3.375,2.1,3.556,4.536a6.253,6.253,0,0,0,4.268,5.36c2.552,1.054,5.154,1.99,7.749,2.926,6.552,2.359,10.151,7.381,12.335,13.658,1.241,3.575.218,6.651-2.4,9.21a20.151,20.151,0,0,1-14.881,6.17c-12.023-.187-24.047-.281-36.07-.43-11.662-.15-23.324-.331-34.991-.474a35.827,35.827,0,0,1-13.989-3.045c-6.045-2.633-8.379-6.414-8.117-13.015a34.536,34.536,0,0,1,3.757-14.177c3.257-6.557,8.13-8.947,15.405-7.655C1579.356,1051.224,1581.328,1051.692,1583.511,1052.153Zm26.936-4.336c-.406-1.086-.773-1.953-1.055-2.846-1.1-3.55-2.121-7.125-3.3-10.65-.7-2.1-2.271-2.541-3.7-.887a21.315,21.315,0,0,0-4.2,6.165c-2.677,7.319-5.011,14.762-7.344,22.2-.555,1.766-1.173,3.1-3.226,3.288a4.25,4.25,0,0,1-4.555-2.177c-.4-.736-.649-1.56-1.079-2.277-3.214-5.423-10.12-5.378-13.078.175a24.2,24.2,0,0,0-2.1,6.089c-1.173,5.3.761,8.885,5.8,10.863a28.389,28.389,0,0,0,10.944,1.834q17.484-.253,34.966-.362c3.719-.019,7.444.155,11.162.362,8.155.456,16.3.992,24.458,1.484a25.977,25.977,0,0,0,2.883.063c3.75-.194,5.229-1.959,4.461-5.666a11.89,11.89,0,0,0-9.1-9.658,45.507,45.507,0,0,0-4.96-.862c-2.945-.443-5.89-.855-9.1-1.323v-9.721c-1.46-.1-2.64-.281-3.807-.243-2.283.068-4.56.38-6.832.368-3.22-.018-4.293-.88-5.178-3.931-.406-1.378-.555-2.826-.943-4.211-.568-2.053-1.466-2.515-3.458-1.654C1615.588,1045.328,1613.136,1046.557,1610.447,1047.817Z" transform="translate(208.045 428.695)" fill="#000"/>
    <path id="Path_1228" data-name="Path 1228" d="M1695.168,1112.862a10.673,10.673,0,0,0,7.449-3.395c2.758-2.845,5.722-5.5,8.38-8.442,2.289-2.54,4.867-3.812,8.56-3.1-.849,3.251-2.121,6.165-4.786,8.386-6,5-12.092,9.908-17.888,15.137-5.435,4.9-10.813,9.927-15.729,15.337-9.422,10.364-13.784,22.93-14.607,36.775a31.666,31.666,0,0,0,4.773,19.616,13.653,13.653,0,0,1,.755,1.6c-5.9.736-8.411-.768-9.665-6.152-2.851-12.223-2.72-24.246,2.371-36.014a84.53,84.53,0,0,1,21.6-29.818c1.615-1.441,3.213-2.895,4.811-4.355a2.466,2.466,0,0,0,.368-.605c-.911-2.832-2-5.622-2.7-8.5-1.123-4.636-.723-9.34.131-13.964a125.117,125.117,0,0,1,8.617-28.177,84.851,84.851,0,0,1,31.521-37.124c11.48-7.537,23.779-13.558,36.1-19.529,7.668-3.719,15.467-7.182,23.116-10.938a102.141,102.141,0,0,0,19.754-12.51,54.841,54.841,0,0,0,16.21-21.732,26.438,26.438,0,0,0,2.278-12.273c-.15-2.04-.094-4.087-.2-6.127-.094-1.709.505-2.745,2.334-2.958,1.722-.2,2.851.481,3.213,2.134,1.067,4.823,1.909,9.7.8,14.625a49.788,49.788,0,0,1-14.425,25.694,106.54,106.54,0,0,1-26.636,18.306c-12.385,6.1-24.921,11.9-37.269,18.088-7.075,3.544-13.964,7.5-20.82,11.468a72.987,72.987,0,0,0-18.133,14.694,57.378,57.378,0,0,0-11.48,19.417c-2.639,7.6-5.234,15.211-7.88,22.811C1693.652,1098.274,1694.388,1105.412,1695.168,1112.862Z" transform="translate(744.342)" fill="#000"/>
    <path id="Path_1229" data-name="Path 1229" d="M1684.108,1030.74c-.306-1.017-.536-1.809-.78-2.6-2.021-6.657,2.134-11.68,6.5-13.689a19.484,19.484,0,0,1,10.246-1.429,7.041,7.041,0,0,1,2.688.967,3.972,3.972,0,0,1,1.866,4.942,3.853,3.853,0,0,1-4.443,2.839,28.345,28.345,0,0,1-4.118-1.248c-2.421-.73-3.768.362-3.394,2.852a13.23,13.23,0,0,0,.886,2.727c1.086,2.764,2.2,5.522,3.432,8.6-9.3,2.471-18.144,5.29-21.963,15.517l10.632,11.213c-2.115,1.491-4.111,2.751-5.933,4.224a29.855,29.855,0,0,0-5.242,4.886c-3.188,4.237-1.31,8.729,3.888,9.677a35.294,35.294,0,0,0,4.673.35,8.853,8.853,0,0,1,6.234,2.458c2.339,2.5,5.159,2.858,8.248,2.521,4.542-.487,9.078-.993,13.615-1.567,6.433-.8,12.865-1.678,19.3-2.527,3.725-.487,7.238-.325,9.7,3.226a12.3,12.3,0,0,1-7.213,2.951c-13.04,1.3-26.055,2.832-39.115,3.843a691.835,691.835,0,0,0-105.358,16.148c-14.956,3.519-29.818,7.449-44.755,11.087-5.441,1.323-10.295,3.912-15.211,6.439-3.956,2.028-6.327,1.679-10.014-1.478,1.067-.437,2-.855,2.95-1.2a538.1,538.1,0,0,1,76.377-20.878c23.908-4.748,47.918-9.01,72.089-13.521-.374-.468-.817-1.08-1.323-1.634-.567-.618-1.21-1.161-1.791-1.773-5.921-6.227-6.389-12.222-1.042-19,1.81-2.29,2.639-4.349,1.816-7.157a19.566,19.566,0,0,1-.368-3.944,17.854,17.854,0,0,1,6.365-15.735c2.1-1.791,4.355-3.4,6.545-5.079C1681.419,1032.749,1682.754,1031.757,1684.108,1030.74Z" transform="translate(0 361.122)" fill="#000"/>
    <path id="Path_1230" data-name="Path 1230" d="M1674.716,1118.564c-4.018-2.121-4.554-5.266-4.049-8.829a53.478,53.478,0,0,1,6.826-19.23,117.635,117.635,0,0,1,17.626-23.192,153.383,153.383,0,0,1,36.169-27.216c20.6-11.474,42.159-20.908,63.929-29.868a75.282,75.282,0,0,1,12.753-3.794c13.939-2.989,27.079-8.248,40.138-13.751,6.751-2.845,13.427-5.859,20.172-8.717,8.423-3.575,13.377-10.382,16.9-18.362,1.934-4.386.418-7.313-4.3-9.5-2.152-.992-4.592-1.572-5.4-4.367,1.9-2.434,4.323-3.045,7.319-2.39a12.326,12.326,0,0,1,9.976,12.024,20.942,20.942,0,0,1-4.91,14.357,67.773,67.773,0,0,1-9.6,9.178c-7.824,6.128-16.884,10.046-26.037,13.752a345.189,345.189,0,0,1-40.02,13.04c-5.9,1.591-11.743,3.513-17.458,5.678s-11.269,4.76-16.846,7.269-11,5.416-16.684,7.662c-25.937,10.257-47.98,26.136-67.453,45.885a56.719,56.719,0,0,0-13.927,22.449c-1.635,5.01-2.87,10.158-4.3,15.237C1675.328,1116.674,1675.066,1117.454,1674.716,1118.564Z" transform="translate(796.553 26.942)" fill="#000"/>
    <path id="Path_1231" data-name="Path 1231" d="M1691.065,1107.725c-3.407-1.3-3.669-1.772-2.633-5.229,4.573-15.224,13.732-26.786,27.722-34.448,6.794-3.719,14.17-5.859,21.582-7.93a160.979,160.979,0,0,1,46.309-5.953,173.509,173.509,0,0,0,33.044-2.371c13.6-2.377,26.418-7.113,38.84-12.965,6.189-2.92,12.317-5.984,18.325-9.26,19.654-10.707,31.933-27.285,37.96-48.6a24.137,24.137,0,0,0,.368-9.259,30.6,30.6,0,0,0-5.166-12.947c-1.741-2.658-4.119-4.43-7.363-4.58-2.315-.112-4.062-1.229-5.846-2.49,5.022-4.6,9.671-4.729,14.762-.48a30.164,30.164,0,0,1,9.085,33c-7.631,22.137-21.308,39.514-41.916,50.8a261.383,261.383,0,0,1-46.172,20.091,109.94,109.94,0,0,1-37.3,5.135,191.219,191.219,0,0,0-57.477,6.339c-20.185,5.559-34.635,17.657-42.254,37.436C1692.431,1105.31,1691.675,1106.514,1691.065,1107.725Z" transform="translate(887.653 21.802)" fill="#000"/>
    <path id="Path_1232" data-name="Path 1232" d="M1880.178,967.323a12.307,12.307,0,0,1,7.887,1.66c3.282,1.884,5.154,4.742,4.8,8.61-.58,6.5-1.922,12.766-5.484,18.449-12.791,20.378-30.486,34.978-52.33,44.774-13.646,6.115-28.008,9.971-42.446,13.633-17.651,4.48-35.608,6.726-53.727,8.061-14.494,1.067-28.977,2.34-43.308,4.917-11.767,2.115-17.021,4.742-25.213,13.215-1.4-2.052-1.722-3.912-.493-6.1a14.652,14.652,0,0,1,3.4-4.1,35.412,35.412,0,0,1,18.512-8.2q20.215-2.414,40.424-4.9c22.413-2.72,44.874-5.116,66.806-10.813a222.411,222.411,0,0,0,43.208-15.779,98.876,98.876,0,0,0,38.683-34.229c3.45-5.135,4.836-10.957,5.872-16.872a6.688,6.688,0,0,0-1.116-4.055C1884.034,972.838,1882.136,970.243,1880.178,967.323Z" transform="translate(789.186 121.879)" fill="#000"/>
    <path id="Path_1233" data-name="Path 1233" d="M1652.413,997.853c-1.334.431-2,.7-2.689.855-4.224.911-5.31.249-6.271-4.069-.542-2.433-1.341-5.023-3.869-5.546-2.57-.537-4.385,1.578-5.727,3.656-2.215,3.426-4.312,6.932-6.5,10.382-.686,1.092-1.51,2.1-2.415,3.357l-6.763-6.039c-1.909,2.564-1.847,5.229-2,7.8-.156,2.515-.05,5.048-.181,7.562a12.7,12.7,0,0,1-4.43,8.935,38.548,38.548,0,0,0-2.047-3.344,35.208,35.208,0,0,0-4.311-5.216c-1.828-1.635-2.87-1.3-4.573.555a6.027,6.027,0,0,0-1.1,6.72c.824,2.115,1.953,4.112,2.97,6.152,1.5,3.007,2.134,6.065.755,9.347-2.14,0-4.156-.012-6.171,0a46.478,46.478,0,0,0-5.753.131c-4.037.537-6.29,3.263-7.556,6.87a3.216,3.216,0,0,0,.449,2.309c3.014,5.16,7.369,8.124,13.54,7.949a16.743,16.743,0,0,1,2.158-.025c1.96.219,2.727,1.086,2.971,2.983.231,1.8-.668,2.577-2.259,3.095a15.388,15.388,0,0,1-12.211-1.366,78.982,78.982,0,0,1-10.276-6.62c-3.126-2.3-3.949-5.478-2.82-9.3a17.41,17.41,0,0,1,11.313-12.136c1.335-.486,2.7-.9,4.392-1.466-.505-2.14-.917-4.1-1.434-6.033-2.359-8.8-.649-12.51,7.711-16.285,2.951-1.335,5.958-2.565,9-3.682a3.781,3.781,0,0,0,2.839-3.307c.705-6,4.443-9.059,10.059-10.2a22.247,22.247,0,0,0,11.437-6.4c4.094-4.068,9.377-4.6,14.749-3.893,2.726.356,4.431,2.546,5.035,5.122C1651.29,990.285,1651.746,993.972,1652.413,997.853Z" transform="translate(295.427 195.665)" fill="#000"/>
    <path id="Path_1234" data-name="Path 1234" d="M1701.9,1026.878c3.151-2.521,6.589-3.169,9.989-3.357,16.341-.917,32.651-1.142,48.967.98,16.2,2.1,32.477,3.7,48.73,5.428,14.1,1.5,28.233,2.74,42.322,4.343,11.505,1.311,22.575,4.6,33.594,8.037,3.094.967,6.2,1.891,9.3,2.851,4.954,1.541,5.378,2.327,4,8.061-1.223-.312-2.434-.623-3.657-.929-15.143-3.756-30.261-7.619-45.454-11.2-4.3-1.01-8.8-1.21-13.209-1.74-9.184-1.1-18.419-1.866-27.541-3.339a367.431,367.431,0,0,0-37.985-3.981c-16.8-.948-33.587-2.239-50.377-3.413-5.278-.368-10.544-.83-15.817-1.273C1703.93,1027.278,1703.112,1027.084,1701.9,1026.878Z" transform="translate(961.004 413.333)" fill="#000"/>
    <path id="Path_1235" data-name="Path 1235" d="M1613.869,1016.615c.848-3.638,1.435-6.832,2.352-9.92a44.336,44.336,0,0,1,3.082-8.043c2.171-4.131,5.391-5.5,9.933-4.461,2.44.555,4.8,1.454,7.761,2.371a50.971,50.971,0,0,0,4.1-4.492c5.622-7.693,13.552-11.237,22.624-12.7,3.082-.5,6.208-.68,9.308-1.03,3.145-.356,5.317,1.017,6.757,3.737,6.377,12.017,5.579,23.791-1.409,35.24-.811,1.335-2.408,2.19-3.594,3.22-3.706-3.17-4.156-5.615-1.435-9.584a19.622,19.622,0,0,0,3.432-14,30.29,30.29,0,0,0-1.323-5.953c-1.3-3.825-3.618-5.453-7.662-5.16-8.135.58-15.137,3.557-20.247,10.226-2.334,3.051-4.648,6.134-7.15,9.041-3,3.482-4.162,3.395-7.069-.05-1.223-1.448-2.478-2.87-3.669-4.243-5.485,2.995-6.813,5.89-5.791,11.63a42.011,42.011,0,0,1,.911,8.2c-.1,4.686-2.97,6.658-7.512,5.491a15.823,15.823,0,0,1-3.331-1.335,12.463,12.463,0,0,0-8.866-1.242c-1.779,5.846,2.265,9.89,4.623,14.394-2.24,2.2-3.507,2.489-5.478.586-3.388-3.263-6.4-6.944-7.981-11.424-2.34-6.62,2.19-12.26,9.191-11.661,1.429.125,2.826.568,4.249.774C1610.954,1016.4,1612.246,1016.465,1613.869,1016.615Z" transform="translate(404.153 179.798)" fill="#000"/>
    <path id="Path_1236" data-name="Path 1236" d="M1573.767,1135.455c-2.794-3.138-4.062-6.995-4.779-11.006-1.728-9.69-3.419-19.392-4.917-29.12-2.171-14.12-4.262-28.258-6.184-42.415-.76-5.584-.985-11.243-1.44-16.871a114.454,114.454,0,0,0-6.995-30.081c-.412-1.123-.83-2.246-1.3-3.525a8.344,8.344,0,0,1,1.179-1.216c3.75-2.552,5.391-2.022,6.869,2.333a227.275,227.275,0,0,1,9.928,40.887q5.269,36.547,10.594,73.082c.461,3.207.748,6.445,1.2,9.652C1578.672,1132.485,1578.7,1132.479,1573.767,1135.455Z" transform="translate(155.463 291.941)" fill="#000"/>
    <path id="Path_1237" data-name="Path 1237" d="M1727.691,1053.077l-7.456-15.23c-8.274,8.966-16.222,17.582-24.552,26.611-1.472-1.953-2.751-3.625-3.993-5.328-1.722-2.377-3.844-3.9-7.269-3.482-1.148,5.073-2.3,10.158-3.638,16.042a20.436,20.436,0,0,1-1.485-2.634,22.336,22.336,0,0,1-.911-11.006c1.391-8.374,6.845-9.559,13.509-6.652a36.7,36.7,0,0,1,4.8,3.008c2.015-1.978,3.886-3.837,5.777-5.666,3.108-3.007,6.14-6.1,9.372-8.972a14.516,14.516,0,0,1,9.4-4.025c4.642-.131,6.183.737,8.211,5.111,1.142-.674,2.283-1.3,3.388-2,6.994-4.442,14.051-8.8,20.946-13.4,4.554-3.032,8.953-2.87,13.533-.281a8.062,8.062,0,0,1,4.467,8.012,20.472,20.472,0,0,1-1.253,5.577c-1.648,4.511-3.488,8.948-5.235,13.421-.43,1.1-.786,2.234-1.285,3.657l9.833,2.352-3.794,11.356c1.335,1.091,2.677,2.246,4.081,3.319,2.577,1.978,4.342,4.374,3.113,7.731-1.31,3.575-3.175,6.838-7.543,7.344-1.378.156-2.789.025-4.967.025l7.738-9.378-10.358-6.239,3.339-8.754-15.624,1.672c.711-1.241,1.167-2.14,1.709-2.977,4.007-6.132,8.074-12.229,12.023-18.4a19.443,19.443,0,0,0,2.284-4.86c1.635-5.554-2.128-10.277-7.93-9.846a19.012,19.012,0,0,0-5.859,1.572c-4.867,2.052-8.635,5.6-12.148,9.428q-5.242,5.7-10.508,11.387C1729.008,1052,1728.521,1052.354,1727.691,1053.077Z" transform="translate(836.202 415.18)" fill="#000"/>
    <path id="Path_1238" data-name="Path 1238" d="M1704.016,1054.359c-1.679-1.778-2.933-3.007-4.081-4.33-2.72-3.12-5.771-3.189-8.573-.087a10.87,10.87,0,0,0-2.9,7.55c.006,1.56.025,3.126.088,4.679s.181,3.089.287,4.842c-2.028-.231-3.164-1.454-4.236-2.683-5.36-6.146-5-19.136,6.47-22.343a22.866,22.866,0,0,1,5.3-.892c2.172-.075,3.288-.986,4.355-2.926a130.132,130.132,0,0,1,8.841-14.375c5.335-7.25,12.335-12.7,20.247-17.009,6.458-3.507,12.622-3.432,18.468,1.223a81.757,81.757,0,0,1,7.076,6.1,16.363,16.363,0,0,1,4.929,10.557,16.742,16.742,0,0,1-1.03,5.9c-.486,1.541-2.04,1.691-2.963.325-1.136-1.685-2.028-3.532-3-5.329-1.473-2.751-2.72-5.634-4.405-8.242-3.376-5.223-7.375-6.358-12.978-3.75a60.68,60.68,0,0,0-25.4,21.2c-1.554,2.315-2.34,5.2-3.214,7.918C1706.149,1046.3,1705.238,1049.985,1704.016,1054.359Z" transform="translate(852.902 316.202)" fill="#000"/>
    <path id="Path_1239" data-name="Path 1239" d="M1579.74,1020.848c1.847-2.034,3.662-4.093,5.553-6.089a49.709,49.709,0,0,1,4.355-4.293c2.9-2.377,4.817-2.284,7.65.243a25.8,25.8,0,0,1,2.932,3.169c.811,1.023,1.454,2.184,2.408,3.663,1.21-.873,2.315-1.722,3.469-2.489a37.717,37.717,0,0,1,5.159-3.257c3.058-1.366,5.422-.43,6.851,2.577a22.55,22.55,0,0,1,1.379,4.449,3.834,3.834,0,0,0,2.421,3.169c5.509,2.359,6.95,5.379,5.684,11.163-.406,1.84-1.023,3.637-1.523,5.372-5.477-.218-5.7-4.336-6.47-7.868l-6.532-1.847-1.685-9.871c-4.362,3.887-8.187,7.843-14.238,8.573l-3.339-11.349a9.066,9.066,0,0,0-4.648,3.918c-2.139,3.039-4.055,6.233-6.064,9.372a28.591,28.591,0,0,1-6.327,7.587c-2.284-3.943-3.388-8.28-6.907-11.144-3.737,1.522-6.115,3.856-5.959,8.111a3.782,3.782,0,0,1-2.527,4.15c-3.313-3.644-3.644-7.843-2.233-12.317a16.884,16.884,0,0,1,6.108-8.293,7.435,7.435,0,0,1,9.059-.586C1576.14,1018.072,1577.8,1019.438,1579.74,1020.848Z" transform="translate(208.971 339.418)" fill="#000"/>
    <path id="Path_1240" data-name="Path 1240" d="M1752.084,1076.022c-.83-3.525.281-5.89,2.621-8.042a22.8,22.8,0,0,0,4.529-5.5c1.722-3.07.83-5.772-2.052-7.844a6.531,6.531,0,0,0-1.229-.742c-7.911-3.488-15.773-7.088-23.765-10.357a44.053,44.053,0,0,0-9.072-2.228,5.744,5.744,0,0,1-4.368-2.639l3-7.556-12.971-4.842,2.727-6.445c-3.151-.468-5.135-2.5-7.406-4.611,1.735-1.71,3.239-3.2,5.5-3.569,4.793-.774,8.367,1,9.222,5.809.762,4.236,3.182,6.027,6.638,7.444,1.76.717,3.407,1.7,5.248,2.633-.231,1.6-.424,3.014-.649,4.424-.474,2.933-.225,3.494,2.614,4.611,2.347.917,4.78,1.616,7.138,2.508,5.616,2.109,11.294,4.087,16.771,6.508a28.369,28.369,0,0,1,7.431,4.966,9.428,9.428,0,0,1,2.714,10.214c-1.646,5.585-5.147,10-9.065,14.108C1756.189,1076.4,1754.18,1076.184,1752.084,1076.022Z" transform="translate(972.499 353.688)" fill="#000"/>
    <path id="Path_1241" data-name="Path 1241" d="M1555.42,995.256c-5.865-.973-11.818-7.05-12.51-12.772-.549-4.555,3.476-8.186,8.317-7.4a46.088,46.088,0,0,1,4.866,1.279,12.328,12.328,0,0,0,8.137-.131c2.72-1.111,4.629-.131,6.345,1.847a5.88,5.88,0,0,1,.917,1.11c1.748,3.419,4.455,4.125,8.068,3.363a71.137,71.137,0,0,1,8.941-.973c4.948-.393,7.886,1.884,9.01,6.77,1.478,6.42,1.173,12.872.418,19.33-.437,3.712-2.664,6.308-5.379,8.573-3.494-1.759-3.986-3.138-3.3-6.869.929-5.06,1.753-10.151,2.283-15.268.492-4.773-1.622-6.651-6.458-5.959a96.812,96.812,0,0,0-9.858,2.009c-5.553,1.411-6.052,1.3-9.31-3.269-.274-.387-.573-.749-.954-1.235-2.158.5-4.287,1.734-6.545.493a26.926,26.926,0,0,0-6.5-2.782,39.386,39.386,0,0,0,1.747,3.625c.611,1.023,1.522,1.859,2.177,2.858C1557.273,992.055,1557.186,992.71,1555.42,995.256Z" transform="translate(127.752 162.485)" fill="#000"/>
    <path id="Path_1242" data-name="Path 1242" d="M1582.539,989.81c3.051,0,6.052-.118,9.041.025,6.077.306,8.255,3.089,7.625,9.172A28.26,28.26,0,0,1,1594,1013c-1.411,1.941-2.72,3.956-4.106,5.915-2.677,3.769-4.46,3.813-7.655.05,1.9-2.265,3.856-4.523,5.722-6.857,2.639-3.294,4.174-6.969,3.706-11.312-.35-3.226-.586-3.556-3.906-3.874a16.616,16.616,0,0,0-3.569.068c-6.982.879-8.043.362-11.063-5.616-3.943-.561-6.008-.012-7.281,3.469-1.5,4.1-4.211,4.985-7.986,4.854a40.982,40.982,0,0,0-6.116.275,17.66,17.66,0,0,0-3.369,1.13l3.22,9.908c-2.951,1.017-5.129.312-6.676-1.835a20.269,20.269,0,0,1-2.683-5.042,6.106,6.106,0,0,1,2.733-7.787,160.771,160.771,0,0,1,24.645-12.591c4.349-1.691,6.882-1.011,9.971,2.427C1580.618,987.333,1581.547,988.581,1582.539,989.81Z" transform="translate(122.09 203.808)" fill="#000"/>
    <path id="Path_1243" data-name="Path 1243" d="M1668.567,1044.3l9.646-6.495a45.938,45.938,0,0,1-4.044-4.455,34.42,34.42,0,0,1-4.342-7.356c-2.072-5.634.411-9.945,6.183-11.605a14.306,14.306,0,0,1,11.268,1.616l-.523,6.795-7.731-1.335c-2.453,4.018-1.16,8.4,3.138,9.84a29.541,29.541,0,0,0,6.365,1.035c3.063.306,5.553,1.416,7.081,4.417-1.334,2.1-3.506,3.107-5.715,3.987-2.115.837-4.349,1.4-6.446,2.284-1.822.767-3.531,1.822-5.253,2.726,1.085,3.364,3.27,4.305,6,4.374,2.021.049,4.043.012,6.614.012-.442,1.647-.655,2.789-1.054,3.862-1.024,2.745-2.108,3.438-4.941,2.751a61.973,61.973,0,0,1-8.243-2.533C1672.267,1052.515,1669.546,1049.333,1668.567,1044.3Z" transform="translate(786.38 366.363)" fill="#000"/>
    <path id="Path_1244" data-name="Path 1244" d="M1658.423,1029.337c1.666-2.371,2.926-3.993,5.266-4.324a84.38,84.38,0,0,1,9.621-1.26c23.535-.568,47.076-.987,70.612-1.5a23.674,23.674,0,0,1,9.059,1.772c.6,1.678.306,2.72-1.46,3.438a16.912,16.912,0,0,1-7.312,1.571c-5.634-.274-11.275-.53-16.915-.723-4.917-.175-9.846-.48-14.763-.337-15.6.468-31.2,1.135-46.808,1.666C1663.508,1029.711,1661.286,1029.462,1658.423,1029.337Z" transform="translate(733.232 410.138)" fill="#000"/>
    <path id="Path_1245" data-name="Path 1245" d="M1569.989,1005.966v-7.593l-11.986.755c1.073-1.953,1.847-3.369,2.627-4.779a30.323,30.323,0,0,0,2.7-5.042c.443-1.36.087-2.982.087-4.91l-7.375.449c1.342-4.8,4.1-6.876,7.825-5.977,3.37.817,4.9,2.757,4.623,6.239-.187,2.259-.667,4.492-1.035,6.863a65.037,65.037,0,0,1,6.47,1.84c2.527,1,2.5,3.551,2.864,6,3.55.649,7.107,1.111,10.557,1.99a26.522,26.522,0,0,1,7.287,2.864c3.675,2.259,4.723,6.109,3.032,10.052-2.233,5.229-6.551,8.51-11.305,11.181-2.165,1.21-3.65-.007-5.1-3.825,1.947-1.03,3.937-2.09,5.928-3.151a9.891,9.891,0,0,0,4.617-4.368,2.984,2.984,0,0,0-.623-3.875,11.721,11.721,0,0,0-7.051-3.238C1579.6,1006.952,1575.062,1006.5,1569.989,1005.966Z" transform="translate(196.828 181.805)" fill="#000"/>
    <path id="Path_1246" data-name="Path 1246" d="M1672.608,1002.316c3.263-6.938,8.348-11.737,15.593-13.5,6.85-1.672,13.926-2.427,20.883-3.694a106.5,106.5,0,0,0,11.562-2.527,19.892,19.892,0,0,0,9.216-6.09,5.434,5.434,0,0,1,6.27-1.778c-1.017,3.263-2.315,6.264-4.873,8.623a32.748,32.748,0,0,1-18.768,8.3c-6.065.742-12.129,1.616-18.132,2.777a34.422,34.422,0,0,0-15.193,7.094C1677.137,1003.158,1675.116,1003.289,1672.608,1002.316Z" transform="translate(807.553 159.463)" fill="#000"/>
    <path id="Path_1247" data-name="Path 1247" d="M1641.571,996.5c1.534-.231,3.057-.437,4.566-.7,4.412-.761,6.458.15,7.956,3.575,1.616,3.693.649,6.62-3.338,9.39l-3.131-7.575c-2.416.374-4.649.736-6.9,1.073-2.115.318-4.243.611-6.851.986l2.9-13.228c-6.489.112-7.1,5.691-9.521,9.24-3.756-.911-4.561-2.277-2.889-5.166,2.171-3.75,4.53-7.4,8.442-9.646,5.378-3.089,8.062-1.485,8.086,4.735C1640.9,991.532,1640.323,993.947,1641.571,996.5Z" transform="translate(550.467 204.12)" fill="#000"/>
    <path id="Path_1248" data-name="Path 1248" d="M1721.15,1036.517c3.082.868,3.2,1.011,3.313,3.644.063,1.466-.424,3.107,1.6,4.505.955-1.816,1.866-3.426,2.671-5.1,1.229-2.559,2.983-4.287,6.351-4.218,1.073,7.843,2.134,15.63,3.208,23.492-3.194-.237-3.762-.661-4.343-3.045-.386-1.591-.766-3.183-1.173-4.848a7.207,7.207,0,0,0-5.952,2.645c-2.72,3.151-4.3,3.264-8.366.768Z" transform="translate(1047.795 478.797)" fill="#000"/>
    <path id="Path_1249" data-name="Path 1249" d="M1579.938,974.671l-2.508-4.817a8.4,8.4,0,0,0-5.241,3.55c-1.2,1.635-2.146,3.469-3.351,5.11-1.173,1.6-2.533,3.057-3.706,4.449-2.459-.917-3.07-4.249-6.315-3.1l.656,10.077a10.855,10.855,0,0,1-2.334-1.3,11.9,11.9,0,0,1-3.1-11.948c.83-3.095,2.4-4.131,5.559-3.887,1.66.131,3.3.53,5.217.848.773-1.03,1.609-2.165,2.483-3.276,1.036-1.323,2.034-2.689,3.176-3.912,3.719-3.968,6.439-4.105,10.526-.574,1,.861,1.884,1.847,2.807,2.77C1583.475,971.563,1583.226,971.963,1579.938,974.671Z" transform="translate(183.784 101.622)" fill="#000"/>
    <path id="Path_1250" data-name="Path 1250" d="M1729.658,1036.71c2.064,7.593-.231,14.226-4.842,21.027-1.785-4.062-4.58-6.246-8.8-6.314a23.816,23.816,0,0,1,4.017-17.065l5,14.725,3.868-12.467Z" transform="translate(1033.902 473.607)" fill="#000"/>
    <path id="Path_1251" data-name="Path 1251" d="M1724.859,1035.459c3.625,5.3,2.214,15.629-2.627,21.133l-1.547-6.626c-2.933-.58-3.158-.468-4.274,1.772-.612,1.217-1.3,2.4-2.084,3.844-2.8-4.892-.9-16.341,3.326-21.757,1.372,3.17.243,6.483.867,9.59,3.275.487,4.261-.106,4.979-2.889C1723.9,1038.965,1724.327,1037.418,1724.859,1035.459Z" transform="translate(1019.21 470.809)" fill="#000"/>
    <path id="Path_1252" data-name="Path 1252" d="M1548.25,1049.087c-8.467-1.117-15.317-3.637-14.475-12.984l4.649,3.631c1.391,1.08,2.782,2.165,4.535,3.526,1.173-4.986,1.2-10.089,6.758-13.04Z" transform="translate(79.784 451.921)" fill="#000"/>
    <path id="Path_1253" data-name="Path 1253" d="M1719.1,1033.339a15.323,15.323,0,0,1-.355,13.577,10.655,10.655,0,0,1-2.671,3.339c-2.583,2.139-5.721,1.521-7.244-1.479-2.246-4.417-2.009-8.736,1.491-13.484.593,3.233,1.024,5.834,1.554,8.417.244,1.2-.219,3.014,1.535,3.225,2.159.263,1.779-1.884,2.208-3.075C1716.867,1040.383,1717.952,1036.852,1719.1,1033.339Z" transform="translate(989.697 468.268)" fill="#000"/>
    <path id="Path_1254" data-name="Path 1254" d="M1721.792,1045.831l-1.916,2.8-9.871-3.755c2.534-8.773,6.689-12.461,12.448-10.669l-8.229,7.4Z" transform="translate(1003.495 470.476)" fill="#000"/>
    <path id="Path_1255" data-name="Path 1255" d="M1581.321,1052.465l-4.848-2.177-3.419,2.944-2.77-5.79c1.759-1.092,3.35-2.1,4.954-3.076,1.634-.992,3.282-1.953,5.073-3.02C1582.456,1044.972,1582.151,1048.553,1581.321,1052.465Z" transform="translate(271.431 510.225)" fill="#000"/>
    <path id="Path_1256" data-name="Path 1256" d="M1731.332,1027.12c1.5,6.371-1.148,10.85-7.8,13.433a19.988,19.988,0,0,1-.874-1.9c-1.191-3.538-.942-4.324,2.452-5.859a10.06,10.06,0,0,0,4.8-4.068A11.5,11.5,0,0,1,1731.332,1027.12Z" transform="translate(1066.389 435.684)" fill="#000"/>
    <path id="Path_1257" data-name="Path 1257" d="M1706.162,1041.508l-5.6,10.226c-3.182-2.059-3.862-5.271-1.984-8.6C1700.253,1040.155,1702.28,1039.643,1706.162,1041.508Z" transform="translate(938.207 505.347)" fill="#000"/>
    <path id="Path_1258" data-name="Path 1258" d="M1656.739,1046.978c-4.73-4.162-5.422-7.375-2.758-11.9C1657.855,1037.15,1658.76,1040.9,1656.739,1046.978Z" transform="translate(701.859 477.384)" fill="#000"/>
    <path id="Path_1259" data-name="Path 1259" d="M1658.459,1044.889c-3.662-.667-4.817-2.115-4.5-5.347.306-3.17,1.748-4.293,6.122-4.429Z" transform="translate(709.586 477.558)" fill="#000"/>
    <path id="Path_1260" data-name="Path 1260" d="M1621.013,1041.711l-.893,10.944c-2.764-1-4.573-3.051-4.492-5.278.113-3.138,2.384-4.6,4.593-6.064Z" transform="translate(509 510.041)" fill="#000"/>
    <path id="Path_1261" data-name="Path 1261" d="M1700.5,1052.17c-.593-1.859-.968-2.975-1.311-4.1a3.411,3.411,0,0,1,1.691-4.311c1.947-1.055,4.05-1.829,6.084-2.72l.573.73Z" transform="translate(945.754 508.617)" fill="#000"/>
    <path id="Path_1262" data-name="Path 1262" d="M1692.467,1039.148l-1.778,9.391a26.527,26.527,0,0,1-2.945-1.959c-1.591-1.434-1.748-2.77-.3-4.311a48.329,48.329,0,0,1,4.243-3.619Z" transform="translate(880.068 496.095)" fill="#000"/>
    <path id="Path_1263" data-name="Path 1263" d="M1587.395,1037.6c1.074,1.553,2.234,2.495,2.377,3.568.343,2.6.637,5.316-.967,7.869a14.618,14.618,0,0,1-3.426-7.981C1585.273,1040.191,1586.434,1039.168,1587.395,1037.6Z" transform="translate(350.494 490.604)" fill="#000"/>
    <path id="Path_1264" data-name="Path 1264" d="M1549.72,1032.213c1.547,3.413.667,6.6-.468,9.958C1545.09,1038.365,1544.541,1035.02,1549.72,1032.213Z" transform="translate(144.115 462.368)" fill="#000"/>
    <path id="Path_1265" data-name="Path 1265" d="M1691.216,1048.865c-3.163-3.494-3.587-5.241-1.947-8.161.686-1.223.987-3.438,3.8-2.408Z" transform="translate(889.929 492.849)" fill="#000"/>
    <path id="Path_1266" data-name="Path 1266" d="M1550.618,1041.22v10.1c-2.365-1.13-3.868-2.789-4.2-4.992C1546.039,1043.772,1548.372,1042.855,1550.618,1041.22Z" transform="translate(146.186 509.56)" fill="#000"/>
    <path id="Path_1267" data-name="Path 1267" d="M1672.519,1029.069l-.849,7.438c-4.386-2.646-5.184-3.787-4.4-6.009C1667.821,1028.945,1669.031,1028.576,1672.519,1029.069Z" transform="translate(778.192 444.828)" fill="#000"/>
    <path id="Path_1268" data-name="Path 1268" d="M1545.467,1042.207c4.112,1.591,4.774,3.095,3.855,8.286C1545.673,1048.546,1544.662,1046.474,1545.467,1042.207Z" transform="translate(140.051 514.731)" fill="#000"/>
    <path id="Path_1269" data-name="Path 1269" d="M1708.495,1038.275v-9.122c2.115.355,3.7,1.4,3.912,3.151C1712.707,1034.788,1710.554,1036.16,1708.495,1038.275Z" transform="translate(995.579 446.335)" fill="#000"/>
    <path id="Path_1270" data-name="Path 1270" d="M1670.34,1037.164l-4.542-6.315,7.462-1.229Z" transform="translate(771.872 448.787)" fill="#000"/>
    <path id="Path_1271" data-name="Path 1271" d="M1591.1,1046.532c-5.228-3.42-3.9-6.265,1.061-9Z" transform="translate(362.992 490.221)" fill="#000"/>
    <path id="Path_1272" data-name="Path 1272" d="M1620.145,1041.767c2.858,3.182,2.808,4.2-.137,7.332C1616.557,1046.752,1616.551,1045.162,1620.145,1041.767Z" transform="translate(518.477 512.425)" fill="#000"/>
    <path id="Path_1273" data-name="Path 1273" d="M1610.364,1045.239c1.266,2.6,2.727,4.33,1.747,6.42-.736,1.591-2.439,1.648-4.548,1.4Z" transform="translate(466.756 530.617)" fill="#000"/>
    <path id="Path_1274" data-name="Path 1274" d="M1720.43,1044.424v10.907C1717.186,1051.761,1717.241,1048.517,1720.43,1044.424Z" transform="translate(1045.47 526.346)" fill="#000"/>
    <path id="Path_1275" data-name="Path 1275" d="M1549.576,1032.651l1.235,7.657C1546.613,1039.177,1546.213,1036.894,1549.576,1032.651Z" transform="translate(151.147 464.663)" fill="#000"/>
    <path id="Path_1276" data-name="Path 1276" d="M1606.158,1048.469l4.742-3.407.649.431-2.44,6.939Z" transform="translate(459.395 529.69)" fill="#000"/>
    <path id="Path_1277" data-name="Path 1277" d="M1719.163,1039.381l1.117-4.954,3.45,1.785-4.005,3.507Z" transform="translate(1051.472 473.968)" fill="#000"/>
    <path id="Path_1278" data-name="Path 1278" d="M1643.09,1066.049c-3.937,1.853-5.615,1.31-6.988-2.221a24.232,24.232,0,0,1-1.222-12.772c.786-4.854,1.622-9.708,2.677-14.513,1.8-8.161,1-16.229-.387-24.328-.5-2.932-.742-5.921-1.167-9.459,4.312,1.6,7.213,4.174,7.768,8.13,1.542,11.044,3.182,22.137-.455,33.175-1.847,5.61-3.107,11.387-1.584,17.346C1642.111,1062.9,1642.6,1064.37,1643.09,1066.049Z" transform="translate(608.053 308.032)" fill="#000"/>
    <path id="Path_1279" data-name="Path 1279" d="M1628.034,1055.864c-4.349-.848-6.377-3.064-5.852-7.15a116.747,116.747,0,0,1,2.489-12.273c.887-3.725,2.153-7.356,2.97-11.087a36.079,36.079,0,0,0-.505-16.035,44.838,44.838,0,0,1-.6-6.283c3.475-.437,4.361.043,5.329,3.076,1.8,5.665,2.758,11.505,1.728,17.376-.861,4.93-2.4,9.74-3.637,14.6-.837,3.238-2,6.433-2.421,9.721C1627.211,1050.335,1627.816,1052.98,1628.034,1055.864Z" transform="translate(542.927 308.764)" fill="#000"/>
    <path id="Path_1280" data-name="Path 1280" d="M1641.249,1007.469c2.814,1.2,3.905,2.87,4.193,5.441a22.246,22.246,0,0,1-.486,9.253c-1.335,4.318-1.386,8.361,1.54,12.3.874,1.173.612,3.426.375,5.11a1.481,1.481,0,0,1-2.546.78,66.421,66.421,0,0,1-7.006-7.644,6.6,6.6,0,0,1-.705-4.492c.879-5.8,1.972-11.581,3.1-17.346A16.645,16.645,0,0,1,1641.249,1007.469Z" transform="translate(618.449 332.725)" fill="#000"/>
    <path id="Path_1281" data-name="Path 1281" d="M1632.006,1043.5c-6.245-1.922-8.71-5.373-7.524-11.007,1.909-9.122,4.156-18.175,6.271-27.309,2.844,1.285,3.556,2.078,3.257,5.272-.487,5.235-1.3,10.445-2.09,15.642-.269,1.772-.948,3.475-1.316,5.229-.705,3.35-.755,6.657.9,9.821A9.7,9.7,0,0,1,1632.006,1043.5Z" transform="translate(553.886 320.753)" fill="#000"/>
  </g>
</svg>
