<svg xmlns="http://www.w3.org/2000/svg" width="549.792" height="797.562" viewBox="0 0 549.792 797.562">
  <path id="Path_456" data-name="Path 456" d="M1559.523,863.09a130.4,130.4,0,0,0-94.371,40.262c-1.933,2.021-3.813,4.079-5.614,6.215,61.37-100.709,26.051-247.877-73.155-307.609V748.867h0V909.6h-234.79l13.954,85.062h30.314l5.372-21.2,127.862-.441L1237.2,1075.621l11.971,21.471a84.433,84.433,0,0,1,110.6,80.322c0,2.336-.118,4.646-.308,6.934a82.618,82.618,0,0,1-151.669,33.969c-1.253-1.964-2.463-3.966-3.554-6.043h-63.745a142.125,142.125,0,0,0,137.057,104.732c.507,0,1.006-.037,1.513-.037,1.484.037,2.96.163,4.472.163a157.188,157.188,0,0,0,57.442-10.842l.133-.057c1.993-.766,3.945-1.59,5.87-2.431.51-.232,1.025-.469,1.535-.7a120.226,120.226,0,0,0,37.868-26.692v123.11c25.686-24.363,39.129-63.551,33.258-100.337q2.286,2.084,4.741,3.957c.98.737,1.927,1.513,2.94,2.2l.154.1a68.1,68.1,0,0,0,38.069,11.673l.219.02.249-.02.21-.01a68.552,68.552,0,0,0,68.111-68.542c0-.3-.04-.583-.04-.881a59.364,59.364,0,0,0-1.991-15.438,64.681,64.681,0,0,0-6.81-16.155c-.247-.432-.468-.853-.726-1.282-.955-1.562-1.965-3.134-3.085-4.684l-.123.039a41.528,41.528,0,0,1-.353,5.381c-3.308,25.074-29.558,37.7-52.321,31.526-.239-.065-.489-.112-.728-.19-.431-.125-.842-.277-1.273-.412-1.036-.345-2.057-.708-3.064-1.13l-.416-.162a45.167,45.167,0,0,1-7.446-4.06l-.182-.126c-.889-.611-1.734-1.263-2.579-1.925-.65-.516-1.282-1.062-1.9-1.617l-.154-.133a44.92,44.92,0,0,1-14.749-28.99c-.075-.736-.191-1.465-.227-2.221-.02-.3-.032-.586-.047-.882v-.125a15.483,15.483,0,0,1,.188-2.441,14.476,14.476,0,0,1,11.035-11.55,14.06,14.06,0,0,1,2.8-.335l.939.01,1.943.028.231.009a15.776,15.776,0,0,0,15.629-15.714v-26.365c0-.153.047-.3.047-.45s-.047-.3-.047-.451a15.585,15.585,0,0,0-15.362-15.15l-2.911-.058c-8.007,0-14.672-7.126-14.672-15.131v.374c0-.344-.018-.69-.018-1.033,0-2.051.078-4.081.2-6.1a99.771,99.771,0,0,1,98.927-93.653c.823.039,1.646.049,2.46.106,44.64,3.123,86.594,38,84.07,91.928a105.078,105.078,0,0,1-3.747,23.033l.019.02c1.653-1.484,3.448-3.248,5.285-5.009,4.308-3.629,8.39-7.415,12.288-11.3a188.5,188.5,0,0,0,48.5-81.421,163.5,163.5,0,0,0,6.36-43.232A130.807,130.807,0,0,0,1559.523,863.09Z" transform="translate(-1140.494 -601.958)" fill="#fefbf7"/>
</svg>
