<svg xmlns="http://www.w3.org/2000/svg" width="309.788" height="258.725" viewBox="0 0 309.788 258.725">
  <g id="Group_120" data-name="Group 120" transform="translate(1785.397 323.187)">
    <path id="Path_1151" data-name="Path 1151" d="M-1610.177-81.385c.213-1.843.421-3.329.549-4.822.388-4.473.727-8.95,1.121-13.422.239-2.715.525-5.425.823-8.132.257-2.33.563-4.654.842-6.982.271-2.269.477-4.551.823-6.807.4-2.62.9-5.224,1.4-7.824q.9-4.653,1.9-9.283a6.768,6.768,0,0,1,.594-1.377,5.894,5.894,0,0,1-.1-1.536c.457-2.1.906-4.2,1.5-6.251.694-2.386,1.574-4.707,2.3-7.082.55-1.787.978-3.616,1.487-5.417.439-1.559.916-3.106,1.374-4.658a1.834,1.834,0,0,1,.159-.549c1.776-2.386,1.646-5.4,2.351-8.137.522-2.029,1.274-3.988,1.871-6,.3-.994.452-2.033.707-3.04.624-2.465,1.284-4.918,1.9-7.384.278-1.119.378-2.3.747-3.379.624-1.828,1.4-3.6,2.105-5.39a8.71,8.71,0,0,0,.356-.94c.826-3.1,1.66-6.2,2.451-9.309.3-1.193.4-2.455.766-3.618.776-2.445,1.7-4.835,2.506-7.27.539-1.63,1-3.29,1.451-4.95.616-2.251,1.181-4.518,1.79-6.771.4-1.46.786-2.924,1.265-4.351.268-.8.784-1.5,1.066-2.289.432-1.21.746-2.467,1.134-3.7,1.005-3.186,1.994-6.38,3.062-9.541.257-.759.974-1.349,1.181-2.11.394-1.447.528-2.972.851-4.444.378-1.723.794-3.44,1.283-5.129a36.122,36.122,0,0,0,1.54-4.882,25.045,25.045,0,0,1,1.389-5.122c1.609-4.487,2.914-9.1,4.519-13.588.887-2.48,2.134-4.81,3.178-7.119,1.811-.182,1.878-.116,1.251,1.475-.536,1.367-1.254,2.659-1.71,4.054-.92,2.813-1.736,5.665-2.562,8.512-1.175,4.053-2.345,8.106-3.475,12.174-1.141,4.108-2.158,8.256-3.359,12.342-1.686,5.735-3.458,11.442-5.256,17.14-1.984,6.286-4.052,12.544-6.062,18.821-1.3,4.046-2.549,8.109-3.837,12.158-1.4,4.405-2.846,8.8-4.228,13.21-1.343,4.285-2.679,8.575-3.931,12.894-1.025,3.539-1.848,7.147-2.9,10.677-.951,3.2-2.118,6.316-3.144,9.486-1.177,3.632-2.4,7.253-3.422,10.936-.929,3.356-1.718,6.769-2.384,10.2-.873,4.5-1.585,9.038-2.332,13.567-.753,4.565-1.525,9.127-2.172,13.709-.4,2.84-.579,5.716-.866,8.575-.452,4.487-.934,8.971-1.355,13.462-.241,2.578-.383,5.168-.577,7.751a19.438,19.438,0,0,0-.238,3.2c.162,1.721.587,3.413.81,5.13.052.4-.264.855-.411,1.284-.38-.186-.946-.259-1.115-.575-1.652-3.1-3.248-6.239-4.841-9.378-2.163-4.263-4.275-8.557-6.468-12.8-2.137-4.132-4.306-8.247-6.55-12.311-.995-1.8-2.2-3.466-3.328-5.181-1.548-2.355-3.115-4.695-4.663-7.048-1.717-2.612-3.455-5.211-5.125-7.859-1.681-2.667-3.281-5.394-4.936-8.082-.429-.694-.95-1.322-1.4-2.006-.932-1.434-1.834-2.891-2.764-4.326-1.675-2.583-3.331-5.181-5.057-7.724-.919-1.356-2.069-2.538-2.922-3.936-.547-.9-.626-2.116-1.125-3.063-.638-1.209-1.525-2.261-2.236-3.428-1.089-1.789-2.117-3.621-3.176-5.43-1.622-2.771-3.175-5.593-4.894-8.292-1.872-2.938-3.913-5.749-5.854-8.635a18.457,18.457,0,0,1-1.343-2.347c-1.5-3.149-2.911-6.348-4.458-9.469-1.208-2.435-2.545-4.8-3.864-7.167-2.146-3.856-4.3-7.709-6.5-11.53-1.443-2.506-2.975-4.953-4.505-7.489l-.249.542c-1.455-2.12-3.019-4.251-4.427-6.494-1.857-2.957-3.485-6.086-5.407-8.991-1.937-2.928-4.173-5.625-6.158-8.52-.95-1.386-1.548-3.045-2.434-4.489-1.562-2.544-3.251-5-4.832-7.526-1.474-2.36-2.852-4.788-4.319-7.151-1.05-1.693-2.163-3.341-3.271-4.989-2.022-3-4.025-6.025-6.122-8.966a7.637,7.637,0,0,0-2.088-1.766c-1.159-.767-1.489-1.7-.755-2.556.55-.642,1.105-1.084,1.712-.021.109.192.454.229.787.381.069-.431.1-.757.175-1.074.277-1.209-.081-1.641-1.2-1.356-2.836.721-5.666,1.471-8.5,2.21-.132.035-.264.129-.391.118-3.1-.267-5.866,1.31-8.827,1.786-1.834.294-3.7.375-5.541.615a15.269,15.269,0,0,1-9.755-1.9c-2.018-1.112-3.91-2.464-5.927-3.572a13.469,13.469,0,0,1-3.088-2.967c-.712-.792-.13-2.652.832-3.165.491-.262,1.132-.638,1.28-1.116.377-1.216,1.3-1.424,2.188-1.881,1.1-.568,2.075-1.407,3.162-2.007a8.316,8.316,0,0,1,2.607-1.033c2.35-.375,4.719-.609,7.085-.851,1.365-.141,2.747-.11,4.105-.3,1.917-.266,3.815-.694,5.728-.991.669-.1,1.366.025,2.043-.042,1.509-.148,3.012-.351,4.516-.54.133-.016.26-.113.391-.115,2.267-.051,4.535-.043,6.8-.188.377-.023.8-.653,1.057-1.1.512-.869.9-1.824,1.413-2.693.085-.141.585-.1.846,0a10.682,10.682,0,0,0,4.994.731c3.125-.313,6.268-.4,9.4-.65a8.937,8.937,0,0,0,2.068-.59c1.736-.587,1.734-.6,2.822.928.987,0,2.006.035,3.024-.007,1.948-.079,3.894-.288,5.842-.29,3.365,0,6.6-1.022,9.916-1.354,3.1-.309,6.221-.493,9.33-.751.579-.047,1.152-.182,1.727-.283,2.25-.4,4.5-.789,6.748-1.2a23.277,23.277,0,0,0,2.672-.552c3.382-1.033,6.875-.918,10.328-1.235,2.692-.249,5.375-.614,8.067-.859,2.758-.25,5.521-.41,8.281-.619q4.672-.356,9.344-.734c1.678-.137,3.354-.293,5.031-.454,3.675-.353,7.347-.765,11.026-1.054,2.283-.179,4.58-.144,6.867-.276,1.331-.078,2.652-.323,3.98-.444,1.346-.122,2.7-.171,4.043-.281,1-.083,2-.251,3-.313,3.51-.217,7.027-.339,10.533-.617,4.451-.353,8.895-.823,13.523-1.26-.667-1.528-2.118-.041-2.788-1.1l.252-.83c.749-.317,1.329-.554,1.9-.811.238-.108.45-.339.691-.371,2.025-.266,4.068-.407,6.078-.76,4-.7,7.986-1.5,11.972-2.294a10.462,10.462,0,0,0,1.233-.541c.361-.125.941-.361,1.08-.2a1.82,1.82,0,0,1,.334,1.28c-.125.95-.411,1.875-.6,2.818-.161.8-.078,1.053.892.923,3.992-.536,8.01-.841,12.008-1.326,1.746-.212,3.46-.749,5.205-.968,3.376-.423,6.767-.7,10.147-1.085,3.5-.4,7-.855,10.5-1.309.817-.105,1.62-.368,2.438-.433a2.028,2.028,0,0,1,1.135.391,25.278,25.278,0,0,1,2.937,2.044,4.718,4.718,0,0,1,1.459,1.968c.522,1.64.8,3.367,1.185,5.057.63,2.79-.391,4.321-3,4.462-3.036.165-6.078.221-9.107.48q-6.048.516-12.078,1.288c-3.1.4-6.178,1.022-9.273,1.492-3.471.526-6.952.985-10.426,1.489-.622.09-1.232.26-1.778.377a18.951,18.951,0,0,0,.172,2.086.883.883,0,0,0,.6.567,1.575,1.575,0,0,1,1.19,2.507,6.172,6.172,0,0,0-1.226,2.7c-.243,1.366-1.82,1.444-2.887,1.818-2.577.9-5.186,1.742-7.826,2.4-3.276.812-6.618,1.32-9.9,2.131-3.564.881-7.2,1.474-10.576,3.17a7.317,7.317,0,0,1-4.318.872c-3.869-.733-7.434.708-11.13,1.225-3.637.51-7.293.869-10.946,1.232-4.323.429-8.651.785-12.976,1.192-2.856.268-5.706.662-8.567.835a102.45,102.45,0,0,0-13.954,1.482c-2.793.557-5.664.667-8.5.95q-6.021.6-12.045,1.15c-.8.072-1.605.011-2.406.045-4.044.174-8.086.391-12.13.53-2.354.08-4.716-.022-7.069.079-2.908.125-5.808.46-8.717.542-1.994.057-4-.319-5.991-.226-2.851.134-5.688.62-8.538.755a34.4,34.4,0,0,1-5.14-.361c-1.943-.2-3.876-.549-5.822-.7-1.093-.085-1.338.444-.663,1.406,1.678,2.388,3.433,4.713,5.149,7.071,3.11,4.278,6.348,8.453,8.732,13.292,1.83,3.716,3.692,7.42,5.69,11.032,2.065,3.732,4.33,7.333,6.474,11.016,1.427,2.451,2.778,4.955,4.193,7.416q5.488,9.552,11.005,19.081c2.453,4.228,4.991,8.4,7.408,12.653,1.541,2.711,2.873,5.561,4.4,8.285q4.307,7.7,8.737,15.324c1.835,3.165,3.756,6.272,5.64,9.406,1.942,3.232,3.81,6.52,5.858,9.673,1.294,1.992,2.871,3.769,4.3,5.665,1.963,2.611,3.992,5.172,5.826,7.885,1.866,2.759,3.568,5.651,5.272,8.531,1.881,3.176,3.669,6.417,5.526,9.61,1.683,2.9,3.481,5.717,5.088,8.66,1.475,2.7,2.658,5.589,4.157,8.273,1.919,3.431,3.983,6.771,6.066,10.091,1.438,2.288,3.1,4.413,4.5,6.73A37.143,37.143,0,0,1-1610.177-81.385Zm-101.034-205.782c.452,1.3.8,2.351,1.187,3.394a13.441,13.441,0,0,0,.963,2.355c.417.689.3,1.815,1.551,1.895,3.225.2,6.439.7,9.666.815,2.871.1,5.753-.167,8.63-.252,1.381-.04,2.766.012,4.145-.058,2.934-.151,5.865-.359,8.8-.537,1.3-.079,2.654.4,3.864-.5a.75.75,0,0,1,.394-.08c2.268-.11,4.54-.155,6.8-.335,2.937-.234,5.864-.6,8.8-.856.964-.085,1.952.08,2.907-.05,3.125-.428,6.239-.95,9.36-1.411,1.018-.151,2.045-.249,3.071-.33,2.68-.21,5.38-.252,8.038-.631,3.617-.516,7.207-1.265,10.8-1.945,2.1-.4,4.186-.914,6.293-1.277,3.159-.543,6.328-1.008,9.5-1.482,1.549-.231,3.1-.442,4.659-.6,1.675-.17,3.385-.1,5.029-.432,2.6-.522,5.133-1.549,7.746-1.865,1.858-.224,3.649-.892,5.626-.7,1.582.155,3.247-.671,4.863-1.058.117-.591.27-1.153.334-1.727.2-1.834.36-3.674.583-5.5.032-.261.349-.473.5-.73.182-.311.325-.647.485-.973a2.565,2.565,0,0,0-.943-.265c-2.457.328-4.9.754-7.362,1.047-1.462.174-2.947.1-4.412.25-2.7.275-5.391.648-8.09.95-1.805.2-3.618.32-5.423.53-2.895.335-5.786.719-8.678,1.075a31.446,31.446,0,0,0-4.895.627c-2.813.812-5.751.651-8.557,1.579a47,47,0,0,1-6.7,1.371c-2.268.4-4.548.719-6.825,1.058-2.009.3-4.015.653-6.032.839-2.246.207-4.505.3-6.76.342-1.081.021-2.167-.281-3.25-.266-2.886.042-5.774.124-8.657.29-3.169.183-6.339.407-9.5.751-1.8.2-3.572.754-5.374,1-2.8.377-5.623.589-8.431.935-4.517.558-9.023,1.223-13.545,1.74C-1703.6-287.783-1707.154-287.532-1711.212-287.167Zm71.584-8.8c-.022.145-.015-.183.037-.192a6.428,6.428,0,0,1,.978-.037,18.337,18.337,0,0,0,2.5-.043c1.328-.2,2.632-.59,3.962-.794,1.281-.2,2.6-.152,3.868-.4,4.206-.827,8.377-1.883,12.6-2.573,3.988-.652,8.024-.985,12.043-1.4,4.868-.5,9.743-.927,14.614-1.4,4.042-.392,8.082-.806,12.19-1.215a17.5,17.5,0,0,0-1.618-9.674c-2.023.183-4.074.377-6.128.554-2.443.21-4.887.408-7.332.609-.318.026-.642.011-.959.051-2.982.375-5.96.777-8.944,1.126-.91.106-1.839.021-2.752.111-2.431.239-4.855.585-7.288.775-2.321.181-4.651.2-6.977.322q-2.177.113-4.349.323c-1.567.15-3.127.419-4.7.511-2.488.146-4.99.073-7.47.3-3.348.308-6.676.862-10.021,1.22-4.284.458-8.583.756-12.862,1.25-4.327.5-8.636,1.174-12.959,1.729-2.668.343-5.357.517-8.017.919-4.646.7-9.245,1.682-13.968,1.819a60.91,60.91,0,0,0-7.684,1.145c-3.671.584-7.342,1.163-11.007,1.789-.324.056-.822.393-.865.669-.45,2.809-.731,5.625.39,8.3,1.685-.142,3.262-.223,4.828-.419,3.6-.452,7.183-1.09,10.792-1.407,3.216-.283,6.462-.155,9.685-.363,2.388-.155,4.761-.546,7.139-.853,1.342-.173,2.674-.449,4.018-.578,2.135-.2,4.277-.322,6.416-.478,2-.147,4-.4,6-.418,2.6-.017,5.2.254,7.8.219,2.234-.03,4.465-.314,6.7-.486l.255.369-.5.41,1.308.1-.541-1.166Zm-93.467,9.5c-.229-.488-.286-.851-.479-.985-1.059-.734-1.076-1.455-.083-2.257a.491.491,0,0,0,.145-.35c-.07-1.992-.134-3.985-.256-5.972-.016-.25-.369-.693-.539-.679-2.207.184-4.416.379-6.61.688-1.824.259-3.618.881-5.442.975a68.569,68.569,0,0,0-13.693,2.34c-3.919,1.015-7.969,1.435-11.948,2.194a1.837,1.837,0,0,0-1.093,1.042c-.2.5-.306,1.442-.044,1.685,1.354,1.27,2.826,2.4,4.279,3.538,2.574,2.022,6,1.379,8.663,3.162a2.18,2.18,0,0,0,1.441.275c2.938-.449,5.88-.895,8.8-1.48,2.947-.591,5.874-1.309,8.8-2.034C-1738.5-284.982-1735.86-285.725-1733.094-286.463Zm173.491-27.289a44.332,44.332,0,0,1,.913,5.27c.1,1.74.9,2.032,2.229,1.9,2.378-.226,4.773-.309,7.139-.639,3.393-.473,6.761-1.161,10.151-1.667,3.841-.574,7.694-1.062,11.544-1.56,1.162-.15,2.349-.115,3.494-.34,1.444-.285,2.845-.822,4.287-1.12,1.811-.375,3.651-.58,5.461-.949.375-.075.956-.533.968-.836a25.472,25.472,0,0,0-.221-3.087,2.8,2.8,0,0,0-1.642-2.526,7.265,7.265,0,0,0-3.69-.605c-2.882-.032-5.772.073-8.649.283-1.9.139-3.786.558-5.679.851-3.213.5-6.415,1.09-9.639,1.471q-7.346.867-14.718,1.463C-1559.037-315.729-1559.962-315.614-1559.6-313.752Zm-34.5,25.151.022.354,8.935-1.5-.094-.609Zm-130.69-7.808,5.992-1.558C-1720.953-298.32-1723.068-298.535-1724.8-296.409ZM-1511.98-310.8l-.08-.494-6.8,1.218A12.816,12.816,0,0,0-1511.98-310.8Zm-63.13,79.589.543.136q1.029-3.295,2.057-6.589l-.479-.173Q-1574.049-234.527-1575.11-231.214ZM-1727-294.324l.137.689,3.168-.973-.132-.521Z" transform="translate(1.38 0)" fill="#000"/>
    <path id="Path_1152" data-name="Path 1152" d="M-1664.264-247.006c-1.116-.679-1.906-.334-2.9.276-1.215.742-2.342-.323-3.34-.992a3.34,3.34,0,0,1-1.159-1.475c-.729-1.829-1.366-3.7-2-5.564a5.974,5.974,0,0,1,.742-4.775,33.224,33.224,0,0,1,3.455-5.521c1.156-1.431,2.851-2.412,4.1-3.779a26.97,26.97,0,0,1,14.462-7.944c.925-.208,2.007.267,3.015.438,2.669.454,5.344.88,8,1.385a7.593,7.593,0,0,1,4.562,3.059c1.661,2.115,3.437,4.146,5.039,6.306a17.219,17.219,0,0,1,1.9,3.513c1.143,2.681,2.32,5.359,3.233,8.12a27.366,27.366,0,0,1,1.465,11.779c-.31,2.781.066,5.641-.9,8.356-.4,1.13-.8,2.268-1.309,3.353a93.537,93.537,0,0,1-4.364,8.915c-1.675,2.763-3.876,5.2-5.777,7.834-2.226,3.078-4.739,6.026-6.451,9.376-1.405,2.751-3.216,5.509-3.333,8.795a47.314,47.314,0,0,0,.017,5.767,4.764,4.764,0,0,0,5.245,4.354c1.6-.255,3.54-.423,4.6-2.158.763-1.257.481-2.207-.858-2.755-.376-.153-.727-.368-1.109-.5-1-.348-1.181-.912-.745-1.889,1.39-3.1,3.74-2.793,5.389-1.651,1.349.933.979,2.452,1.124,3.754.462,4.143-1.937,6.553-5.235,8.378-.079.044-.192.1-.214.167-.589,1.866-2.023,1.015-3.1.849-2.338-.361-4.72-.484-6.929-1.591-2.833-1.421-6.119-6.188-4.356-10.046a33.786,33.786,0,0,0,2.7-6.944c.433-2.092,1.843-3.406,2.789-5.075,1.424-2.512,2.85-5.027,4.419-7.447,1.5-2.307,3.268-4.438,4.754-6.751a88.384,88.384,0,0,0,4.468-7.677c1.656-3.255,3.214-6.576,4.558-9.969.628-1.588.583-3.43.971-5.127.638-2.791.024-5.456-.528-8.166-.6-2.952-.97-5.951-1.533-8.912-.552-2.9-2.588-4.951-4.363-7.116a25.2,25.2,0,0,0-11-7.5,13.705,13.705,0,0,0-8.32-.07,19.769,19.769,0,0,0-11.732,7.979,22.069,22.069,0,0,0-3.329,7.315c-.349,1.383-.7,2.77-.949,4.173-.509,2.817,1.625,4.652,3.938,5.365C-1664.192-248.5-1663.576-248.267-1664.264-247.006Z" transform="translate(16.617 13.47)" fill="#000"/>
    <path id="Path_1153" data-name="Path 1153" d="M-1653.187-103.693a40.144,40.144,0,0,1,2.9-5.566c2.031-2.8,2.956-6.029,4.1-9.183a54.2,54.2,0,0,0,2.96-14.358c.253-3.272-1.064-6.032-1.819-9a17.853,17.853,0,0,0-3.592-6.677,9.914,9.914,0,0,0-3.648-2.474c-2.721-1.249-5.519-2.342-8.323-3.4a46.487,46.487,0,0,0-4.894-1.472c-2.813-.718-5.681-1.241-8.463-2.06a31.711,31.711,0,0,0-12.187-.776c-2.125.2-4.273.146-6.4.294a15.141,15.141,0,0,0-3.452.558,1.769,1.769,0,0,1-2.483-.912c1.159-1.355,2.465-2.709,3.552-4.22.563-.783,1.288-2.362.987-2.68a5.767,5.767,0,0,0-3.3-1.783,14.788,14.788,0,0,0-7.442.953,48.494,48.494,0,0,1-7.584,2.208c-.423.1-1.009-.438-1.512-.7-.029-.015.014-.171.023-.262a1.292,1.292,0,0,1-1.441-1.381,5.232,5.232,0,0,1,1.133-1.946c1.24-1.821,2.519-3.615,3.737-5.451a5.161,5.161,0,0,0,.328-1.474,16.411,16.411,0,0,1-1.923,1.463,3.978,3.978,0,0,1-1.882.583c-.835-.031-.981-.88-.383-1.83-.926-.225-1.543-.788-.78-1.621,1.807-1.972,2.087-4.531,2.839-6.9.7-2.2-.692-3.837-2.014-5.272a4.235,4.235,0,0,0-4.221-1.2,45.558,45.558,0,0,0-11.783,4.794,16.571,16.571,0,0,0-5.743,4.436,1.123,1.123,0,0,1-1.072.146c-.4-.439-.931-1.1-.847-1.573a23.394,23.394,0,0,0-.365-9.074c-.347-1.637-1.095-1.983-2.385-.97-1.691,1.331-3.27,2.8-4.949,4.261a30.091,30.091,0,0,1-1.87-2.722c-.981-1.8-1.839-1.856-3.645-1.209-3.623,1.3-6.447,3.64-7.591,7.583a3.972,3.972,0,0,1-1.259,1.587c-.107.1-.733-.239-.987-.5a1.1,1.1,0,0,1-.167-.886,14.343,14.343,0,0,1,3.234-5.819c1.859-2.208,4.032-4.007,7.032-4.336a8.444,8.444,0,0,1,2.532.376,2.394,2.394,0,0,1,.993.469c1.914,1.575,3.315-.231,4.939-.683a10.157,10.157,0,0,1,3.521-.552c1.38.128,3.024,2.72,3.076,4.5.055,1.915.013,3.833.013,6,1.879-1.4,3.645-2.516,5.175-3.894a16.845,16.845,0,0,1,8.71-3.986c2.613-.447,5.547-.622,7.653.729,2.561,1.642,5.422,3.676,5.448,7.383a32.008,32.008,0,0,1-.6,3.718,1.771,1.771,0,0,0,.346,1.356c2.387,2.04,2.657,3.588,1.266,6.427-.8,1.622-1.327,3.374-2,5.127,2.95-.676,5.852-1.346,8.756-2a9.076,9.076,0,0,1,8.95,3.166,1.831,1.831,0,0,1-.031,2.249c-.692,1.229-1.457,2.418-2.314,3.822a27.052,27.052,0,0,0,3.121-.023c1.423-.17,2.82-.534,4.239-.741.418-.061.877.208,1.312.192a23.426,23.426,0,0,1,2.965-.217,66.59,66.59,0,0,1,7.684.981c4.234.9,8.405,2.105,12.627,3.077a42.306,42.306,0,0,1,12.15,4.942,23.253,23.253,0,0,1,9.49,10.021,17,17,0,0,1,1.636,10.711,15.124,15.124,0,0,0-.19,3.245,24.943,24.943,0,0,1-1.951,10.074,50,50,0,0,1-2.1,5.209c-1.485,2.668-3.232,5.188-4.858,7.777-.682,1.086-1.306,2.21-2.015,3.278-.336.506-.763.472-1.183-.023C-1651.933-102.425-1652.508-102.98-1653.187-103.693Z" transform="translate(3.625 36.97)" fill="#000"/>
    <path id="Path_1154" data-name="Path 1154" d="M-1557.616-244.434c0-1.164-.031-2.009.007-2.85.065-1.452.125-2.907.271-4.351.434-4.276.784-8.565,1.418-12.812a56.448,56.448,0,0,1,1.832-6.849,37.768,37.768,0,0,1,1.639-5.442,42.367,42.367,0,0,1,5.319-9.414c2.385-2.94,5.1-5.518,8.811-6.612a7.141,7.141,0,0,1,3.517.35,8.41,8.41,0,0,1,4.956,3.114,19.464,19.464,0,0,1,2.385,4.057c1.143,2.919,2.607,5.8,2.358,9.072-.124,1.625-.533,3.227-.732,4.848a23.206,23.206,0,0,0-.017,2.66c.687-.8,1.306-1.443,1.842-2.152a9.208,9.208,0,0,1,6.3-3.987,5.077,5.077,0,0,1,3.341.854c.538.4.64,1.858.415,2.7a16.87,16.87,0,0,1-1.775,3.767c-.364.649-.285.973.366,1.267a24.5,24.5,0,0,1,4.131,1.98,10.439,10.439,0,0,1,3.431,3.4c1,1.989-.463,3.8-1.406,5.537-.33.608-.81,1.139-1.105,1.759-.379.8-.908,1.286-1.8,1.066a1.325,1.325,0,0,1-.837-.685,1.08,1.08,0,0,1,.341-.932c2.266-1.828,2.759-4.276,2.365-6.96a1.985,1.985,0,0,0-1.3-1.182c-2.291-.592-4.635-.977-6.928-1.564a1.774,1.774,0,0,1-.5-3.008,10.3,10.3,0,0,0,1.622-1.8,3.575,3.575,0,0,0,.231-1.394c-.632-.072-1.354-.378-1.88-.176a11.879,11.879,0,0,0-5.4,4.524c-.4.576-.573,1.313-.973,1.894a5.131,5.131,0,0,1-1.651,1.846c-.781.365-1.391-.265-1.354-1.184.068-1.683.135-3.369.3-5.045a65.293,65.293,0,0,1,.827-6.723c.856-4.206-1-7.751-2.888-11.107-1.121-1.994-3.245-3.474-5.086-4.979-.526-.431-1.639-.146-2.476-.188.429.706,1.014,1.241.957,1.7s-.712.893-1.195,1.2a18.315,18.315,0,0,0-6.682,7.093,58.907,58.907,0,0,0-3.31,7.268c-.868,2.435-1.318,5.017-1.975,7.53-.5,1.905-1.163,3.778-1.52,5.708-.636,3.439-1.1,6.911-1.627,10.371a33.5,33.5,0,0,1-.536,3.544,14.364,14.364,0,0,0-.293,6.492,13.809,13.809,0,0,1-.056,2.817c-1.3-.583-2.474-.785-3.109-1.481a10.828,10.828,0,0,1-1.612-3.21,2.928,2.928,0,0,0-4.594-1.234,19.963,19.963,0,0,0-3.394,2.937,10.588,10.588,0,0,0-1.666,3.641,30.291,30.291,0,0,0-1.147,5.621,39.42,39.42,0,0,0,.094,5.935,8.97,8.97,0,0,0,2.527,5.386c.21.239.033.82.036,1.244-.474-.074-1.134.029-1.4-.247a12.593,12.593,0,0,1-3.18-7.24,33.217,33.217,0,0,1-.278-5.592,19.78,19.78,0,0,1,2.824-10.378,19.211,19.211,0,0,1,2.62-3.5c2.29-2.235,5.385-2.271,7.464.087C-1558.5-245.157-1558.169-244.923-1557.616-244.434Z" transform="translate(31.852 4.517)" fill="#000"/>
    <path id="Path_1155" data-name="Path 1155" d="M-1563.937-208.726c-1.839-.218-1.93-1.558-2.483-2.477-.3-.494-.41-1.093-.674-1.61-.987-1.936-3.085-2.152-4.016-.229-1.343,2.776-3.074,5.388-3.424,8.639-.188,1.745-1.167,3.421-1.9,5.08-.158.359-.919.8-1.167.691a2.069,2.069,0,0,1-.961-1.231c-1.125-4-2.132-8.027-3.283-12.017-.882-3.06-4.777-4.71-8.388-3.7-4.13,1.15-6.4,3.969-8.224,7.435a21.111,21.111,0,0,0-2.219,8.249c-.161,2.03-.621,4.038-.754,6.068a35.76,35.76,0,0,0,.223,4.355c.186,3.231.178,6.489.629,9.682.262,1.855,1.289,3.594,1.913,5.406a9.166,9.166,0,0,1,.506,2.389c.01.168-.8.619-1.136.537-1.512-.375-2.962-1.026-4.484-1.331-2.379-.477-5.345.138-5.919,2.461a6.54,6.54,0,0,0,.417,4c1.119,2.435,2.619,4.695,3.968,7.023a8.019,8.019,0,0,0,.824,1.293,37.476,37.476,0,0,0,2.611,2.79c1.069.994,1.726,2.017.3,2.9a1.307,1.307,0,0,1-1.225-.043,38.672,38.672,0,0,1-3.617-3.736c-1.74-2.15-3.365-4.393-4.986-6.636a31.025,31.025,0,0,1-2.078-3.309,6.045,6.045,0,0,1,1.756-7.815,1.184,1.184,0,0,0,.387-.386c1.246-2.915,3.834-2.167,6.088-2.166a14,14,0,0,1,2.928.67,38.257,38.257,0,0,0-.35-3.925c-1.06-5.605-2.066-11.227-1.791-16.95a21.332,21.332,0,0,1,1.471-7.739c.942-2.167,1.505-4.527,2.886-6.5a29.432,29.432,0,0,1,3.889-4.934c1.982-1.821,4.207-3.5,7.28-2.434,1.639.569,3.384.857,4.979,1.518,2.677,1.108,3.8,3.563,4.711,6.09.8,2.226,1.481,4.492,2.333,7.1.32-1.065.565-1.866.8-2.668.278-.938.473-1.909.842-2.808.68-1.655,1.405-3.3,2.221-4.889a11.5,11.5,0,0,1,1.775-2.585c1.854-1.987,4.311-1.365,5.106,1.208.193.626.486,1.223.747,1.868.467-1.073.936-2.214,1.452-3.335,1.233-2.678,2.745-5.135,5.361-6.724a3.263,3.263,0,0,0,.766-.922c.8-1.1,3.271-1.9,4.192-1.232a2.706,2.706,0,0,1,.948,1.472,23.947,23.947,0,0,1,.308,3.1,27.474,27.474,0,0,1,9.342-7.65,43.885,43.885,0,0,1,8.549-3.529,8.39,8.39,0,0,1,8.255,1.974,13.115,13.115,0,0,0,2.974,2.188c2.345,1.216,2.834,3.5,3.391,5.682.541,2.114.757,4.309,1.162,6.461a6.793,6.793,0,0,0,.616,1.373c-.182.24-.4.763-.792,1-.9.541-1.8-.055-2.062-1.1-.794-3.214-1.5-6.462-2.544-9.6a5.686,5.686,0,0,0-3.823-4.023c-1.419-.4-2.77-1.032-4.185-1.451a8.8,8.8,0,0,0-6.045.479,34.674,34.674,0,0,0-5.888,2.931c-3.479,2.345-6.806,4.914-8.542,8.975-.653,1.525-1.279,1.663-3.491.946.1-.573.225-1.174.314-1.78.222-1.521.449-3.043.623-4.571.032-.287-.138-.834-.277-.856a1.243,1.243,0,0,0-.988.275c-1.738,1.995-3.95,3.626-5.036,6.124a10.7,10.7,0,0,1-1.806,2.692c-.683.805-.781,2.141-1.031,3.267A20.99,20.99,0,0,0-1563.937-208.726Zm-38.309,7.7-.493-.067q-.254,2.927-.506,5.854l.436.036Q-1602.529-198.116-1602.247-201.028Z" transform="translate(25.51 25.095)" fill="#000"/>
    <path id="Path_1156" data-name="Path 1156" d="M-1770.038-253.472c2.933-.169,5.8-.5,8.661-.449a11.139,11.139,0,0,1,6.833,2.484c2.738,2.2,2.821,5.444.538,7.946,1.945,0,4.157-.347,6.2.085,2.775.585,4.442,1.971,2.638,5.4-.524,1-1.024,2.01-1.627,2.956s-1.31,1.8-2.029,2.773c1.824.128,3.54.183,5.24.381a51.983,51.983,0,0,1,8.012,1.184c1.845.517,3.487,1.814,5.165,2.852,1.432.887,2.789,1.9,4.172,2.862a1.74,1.74,0,0,1,.471.473,8.38,8.38,0,0,1-.649,9.421c-.894,1.116-1.775,2.243-2.581,3.262,2.749.664,5.469,1.259,8.15,2a14.165,14.165,0,0,1,3.2,1.424c1.663.955,1.779,2.57.365,4.269-.815.981-1.684,1.918-2.664,3.025.475.146.863.244,1.235.383,2.221.828,4.571,1.487,5.62,3.966a2.1,2.1,0,0,1,.285,1.132c-.426,1.764-.63,3.691-1.526,5.194-.629,1.054-2.181,1.659-3.434,2.205a11.075,11.075,0,0,1-3.268.654c-.285.03-.74-.4-.911-.726a6.145,6.145,0,0,1-.677-1.976c-.03-.225.514-.728.84-.771,3.362-.441,3.364-.423,6.218-2.452-1.014-3.317-2.53-5.452-6.385-5.674a8.966,8.966,0,0,0-5.2,1.14,12.784,12.784,0,0,1-4.008,1.107c-.383.065-.874-.5-1.317-.773.24-.37.4-.94.734-1.08,2.67-1.117,5.245-2.529,8.212-2.8a2.014,2.014,0,0,0,1-.6c.655-.6,1.227-1.3,1.9-1.876.654-.554,1.021-1.215.378-1.849a7.788,7.788,0,0,0-2.453-1.676,10.583,10.583,0,0,0-3.943-1.041,36.83,36.83,0,0,0-7.873.828c-1.686.4-3.148,1.693-4.746,2.519-2.274,1.176-4.554,2.344-6.884,3.4-.78.353-1.712.313-2.308-1.057a19.04,19.04,0,0,1,2.2-1.6c2.642-1.429,5.51-2.516,7.95-4.223,3.834-2.682,7.162-5.951,8.387-10.733a5.2,5.2,0,0,0,0-2.473c-1.142-4.471-4.406-6.5-8.673-7.261a38.277,38.277,0,0,0-4.858-.6,12.306,12.306,0,0,0-2.886.431c-1.362.267-2.727.535-4.069.885a2.347,2.347,0,0,1-2.946-1.449c-.193-.462.349-1.356.746-1.918,1.531-2.172,3.151-4.28,4.71-6.432.653-.9.427-1.518-.71-1.7a49.61,49.61,0,0,0-6.4-.907,16.118,16.118,0,0,0-4.136,1,2.091,2.091,0,0,1,.411-2.7,26.05,26.05,0,0,0,3.37-3.422c1.463-1.925.447-4.127-1.9-4.934a19.661,19.661,0,0,0-7.051-1.1c-2.436.077-4.864.423-7.3.654a10.6,10.6,0,0,1-2.3.186c-.515-.065-.975-.549-1.46-.846.282-.4.476-1,.859-1.169,3.319-1.472,5.574-4.163,8-6.7a6.446,6.446,0,0,0-6.1-3.916,26.146,26.146,0,0,0-10.609,1.259c-.9.341-1.73-.045-2.181-1.265.73-.288,1.41-.6,2.118-.828a28.685,28.685,0,0,1,6.77-1.192,16.876,16.876,0,0,1,7.4.981,11.709,11.709,0,0,1,3.829,2.583,3.491,3.491,0,0,1-.261,5.255C-1766.919-255.818-1768.467-254.724-1770.038-253.472Z" transform="translate(0 15.751)" fill="#000"/>
    <path id="Path_1157" data-name="Path 1157" d="M-1643.172-172.744c-3.038-.313-4.063-2.651-3.2-5.271a19.352,19.352,0,0,1,1.2-2.52c.523-1.039,3.068-1.649,4.447-1.125,3.152,1.2,2.987,3.437,1.905,5.893C-1639.581-174.025-1640.934-172.614-1643.172-172.744Zm-1.414-4.671a2.082,2.082,0,0,0,.307,2.976c.541.52,1.035.923,1.814.2A3.032,3.032,0,0,1-1644.586-177.415Z" transform="translate(20.677 33.576)" fill="#000"/>
    <path id="Path_1158" data-name="Path 1158" d="M-1693.47-306.036a7.873,7.873,0,0,1,1.229.114,5.508,5.508,0,0,0,4.355-.2c1.594-.769,3.692-.519,5.573-.658,3.012-.223,6.045-.263,9.039-.632,3.043-.373,6.042-1.09,9.073-1.577a22.256,22.256,0,0,1,3.832-.231c.279,0,.773.61.761.924a1.213,1.213,0,0,1-.844.853,33.92,33.92,0,0,0-8.529,1c-1.749.488-3.734.092-5.519.5-4.1.944-8.322.264-12.394,1.092-4.1.834-8.272.643-12.4,1.056-.324.033-.687-.324-1.032-.5.277-.288.519-.778.838-.834C-1697.4-305.5-1695.3-305.77-1693.47-306.036Z" transform="translate(12.679 2.081)" fill="#000"/>
    <path id="Path_1159" data-name="Path 1159" d="M-1628.426-307.371a3.189,3.189,0,0,1,1.019-.277,46.894,46.894,0,0,0,14.287-1.373,1.344,1.344,0,0,1,.813,0,7.45,7.45,0,0,1,1.08.772,7.578,7.578,0,0,1-1.028,1.007c-.224.153-.593.094-.9.126-3.4.361-6.791.74-10.19,1.07a11.529,11.529,0,0,1-2.95.025,9.168,9.168,0,0,1-2.175-.961Z" transform="translate(23.389 2.102)" fill="#000"/>
    <path id="Path_1160" data-name="Path 1160" d="M-1759.3-296.231a4.968,4.968,0,0,1-1.227.606c-2.366.439-4.742.819-7.162,1.42,1.123.789,2.168,1.44,1.161,3.13-1.28-.823-2.618-1.6-3.859-2.512a1.221,1.221,0,0,1,.512-2.012c1.947-.5,3.914-.926,5.872-1.383a9.885,9.885,0,0,1,2.343-.508,10.029,10.029,0,0,1,2.342.618Z" transform="translate(2.184 3.83)" fill="#000"/>
    <path id="Path_1161" data-name="Path 1161" d="M-1546.682-315c-.844-.678-1.776-1.064-2.072-1.734-.848-1.921-2.651-1.648-3.954-1.545a73,73,0,0,0-10.247,1.559,46.823,46.823,0,0,1-10.347.761,6.974,6.974,0,0,1-.809-.163c.425-.423.651-.85.945-.9,1.279-.228,2.58-.323,3.866-.507,2.252-.321,4.5-.689,6.752-1.005q4.724-.662,9.457-1.266c1.078-.138,2.164-.2,3.248-.279a1.226,1.226,0,0,1,1.44,1.107,2.036,2.036,0,0,0,.9,1.254C-1546.5-317.242-1546.39-316.509-1546.682-315Z" transform="translate(31.491 0.461)" fill="#000"/>
  </g>
</svg>
